<svg width="28" height="28" viewBox="0 0 28 28" fill="none" xmlns="http://www.w3.org/2000/svg">
<path fill-rule="evenodd" clip-rule="evenodd" d="M21.9423 4.44426L25.7511 8.25301C26.083 8.58485 26.083 9.12293 25.751 9.45505L21.9422 13.2638C21.7762 13.4297 21.5587 13.5127 21.3412 13.5127C21.1238 13.5127 20.9063 13.4298 20.7403 13.2638C20.4083 12.9319 20.4083 12.3938 20.7403 12.0619L23.0983 9.70388H11.573C11.1036 9.70388 10.7231 9.32341 10.7231 8.85398C10.7231 8.38456 11.1036 8.00409 11.573 8.00409H23.0983L20.7403 5.6462C20.4083 5.31427 20.4083 4.77619 20.7403 4.44426C21.0723 4.11233 21.6103 4.11233 21.9423 4.44426ZM4.90175 18.3005H16.427C16.8963 18.3005 17.2768 18.681 17.2768 19.1505C17.2768 19.6199 16.8963 20.0004 16.4269 20.0004H4.90166L7.25964 22.3583C7.59157 22.6902 7.59157 23.2283 7.25964 23.5602C7.09363 23.7261 6.87615 23.8091 6.65867 23.8091C6.44119 23.8091 6.22371 23.7261 6.0577 23.5602L2.24895 19.7514C1.91702 19.4195 1.91702 18.8814 2.24895 18.5495L6.0577 14.7406C6.38973 14.4086 6.92771 14.4085 7.25973 14.7406C7.59166 15.0725 7.59166 15.6106 7.25973 15.9425L4.90175 18.3005Z" fill="#F4D8E9"/>
</svg>
