<svg width="19" height="20" viewBox="0 0 19 20" fill="none" xmlns="http://www.w3.org/2000/svg">
<path d="M2.48319 17.6633H14.3657L13.7982 15.8258C13.8824 15.8992 18.6665 20 18.6665 20V2.0625C18.6099 0.9475 17.6499 0 16.4599 0L2.48736 0.0025C1.29819 0.0025 0.333191 0.951667 0.333191 2.06667V15.6C0.333191 16.7758 1.29652 17.6633 2.48319 17.6633ZM11.2732 4.73583L11.2457 4.74583L11.2557 4.73583H11.2732ZM4.91402 5.79333C6.44152 4.68167 7.85736 4.735 7.85736 4.735L7.97152 4.8475C6.10236 5.29333 5.25486 6.12833 5.25486 6.12833C5.34152 6.11 9.11569 3.9325 13.689 6.18333C13.689 6.18333 12.8399 5.4025 11.0857 4.9025L11.2407 4.75C11.4832 4.75083 12.7665 4.79583 14.1399 5.8C14.1399 5.8 15.6765 8.425 15.6765 11.65C15.6257 11.5883 14.7232 13.0383 12.4007 13.0883C12.4007 13.0883 12.0074 12.6433 11.7274 12.255C13.0857 11.865 13.594 11.085 13.594 11.085C10.9499 12.75 8.63236 12.49 5.85986 11.365C5.83402 11.365 5.82236 11.3533 5.80902 11.34V11.335C5.79569 11.3225 5.78402 11.31 5.75819 11.31H5.70819C5.53819 11.1983 5.42486 11.1433 5.42486 11.1433C5.42486 11.1433 5.93236 11.9233 7.23653 12.3133C6.89402 12.7042 6.55486 13.1483 6.55486 13.1483C4.23319 13.0933 3.38652 11.6433 3.38652 11.6433C3.38652 8.41333 4.91402 5.79333 4.91402 5.79333Z" fill="#5C6BC0"/>
<path d="M11.4234 10.6422C12.0159 10.6422 12.4984 10.1422 12.4984 9.52558C12.4984 8.91308 12.0184 8.41309 11.4234 8.41309V8.41559C10.8334 8.41559 10.3501 8.91392 10.3484 9.53058C10.3484 10.1422 10.8309 10.6422 11.4234 10.6422Z" fill="#5C6BC0"/>
<path d="M7.57481 10.6422C8.16731 10.6422 8.64981 10.1422 8.64981 9.52558C8.64981 8.91308 8.17065 8.41309 7.57815 8.41309L7.57481 8.41559C6.98232 8.41559 6.49982 8.91392 6.49982 9.53058C6.49982 10.1422 6.98232 10.6422 7.57481 10.6422Z" fill="#5C6BC0"/>
</svg>
