<svg width="20" height="20" viewBox="0 0 20 20" fill="none" xmlns="http://www.w3.org/2000/svg">
<g clip-path="url(#clip0_2324_72)">
<path d="M2.98316 17.6633H14.8657L14.2982 15.8258C14.3823 15.8992 19.1665 20 19.1665 20V2.0625C19.1098 0.9475 18.1498 0 16.9598 0L2.98733 0.0025C1.79816 0.0025 0.83316 0.951667 0.83316 2.06667V15.6C0.83316 16.7758 1.79649 17.6633 2.98316 17.6633ZM11.7732 4.73583L11.7457 4.74583L11.7557 4.73583H11.7732ZM5.41399 5.79333C6.94149 4.68167 8.35733 4.735 8.35733 4.735L8.47149 4.8475C6.60233 5.29333 5.75483 6.12833 5.75483 6.12833C5.84149 6.11 9.61566 3.9325 14.189 6.18333C14.189 6.18333 13.3398 5.4025 11.5857 4.9025L11.7407 4.75C11.9832 4.75083 13.2665 4.79583 14.6398 5.8C14.6398 5.8 16.1765 8.425 16.1765 11.65C16.1257 11.5883 15.2232 13.0383 12.9007 13.0883C12.9007 13.0883 12.5073 12.6433 12.2273 12.255C13.5857 11.865 14.094 11.085 14.094 11.085C11.4498 12.75 9.13233 12.49 6.35983 11.365C6.33399 11.365 6.32233 11.3533 6.30899 11.34V11.335C6.29566 11.3225 6.28399 11.31 6.25816 11.31H6.20816C6.03816 11.1983 5.92483 11.1433 5.92483 11.1433C5.92483 11.1433 6.43233 11.9233 7.73649 12.3133C7.39399 12.7042 7.05483 13.1483 7.05483 13.1483C4.73316 13.0933 3.88649 11.6433 3.88649 11.6433C3.88649 8.41333 5.41399 5.79333 5.41399 5.79333Z" fill="#F4D8E9"/>
<path d="M11.9234 10.6432C12.5159 10.6432 12.9984 10.1432 12.9984 9.52656C12.9984 8.91406 12.5184 8.41406 11.9234 8.41406V8.41656C11.3334 8.41656 10.85 8.91489 10.8484 9.53156C10.8484 10.1432 11.3309 10.6432 11.9234 10.6432Z" fill="#F4D8E9"/>
<path d="M8.07478 10.6432C8.66728 10.6432 9.14978 10.1432 9.14978 9.52656C9.14978 8.91406 8.67061 8.41406 8.07812 8.41406L8.07478 8.41656C7.48228 8.41656 6.99979 8.91489 6.99979 9.53156C6.99979 10.1432 7.48228 10.6432 8.07478 10.6432Z" fill="#F4D8E9"/>
</g>
<defs>
<clipPath id="clip0_2324_72">
<rect width="20" height="20" fill="white"/>
</clipPath>
</defs>
</svg>
