<svg width="25" height="24" viewBox="0 0 25 24" fill="none" xmlns="http://www.w3.org/2000/svg">
<path d="M8.99813 17.329C9.42327 16.8113 9.67913 16.1496 9.67913 15.4287C9.67913 13.7744 8.33299 12.4287 6.67913 12.4287C5.02527 12.4287 3.67913 13.7744 3.67913 15.4287C3.67913 16.1496 3.93499 16.8113 4.36013 17.329C2.93213 18.1403 1.96484 19.6724 1.96484 21.4287C1.96484 21.9019 2.34884 22.2859 2.82199 22.2859C3.29513 22.2859 3.67913 21.9019 3.67913 21.4287C3.67913 19.7744 5.02527 18.4287 6.67913 18.4287C8.33299 18.4287 9.67913 19.7744 9.67913 21.4287C9.67913 21.9019 10.0631 22.2859 10.5363 22.2859C11.0094 22.2859 11.3934 21.9019 11.3934 21.4287C11.3934 19.6724 10.4261 18.1403 8.99813 17.329ZM6.67913 16.7144C5.97027 16.7144 5.39341 16.1376 5.39341 15.4287C5.39341 14.7199 5.97027 14.143 6.67913 14.143C7.38799 14.143 7.96484 14.7199 7.96484 15.4287C7.96484 16.1376 7.38799 16.7144 6.67913 16.7144Z" fill="#F4D8E9"/>
<path d="M20.1407 17.329C20.5658 16.8113 20.8217 16.1496 20.8217 15.4287C20.8217 13.7744 19.4756 12.4287 17.8217 12.4287C16.1679 12.4287 14.8217 13.7744 14.8217 15.4287C14.8217 16.1496 15.0776 16.8113 15.5027 17.329C14.0747 18.1403 13.1074 19.6724 13.1074 21.4287C13.1074 21.9019 13.4914 22.2859 13.9646 22.2859C14.4377 22.2859 14.8217 21.9019 14.8217 21.4287C14.8217 19.7744 16.1679 18.4287 17.8217 18.4287C19.4756 18.4287 20.8217 19.7744 20.8217 21.4287C20.8217 21.9019 21.2057 22.2859 21.6789 22.2859C22.152 22.2859 22.536 21.9019 22.536 21.4287C22.536 19.6724 21.5687 18.1403 20.1407 17.329ZM17.8217 16.7144C17.1129 16.7144 16.536 16.1376 16.536 15.4287C16.536 14.7199 17.1129 14.143 17.8217 14.143C18.5306 14.143 19.1074 14.7199 19.1074 15.4287C19.1074 16.1376 18.5306 16.7144 17.8217 16.7144Z" fill="#F4D8E9"/>
<path d="M21.6791 4.71387H15.6791V2.57101C15.6791 2.09787 15.2951 1.71387 14.822 1.71387H2.82199C2.34884 1.71387 1.96484 2.09787 1.96484 2.57101V7.71387C1.96484 7.94101 2.05527 8.15915 2.21599 8.31987L3.93027 10.0342C4.09784 10.2017 4.31684 10.2853 4.53627 10.2853C4.7557 10.2853 4.9747 10.2017 5.14227 10.0342L6.60541 8.57101H8.82199V9.85672C8.82199 10.3299 9.20599 10.7139 9.67913 10.7139H17.8957L19.3588 12.177C19.5264 12.3446 19.7454 12.4282 19.9648 12.4282C20.1843 12.4282 20.4033 12.3446 20.5708 12.177L22.2851 10.4627C22.4458 10.302 22.5363 10.0839 22.5363 9.85672V5.57101C22.5363 5.09787 22.1523 4.71387 21.6791 4.71387ZM8.82199 5.57101V6.85672H6.25056C6.02341 6.85672 5.80527 6.94715 5.64456 7.10787L4.53627 8.21572L3.67913 7.35858V3.42815H13.9648V4.71387H9.67913C9.20599 4.71387 8.82199 5.09787 8.82199 5.57101ZM20.822 9.50144L19.9648 10.3586L18.8566 9.25072C18.6958 9.09001 18.4777 8.99958 18.2506 8.99958H10.5363V7.71387V6.42815H14.822H20.822V9.50144Z" fill="#F4D8E9"/>
<path d="M6.67941 19.7139C6.20627 19.7139 5.82227 20.0979 5.82227 20.571V21.4282C5.82227 21.9013 6.20627 22.2853 6.67941 22.2853C7.15255 22.2853 7.53655 21.9013 7.53655 21.4282V20.571C7.53655 20.0979 7.15255 19.7139 6.67941 19.7139Z" fill="#F4D8E9"/>
<path d="M18.2494 20.5713H17.3923C16.9192 20.5713 16.5352 20.9553 16.5352 21.4284C16.5352 21.9016 16.9192 22.2856 17.3923 22.2856H18.2494C18.7226 22.2856 19.1066 21.9016 19.1066 21.4284C19.1066 20.9553 18.7226 20.5713 18.2494 20.5713Z" fill="#F4D8E9"/>
</svg>
