<svg width="25" height="24" viewBox="0 0 25 24" fill="none" xmlns="http://www.w3.org/2000/svg">
<path fill-rule="evenodd" clip-rule="evenodd" d="M9.83325 9.05817C9.83325 9.62889 9.37731 10.0916 8.81487 10.0916L3.48249 10.0916H3.48225C3.33179 10.0916 3.18894 10.0584 3.06041 9.99901C2.96046 9.9529 2.86648 9.88963 2.78288 9.80934C2.73936 9.7676 2.69946 9.722 2.66372 9.6731C2.62406 9.61888 2.59033 9.56169 2.56252 9.50243C2.49927 9.36785 2.46387 9.2172 2.46387 9.05817L2.46387 3.64699C2.46387 3.07626 2.91981 2.6136 3.48225 2.6136C4.04469 2.6136 4.50063 3.07626 4.50063 3.64698L4.50063 6.66916L6.89751 4.38374C7.97228 3.29655 9.30015 2.50213 10.7581 2.07419C12.2214 1.64471 13.768 1.59836 15.2537 1.93946C16.7393 2.28057 18.1157 2.99801 19.2542 4.02484C20.3927 5.05168 21.2563 6.35444 21.7645 7.81157C21.9521 8.3496 21.6744 8.9401 21.1441 9.13049C20.6139 9.32088 20.032 9.03906 19.8444 8.50103C19.451 7.37303 18.7824 6.36453 17.9011 5.56963C17.0197 4.77473 15.9543 4.21933 14.8042 3.95528C13.6541 3.69122 12.4568 3.7271 11.3241 4.05957C10.1913 4.39204 9.16006 5.01027 8.32646 5.85657C8.31894 5.86421 8.3113 5.87173 8.30354 5.87912L6.05324 8.02478L8.81487 8.02478C9.37731 8.02478 9.83325 8.48744 9.83325 9.05817ZM15.666 14.9411C15.666 14.3703 16.1219 13.9077 16.6844 13.9077H22.0168H22.017C22.1662 13.9077 22.3079 13.9402 22.4355 13.9987C22.5393 14.0461 22.6367 14.112 22.7228 14.1961C22.7593 14.2318 22.7932 14.2701 22.8242 14.3109C22.8727 14.3747 22.9128 14.4429 22.9446 14.514C23.0029 14.6441 23.0354 14.7888 23.0354 14.9411V20.3522C23.0354 20.923 22.5794 21.3856 22.017 21.3856C21.4546 21.3856 20.9986 20.923 20.9986 20.3522V17.3301L18.6017 19.6155C17.527 20.7027 16.1991 21.4971 14.7411 21.925C13.2779 22.3545 11.7312 22.4009 10.2456 22.0598C8.7599 21.7187 7.38359 21.0012 6.24507 19.9744C5.10655 18.9476 4.24293 17.6448 3.73479 16.1877C3.54716 15.6496 3.82489 15.0591 4.3551 14.8687C4.88532 14.6784 5.46725 14.9602 5.65488 15.4982C6.04825 16.6262 6.7168 17.6347 7.59816 18.4296C8.47952 19.2245 9.54496 19.7799 10.6951 20.044C11.8452 20.308 13.0424 20.2721 14.1752 19.9397C15.3079 19.6072 16.3392 18.989 17.1728 18.1427C17.1803 18.135 17.1879 18.1275 17.1957 18.1201L19.446 15.9745H16.6844C16.1219 15.9745 15.666 15.5118 15.666 14.9411Z" fill="white"/>
</svg>
