<svg width="25" height="24" viewBox="0 0 25 24" fill="none" xmlns="http://www.w3.org/2000/svg">
<path fill-rule="evenodd" clip-rule="evenodd" d="M3.76144 5.14244C3.2883 5.14244 2.9043 5.52644 2.9043 5.99958C2.9043 6.47273 3.2883 6.85672 3.76144 6.85672H4.61858V21.4282C4.61858 21.9013 5.00258 22.2853 5.47573 22.2853H19.19C19.6632 22.2853 20.0472 21.9013 20.0472 21.4282V12.321V11.9996V6.85672H20.9043C21.3774 6.85672 21.7614 6.47273 21.7614 5.99958C21.7614 5.52644 21.3774 5.14244 20.9043 5.14244H16.19V2.57101C16.19 2.09787 15.806 1.71387 15.3329 1.71387H9.33287C8.85972 1.71387 8.47573 2.09787 8.47573 2.57101V5.14244H3.76144ZM18.3329 11.9996V12.321V20.571H6.33287V6.85672H18.3329V11.9996ZM10.19 3.42815H14.4757V5.14244H10.19V3.42815ZM8.9043 11.571V15.8567C8.9043 16.3299 9.2883 16.7139 9.76144 16.7139C10.2346 16.7139 10.6186 16.3299 10.6186 15.8567V11.571C10.6186 11.0979 10.2346 10.7139 9.76144 10.7139C9.2883 10.7139 8.9043 11.0979 8.9043 11.571ZM14.0472 15.8567V11.571C14.0472 11.0979 14.4312 10.7139 14.9043 10.7139C15.3774 10.7139 15.7614 11.0979 15.7614 11.571V15.8567C15.7614 16.3299 15.3774 16.7139 14.9043 16.7139C14.4312 16.7139 14.0472 16.3299 14.0472 15.8567Z" fill="#F4D8E9"/>
</svg>
