<svg width="60" height="60" viewBox="0 0 60 60" fill="none" xmlns="http://www.w3.org/2000/svg">
<path fill-rule="evenodd" clip-rule="evenodd" d="M0 30C0 13.4587 13.4587 0 30 0C46.5412 0 60 13.4587 60 30C60 46.5412 46.5412 60 30 60C13.4587 60 0 46.5412 0 30ZM45 27.5H54.8737C53.6975 15.7075 44.2925 6.3025 32.5 5.12625V15H37.5C41.6362 15 45 18.3638 45 22.5V27.5ZM40 37.5V32.5C38.62 32.5 37.5 31.38 37.5 30C37.5 28.62 38.62 27.5 40 27.5V22.5C40 21.1213 38.8787 20 37.5 20H32.5C32.5 21.38 31.38 22.5 30 22.5C28.62 22.5 27.5 21.38 27.5 20H22.5C21.1213 20 20 21.1213 20 22.5V27.5C21.38 27.5 22.5 28.62 22.5 30C22.5 31.38 21.38 32.5 20 32.5V37.5C20 38.8787 21.1213 40 22.5 40H27.5C27.5 38.62 28.62 37.5 30 37.5C31.38 37.5 32.5 38.62 32.5 40H37.5C38.8787 40 40 38.8787 40 37.5ZM27.5 15V5.12625C15.7075 6.3025 6.3025 15.7075 5.12625 27.5H15V22.5C15 18.3638 18.3638 15 22.5 15H27.5ZM15 32.5H5.12625C6.3025 44.2925 15.7075 53.6975 27.5 54.8737V45H22.5C18.3638 45 15 41.6362 15 37.5V32.5ZM32.5 45V54.8737C44.2925 53.6975 53.6975 44.2925 54.8737 32.5H45V37.5C45 41.6362 41.6362 45 37.5 45H32.5ZM26.25 30C26.25 27.9325 27.9325 26.25 30 26.25C32.0675 26.25 33.75 27.9325 33.75 30C33.75 32.0675 32.0675 33.75 30 33.75C27.9325 33.75 26.25 32.0675 26.25 30Z" fill="#F4D8E9"/>
</svg>
