<svg width="20" height="20" viewBox="0 0 20 20" fill="none" xmlns="http://www.w3.org/2000/svg">
<g clip-path="url(#clip0)">
<path d="M2.98301 17.6633H14.8655L14.298 15.8258C14.3822 15.8992 19.1663 20 19.1663 20V2.0625C19.1097 0.9475 18.1497 0 16.9597 0L2.98717 0.0025C1.79801 0.0025 0.833008 0.951667 0.833008 2.06667V15.6C0.833008 16.7758 1.79634 17.6633 2.98301 17.6633ZM11.773 4.73583L11.7455 4.74583L11.7555 4.73583H11.773ZM5.41384 5.79333C6.94134 4.68167 8.35717 4.735 8.35717 4.735L8.47134 4.8475C6.60218 5.29333 5.75467 6.12833 5.75467 6.12833C5.84134 6.11 9.61551 3.9325 14.1888 6.18333C14.1888 6.18333 13.3397 5.4025 11.5855 4.9025L11.7405 4.75C11.983 4.75083 13.2663 4.79583 14.6397 5.8C14.6397 5.8 16.1763 8.425 16.1763 11.65C16.1255 11.5883 15.223 13.0383 12.9005 13.0883C12.9005 13.0883 12.5072 12.6433 12.2272 12.255C13.5855 11.865 14.0938 11.085 14.0938 11.085C11.4497 12.75 9.13217 12.49 6.35967 11.365C6.33384 11.365 6.32218 11.3533 6.30884 11.34V11.335C6.29551 11.3225 6.28384 11.31 6.25801 11.31H6.20801C6.03801 11.1983 5.92467 11.1433 5.92467 11.1433C5.92467 11.1433 6.43218 11.9233 7.73634 12.3133C7.39384 12.7042 7.05467 13.1483 7.05467 13.1483C4.73301 13.0933 3.88634 11.6433 3.88634 11.6433C3.88634 8.41333 5.41384 5.79333 5.41384 5.79333Z" fill="#5C6BC0"/>
<path d="M11.9236 10.6425C12.5161 10.6425 12.9986 10.1425 12.9986 9.52583C12.9986 8.91333 12.5186 8.41333 11.9236 8.41333V8.41583C11.3336 8.41583 10.8503 8.91416 10.8486 9.53083C10.8486 10.1425 11.3311 10.6425 11.9236 10.6425Z" fill="#5C6BC0"/>
<path d="M8.075 10.6425C8.66749 10.6425 9.14999 10.1425 9.14999 9.52583C9.14999 8.91333 8.67083 8.41333 8.07833 8.41333L8.075 8.41583C7.4825 8.41583 7 8.91416 7 9.53083C7 10.1425 7.4825 10.6425 8.075 10.6425Z" fill="#5C6BC0"/>
</g>
<defs>
<clipPath id="clip0">
<rect width="20" height="20" fill="white"/>
</clipPath>
</defs>
</svg>
