<svg width="80" height="80" viewBox="0 0 80 80" fill="none" xmlns="http://www.w3.org/2000/svg">
<path fill-rule="evenodd" clip-rule="evenodd" d="M76.955 24.7015C76.25 22.9992 74.3 22.1913 72.6 22.8959C70.8984 23.5988 70.0917 25.5477 70.795 27.2483C77.8283 44.2198 69.735 63.7448 52.7552 70.7739C44.567 74.1652 35.5487 74.1852 27.3638 70.8338C19.0756 67.4275 12.6273 61.0031 9.20402 52.7464C2.17077 35.7749 10.264 16.2499 27.2438 9.22079C35.5087 5.79951 44.6086 5.81616 52.8619 9.26743C54.5635 9.98033 56.5118 9.17914 57.2235 7.48183C57.9352 5.78451 57.1335 3.83235 55.4369 3.12278C45.532 -1.0214 34.6138 -1.04139 24.6922 3.06614C4.31574 11.4994 -5.39582 34.9304 3.04576 55.2965C7.15238 65.2039 14.8873 72.9109 24.8322 76.9985C29.7188 78.9989 34.8504 80 39.9837 80C45.1753 80 50.3669 78.9773 55.3069 76.9318C75.685 68.4969 85.3949 45.066 76.955 24.7015ZM68.3727 11.8224C67.071 10.5199 64.961 10.5215 63.6594 11.8241L40.0963 35.39L34.0163 29.3136C32.7164 28.0127 30.603 28.0127 29.3031 29.3136C28.0014 30.6145 28.0014 32.7232 29.3031 34.0241L37.7413 42.4574C38.3663 43.082 39.2146 43.4335 40.0996 43.4335C40.9829 43.4335 41.8313 43.082 42.4563 42.4574L68.3743 16.5346C69.676 15.2321 69.676 13.1233 68.3727 11.8224ZM45.9663 45.9704C47.2663 44.6695 49.3796 44.6695 50.6796 45.9704C51.9812 47.2713 51.9812 49.38 50.6796 50.6809L42.3463 59.0092C41.6963 59.6605 40.843 59.9853 39.9897 59.9853C39.1364 59.9853 38.2831 59.6605 37.6331 59.0092L29.2998 50.6809C27.9982 49.38 27.9982 47.2713 29.2998 45.9704C30.5998 44.6695 32.7131 44.6695 34.0131 45.9704L39.9897 51.9418L45.9663 45.9704Z" fill="url(#paint0_linear)"/>
<defs>
<linearGradient id="paint0_linear" x1="7.27426" y1="17.8985" x2="43.0713" y2="83.35" gradientUnits="userSpaceOnUse">
<stop stop-color="#D92779"/>
<stop offset="1" stop-color="#7C277E"/>
</linearGradient>
</defs>
</svg>
