<svg width="24" height="24" viewBox="0 0 24 24" fill="none" xmlns="http://www.w3.org/2000/svg">
<path fill-rule="evenodd" clip-rule="evenodd" d="M11 3.41391L8.70696 5.70693C8.31646 6.09744 7.68345 6.09744 7.29295 5.70693C6.90245 5.31643 6.90245 4.68342 7.29295 4.29292L11.293 0.292878C11.6835 -0.097626 12.3165 -0.097626 12.707 0.292878L16.707 4.29292C17.0976 4.68342 17.0976 5.31643 16.707 5.70693C16.5115 5.90243 16.256 5.99994 16 5.99994C15.744 5.99994 15.4885 5.90243 15.293 5.70693L13 3.41391V8.99997C13 9.55197 12.552 9.99998 12 9.99998C11.448 9.99998 11 9.55197 11 8.99997V3.41391ZM19.7071 7.29295L23.7071 11.293C24.0976 11.6835 24.0976 12.3165 23.7071 12.707L19.7071 16.707C19.5116 16.9025 19.2561 17 19.0001 17C18.7441 17 18.4886 16.9025 18.2931 16.707C17.9026 16.3165 17.9026 15.6835 18.2931 15.293L20.5861 13H15C14.448 13 14 12.552 14 12C14 11.448 14.448 11 15 11H20.5861L18.2931 8.70696C17.9026 8.31646 17.9026 7.68345 18.2931 7.29295C18.6836 6.90245 19.3166 6.90245 19.7071 7.29295ZM15.293 18.2931L13 20.5861V15C13 14.448 12.552 14 12 14C11.448 14 11 14.448 11 15V20.5861L8.70696 18.2931C8.31646 17.9026 7.68345 17.9026 7.29295 18.2931C6.90245 18.6836 6.90245 19.3166 7.29295 19.7071L11.293 23.7071C11.4885 23.9026 11.744 24.0001 12 24.0001C12.256 24.0001 12.5115 23.9026 12.707 23.7071L16.707 19.7071C17.0976 19.3166 17.0976 18.6836 16.707 18.2931C16.3165 17.9026 15.6835 17.9026 15.293 18.2931ZM8.99997 13H3.41391L5.70693 15.293C6.09744 15.6835 6.09744 16.3165 5.70693 16.707C5.51143 16.9025 5.25593 17 4.99993 17C4.74392 17 4.48842 16.9025 4.29292 16.707L0.292878 12.707C-0.097626 12.3165 -0.097626 11.6835 0.292878 11.293L4.29292 7.29295C4.68342 6.90245 5.31643 6.90245 5.70693 7.29295C6.09744 7.68345 6.09744 8.31646 5.70693 8.70696L3.41391 11H8.99997C9.55197 11 9.99998 11.448 9.99998 12C9.99998 12.552 9.55197 13 8.99997 13Z" fill="#F4D8E9"/>
</svg>
