<svg width="648" height="751" viewBox="0 0 648 751" fill="none" xmlns="http://www.w3.org/2000/svg">
<g clip-path="url(#clip0)">
<path fill-rule="evenodd" clip-rule="evenodd" d="M58.7703 -0.00500488H588.396C631.321 -0.00500488 647.165 15.8376 647.165 58.7856V577.02C647.165 581.882 646.969 586.394 646.54 590.578C646.458 591.362 646.382 592.144 646.306 592.924C645.471 601.48 644.649 609.901 636.66 619.38C635.811 620.392 626.908 627.016 626.908 627.016C626.043 627.44 625.227 627.844 624.44 628.234C620.869 630.003 617.875 631.486 613.449 633.268L352.656 742.531C339.116 748.738 333.455 751.157 323.621 750.962V750.963H323.583H323.544V750.962C313.711 751.157 308.049 748.738 294.511 742.531L33.7156 633.268C29.2864 631.484 26.2903 630 22.7133 628.228C21.9298 627.84 21.1183 627.438 20.2579 627.016C20.2579 627.016 11.3568 620.392 10.5052 619.38C2.51458 609.901 1.69329 601.478 0.858999 592.922C0.782923 592.142 0.706738 591.361 0.625 590.578C0.196355 586.394 0 581.882 0 577.02V58.7856C0 15.8376 15.8427 -0.00500488 58.7703 -0.00500488ZM449.765 648.079H199.027L321.785 690.283L449.765 648.079ZM508.929 269.675V334.668C508.929 346.185 503.607 351.529 492.56 351.529H484.369C472.908 351.529 467.584 346.185 467.584 334.668V152.852C467.584 141.333 472.908 135.991 484.369 135.991H491.737C502.791 135.991 508.115 141.333 508.115 152.852V209.211H551.092V150.384C551.092 114.6 533.899 97.3228 498.292 97.3228H476.999C441.391 97.3228 423.784 115.008 423.784 150.799V336.721C423.784 372.512 441.391 390.196 476.999 390.196H498.699C534.315 390.196 551.913 372.512 551.913 336.721V269.675H508.929ZM139.496 261.032H191.073V221.136H139.496V139.689H193.128V99.7919H95.6973V387.727H193.943V347.831H139.496V261.032ZM400.636 387.727H356.829V99.7919H400.636V387.727ZM293.271 227.717C293.271 239.236 287.955 244.587 276.901 244.587H258.887V138.457H276.901C287.955 138.457 293.271 143.804 293.271 155.32V227.717ZM283.856 99.7919H215.087V387.727H258.887V283.245H283.856C319.472 283.245 337.071 265.561 337.071 229.777V153.267C337.071 117.476 319.472 99.7919 283.856 99.7919ZM140.931 546.741C134.139 546.741 127.864 545.619 122.109 543.376C116.351 541.131 111.363 538.013 107.139 534.024C102.915 530.035 99.601 525.277 97.2 519.749C94.7964 514.223 93.5973 508.176 93.5973 501.609V501.36C93.5973 494.96 94.777 489.017 97.1374 483.532C99.4984 478.047 102.748 473.245 106.89 469.132C111.031 465.017 115.979 461.797 121.736 459.469C127.492 457.144 133.725 455.979 140.435 455.979C148.136 455.979 154.784 457.101 160.375 459.344C165.964 461.589 171.077 464.707 175.717 468.696L161.555 485.776C158.405 483.116 155.196 481.081 151.925 479.667C148.653 478.255 144.864 477.548 140.559 477.548C137.409 477.548 134.491 478.171 131.799 479.417C129.108 480.665 126.768 482.369 124.781 484.529C122.793 486.691 121.218 489.225 120.059 492.133C118.898 495.045 118.32 498.161 118.32 501.485V501.733C118.32 505.224 118.898 508.467 120.059 511.459C121.218 514.451 122.855 517.005 124.967 519.125C127.079 521.245 129.564 522.909 132.42 524.112C135.279 525.319 138.447 525.921 141.925 525.921C147.557 525.921 152.193 524.717 155.84 522.305V511.708H138.695V494.004H178.699V533.276C174.06 537.101 168.593 540.301 162.299 542.877C156.005 545.451 148.883 546.741 140.931 546.741ZM234.812 485.692L244.503 510.501H224.997L234.812 485.692ZM246.615 457.016H223.383L186.359 544.912H211.704L217.916 529.328H251.459L257.795 544.912H283.636L246.615 457.016ZM292.129 457.648H317.596L338.345 491.435L359.092 457.648H384.56V544.919H360.584V494.8L338.345 528.96H337.848L315.733 495.049V544.919H292.129V457.648ZM470.613 457.648H400.668V544.919H471.235V524.348H424.521V510.508H466.264V491.435H424.521V478.219H470.613V457.648ZM518.411 546.492C510.625 546.492 503.233 545.285 496.235 542.877C489.235 540.467 483.044 536.851 477.661 532.029L491.079 515.947C499.775 522.929 509.175 526.42 519.28 526.42C522.511 526.42 524.975 525.901 526.672 524.861C528.369 523.823 529.219 522.348 529.219 520.436V520.185C529.219 519.272 529.012 518.461 528.597 517.755C528.183 517.049 527.419 516.364 526.3 515.697C525.181 515.033 523.691 514.388 521.827 513.765C519.964 513.141 517.541 512.499 514.56 511.832C509.92 510.753 505.615 509.568 501.64 508.279C497.663 506.992 494.204 505.331 491.265 503.292C488.324 501.257 486.004 498.721 484.308 495.687C482.609 492.655 481.76 488.892 481.76 484.404V484.156C481.76 480.084 482.527 476.343 484.06 472.935C485.592 469.527 487.827 466.576 490.768 464.083C493.707 461.589 497.248 459.657 501.391 458.285C505.532 456.913 510.211 456.228 515.428 456.228C522.883 456.228 529.531 457.207 535.369 459.159C541.208 461.111 546.488 464 551.209 467.823L539.157 484.903C535.183 482.079 531.103 479.937 526.921 478.483C522.737 477.029 518.701 476.3 514.808 476.3C511.908 476.3 509.733 476.841 508.285 477.921C506.836 479.001 506.111 480.332 506.111 481.911V482.161C506.111 483.159 506.339 484.031 506.795 484.777C507.249 485.527 508.036 486.212 509.155 486.835C510.273 487.459 511.805 488.083 513.752 488.705C515.697 489.329 518.163 489.973 521.145 490.637C526.113 491.72 530.605 492.988 534.624 494.441C538.64 495.895 542.056 497.663 544.873 499.739C547.688 501.819 549.843 504.332 551.333 507.281C552.824 510.233 553.569 513.745 553.569 517.817V518.065C553.569 522.553 552.719 526.544 551.023 530.035C549.324 533.525 546.943 536.499 543.879 538.948C540.815 541.401 537.128 543.272 532.821 544.559C528.515 545.847 523.709 546.492 518.411 546.492Z" fill="white"/>
<path d="M628.032 727.903C630.388 727.903 632.127 726.662 632.127 724.304C632.127 721.947 630.388 720.831 628.032 720.831H621.95V727.903H628.032ZM618.228 717.232H628.032C632.871 717.232 635.724 719.713 635.724 723.933C635.724 727.655 633.615 730.012 630.513 730.757L635.724 737.705V739.195H632.25L626.419 731.253H621.95V739.195H618.228V717.232ZM643.541 728.276C643.541 718.224 636.096 710.531 626.665 710.531C617.236 710.531 609.791 718.224 609.791 728.276C609.791 738.326 617.236 746.019 626.665 746.019C636.096 746.019 643.541 738.326 643.541 728.276ZM605.944 728.276C605.944 716.115 615.127 706.933 626.665 706.933C638.205 706.933 647.388 716.115 647.388 728.276C647.388 740.436 638.205 749.617 626.665 749.617C615.127 749.617 605.944 740.436 605.944 728.276Z" fill="white"/>
</g>
<defs>
<clipPath id="clip0">
<rect width="647.387" height="750.973" fill="white"/>
</clipPath>
</defs>
</svg>
