<svg viewBox="0 0 562 401" fill="none" xmlns="http://www.w3.org/2000/svg" class="full-width">
  <path d="M9.487 392.8V390.976C9.487 389.312 8.271 388.672 6.735 388.672H6.703C5.167 388.672 3.951 389.312 3.951 390.976V392.448C3.951 393.616 4.575 394.128 5.663 394.752L6.959 395.488C7.519 395.792 7.695 396.08 7.695 396.656V397.536C7.695 398.224 7.295 398.528 6.735 398.528C6.175 398.528 5.775 398.224 5.775 397.536V395.84H3.951V397.792C3.951 399.536 5.023 400.128 6.719 400.128H6.751C8.447 400.128 9.519 399.52 9.519 397.792V396.176C9.519 394.976 8.879 394.48 7.807 393.872L6.495 393.136C5.967 392.832 5.775 392.576 5.775 392V391.232C5.775 390.528 6.175 390.272 6.719 390.272C7.263 390.272 7.663 390.528 7.663 391.232V392.8H9.487ZM15.8225 400V398.368H12.7185V395.136H15.2785V393.504H12.7185V390.432H15.7745V388.8H10.8625V400H15.8225ZM23.2561 393.152V400H25.0481V388.8H23.2241L21.0481 395.312L18.8881 388.8H17.1281V400H18.8561V393.152L20.5361 398.368H21.5761L23.2561 393.152ZM28.5638 400V388.8H26.7078V400H28.5638ZM33.5179 393.52H29.7419V395.024H33.5179V393.52ZM40.2438 395.44H38.3878V397.472C38.3878 398.256 38.0038 398.496 37.4118 398.496C36.8198 398.496 36.4358 398.256 36.4358 397.472V391.328C36.4358 390.544 36.8198 390.304 37.4118 390.304C38.0038 390.304 38.3878 390.544 38.3878 391.328V393.088H40.2438V391.04C40.2438 389.376 39.1238 388.672 37.4278 388.672H37.3958C35.6998 388.672 34.5798 389.376 34.5798 391.04V397.76C34.5798 399.504 35.6998 400.128 37.3958 400.128H37.4278C39.1238 400.128 40.2438 399.488 40.2438 397.76V395.44ZM41.6579 391.04V397.76C41.6579 399.456 42.7779 400.128 44.4739 400.128H44.6019C46.2979 400.128 47.4179 399.456 47.4179 397.76V391.04C47.4179 389.344 46.2979 388.672 44.6019 388.672H44.4739C42.7779 388.672 41.6579 389.328 41.6579 391.04ZM43.5139 397.472V391.328C43.5139 390.528 43.9299 390.304 44.5379 390.304C45.1459 390.304 45.5619 390.528 45.5619 391.328V397.472C45.5619 398.272 45.1459 398.496 44.5379 398.496C43.9299 398.496 43.5139 398.272 43.5139 397.472ZM55.0843 393.152V400H56.8763V388.8H55.0523L52.8763 395.312L50.7163 388.8H48.9563V400H50.6843V393.152L52.3643 398.368H53.4043L55.0843 393.152ZM61.3679 388.8H58.4719V400H60.3279V395.664H61.3679C63.0639 395.664 64.1839 394.992 64.1839 393.296V391.168C64.1839 389.472 63.0639 388.8 61.3679 388.8ZM62.3279 393.008C62.3279 393.808 61.9119 394.032 61.3039 394.032H60.3279V390.432H61.3039C61.9119 390.432 62.3279 390.656 62.3279 391.456V393.008ZM70.3225 400V398.368H67.2185V395.136H69.7785V393.504H67.2185V390.432H70.2745V388.8H65.3625V400H70.3225ZM76.5881 388.8H70.9881V390.432H72.8601V400H74.7161V390.432H76.5881V388.8ZM79.47 400V388.8H77.614V400H79.47ZM86.0881 388.8H80.4881V390.432H82.3601V400H84.2161V390.432H86.0881V388.8ZM88.97 400V388.8H87.114V400H88.97ZM96.2281 388.8H94.4361L93.1401 397.104L91.8441 388.8H89.9561L92.0681 400H94.1161L96.2281 388.8ZM102.119 400V398.368H99.0154V395.136H101.575V393.504H99.0154V390.432H102.071V388.8H97.1594V400H102.119Z" fill="#DFDAE7"/>
  <path d="M291.509 395.44H289.653V397.472C289.653 398.256 289.269 398.496 288.677 398.496C288.085 398.496 287.701 398.256 287.701 397.472V391.328C287.701 390.544 288.085 390.304 288.677 390.304C289.269 390.304 289.653 390.544 289.653 391.328V393.088H291.509V391.04C291.509 389.376 290.389 388.672 288.693 388.672H288.661C286.965 388.672 285.845 389.376 285.845 391.04V397.76C285.845 399.504 286.965 400.128 288.661 400.128H288.693C290.389 400.128 291.509 399.488 291.509 397.76V395.44ZM292.924 391.04V397.76C292.924 399.456 294.044 400.128 295.74 400.128H295.868C297.564 400.128 298.684 399.456 298.684 397.76V391.04C298.684 389.344 297.564 388.672 295.868 388.672H295.74C294.044 388.672 292.924 389.328 292.924 391.04ZM294.78 397.472V391.328C294.78 390.528 295.196 390.304 295.804 390.304C296.411 390.304 296.828 390.528 296.828 391.328V397.472C296.828 398.272 296.411 398.496 295.804 398.496C295.196 398.496 294.78 398.272 294.78 397.472ZM306.35 393.152V400H308.142V388.8H306.318L304.142 395.312L301.982 388.8H300.222V400H301.95V393.152L303.63 398.368H304.67L306.35 393.152ZM312.634 388.8H309.738V400H311.594V395.664H312.634C314.33 395.664 315.45 394.992 315.45 393.296V391.168C315.45 389.472 314.33 388.8 312.634 388.8ZM313.594 393.008C313.594 393.808 313.178 394.032 312.57 394.032H311.594V390.432H312.57C313.178 390.432 313.594 390.656 313.594 391.456V393.008ZM321.588 400V398.368H318.484V395.136H321.044V393.504H318.484V390.432H321.54V388.8H316.628V400H321.588ZM327.854 388.8H322.254V390.432H324.126V400H325.982V390.432H327.854V388.8ZM330.736 400V388.8H328.88V400H330.736ZM337.354 388.8H331.754V390.432H333.626V400H335.482V390.432H337.354V388.8ZM340.236 400V388.8H338.38V400H340.236ZM347.494 388.8H345.702L344.406 397.104L343.11 388.8H341.222L343.334 400H345.382L347.494 388.8ZM353.385 400V398.368H350.281V395.136H352.841V393.504H350.281V390.432H353.337V388.8H348.425V400H353.385Z" fill="#DFDAE7"/>
  <path d="M540.071 388.8H537.175V400H539.031V395.664H540.071C541.767 395.664 542.887 394.992 542.887 393.296V391.168C542.887 389.472 541.767 388.8 540.071 388.8ZM541.031 393.008C541.031 393.808 540.615 394.032 540.007 394.032H539.031V390.432H540.007C540.615 390.432 541.031 390.656 541.031 391.456V393.008ZM550.162 400L548.562 395.248C549.33 394.912 549.778 394.24 549.778 393.168V391.168C549.778 389.472 548.658 388.8 546.962 388.8H544.066V400H545.922V395.536H546.85L548.274 400H550.162ZM545.922 390.432H546.898C547.506 390.432 547.922 390.656 547.922 391.456V392.912C547.922 393.712 547.506 393.936 546.898 393.936H545.922V390.432ZM551.127 391.04V397.76C551.127 399.456 552.247 400.128 553.943 400.128H554.071C555.767 400.128 556.887 399.456 556.887 397.76V391.04C556.887 389.344 555.767 388.672 554.071 388.672H553.943C552.247 388.672 551.127 389.328 551.127 391.04ZM552.983 397.472V391.328C552.983 390.528 553.399 390.304 554.007 390.304C554.615 390.304 555.031 390.528 555.031 391.328V397.472C555.031 398.272 554.615 398.496 554.007 398.496C553.399 398.496 552.983 398.272 552.983 397.472Z" fill="#DFDAE7"/>
  <path opacity="0.4" d="M560 41C560 41 473 253.5 168 317V372H560V41Z" fill="#DD2678"/>
  <path d="M168 315.5C463 257 560 41 560 41" stroke="#DD2678" stroke-width="3"/>
  <line opacity="0.5" y1="93.75" x2="560" y2="93.75" stroke="#433558" stroke-width="1.5" stroke-dasharray="4 4"/>
  <line opacity="0.5" y1="1.25" x2="560" y2="1.25" stroke="#433558" stroke-width="1.5" stroke-dasharray="4 4"/>
  <line opacity="0.5" y1="186.25" x2="560" y2="186.25" stroke="#433558" stroke-width="1.5" stroke-dasharray="4 4"/>
  <line opacity="0.5" y1="278.75" x2="560" y2="278.75" stroke="#433558" stroke-width="1.5" stroke-dasharray="4 4"/>
  <line opacity="0.5" y1="371.25" x2="560" y2="371.25" stroke="#433558" stroke-width="1.5" stroke-dasharray="4 4"/>
  <path opacity="0.4" d="M168 315C168 315 129.9 333 0 333V372H50.1H168V315Z" fill="#DD2678"/>
  <path d="M0 332C129.9 332 168 315 168 315" stroke="#DD2678" stroke-width="3"/>
</svg>
