<svg width="20" height="20" viewBox="0 0 20 20" fill="none" xmlns="http://www.w3.org/2000/svg">
<g clip-path="url(#clip0)">
<path d="M10.0033 4.86499C7.16751 4.86499 4.87167 7.16332 4.87167 9.99666C4.87167 12.8325 7.17001 15.1283 10.0033 15.1283C12.8392 15.1283 15.135 12.83 15.135 9.99666C15.135 7.16082 12.8367 4.86499 10.0033 4.86499ZM10.0033 13.3275C8.16251 13.3275 6.67251 11.8367 6.67251 9.99666C6.67251 8.15666 8.16334 6.66582 10.0033 6.66582C11.8433 6.66582 13.3342 8.15666 13.3342 9.99666C13.335 11.8367 11.8442 13.3275 10.0033 13.3275Z" fill="#C84461"/>
<path d="M14.1234 0.0631884C12.2834 -0.0226449 7.72587 -0.0184782 5.8842 0.0631884C4.26587 0.139022 2.83837 0.529855 1.68754 1.68069C-0.235797 3.60402 0.0100368 6.19569 0.0100368 9.99652C0.0100368 13.8865 -0.20663 16.4182 1.68754 18.3124C3.61837 20.2424 6.24754 19.9899 10.0034 19.9899C13.8567 19.9899 15.1867 19.9924 16.5492 19.4649C18.4017 18.7457 19.8 17.0899 19.9367 14.1157C20.0234 12.2749 20.0184 7.71819 19.9367 5.87652C19.7717 2.36569 17.8875 0.236522 14.1234 0.0631884ZM17.0359 17.0399C15.775 18.3007 14.0259 18.1882 9.9792 18.1882C5.81254 18.1882 4.1417 18.2499 2.92254 17.0274C1.51837 15.6299 1.77254 13.3857 1.77254 9.98319C1.77254 5.37902 1.30004 2.06319 5.92087 1.82652C6.98254 1.78902 7.29504 1.77652 9.96754 1.77652L10.005 1.80152C14.4459 1.80152 17.93 1.33652 18.1392 5.95652C18.1867 7.01069 18.1975 7.32736 18.1975 9.99569C18.1967 14.114 18.275 15.7949 17.0359 17.0399Z" fill="#C84461"/>
<path d="M15.3383 5.86158C16.0006 5.86158 16.5375 5.3247 16.5375 4.66242C16.5375 4.00014 16.0006 3.46326 15.3383 3.46326C14.676 3.46326 14.1392 4.00014 14.1392 4.66242C14.1392 5.3247 14.676 5.86158 15.3383 5.86158Z" fill="#C84461"/>
</g>
<defs>
<clipPath id="clip0">
<rect width="20" height="20" fill="white"/>
</clipPath>
</defs>
</svg>
