<svg width="30" height="34" viewBox="0 0 30 34" fill="none" xmlns="http://www.w3.org/2000/svg">
  <circle cx="15" cy="15" r="13.5" fill="#292044" stroke="#DD2678" stroke-width="3"/>
  <path d="M19.8 13.8H16.2V10.2C16.2 9.5376 15.6624 9 15 9C14.3376 9 13.8 9.5376 13.8 10.2V13.8H10.2C9.5376 13.8 9 14.3376 9 15C9 15.6624 9.5376 16.2 10.2 16.2H13.8V19.8C13.8 20.4624 14.3376 21 15 21C15.6624 21 16.2 20.4624 16.2 19.8V16.2H19.8C20.4624 16.2 21 15.6624 21 15C21 14.3376 20.4624 13.8 19.8 13.8Z" fill="#DD2678"/>
  <path d="M23.2928 19.305C22.5963 19.305 22.0317 19.8696 22.0317 20.5661V19.7253C22.0317 19.0289 21.4671 18.4643 20.7707 18.4643C20.0742 18.4643 19.5096 19.0289 19.5096 19.7253V18.8846C19.5096 18.1882 18.945 17.6235 18.2485 17.6235C17.552 17.6235 16.9874 18.1882 16.9874 18.8846V14.681C16.9874 13.9845 16.4228 13.4199 15.7263 13.4199C15.0298 13.4199 14.4652 13.9845 14.4652 14.681V25.1901L11.5463 23.7305C11.2544 23.5846 10.9326 23.5086 10.6063 23.5086C9.95162 23.5086 9.4209 24.0393 9.4209 24.694V24.6991C9.42023 25.0143 9.5452 25.3169 9.76813 25.5398L15.2042 30.9759C16.3464 32.1169 17.8951 32.7574 19.5096 32.7565C22.2955 32.7565 24.5539 30.4981 24.5539 27.7122V20.5661C24.5539 19.8696 23.9893 19.305 23.2928 19.305Z" fill="white"/>
  <path d="M17.4077 17.9512V22.6676C17.4077 22.8998 17.2195 23.088 16.9873 23.088V18.8844C16.9857 18.5271 17.139 18.1867 17.4077 17.9512Z" fill="#E7A957"/>
  <path d="M19.9302 18.791V22.6668C19.9302 22.8989 19.7419 23.0871 19.5098 23.0871V19.7243C19.5081 19.3669 19.6615 19.0265 19.9302 18.791Z" fill="#E7A957"/>
  <path d="M22.4516 19.6328V22.6678C22.4516 22.9 22.2634 23.0882 22.0313 23.0882V20.566C22.0296 20.2087 22.183 19.8683 22.4516 19.6328Z" fill="#E7A957"/>
  <path fill-rule="evenodd" clip-rule="evenodd" d="M14.9071 31.2714C16.125 32.4959 17.7822 33.1822 19.5092 33.1773C22.5258 33.1736 24.9702 30.7292 24.9739 27.7127V20.5665C24.9736 20.234 24.8749 19.9091 24.69 19.6328C24.1737 18.8609 23.1294 18.6538 22.3576 19.1701C22.3106 19.0363 22.2469 18.9089 22.168 18.7911C21.6514 18.0195 20.6071 17.8127 19.8354 18.3294C19.8007 18.2305 19.7569 18.1351 19.7045 18.0444C19.2399 17.2404 18.2115 16.9652 17.4074 17.4298V14.6815C17.4074 13.7528 16.6546 13 15.726 13C14.7973 13 14.0445 13.7528 14.0445 14.6815V24.5103L11.7334 23.3543C11.3831 23.1799 10.9972 23.089 10.606 23.0887C10.1805 23.0895 9.77261 23.2589 9.47165 23.5596C8.84303 24.1879 8.84276 25.2067 9.47098 25.8353L14.9071 31.2714ZM9.83972 24.7C9.8385 24.2756 10.1816 23.9306 10.606 23.9294C10.8657 23.9302 11.1218 23.9909 11.3542 24.1068L14.2766 25.5663C14.335 25.5956 14.3995 25.6108 14.4649 25.6108C14.697 25.6109 14.8852 25.4227 14.8852 25.1905V14.6815C14.8852 14.2171 15.2616 13.8407 15.726 13.8407C16.1903 13.8407 16.5667 14.2171 16.5667 14.6815V22.6683C16.5667 22.9005 16.7549 23.0887 16.987 23.0887C17.2192 23.0887 17.4074 22.9005 17.4074 22.6683V18.885C17.4074 18.4207 17.7838 18.0443 18.2481 18.0443C18.7124 18.0443 19.0888 18.4207 19.0888 18.885V22.6683C19.0888 22.9005 19.277 23.0887 19.5092 23.0887C19.7414 23.0887 19.9296 22.9005 19.9296 22.6683V19.7258C19.9296 19.2614 20.306 18.885 20.7703 18.885C21.2346 18.885 21.611 19.2614 21.611 19.7258V22.6683C21.611 22.9005 21.7992 23.0887 22.0314 23.0887C22.2635 23.0887 22.4517 22.9005 22.4517 22.6683V20.5665C22.4517 20.1022 22.8281 19.7258 23.2925 19.7258C23.7568 19.7258 24.1332 20.1022 24.1332 20.5665V27.7126C24.1299 30.265 22.0616 32.3334 19.5092 32.3366C18.005 32.3408 16.5617 31.7433 15.5007 30.677L10.0646 25.2409C9.9211 25.0973 9.84032 24.9029 9.83972 24.7Z" fill="#1C102C"/>
</svg>
