<svg width="22" height="18" viewBox="0 0 22 18" fill="none" xmlns="http://www.w3.org/2000/svg">
  <path d="M7.0577 17.6351C15.0766 17.6351 19.4626 10.9915 19.4626 5.23024C19.4626 5.04154 19.4626 4.85369 19.4499 4.66669C20.3031 4.04951 21.0397 3.28534 21.625 2.40994C20.8293 2.76252 19.9852 2.99374 19.1209 3.09589C20.031 2.55102 20.7122 1.69404 21.0376 0.684438C20.1818 1.19228 19.2455 1.55017 18.2692 1.74269C17.6119 1.04372 16.7425 0.580881 15.7956 0.425795C14.8487 0.270708 13.8771 0.432019 13.0311 0.884767C12.1851 1.33751 11.512 2.05646 11.1158 2.93034C10.7196 3.80422 10.6224 4.78433 10.8393 5.71899C9.10599 5.63209 7.41028 5.18165 5.86229 4.39689C4.31431 3.61214 2.94866 2.51062 1.854 1.16384C1.29648 2.12363 1.12572 3.25982 1.37649 4.34109C1.62727 5.42235 2.28072 6.36739 3.2038 6.98379C2.50998 6.96323 1.83129 6.77606 1.225 6.43809C1.225 6.45594 1.225 6.47464 1.225 6.49334C1.22528 7.49992 1.57372 8.47543 2.21124 9.25439C2.84876 10.0334 3.7361 10.5678 4.72275 10.7671C4.08089 10.9422 3.40744 10.9678 2.75415 10.8419C3.03275 11.7082 3.57513 12.4658 4.30546 13.0087C5.03579 13.5515 5.91752 13.8526 6.82735 13.8696C5.28352 15.083 3.3764 15.7416 1.41285 15.7396C1.06597 15.739 0.719423 15.718 0.375 15.6767C2.36879 16.9562 4.68868 17.6349 7.0577 17.6317" fill="#C84461"/>
</svg>
