<svg width="40" height="40" viewBox="0 0 40 40" fill="none" xmlns="http://www.w3.org/2000/svg">
<path fill-rule="evenodd" clip-rule="evenodd" d="M5.86111 5.86111C13.6763 -1.95433 26.3249 -1.95308 34.1389 5.86111C41.9543 13.6764 41.953 26.3249 34.1389 34.1389C26.3237 41.9543 13.6751 41.9531 5.86111 34.1389C-1.95433 26.3237 -1.95308 13.6751 5.86111 5.86111ZM3.2892 20C3.2892 29.2143 10.7856 36.7107 19.9999 36.7107C29.2143 36.7107 36.7106 29.2143 36.7106 20C36.7106 10.7857 29.2142 3.28928 19.9999 3.28928C10.7856 3.28928 3.2892 10.7857 3.2892 20ZM19.9997 11.6841C23.9954 11.6841 26.3489 16.1733 24.1218 19.4533C26.6255 20.8881 28.3161 23.5874 28.3162 26.6741C28.3162 27.5812 27.5809 28.3165 26.6738 28.3165C25.7667 28.3165 25.0314 27.5812 25.0314 26.6741C25.0314 23.8997 22.7744 21.6427 20 21.6427C17.2256 21.6427 14.9685 23.8997 14.9685 26.6741C14.9685 27.5812 14.2332 28.3165 13.3261 28.3165C12.4191 28.3165 11.6838 27.5812 11.6838 26.6741C11.6838 23.5875 13.3742 20.8884 15.8777 19.4535C13.6506 16.174 16.0031 11.6841 19.9997 11.6841ZM21.6942 16.6633C21.6942 15.729 20.934 14.9688 19.9997 14.9688C19.0653 14.9688 18.3052 15.729 18.3052 16.6633C18.3052 17.5976 19.0654 18.3578 19.9997 18.3578C20.934 18.3578 21.6942 17.5976 21.6942 16.6633Z" fill="#E34F4F"/>
</svg>
