<svg width="24" height="24" viewBox="0 0 24 24" fill="none" xmlns="http://www.w3.org/2000/svg">
  <path d="M21.0001 3.74805H6.00533C5.1772 3.74805 4.50586 4.41939 4.50586 5.24752C4.50586 6.07565 5.1772 6.74699 6.00533 6.74699H21.0001C21.8282 6.74699 22.4995 6.07565 22.4995 5.24752C22.4995 4.41939 21.8282 3.74805 21.0001 3.74805Z" fill="#F4D8E9"/>
  <path d="M3.00734 5.24902C3.00566 4.85199 2.84657 4.47182 2.565 4.19189C1.98016 3.61052 1.03559 3.61052 0.450744 4.19189C0.169124 4.47182 0.0100394 4.85199 0.00839939 5.24902C-0.0027998 5.34616 -0.0027998 5.44428 0.00839939 5.54142C0.0253622 5.63912 0.0530087 5.73466 0.0908704 5.82632C0.131122 5.91511 0.178777 6.00039 0.23332 6.08123C0.287161 6.16529 0.349998 6.24322 0.420754 6.31364C0.48898 6.38159 0.564376 6.44194 0.645675 6.49358C0.724632 6.55108 0.810242 6.59892 0.900586 6.63603C0.999973 6.68758 1.10592 6.72544 1.21547 6.74849C1.31261 6.75936 1.41073 6.75936 1.50787 6.74849C1.90383 6.74882 2.28385 6.5925 2.565 6.31364C2.63576 6.24322 2.69859 6.16529 2.75243 6.08123C2.80698 6.00039 2.85463 5.91511 2.89488 5.82632C2.94273 5.73578 2.98045 5.64024 3.00734 5.54142C3.01854 5.44428 3.01854 5.34616 3.00734 5.24902Z" fill="#F4D8E9"/>
  <path d="M3.00676 11.9951C3.01791 11.898 3.01791 11.7999 3.00676 11.7027C2.98085 11.606 2.94308 11.5128 2.8943 11.4253C2.85569 11.3333 2.80794 11.2454 2.75185 11.1629C2.69988 11.0798 2.63681 11.0041 2.56441 10.938C1.97957 10.3566 1.035 10.3566 0.450157 10.938C0.168537 11.2179 0.00945255 11.5981 0.0078125 11.9951C0.0107177 12.1927 0.0488137 12.3882 0.120273 12.5724C0.157853 12.6611 0.203025 12.7464 0.255226 12.8273C0.312252 12.9088 0.377573 12.9842 0.450157 13.0522C0.516415 13.1245 0.592045 13.1876 0.675078 13.2397C0.754035 13.2972 0.839598 13.3451 0.929988 13.3821C1.02141 13.4206 1.11705 13.4483 1.21489 13.4646C1.31081 13.4861 1.40898 13.4962 1.50729 13.4946C1.60442 13.5058 1.70254 13.5058 1.79968 13.4946C1.89509 13.4782 1.98824 13.4505 2.07709 13.4121C2.16991 13.3753 2.25801 13.3274 2.33949 13.2697C2.42253 13.2176 2.49816 13.1545 2.56441 13.0822C2.63667 13.016 2.69974 12.9403 2.75185 12.8573C2.80948 12.7784 2.85733 12.6928 2.8943 12.6024C2.94551 12.5029 2.98333 12.397 3.00676 12.2875C3.01829 12.1904 3.01829 12.0922 3.00676 11.9951Z" fill="#F4D8E9"/>
  <path d="M3.00685 18.7432C3.01796 18.646 3.01796 18.5479 3.00685 18.4508C2.98094 18.3516 2.94317 18.256 2.89439 18.1659C2.85414 18.0771 2.80648 17.9918 2.75194 17.911C2.69983 17.8279 2.63676 17.7523 2.56451 17.686C1.97966 17.1047 1.03509 17.1047 0.450249 17.686C0.377993 17.7523 0.314921 17.8279 0.262815 17.911C0.208271 17.9918 0.160616 18.0771 0.120365 18.1659C0.0814723 18.2571 0.0537789 18.3528 0.0378939 18.4508C0.0167607 18.5468 0.00673295 18.6448 0.00790442 18.7432C0.00959132 19.1402 0.168676 19.5204 0.450249 19.8003C0.516507 19.8725 0.592137 19.9356 0.67517 19.9877C0.754126 20.0453 0.83969 20.0931 0.93008 20.1302C1.0215 20.1686 1.11714 20.1963 1.21498 20.2126C1.3109 20.2341 1.40907 20.2442 1.50738 20.2426C1.60451 20.2538 1.70264 20.2538 1.79977 20.2426C1.89518 20.2263 1.98833 20.1986 2.07718 20.1602C2.17 20.1233 2.2581 20.0755 2.33958 20.0177C2.42262 19.9656 2.49825 19.9025 2.56451 19.8303C2.63676 19.764 2.69983 19.6884 2.75194 19.6054C2.80962 19.5265 2.85746 19.4409 2.89439 19.3504C2.94556 19.2509 2.98337 19.145 3.00685 19.0356C3.01838 18.9384 3.01838 18.8403 3.00685 18.7432Z" fill="#F4D8E9"/>
  <path d="M22.4995 10.4961H6.00533C5.1772 10.4961 4.50586 11.1674 4.50586 11.9956C4.50586 12.8237 5.1772 13.495 6.00533 13.495H22.4995C23.3277 13.495 23.999 12.8237 23.999 11.9956C23.999 11.1674 23.3277 10.4961 22.4995 10.4961Z" fill="#F4D8E9"/>
  <path d="M15.7519 17.2441H6.00533C5.1772 17.2441 4.50586 17.9155 4.50586 18.7436C4.50586 19.5717 5.1772 20.2431 6.00533 20.2431H15.7519C16.58 20.2431 17.2514 19.5717 17.2514 18.7436C17.2514 17.9155 16.58 17.2441 15.7519 17.2441Z" fill="#F4D8E9"/>
</svg>
