<svg width="16" height="16" viewBox="0 0 16 16" fill="none" xmlns="http://www.w3.org/2000/svg">
<path fill-rule="evenodd" clip-rule="evenodd" d="M7.33327 2.27593L5.8046 3.8046C5.54426 4.06494 5.12226 4.06494 4.86192 3.8046C4.60159 3.54427 4.60159 3.12227 4.86192 2.86193L7.5286 0.195251C7.78894 -0.0650837 8.21094 -0.0650837 8.47128 0.195251L11.138 2.86193C11.3983 3.12227 11.3983 3.54427 11.138 3.8046C11.0076 3.93494 10.8373 3.99994 10.6666 3.99994C10.496 3.99994 10.3256 3.93494 10.1953 3.8046L8.66661 2.27593V5.99995C8.66661 6.36795 8.36794 6.66662 7.99994 6.66662C7.63194 6.66662 7.33327 6.36795 7.33327 5.99995V2.27593ZM13.138 4.86194L15.8047 7.52862C16.065 7.78896 16.065 8.21096 15.8047 8.47129L13.138 11.138C13.0077 11.2683 12.8373 11.3333 12.6667 11.3333C12.496 11.3333 12.3257 11.2683 12.1953 11.138C11.935 10.8776 11.935 10.4556 12.1953 10.1953L13.724 8.66663H9.99998C9.63197 8.66663 9.33331 8.36796 9.33331 7.99996C9.33331 7.63196 9.63197 7.33329 9.99998 7.33329H13.724L12.1953 5.80461C11.935 5.54428 11.935 5.12228 12.1953 4.86194C12.4557 4.60161 12.8777 4.60161 13.138 4.86194ZM10.1953 12.1953L8.66661 13.724V9.99997C8.66661 9.63197 8.36794 9.3333 7.99994 9.3333C7.63194 9.3333 7.33327 9.63197 7.33327 9.99997V13.724L5.8046 12.1953C5.54426 11.935 5.12226 11.935 4.86192 12.1953C4.60159 12.4556 4.60159 12.8777 4.86192 13.138L7.5286 15.8047C7.65894 15.935 7.82927 16 7.99994 16C8.17061 16 8.34094 15.935 8.47128 15.8047L11.138 13.138C11.3983 12.8777 11.3983 12.4556 11.138 12.1953C10.8776 11.935 10.4556 11.935 10.1953 12.1953ZM5.99995 8.66663H2.27593L3.8046 10.1953C4.06494 10.4556 4.06494 10.8776 3.8046 11.138C3.67427 11.2683 3.50393 11.3333 3.33327 11.3333C3.1626 11.3333 2.99226 11.2683 2.86193 11.138L0.195251 8.47129C-0.0650837 8.21096 -0.0650837 7.78896 0.195251 7.52862L2.86193 4.86194C3.12227 4.60161 3.54427 4.60161 3.8046 4.86194C4.06494 5.12228 4.06494 5.54428 3.8046 5.80461L2.27593 7.33329H5.99995C6.36795 7.33329 6.66662 7.63196 6.66662 7.99996C6.66662 8.36796 6.36795 8.66663 5.99995 8.66663Z" fill="#F4D8E9"/>
</svg>
