<?xml version="1.0" encoding="iso-8859-1"?>
<!-- Generator: Adobe Illustrator 15.0.0, SVG Export Plug-In . SVG Version: 6.00 Build 0)  -->
<!DOCTYPE svg PUBLIC "-//W3C//DTD SVG 1.1//EN" "http://www.w3.org/Graphics/SVG/1.1/DTD/svg11.dtd">
<svg version="1.1" id="Layer_1" xmlns="http://www.w3.org/2000/svg" xmlns:xlink="http://www.w3.org/1999/xlink" x="0px" y="0px"
	 width="14px" height="16px" viewBox="0 0 14 16" style="enable-background:new 0 0 14 16;" xml:space="preserve">
<path style="fill:#C84461;" d="M0.227,2.858C0.213,2.872,0.199,2.887,0.186,2.901C0.15,2.944,0.119,2.991,0.096,3.039
	C0.053,3.128,0.027,3.228,0.027,3.333c0,0.148,0.049,0.286,0.131,0.396c0.021,0.029,0.045,0.055,0.07,0.08L2.89,6.472
	c0.261,0.26,0.683,0.26,0.942,0c0.261-0.261,0.261-0.683,0-0.943L2.304,4h7.724c0.53,0,1.039,0.211,1.414,0.586
	S12.027,5.47,12.027,6v1.333C12.027,7.702,12.326,8,12.694,8s0.666-0.298,0.666-0.667V6c0-0.884-0.351-1.732-0.976-2.357
	c-0.626-0.625-1.474-0.977-2.357-0.977H2.304l1.528-1.528c0.261-0.26,0.261-0.683,0-0.943c-0.26-0.26-0.682-0.26-0.942,0
	L0.227,2.858z"/>
<text x="0" y="16" style="fill:#C84461;" font-family="rift, sans-serif" font-size="0.7rem">5s</text>
</svg>
