<svg width="20" height="20" viewBox="0 0 20 20" fill="none" xmlns="http://www.w3.org/2000/svg">
  <path fill-rule="evenodd" clip-rule="evenodd" d="M10.0006 1.42871C8.55368 1.42871 7.16608 2.00348 6.14299 3.02657C5.1199 4.04966 4.54513 5.43726 4.54513 6.88413C4.54513 9.49701 3.98629 11.1196 3.47127 12.0638C3.21269 12.5378 2.9609 12.8488 2.78599 13.0335C2.69833 13.126 2.62945 13.1873 2.58798 13.2219C2.56723 13.2392 2.55331 13.2498 2.54731 13.2543L2.54509 13.2559C2.2657 13.4478 2.14207 13.7989 2.24053 14.1241C2.34005 14.4528 2.64301 14.6776 2.98644 14.6776H17.0147C17.3581 14.6776 17.661 14.4528 17.7606 14.1241C17.859 13.7989 17.7354 13.4478 17.456 13.2559L17.4538 13.2543C17.4478 13.2498 17.4339 13.2392 17.4131 13.2219C17.3717 13.1873 17.3028 13.126 17.2151 13.0335C17.0402 12.8488 16.7884 12.5378 16.5298 12.0638C16.0148 11.1196 15.456 9.49701 15.456 6.88413C15.456 5.43726 14.8812 4.04966 13.8581 3.02657C12.835 2.00348 11.4474 1.42871 10.0006 1.42871ZM15.3396 13.1189H4.6615C4.7208 13.0217 4.78033 12.9189 4.83964 12.8102C5.49365 11.6112 6.10382 9.72667 6.10382 6.88413C6.10382 5.85066 6.51437 4.85951 7.24515 4.12873C7.97593 3.39795 8.96707 2.9874 10.0006 2.9874C11.034 2.9874 12.0252 3.39795 12.756 4.12873C13.4867 4.85951 13.8973 5.85066 13.8973 6.88413C13.8973 9.72667 14.5075 11.6112 15.1615 12.8102C15.2208 12.9189 15.2803 13.0217 15.3396 13.1189ZM9.3264 16.6246C9.11043 16.2523 8.63353 16.1255 8.26122 16.3415C7.8889 16.5575 7.76216 17.0344 7.97814 17.4067C8.18366 17.761 8.47866 18.0551 8.83359 18.2595C9.18853 18.464 9.59094 18.5716 10.0005 18.5716C10.4101 18.5716 10.8125 18.464 11.1675 18.2595C11.5224 18.0551 11.8174 17.761 12.0229 17.4067C12.2389 17.0344 12.1122 16.5575 11.7399 16.3415C11.3675 16.1255 10.8906 16.2523 10.6747 16.6246C10.6062 16.7427 10.5078 16.8407 10.3895 16.9089C10.2712 16.977 10.1371 17.0129 10.0005 17.0129C9.864 17.0129 9.72987 16.977 9.61156 16.9089C9.49325 16.8407 9.39491 16.7427 9.3264 16.6246Z" fill="white"/>
</svg>
