<svg width="20" height="20" viewBox="0 0 20 20" fill="none" xmlns="http://www.w3.org/2000/svg">
  <path d="M19.1667 0H0.833333C0.373332 0 0 0.373332 0 0.833333V19.1667C0 19.6267 0.373332 20 0.833333 20H19.1667C19.6267 20 20 19.6267 20 19.1667V0.833333C20 0.373332 19.6267 0 19.1667 0ZM13.75 6.25V9.16667H6.25V6.25H13.75ZM18.3333 6.25V9.16667H15.4167V6.25H18.3333ZM4.58333 9.16667H1.66667V6.25H4.58333V9.16667ZM1.66667 10.8333H9.16667V13.75H1.66667V10.8333ZM13.75 15.4167V18.3333H6.25V15.4167H13.75ZM10.8333 13.75V10.8333H18.3333V13.75H10.8333ZM18.3333 4.58333H10.8333V1.66667H18.3333V4.58333ZM9.16667 1.66667V4.58333H1.66667V1.66667H9.16667ZM1.66667 15.4167H4.58333V18.3333H1.66667V15.4167ZM15.4167 18.3333V15.4167H18.3333V18.3333H15.4167Z" fill="#AA4FE3"/>
</svg>
