<svg width="20" height="17" viewBox="0 0 20 17" fill="none" xmlns="http://www.w3.org/2000/svg">
  <path fill-rule="evenodd" clip-rule="evenodd" d="M16.6186 0.207457L19.7926 3.38142C20.0692 3.65795 20.0692 4.10635 19.7925 4.38311L16.6185 7.55707C16.4802 7.69534 16.2989 7.76451 16.1177 7.76451C15.9365 7.76451 15.7552 7.69542 15.6169 7.55707C15.3403 7.28046 15.3403 6.83207 15.6169 6.55546L17.5819 4.59047H7.97753C7.58634 4.59047 7.26929 4.27341 7.26929 3.88222C7.26929 3.49104 7.58634 3.17398 7.97753 3.17398H17.5819L15.6169 1.20907C15.3403 0.932464 15.3403 0.484066 15.6169 0.207457C15.8936 -0.0691523 16.3419 -0.0691523 16.6186 0.207457ZM2.41813 11.7543H12.0225C12.4136 11.7543 12.7306 12.0714 12.7306 12.4626C12.7306 12.8538 12.4136 13.1709 12.0224 13.1709H2.41805L4.38303 15.1358C4.65964 15.4124 4.65964 15.8608 4.38303 16.1374C4.24469 16.2757 4.06346 16.3448 3.88223 16.3448C3.70099 16.3448 3.51976 16.2757 3.38142 16.1374L0.207457 12.9634C-0.0691523 12.6868 -0.0691523 12.2384 0.207457 11.9618L3.38142 8.78771C3.65811 8.5111 4.10642 8.51102 4.38311 8.78771C4.65972 9.06432 4.65972 9.51271 4.38311 9.78932L2.41813 11.7543Z" fill="#C84461"/>
</svg>
