<svg width="20" height="20" viewBox="0 0 20 20" fill="none" xmlns="http://www.w3.org/2000/svg">
  <path fill-rule="evenodd" clip-rule="evenodd" d="M0 10C0 4.48583 4.48583 0 10 0C15.5142 0 20 4.48583 20 10C20 15.5142 15.5142 20 10 20C4.48583 20 0 15.5142 0 10ZM1.66667 10C1.66667 14.595 5.405 18.3333 10 18.3333C14.595 18.3333 18.3333 14.595 18.3333 10C18.3333 5.405 14.595 1.66667 10 1.66667C5.405 1.66667 1.66667 5.405 1.66667 10ZM9.52709 11.2654L13.1096 6.96666C13.4042 6.61291 13.93 6.56541 14.2838 6.85958C14.6371 7.15458 14.685 7.67958 14.3904 8.03333L10.2238 13.0333C10.0738 13.2133 9.85501 13.3221 9.62126 13.3325C9.60877 13.3333 9.59587 13.3333 9.58338 13.3333H9.58334C9.36292 13.3333 9.15084 13.2458 8.99376 13.0892L6.49376 10.5892C6.16834 10.2637 6.16834 9.73625 6.49376 9.41083C6.81876 9.08542 7.34709 9.08542 7.67209 9.41083L9.52709 11.2654Z" fill="#C84461"/>
</svg>
