<svg width="24" height="24" viewBox="0 0 24 24" fill="none" xmlns="http://www.w3.org/2000/svg">
<g opacity="0.5">
<path fill-rule="evenodd" clip-rule="evenodd" d="M0 12C0 5.383 5.383 0 12 0C18.6165 0 24 5.383 24 12C24 18.617 18.6165 24 12 24C5.383 24 0 18.617 0 12ZM2 12C2 17.514 6.486 22 12 22C17.514 22 22 17.514 22 12C22 6.486 17.514 2 12 2C6.486 2 2 6.486 2 12ZM13.4142 12L15.5355 14.1213C15.9259 14.5116 15.9259 15.1452 15.5355 15.5355C15.1452 15.9258 14.5116 15.9258 14.1213 15.5355L12 13.4142L9.87868 15.5355C9.48836 15.9258 8.85479 15.9258 8.46447 15.5355C8.07414 15.1452 8.07414 14.5116 8.46447 14.1213L10.5858 12L8.46447 9.87867C8.07414 9.48835 8.07414 8.85478 8.46447 8.46446C8.85479 8.07414 9.48836 8.07414 9.87868 8.46446L12 10.5858L14.1213 8.46446C14.5116 8.07414 15.1452 8.07414 15.5355 8.46446C15.9259 8.85478 15.9259 9.48835 15.5355 9.87867L13.4142 12Z" fill="#DFDAE7"/>
</g>
</svg>
