<svg width="16" height="16" viewBox="0 0 16 16" fill="none" xmlns="http://www.w3.org/2000/svg">
<rect width="16" height="16" rx="8" fill="#DFDAE7"/>
<path d="M11.4117 10.1187L9.47219 8.17921L11.4117 6.23972C11.7686 5.88285 11.7686 5.30359 11.4117 4.94672C11.0548 4.58986 10.4756 4.58986 10.1187 4.94672L8.1792 6.88622L6.23971 4.94672C5.88284 4.58986 5.30358 4.58986 4.94671 4.94672C4.58984 5.30359 4.58984 5.88285 4.94671 6.23972L6.8862 8.17921L4.94671 10.1187C4.58984 10.4756 4.58984 11.0548 4.94671 11.4117C5.30358 11.7686 5.88284 11.7686 6.23971 11.4117L8.1792 9.47221L10.1187 11.4117C10.4756 11.7686 11.0548 11.7686 11.4117 11.4117C11.7686 11.0548 11.7686 10.4756 11.4117 10.1187Z" fill="#433558"/>
</svg>
