<svg width="24" height="24" viewBox="0 0 24 24" fill="none" xmlns="http://www.w3.org/2000/svg">
  <path fill-rule="evenodd" clip-rule="evenodd" d="M12 0C5.383 0 0 5.3835 0 12C0 18.6165 5.383 24 12 24C18.617 24 24 18.6165 24 12C24 5.3835 18.617 0 12 0ZM12 22C6.486 22 2 17.514 2 12C2 6.486 6.486 2 12 2C17.514 2 22 6.486 22 12C22 17.514 17.514 22 12 22ZM17 11H15.8685C15.774 10.6345 15.63 10.29 15.442 9.9725L16.243 9.1715C16.6335 8.781 16.6335 8.1475 16.243 7.7575C15.8525 7.367 15.2195 7.367 14.8285 7.7575L14.028 8.5585C13.7105 8.371 13.366 8.2265 13.0005 8.132V7C13.0005 6.448 12.5525 6 12.0005 6C11.4485 6 11.0005 6.448 11.0005 7V8.1315C10.635 8.226 10.29 8.37 9.973 8.558L9.1725 7.757C8.782 7.3665 8.149 7.3665 7.758 7.757C7.3675 8.147 7.3675 8.7805 7.758 9.171L8.559 9.972C8.3715 10.2895 8.227 10.634 8.1325 10.9995H7C6.448 10.9995 6 11.4475 6 11.9995C6 12.5515 6.448 12.9995 7 12.9995H8.1315C8.226 13.365 8.37 13.7095 8.558 14.027L7.757 14.828C7.3665 15.2185 7.3665 15.852 7.757 16.242C7.9525 16.4375 8.208 16.535 8.464 16.535C8.72 16.535 8.976 16.4375 9.1715 16.242L9.972 15.441C10.2895 15.6285 10.634 15.773 10.9995 15.8675V17C10.9995 17.552 11.4475 18 11.9995 18C12.5515 18 12.9995 17.552 12.9995 17V15.8685C13.365 15.774 13.71 15.63 14.027 15.442L14.8275 16.243C15.023 16.4385 15.279 16.536 15.535 16.536C15.791 16.536 16.0465 16.4385 16.242 16.243C16.6325 15.853 16.6325 15.2195 16.242 14.829L15.441 14.028C15.6285 13.7105 15.773 13.366 15.8675 13.0005H17C17.552 13.0005 18 12.5525 18 12.0005C18 11.4485 17.552 11 17 11ZM12 14C10.897 14 10 13.103 10 12C10 10.897 10.897 10 12 10C13.103 10 14 10.897 14 12C14 13.103 13.103 14 12 14Z" fill="white"/>
</svg>
