<svg width="24" height="24" viewBox="0 0 24 24" fill="none" xmlns="http://www.w3.org/2000/svg">
  <g clip-path="url(#clip0_15709_41833)">
    <path d="M22.8974 12.0008L23.9503 9.25453C24.0658 8.95155 23.9758 8.60807 23.7224 8.40259L21.4395 6.55171L20.9775 3.64641C20.9265 3.32543 20.6746 3.07495 20.3536 3.02396L17.4483 2.56199L15.5989 0.277643C15.3949 0.0241601 15.0439 -0.0658337 14.7485 0.0496584L12.0007 1.10409L9.25434 0.0511583C8.94986 -0.0658337 8.60938 0.0271599 8.4039 0.279143L6.55302 2.56349L3.64772 3.02545C3.32824 3.07645 3.07626 3.32843 3.02526 3.64791L2.5633 6.55321L0.278952 8.40409C0.0269694 8.60807 -0.0645243 8.95155 0.0509678 9.25453L1.1039 12.0008L0.0509678 14.7472C-0.0660243 15.0501 0.0269694 15.3936 0.278952 15.5976L2.5633 17.447L3.02526 20.3523C3.07626 20.6732 3.32674 20.9252 3.64772 20.9762L6.55302 21.4382L8.4039 23.721C8.60938 23.976 8.95286 24.066 9.25584 23.949L12.0007 22.8976L14.747 23.9505C14.834 23.9835 14.924 24 15.0154 24C15.2359 24 15.4534 23.9025 15.5989 23.721L17.4483 21.4382L20.3536 20.9762C20.6746 20.9252 20.9265 20.6732 20.9775 20.3523L21.4395 17.447L23.7224 15.5976C23.9758 15.3921 24.0658 15.0501 23.9503 14.7472L22.8974 12.0008Z" fill="#2CAD6D"/>
    <path d="M9.75086 10.5012C8.51045 10.5012 7.50101 9.49179 7.50101 8.25137C7.50101 7.01096 8.51045 6.00153 9.75086 6.00153C10.9913 6.00153 12.0007 7.01096 12.0007 8.25137C12.0007 9.49179 10.9913 10.5012 9.75086 10.5012ZM9.75086 7.50142C9.33689 7.50142 9.00091 7.8374 9.00091 8.25137C9.00091 8.66534 9.33689 9.00132 9.75086 9.00132C10.1648 9.00132 10.5008 8.66534 10.5008 8.25137C10.5008 7.8374 10.1648 7.50142 9.75086 7.50142Z" fill="#FAFAFA"/>
    <path d="M14.2506 18.0007C13.0101 18.0007 12.0007 16.9913 12.0007 15.7509C12.0007 14.5105 13.0101 13.501 14.2506 13.501C15.491 13.501 16.5004 14.5105 16.5004 15.7509C16.5004 16.9913 15.491 18.0007 14.2506 18.0007ZM14.2506 15.0009C13.8381 15.0009 13.5006 15.3384 13.5006 15.7509C13.5006 16.1634 13.8381 16.5008 14.2506 16.5008C14.663 16.5008 15.0005 16.1634 15.0005 15.7509C15.0005 15.3384 14.663 15.0009 14.2506 15.0009Z" fill="#FAFAFA"/>
    <path d="M8.25153 18.0006C8.10004 18.0006 7.94855 17.9556 7.81656 17.8611C7.47908 17.6196 7.40109 17.1516 7.64257 16.8141L15.142 6.31486C15.3835 5.97738 15.8515 5.89939 16.189 6.14087C16.5265 6.38085 16.6029 6.85032 16.363 7.1863L8.86349 17.6856C8.715 17.8911 8.48551 18.0006 8.25153 18.0006Z" fill="#FAFAFA"/>
  </g>
  <defs>
    <clipPath id="clip0_15709_41833">
      <rect width="24" height="24" fill="white"/>
    </clipPath>
  </defs>
</svg>
