<svg width="20" height="20" viewBox="0 0 20 20" fill="none" xmlns="http://www.w3.org/2000/svg">
  <path fill-rule="evenodd" clip-rule="evenodd" d="M11 1C11 0.447715 10.5523 0 10 0C9.44772 0 9 0.447715 9 1V10.5858L5.70711 7.29289C5.31659 6.90236 4.68342 6.90236 4.2929 7.29289C3.90237 7.68341 3.90237 8.31658 4.2929 8.7071L9.29076 13.705C9.29803 13.7123 9.30541 13.7195 9.31289 13.7266C9.40246 13.8113 9.50386 13.8764 9.6116 13.9218C9.73101 13.9721 9.86225 14 10 14C10.2683 14 10.512 13.8943 10.6916 13.7223C10.6974 13.7167 10.7032 13.711 10.7089 13.7053L15.7071 8.7071C16.0976 8.31658 16.0976 7.68341 15.7071 7.29289C15.3166 6.90236 14.6834 6.90236 14.2929 7.29289L11 10.5858V1ZM1 12C1.55228 12 2 12.4477 2 13V17C2 17.2652 2.10536 17.5196 2.29289 17.7071C2.48043 17.8946 2.73478 18 3 18H17C17.2652 18 17.5196 17.8946 17.7071 17.7071C17.8946 17.5196 18 17.2652 18 17V13C18 12.4477 18.4477 12 19 12C19.5523 12 20 12.4477 20 13V17C20 17.7956 19.6839 18.5587 19.1213 19.1213C18.5587 19.6839 17.7957 20 17 20H3C2.20435 20 1.44129 19.6839 0.87868 19.1213C0.31607 18.5587 0 17.7956 0 17V13C0 12.4477 0.447715 12 1 12Z" fill="#C84461"/>
</svg>
