<svg width="20" height="20" viewBox="0 0 20 20" fill="none" xmlns="http://www.w3.org/2000/svg">
  <path fill-rule="evenodd" clip-rule="evenodd" d="M18.3333 7.5C18.3333 7.04 18.7067 6.66667 19.1667 6.66667C19.6267 6.66667 20 7.04 20 7.5V17.5C20 18.8787 18.8787 20 17.5 20H2.5C1.12125 20 0 18.8787 0 17.5V2.5C0 1.12125 1.12125 0 2.5 0H12.5C12.96 0 13.3333 0.373333 13.3333 0.833333C13.3333 1.29333 12.96 1.66667 12.5 1.66667H2.5C2.04042 1.66667 1.66667 2.04042 1.66667 2.5V17.5C1.66667 17.9596 2.04042 18.3333 2.5 18.3333H17.5C17.9596 18.3333 18.3333 17.9596 18.3333 17.5V7.5ZM6.66656 12.5V10.1429C6.66656 9.92209 6.75448 9.71 6.91073 9.55375L15.9761 0.488336C16.6266 -0.161247 17.6836 -0.161247 18.3332 0.488336L19.5116 1.66667C20.1616 2.31667 20.1616 3.37375 19.5116 4.02375L10.4461 13.0892C10.2899 13.2454 10.0778 13.3333 9.85698 13.3333H7.4999C7.0399 13.3333 6.66656 12.96 6.66656 12.5ZM18.3332 2.84542L17.1541 1.66625L15.9753 2.845L17.1545 4.02417L18.3332 2.84542ZM14.7974 4.02292L8.33323 10.4879V11.6667H9.51156L15.9766 5.20209L14.7974 4.02292Z" fill="#C84461"/>
</svg>
