<svg width="20" height="20" viewBox="0 0 20 20" fill="none" xmlns="http://www.w3.org/2000/svg">
  <path d="M9.99654 0C4.48441 0 0 4.48441 0 9.99654C0 17.4875 7.95269 22.2704 14.5411 18.9025C15.0257 18.6548 15.2178 18.061 14.97 17.5764C14.7223 17.0917 14.1286 16.8997 13.6439 17.1474C8.34241 19.8575 1.97115 15.9964 1.97115 9.99654C1.97115 5.57131 5.57131 1.97115 9.99654 1.97115C14.4218 1.97115 18.0219 5.57131 18.0219 9.99654V11.4984C18.0219 12.3351 17.3412 13.0158 16.5045 13.0158C15.6678 13.0158 14.987 12.3351 14.987 11.4984V9.99654C14.987 7.24481 12.7483 5.00611 9.99658 5.00611C7.24486 5.00611 5.00606 7.24481 5.00606 9.99654C5.00606 12.7483 7.24477 14.987 9.99649 14.987C11.415 14.987 12.6972 14.392 13.6066 13.4386C14.2334 14.3716 15.2983 14.987 16.5044 14.987C18.428 14.987 19.993 13.422 19.993 11.4984V9.99654C19.9931 4.48441 15.5087 0 9.99654 0ZM9.99654 13.0159C8.33167 13.0159 6.97725 11.6614 6.97725 9.99658C6.97725 8.33176 8.33171 6.9773 9.99654 6.9773C11.6614 6.9773 13.0158 8.33176 13.0158 9.99658C13.0158 11.6614 11.6614 13.0159 9.99654 13.0159Z" fill="#F4D8E9"/>
</svg>
