<svg width="24" height="13" viewBox="0 0 24 13" fill="none" xmlns="http://www.w3.org/2000/svg">
<path d="M18.75 2.49989H3.41389L4.2069 1.70688C4.5974 1.31638 4.5974 0.683379 4.2069 0.292877C3.81689 -0.0976255 3.18289 -0.0976255 2.79289 0.292877L0.292877 2.79289C-0.0976255 3.18339 -0.0976255 3.81639 0.292877 4.2069L2.79289 6.70691C2.98789 6.90241 3.24389 6.99991 3.49989 6.99991C3.75589 6.99991 4.0119 6.90241 4.2069 6.70691C4.5974 6.31641 4.5974 5.6834 4.2069 5.2929L3.41389 4.4999H18.75C20.542 4.4999 22 5.95791 22 7.74992C22 9.54192 20.542 10.9999 18.75 10.9999H16C15.448 10.9999 15 11.4479 15 11.9999C15 12.5519 15.448 12.9999 16 12.9999H18.75C21.645 12.9999 24 10.6449 24 7.74992C24 4.8549 21.645 2.49989 18.75 2.49989Z" fill="#C84461"/>
</svg>
