<svg width="20" height="20" viewBox="0 0 20 20" fill="none" xmlns="http://www.w3.org/2000/svg">
<path opacity="0.5" fill-rule="evenodd" clip-rule="evenodd" d="M10 0C4.48588 0 0 4.48588 0 10C0 15.5141 4.48588 20 10 20C15.5141 20 20 15.5141 20 10C20 4.48588 15.5141 0 10 0ZM10 18.3333C5.40507 18.3333 1.66667 14.5949 1.66667 10C1.66667 5.40507 5.40507 1.66667 10 1.66667C14.5949 1.66667 18.3333 5.40507 18.3333 10C18.3333 14.5949 14.5949 18.3333 10 18.3333ZM12.5 15.8333C12.5 15.3733 12.1267 15 11.6667 15H10.8333V8.33333C10.8333 7.87333 10.46 7.5 10 7.5H8.75C8.29 7.5 7.91667 7.87333 7.91667 8.33333C7.91667 8.79333 8.29 9.16667 8.75 9.16667H9.16667V15H8.33333C7.87333 15 7.5 15.3733 7.5 15.8333C7.5 16.2933 7.87333 16.6667 8.33333 16.6667H11.6667C12.1267 16.6667 12.5 16.2933 12.5 15.8333ZM11.25 4.58333C11.25 5.27242 10.6891 5.83333 10 5.83333C9.31091 5.83333 8.75 5.27242 8.75 4.58333C8.75 3.89425 9.31091 3.33333 10 3.33333C10.6891 3.33333 11.25 3.89425 11.25 4.58333Z" fill="#DFDAE7"/>
</svg>
