<svg width="170" height="170" viewBox="0 0 170 170" fill="none" xmlns="http://www.w3.org/2000/svg">
  <g filter="url(#filter0_d)">
    <circle cx="85" cy="65" r="45" fill="url(#paint0_linear)"/>
  </g>
  <path fill-rule="evenodd" clip-rule="evenodd" d="M102 50.0537C102.478 49.9315 102.986 50.0252 103.378 50.3087C103.77 50.5922 104 51.0325 104 51.5004V75.5001C104 76.1766 103.522 76.7691 102.834 76.9476L98.133 78.1619C97.289 78.3793 96.419 77.9076 96.1886 77.1096C95.959 76.3101 96.4562 75.4859 97.2993 75.2676L100.833 74.3549V53.4647L92.8304 55.5324C92.8818 55.6801 92.9167 55.8361 92.9167 56.0004V84.5C92.9167 85.328 92.2073 86 91.3333 86C90.4593 86 89.75 85.328 89.75 84.5V56.3281L86.5833 57.1464V80.0001C86.5833 80.1126 86.5683 80.2206 86.5445 80.3263C86.5404 80.3438 86.5344 80.3602 86.5284 80.3766C86.524 80.3885 86.5197 80.4003 86.516 80.4126C86.4931 80.4876 86.467 80.5603 86.4329 80.6301C86.4205 80.6552 86.4064 80.6787 86.3921 80.7025C86.3872 80.7105 86.3823 80.7186 86.3775 80.7268C86.3411 80.7883 86.3015 80.8476 86.2572 80.9031C86.2326 80.9346 86.2065 80.9646 86.1788 80.9938C86.1289 81.0471 86.0751 81.0958 86.0173 81.1416C86.0074 81.1492 85.9987 81.1578 85.9902 81.1664C85.9809 81.1756 85.9717 81.1848 85.9611 81.1926C85.9569 81.1955 85.9523 81.1973 85.9478 81.1991C85.943 81.2011 85.9382 81.203 85.9342 81.2061C85.8138 81.2901 85.6808 81.3561 85.5375 81.4056C85.5205 81.4111 85.5038 81.4158 85.4871 81.4205C85.4765 81.4234 85.4659 81.4264 85.4552 81.4296C85.3103 81.4708 85.1591 81.5001 85 81.5001C84.8686 81.5001 84.7435 81.4806 84.6224 81.4528C84.616 81.4513 84.6095 81.4507 84.603 81.4502C84.5964 81.4496 84.5899 81.4491 84.5836 81.4476L67.1669 76.9476C66.4782 76.7691 66 76.1766 66 75.5001V51.5004C66 51.0325 66.2304 50.5922 66.6223 50.308C67.0141 50.0237 67.524 49.93 67.9998 50.053L85 54.4457L102 50.0537ZM69.1671 74.3553L83.4171 78.037V57.1467L69.1671 53.465V74.3553Z" fill="#F2F2F2"/>
  <defs>
    <filter id="filter0_d" x="0" y="0" width="170" height="170" filterUnits="userSpaceOnUse" color-interpolation-filters="sRGB">
      <feFlood flood-opacity="0" result="BackgroundImageFix"/>
      <feColorMatrix in="SourceAlpha" type="matrix" values="0 0 0 0 0 0 0 0 0 0 0 0 0 0 0 0 0 0 127 0"/>
      <feOffset dy="20"/>
      <feGaussianBlur stdDeviation="20"/>
      <feColorMatrix type="matrix" values="0 0 0 0 0.866667 0 0 0 0 0.14902 0 0 0 0 0.784918 0 0 0 0.3 0"/>
      <feBlend mode="normal" in2="BackgroundImageFix" result="effect1_dropShadow"/>
      <feBlend mode="normal" in="SourceGraphic" in2="effect1_dropShadow" result="shape"/>
    </filter>
    <linearGradient id="paint0_linear" x1="48.1835" y1="40.1358" x2="88.4552" y2="113.769" gradientUnits="userSpaceOnUse">
      <stop stop-color="#D92779"/>
      <stop offset="1" stop-color="#7C277E"/>
    </linearGradient>
  </defs>
</svg>
