<svg width="20" height="15" viewBox="0 0 20 15" fill="none" xmlns="http://www.w3.org/2000/svg">
  <path d="M18.1818 9.13453H6.20712L8.55805 11.4968C9.26806 12.2102 9.26806 13.3667 8.55805 14.0801C8.2026 14.4373 7.73804 14.6154 7.27258 14.6154C6.80712 14.6154 6.34257 14.4373 5.98711 14.0801L0.532507 8.59923C-0.177502 7.88581 -0.177502 6.72935 0.532507 6.01592L5.98711 0.535068C6.69712 -0.178356 7.84805 -0.178356 8.55805 0.535068C9.26806 1.24849 9.26806 2.40495 8.55805 3.11838L6.20712 5.48063H18.1818C19.1854 5.48063 20 6.2991 20 7.30758C20 8.31606 19.1854 9.13453 18.1818 9.13453Z" fill="#DD2678"/>
</svg>
