<svg width="24" height="24" viewBox="0 0 24 24" fill="none" xmlns="http://www.w3.org/2000/svg">
<path fill-rule="evenodd" clip-rule="evenodd" d="M0 12C0 18.6165 5.383 24 12 24C18.617 24 24 18.6165 24 12C24 5.3835 18.617 0 12 0C5.383 0 0 5.3835 0 12ZM22 12C22 17.514 17.514 22 12 22C6.486 22 2 17.514 2 12C2 6.486 6.486 2 12 2C17.514 2 22 6.486 22 12ZM9.12479 12.0032C9.12479 11.4902 9.31979 10.9767 9.71079 10.5857L12.9088 7.30221C13.2938 6.90671 13.9268 6.89821 14.3228 7.28371C14.7183 7.66821 14.7268 8.30221 14.3413 8.69771L11.1343 11.9907L14.3413 15.3022C14.7268 15.6977 14.7183 16.3312 14.3228 16.7162C13.9273 17.1017 13.2943 17.0932 12.9088 16.6977L9.70179 13.4047C9.31779 13.0202 9.12479 12.5127 9.12479 12.0032Z" fill="#C84461"/>
</svg>
