<svg width="20" height="20" viewBox="0 0 20 20" fill="none" xmlns="http://www.w3.org/2000/svg">
  <path d="M10.0007 9.99984C9.08398 9.99984 8.33398 9.24984 8.33398 8.33317C8.33398 7.4165 9.08398 6.6665 10.0007 6.6665C10.9173 6.6665 11.6673 7.4165 11.6673 8.33317C11.6673 9.24984 10.9173 9.99984 10.0007 9.99984ZM15.0007 8.49984C15.0007 5.47484 12.7923 3.33317 10.0007 3.33317C7.20898 3.33317 5.00065 5.47484 5.00065 8.49984C5.00065 10.4498 6.62565 13.0332 10.0007 16.1165C13.3757 13.0332 15.0007 10.4498 15.0007 8.49984ZM10.0007 1.6665C13.5006 1.6665 16.6673 4.34984 16.6673 8.49984C16.6673 11.2665 14.4423 14.5415 10.0007 18.3332C5.55898 14.5415 3.33398 11.2665 3.33398 8.49984C3.33398 4.34984 6.50065 1.6665 10.0007 1.6665Z" fill="white"/>
</svg>
