<svg width="20" height="20" viewBox="0 0 20 20" fill="none" xmlns="http://www.w3.org/2000/svg">
  <path fill-rule="evenodd" clip-rule="evenodd" d="M0 10C0 4.48625 4.48583 0 10 0C15.5142 0 20 4.48625 20 10C20 15.5137 15.5142 20 10 20C4.48583 20 0 15.5137 0 10ZM1.66667 10C1.66667 14.595 5.405 18.3333 10 18.3333C14.595 18.3333 18.3333 14.595 18.3333 10C18.3333 5.405 14.595 1.66667 10 1.66667C5.405 1.66667 1.66667 5.405 1.66667 10ZM12.5 7.91667V8.75C13.4192 8.75 14.1667 9.4975 14.1667 10.4167V12.9167C14.1667 13.8358 13.4192 14.5833 12.5 14.5833H7.5C6.58083 14.5833 5.83333 13.8358 5.83333 12.9167V10.4167C5.83333 9.4975 6.58083 8.75 7.5 8.75V7.91667C7.5 6.53792 8.62125 5.41667 10 5.41667C11.3787 5.41667 12.5 6.53792 12.5 7.91667ZM10 7.08333C9.54042 7.08333 9.16667 7.45708 9.16667 7.91667V8.75H10.8333V7.91667C10.8333 7.45708 10.4596 7.08333 10 7.08333ZM7.49917 10.4167L7.5 12.9167H12.5V10.4167H7.5H7.49917Z" fill="#F4D8E9"/>
</svg>
