<svg width="20" height="17" viewBox="0 0 20 17" fill="none" xmlns="http://www.w3.org/2000/svg">
  <path fill-rule="evenodd" clip-rule="evenodd" d="M19.0877 2.38378H0.91721C0.388271 2.38378 0 1.95652 0 1.26012C0 0.563712 0.428462 0 0.957401 0H19.0425C19.5715 0 19.9999 0.563712 19.9999 1.26012C19.9999 1.95652 19.6167 2.38378 19.0877 2.38378Z" fill="#C84461"/>
  <path fill-rule="evenodd" clip-rule="evenodd" d="M0.917387 7.14844H19.0879C19.6168 7.14844 19.9965 7.64345 19.9965 8.33986C19.9965 9.03626 19.6168 9.53033 19.0879 9.53033H0.917387C0.388448 9.53033 0.00878906 9.03626 0.00878906 8.33986C0.00878906 7.64345 0.388448 7.14844 0.917387 7.14844Z" fill="#C84461"/>
  <path fill-rule="evenodd" clip-rule="evenodd" d="M1.43674 14.1667H18.7578C19.4781 14.1667 20 14.6042 20 15.3383C20 16.0724 19.4165 16.6667 18.6962 16.6667H1.30382C0.583492 16.6667 0 16.0724 0 15.3383C0 14.6042 0.716415 14.1667 1.43674 14.1667Z" fill="#C84461"/>
</svg>
