<svg width="24" height="24" viewBox="0 0 24 24" fill="none" xmlns="http://www.w3.org/2000/svg">
  <path fill-rule="evenodd" clip-rule="evenodd" d="M12 0C5.383 0 0 5.383 0 12C0 18.617 5.383 24 12 24C18.6165 24 24 18.617 24 12C24 5.383 18.6165 0 12 0ZM12 22C6.486 22 2 17.514 2 12C2 6.486 6.486 2 12 2C17.514 2 22 6.486 22 12C22 17.514 17.514 22 12 22ZM14 11H10L8.00005 11C7.44805 11 7.00005 11.448 7.00005 12C7.00005 12.552 7.44805 13 8.00005 13H11H13H16C16.552 13 17 12.552 17 12C17 11.448 16.552 11 16 11L14 11ZM11.9965 7H12.0036C12.0024 7 12.0012 6.99999 12 6.99999C11.9989 6.99999 11.9977 7 11.9965 7Z" fill="#C84461"/>
</svg>
