<svg width="19" height="25" viewBox="0 0 19 25" fill="none" xmlns="http://www.w3.org/2000/svg">
  <path fill-rule="evenodd" clip-rule="evenodd"
        d="M7.14931 1.97474C7.31564 1.80842 7.6079 1.80842 7.77422 1.97474C8.60444 2.80496 9.97308 2.80496 10.8033 1.97474C10.9696 1.80842 11.2619 1.80842 11.4282 1.97474L12.1328 2.67935L10.6419 5.09114H9.28882H7.93566L6.44472 2.67934L7.14931 1.97474ZM12.6303 0.772662L13.0513 1.19363L13.2163 0.926713C13.4631 0.527409 13.9869 0.403814 14.3862 0.650657C14.7855 0.8975 14.9091 1.42131 14.6623 1.82061L12.6405 5.09114H13.9393C14.4087 5.09114 14.7893 5.4717 14.7893 5.94114C14.7893 6.41059 14.4087 6.79114 13.9393 6.79114H12.587C13.0614 7.78932 13.8262 8.61542 14.8352 9.30925C17.5904 11.1925 18.7485 14.1231 18.3735 16.9126C17.9989 19.6986 16.1057 22.2773 12.9215 23.5074C10.64 24.4185 8.01183 24.4134 5.66189 23.5096L5.66113 23.5093C2.47864 22.2818 0.57853 19.725 0.214215 16.9515C-0.150485 14.1751 1.03683 11.2686 3.82808 9.39055C5.01592 8.57293 5.88528 7.47661 6.31973 6.26312L6.42778 5.88496L3.91527 1.82061C3.66843 1.42131 3.79202 0.8975 4.19133 0.650657C4.59063 0.403814 5.11444 0.527408 5.36128 0.926713L5.52628 1.19362L5.94723 0.772662C6.77745 -0.0575545 8.14609 -0.0575545 8.97631 0.772662C9.14263 0.938987 9.43489 0.938987 9.60122 0.772662C10.4314 -0.0575545 11.8001 -0.0575545 12.6303 0.772662ZM7.93607 6.79114L7.93119 6.80536C7.36667 8.40484 6.24778 9.79001 4.78767 10.7938L4.7803 10.7989L4.78028 10.7989C2.50855 12.3258 1.621 14.6082 1.89974 16.7301C2.17902 18.8563 3.64224 20.9085 6.27291 21.9232C8.23947 22.6794 10.4255 22.6748 12.2949 21.9271L12.3047 21.9231L12.3047 21.9232C14.9307 20.9103 16.3991 18.8397 16.6886 16.686C16.9779 14.5347 16.1018 12.2338 13.875 10.7122L13.873 10.7108C12.4505 9.73282 11.3305 8.45712 10.7529 6.79114H9.28882H7.93607ZM10.1386 11.735C10.1283 11.2745 9.75176 10.9043 9.28878 10.9043C8.81934 10.9043 8.43878 11.2849 8.43878 11.7543V11.7825C7.50434 11.9896 6.77788 12.8451 6.77788 13.8304C6.77788 14.9642 7.73975 15.9261 8.87356 15.9261H9.70401C9.89893 15.9261 10.0997 16.1269 10.0997 16.3218C10.0997 16.5167 9.89893 16.7175 9.70401 16.7175H9.2906C9.29 16.7175 9.28939 16.7175 9.28878 16.7175C9.28818 16.7175 9.28757 16.7175 9.28696 16.7175H8.45833C7.98889 16.7175 7.60833 17.098 7.60833 17.5675C7.60833 18.0304 7.97848 18.407 8.439 18.4172C8.44927 18.8778 8.8258 19.2479 9.28878 19.2479C9.75822 19.2479 10.1388 18.8674 10.1388 18.3979V18.3698C11.0732 18.1626 11.7997 17.3071 11.7997 16.3218C11.7997 15.188 10.8378 14.2261 9.70401 14.2261H8.87356C8.67864 14.2261 8.47788 14.0254 8.47788 13.8304C8.47788 13.6355 8.67864 13.4348 8.87356 13.4348L9.28878 13.4348L10.1192 13.4348C10.5887 13.4348 10.9692 13.0542 10.9692 12.5848C10.9692 12.1218 10.5991 11.7453 10.1386 11.735Z"
        fill="#2CAD6D"/>
</svg>
