<svg width="46" height="46" viewBox="0 0 46 46" fill="none" xmlns="http://www.w3.org/2000/svg">
<circle cx="23" cy="23" r="23" fill="#E7A957"/>
<path fill-rule="evenodd" clip-rule="evenodd" d="M23.9091 11.9091V12.8182C23.9091 13.32 23.5018 13.7273 23 13.7273C22.4982 13.7273 22.0909 13.32 22.0909 12.8182V11.9091C22.0909 11.4073 22.4982 11 23 11C23.5018 11 23.9091 11.4073 23.9091 11.9091ZM18.9091 25.2545C17.7523 24.1409 17.0909 22.6173 17.0909 21C17.0909 17.7418 19.7418 15.0909 23 15.0909C26.2582 15.0909 28.9091 17.7418 28.9091 21C28.9091 22.6173 28.2477 24.1409 27.0909 25.2545V27.8182C27.0909 28.6627 26.5091 29.3686 25.7273 29.5718V30.0909C25.7273 31.595 24.5041 32.8182 23 32.8182C21.4959 32.8182 20.2727 31.595 20.2727 30.0909V29.5718C19.4909 29.3686 18.9091 28.6627 18.9091 27.8182V25.2545ZM20.7273 26V27.8182H25.2727V26H20.7273ZM22.0909 30.0909C22.0909 30.5923 22.4986 31 23 31C23.5014 31 23.9091 30.5923 23.9091 30.0909V29.6364H22.0909V30.0909ZM27.0909 21C27.0909 18.7445 25.2555 16.9091 23 16.9091C20.7445 16.9091 18.9091 18.7445 18.9091 21C18.9091 22.2241 19.4518 23.3759 20.3977 24.1591C20.4025 24.1629 20.4065 24.1672 20.4104 24.1716L20.4104 24.1716C20.4136 24.1751 20.4168 24.1786 20.4205 24.1818H25.5795C25.5813 24.1802 25.583 24.1786 25.5846 24.177L25.5896 24.1716L25.5896 24.1716C25.5935 24.1672 25.5975 24.1629 25.6023 24.1591C26.5482 23.3759 27.0909 22.2241 27.0909 21ZM28.7855 13.9291L28.1427 14.5718C27.7877 14.9268 27.7877 15.5023 28.1427 15.8573C28.32 16.035 28.5527 16.1236 28.7855 16.1236C29.0182 16.1236 29.2509 16.035 29.4282 15.8573L30.0709 15.2146C30.4259 14.8596 30.4259 14.2841 30.0709 13.9291C29.7164 13.5741 29.14 13.5741 28.7855 13.9291ZM32.0909 21.9091H31.1818C30.68 21.9091 30.2727 21.5018 30.2727 21C30.2727 20.4982 30.68 20.0909 31.1818 20.0909H32.0909C32.5927 20.0909 33 20.4982 33 21C33 21.5018 32.5927 21.9091 32.0909 21.9091ZM16.5718 15.8573C16.7491 16.035 16.9818 16.1236 17.2145 16.1236C17.4473 16.1236 17.68 16.035 17.8573 15.8573C18.2123 15.5023 18.2123 14.9268 17.8573 14.5718L17.2145 13.9291C16.86 13.5741 16.2836 13.5741 15.9291 13.9291C15.5741 14.2841 15.5741 14.8596 15.9291 15.2146L16.5718 15.8573ZM13.9091 20.0909H14.8182C15.32 20.0909 15.7273 20.4982 15.7273 21C15.7273 21.5018 15.32 21.9091 14.8182 21.9091H13.9091C13.4073 21.9091 13 21.5018 13 21C13 20.4982 13.4073 20.0909 13.9091 20.0909Z" fill="white"/>
</svg>
