<svg width="28" height="28" viewBox="0 0 28 28" fill="none" xmlns="http://www.w3.org/2000/svg">
<g clip-path="url(#clip0)">
<path d="M27.0389 7.36471C25.7581 6.08393 23.629 6.07961 22.3439 7.36471C22.0396 7.66899 21.7381 7.97048 21.4377 8.27077V4.11305C21.4377 2.75614 20.3408 1.65222 18.9925 1.65222H18.1018V0.820258C18.1018 0.367281 17.7346 0 17.2816 0C16.8285 0 16.4613 0.367281 16.4613 0.820258V1.65216H14.8207V0.820258C14.8207 0.367281 14.4535 0 14.0004 0C13.5474 0 13.1802 0.367281 13.1802 0.820258V1.65216H11.5396V0.820258C11.5396 0.367281 11.1723 0 10.7193 0C10.2663 0 9.89908 0.367281 9.89908 0.820258V1.65216H8.25851V0.820258C8.25846 0.367281 7.89123 0 7.4382 0C6.98517 0 6.61794 0.367281 6.61794 0.820258V1.65216H4.97737V0.820258C4.97737 0.367281 4.61009 0 4.15706 0C3.70403 0 3.3368 0.367281 3.3368 0.820258V1.65216H2.51644C1.12934 1.65216 0.000976562 2.75259 0.000976562 4.10517V25.5446C0.000976562 26.9047 1.15423 27.9991 2.51545 27.9999L18.992 27.9989C18.9925 27.9989 18.9931 27.9989 18.9936 27.9989C20.3527 27.9989 21.4377 26.9159 21.4377 25.5562V17.5728C23.3345 15.693 25.176 13.8678 27.0389 12.0049C28.3212 10.7226 28.3213 8.64719 27.0389 7.36471ZM19.7971 25.5563C19.7971 26.0077 19.4474 26.3639 18.993 26.3639C18.9929 26.3639 18.9926 26.3639 18.9925 26.3639L2.51605 26.365C2.05023 26.3647 1.64166 25.9813 1.64166 25.5447L1.64144 4.10523C1.64144 3.67238 2.05034 3.28185 2.51644 3.28185H3.33675V4.1014C3.33675 4.55443 3.70403 4.92166 4.15701 4.92166C4.60998 4.92166 4.97727 4.55438 4.97727 4.1014V3.28185H6.61784V4.1014C6.61784 4.55443 6.98512 4.92166 7.43809 4.92166C7.89112 4.92166 8.25835 4.55438 8.25835 4.1014V3.28185H9.89892V4.1014C9.89892 4.55443 10.2662 4.92166 10.7192 4.92166C11.1722 4.92166 11.5394 4.55438 11.5394 4.1014V3.28185H13.18V4.1014C13.18 4.55443 13.5473 4.92166 14.0003 4.92166C14.4533 4.92166 14.8205 4.55438 14.8205 4.1014V3.28185H16.4611V4.1014C16.4611 4.55443 16.8284 4.92166 17.2813 4.92166C17.7344 4.92166 18.1016 4.55438 18.1016 4.1014V3.28185H18.9922C19.4434 3.28185 19.7968 3.65312 19.7968 4.11305V9.9102C18.1263 11.5791 16.4991 13.2036 14.8756 14.8251H4.15706C3.70403 14.8251 3.3368 15.1924 3.3368 15.6454C3.3368 16.0984 3.70409 16.4602 4.15706 16.4602H13.2338C12.2573 17.4359 11.6672 18.0316 11.5925 18.1062H4.15706C3.70403 18.1062 3.3368 18.4735 3.3368 18.9265C3.3368 19.3795 3.70409 19.7467 4.15706 19.7467H10.8548L10.3079 21.3873H4.15706C3.70403 21.3873 3.3368 21.7546 3.3368 22.2076C3.3368 22.6605 3.70409 23.028 4.15706 23.028H9.76111L9.50495 23.7964C9.29063 24.4395 9.90587 25.0462 10.5425 24.834L15.7627 23.0939C15.8835 23.0536 15.9933 22.9858 16.0834 22.8957C17.3377 21.6414 18.5784 20.4081 19.797 19.1992V25.5563H19.7971ZM14.2925 21.8548L11.5801 22.7589L12.4842 20.0465L14.2925 21.8548ZM15.7089 20.9512L13.3884 18.6307C15.9646 16.0554 18.4401 13.585 21.0258 11.0017L23.3879 13.3273C22.3037 14.4048 17.1317 19.5316 15.7089 20.9512ZM25.8788 10.8449C25.4342 11.2895 24.9916 11.7311 24.551 12.1701L22.1863 9.84205C22.6219 9.40674 23.0606 8.9682 23.504 8.52474C24.1461 7.88266 25.2376 7.88348 25.8788 8.52474C26.5184 9.16437 26.5184 10.2052 25.8788 10.8449Z" fill="white"/>
<path d="M10.1708 8.26295H4.15626C3.70323 8.26295 3.336 8.63024 3.336 9.08321C3.336 9.53619 3.70328 9.90353 4.15626 9.90353H10.1708C10.6238 9.90353 10.991 9.53625 10.991 9.08327C10.991 8.63029 10.6238 8.26295 10.1708 8.26295Z" fill="white"/>
<path d="M13.5721 11.5441H4.15626C3.70323 11.5441 3.336 11.9114 3.336 12.3644C3.336 12.8174 3.70328 13.1846 4.15626 13.1846H13.572C14.0251 13.1846 14.3923 12.8173 14.3923 12.3644C14.3923 11.9113 14.0251 11.5441 13.5721 11.5441Z" fill="white"/>
</g>
<defs>
<clipPath id="clip0">
<rect width="28" height="28" fill="white"/>
</clipPath>
</defs>
</svg>
