<svg width="16" height="16" viewBox="0 0 16 16" fill="none" xmlns="http://www.w3.org/2000/svg">
<path fill-rule="evenodd" clip-rule="evenodd" d="M7.93997 0C6.58956 0 5.29446 0.536448 4.33957 1.49133C3.38469 2.44622 2.84824 3.74132 2.84824 5.09173C2.84824 7.53042 2.32665 9.04482 1.84597 9.92607C1.60463 10.3685 1.36962 10.6588 1.20638 10.8311C1.12456 10.9175 1.06027 10.9747 1.02156 11.007C1.0022 11.0231 0.989213 11.033 0.983612 11.0372L0.981533 11.0387C0.720775 11.2178 0.605383 11.5455 0.697283 11.849C0.79017 12.1558 1.07293 12.3656 1.39346 12.3656H14.4865C14.807 12.3656 15.0898 12.1558 15.1827 11.849C15.2746 11.5455 15.1592 11.2178 14.8984 11.0387L14.8963 11.0372C14.8907 11.033 14.8777 11.0231 14.8584 11.007C14.8197 10.9747 14.7554 10.9175 14.6736 10.8311C14.5103 10.6588 14.2753 10.3685 14.034 9.92607C13.5533 9.04482 13.0317 7.53042 13.0317 5.09173C13.0317 3.74132 12.4952 2.44622 11.5404 1.49133C10.5855 0.536448 9.29038 0 7.93997 0ZM12.9231 10.9108H2.95686C3.0122 10.8202 3.06776 10.7242 3.12312 10.6227C3.73352 9.50361 4.30302 7.74476 4.30302 5.09173C4.30302 4.12715 4.6862 3.20208 5.36826 2.52002C6.05032 1.83796 6.97539 1.45478 7.93997 1.45478C8.90455 1.45478 9.82962 1.83796 10.5117 2.52002C11.1937 3.20208 11.5769 4.12715 11.5769 5.09173C11.5769 7.74476 12.1464 9.50361 12.7568 10.6227C12.8122 10.7242 12.8677 10.8202 12.9231 10.9108ZM7.31077 14.1828C7.10919 13.8353 6.66408 13.717 6.31659 13.9186C5.9691 14.1202 5.85081 14.5653 6.05238 14.9128C6.2442 15.2435 6.51954 15.518 6.85081 15.7088C7.18208 15.8996 7.55766 16 7.93996 16C8.32225 16 8.69783 15.8996 9.02911 15.7088C9.36038 15.518 9.63571 15.2435 9.82753 14.9128C10.0291 14.5653 9.91082 14.1202 9.56332 13.9186C9.21583 13.717 8.77072 13.8353 8.56915 14.1828C8.50521 14.2931 8.41343 14.3845 8.30301 14.4482C8.19258 14.5118 8.06739 14.5452 7.93996 14.5452C7.81253 14.5452 7.68733 14.5118 7.57691 14.4482C7.46648 14.3845 7.37471 14.2931 7.31077 14.1828Z" fill="white"/>
</svg>
