<svg width="13" height="16" viewBox="0 0 13 16" fill="none" xmlns="http://www.w3.org/2000/svg">
  <path fill-rule="evenodd" clip-rule="evenodd" d="M1.54725 0C1.17759 0 0.87793 0.299664 0.87793 0.669317V15.3307C0.87793 15.7003 1.17759 16 1.54725 16H4.79437C5.16402 16 5.46368 15.7003 5.46368 15.3307V0.669317C5.46368 0.299664 5.16402 0 4.79437 0H1.54725ZM2.21656 14.6614V1.33863H4.12505V14.6614H2.21656ZM8.65286 0C8.28321 0 7.98354 0.299664 7.98354 0.669317V15.3307C7.98354 15.7003 8.28321 16 8.65286 16H11.9C12.2696 16 12.5693 15.7003 12.5693 15.3307V0.669317C12.5693 0.299664 12.2696 0 11.9 0H8.65286ZM9.32218 14.6614V1.33863H11.2307V14.6614H9.32218Z" fill="#C84461"/>
</svg>
