<svg width="20" height="20" viewBox="0 0 20 20" fill="none" xmlns="http://www.w3.org/2000/svg">
  <g opacity="0.7">
    <path fill-rule="evenodd" clip-rule="evenodd" d="M18.3333 1.66667H1.66667L1.66667 18.3333H18.3333V1.66667ZM1.66667 0C0.746192 0 0 0.746192 0 1.66667V18.3333C0 19.2538 0.746192 20 1.66667 20H18.3333C19.2538 20 20 19.2538 20 18.3333V1.66667C20 0.746192 19.2538 0 18.3333 0H1.66667Z" fill="white"/>
    <path d="M7.5 12.4997C7.5 11.5792 8.24619 10.833 9.16667 10.833H15C15.9205 10.833 16.6667 11.5792 16.6667 12.4997V14.9997C16.6667 15.9201 15.9205 16.6663 15 16.6663H9.16667C8.24619 16.6663 7.5 15.9201 7.5 14.9997V12.4997Z" fill="white"/>
  </g>
</svg>
