<svg width="24" height="24" viewBox="0 0 24 24" fill="none" xmlns="http://www.w3.org/2000/svg">
<path fill-rule="evenodd" clip-rule="evenodd" d="M0 12C0 5.383 5.383 0 12 0C18.6165 0 24 5.383 24 12C24 18.617 18.6165 24 12 24C5.383 24 0 18.617 0 12ZM2 12C2 17.514 6.486 22 12 22C17.514 22 22 17.514 22 12C22 6.486 17.514 2 12 2C6.486 2 2 6.486 2 12ZM13 11H16C16.552 11 17 11.448 17 12C17 12.552 16.552 13 16 13H13V16C13 16.552 12.552 17 12 17C11.448 17 11 16.552 11 16V13H8.00005C7.44805 13 7.00005 12.552 7.00005 12C7.00005 11.448 7.44805 11 8.00005 11H11V7.99999C11 7.44799 11.448 6.99999 12 6.99999C12.552 6.99999 13 7.44799 13 7.99999V11Z" fill="#C84461"/>
</svg>
