<svg width="24" height="24" viewBox="0 0 24 24" fill="none" xmlns="http://www.w3.org/2000/svg">
  <path fill-rule="evenodd" clip-rule="evenodd"
    d="M16.5 2.625L16.5 2.0625C16.5 0.925218 17.4252 -2.87393e-07 18.5625 -2.37681e-07L21.9375 -9.01547e-08C23.0748 -4.04426e-08 24 0.925219 24 2.0625L24 5.4375C24 6.57478 23.0748 7.5 21.9375 7.5L18.5625 7.5C17.4252 7.5 16.5 6.57478 16.5 5.4375L16.5 4.875L1.125 4.875C0.503671 4.875 -1.91077e-07 4.37133 -1.63918e-07 3.75C-1.36759e-07 3.12867 0.503672 2.625 1.125 2.625L16.5 2.625ZM21.75 5.25L21.75 2.25L18.75 2.25L18.75 5.25L21.75 5.25ZM24 12C24 11.3787 23.4963 10.875 22.875 10.875L15.75 10.875L15.75 10.3125C15.75 9.17522 14.8248 8.25 13.6875 8.25L10.3125 8.25C9.17522 8.25 8.25 9.17522 8.25 10.3125L8.25 10.875L1.125 10.875C0.503671 10.875 -4.97378e-07 11.3787 -5.24537e-07 12C-5.51696e-07 12.6213 0.503671 13.125 1.125 13.125L8.25 13.125L8.25 13.6875C8.25 14.8248 9.17522 15.75 10.3125 15.75L13.6875 15.75C14.8248 15.75 15.75 14.8248 15.75 13.6875L15.75 13.125L22.875 13.125C23.4963 13.125 24 12.6213 24 12ZM10.5 10.5L13.5 10.5L13.5 13.5L10.5 13.5L10.5 10.5ZM7.5 21.9375L7.5 21.375L22.875 21.375C23.4963 21.375 24 20.8713 24 20.25C24 19.6287 23.4963 19.125 22.875 19.125L7.5 19.125L7.5 18.5625C7.5 17.4252 6.57478 16.5 5.4375 16.5L2.0625 16.5C0.925218 16.5 -7.6168e-07 17.4252 -8.11393e-07 18.5625L-9.58919e-07 21.9375C-1.00863e-06 23.0748 0.925218 24 2.0625 24L5.4375 24C6.57478 24 7.5 23.0748 7.5 21.9375ZM2.25 18.75L5.25 18.75L5.25 21.75L2.25 21.75L2.25 18.75Z"
    fill="#F4D8E9" />
</svg>