<svg width="28" height="28" viewBox="0 0 28 28" fill="none" xmlns="http://www.w3.org/2000/svg">
<g clip-path="url(#clip0)">
<path fill-rule="evenodd" clip-rule="evenodd" d="M26.8333 0H1.16667C0.522667 0 0 0.522667 0 1.16667V19.8333C0 20.4773 0.522667 21 1.16667 21H26.8333C27.4773 21 28 20.4773 28 19.8333V1.16667C28 0.522667 27.4773 0 26.8333 0ZM25.6667 18.6667H2.33333V2.33333H25.6667V18.6667ZM26.8333 23.9167H7V23.3334C7 22.6894 6.47733 22.1667 5.83333 22.1667C5.18933 22.1667 4.66667 22.6894 4.66667 23.3334V23.9167H1.16667C0.522667 23.9167 0 24.4394 0 25.0834C0 25.7274 0.522667 26.25 1.16667 26.25H4.66667V26.8334C4.66667 27.4774 5.18933 28 5.83333 28C6.47733 28 7 27.4774 7 26.8334V26.25H26.8333C27.4773 26.25 28 25.7274 28 25.0834C28 24.4394 27.4773 23.9167 26.8333 23.9167ZM22.1563 12.2991L20.4303 10.5732L22.1563 8.84716C22.4738 8.52959 22.4738 8.01411 22.1563 7.69655C21.8386 7.37893 21.3232 7.37893 21.0056 7.69655L19.2796 9.42251L17.5537 7.69655C17.2361 7.37893 16.7206 7.37893 16.403 7.69655C16.0854 8.01411 16.0854 8.52959 16.403 8.84716L18.129 10.5732L16.403 12.2991C16.0854 12.6167 16.0854 13.1322 16.403 13.4498C16.7206 13.7674 17.2361 13.7674 17.5537 13.4498L19.2796 11.7238L21.0056 13.4498C21.3232 13.7674 21.8386 13.7674 22.1563 13.4498C22.4738 13.1322 22.4738 12.6167 22.1563 12.2991ZM12.8365 7.72049C12.53 7.38206 12.0316 7.38206 11.7251 7.72049L8.35086 11.4407L6.94157 9.88717C6.63507 9.54875 6.13671 9.54875 5.83021 9.88717C5.52328 10.2256 5.52328 10.7743 5.83021 11.1127L7.79515 13.2794C7.94841 13.4488 8.14963 13.5333 8.35086 13.5333C8.55204 13.5333 8.75327 13.4488 8.90652 13.2794L12.8365 8.946C13.1434 8.60753 13.1434 8.05891 12.8365 7.72049Z" fill="white"/>
</g>
<defs>
<clipPath id="clip0">
<rect width="28" height="28" fill="white"/>
</clipPath>
</defs>
</svg>
