<svg width="20" height="20" viewBox="0 0 20 20" fill="none" xmlns="http://www.w3.org/2000/svg">
<g opacity="0.5">
<path fill-rule="evenodd" clip-rule="evenodd" d="M0 10C0 4.48588 4.48588 0 10 0C15.5141 0 20 4.48588 20 10C20 15.5137 15.5141 20 10 20C4.48588 20 0 15.5137 0 10ZM10.8333 16.6667V18.2912C15.0382 17.8717 18.3333 14.3138 18.3333 10C18.3333 5.40507 14.5949 1.66667 10 1.66667C5.40507 1.66667 1.66667 5.40507 1.66667 10C1.66667 14.3138 4.96175 17.8717 9.16667 18.2912V16.6667C9.16667 16.2067 9.54 15.8333 10 15.8333C10.46 15.8333 10.8333 16.2067 10.8333 16.6667ZM6.25 8.33333C6.25 6.26587 7.93254 4.58333 10 4.58333C12.0675 4.58333 13.75 6.26587 13.75 8.33333C13.75 10.1145 12.5012 11.6099 10.8333 11.9899V13.3333C10.8333 13.7933 10.46 14.1667 10 14.1667C9.54 14.1667 9.16667 13.7933 9.16667 13.3333V11.25C9.16667 10.79 9.54 10.4167 10 10.4167C11.1487 10.4167 12.0833 9.48201 12.0833 8.33333C12.0833 7.18465 11.1487 6.25 10 6.25C8.85132 6.25 7.91667 7.18465 7.91667 8.33333C7.91667 8.79333 7.54333 9.16667 7.08333 9.16667C6.62333 9.16667 6.25 8.79333 6.25 8.33333Z" fill="#DFDAE7"/>
</g>
</svg>
