<svg width="60" height="52" viewBox="0 0 60 52" fill="none" xmlns="http://www.w3.org/2000/svg">
  <path d="M20.7696 0.615662H6.92318C4.99985 0.615662 3.36536 1.28881 2.01894 2.63472C0.673147 3.98089 0 5.61539 0 7.53885V21.3847C0 23.308 0.672768 24.9423 2.01894 26.2882C3.36523 27.634 5.00023 28.3074 6.92318 28.3074H15.0001C15.9613 28.3074 16.7788 28.6441 17.4519 29.317C18.1251 29.9895 18.4615 30.8072 18.4615 31.7692V32.9224C18.4615 35.4707 17.5599 37.6454 15.7572 39.4487C13.9543 41.251 11.7791 42.1525 9.23057 42.1525H6.92318C6.29778 42.1525 5.75711 42.3815 5.30018 42.8379C4.84363 43.2943 4.61516 43.8354 4.61516 44.4604V49.0763C4.61516 49.7003 4.84363 50.2424 5.30018 50.6989C5.75749 51.1552 6.29765 51.3843 6.92318 51.3843H9.2307C11.7309 51.3843 14.1168 50.8968 16.3885 49.9236C18.6602 48.9503 20.6252 47.6338 22.2839 45.975C23.9423 44.3162 25.2585 42.3515 26.232 40.0798C27.2054 37.8081 27.6922 35.4224 27.6922 32.9226V7.53834C27.6922 5.61488 27.0191 3.98051 25.6732 2.6346C24.3273 1.28868 22.6924 0.615662 20.7696 0.615662Z" fill="#382B4B"/>
  <path d="M57.9806 2.63472C56.6348 1.28881 55.0002 0.615662 53.0769 0.615662H39.231C37.3077 0.615662 35.6732 1.28881 34.3273 2.63472C32.9815 3.98102 32.3086 5.61539 32.3086 7.53885V21.3847C32.3086 23.308 32.9815 24.9423 34.3273 26.2882C35.6732 27.634 37.3078 28.3074 39.231 28.3074H47.3079C48.2691 28.3074 49.0873 28.6441 49.7603 29.317C50.4327 29.9899 50.7699 30.8072 50.7699 31.7692V32.9224C50.7699 35.4707 49.8683 37.6454 48.0652 39.4487C46.2624 41.251 44.0877 42.1525 41.5389 42.1525H39.231C38.6061 42.1525 38.065 42.3815 37.6085 42.8379C37.1517 43.2943 36.923 43.8354 36.923 44.4604V49.0763C36.923 49.7003 37.1517 50.2424 37.6085 50.6989C38.0648 51.1552 38.606 51.3843 39.231 51.3843H41.5389C44.0388 51.3843 46.4245 50.8968 48.6965 49.9236C50.9678 48.9503 52.9325 47.6338 54.5914 45.975C56.2502 44.3162 57.5672 42.351 58.54 40.0798C59.5132 37.8086 60.0003 35.4224 60.0003 32.9226V7.53834C60 5.61488 59.3274 3.98051 57.9806 2.63472Z" fill="#382B4B"/>
</svg>
