<svg width="18" height="20" viewBox="0 0 18 20" fill="none" xmlns="http://www.w3.org/2000/svg">
<path fill-rule="evenodd" clip-rule="evenodd" d="M13.8363 0.244078C13.5108 -0.0813593 12.9832 -0.0813593 12.6578 0.244078C12.3323 0.569515 12.3323 1.09715 12.6578 1.42259L14.5685 3.33335H4.91374C3.80867 3.33335 2.74886 3.77234 1.96746 4.55374C1.18606 5.33514 0.74707 6.39495 0.74707 7.50002V9.16669C0.74707 9.62693 1.12017 10 1.5804 10C2.04064 10 2.41374 9.62693 2.41374 9.16669V7.50002C2.41374 6.83698 2.67713 6.20109 3.14597 5.73225C3.61481 5.26341 4.2507 5.00002 4.91374 5.00002H14.5685L12.6578 6.91075C12.3323 7.23619 12.3323 7.76382 12.6578 8.08926C12.9832 8.4147 13.5108 8.4147 13.8363 8.08926L17.1631 4.76248C17.1923 4.73391 17.2194 4.70321 17.2442 4.67063C17.3506 4.53068 17.4137 4.35606 17.4137 4.16669C17.4137 4.0327 17.3821 3.9061 17.3259 3.79394C17.2979 3.73796 17.2633 3.68448 17.2219 3.63468C17.2039 3.613 17.1848 3.59225 17.1647 3.57251L13.8363 0.244078Z" fill="#C84461"/>
<path fill-rule="evenodd" clip-rule="evenodd" d="M17.3786 10.8333C17.3786 10.3731 17.0055 10 16.5452 10C16.085 10 15.7119 10.3731 15.7119 10.8333V12.5C15.7119 13.163 15.4485 13.7989 14.9797 14.2678C14.5108 14.7366 13.8749 15 13.2119 15H3.55709L5.46783 13.0892C5.79327 12.7638 5.79327 12.2362 5.46783 11.9107C5.1424 11.5853 4.61476 11.5853 4.28932 11.9107L0.955992 15.2441C0.875458 15.3246 0.814854 15.4175 0.774178 15.5167C0.734046 15.6143 0.711914 15.7212 0.711914 15.8333C0.711914 16.0551 0.798531 16.2566 0.939779 16.4059C0.945705 16.4122 0.951728 16.4184 0.957845 16.4244L4.28932 19.7559C4.61476 20.0814 5.1424 20.0814 5.46783 19.7559C5.79327 19.4305 5.79327 18.9028 5.46783 18.5774L3.5571 16.6667H13.2119C14.317 16.6667 15.3768 16.2277 16.1582 15.4463C16.9396 14.6649 17.3786 13.6051 17.3786 12.5V10.8333Z" fill="#C84461"/>
</svg>

