<svg width="24" height="24" viewBox="0 0 24 24" fill="none" xmlns="http://www.w3.org/2000/svg">
<path fill-rule="evenodd" clip-rule="evenodd" d="M24 12C24 18.6165 18.617 24 12 24C5.383 24 0 18.6165 0 12C0 5.3835 5.383 0 12 0C18.617 0 24 5.3835 24 12ZM2 12C2 17.514 6.486 22 12 22C17.514 22 22 17.514 22 12C22 6.486 17.514 2 12 2C6.486 2 2 6.486 2 12ZM14.8752 12.0032C14.8752 11.4902 14.6802 10.9767 14.2892 10.5857L11.0912 7.30221C10.7062 6.90671 10.0732 6.89821 9.67721 7.28371C9.28171 7.66821 9.27321 8.30221 9.65871 8.69771L12.8657 11.9907L9.65871 15.3022C9.27321 15.6977 9.28171 16.3312 9.67721 16.7162C10.0727 17.1017 10.7057 17.0932 11.0912 16.6977L14.2982 13.4047C14.6822 13.0202 14.8752 12.5127 14.8752 12.0032Z" fill="#C84461"/>
</svg>
