<svg width="24" height="24" viewBox="0 0 24 24" fill="none" xmlns="http://www.w3.org/2000/svg">
<path d="M15.2376 0.000112986C15.0928 -0.00217667 14.9496 0.0303637 14.82 0.0949936C14.6904 0.159623 14.5782 0.25445 14.4929 0.371486C14.4076 0.488523 14.3517 0.624342 14.3299 0.767503C14.3081 0.910665 14.3209 1.05698 14.3675 1.19412L15.6718 5.01969C15.7218 5.16552 15.8082 5.29614 15.9229 5.39914C16.0376 5.50213 16.1768 5.57408 16.3271 5.60813C16.4775 5.64217 16.634 5.6372 16.7819 5.59367C16.9298 5.55015 17.0641 5.46952 17.172 5.35945L17.7483 4.77613C20.0609 7.31874 21.7171 10.2631 22.1951 14.1322C22.2044 14.2542 22.2384 14.3731 22.2951 14.4815C22.3517 14.59 22.4297 14.6858 22.5245 14.7632C22.6192 14.8406 22.7287 14.898 22.8463 14.9318C22.9638 14.9657 23.0871 14.9753 23.2085 14.9601C23.3299 14.9449 23.4469 14.9052 23.5525 14.8435C23.6581 14.7817 23.7501 14.6991 23.8228 14.6008C23.8956 14.5024 23.9476 14.3903 23.9758 14.2712C24.0039 14.1522 24.0076 14.0286 23.9866 13.9081C23.4541 9.59797 21.5442 6.26952 19.0146 3.49299L19.7109 2.78789C19.8191 2.67821 19.8975 2.54269 19.9386 2.3942C19.9797 2.24572 19.9821 2.08919 19.9457 1.93949C19.9092 1.7898 19.8351 1.6519 19.7304 1.53889C19.6257 1.42589 19.4938 1.34153 19.3473 1.29384L15.505 0.0433548C15.4185 0.01559 15.3284 0.00101235 15.2376 0.000112986ZM11.7986 1.39356V1.39444C11.6553 1.40161 11.5159 1.44275 11.3917 1.51446L3.56761 6.03367C3.36024 6.15349 3.2089 6.35072 3.14685 6.58205C3.0848 6.81337 3.11711 7.05986 3.23668 7.26738L11.3688 21.3563C11.4888 21.5635 11.6861 21.7146 11.9174 21.7765C12.1487 21.8384 12.3951 21.806 12.6025 21.6863C15.2112 20.1802 17.8224 18.6732 20.431 17.1671C20.6385 17.0471 20.7898 16.8497 20.8517 16.6182C20.9136 16.3866 20.881 16.14 20.7611 15.9325C17.7489 10.7152 15.6421 7.06536 12.6299 1.84804C12.5469 1.70277 12.4253 1.58337 12.2785 1.50313C12.1318 1.42289 11.9656 1.38496 11.7986 1.39356ZM11.7412 3.92364C14.0606 7.94115 16.0005 11.3034 18.2919 15.2724L12.0324 18.8862L5.47819 7.53919L11.7412 3.92364ZM0.8725 8.26459C0.746052 8.26897 0.621931 8.29984 0.508172 8.35523C0.394412 8.41061 0.293548 8.48926 0.212109 8.58609C0.130669 8.68292 0.0704682 8.79577 0.0354024 8.91733C0.000336669 9.0389 -0.00881256 9.16648 0.00854692 9.29181C0.541048 13.6019 2.45266 16.9313 4.98312 19.7078L4.28772 20.412C4.17931 20.5217 4.10076 20.6573 4.05956 20.8058C4.01834 20.9544 4.01584 21.1111 4.05228 21.2609C4.08873 21.4108 4.1629 21.5488 4.26775 21.6619C4.3726 21.7749 4.50464 21.8593 4.6513 21.9069L8.49365 23.1574C8.65334 23.2099 8.82451 23.2169 8.98793 23.1774C9.15135 23.138 9.30053 23.0538 9.4187 22.9342C9.53688 22.8147 9.61938 22.6645 9.65691 22.5007C9.69444 22.3368 9.68553 22.1657 9.63117 22.0067L8.32333 18.1811C8.25961 17.9942 8.13641 17.8332 7.97258 17.723C7.80875 17.6127 7.6133 17.5591 7.41613 17.5704C7.19268 17.5842 6.9823 17.6804 6.82575 17.8404L6.24949 18.4247C3.93714 15.8831 2.28063 12.9409 1.80264 9.07207C1.77843 8.84481 1.66902 8.63516 1.49643 8.48533C1.32385 8.33551 1.10091 8.25663 0.8725 8.26459Z" fill="white"/>
</svg>
