<svg width="20" height="20" viewBox="0 0 20 20" fill="none" xmlns="http://www.w3.org/2000/svg">
  <path fill-rule="evenodd" clip-rule="evenodd" d="M4.41504 1.64276H15.585C16.0521 1.64276 16.4308 1.27502 16.4308 0.821382C16.4308 0.367745 16.0521 0 15.585 0H4.41504C3.94791 0 3.56924 0.367745 3.56924 0.821382C3.56924 1.27502 3.94795 1.64276 4.41504 1.64276ZM16.8738 4.56325H3.12614C2.65905 4.56325 2.28034 4.19551 2.28034 3.74187C2.28034 3.28823 2.65901 2.92048 3.12614 2.92048H16.8738C17.3409 2.92048 17.7196 3.28823 17.7196 3.74187C17.7196 4.19551 17.3409 4.56325 16.8738 4.56325ZM2.94062 5.84093H17.0594C18.8324 5.84093 20.2092 7.35826 19.9737 9.07358L18.8137 17.5221C18.6198 18.9347 17.3669 20 15.8994 20H4.10058C2.63312 20 1.38016 18.9347 1.18627 17.5221L0.0262732 9.07358C-0.208981 7.36025 1.16581 5.84093 2.94062 5.84093ZM17.137 17.305L18.297 8.85646C18.3976 8.12371 17.8105 7.4837 17.0594 7.4837H2.94062C2.19072 7.4837 1.60224 8.12261 1.70298 8.85646L2.86297 17.305C2.94534 17.9049 3.47739 18.3572 4.10058 18.3572H15.8994C16.5226 18.3572 17.0546 17.9048 17.137 17.305ZM9.99999 9.62547C12.5096 9.62547 13.8941 12.4543 12.3393 14.3442C12.8068 14.5757 13.2453 14.8808 13.6359 15.2601C13.9662 15.5808 13.9662 16.1009 13.6359 16.4217C13.3056 16.7425 12.77 16.7425 12.4397 16.4217C11.0945 15.1153 8.90548 15.1153 7.56025 16.4217C7.22994 16.7425 6.69439 16.7425 6.36408 16.4217C6.03382 16.101 6.03382 15.5809 6.36408 15.2601C6.75468 14.8808 7.19317 14.5757 7.66066 14.3442C6.10543 12.4538 7.49089 9.62547 9.99999 9.62547ZM11.3022 12.5329C11.3022 11.8356 10.718 11.2682 9.99999 11.2682C9.28194 11.2682 8.69773 11.8355 8.69773 12.5329C8.69773 13.2302 9.28194 13.7975 9.99999 13.7975C10.718 13.7975 11.3022 13.2302 11.3022 12.5329Z" fill="#DD2678"/>
</svg>
