<svg width="20" height="20" viewBox="0 0 20 20" fill="none" xmlns="http://www.w3.org/2000/svg">
  <path d="M19.7337 5.13139L14.8687 0.266303C14.6982 0.0958182 14.467 6.06061e-05 14.2259 6.06061e-05H11.8193C11.819 6.06061e-05 11.8185 0 11.8182 0H4.54545C4.54509 0 4.54467 6.06061e-05 4.54424 6.06061e-05H0.909091C0.40703 6.06061e-05 0 0.407091 0 0.909152V19.0909C0 19.593 0.40703 20 0.909091 20H4.54545H15.4545H19.0909C19.593 20 20 19.593 20 19.0909V5.77418C20 5.53309 19.9042 5.30182 19.7337 5.13139ZM5.45455 1.81824H10.9091V6.66667H5.45455V1.81824ZM5.45455 18.1818V13.3333H14.5455V18.1818H5.45455ZM18.1818 18.1818H16.3636V12.4242C16.3636 11.9222 15.9566 11.5152 15.4545 11.5152H4.54545C4.04339 11.5152 3.63636 11.9222 3.63636 12.4242V18.1818H1.81818V1.81824H3.63636V7.57576C3.63636 8.07782 4.04339 8.48485 4.54545 8.48485H11.8182C12.3202 8.48485 12.7273 8.07782 12.7273 7.57576V1.81824H13.8493L18.1818 6.15073V18.1818Z" fill="#C84461"/>
</svg>
