<svg width="20" height="20" viewBox="0 0 20 20" fill="none" xmlns="http://www.w3.org/2000/svg">
  <path fill-rule="evenodd" clip-rule="evenodd"
    d="M2.43903 9.02439C2.43903 5.38739 5.38739 2.43903 9.02439 2.43903C12.6614 2.43903 15.6098 5.38739 15.6098 9.02439C15.6098 10.7925 14.913 12.3979 13.779 13.5808C13.7428 13.6096 13.7078 13.6408 13.6743 13.6743C13.6408 13.7078 13.6097 13.7427 13.5809 13.7789C12.3979 14.9129 10.7925 15.6098 9.02439 15.6098C5.38739 15.6098 2.43903 12.6614 2.43903 9.02439ZM14.4851 16.2097C12.969 17.3637 11.0767 18.0488 9.02439 18.0488C4.04036 18.0488 0 14.0084 0 9.02439C0 4.04036 4.04036 0 9.02439 0C14.0084 0 18.0488 4.04036 18.0488 9.02439C18.0488 11.0767 17.3637 12.969 16.2098 14.4851L19.6429 17.9182C20.1191 18.3944 20.1191 19.1666 19.6429 19.6428C19.1666 20.1191 18.3945 20.1191 17.9182 19.6428L14.4851 16.2097Z"
    fill="#DFDAE7" />
</svg>