<svg width="20" height="20" viewBox="0 0 20 20" fill="none" xmlns="http://www.w3.org/2000/svg">
  <path fill-rule="evenodd" clip-rule="evenodd" d="M13.75 2.1875L13.75 1.71875C13.75 0.771015 14.521 -2.39494e-07 15.4688 -1.98067e-07L18.2813 -7.51289e-08C19.229 -3.37022e-08 20 0.771016 20 1.71875L20 4.53125C20 5.47898 19.229 6.25 18.2812 6.25L15.4688 6.25C14.521 6.25 13.75 5.47898 13.75 4.53125L13.75 4.0625L0.937502 4.0625C0.419729 4.0625 1.74812e-06 3.64277 1.77075e-06 3.125C1.79338e-06 2.60723 0.419729 2.1875 0.937502 2.1875L13.75 2.1875ZM18.125 4.375L18.125 1.875L15.625 1.875L15.625 4.375L18.125 4.375ZM20 10C20 9.48223 19.5803 9.0625 19.0625 9.0625L13.125 9.0625L13.125 8.59375C13.125 7.64602 12.354 6.875 11.4063 6.875L8.59375 6.875C7.64602 6.875 6.875 7.64602 6.875 8.59375L6.875 9.0625L0.937502 9.0625C0.419727 9.0625 1.49287e-06 9.48223 1.47023e-06 10C1.4476e-06 10.5178 0.419727 10.9375 0.937501 10.9375L6.875 10.9375L6.875 11.4062C6.875 12.354 7.64602 13.125 8.59375 13.125L11.4063 13.125C12.354 13.125 13.125 12.354 13.125 11.4062L13.125 10.9375L19.0625 10.9375C19.5803 10.9375 20 10.5178 20 10ZM8.75 11.25L8.75 8.75L11.25 8.75L11.25 11.25L8.75 11.25ZM6.25 18.2812L6.25 17.8125L19.0625 17.8125C19.5803 17.8125 20 17.3928 20 16.875C20 16.3572 19.5803 15.9375 19.0625 15.9375L6.25 15.9375L6.25 15.4687C6.25 14.521 5.47899 13.75 4.53125 13.75L1.71875 13.75C0.771016 13.75 1.27261e-06 14.521 1.23119e-06 15.4687L1.10825e-06 18.2812C1.06682e-06 19.229 0.771016 20 1.71875 20L4.53125 20C5.47898 20 6.25 19.229 6.25 18.2812ZM1.875 15.625L4.375 15.625L4.375 18.125L1.875 18.125L1.875 15.625Z" fill="white"/>
</svg>
