<svg width="19" height="20" viewBox="0 0 19 20" fill="none" xmlns="http://www.w3.org/2000/svg">
  <g opacity="0.7">
    <path d="M15.0603 14.1466C14.2972 14.1466 13.6095 14.4428 13.0874 14.9197L5.93375 10.748C5.98895 10.5221 6.02411 10.2862 6.02411 10.0452C6.02411 9.80424 5.98895 9.56831 5.93375 9.34241L13.0121 5.21086C13.5492 5.71288 14.2671 6.02411 15.0603 6.02411C16.7219 6.02411 18.0723 4.67372 18.0723 3.01206C18.0723 1.35039 16.7219 0 15.0603 0C13.3986 0 12.0482 1.35039 12.0482 3.01206C12.0482 3.25302 12.0834 3.48895 12.1386 3.71485L5.06025 7.84636C4.52312 7.34433 3.80521 7.0331 3.01206 7.0331C1.35039 7.0331 0 8.38349 0 10.0452C0 11.7068 1.35039 13.0572 3.01206 13.0572C3.80521 13.0572 4.52312 12.746 5.06025 12.244L12.2139 16.4157C12.1637 16.6265 12.1335 16.8474 12.1335 17.0733C12.1335 18.6898 13.4438 20 15.0603 20C16.6768 20 17.987 18.6898 17.987 17.0733C17.987 15.4568 16.6768 14.1466 15.0603 14.1466Z" fill="white"/>
  </g>
</svg>
