<svg width="17" height="18" viewBox="0 0 17 18" fill="none" xmlns="http://www.w3.org/2000/svg">
  <path d="M13.5542 12.7319C12.8675 12.7319 12.2485 12.9985 11.7786 13.4277L5.34037 9.6732C5.39006 9.46989 5.4217 9.25755 5.4217 9.04068C5.4217 8.82382 5.39006 8.61148 5.34037 8.40817L11.7109 4.68977C12.1943 5.14159 12.8404 5.4217 13.5542 5.4217C15.0497 5.4217 16.2651 4.20635 16.2651 2.71085C16.2651 1.21535 15.0497 0 13.5542 0C12.0587 0 10.8434 1.21535 10.8434 2.71085C10.8434 2.92772 10.875 3.14005 10.9247 3.34337L4.55423 7.06172C4.07081 6.6099 3.42469 6.32979 2.71085 6.32979C1.21535 6.32979 0 7.54514 0 9.04064C0 10.5361 1.21535 11.7515 2.71085 11.7515C3.42469 11.7515 4.07081 11.4714 4.55423 11.0196L10.9925 14.7741C10.9473 14.9638 10.9202 15.1626 10.9202 15.3659C10.9202 16.8208 12.0994 18 13.5542 18C15.0091 18 16.1883 16.8208 16.1883 15.3659C16.1883 13.9111 15.0091 12.7319 13.5542 12.7319Z" fill="#C84461"/>
</svg>
