<svg width="20" height="20" viewBox="0 0 20 20" fill="none" xmlns="http://www.w3.org/2000/svg">
  <path fill-rule="evenodd" clip-rule="evenodd" d="M10 20C15.5228 20 20 15.5228 20 10C20 4.47715 15.5228 0 10 0C4.47715 0 0 4.47715 0 10C0 15.5228 4.47715 20 10 20ZM7.2933 5.66671V15H5.79997V6.76004C6.07997 6.46671 6.3333 6.12004 6.4533 5.66671H7.2933ZM11.911 5.66671H13.4843L11.8577 10.24L13.6843 15H12.0843L10.9243 11.5867L9.83101 15H8.25768L10.0843 10.24L8.40434 5.66671H10.0043L10.991 8.78671L11.911 5.66671Z" fill="#DD2678"/>
</svg>
