<svg width="21" height="20" viewBox="0 0 21 20" fill="none" xmlns="http://www.w3.org/2000/svg">
  <path d="M12.3162 5.64211L12.3162 5.64214C12.6873 6.3938 13.4045 6.91504 14.2343 7.0356C14.2343 7.03561 14.2344 7.03561 14.2344 7.03562L18.822 7.70251L15.5026 10.9386L15.5026 10.9386C14.9023 11.5239 14.6283 12.367 14.7699 13.1933L14.77 13.1933L15.5531 17.7615L11.4498 15.6047C10.7077 15.2146 9.82111 15.2146 9.07893 15.6048C9.07891 15.6048 9.07889 15.6048 9.07887 15.6048L4.97607 17.7615L5.75959 13.1937C5.7596 13.1937 5.7596 13.1937 5.7596 13.1937C5.9014 12.3671 5.62737 11.5239 5.027 10.9385L5.02693 10.9385L1.70734 7.70254L6.29483 7.03568L6.29485 7.03568C7.12454 6.91505 7.84184 6.39394 8.21295 5.64203L8.21296 5.64201L10.2644 1.48527L12.3162 5.64211ZM4.46424 18.4658L4.46427 18.4658L4.46424 18.4658ZM16.2443 18.1248L16.2442 18.1248L16.2443 18.1248ZM10.2644 0.614614L10.2644 0.614576L10.2644 0.614614Z" stroke="#C84461" stroke-width="2"/>
</svg>
