<svg width="42" height="40" viewBox="0 0 42 40" fill="none" xmlns="http://www.w3.org/2000/svg">
  <path d="M19.6594 0.718199C19.8727 0.278416 20.3128 1.94868e-08 20.7947 1.94868e-08C21.2766 -8.5045e-05 21.7168 0.278331 21.9301 0.718114L26.8683 10.9001C27.3327 11.8575 28.2302 12.5212 29.2685 12.6747L40.3097 14.3082C40.7866 14.3788 41.1828 14.7187 41.3318 15.1852C41.4806 15.6516 41.3566 16.1637 41.0114 16.5061L33.0226 24.4325C32.2713 25.1779 31.9286 26.2517 32.1058 27.3039L33.9908 38.4939C34.0722 38.9773 33.877 39.4658 33.487 39.7539C33.0972 40.0423 32.5803 40.0802 32.1538 39.8519L22.2781 34.5689C21.3495 34.0721 20.2401 34.0721 19.3114 34.5691L9.43655 39.8519C9.00995 40.0801 8.49307 40.0419 8.10325 39.7537C7.71334 39.4654 7.51817 38.9768 7.59958 38.4935L9.48545 27.3044C9.66289 26.2518 9.32004 25.1779 8.56863 24.4323L0.579271 16.5062C0.234244 16.1638 0.109957 15.6517 0.2589 15.1853C0.407844 14.7189 0.804023 14.379 1.28094 14.3083L12.3218 12.6749C13.3601 12.5212 14.2576 11.8576 14.722 10.9L19.6594 0.718199Z" fill="#C84461"/>
</svg>
