<svg width="24" height="20" viewBox="0 0 24 20" fill="none" xmlns="http://www.w3.org/2000/svg">
  <g opacity="0.7">
    <path fill-rule="evenodd" clip-rule="evenodd" d="M22 2H2L2 18H22V2ZM2 0C0.895431 0 0 0.895431 0 2V18C0 19.1046 0.89543 20 2 20H22C23.1046 20 24 19.1046 24 18V2C24 0.895431 23.1046 0 22 0H2ZM5 11C5 10.4477 5.44772 10 6 10H13C13.5523 10 14 10.4477 14 11C14 11.5523 13.5523 12 13 12H6C5.44772 12 5 11.5523 5 11ZM11 14C10.4477 14 10 14.4477 10 15C10 15.5523 10.4477 16 11 16H18C18.5523 16 19 15.5523 19 15C19 14.4477 18.5523 14 18 14H11ZM16 11C16 10.4477 16.4477 10 17 10H18C18.5523 10 19 10.4477 19 11C19 11.5523 18.5523 12 18 12H17C16.4477 12 16 11.5523 16 11ZM6 14C5.44772 14 5 14.4477 5 15C5 15.5523 5.44772 16 6 16H7C7.55228 16 8 15.5523 8 15C8 14.4477 7.55228 14 7 14H6Z" fill="white"/>
  </g>
</svg>
