<svg width="20" height="20" viewBox="0 0 20 20" fill="none" xmlns="http://www.w3.org/2000/svg">
  <path fill-rule="evenodd" clip-rule="evenodd" d="M19.8295 8.17118C19.9396 8.76465 20 9.37541 20 10C20 10.6246 19.9396 11.2354 19.8295 11.8288C19.8291 11.8321 19.8287 11.8349 19.8279 11.8384C19.0733 15.8807 15.8807 19.0733 11.8384 19.8279L11.8333 19.8287L11.8288 19.8295C11.2354 19.9396 10.6246 20 10 20C9.37541 20 8.76465 19.9396 8.17078 19.8295C8.16793 19.8291 8.16467 19.8287 8.16162 19.8279C4.11926 19.0733 0.926717 15.8807 0.172119 11.8384L0.171269 11.8333L0.170492 11.8288C0.0604248 11.2354 0 10.6246 0 10C0 9.37541 0.0604248 8.76465 0.170898 8.17118C0.171305 8.16793 0.171712 8.16508 0.172526 8.16162C0.927124 4.11926 4.11967 0.926717 8.16203 0.172119C8.16473 0.1714 8.16758 0.170998 8.17018 0.170634L8.17118 0.170492C8.76465 0.0604248 9.37541 0 10 0C10.6246 0 11.2354 0.0604248 11.8288 0.170492C11.8321 0.170898 11.8349 0.171305 11.8384 0.172119C15.8807 0.926717 19.0733 4.11926 19.8279 8.16162L19.8287 8.16666L19.8295 8.17118ZM6.25 10C6.25 12.0679 7.93254 13.75 10 13.75C12.0679 13.75 13.75 12.0679 13.75 10C13.75 7.93213 12.0679 6.25 10 6.25C7.93254 6.25 6.25 7.93213 6.25 10ZM1.66667 10C1.66667 9.71883 1.68172 9.44092 1.70878 9.16667H4.65413C4.61202 9.43909 4.58333 9.71578 4.58333 10C4.58333 10.2842 4.61202 10.5609 4.65413 10.8333H1.70878C1.68172 10.5591 1.66667 10.2812 1.66667 10ZM18.2912 9.16667H15.3459C15.388 9.43909 15.4167 9.71578 15.4167 10C15.4167 10.2842 15.3884 10.5609 15.3459 10.8333H18.2912C18.3183 10.5591 18.3333 10.2812 18.3333 10C18.3333 9.71883 18.3183 9.44092 18.2912 9.16667ZM17.9492 7.5H14.8004C14.2867 6.51794 13.4821 5.7133 12.5 5.19958V2.05078C15.0875 2.86662 17.1334 4.91252 17.9492 7.5ZM10.8333 4.65413V1.70878C10.5591 1.68172 10.2812 1.66667 10 1.66667C9.71883 1.66667 9.44092 1.68172 9.16667 1.70878V4.65413C9.43909 4.61202 9.71578 4.58333 10 4.58333C10.2842 4.58333 10.5609 4.61202 10.8333 4.65413ZM7.5 2.05078V5.19958C6.51794 5.7133 5.7133 6.51794 5.19958 7.5H2.05078C2.86662 4.91252 4.91252 2.86662 7.5 2.05078ZM5.19958 12.5H2.05078C2.86662 15.0875 4.91252 17.1334 7.5 17.9492V14.8004C6.51794 14.2867 5.7133 13.4821 5.19958 12.5ZM9.16667 18.2912V15.3459C9.43909 15.3884 9.71578 15.4167 10 15.4167C10.2842 15.4167 10.5609 15.388 10.8333 15.3459V18.2912C10.5591 18.3183 10.2812 18.3333 10 18.3333C9.71883 18.3333 9.44092 18.3183 9.16667 18.2912ZM12.5 14.8004V17.9492C15.0875 17.1334 17.1334 15.0875 17.9492 12.5H14.8004C14.2867 13.4821 13.4821 14.2867 12.5 14.8004Z" fill="#C84461"/>
</svg>
