<svg width="28" height="28" viewBox="0 0 28 28" fill="none" xmlns="http://www.w3.org/2000/svg">
  <path d="M2.33398 16.3333C2.33398 22.7662 7.56775 28 14.0007 28C20.4336 28 25.6673 22.7662 25.6673 16.3333C25.6673 13.0666 24.2796 9.94828 21.8996 7.75081L22.7507 6.89974L23.0924 7.24154C23.32 7.46969 23.6185 7.58333 23.9173 7.58333C24.2161 7.58333 24.5146 7.46969 24.7422 7.24154C25.1976 6.78581 25.1976 6.04753 24.7422 5.5918L22.4089 3.25846C21.9537 2.80302 21.2143 2.80302 20.7591 3.25846C20.3037 3.71419 20.3037 4.45247 20.7591 4.9082L21.1003 5.25L20.0126 6.33805C19.5463 6.05721 19.061 5.81653 18.5648 5.60461C18.6277 5.29671 18.6673 4.98283 18.6673 4.66667C18.6673 2.09351 16.5738 0 14.0007 0C11.4275 0 9.33398 2.09351 9.33398 4.66667C9.33398 4.98283 9.37358 5.29671 9.43652 5.60404C8.94035 5.81596 8.45557 6.05664 7.98873 6.3372L6.90039 5.25L7.24219 4.9082C7.69763 4.45247 7.69763 3.71419 7.24219 3.25846C6.78703 2.80302 6.04761 2.80302 5.59245 3.25846L3.25911 5.5918C2.80367 6.04753 2.80367 6.78581 3.25911 7.24154C3.71427 7.69698 4.45369 7.69698 4.90885 7.24154L5.25065 6.89974L6.10173 7.75024C3.72225 9.94629 2.33398 13.0655 2.33398 16.3333ZM23.2588 15.1667H22.1673C21.5233 15.1667 21.0007 15.6893 21.0007 16.3333C21.0007 16.9773 21.5233 17.5 22.1673 17.5H23.2528C22.7239 21.7135 19.3808 25.0566 15.1673 25.5855V24.5C15.1673 23.856 14.6447 23.3333 14.0007 23.3333C13.3566 23.3333 12.834 23.856 12.834 24.5V25.5855C8.62048 25.0566 5.27743 21.7135 4.74849 17.5H5.83398C6.47799 17.5 7.00065 16.9773 7.00065 16.3333C7.00065 15.6893 6.47799 15.1667 5.83398 15.1667H4.74251C5.06523 12.6302 6.42558 10.3006 8.51737 8.78019C9.35734 8.17436 10.2754 7.71464 11.2466 7.41471H11.2472C11.7642 7.25492 12.2962 7.14697 12.8334 7.08004V8.16667C12.8334 8.81067 13.3561 9.33333 14.0001 9.33333C14.6441 9.33333 15.1667 8.81067 15.1667 8.16667V7.08004C15.7039 7.14697 16.236 7.25492 16.7527 7.41471H16.7535C17.7245 7.71464 18.6434 8.17436 19.4799 8.77791C21.5752 10.3006 22.9361 12.6302 23.2588 15.1667ZM14.0007 2.33333C15.2875 2.33333 16.334 3.3798 16.334 4.66667C16.334 4.74471 16.3306 4.82247 16.3223 4.8988C15.561 4.74471 14.7834 4.66667 14.0007 4.66667C13.2179 4.66667 12.4403 4.74471 11.679 4.8988C11.6707 4.82247 11.6673 4.74471 11.6673 4.66667C11.6673 3.3798 12.7138 2.33333 14.0007 2.33333Z" fill="#DFDAE7"/>
  <path d="M16.6756 12.0076L13.1756 15.5076C12.7201 15.9633 12.7201 16.7016 13.1756 17.1573C13.4031 17.3855 13.7017 17.4991 14.0004 17.4991C14.2992 17.4991 14.5977 17.3855 14.8253 17.1573L18.3253 13.6573C18.7808 13.2016 18.7808 12.4633 18.3253 12.0076C17.8701 11.5522 17.1307 11.5522 16.6756 12.0076Z" fill="#DFDAE7"/>
</svg>
