<svg width="20" height="22" viewBox="0 0 20 22" fill="none" xmlns="http://www.w3.org/2000/svg">
  <path fill-rule="evenodd" clip-rule="evenodd" d="M10.9091 0.909091V1.81818C10.9091 2.32 10.5018 2.72727 10 2.72727C9.49818 2.72727 9.09091 2.32 9.09091 1.81818V0.909091C9.09091 0.407273 9.49818 0 10 0C10.5018 0 10.9091 0.407273 10.9091 0.909091ZM5.90909 14.2545C4.75227 13.1409 4.09091 11.6173 4.09091 10C4.09091 6.74182 6.74182 4.09091 10 4.09091C13.2582 4.09091 15.9091 6.74182 15.9091 10C15.9091 11.6173 15.2477 13.1409 14.0909 14.2545V16.8182C14.0909 17.6627 13.5091 18.3686 12.7273 18.5718V19.0909C12.7273 20.595 11.5041 21.8182 10 21.8182C8.49591 21.8182 7.27273 20.595 7.27273 19.0909V18.5718C6.49091 18.3686 5.90909 17.6627 5.90909 16.8182V14.2545ZM7.72727 15V16.8182H12.2727V15H7.72727ZM9.09091 19.0909C9.09091 19.5923 9.49864 20 10 20C10.5014 20 10.9091 19.5923 10.9091 19.0909V18.6364H9.09091V19.0909ZM14.0909 10C14.0909 7.74455 12.2555 5.90909 10 5.90909C7.74455 5.90909 5.90909 7.74455 5.90909 10C5.90909 11.2241 6.45182 12.3759 7.39773 13.1591C7.40252 13.1629 7.40647 13.1672 7.41043 13.1716L7.41044 13.1716C7.41362 13.1751 7.41681 13.1786 7.42045 13.1818H12.5795C12.5813 13.1802 12.583 13.1786 12.5846 13.177L12.5896 13.1716L12.5896 13.1716C12.5935 13.1672 12.5975 13.1629 12.6023 13.1591C13.5482 12.3759 14.0909 11.2241 14.0909 10ZM15.7855 2.9291L15.1427 3.57183C14.7877 3.92683 14.7877 4.50229 15.1427 4.85729C15.32 5.03501 15.5527 5.12365 15.7855 5.12365C16.0182 5.12365 16.2509 5.03501 16.4282 4.85729L17.0709 4.21456C17.4259 3.85956 17.4259 3.2841 17.0709 2.9291C16.7164 2.5741 16.14 2.5741 15.7855 2.9291ZM19.0909 10.9091H18.1818C17.68 10.9091 17.2727 10.5018 17.2727 10C17.2727 9.49818 17.68 9.09091 18.1818 9.09091H19.0909C19.5927 9.09091 20 9.49818 20 10C20 10.5018 19.5927 10.9091 19.0909 10.9091ZM3.57182 4.85729C3.74909 5.03501 3.98182 5.12365 4.21454 5.12365C4.44727 5.12365 4.68 5.03501 4.85727 4.85729C5.21227 4.50229 5.21227 3.92683 4.85727 3.57183L4.21454 2.9291C3.86 2.5741 3.28363 2.5741 2.92909 2.9291C2.57409 3.2841 2.57409 3.85956 2.92909 4.21456L3.57182 4.85729ZM0.909091 9.09091H1.81818C2.32 9.09091 2.72727 9.49818 2.72727 10C2.72727 10.5018 2.32 10.9091 1.81818 10.9091H0.909091C0.407273 10.9091 0 10.5018 0 10C0 9.49818 0.407273 9.09091 0.909091 9.09091Z" fill="#E7A957"/>
</svg>
