<svg width="19" height="20" viewBox="0 0 19 20" fill="none" xmlns="http://www.w3.org/2000/svg">
  <path fill-rule="evenodd" clip-rule="evenodd" d="M0.833333 3.33333C0.373332 3.33333 0 3.70667 0 4.16667C0 4.62667 0.373332 5 0.833333 5H1.66667V19.1667C1.66667 19.6267 2.04 20 2.5 20H15.8333C16.2933 20 16.6667 19.6267 16.6667 19.1667V10.3125V10V5H17.5C17.96 5 18.3333 4.62667 18.3333 4.16667C18.3333 3.70667 17.96 3.33333 17.5 3.33333H12.9167V0.833333C12.9167 0.373332 12.5433 0 12.0833 0H6.25C5.79 0 5.41667 0.373332 5.41667 0.833333V3.33333H0.833333ZM15 10V10.3125V18.3333H3.33333V5H15V10ZM7.08333 1.66667H11.25V3.33333H7.08333V1.66667ZM5.83333 9.58333V13.75C5.83333 14.21 6.20667 14.5833 6.66667 14.5833C7.12667 14.5833 7.5 14.21 7.5 13.75V9.58333C7.5 9.12333 7.12667 8.75 6.66667 8.75C6.20667 8.75 5.83333 9.12333 5.83333 9.58333ZM10.8333 13.75V9.58333C10.8333 9.12333 11.2067 8.75 11.6667 8.75C12.1267 8.75 12.5 9.12333 12.5 9.58333V13.75C12.5 14.21 12.1267 14.5833 11.6667 14.5833C11.2067 14.5833 10.8333 14.21 10.8333 13.75Z" fill="#C84461"/>
</svg>
