<svg width="20" height="20" viewBox="0 0 20 20" fill="none" xmlns="http://www.w3.org/2000/svg">
  <path fill-rule="evenodd" clip-rule="evenodd" d="M2.93056 2.93056C6.83816 -0.977165 13.1624 -0.976539 17.0694 2.93056C20.9771 6.8382 20.9765 13.1625 17.0694 17.0694C13.1618 20.9772 6.83757 20.9765 2.93056 17.0694C-0.977165 13.1618 -0.976539 6.83757 2.93056 2.93056ZM1.6446 10C1.6446 14.6071 5.39282 18.3554 9.99996 18.3554C14.6071 18.3554 18.3553 14.6071 18.3553 10C18.3553 5.39285 14.6071 1.64464 9.99996 1.64464C5.39282 1.64464 1.6446 5.39285 1.6446 10ZM9.99986 5.84198C11.9977 5.84198 13.1744 8.08658 12.0609 9.72659C13.3128 10.444 14.158 11.7936 14.1581 13.337C14.1581 13.7905 13.7904 14.1582 13.3369 14.1582C12.8834 14.1582 12.5157 13.7905 12.5157 13.337C12.5157 11.9498 11.3872 10.8213 9.99998 10.8213C8.61278 10.8213 7.48426 11.9498 7.48426 13.337C7.48426 13.7905 7.1166 14.1582 6.66307 14.1582C6.20953 14.1582 5.84187 13.7905 5.84187 13.337C5.84187 11.7937 6.68708 10.4442 7.93885 9.72671C6.82531 8.08693 8.00154 5.84198 9.99986 5.84198ZM10.8471 8.33157C10.8471 7.86443 10.467 7.48433 9.99986 7.48433C9.53264 7.48433 9.15258 7.86443 9.15258 8.33157C9.15258 8.79876 9.53268 9.17885 9.99986 9.17885C10.467 9.17885 10.8471 8.79876 10.8471 8.33157Z" fill="#F4D8E9"/>
</svg>
