<svg width="20" height="20" viewBox="0 0 20 20" fill="none" xmlns="http://www.w3.org/2000/svg">
  <path fill-rule="evenodd" clip-rule="evenodd" d="M5.83333 8.33333C7.21405 8.33333 8.33333 7.21405 8.33333 5.83333L8.33333 0.833333C8.33333 0.373096 7.96024 0 7.5 0C7.03976 0 6.66667 0.373096 6.66667 0.833333L6.66667 5.83333C6.66667 6.29357 6.29357 6.66667 5.83333 6.66667L0.833333 6.66667C0.373095 6.66667 0 7.03976 0 7.5C0 7.96024 0.373096 8.33333 0.833333 8.33333L5.83333 8.33333ZM14.1667 11.6667C12.786 11.6667 11.6667 12.786 11.6667 14.1667V19.1667C11.6667 19.6269 12.0398 20 12.5 20C12.9602 20 13.3333 19.6269 13.3333 19.1667V14.1667C13.3333 13.7064 13.7064 13.3333 14.1667 13.3333H19.1667C19.6269 13.3333 20 12.9602 20 12.5C20 12.0398 19.6269 11.6667 19.1667 11.6667H14.1667ZM14.1667 8.33333C12.786 8.33333 11.6667 7.21405 11.6667 5.83333V0.833333C11.6667 0.373096 12.0398 0 12.5 0C12.9602 0 13.3333 0.373095 13.3333 0.833333L13.3333 5.83333C13.3333 6.29357 13.7064 6.66667 14.1667 6.66667L19.1667 6.66667C19.6269 6.66667 20 7.03976 20 7.5C20 7.96024 19.6269 8.33333 19.1667 8.33333H14.1667ZM8.33333 14.1667C8.33333 12.786 7.21405 11.6667 5.83333 11.6667H0.833334C0.373096 11.6667 0 12.0398 0 12.5C0 12.9602 0.373096 13.3333 0.833334 13.3333H5.83333C6.29357 13.3333 6.66667 13.7064 6.66667 14.1667V19.1667C6.66667 19.6269 7.03976 20 7.5 20C7.96024 20 8.33333 19.6269 8.33333 19.1667V14.1667Z" fill="white"/>
</svg>
