<svg width="20" height="20" viewBox="0 0 20 20" fill="none" xmlns="http://www.w3.org/2000/svg">
  <g opacity="0.7">
    <path fill-rule="evenodd" clip-rule="evenodd" d="M2.5 0C1.11929 0 0 1.11929 0 2.5V7.5C0 7.96024 0.373096 8.33333 0.833333 8.33333C1.29357 8.33333 1.66667 7.96024 1.66667 7.5V2.5C1.66667 2.03976 2.03976 1.66667 2.5 1.66667H7.5C7.96024 1.66667 8.33333 1.29357 8.33333 0.833333C8.33333 0.373096 7.96024 0 7.5 0H2.5ZM17.5 20C18.8807 20 20 18.8807 20 17.5V12.5C20 12.0398 19.6269 11.6667 19.1667 11.6667C18.7064 11.6667 18.3333 12.0398 18.3333 12.5L18.3333 17.5C18.3333 17.9602 17.9602 18.3333 17.5 18.3333H12.5C12.0398 18.3333 11.6667 18.7064 11.6667 19.1667C11.6667 19.6269 12.0398 20 12.5 20H17.5ZM17.5 0C18.8807 0 20 1.11929 20 2.5V7.5C20 7.96024 19.6269 8.33333 19.1667 8.33333C18.7064 8.33333 18.3333 7.96024 18.3333 7.5L18.3333 2.5C18.3333 2.03976 17.9602 1.66667 17.5 1.66667L12.5 1.66667C12.0398 1.66667 11.6667 1.29357 11.6667 0.833333C11.6667 0.373096 12.0398 0 12.5 0H17.5ZM0 17.5C0 18.8807 1.11929 20 2.5 20H7.5C7.96024 20 8.33333 19.6269 8.33333 19.1667C8.33333 18.7064 7.96024 18.3333 7.5 18.3333L2.5 18.3333C2.03976 18.3333 1.66667 17.9602 1.66667 17.5L1.66667 12.5C1.66667 12.0398 1.29357 11.6667 0.833333 11.6667C0.373096 11.6667 0 12.0398 0 12.5V17.5Z" fill="white"/>
  </g>
</svg>
