<svg width="28" height="28" viewBox="0 0 120 89" fill="none" xmlns="http://www.w3.org/2000/svg">
<path fill-rule="evenodd" clip-rule="evenodd" d="M15.8376 0C7.09072 0 0 7.09072 0 15.8376V58.4772C0 67.224 7.09072 74.3147 15.8376 74.3147H73.6176L75.2342 67.0051H15.8376C11.1277 67.0051 7.30964 63.187 7.30964 58.4772V15.8376C7.30964 11.1277 11.1277 7.30964 15.8376 7.30964H88.934C93.6438 7.30964 97.4619 11.1277 97.4619 15.8376V29.8477H104.772V15.8376C104.772 7.09072 97.6809 0 88.934 0H15.8376Z" fill="white"/>
<path d="M63.3503 37.1576L42.0305 48.7312L42.0305 25.584L63.3503 37.1576Z" fill="#16131B"/>
<path fill-rule="evenodd" clip-rule="evenodd" d="M67.0051 37.1571C67.0051 38.4972 66.2717 39.7298 65.094 40.3692L43.7742 51.9428C42.6417 52.5576 41.2691 52.5305 40.1617 51.8716C39.0543 51.2127 38.3757 50.0194 38.3757 48.7307L38.3757 25.5835C38.3757 24.2949 39.0543 23.1015 40.1617 22.4426C41.2691 21.7837 42.6417 21.7567 43.7742 22.3715L65.094 33.9451C66.2717 34.5844 67.0051 35.8171 67.0051 37.1571ZM45.6853 31.7262L45.6853 42.5881L55.6897 37.1571L45.6853 31.7262Z" fill="white"/>
<path d="M84.9007 88.9339H116.114C118.261 88.9339 120 87.1952 120 85.0522V79.8545C120 72.998 116.431 66.9622 111.054 63.491C113.378 60.9518 114.798 57.5736 114.798 53.8698C114.798 45.9974 108.388 39.5938 100.508 39.5938C92.6282 39.5938 86.2181 45.9974 86.2181 53.8698C86.2181 57.5736 87.6377 60.9518 89.962 63.491C84.585 66.9622 81.0151 72.998 81.0151 79.8545V85.0522C81.0151 87.1952 82.7555 88.9339 84.9007 88.9339ZM93.9891 53.8698C93.9891 50.2783 96.9134 47.357 100.508 47.357C104.103 47.357 107.027 50.2783 107.027 53.8698C107.027 57.4603 104.103 60.3817 100.508 60.3817C96.9134 60.3817 93.9891 57.4603 93.9891 53.8698ZM88.7862 79.8545C88.7862 73.3983 94.0448 68.1449 100.508 68.1449C106.971 68.1449 112.229 73.3983 112.229 79.8545V81.1706H88.7862V79.8545Z" fill="white"/>
</svg>
