<svg width="18" height="16" viewBox="0 0 18 16" fill="none" xmlns="http://www.w3.org/2000/svg">
  <path fill-rule="evenodd" clip-rule="evenodd" d="M5.435 11.84H2.71996C1.74948 11.84 0.959961 11.0505 0.959961 10.08V5.92C0.959961 4.94952 1.74948 4.16 2.71996 4.16H5.435L10.6168 0.19744C10.7842 0.06936 10.9892 0 11.2 0H12.16C12.6902 0 13.12 0.4298 13.12 0.96V15.04C13.12 15.5702 12.6902 16 12.16 16H11.2C10.9892 16 10.7842 15.9306 10.6168 15.8026L5.435 11.84ZM11.2 13.8315V2.16852L6.71996 5.5944V10.4056L11.2 13.8315ZM4.79996 6.08H2.87996V9.92H4.79996V6.08ZM15.2773 12.4377C15.044 12.4377 14.8101 12.3531 14.6253 12.182C14.2363 11.8218 14.2129 11.2144 14.5732 10.8254C15.2869 10.0546 15.68 9.05118 15.68 8.00002C15.68 6.94886 15.2869 5.94546 14.5732 5.17466C14.2129 4.78562 14.2363 4.17822 14.6253 3.81802C15.0144 3.45773 15.6217 3.48117 15.982 3.87014C17.0253 4.99694 17.6 6.46366 17.6 8.00002C17.6 9.53638 17.0253 11.0031 15.982 12.1299C15.7928 12.3342 15.5354 12.4377 15.2773 12.4377Z" fill="white"/>
</svg>
