<svg width="21" height="16" viewBox="0 0 21 16" fill="none" xmlns="http://www.w3.org/2000/svg">
  <path fill-rule="evenodd" clip-rule="evenodd" d="M10.1368 15.8026L4.95498 11.84H2.23998C1.2695 11.84 0.47998 11.0505 0.47998 10.08V5.92C0.47998 4.94952 1.2695 4.16 2.23998 4.16H4.95498L10.1368 0.19744C10.3043 0.06936 10.5092 0 10.72 0H11.68C12.2102 0 12.64 0.4298 12.64 0.96V15.04C12.64 15.5702 12.2102 16 11.68 16H10.72C10.5092 16 10.3043 15.9306 10.1368 15.8026ZM10.72 13.8315V2.16852L6.23998 5.5944V10.4056L10.72 13.8315ZM4.31998 6.08H2.39998V9.92H4.31998V6.08ZM19.3212 4.76116C19.6961 4.38624 20.3039 4.38624 20.6788 4.76116C21.0537 5.13608 21.0537 5.74392 20.6788 6.11884L18.7976 8L20.6788 9.8812C21.0537 10.2561 21.0537 10.8639 20.6788 11.2388C20.4913 11.4263 20.2457 11.52 20 11.52C19.7543 11.52 19.5086 11.4263 19.3211 11.2388L17.44 9.35764L15.5588 11.2388C15.3713 11.4263 15.1257 11.52 14.88 11.52C14.6343 11.52 14.3886 11.4263 14.2012 11.2388C13.8263 10.8639 13.8263 10.2561 14.2012 9.88116L16.0823 8L14.2012 6.11884C13.8263 5.74392 13.8263 5.13612 14.2012 4.7612C14.5761 4.38628 15.1839 4.38628 15.5588 4.7612L17.44 6.64236L19.3212 4.76116Z" fill="white"/>
</svg>
