<svg width="21" height="16" viewBox="0 0 21 16" fill="none" xmlns="http://www.w3.org/2000/svg">
<path fill-rule="evenodd" clip-rule="evenodd" d="M1.76 11.84H4.47504L9.65688 15.8026C9.82428 15.9306 10.0292 16 10.24 16H11.2C11.7302 16 12.16 15.5702 12.16 15.04V0.96C12.16 0.4298 11.7302 0 11.2 0H10.24C10.0292 0 9.82428 0.06936 9.65684 0.19744L4.47504 4.16H1.76C0.78952 4.16 0 4.94952 0 5.92V10.08C0 11.0505 0.78952 11.84 1.76 11.84ZM10.24 2.16852V13.8315L5.76 10.4056V5.5944L10.24 2.16852ZM1.92 6.08H3.84V9.92H1.92V6.08ZM13.6654 12.182C13.8501 12.3531 14.084 12.4377 14.3174 12.4377C14.5755 12.4377 14.8328 12.3342 15.022 12.1299C16.0654 11.0031 16.64 9.53638 16.64 8.00002C16.64 6.46366 16.0654 4.99694 15.022 3.87014C14.6618 3.48117 14.0544 3.45773 13.6654 3.81802C13.2763 4.17822 13.253 4.78562 13.6132 5.17466C14.3269 5.94546 14.72 6.94886 14.72 8.00002C14.72 9.05118 14.3269 10.0546 13.6132 10.8254C13.253 11.2144 13.2763 11.8218 13.6654 12.182ZM17.5654 15.0234C17.378 15.2102 17.1328 15.3036 16.8875 15.3036C16.6414 15.3036 16.3953 15.2095 16.2078 15.0215C15.8334 14.6461 15.8342 14.0382 16.2096 13.6639C17.7252 12.1524 18.5599 10.1409 18.5599 7.99999C18.5599 5.85911 17.7252 3.84763 16.2096 2.33611C15.8342 1.96175 15.8334 1.35391 16.2078 0.978511C16.5821 0.603031 17.19 0.602271 17.5654 0.976631C19.4449 2.85099 20.4799 5.34527 20.4799 7.99999C20.4799 10.6547 19.4449 13.149 17.5654 15.0234Z" fill="#C84461"/>
</svg>

