<svg width="16" height="20" viewBox="0 0 16 20" fill="none" xmlns="http://www.w3.org/2000/svg">
<path d="M12.09 5.97172L10.8444 6.91484C10.9734 7.09023 11.3661 7.62402 11.3661 7.96465C11.3661 8.72078 10.7618 9.33594 10.019 9.33594C9.27617 9.33594 8.67188 8.72078 8.67188 7.96465C8.67188 7.70727 8.7493 7.39484 8.89574 7.06125C9.93684 4.68969 9.36297 1.97059 7.4677 0.295156C7.42617 0.258438 7.12363 0 7.12363 0H6.07867L6.0184 0.715703C5.89121 2.22609 4.6459 3.84027 3.32746 5.54922C1.69156 7.66965 0 9.8623 0 12.3828C0 16.5829 3.41707 20 7.61719 20C11.8173 20 15.2344 16.5829 15.2344 12.3828C15.2344 10.1907 13.681 8.01371 12.09 5.97172ZM7.61719 18.3984C6.79871 18.3984 6.13281 17.7331 6.13281 16.9152C6.13281 16.4154 6.63324 15.7324 7.07473 15.1299C7.29758 14.8258 7.51527 14.5287 7.69422 14.2307C8.46008 15.0236 9.10156 16.094 9.10156 16.9152C9.10156 17.7331 8.43566 18.3984 7.61719 18.3984ZM10.5699 17.667C10.6312 17.4264 10.6641 17.1746 10.6641 16.9152C10.6641 15.2103 9.20566 13.2605 7.83348 12.2915L7.63086 12.1484H6.5625V12.9297C6.5625 13.1854 6.13012 13.7755 5.81441 14.2064C5.23125 15.0022 4.57031 15.9041 4.57031 16.9152C4.57031 17.1746 4.60313 17.4264 4.66445 17.667C2.81516 16.6295 1.5625 14.6499 1.5625 12.3828C1.5625 10.395 3.08867 8.41676 4.56457 6.50363C5.63945 5.11039 6.67063 3.77371 7.20781 2.38172C7.94309 3.56184 8.06219 5.07289 7.465 6.43313C7.22898 6.9707 7.10934 7.48598 7.10934 7.96461C7.10937 9.58234 8.41461 10.8984 10.019 10.8984C11.1282 10.8984 12.0945 10.2694 12.5852 9.34641C13.228 10.3923 13.6719 11.4243 13.6719 12.3828C13.6719 14.6499 12.4192 16.6295 10.5699 17.667Z" fill="#E34F4F"/>
</svg>
