<svg width="20" height="15" viewBox="0 0 20 15" fill="none" xmlns="http://www.w3.org/2000/svg">
  <path
    d="M19.5879 2.28144C19.3575 1.38933 18.6819 0.686084 17.8252 0.445866C16.2602 0 9.99977 0 9.99977 0C9.99977 0 3.73963 0 2.17456 0.428961C1.33435 0.668925 0.642335 1.38945 0.411866 2.28144C0 3.91086 0 7.29005 0 7.29005C0 7.29005 0 10.6863 0.411866 12.2987C0.642579 13.1907 1.31787 13.8939 2.17469 14.1341C3.75611 14.5801 10 14.5801 10 14.5801C10 14.5801 16.2602 14.5801 17.8252 14.1511C18.682 13.9111 19.3575 13.2078 19.5882 12.3158C19.9999 10.6863 19.9999 7.30721 19.9999 7.30721C19.9999 7.30721 20.0164 3.91086 19.5879 2.28144ZM8.00661 10.4119V4.16823L13.2124 7.29005L8.00661 10.4119Z"
    fill="#C84461"/>
</svg>
