<svg width="28" height="28" viewBox="0 0 28 28" fill="none" xmlns="http://www.w3.org/2000/svg">
<path d="M26.8333 3.5H22.1667V1.16667C22.1667 0.522664 21.644 0 21 0C20.356 0 19.8333 0.522664 19.8333 1.16667V3.5H8.16667V1.16667C8.16667 0.522664 7.644 0 7 0C6.356 0 5.83333 0.522664 5.83333 1.16667V3.5H1.16667C0.522664 3.5 0 4.02266 0 4.66667V26.8333C0 27.4773 0.522664 28 1.16667 28H26.8333C27.4773 28 28 27.4773 28 26.8333V4.66667C28 4.02266 27.4773 3.5 26.8333 3.5ZM5.83333 5.83333V7C5.83333 7.644 6.356 8.16667 7 8.16667C7.644 8.16667 8.16667 7.644 8.16667 7V5.83333H19.8333V7C19.8333 7.644 20.356 8.16667 21 8.16667C21.644 8.16667 22.1667 7.644 22.1667 7V5.83333H25.6667V21H2.33333V5.83333H5.83333ZM2.33333 25.6667V23.3333H25.6667V25.6667H2.33333Z" fill="white"/>
</svg>
