<svg width="28" height="28" viewBox="0 0 28 28" fill="none" xmlns="http://www.w3.org/2000/svg">
<path d="M9.57308 21.2532C10.1518 20.5485 10.5 19.6479 10.5 18.6667C10.5 16.415 8.66775 14.5834 6.41667 14.5834C4.16558 14.5834 2.33333 16.415 2.33333 18.6667C2.33333 19.6479 2.68158 20.5485 3.26025 21.2532C1.31658 22.3575 0 24.4429 0 26.8334C0 27.4774 0.522667 28 1.16667 28C1.81067 28 2.33333 27.4774 2.33333 26.8334C2.33333 24.5817 4.16558 22.75 6.41667 22.75C8.66775 22.75 10.5 24.5817 10.5 26.8334C10.5 27.4774 11.0227 28 11.6667 28C12.3107 28 12.8333 27.4774 12.8333 26.8334C12.8333 24.4429 11.5168 22.3575 9.57308 21.2532ZM6.41667 20.4167C5.45183 20.4167 4.66667 19.6315 4.66667 18.6667C4.66667 17.7019 5.45183 16.9167 6.41667 16.9167C7.3815 16.9167 8.16667 17.7019 8.16667 18.6667C8.16667 19.6315 7.3815 20.4167 6.41667 20.4167Z" fill="#F4D8E9"/>
<path d="M24.7401 21.2532C25.3187 20.5485 25.667 19.6479 25.667 18.6667C25.667 16.415 23.8347 14.5834 21.5837 14.5834C19.3326 14.5834 17.5003 16.415 17.5003 18.6667C17.5003 19.6479 17.8486 20.5485 18.4272 21.2532C16.4836 22.3575 15.167 24.4429 15.167 26.8334C15.167 27.4774 15.6897 28 16.3337 28C16.9777 28 17.5003 27.4774 17.5003 26.8334C17.5003 24.5817 19.3326 22.75 21.5837 22.75C23.8347 22.75 25.667 24.5817 25.667 26.8334C25.667 27.4774 26.1897 28 26.8337 28C27.4777 28 28.0003 27.4774 28.0003 26.8334C28.0003 24.4429 26.6837 22.3575 24.7401 21.2532ZM21.5837 20.4167C20.6188 20.4167 19.8337 19.6315 19.8337 18.6667C19.8337 17.7019 20.6188 16.9167 21.5837 16.9167C22.5485 16.9167 23.3337 17.7019 23.3337 18.6667C23.3337 19.6315 22.5485 20.4167 21.5837 20.4167Z" fill="#F4D8E9"/>
<path d="M26.8333 4.08333H18.6667V1.16667C18.6667 0.522667 18.144 0 17.5 0H1.16667C0.522667 0 0 0.522667 0 1.16667V8.16667C0 8.47583 0.123083 8.77275 0.341833 8.9915L2.67517 11.3248C2.90325 11.5529 3.20133 11.6667 3.5 11.6667C3.79867 11.6667 4.09675 11.5529 4.32483 11.3248L6.31633 9.33333H9.33333V11.0833C9.33333 11.7273 9.856 12.25 10.5 12.25H21.6837L23.6752 14.2415C23.9032 14.4696 24.2013 14.5833 24.5 14.5833C24.7987 14.5833 25.0968 14.4696 25.3248 14.2415L27.6582 11.9082C27.8769 11.6894 28 11.3925 28 11.0833V5.25C28 4.606 27.4773 4.08333 26.8333 4.08333ZM9.33333 5.25V7H5.83333C5.52417 7 5.22725 7.12308 5.0085 7.34183L3.5 8.84975L2.33333 7.68308V2.33333H16.3333V4.08333H10.5C9.856 4.08333 9.33333 4.606 9.33333 5.25ZM25.6667 10.5997L24.5 11.7664L22.9915 10.2585C22.7728 10.0398 22.4758 9.91667 22.1667 9.91667H11.6667V8.16667V6.41667H17.5H25.6667V10.5997Z" fill="#F4D8E9"/>
<path d="M6.41667 24.5C5.77267 24.5 5.25 25.0227 5.25 25.6667V26.8333C5.25 27.4773 5.77267 28 6.41667 28C7.06067 28 7.58333 27.4773 7.58333 26.8333V25.6667C7.58333 25.0227 7.06067 24.5 6.41667 24.5Z" fill="#F4D8E9"/>
<path d="M22.1663 25.6666H20.9997C20.3557 25.6666 19.833 26.1893 19.833 26.8333C19.833 27.4773 20.3557 28 20.9997 28H22.1663C22.8103 28 23.333 27.4773 23.333 26.8333C23.333 26.1893 22.8103 25.6666 22.1663 25.6666Z" fill="#F4D8E9"/>
</svg>
