<svg width="28" height="28" viewBox="0 0 28 28" fill="none" xmlns="http://www.w3.org/2000/svg">
<path fill-rule="evenodd" clip-rule="evenodd" d="M14 0C6.2808 0 0 6.28023 0 14C0 21.7198 6.2808 28 14 28C21.7192 28 28 21.7198 28 14C28 6.28023 21.7192 0 14 0ZM17.4832 14.3466C17.4043 15.1467 17.0542 15.8924 16.478 16.4752C16.4393 16.5139 16.3985 16.5494 16.3576 16.5851L16.316 16.6216C16.3017 16.634 16.2878 16.647 16.2738 16.6599C16.2558 16.6768 16.2378 16.6936 16.2191 16.709C16.177 16.7434 16.133 16.7749 16.089 16.8063L16.0889 16.8064C16.0731 16.8177 16.0573 16.8289 16.0417 16.8403C16.0284 16.8499 16.0155 16.8598 16.0027 16.8697C15.9825 16.8851 15.9624 16.9005 15.9414 16.9144C15.8964 16.9442 15.85 16.9708 15.8036 16.9974L15.7657 17.0192C15.751 17.0279 15.7364 17.0369 15.7219 17.0459L15.7218 17.0459C15.6972 17.0611 15.6727 17.0762 15.6475 17.0898C15.6056 17.1121 15.5629 17.1315 15.5199 17.151C15.504 17.1582 15.4882 17.1654 15.4723 17.1727C15.4567 17.1801 15.4413 17.1877 15.4259 17.1952L15.4258 17.1953C15.397 17.2095 15.3684 17.2236 15.3387 17.2357C15.2888 17.2565 15.2377 17.2737 15.1867 17.2909L15.1365 17.308C15.1194 17.3137 15.1026 17.32 15.0859 17.3263C15.0634 17.3348 15.041 17.3432 15.018 17.3502C14.9754 17.363 14.9319 17.373 14.8886 17.3829L14.8886 17.383L14.8886 17.383L14.8886 17.383L14.8422 17.3938C14.8241 17.3983 14.806 17.4031 14.7878 17.408L14.7878 17.408L14.7878 17.408L14.7878 17.408C14.7542 17.4171 14.7206 17.4261 14.6864 17.4328C14.6628 17.4375 14.6389 17.4407 14.6149 17.4438H14.6149C14.597 17.4462 14.5791 17.4485 14.5611 17.4516L14.5263 17.4574L14.5262 17.4574C14.4666 17.4673 14.4069 17.4772 14.3466 17.4832C14.2321 17.4943 14.1168 17.5 14 17.5C12.0697 17.5 10.5 15.9303 10.5 14C10.5 12.0697 12.0697 10.5 14 10.5C15.9303 10.5 17.5 12.0697 17.5 14C17.5 14.1162 17.4943 14.2321 17.4832 14.3466ZM12.833 8.28403V2.39231C7.32983 2.94175 2.94088 7.33014 2.39258 12.8328H8.2843C8.74915 10.5507 10.551 8.74888 12.833 8.28403ZM2.39258 15.1666H8.2843C8.82605 17.8261 11.1827 19.8333 13.9997 19.8333C15.1587 19.8333 16.269 19.4955 17.2174 18.8675L21.3783 23.0283C19.3665 24.6754 16.7973 25.6666 14.0003 25.6666C7.96102 25.6666 2.9799 21.0535 2.39258 15.1666ZM18.8672 17.2177L23.028 21.3785C24.6752 19.3662 25.6664 16.797 25.6664 14C25.6664 7.96072 21.0538 2.9796 15.1664 2.39285V8.28457C17.8258 8.82632 19.833 11.183 19.833 14C19.833 15.159 19.4952 16.2687 18.8672 17.2177Z" fill="#F4D8E9"/>
</svg>
