<svg width="28" height="28" viewBox="0 0 28 28" fill="none" xmlns="http://www.w3.org/2000/svg">
<path fill-rule="evenodd" clip-rule="evenodd" d="M6.18105 2.29987H21.819C22.473 2.29987 23.0032 1.78503 23.0032 1.14994C23.0032 0.514843 22.473 0 21.819 0H6.18105C5.52708 0 4.99693 0.514843 4.99693 1.14994C4.99693 1.78503 5.52713 2.29987 6.18105 2.29987ZM23.6233 6.38855H4.37661C3.72269 6.38855 3.19248 5.87371 3.19248 5.23861C3.19248 4.60352 3.72263 4.08868 4.37661 4.08868H23.6233C24.2773 4.08868 24.8075 4.60352 24.8075 5.23861C24.8075 5.87371 24.2773 6.38855 23.6233 6.38855ZM4.11687 8.1773H23.8831C26.3654 8.1773 28.2929 10.3016 27.9632 12.703L26.3392 24.5309C26.0677 26.5086 24.3137 28 22.2592 28H5.74081C3.68636 28 1.93222 26.5086 1.66078 24.5309L0.0367825 12.703C-0.292573 10.3044 1.63213 8.1773 4.11687 8.1773ZM23.9918 24.227L25.6158 12.399C25.7566 11.3732 24.9348 10.4772 23.8831 10.4772H4.11687C3.06701 10.4772 2.24314 11.3717 2.38417 12.399L4.00816 24.227C4.12347 25.0668 4.86834 25.7001 5.74081 25.7001H22.2591C23.1316 25.7001 23.8764 25.0668 23.9918 24.227ZM14 13.4757C17.5134 13.4757 19.4517 17.436 17.275 20.0819C17.9295 20.406 18.5434 20.8331 19.0902 21.3642C19.5526 21.8132 19.5526 22.5413 19.0902 22.9904C18.6278 23.4395 17.878 23.4395 17.4156 22.9904C15.5323 21.1614 12.4677 21.1614 10.5843 22.9904C10.1219 23.4395 9.37214 23.4395 8.90971 22.9904C8.44734 22.5414 8.44734 21.8132 8.90971 21.3642C9.45655 20.8331 10.0704 20.406 10.7249 20.0819C8.54759 17.4353 10.4872 13.4757 14 13.4757ZM15.8231 17.5461C15.8231 16.5698 15.0052 15.7755 14 15.7755C12.9947 15.7755 12.1768 16.5698 12.1768 17.5461C12.1768 18.5223 12.9947 19.3166 14 19.3166C15.0052 19.3166 15.8231 18.5223 15.8231 17.5461Z" fill="white"/>
</svg>
