<svg width="28" height="28" viewBox="0 0 28 28" fill="none" xmlns="http://www.w3.org/2000/svg">
<path fill-rule="evenodd" clip-rule="evenodd" d="M27.7613 11.4397C27.9154 12.2705 28 13.1256 28 14C28 14.8744 27.9154 15.7295 27.7613 16.5603C27.7607 16.5649 27.7602 16.5689 27.759 16.5737C26.7026 22.233 22.233 26.7026 16.5737 27.759L16.5708 27.7595L16.5667 27.7602C16.5646 27.7606 16.5625 27.761 16.5603 27.7613C15.7295 27.9154 14.8744 28 14 28C13.1256 28 12.2705 27.9154 11.4391 27.7613L11.433 27.7604C11.4307 27.7601 11.4285 27.7596 11.4263 27.759C5.76697 26.7026 1.2974 22.233 0.240967 16.5737C0.240671 16.5712 0.240221 16.5689 0.239777 16.5667C0.239367 16.5646 0.238962 16.5625 0.238688 16.5603C0.0845947 15.7295 0 14.8744 0 14C0 13.1256 0.0845947 12.2705 0.239258 11.4397C0.239827 11.4351 0.240397 11.4311 0.241536 11.4263C1.29797 5.76697 5.76754 1.2974 11.4268 0.240967C11.4306 0.23996 11.4346 0.239398 11.4382 0.238888L11.4397 0.238688C12.2705 0.0845947 13.1256 0 14 0C14.8744 0 15.7295 0.0845947 16.5603 0.238688C16.5649 0.239258 16.5689 0.239827 16.5737 0.240967C22.233 1.2974 26.7026 5.76697 27.759 11.4263C27.7596 11.4311 27.7607 11.4351 27.7613 11.4397ZM8.75 14C8.75 16.895 11.1055 19.25 14 19.25C16.895 19.25 19.25 16.895 19.25 14C19.25 11.105 16.895 8.75 14 8.75C11.1055 8.75 8.75 11.105 8.75 14ZM2.33333 14C2.33333 13.6064 2.35441 13.2173 2.39229 12.8333H6.51579C6.45683 13.2147 6.41667 13.6021 6.41667 14C6.41667 14.3979 6.45683 14.7853 6.51579 15.1667H2.39229C2.35441 14.7827 2.33333 14.3936 2.33333 14ZM25.6077 12.8333H21.4842C21.5432 13.2147 21.5833 13.6021 21.5833 14C21.5833 14.3979 21.5437 14.7853 21.4842 15.1667H25.6077C25.6456 14.7827 25.6667 14.3936 25.6667 14C25.6667 13.6064 25.6456 13.2173 25.6077 12.8333ZM25.1289 10.5H20.7206C20.0014 9.12512 18.8749 7.99862 17.5 7.27942V2.87109C21.1225 4.01327 23.9867 6.87752 25.1289 10.5ZM15.1667 6.51579V2.39229C14.7827 2.35441 14.3936 2.33333 14 2.33333C13.6064 2.33333 13.2173 2.35441 12.8333 2.39229V6.51579C13.2147 6.45683 13.6021 6.41667 14 6.41667C14.3979 6.41667 14.7853 6.45683 15.1667 6.51579ZM10.5 2.87109V7.27942C9.12512 7.99862 7.99862 9.12512 7.27942 10.5H2.87109C4.01327 6.87752 6.87752 4.01327 10.5 2.87109ZM7.27942 17.5H2.87109C4.01327 21.1225 6.87752 23.9867 10.5 25.1289V20.7206C9.12512 20.0014 7.99862 18.8749 7.27942 17.5ZM12.8333 25.6077V21.4842C13.2147 21.5437 13.6021 21.5833 14 21.5833C14.3979 21.5833 14.7853 21.5432 15.1667 21.4842V25.6077C14.7827 25.6456 14.3936 25.6667 14 25.6667C13.6064 25.6667 13.2173 25.6456 12.8333 25.6077ZM17.5 20.7206V25.1289C21.1225 23.9867 23.9867 21.1225 25.1289 17.5H20.7206C20.0014 18.8749 18.8749 20.0014 17.5 20.7206Z" fill="white"/>
</svg>
