<svg width="28" height="28" viewBox="0 0 28 28" fill="none" xmlns="http://www.w3.org/2000/svg">
  <g>
    <path fill-rule="evenodd" clip-rule="evenodd" d="M26.5266 0.0417779C26.8783 -0.0533042 27.2528 0.0196115 27.5416 0.240109C27.8302 0.460606 28 0.803018 28 1.16701V19.8334C28 20.3596 27.6477 20.8204 27.1407 20.9593L23.6769 21.9037C23.0551 22.0728 22.414 21.7059 22.2443 21.0853C22.0751 20.4634 22.4414 19.8224 23.0627 19.6526L25.6667 18.9427V2.69474L19.7698 4.30297C19.8077 4.41789 19.8333 4.53922 19.8333 4.66697V26.8333C19.8333 27.4773 19.3107 28 18.6667 28C18.0227 28 17.5 27.4773 17.5 26.8333V4.92188L15.1667 5.55829V23.3334C15.1667 23.4209 15.1556 23.5049 15.1381 23.5871C15.135 23.6007 15.1306 23.6135 15.1262 23.6263C15.123 23.6355 15.1198 23.6447 15.1171 23.6542C15.1002 23.7126 15.0809 23.7691 15.0558 23.8234C15.0467 23.843 15.0363 23.8612 15.0257 23.8797C15.0222 23.886 15.0186 23.8923 15.015 23.8986C14.9882 23.9465 14.959 23.9926 14.9263 24.0357C14.9082 24.0602 14.889 24.0835 14.8686 24.1063C14.8318 24.1477 14.7922 24.1856 14.7496 24.2212C14.7423 24.2271 14.7359 24.2338 14.7296 24.2405C14.7228 24.2477 14.716 24.2548 14.7082 24.2609C14.7051 24.2631 14.7017 24.2646 14.6983 24.266C14.6948 24.2675 14.6913 24.269 14.6883 24.2714C14.5997 24.3367 14.5017 24.388 14.3961 24.4265C14.3836 24.4308 14.3712 24.4345 14.3589 24.4381C14.3511 24.4404 14.3433 24.4427 14.3354 24.4452C14.2287 24.4773 14.1172 24.5 14 24.5C13.9032 24.5 13.811 24.4849 13.7218 24.4633C13.7171 24.4621 13.7123 24.4617 13.7075 24.4613C13.7026 24.4608 13.6978 24.4604 13.6932 24.4592L0.859833 20.9593C0.352333 20.8204 0 20.3596 0 19.8334V1.16701C0 0.803018 0.16975 0.460606 0.4585 0.239525C0.74725 0.0184449 1.12292 -0.0544709 1.4735 0.0411946L14 3.45773L26.5266 0.0417779ZM2.33335 18.9427L12.8334 21.8062V5.55829L2.33335 2.69474V18.9427Z" fill="white"/>
  </g>
</svg>
