<svg fill="none" height="173" viewBox="0 0 180 173" width="180" xmlns="http://www.w3.org/2000/svg" xmlns:xlink="http://www.w3.org/1999/xlink"><filter id="a" color-interpolation-filters="sRGB" filterUnits="userSpaceOnUse" height="172.031" width="180" x="0" y=".856445"><feFlood flood-opacity="0" result="BackgroundImageFix"/><feColorMatrix in="SourceAlpha" type="matrix" values="0 0 0 0 0 0 0 0 0 0 0 0 0 0 0 0 0 0 127 0"/><feOffset dy="20"/><feGaussianBlur stdDeviation="20"/><feColorMatrix type="matrix" values="0 0 0 0 0.866667 0 0 0 0 0.14902 0 0 0 0 0.784918 0 0 0 0.3 0"/><feBlend in2="BackgroundImageFix" mode="normal" result="effect1_dropShadow"/><feBlend in="SourceGraphic" in2="effect1_dropShadow" mode="normal" result="shape"/></filter><linearGradient id="b"><stop offset="0" stop-color="#d92779"/><stop offset="1" stop-color="#7c277e"/></linearGradient><linearGradient id="c" gradientUnits="userSpaceOnUse" x1="101.101" x2="131.427" xlink:href="#b" y1="45.2328" y2="85.2595"/><linearGradient id="d" gradientUnits="userSpaceOnUse" x1="78.8992" x2="48.5729" xlink:href="#b" y1="45.2328" y2="85.2595"/><linearGradient id="e" gradientUnits="userSpaceOnUse" x1="72.2258" x2="93.6166" xlink:href="#b" y1="74.0292" y2="110.623"/><linearGradient id="f" gradientUnits="userSpaceOnUse" x1="57.8586" x2="93.0183" xlink:href="#b" y1="39.5798" y2="103.866"/><linearGradient id="g" gradientUnits="userSpaceOnUse" x1="94.3687" x2="77.1411" y1="39.7159" y2="50.0779"><stop offset="0" stop-color="#dd2678"/><stop offset="1" stop-color="#99277d"/></linearGradient><mask id="h" fill="#000" height="53" maskUnits="userSpaceOnUse" width="50" x="65.2959" y="60.6943"><path d="m65.2959 60.6943h50v53h-50z" fill="#fff"/><path d="m83.9059 65.302c3.7128-2.1436 8.2872-2.1436 12 0l9.6101 5.5484c3.713 2.1436 6 6.1051 6 10.3923v11.0967c0 4.2872-2.287 8.2486-6 10.3926l-9.6101 5.548c-3.7128 2.144-8.2872 2.144-12 0l-9.61-5.548c-3.7128-2.144-6-6.1054-6-10.3926v-11.0967c0-4.2872 2.2872-8.2487 6-10.3923z" fill="#000"/></mask><g filter="url(#a)"><path clip-rule="evenodd" d="m99.2106 53.1822c-1.9131 1.1046-2.5686 3.5509-1.4641 5.4641l1.5747 2.7273c1.1048 1.9132 3.5508 2.5687 5.4638 1.4642l29.657-17.1223c4.123-2.3807 6.146-7.0266 5.409-11.4757-.361-2.1795-2.895-2.8498-4.808-1.7452zm5.6854 19.1464c1.104 1.9132 3.55 2.5687 5.464 1.4641l21.023-12.1379c4.043-2.3343 6.076-6.7406 5.511-10.9394-.295-2.1894-2.834-2.867-4.747-1.7624l-27.097 15.644c-1.913 1.1045-2.568 3.5509-1.464 5.4641zm23.036 6.2443-21.023 12.138c-1.913 1.1045-4.36.449-5.464-1.4641l-1.575-2.7274c-1.1045-1.9131-.449-4.3595 1.464-5.4641l27.096-15.6439c1.913-1.1046 4.446-.4349 4.815 1.7433.749 4.426-1.212 9.0505-5.313 11.4182z" fill="url(#c)" fill-rule="evenodd" opacity=".5"/><path clip-rule="evenodd" d="m80.7894 53.1822c1.9131 1.1046 2.5686 3.5509 1.4641 5.4641l-1.5747 2.7273c-1.1045 1.9132-3.5509 2.5687-5.4641 1.4642l-29.6565-17.1223c-4.1236-2.3807-6.1457-7.0266-5.4089-11.4757.3609-2.1795 2.8949-2.8498 4.808-1.7452zm-5.6849 19.1464c-1.1046 1.9132-3.551 2.5687-5.4641 1.4641l-21.0236-12.1379c-4.043-2.3343-6.0756-6.7406-5.5107-10.9394.2946-2.1894 2.8342-2.867 4.7473-1.7624l27.0961 15.644c1.9132 1.1045 2.5687 3.5509 1.4641 5.4641zm-23.0368 6.2443 21.0235 12.138c1.9132 1.1045 4.3596.449 5.4641-1.4641l1.5747-2.7274c1.1045-1.9131.449-4.3595-1.4641-5.4641l-27.0961-15.6439c-1.9132-1.1046-4.4461-.4349-4.8147 1.7433-.7489 4.426 1.2115 9.0505 5.3126 11.4182z" fill="url(#d)" fill-rule="evenodd" opacity=".5"/><g opacity=".5"><path d="m83.9059 65.302c3.7128-2.1436 8.2872-2.1436 12 0l9.6101 5.5484c3.713 2.1436 6 6.1051 6 10.3923v11.0967c0 4.2872-2.287 8.2486-6 10.3926l-9.6101 5.548c-3.7128 2.144-8.2872 2.144-12 0l-9.61-5.548c-3.7128-2.144-6-6.1054-6-10.3926v-11.0967c0-4.2872 2.2872-8.2487 6-10.3923z" fill="url(#e)"/><path d="m74.2959 70.8504-1.5-2.5981zm0 31.8816-1.5 2.598zm21.61 5.548-1.5-2.598zm-12 0 1.5-2.598zm21.6101-5.548 1.5 2.598zm0-31.8816 1.5-2.5981zm-9.6101-5.5484-1.5 2.5981zm-12 0 1.5 2.5981zm10.5 2.5981 9.6101 5.5484 3-5.1962-9.6101-5.5483zm14.1101 13.3426v11.0967h6v-11.0967zm-4.5 18.8913-9.6101 5.548 3 5.196 9.6101-5.548zm-18.6101 5.548-9.61-5.548-3 5.196 9.61 5.548zm-14.11-13.3426v-11.0967h-6v11.0967zm4.5-18.8909 9.61-5.5484-3-5.1961-9.61 5.5483zm-4.5 7.7942c0-3.2154 1.7154-6.1865 4.5-7.7942l-3-5.1962c-4.641 2.6795-7.5 7.6314-7.5 12.9904zm4.5 18.8913c-2.7846-1.6081-4.5-4.5792-4.5-7.7946h-6c0 5.359 2.859 10.3106 7.5 12.9906zm18.61 5.548c-2.7846 1.608-6.2154 1.608-9 0l-3 5.196c4.641 2.68 10.359 2.68 15 0zm14.1101-13.3426c0 3.2154-1.715 6.1865-4.5 7.7946l3 5.196c4.641-2.68 7.5-7.6316 7.5-12.9906zm-4.5-18.8909c2.785 1.6077 4.5 4.5788 4.5 7.7942h6c0-5.359-2.859-10.3109-7.5-12.9904zm-6.6101-10.7445c-4.641-2.6795-10.359-2.6795-15 0l3 5.1961c2.7846-1.6077 6.2154-1.6077 9 0z" fill="#231538" mask="url(#h)"/></g><path d="m96.7517 24.1651c-4.1769-2.4116-9.3231-2.4116-13.5 0l-22.0243 12.7157c-4.1769 2.4115-6.75 6.8683-6.75 11.6913v25.4315c0 4.8231 2.5731 9.2798 6.75 11.6913l22.0243 12.7158c4.1769 2.4113 9.3231 2.4113 13.5 0l22.0243-12.7158c4.177-2.4115 6.75-6.8682 6.75-11.6913v-25.4315c0-4.823-2.573-9.2798-6.75-11.6913z" fill="url(#f)" stroke="#292044" stroke-width="3"/><path d="m84.2567 32.106c3.7035-2.1295 8.2599-2.1295 11.9634 0l16.5709 9.5285c3.724 2.1408 6.019 6.1081 6.019 10.4029v18.9724c0 4.2948-2.295 8.2621-6.019 10.4029l-16.5709 9.5286c-3.7035 2.1295-8.2599 2.1295-11.9634 0l-16.5714-9.5286c-3.7231-2.1408-6.0183-6.1081-6.0183-10.4029v-18.9724c0-4.2948 2.2952-8.2621 6.0183-10.4029z" fill="#292044"/><path d="m77.5415 74.1511-.0415-26.4173c0-.4077.3738-.7338.789-.7338h.623c.4152 0 .7059.2854 1.0382.6115l15.9883 14.4099v.6333-8.1899c0-.4077.3323-.7746.7891-.7746h4.9834c.415 0 .789.3669.789.7746v20.1347c0 .4892-.374.7338-.789.7338h-.415c-.416 0-.706-.1223-1.039-.4484l-16.1955-14.0706v13.3368c0 .4077-.3323.7746-.7891.7746h-4.9418c-.4153 0-.7891-.3669-.7891-.7746z" fill="url(#g)"/><path d="m87.1314 91.3181-3.3012 3.3012c-1.7574 1.7574-1.7574 4.6066 0 6.3637l3.3012 3.301c1.7573 1.758 4.6065 1.758 6.3639 0l3.3011-3.301c1.7574-1.7571 1.7574-4.6063 0-6.3637l-3.3011-3.3012c-1.7574-1.7573-4.6066-1.7573-6.3639 0z" fill="#e7a957" stroke="#292044" stroke-width="3"/></g></svg>
