<svg fill="none" height="191" viewBox="0 0 200 191" width="200" xmlns="http://www.w3.org/2000/svg" xmlns:xlink="http://www.w3.org/1999/xlink"><filter id="a" color-interpolation-filters="sRGB" filterUnits="userSpaceOnUse" height="189.98" width="200" x="0" y=".856445"><feFlood flood-opacity="0" result="BackgroundImageFix"/><feColorMatrix in="SourceAlpha" type="matrix" values="0 0 0 0 0 0 0 0 0 0 0 0 0 0 0 0 0 0 127 0"/><feOffset dy="20"/><feGaussianBlur stdDeviation="20"/><feColorMatrix type="matrix" values="0 0 0 0 0.866667 0 0 0 0 0.14902 0 0 0 0 0.784918 0 0 0 0.3 0"/><feBlend in2="BackgroundImageFix" mode="normal" result="effect1_dropShadow"/><feBlend in="SourceGraphic" in2="effect1_dropShadow" mode="normal" result="shape"/></filter><linearGradient id="b"><stop offset="0" stop-color="#d92779"/><stop offset="1" stop-color="#7c277e"/></linearGradient><linearGradient id="c" gradientUnits="userSpaceOnUse" x1="113.055" x2="149.775" xlink:href="#b" y1="49.7133" y2="98.0529"/><linearGradient id="d" gradientUnits="userSpaceOnUse" x1="86.945" x2="50.2253" xlink:href="#b" y1="49.7133" y2="98.0529"/><linearGradient id="e" gradientUnits="userSpaceOnUse" x1="78.672" x2="104.853" xlink:href="#b" y1="84.2301" y2="128.427"/><linearGradient id="f" gradientUnits="userSpaceOnUse" x1="61.4311" x2="103.623" xlink:href="#b" y1="43.0958" y2="120.239"/><mask id="g" fill="#000" height="63" maskUnits="userSpaceOnUse" width="58" x="70.9561" y="68.6621"><path d="m70.9561 68.6621h58v63h-58z" fill="#fff"/><path d="m93.8881 73.2698c3.7128-2.1436 8.2869-2.1436 11.9999 0l13.932 8.0437c3.713 2.1436 6 6.1051 6 10.3923v16.0872c0 4.287-2.287 8.249-6 10.392l-13.932 8.044c-3.713 2.144-8.2871 2.144-11.9999 0l-13.932-8.044c-3.7129-2.143-6-6.105-6-10.392v-16.0872c0-4.2872 2.2871-8.2487 6-10.3923z" fill="#000"/></mask><g filter="url(#a)"><path clip-rule="evenodd" d="m110.36 59.8189c-1.913 1.1045-2.569 3.5509-1.464 5.4641l2.689 4.6584c1.105 1.9132 3.551 2.5687 5.465 1.4641l36.28-20.9467c5.192-2.9973 7.608-8.9863 6.337-14.5559-.492-2.1538-3.01-2.8138-4.923-1.7092zm7.915 23.2685c1.104 1.9131 3.551 2.5686 5.464 1.4641l25.921-14.9656c5.106-2.9478 7.539-8.6492 6.481-13.9161-.436-2.1658-2.959-2.8305-4.872-1.726l-33.901 19.5728c-1.913 1.1045-2.569 3.5509-1.464 5.4641zm27.244 6.8003-25.921 14.9653c-1.913 1.105-4.36.449-5.464-1.464l-2.69-4.6583c-1.104-1.9132-.449-4.3595 1.464-5.4641l33.901-19.5727c1.913-1.1046 4.43-.445 4.928 1.7073 1.282 5.5412-1.054 11.5049-6.218 14.4865z" fill="url(#c)" fill-rule="evenodd" opacity=".5"/><path clip-rule="evenodd" d="m89.64 59.8189c1.9131 1.1045 2.5686 3.5509 1.4641 5.4641l-2.6896 4.6584c-1.1046 1.9132-3.5509 2.5687-5.4641 1.4641l-36.2807-20.9467c-5.1915-2.9973-7.6072-8.9863-6.3362-14.5559.4915-2.1538 3.0092-2.8138 4.9224-1.7092zm-7.9148 23.2685c-1.1045 1.9131-3.5509 2.5686-5.4641 1.4641l-25.921-14.9656c-5.1057-2.9478-7.5395-8.6492-6.4806-13.9161.4354-2.1658 2.9585-2.8305 4.8717-1.726l33.901 19.5728c1.9131 1.1045 2.5686 3.5509 1.4641 5.4641zm-27.2441 6.8003 25.9211 14.9653c1.9131 1.105 4.3595.449 5.4641-1.464l2.6895-4.6583c1.1046-1.9132.4491-4.3595-1.4641-5.4641l-33.9009-19.5727c-1.9132-1.1046-4.43-.445-4.9278 1.7073-1.2817 5.5412 1.0538 11.5049 6.2181 14.4865z" fill="url(#d)" fill-rule="evenodd" opacity=".5"/><g opacity=".5"><path d="m93.8881 73.2698c3.7128-2.1436 8.2869-2.1436 11.9999 0l13.932 8.0437c3.713 2.1436 6 6.1051 6 10.3923v16.0872c0 4.287-2.287 8.249-6 10.392l-13.932 8.044c-3.713 2.144-8.2871 2.144-11.9999 0l-13.932-8.044c-3.7129-2.143-6-6.105-6-10.392v-16.0872c0-4.2872 2.2871-8.2487 6-10.3923z" fill="url(#e)"/><path d="m79.9561 81.3135-1.5-2.5981zm0 36.8715 1.5-2.598zm25.9319 8.044 1.5 2.598zm-11.9999 0-1.5 2.598zm25.9319-8.044-1.5-2.598zm0-36.8715-1.5 2.598zm-13.932-8.0437 1.5-2.5981zm-11.9999 0 1.5 2.5981zm10.4999 2.5981 13.932 8.0436 3-5.1961-13.932-8.0437zm18.432 15.8379v16.0872h6v-16.0872zm-4.5 23.8812-13.932 8.044 3 5.196 13.932-8.044zm-22.9319 8.044-13.932-8.044-3 5.196 13.932 8.044zm-18.432-15.838v-16.0872h-6v16.0872zm4.5-23.8815 13.932-8.0436-3-5.1962-13.932 8.0437zm-4.5 7.7943c0-3.2154 1.7153-6.1866 4.5-7.7943l-3-5.1961c-4.6411 2.6795-7.5 7.6314-7.5 12.9904zm4.5 23.8812c-2.7847-1.607-4.5-4.579-4.5-7.794h-6c0 5.359 2.8589 10.311 7.5 12.99zm22.9319 8.044c-2.785 1.608-6.2153 1.608-8.9999 0l-3 5.196c4.641 2.68 10.3589 2.68 14.9999 0zm18.432-15.838c0 3.215-1.715 6.187-4.5 7.794l3 5.196c4.641-2.679 7.5-7.631 7.5-12.99zm-4.5-23.8815c2.785 1.6077 4.5 4.5789 4.5 7.7943h6c0-5.359-2.859-10.3109-7.5-12.9904zm-10.932-13.2398c-4.641-2.6795-10.3589-2.6795-14.9999 0l3 5.1962c2.7846-1.6077 6.2149-1.6077 8.9999 0z" fill="#231538" mask="url(#g)"/></g><path d="m106.753 24.1651c-4.177-2.4116-9.3232-2.4116-13.5002 0l-28.8291 16.6445c-4.1769 2.4115-6.75 6.8682-6.75 11.6913v33.2891c0 4.823 2.5731 9.2798 6.75 11.6913l28.8292 16.6447c4.1769 2.411 9.3231 2.411 13.5001 0l28.829-16.6447c4.177-2.4115 6.75-6.8683 6.75-11.6914v-33.289c0-4.8231-2.573-9.2798-6.75-11.6913z" fill="url(#f)" stroke="#292044" stroke-width="3"/><path d="m94.0179 33.1538c3.7035-2.1295 8.2601-2.1295 11.9631 0l22.286 12.8143c3.723 2.1408 6.018 6.1081 6.018 10.4028v25.5439c0 4.2948-2.295 8.2621-6.018 10.4029l-22.286 12.8143c-3.703 2.129-8.2596 2.129-11.9631 0l-22.2857-12.8143c-3.7231-2.1408-6.0183-6.1081-6.0183-10.4029v-25.5439c0-4.2947 2.2952-8.262 6.0183-10.4028z" fill="#292044"/><g fill="#f4d8e9"><path d="m85.3906 82.5428v9.6h1.5909v-4.1691h1.824v4.1691h1.5908v-9.6h-1.5908v4.0046h-1.824v-4.0046z"/><path d="m91.7108 84.4628v5.76c0 1.4537.96 2.0297 2.4137 2.0297h.1097c1.4537 0 2.4137-.576 2.4137-2.0297v-5.76c0-1.4537-.96-2.0297-2.4137-2.0297h-.1097c-1.4537 0-2.4137.5623-2.4137 2.0297zm1.5908 5.5132v-5.2663c0-.6857.3566-.8777.8777-.8777.5212 0 .8777.192.8777.8777v5.2663c0 .6857-.3565.8777-.8777.8777-.5211 0-.8777-.192-.8777-.8777z"/><path d="m102.767 82.5428h-1.591v7.4332c0 .6857-.302.8777-.823.8777-.5214 0-.8231-.192-.8231-.8777v-7.4332h-1.5908v7.68c0 1.4949.9325 2.0297 2.3859 2.0297h.055c1.454 0 2.387-.5485 2.387-2.0297z"/><path d="m109.339 92.1428-1.371-4.0731c.658-.288 1.042-.864 1.042-1.7829v-1.7143c0-1.4537-.96-2.0297-2.414-2.0297h-2.482v9.6h1.591v-3.8263h.795l1.221 3.8263zm-3.634-8.2011h.836c.521 0 .878.192.878.8777v1.248c0 .6857-.357.8777-.878.8777h-.836z"/><path d="m114.801 85.9714v-1.5634c0-1.4263-1.042-1.9749-2.359-1.9749h-.027c-1.317 0-2.359.5486-2.359 1.9749v1.2617c0 1.0011.535 1.44 1.467 1.9748l1.111.6309c.48.2606.631.5074.631 1.0011v.7543c0 .5897-.343.8503-.823.8503s-.823-.2606-.823-.8503v-1.4537h-1.563v1.6731c0 1.4949.919 2.0023 2.372 2.0023h.028c1.453 0 2.372-.5211 2.372-2.0023v-1.3851c0-1.0286-.548-1.4537-1.467-1.9749l-1.125-.6308c-.452-.2606-.617-.48-.617-.9737v-.6583c0-.6034.343-.8229.809-.8229.467 0 .809.2195.809.8229v1.344z"/></g><path d="m97.1948 104.97-4.8099 4.81c-1.7574 1.757-1.7574 4.606 0 6.364l4.8099 4.81c1.7573 1.757 4.6062 1.757 6.3642 0l4.81-4.81c1.757-1.758 1.757-4.607 0-6.364l-4.81-4.81c-1.758-1.758-4.6069-1.758-6.3642 0z" fill="#e7a957" stroke="#292044" stroke-width="3"/></g></svg>