<svg width="30" height="30" viewBox="0 0 30 30" fill="none" xmlns="http://www.w3.org/2000/svg">
<path fill-rule="evenodd" clip-rule="evenodd" d="M25.6042 4.39578C19.7436 -1.46482 10.2573 -1.4657 4.39584 4.39578C-1.46481 10.2563 -1.46575 19.7428 4.39584 25.6042C10.2564 31.4648 19.7428 31.4657 25.6042 25.6042C31.4648 19.7437 31.4657 10.2572 25.6042 4.39578ZM15 27.533C8.08924 27.533 2.46691 21.9107 2.46691 15C2.46691 8.08924 8.08924 2.46696 15 2.46696C21.9107 2.46696 27.533 8.08929 27.533 15C27.533 21.9108 21.9108 27.533 15 27.533ZM19.9858 12.4973C19.9858 9.74806 17.7492 7.5114 15 7.5114C12.2508 7.5114 10.0141 9.74806 10.0141 12.4973C10.0141 15.3087 9.92907 16.1306 8.26714 19.4545C7.85842 20.2719 8.45349 21.2372 9.36889 21.2372H13.7682V22.5081C13.7682 23.1884 14.3197 23.7399 15 23.7399C15.6803 23.7399 16.2318 23.1884 16.2318 22.5081V21.2372H20.631C21.545 21.2372 22.1421 20.2732 21.7328 19.4545C20.0584 16.1056 19.9858 15.2731 19.9858 12.4973ZM11.3239 18.7736C12.4004 16.3355 12.4778 14.8745 12.4778 12.4973C12.4778 11.1066 13.6093 9.97506 15 9.97506C16.3908 9.97506 17.5223 11.1066 17.5223 12.4973C17.5223 14.9024 17.6065 16.3511 18.6762 18.7736H11.3239Z" fill="#F4D8E9"/>
</svg>
