<svg width="28" height="28" viewBox="0 0 28 28" fill="none" xmlns="http://www.w3.org/2000/svg">
<g clip-path="url(#clip0)">
<path d="M25.7147 11.7152H22.2862C21.0256 11.7152 20.0005 12.7406 20.0005 14.0009V25.4293H18.2863V17.4294C18.2863 16.1691 17.2609 15.1437 16.0006 15.1437H12.5721C11.3115 15.1437 10.2864 16.1691 10.2864 17.4294V25.4293H8.57214V20.8579C8.57214 19.5976 7.54676 18.5722 6.28646 18.5722H2.85794C1.59736 18.5722 0.572266 19.5976 0.572266 20.8579V26.5721C0.572266 27.203 1.08426 27.7149 1.7151 27.7149H26.8576C27.4884 27.7149 28.0004 27.203 28.0004 26.5721V14.0009C28.0004 12.7406 26.975 11.7152 25.7147 11.7152ZM2.85794 25.4293L2.85655 20.8579H6.28646V25.4293H2.85794ZM12.5721 25.4293L12.5707 17.4294H16.0006V25.4293H12.5721ZM22.2862 25.4293L22.2843 14.0009H25.7147V25.4293H22.2862Z" fill="white"/>
<path d="M27.4148 3.55089C27.412 3.53136 27.4064 3.51351 27.4023 3.49481C27.3875 3.4206 27.3657 3.34861 27.3367 3.27942C27.3269 3.25542 27.3177 3.23254 27.3063 3.20966C27.2653 3.12679 27.2178 3.04783 27.1578 2.97696C27.1551 2.97362 27.1509 2.97083 27.1481 2.96748C27.0892 2.8994 27.0206 2.84109 26.9464 2.78779C26.9366 2.7811 26.9299 2.77133 26.9201 2.76464L23.4916 0.478961C22.9659 0.127404 22.2567 0.270259 21.9071 0.795919C21.5572 1.32102 21.6989 2.03083 22.2241 2.38043L23.7734 3.41306L0.752569 11.7843C0.159386 11.9997 -0.146413 12.6557 0.0689856 13.2488C0.238347 13.7128 0.676398 14.0008 1.14347 14.0008C1.27293 14.0008 1.40518 13.9787 1.53409 13.9319L24.5722 5.55421L24.0446 7.401C23.8711 8.00785 24.2229 8.64037 24.8292 8.81364C24.9338 8.84433 25.0396 8.858 25.1436 8.858C25.6406 8.858 26.0984 8.53072 26.2418 8.02905L27.3847 4.02912C27.3972 3.98504 27.4011 3.94096 27.4087 3.89659C27.4109 3.88097 27.419 3.8673 27.4207 3.85139C27.4212 3.84497 27.4196 3.83884 27.4201 3.83242C27.4299 3.737 27.4282 3.64325 27.4148 3.55089Z" fill="white"/>
</g>
<defs>
<clipPath id="clip0">
<rect width="28" height="28" fill="white"/>
</clipPath>
</defs>
</svg>
