<svg width="28" height="28" viewBox="0 0 28 28" fill="none" xmlns="http://www.w3.org/2000/svg">
<path fill-rule="evenodd" clip-rule="evenodd" d="M14 0C6.28017 0 0 6.28075 0 14C0 21.7192 6.28017 28 14 28C21.7198 28 28 21.7192 28 14C28 6.28075 21.7198 0 14 0ZM14 25.6667C7.567 25.6667 2.33333 20.433 2.33333 14C2.33333 7.567 7.567 2.33333 14 2.33333C20.433 2.33333 25.6667 7.567 25.6667 14C25.6667 20.433 20.433 25.6667 14 25.6667ZM19.8333 12.8333H18.5132C18.403 12.4069 18.235 12.005 18.0157 11.6346L18.9502 10.7001C19.4058 10.2445 19.4058 9.50542 18.9502 9.05042C18.4946 8.59483 17.7561 8.59483 17.2999 9.05042L16.366 9.98492C15.9956 9.76617 15.5937 9.59758 15.1672 9.48733V8.16667C15.1672 7.52267 14.6446 7 14.0006 7C13.3566 7 12.8339 7.52267 12.8339 8.16667V9.48675C12.4075 9.597 12.005 9.765 11.6352 9.98433L10.7013 9.04983C10.2457 8.59425 9.50717 8.59425 9.051 9.04983C8.59542 9.50483 8.59542 10.2439 9.051 10.6995L9.9855 11.634C9.76675 12.0044 9.59817 12.4063 9.48792 12.8328H8.16667C7.52267 12.8328 7 13.3554 7 13.9994C7 14.6434 7.52267 15.1661 8.16667 15.1661H9.48675C9.597 15.5925 9.765 15.9944 9.98433 16.3648L9.04983 17.2993C8.59425 17.7549 8.59425 18.494 9.04983 18.949C9.27792 19.1771 9.576 19.2908 9.87467 19.2908C10.1733 19.2908 10.472 19.1771 10.7001 18.949L11.634 18.0145C12.0044 18.2332 12.4063 18.4018 12.8328 18.5121V19.8333C12.8328 20.4773 13.3554 21 13.9994 21C14.6434 21 15.1661 20.4773 15.1661 19.8333V18.5132C15.5925 18.403 15.995 18.235 16.3648 18.0157L17.2987 18.9502C17.5268 19.1782 17.8255 19.292 18.1242 19.292C18.4228 19.292 18.7209 19.1782 18.949 18.9502C19.4046 18.4952 19.4046 17.7561 18.949 17.3005L18.0145 16.366C18.2332 15.9956 18.4018 15.5937 18.5121 15.1672H19.8333C20.4773 15.1672 21 14.6446 21 14.0006C21 13.3566 20.4773 12.8333 19.8333 12.8333ZM14 16.3333C12.7132 16.3333 11.6667 15.2868 11.6667 14C11.6667 12.7132 12.7132 11.6667 14 11.6667C15.2868 11.6667 16.3333 12.7132 16.3333 14C16.3333 15.2868 15.2868 16.3333 14 16.3333Z" fill="white"/>
</svg>
