<svg  width="25" height="27" viewBox="0 0 25 27" fill="none" xmlns="http://www.w3.org/2000/svg">
    <path d="M9.5491 1.77148C11.3751 0.74284 13.6249 0.74284 15.4509 1.77148L21.0491 4.92507C22.8751 5.95371 24 7.8547 24 9.91199V16.2192C24 18.2764 22.8751 20.1774 21.0491 21.2061L15.4509 24.3597C13.6249 25.3883 11.3751 25.3883 9.5491 24.3597L3.9509 21.2061C2.12488 20.1774 1 18.2764 1 16.2192V9.91199C1 7.8547 2.12488 5.95371 3.9509 4.92507L9.5491 1.77148Z" fill="#231538"/>
    <path d="M14.8693 2.45402C13.5198 1.67596 11.8572 1.67596 10.5077 2.45402L4.31195 6.02622C2.96245 6.80426 2.13113 8.24217 2.13113 9.79829V16.9427C2.13113 18.4988 2.96245 19.9367 4.31195 20.7147L10.5077 24.2869C11.8572 25.065 13.5198 25.065 14.8693 24.2869L21.0651 20.7147C22.4146 19.9367 23.2459 18.4988 23.2459 16.9427V9.79829C23.2459 8.24217 22.4146 6.80426 21.0651 6.02622L14.8693 2.45402Z" stroke="#433558" stroke-width="2.51"/>
    <path d="M15.0251 1.62181C13.5792 0.792731 11.7978 0.792731 10.3519 1.62181L3.71364 5.42825C2.26775 6.25731 1.37704 7.78951 1.37704 9.44767V17.0605C1.37704 18.7187 2.26775 20.2509 3.71364 21.0799L10.3519 24.8864C11.7978 25.7155 13.5792 25.7155 15.0251 24.8864L21.6634 21.0799C23.1093 20.2509 24 18.7187 24 17.0605V9.44767C24 7.78951 23.1093 6.25731 21.6634 5.42825L15.0251 1.62181Z" stroke="#231538" stroke-width="1.13115"/>
  </svg>