<svg width="830" height="264" viewBox="0 0 830 264" fill="none" xmlns="http://www.w3.org/2000/svg">
  <line opacity="0.5" x1="2" y1="241.25" x2="830" y2="241.25" stroke="#433558" stroke-width="1.5"/>
  <line opacity="0.5" x1="2" y1="61.25" x2="830" y2="61.25" stroke="#433558" stroke-width="1.5" stroke-dasharray="4 4"/>
  <line opacity="0.5" x1="2" y1="1.25" x2="830" y2="1.25" stroke="#433558" stroke-width="1.5" stroke-dasharray="4 4"/>
  <line opacity="0.5" x1="2" y1="121.25" x2="830" y2="121.25" stroke="#433558" stroke-width="1.5" stroke-dasharray="4 4"/>
  <line opacity="0.5" x1="2" y1="181.25" x2="830" y2="181.25" stroke="#433558" stroke-width="1.5" stroke-dasharray="4 4"/>
  <line opacity="0.5" x1="416.25" y1="242" x2="416.25" y2="2" stroke="#DFDAE7" stroke-width="1.5" stroke-dasharray="4 4"/>
  <line opacity="0.5" x1="139.25" y1="242" x2="139.25" y2="2" stroke="#433558" stroke-width="1.5" stroke-dasharray="4 4"/>
  <line opacity="0.5" x1="0.75" y1="242" x2="0.750003" y2="2" stroke="#433558" stroke-width="1.5" stroke-dasharray="4 4"/>
  <line opacity="0.5" x1="553.25" y1="242" x2="553.25" y2="2" stroke="#433558" stroke-width="1.5" stroke-dasharray="4 4"/>
  <line opacity="0.5" x1="277.25" y1="242" x2="277.25" y2="2" stroke="#433558" stroke-width="1.5" stroke-dasharray="4 4"/>
  <line opacity="0.5" x1="829.25" y1="242" x2="829.25" y2="2" stroke="#433558" stroke-width="1.5" stroke-dasharray="4 4"/>
  <line opacity="0.5" x1="691.25" y1="242" x2="691.25" y2="2" stroke="#433558" stroke-width="1.5" stroke-dasharray="4 4"/>
  <path opacity="0.7" d="M2.36719 263V254.469H4.88672C5.64062 254.469 6.30859 254.637 6.89062 254.973C7.47656 255.309 7.92969 255.785 8.25 256.402C8.57031 257.02 8.73047 257.727 8.73047 258.523V258.951C8.73047 259.76 8.56836 260.471 8.24414 261.084C7.92383 261.697 7.46484 262.17 6.86719 262.502C6.27344 262.834 5.5918 263 4.82227 263H2.36719ZM3.84961 255.664V261.816H4.81641C5.59375 261.816 6.18945 261.574 6.60352 261.09C7.02148 260.602 7.23438 259.902 7.24219 258.992V258.518C7.24219 257.592 7.04102 256.885 6.63867 256.396C6.23633 255.908 5.65234 255.664 4.88672 255.664H3.84961ZM14.8535 261.014H11.5488L10.8574 263H9.31641L12.5391 254.469H13.8691L17.0977 263H15.5508L14.8535 261.014ZM11.9648 259.818H14.4375L13.2012 256.279L11.9648 259.818ZM19.9746 258.512L21.9375 254.469H23.5781L20.7188 259.859V263H19.2305V259.859L16.3652 254.469H18.0117L19.9746 258.512ZM31.1191 263H29.7012V256.15L27.6094 256.865V255.664L30.9375 254.439H31.1191V263Z" fill="#DFDAE7"/>
  <path opacity="0.7" d="M108.367 263V254.469H110.887C111.641 254.469 112.309 254.637 112.891 254.973C113.477 255.309 113.93 255.785 114.25 256.402C114.57 257.02 114.73 257.727 114.73 258.523V258.951C114.73 259.76 114.568 260.471 114.244 261.084C113.924 261.697 113.465 262.17 112.867 262.502C112.273 262.834 111.592 263 110.822 263H108.367ZM109.85 255.664V261.816H110.816C111.594 261.816 112.189 261.574 112.604 261.09C113.021 260.602 113.234 259.902 113.242 258.992V258.518C113.242 257.592 113.041 256.885 112.639 256.396C112.236 255.908 111.652 255.664 110.887 255.664H109.85ZM120.854 261.014H117.549L116.857 263H115.316L118.539 254.469H119.869L123.098 263H121.551L120.854 261.014ZM117.965 259.818H120.438L119.201 256.279L117.965 259.818ZM125.975 258.512L127.938 254.469H129.578L126.719 259.859V263H125.23V259.859L122.365 254.469H124.012L125.975 258.512ZM139 263H133.264V262.021L136.105 258.922C136.516 258.465 136.807 258.084 136.979 257.779C137.154 257.471 137.242 257.162 137.242 256.854C137.242 256.447 137.127 256.119 136.896 255.869C136.67 255.619 136.363 255.494 135.977 255.494C135.516 255.494 135.158 255.635 134.904 255.916C134.65 256.197 134.523 256.582 134.523 257.07H133.1C133.1 256.551 133.217 256.084 133.451 255.67C133.689 255.252 134.027 254.928 134.465 254.697C134.906 254.467 135.414 254.352 135.988 254.352C136.816 254.352 137.469 254.561 137.945 254.979C138.426 255.393 138.666 255.967 138.666 256.701C138.666 257.127 138.545 257.574 138.303 258.043C138.064 258.508 137.672 259.037 137.125 259.631L135.039 261.863H139V263Z" fill="#DFDAE7"/>
  <path opacity="0.7" d="M262.867 263V254.469H265.387C266.141 254.469 266.809 254.637 267.391 254.973C267.977 255.309 268.43 255.785 268.75 256.402C269.07 257.02 269.23 257.727 269.23 258.523V258.951C269.23 259.76 269.068 260.471 268.744 261.084C268.424 261.697 267.965 262.17 267.367 262.502C266.773 262.834 266.092 263 265.322 263H262.867ZM264.35 255.664V261.816H265.316C266.094 261.816 266.689 261.574 267.104 261.09C267.521 260.602 267.734 259.902 267.742 258.992V258.518C267.742 257.592 267.541 256.885 267.139 256.396C266.736 255.908 266.152 255.664 265.387 255.664H264.35ZM275.354 261.014H272.049L271.357 263H269.816L273.039 254.469H274.369L277.598 263H276.051L275.354 261.014ZM272.465 259.818H274.938L273.701 256.279L272.465 259.818ZM280.475 258.512L282.438 254.469H284.078L281.219 259.859V263H279.73V259.859L276.865 254.469H278.512L280.475 258.512ZM289.41 258.084H290.277C290.715 258.08 291.061 257.967 291.314 257.744C291.572 257.521 291.701 257.199 291.701 256.777C291.701 256.371 291.594 256.057 291.379 255.834C291.168 255.607 290.844 255.494 290.406 255.494C290.023 255.494 289.709 255.605 289.463 255.828C289.217 256.047 289.094 256.334 289.094 256.689H287.67C287.67 256.252 287.785 255.854 288.016 255.494C288.25 255.135 288.574 254.855 288.988 254.656C289.406 254.453 289.873 254.352 290.389 254.352C291.24 254.352 291.908 254.566 292.393 254.996C292.881 255.422 293.125 256.016 293.125 256.777C293.125 257.16 293.002 257.521 292.756 257.861C292.514 258.197 292.199 258.451 291.812 258.623C292.281 258.783 292.637 259.035 292.879 259.379C293.125 259.723 293.248 260.133 293.248 260.609C293.248 261.375 292.984 261.984 292.457 262.438C291.934 262.891 291.244 263.117 290.389 263.117C289.568 263.117 288.896 262.898 288.373 262.461C287.85 262.023 287.588 261.441 287.588 260.715H289.012C289.012 261.09 289.137 261.395 289.387 261.629C289.641 261.863 289.98 261.98 290.406 261.98C290.848 261.98 291.195 261.863 291.449 261.629C291.703 261.395 291.83 261.055 291.83 260.609C291.83 260.16 291.697 259.814 291.432 259.572C291.166 259.33 290.771 259.209 290.248 259.209H289.41V258.084Z" fill="#DFDAE7"/>
  <path d="M400.867 263V254.469H403.387C404.141 254.469 404.809 254.637 405.391 254.973C405.977 255.309 406.43 255.785 406.75 256.402C407.07 257.02 407.23 257.727 407.23 258.523V258.951C407.23 259.76 407.068 260.471 406.744 261.084C406.424 261.697 405.965 262.17 405.367 262.502C404.773 262.834 404.092 263 403.322 263H400.867ZM402.35 255.664V261.816H403.316C404.094 261.816 404.689 261.574 405.104 261.09C405.521 260.602 405.734 259.902 405.742 258.992V258.518C405.742 257.592 405.541 256.885 405.139 256.396C404.736 255.908 404.152 255.664 403.387 255.664H402.35ZM413.354 261.014H410.049L409.357 263H407.816L411.039 254.469H412.369L415.598 263H414.051L413.354 261.014ZM410.465 259.818H412.938L411.701 256.279L410.465 259.818ZM418.475 258.512L420.438 254.469H422.078L419.219 259.859V263H417.73V259.859L414.865 254.469H416.512L418.475 258.512ZM430.58 259.959H431.641V261.102H430.58V263H429.156V261.102H425.471L425.43 260.234L429.109 254.469H430.58V259.959ZM426.924 259.959H429.156V256.396L429.051 256.584L426.924 259.959Z" fill="#DFDAE7"/>
  <path opacity="0.7" d="M536.867 263V254.469H539.387C540.141 254.469 540.809 254.637 541.391 254.973C541.977 255.309 542.43 255.785 542.75 256.402C543.07 257.02 543.23 257.727 543.23 258.523V258.951C543.23 259.76 543.068 260.471 542.744 261.084C542.424 261.697 541.965 262.17 541.367 262.502C540.773 262.834 540.092 263 539.322 263H536.867ZM538.35 255.664V261.816H539.316C540.094 261.816 540.689 261.574 541.104 261.09C541.521 260.602 541.734 259.902 541.742 258.992V258.518C541.742 257.592 541.541 256.885 541.139 256.396C540.736 255.908 540.152 255.664 539.387 255.664H538.35ZM549.354 261.014H546.049L545.357 263H543.816L547.039 254.469H548.369L551.598 263H550.051L549.354 261.014ZM546.465 259.818H548.938L547.701 256.279L546.465 259.818ZM554.475 258.512L556.438 254.469H558.078L555.219 259.859V263H553.73V259.859L550.865 254.469H552.512L554.475 258.512ZM562.145 258.77L562.607 254.469H567.189V255.699H563.791L563.557 257.738C563.951 257.512 564.396 257.398 564.893 257.398C565.705 257.398 566.336 257.658 566.785 258.178C567.238 258.697 567.465 259.396 567.465 260.275C567.465 261.143 567.215 261.834 566.715 262.35C566.215 262.861 565.529 263.117 564.658 263.117C563.877 263.117 563.229 262.896 562.713 262.455C562.201 262.01 561.924 261.424 561.881 260.697H563.258C563.312 261.111 563.461 261.43 563.703 261.652C563.945 261.871 564.262 261.98 564.652 261.98C565.09 261.98 565.43 261.824 565.672 261.512C565.918 261.199 566.041 260.773 566.041 260.234C566.041 259.715 565.906 259.305 565.637 259.004C565.367 258.699 564.996 258.547 564.523 258.547C564.266 258.547 564.047 258.582 563.867 258.652C563.688 258.719 563.492 258.852 563.281 259.051L562.145 258.77Z" fill="#DFDAE7"/>
  <path opacity="0.7" d="M675.867 263V254.469H678.387C679.141 254.469 679.809 254.637 680.391 254.973C680.977 255.309 681.43 255.785 681.75 256.402C682.07 257.02 682.23 257.727 682.23 258.523V258.951C682.23 259.76 682.068 260.471 681.744 261.084C681.424 261.697 680.965 262.17 680.367 262.502C679.773 262.834 679.092 263 678.322 263H675.867ZM677.35 255.664V261.816H678.316C679.094 261.816 679.689 261.574 680.104 261.09C680.521 260.602 680.734 259.902 680.742 258.992V258.518C680.742 257.592 680.541 256.885 680.139 256.396C679.736 255.908 679.152 255.664 678.387 255.664H677.35ZM688.354 261.014H685.049L684.357 263H682.816L686.039 254.469H687.369L690.598 263H689.051L688.354 261.014ZM685.465 259.818H687.938L686.701 256.279L685.465 259.818ZM693.475 258.512L695.438 254.469H697.078L694.219 259.859V263H692.73V259.859L689.865 254.469H691.512L693.475 258.512ZM705.193 254.428V255.605H705.018C704.221 255.617 703.584 255.836 703.107 256.262C702.631 256.688 702.348 257.291 702.258 258.072C702.715 257.592 703.299 257.352 704.01 257.352C704.764 257.352 705.357 257.617 705.791 258.148C706.229 258.68 706.447 259.365 706.447 260.205C706.447 261.072 706.191 261.775 705.68 262.314C705.172 262.85 704.504 263.117 703.676 263.117C702.824 263.117 702.133 262.803 701.602 262.174C701.074 261.545 700.811 260.721 700.811 259.701V259.215C700.811 257.719 701.174 256.547 701.9 255.699C702.631 254.852 703.68 254.428 705.047 254.428H705.193ZM703.664 258.5C703.352 258.5 703.064 258.588 702.803 258.764C702.545 258.939 702.355 259.174 702.234 259.467V259.9C702.234 260.533 702.367 261.037 702.633 261.412C702.898 261.783 703.242 261.969 703.664 261.969C704.086 261.969 704.42 261.811 704.666 261.494C704.912 261.178 705.035 260.762 705.035 260.246C705.035 259.73 704.91 259.311 704.66 258.986C704.41 258.662 704.078 258.5 703.664 258.5Z" fill="#DFDAE7"/>
  <path opacity="0.7" d="M798.867 263V254.469H801.387C802.141 254.469 802.809 254.637 803.391 254.973C803.977 255.309 804.43 255.785 804.75 256.402C805.07 257.02 805.23 257.727 805.23 258.523V258.951C805.23 259.76 805.068 260.471 804.744 261.084C804.424 261.697 803.965 262.17 803.367 262.502C802.773 262.834 802.092 263 801.322 263H798.867ZM800.35 255.664V261.816H801.316C802.094 261.816 802.689 261.574 803.104 261.09C803.521 260.602 803.734 259.902 803.742 258.992V258.518C803.742 257.592 803.541 256.885 803.139 256.396C802.736 255.908 802.152 255.664 801.387 255.664H800.35ZM811.354 261.014H808.049L807.357 263H805.816L809.039 254.469H810.369L813.598 263H812.051L811.354 261.014ZM808.465 259.818H810.938L809.701 256.279L808.465 259.818ZM816.475 258.512L818.438 254.469H820.078L817.219 259.859V263H815.73V259.859L812.865 254.469H814.512L816.475 258.512ZM829.441 255.26L826.031 263H824.537L827.941 255.611H823.529V254.469H829.441V255.26Z" fill="#DFDAE7"/>
  <path opacity="0.3" d="M141 167L2 212V240H417V121L279 152L141 167Z" fill="#2CAD6D"/>
  <path opacity="0.3" d="M558 76L417 121V240H830V30L696 61L558 76Z" fill="#433558"/>
  <path d="M2 211.5L140 167L278 152L416 121" stroke="#2CAD6D" stroke-width="3"/>
  <path d="M415 121L556 76L694 61L829 30.5" stroke="#433558" stroke-width="3" stroke-dasharray="8 4"/>
</svg>