<svg width="60" height="60" viewBox="0 0 60 60" fill="none" xmlns="http://www.w3.org/2000/svg">
<path d="M57.5 27.5H54.8737C53.6963 15.7074 44.2926 6.30371 32.5 5.12634V2.5C32.5 1.12 31.38 0 30 0C28.62 0 27.5 1.12 27.5 2.5V5.12634C15.7074 6.30371 6.30371 15.7074 5.12634 27.5H2.5C1.12 27.5 0 28.62 0 30C0 31.38 1.12 32.5 2.5 32.5H5.12634C6.30371 44.2926 15.7074 53.6975 27.5 54.8737V57.5C27.5 58.88 28.62 60 30 60C31.38 60 32.5 58.88 32.5 57.5V54.8737C44.2926 53.6975 53.6963 44.2926 54.8737 32.5H57.5C58.88 32.5 60 31.38 60 30C60 28.62 58.88 27.5 57.5 27.5ZM32.5 49.826V36.25C32.5 34.87 31.38 33.75 30 33.75C28.62 33.75 27.5 34.87 27.5 36.25V49.826C18.4711 48.6926 11.3074 41.5289 10.174 32.5H23.75C25.13 32.5 26.25 31.38 26.25 30C26.25 28.62 25.13 27.5 23.75 27.5H10.174C11.3074 18.4711 18.4711 11.3074 27.5 10.174V23.75C27.5 25.13 28.62 26.25 30 26.25C31.38 26.25 32.5 25.13 32.5 23.75V10.174C41.5289 11.3074 48.6926 18.4711 49.826 27.5H36.25C34.87 27.5 33.75 28.62 33.75 30C33.75 31.38 34.87 32.5 36.25 32.5H49.826C48.6926 41.5289 41.5289 48.6926 32.5 49.826Z" fill="#E7A957"/>
</svg>
