<svg width="55" height="60" viewBox="0 0 55 60" fill="none" xmlns="http://www.w3.org/2000/svg">
<path d="M52.4813 7.72374C25.41 -0.73639 28.2248 0.137528 28.0446 0.0905434C26.9769 -0.138259 26.3568 0.141942 26.4451 0.11546C18.2229 2.58217 42.7534 -4.98155 2.09809 7.72374C0.849858 8.11386 0 9.26983 0 10.5776V49.416C0 50.7237 0.849858 51.8797 2.09795 52.2698C26.9783 60.0457 26.5688 59.9123 26.5546 59.9086C27.0746 60.0405 27.6381 60.0271 28.1135 59.8846C28.1283 59.8809 46.2651 54.2126 52.4813 52.2698C53.7295 51.8797 54.5793 50.7237 54.5793 49.416V10.5776C54.5794 9.26983 53.7295 8.11386 52.4813 7.72374ZM24.2997 52.9434L5.9799 47.2179V12.7758L12.1506 10.8474V49.416C12.1506 51.0673 13.4892 52.4059 15.1405 52.4059C16.7918 52.4059 18.1305 51.0673 18.1305 49.416V8.97853L24.2997 7.05058V52.9434ZM48.5995 47.2178L30.2796 52.9432V7.05058L36.4489 8.97853V50.8293C36.4489 52.4807 37.7876 53.8193 39.4389 53.8193C41.0902 53.8193 42.4288 52.4807 42.4288 50.8293V10.8474L48.5995 12.7758V47.2178Z" fill="#91C426"/>
</svg>
