<svg width="60" height="53" viewBox="0 0 60 53" fill="none" xmlns="http://www.w3.org/2000/svg">
<path fill-rule="evenodd" clip-rule="evenodd" d="M30 1.07899e-07C28.8056 -0.000373491 27.8357 0.969489 27.8361 2.16388V11.6869C25.6487 12.2522 23.8943 14.0111 23.4362 16.3027L22.778 19.5986L16.2284 19.599C16.2174 19.5988 16.2067 19.6004 16.196 19.602C16.1874 19.6033 16.1788 19.6046 16.1701 19.605C11.8569 19.6165 7.80448 21.2989 4.75069 24.3527C1.68344 27.4199 -0.00298482 31.4966 3.96588e-06 35.8274C-0.00298482 40.1626 1.68344 44.2393 4.75069 47.3066C7.81793 50.3738 11.8946 52.0602 16.2254 52.0572C20.5928 52.0632 24.687 50.3413 27.6971 47.3312C28.2168 46.8115 28.6905 46.2392 29.1415 45.6448L30.8406 45.6455C33.9015 49.6868 38.6514 52.0651 43.7716 52.0572C48.1053 52.0602 52.182 50.3738 55.2493 47.3066C58.3165 44.2393 60.003 40.1626 60 35.8318C60.003 31.4966 58.3165 27.4199 55.2493 24.3527C52.1948 21.2981 48.1397 19.6147 43.8246 19.6042C43.8173 19.6039 43.8101 19.6029 43.8029 19.6019L43.8029 19.6019C43.7927 19.6005 43.7827 19.5991 43.7723 19.5997H37.4264L36.6217 16.1245C36.0968 13.8549 34.3457 12.1718 32.1631 11.657V2.16314C32.1635 0.968741 31.1951 0.000373661 30 1.07899e-07ZM55.6707 35.8318C55.6741 39.0086 54.4375 41.9973 52.1888 44.246C49.9401 46.4947 46.9513 47.7313 43.7694 47.7287C39.7147 47.7343 35.9787 45.7072 33.7745 42.3052C33.7728 42.3028 33.7711 42.3007 33.7694 42.2987C33.7676 42.2965 33.7659 42.2944 33.7644 42.2921C33.7083 42.2069 33.6422 42.1311 33.5746 42.0545C33.5672 42.0464 33.5602 42.0378 33.5533 42.0291C33.5486 42.0232 33.544 42.0173 33.5394 42.0114C33.5246 41.9924 33.5099 41.9734 33.4935 41.957C33.4497 41.9132 33.4007 41.8749 33.3517 41.8365L33.3516 41.8365C33.3442 41.8307 33.3368 41.8249 33.3294 41.8191C33.3223 41.8135 33.3152 41.8079 33.3082 41.8023C33.291 41.7885 33.2745 41.7738 33.258 41.7592C33.2297 41.7341 33.2014 41.709 33.17 41.688C33.1438 41.6705 33.1154 41.6563 33.087 41.6421C33.0689 41.633 33.0507 41.624 33.0332 41.614C33.0158 41.6041 32.9984 41.5938 32.9811 41.5836C32.9236 41.5498 32.8661 41.5159 32.805 41.4904C32.7733 41.4765 32.7403 41.4673 32.7071 41.4579C32.6874 41.4524 32.6676 41.4468 32.6481 41.4403C32.6299 41.4342 32.6118 41.4279 32.5938 41.4216C32.5312 41.3998 32.4688 41.3781 32.4041 41.3645C32.3779 41.359 32.3512 41.3568 32.3246 41.3547L32.3245 41.3547C32.3126 41.3538 32.3008 41.3528 32.289 41.3516C32.2824 41.3509 32.2758 41.3501 32.2692 41.3492L32.2549 41.3471L32.2548 41.347C32.1625 41.3335 32.0701 41.32 31.9763 41.3193C31.9736 41.3193 31.971 41.3188 31.9684 41.3183C31.9653 41.3178 31.9622 41.3172 31.9588 41.3174L28.0405 41.3167C28.0326 41.3163 28.0259 41.3185 28.0192 41.3178C27.9469 41.3184 27.8754 41.3285 27.8035 41.3386L27.8034 41.3386L27.7651 41.3439C27.7438 41.3466 27.7225 41.3485 27.7011 41.3503C27.6641 41.3535 27.6272 41.3566 27.5914 41.3645C27.5462 41.3741 27.5024 41.3893 27.4587 41.4045C27.4399 41.411 27.4212 41.4174 27.4024 41.4235C27.3818 41.4297 27.3612 41.4355 27.3405 41.4412C27.2901 41.4553 27.2398 41.4694 27.1924 41.4893C27.071 41.5404 26.954 41.6058 26.842 41.679C26.8382 41.6813 26.8337 41.6828 26.8293 41.6858C26.7503 41.7388 26.6786 41.8037 26.607 41.8684L26.592 41.8819C26.5807 41.892 26.5687 41.9014 26.5567 41.9109C26.5397 41.9244 26.5225 41.9379 26.5072 41.9533C26.4791 41.9813 26.4544 42.0131 26.4295 42.0451C26.4147 42.0642 26.3997 42.0834 26.3839 42.102C26.3693 42.1198 26.3544 42.1374 26.3395 42.155L26.3394 42.1551C26.3029 42.1982 26.2663 42.2413 26.2345 42.288C26.2325 42.2914 26.2297 42.2946 26.227 42.2979C26.2259 42.2992 26.2248 42.3005 26.2238 42.3018C26.2231 42.3027 26.2224 42.3036 26.2218 42.3044C24.0157 45.7083 20.2838 47.7358 16.2232 47.7287C13.0487 47.7313 10.0599 46.4947 7.81121 44.246C5.56252 41.9973 4.3259 39.0086 4.32927 35.8274C4.3259 32.6507 5.56252 29.6619 7.81121 27.4132C10.0599 25.1645 13.0487 23.9279 16.2254 23.9312C16.2314 23.9311 16.2374 23.9302 16.2434 23.9294H16.2435C16.2497 23.9286 16.2561 23.9277 16.2628 23.9275H24.52C24.5484 23.9282 24.5776 23.9282 24.6056 23.9271L35.7078 23.9275L35.7285 23.9275C35.7495 23.9276 35.7706 23.9277 35.7919 23.9271H43.7324C43.7406 23.9271 43.7483 23.9284 43.7561 23.9296C43.7618 23.9306 43.7677 23.9315 43.7738 23.932C46.9513 23.9279 49.9401 25.1645 52.1888 27.4132C54.4375 29.6619 55.6741 32.6507 55.6707 35.8318ZM27.192 19.5997L27.6807 17.1519C27.8354 16.3733 28.5265 15.8062 29.3215 15.8055H30.7748C31.5579 15.8062 32.2281 16.339 32.4048 17.1015L32.9843 19.5997H27.192ZM38.4165 41.1855C35.4639 38.233 35.4632 33.427 38.4165 30.4737C41.3698 27.5204 46.1758 27.5211 49.1283 30.4737C52.0809 33.4263 52.0816 38.2322 49.1283 41.1855C46.175 44.1388 41.369 44.1381 38.4165 41.1855ZM41.477 38.125C42.7424 39.3904 44.8024 39.3904 46.0678 38.125C47.3332 36.8596 47.3332 34.7996 46.0678 33.5342C44.8024 32.2688 42.7424 32.2688 41.477 33.5342C40.2116 34.7996 40.2116 36.8596 41.477 38.125ZM14.0638 31.2388C14.0634 30.0444 15.0333 29.0746 16.2277 29.0749C17.4228 29.0753 18.3912 30.0437 18.3915 31.2388V33.6657H20.8184C22.0136 33.6661 22.9819 34.6345 22.9823 35.8296C22.9831 36.4274 22.7406 36.968 22.3487 37.3599C21.9568 37.7518 21.4162 37.9943 20.8184 37.9935H18.3915V40.4204C18.3923 41.0182 18.1498 41.5588 17.7579 41.9507C17.366 42.3426 16.8254 42.585 16.2277 42.5843C15.0325 42.5839 14.0641 41.6156 14.0638 40.4204V37.9935H11.6369C10.4417 37.9931 9.47337 37.0248 9.47299 35.8296C9.47262 34.6352 10.4425 33.6654 11.6369 33.6657H14.0638V31.2388ZM31.5303 32.1354C32.7254 32.1358 33.6938 33.1042 33.6942 34.2993C33.6949 34.8971 33.4524 35.4377 33.0605 35.8296C32.6686 36.2215 32.128 36.464 31.5303 36.4632H28.4698C27.2746 36.4628 26.3062 35.4945 26.3059 34.2993C26.3055 33.1049 27.2754 32.1351 28.4698 32.1354H31.5303Z" fill="#E34F96"/>
</svg>
