<svg width="60" height="60" viewBox="0 0 60 60" fill="none" xmlns="http://www.w3.org/2000/svg">
<path d="M57.5 0H2.5C1.12 0 0 1.12 0 2.5V57.5C0 58.88 1.12 60 2.5 60H57.5C58.88 60 60 58.88 60 57.5V2.5C60 1.12 58.88 0 57.5 0ZM41.25 18.75V27.5H18.75V18.75H41.25ZM55 18.75V27.5H46.25V18.75H55ZM13.75 27.5H5V18.75H13.75V27.5ZM5 32.5H27.5V41.25H5V32.5ZM41.25 46.25V55H18.75V46.25H41.25ZM32.5 41.25V32.5H55V41.25H32.5ZM55 13.75H32.5V5H55V13.75ZM27.5 5V13.75H5V5H27.5ZM5 46.25H13.75V55H5V46.25ZM46.25 55V46.25H55V55H46.25Z" fill="#AA4FE3"/>
</svg>
