<svg width="60" height="60" viewBox="0 0 60 60" fill="none" xmlns="http://www.w3.org/2000/svg">
<path fill-rule="evenodd" clip-rule="evenodd" d="M55 22.5C55 21.12 56.12 20 57.5 20C58.88 20 60 21.12 60 22.5V52.5C60 56.6362 56.6362 60 52.5 60H7.5C3.36375 60 0 56.6362 0 52.5V7.5C0 3.36375 3.36375 0 7.5 0H37.5C38.88 0 40 1.12 40 2.5C40 3.88 38.88 5 37.5 5H7.5C6.12125 5 5 6.12125 5 7.5V52.5C5 53.8787 6.12125 55 7.5 55H52.5C53.8787 55 55 53.8787 55 52.5V22.5ZM19.9999 37.5V30.4287C19.9999 29.7662 20.2636 29.13 20.7324 28.6612L47.9286 1.465C49.8799 -0.483754 53.0511 -0.483754 54.9999 1.465L58.5349 5C60.4849 6.95 60.4849 10.1212 58.5349 12.0712L31.3386 39.2675C30.8699 39.7362 30.2336 40 29.5711 40H22.4999C21.1199 40 19.9999 38.88 19.9999 37.5ZM54.9999 8.53625L51.4624 4.99875L47.9261 8.535L51.4636 12.0725L54.9999 8.53625ZM44.3924 12.0687L24.9999 31.4637V35H28.5349L47.9299 15.6062L44.3924 12.0687Z" fill="#E34F4F"/>
</svg>
