<svg width="56" height="56" viewBox="0 0 56 56" fill="none" xmlns="http://www.w3.org/2000/svg">
<path d="M51.9993 48.6933L45.3057 41.9991C47.5213 39.3663 49.1263 36.4535 49.3638 34.0233C49.4896 32.7367 48.5485 31.5916 47.2619 31.4658C45.9754 31.3399 44.8304 32.2812 44.7046 33.5679C44.6745 33.8758 44.5982 34.2067 44.4829 34.5543L37.931 28.0023L51.9984 13.9315C52.2552 13.6747 52.4487 13.3616 52.5636 13.0172L55.8757 3.08707C56.4861 1.257 54.7452 -0.484404 52.9152 0.125473L42.9837 3.43557C42.639 3.55046 42.3256 3.74413 42.0687 4.00112L28.0001 18.0711L13.9313 4.002C13.6744 3.74512 13.3613 3.55156 13.0168 3.43667L3.08519 0.124266C1.25517 -0.48605 -0.486076 1.25536 0.124295 3.08554L3.4364 13.0179C3.55128 13.3626 3.74482 13.6756 4.00168 13.9325L18.0694 28.0026L11.4883 34.5843C11.3844 34.2541 11.3202 33.9419 11.3026 33.6541C11.2244 32.3637 10.1148 31.3809 8.82451 31.4593C7.53421 31.5376 6.55156 32.6472 6.6299 33.9376C6.73611 35.6876 7.6086 37.7132 8.94016 39.7102C8.95398 39.7321 8.96616 39.7548 8.98086 39.7765C9.03111 39.8507 9.08422 39.9248 9.13568 39.9989C9.13601 39.9993 9.13633 39.9998 9.13655 40.0002C9.22565 40.1286 9.31573 40.2567 9.40844 40.3847C9.48963 40.4973 9.57214 40.6096 9.65597 40.7218C9.67901 40.7526 9.70205 40.7833 9.72542 40.8141C10.0293 41.2168 10.3498 41.6157 10.6845 42.0088L4.00091 48.6932C3.08683 47.7791 1.60485 47.7791 0.690777 48.6933C-0.223297 49.6075 -0.223297 51.0897 0.690777 52.0038L2.32955 53.6428C2.33493 53.6482 2.33953 53.6544 2.34502 53.6599C2.35051 53.6654 2.35654 53.6699 2.36214 53.6754L4.00069 55.3141C4.91476 56.2282 6.39686 56.2282 7.31093 55.3141C8.22489 54.4 8.225 52.9181 7.31126 52.004L14.0048 45.3098C16.6375 47.5256 19.55 49.1308 21.98 49.3684C23.2666 49.4941 24.4115 48.553 24.5373 47.2663C24.6631 45.9796 23.722 44.8346 22.4354 44.7087C22.1274 44.6786 21.7962 44.6021 21.4483 44.4868L27.9991 37.9339L34.5805 44.5163C34.2508 44.62 33.939 44.6841 33.6515 44.7016C32.3612 44.7798 31.3786 45.8895 31.4569 47.1799C31.5353 48.4703 32.6447 49.4531 33.9351 49.3747C35.6894 49.2683 37.7206 48.3913 39.7223 47.0539C39.738 47.0438 39.7544 47.0353 39.7699 47.0248C39.8281 46.9855 39.886 46.9438 39.9441 46.9037C40.0027 46.8636 40.0612 46.8226 40.1197 46.7816C40.1817 46.738 40.2437 46.6955 40.3056 46.651C40.4482 46.5491 40.5903 46.4443 40.7323 46.3381C40.7552 46.3208 40.778 46.3037 40.801 46.2864C41.207 45.9802 41.6095 45.6571 42.0058 45.3196L48.6895 52.0038C47.7754 52.918 47.7754 54.4002 48.6895 55.3144C49.6036 56.2285 51.0857 56.2285 51.9997 55.3144L53.6409 53.673C53.6456 53.6684 53.6508 53.6646 53.6555 53.6599C53.6602 53.6552 53.6641 53.65 53.6687 53.6453L55.3094 52.0044C56.2235 51.0902 56.2235 49.608 55.3094 48.6939C54.3951 47.7798 52.9135 47.7796 51.9993 48.6933ZM44.9882 7.70252L49.9534 6.04769L48.2976 11.0119L34.6208 24.6919L31.3105 21.3815L44.9882 7.70252ZM6.04674 6.04736L11.0118 7.70329L26.3248 23.0166C26.3316 23.0236 26.3373 23.0312 26.3442 23.0381L32.966 29.6582C32.9667 29.6588 32.9673 29.6594 32.968 29.6599L41.9789 38.671C41.4743 39.2945 40.9257 39.9045 40.3477 40.4826C39.8065 41.0239 39.2484 41.5303 38.6815 41.9968L29.6603 32.9741C29.6581 32.9719 29.6563 32.9695 29.6541 32.9673L23.0346 26.3472C23.034 26.3466 23.0333 26.3461 23.0328 26.3455L7.70252 11.0128L6.04674 6.04736ZM17.3317 41.9825C16.8688 41.6077 16.412 41.2074 15.969 40.7882C15.9667 40.786 15.9644 40.7838 15.9621 40.7815C15.8372 40.6632 15.714 40.5427 15.5916 40.4215C15.5543 40.3846 15.5172 40.3476 15.4802 40.3105C14.9508 39.7759 14.4605 39.2351 14.0079 38.6855L21.3795 31.3132L24.6888 34.6231L17.3317 41.9825Z" fill="#E3734F"/>
</svg>
