<svg width="60" height="60" viewBox="0 0 60 60" fill="none" xmlns="http://www.w3.org/2000/svg">
<path d="M1.24288 42.4029C1.24288 48.2733 5.32107 53.3069 10.9198 54.6174C13.2607 57.9539 17.0947 60 21.2015 60C24.4898 60 27.6114 58.6871 29.9315 56.4534C32.251 58.6883 35.3725 60 38.6615 60C43.3194 60 47.57 57.3851 49.7348 53.3033C53.6431 51.0983 56.1337 46.9452 56.1337 42.4017C56.1337 41.6899 56.0692 40.9835 55.9516 40.2893C58.421 37.9429 59.863 34.6619 59.863 31.206C59.863 27.0219 57.7724 23.1982 54.4128 20.8933C54.7173 19.8033 54.8915 18.67 54.8915 17.5222C54.8915 10.6044 49.2683 4.9764 42.3567 4.9764C41.5796 4.9764 40.8136 5.0507 40.0603 5.19076C37.7383 1.95415 34.0243 0 29.9315 0C25.7559 0 21.9347 2.09116 19.6224 5.45139C18.5409 5.14691 17.4211 4.97458 16.2628 4.97458C9.35116 4.97458 3.72743 10.6032 3.72743 17.5209C3.72743 17.8601 3.75118 18.1835 3.77493 18.5074C1.36041 20.8538 0 24.0477 0 27.4743C0 30.5453 1.1558 33.4957 3.15014 35.7604C1.91152 37.731 1.24288 40.0183 1.24288 42.4029ZM16.2628 9.96498C17.4485 9.96498 18.5683 10.2293 19.5902 10.7505C19.6121 10.7615 19.6358 10.7664 19.6596 10.7779C19.6821 10.7889 19.7022 10.8041 19.726 10.8151C19.7796 10.8388 19.8344 10.848 19.888 10.8662C19.9726 10.8961 20.0579 10.9277 20.1449 10.9472C20.2247 10.9661 20.3033 10.9771 20.383 10.9886C20.4665 10.9996 20.5493 11.0112 20.6327 11.0136C20.6625 11.0148 20.6924 11.0221 20.7222 11.0221C20.7563 11.0221 20.7862 11.01 20.8197 11.0087C20.9981 11.0008 21.1741 10.9771 21.3458 10.9326C21.3823 10.9223 21.4195 10.9186 21.4554 10.9089C21.6539 10.848 21.8409 10.7591 22.0181 10.6519C22.0619 10.6257 22.1015 10.5946 22.1441 10.5648C22.2903 10.4637 22.4249 10.3474 22.5467 10.214C22.5759 10.183 22.6069 10.158 22.6344 10.1257C22.7525 9.98447 22.8597 9.83223 22.9461 9.66172C22.9608 9.6331 22.9675 9.60326 22.9796 9.57403C22.9869 9.55698 23.0022 9.5442 23.0095 9.52714C24.2134 6.771 26.9305 4.9898 29.9315 4.9898C32.8198 4.9898 35.4048 6.59623 36.6769 9.18126C36.6946 9.21779 36.7208 9.24763 36.7396 9.28234C36.7817 9.35968 36.8279 9.43336 36.8779 9.50461C36.9242 9.57038 36.9717 9.63432 37.024 9.694C37.0776 9.75672 37.1324 9.81518 37.1921 9.87121C37.2506 9.92845 37.3121 9.98204 37.3754 10.032C37.4381 10.0807 37.5014 10.1257 37.5678 10.1678C37.636 10.2116 37.7048 10.253 37.7773 10.2902C37.8479 10.3261 37.9204 10.359 37.9941 10.3876C38.0678 10.4162 38.1415 10.4436 38.2164 10.4649C38.2949 10.4875 38.3735 10.5057 38.4545 10.521C38.5306 10.5362 38.6067 10.5471 38.6853 10.5545C38.7675 10.5624 38.8485 10.5648 38.9307 10.5648C39.0104 10.5648 39.0902 10.5605 39.1712 10.552C39.251 10.5435 39.3308 10.5307 39.4124 10.5149C39.4958 10.4972 39.5768 10.4771 39.659 10.4509C39.6992 10.4388 39.7388 10.4351 39.7777 10.4199C40.5992 10.1166 41.4676 9.96316 42.3579 9.96316C46.5183 9.96316 49.9041 13.3544 49.9041 17.5209C49.9041 18.7023 49.6325 19.8593 49.1198 20.8684C49.1088 20.8909 49.1039 20.9159 49.0924 20.9396C49.0814 20.9634 49.0649 20.9835 49.0552 21.0072C49.0315 21.062 49.0211 21.118 49.0016 21.1741C48.973 21.2551 48.9438 21.3348 48.9243 21.417C48.9042 21.4968 48.8938 21.5766 48.8829 21.6582C48.8719 21.7392 48.8591 21.819 48.8567 21.8999C48.853 21.9822 48.8579 22.0631 48.8628 22.1441C48.8676 22.2227 48.8719 22.3013 48.8841 22.3786C48.8969 22.4596 48.9164 22.5369 48.9365 22.6155C48.9566 22.6916 48.9754 22.7665 49.0016 22.8414C49.029 22.9175 49.0625 22.99 49.0972 23.0624C49.1313 23.1331 49.1648 23.2043 49.2044 23.2731C49.2458 23.3426 49.2945 23.4077 49.342 23.4723C49.3895 23.5362 49.4352 23.5996 49.4876 23.6598C49.5424 23.722 49.6051 23.7768 49.666 23.834C49.7244 23.8876 49.7823 23.9412 49.8468 23.9899C49.9157 24.041 49.9906 24.0861 50.0655 24.13C50.1148 24.1598 50.1574 24.1957 50.2098 24.2231C50.2311 24.2335 50.2524 24.2371 50.2737 24.2469C50.2999 24.2597 50.3218 24.2767 50.348 24.2895C53.0981 25.4818 54.8744 28.1978 54.8744 31.206C54.8744 33.6358 53.6979 35.9279 51.7291 37.3395C51.7029 37.3583 51.6841 37.3821 51.6591 37.4004C51.5854 37.457 51.5197 37.5179 51.4533 37.5812C51.3985 37.6336 51.3461 37.686 51.2974 37.7426C51.2426 37.8059 51.1939 37.8735 51.1464 37.9417C51.1013 38.0069 51.0556 38.0714 51.0167 38.1402C50.9771 38.2103 50.9442 38.2833 50.9107 38.357C50.8784 38.4295 50.8474 38.5007 50.8224 38.5744C50.7962 38.653 50.7773 38.7328 50.7585 38.8138C50.7414 38.8887 50.725 38.9623 50.714 39.0378C50.7024 39.1194 50.7 39.2017 50.6976 39.2839C50.6951 39.3649 50.6927 39.4446 50.6976 39.5256C50.7024 39.6005 50.714 39.6754 50.7262 39.7515C50.7402 39.8423 50.7572 39.9324 50.781 40.0207C50.7883 40.0493 50.7895 40.0798 50.7986 40.1096C51.0282 40.8489 51.1451 41.6198 51.1451 42.4029C51.1451 45.3564 49.4114 48.0553 46.7278 49.2775C46.0068 49.6051 45.5281 50.2378 45.3509 50.9497C44.0502 53.4239 41.4785 55.0114 38.6615 55.0114C36.1697 55.0114 33.8398 53.7557 32.4258 51.7151V17.2232C32.4258 15.8463 31.3083 14.7289 29.9315 14.7289C28.5546 14.7289 27.4372 15.8463 27.4372 17.2232V51.7151C26.0226 53.7557 23.6933 55.0114 21.2015 55.0114C18.6506 55.0114 16.2738 53.6997 14.8732 51.5769C14.5742 50.7037 13.8093 50.0277 12.832 49.9059C9.06799 49.4334 6.23025 46.2077 6.23025 42.4029C6.23025 41.1199 6.57735 39.8989 7.17474 38.8064C8.8372 39.5993 10.6519 40.0207 12.5336 40.0207C13.9104 40.0207 15.0279 38.9033 15.0279 37.5264C15.0279 36.1496 13.9104 35.0321 12.5336 35.0321C10.8839 35.0321 9.31584 34.506 7.99135 33.503C6.11089 32.0915 4.98858 29.8377 4.98858 27.4743C4.98858 25.1098 6.06339 22.9285 7.93776 21.4919C7.98161 21.4585 8.0151 21.4158 8.05773 21.3799C8.12593 21.3202 8.19475 21.2599 8.25564 21.1929C8.31106 21.1327 8.35673 21.0693 8.40544 21.0054C8.45416 20.9408 8.50288 20.8787 8.54368 20.8099C8.5863 20.7399 8.62102 20.6662 8.65755 20.5943C8.69226 20.5219 8.72758 20.4506 8.75499 20.3757C8.78239 20.302 8.80066 20.2278 8.82075 20.1528C8.84207 20.0731 8.86338 19.9927 8.87678 19.9093C8.88957 19.8307 8.89444 19.7522 8.89931 19.6736C8.90418 19.5926 8.91088 19.5128 8.90844 19.4318C8.9054 19.3405 8.892 19.251 8.87921 19.1609C8.87191 19.1061 8.87312 19.0525 8.86216 18.9989C8.76473 18.5361 8.71723 18.0538 8.71723 17.5234C8.71601 13.3557 12.1018 9.96498 16.2628 9.96498Z" fill="#4FD1E3"/>
</svg>
