<svg width="60" height="60" viewBox="0 0 60 60" fill="none" xmlns="http://www.w3.org/2000/svg">
<path fill-rule="evenodd" clip-rule="evenodd" d="M56.8419 0.089524C57.5957 -0.114223 58.3981 0.0420247 59.0169 0.514519C59.6355 0.987013 59.9992 1.72075 59.9992 2.50074V42.5002C59.9992 43.6277 59.2442 44.6152 58.158 44.9127L50.7356 46.9364C49.4031 47.2989 48.0294 46.5127 47.6656 45.1827C47.3031 43.8502 48.0881 42.4765 49.4194 42.1127L54.9993 40.5915V5.77445L42.3632 9.22066C42.4445 9.4669 42.4994 9.7269 42.4994 10.0006V57.5C42.4994 58.88 41.3795 60 39.9995 60C38.6195 60 37.4995 58.88 37.4995 57.5V10.5469L32.4996 11.9106V50.0001C32.4996 50.1876 32.4758 50.3676 32.4383 50.5439C32.4318 50.5729 32.4223 50.6003 32.4128 50.6277C32.4059 50.6475 32.3991 50.6672 32.3933 50.6876C32.3571 50.8126 32.3158 50.9339 32.2621 51.0501C32.2425 51.0921 32.2201 51.1312 32.1976 51.1707C32.1899 51.1842 32.1822 51.1977 32.1746 51.2114C32.1171 51.3139 32.0546 51.4126 31.9846 51.5051C31.9458 51.5576 31.9046 51.6076 31.8608 51.6564C31.7821 51.7451 31.6971 51.8264 31.6058 51.9026C31.5902 51.9153 31.5765 51.9297 31.563 51.944C31.5484 51.9594 31.5339 51.9747 31.5171 51.9876C31.5104 51.9925 31.5032 51.9955 31.496 51.9986C31.4885 52.0018 31.481 52.005 31.4746 52.0101C31.2846 52.1501 31.0746 52.2601 30.8483 52.3426C30.8215 52.3518 30.7951 52.3596 30.7687 52.3674C30.752 52.3723 30.7353 52.3773 30.7184 52.3826C30.4896 52.4514 30.2509 52.5001 29.9996 52.5001C29.7921 52.5001 29.5946 52.4676 29.4034 52.4214C29.3934 52.4188 29.3831 52.4179 29.3727 52.417C29.3624 52.416 29.3521 52.4151 29.3421 52.4126L1.84248 44.9127C0.75499 44.6152 0 43.6277 0 42.5002V2.50074C0 1.72075 0.363745 0.987013 0.982487 0.513269C1.60123 0.0395247 2.40622 -0.116723 3.15746 0.088274L29.9996 7.40943L56.8419 0.089524ZM4.99998 40.5915L27.4997 46.7277V11.9106L4.99998 5.77446V40.5915Z" fill="#3E85C8"/>
</svg>
