<svg width="60" height="44" viewBox="0 0 60 44" fill="none" xmlns="http://www.w3.org/2000/svg">
<path d="M58.996 13.7489C60.1396 12.2253 60.3196 10.2205 59.4672 8.51563C58.6148 6.80954 56.9012 5.74964 54.9976 5.74964H44.8211C44.8211 0 42.3226 0 39.999 0H20.0009C17.6774 0 15.0014 0 15.1789 5.74964H5.00237C3.09881 5.74964 1.38522 6.80954 0.532799 8.51688C-0.31962 10.2205 -0.139637 12.2265 1.004 13.7501C1.04525 13.8051 1.089 13.8589 1.13399 13.9114L4.98988 18.2485L1.13399 22.5868C1.089 22.6393 1.04525 22.693 1.004 22.748C-0.139637 24.2716 -0.31962 26.2764 0.532799 27.9813C1.38522 29.6874 3.09881 30.7473 5.00237 30.7473H15.3389C15.5476 31.1085 15.8438 31.4185 16.2138 31.6409L28.7126 43.1402C29.1101 43.3777 29.555 43.4964 30 43.4964C30.445 43.4964 30.8899 43.3777 31.2861 43.1402L43.7849 31.6409C44.1549 31.4197 44.4511 31.1085 44.6599 30.7473H54.9976C56.9012 30.7473 58.6148 29.6874 59.4672 27.98C60.3196 26.2764 60.1396 24.2704 58.996 22.7468C58.9548 22.6918 58.911 22.638 58.866 22.5855L55.0101 18.2485L58.866 13.9101C58.911 13.8576 58.9548 13.8039 58.996 13.7489ZM9.00449 15.2525C8.962 15.1962 8.917 15.1413 8.87076 15.0875L5.01487 10.7492H15.0014V25.7477H5.01487L8.87076 21.4094C8.917 21.3557 8.962 21.3007 9.00449 21.2444C10.3219 19.4796 10.3219 17.0173 9.00449 15.2525ZM30 37.082L20.0009 28.0813L19.9972 6.28315C19.9972 6.2719 20.0009 6.26066 20.0009 6.24941C20.0009 6.23816 19.9972 6.22691 19.9972 6.21566V4.99953H39.999V28.0813L30 37.082ZM50.9955 21.2444C51.038 21.3007 51.083 21.3557 51.1292 21.4094L54.9851 25.7477H44.9986V10.7492H54.9851L51.1292 15.0875C51.083 15.1413 51.038 15.1962 50.9955 15.2525C49.6781 17.0173 49.6781 19.4796 50.9955 21.2444Z" fill="#6533D1"/>
</svg>
