<svg width="60" height="60" viewBox="0 0 60 60" fill="none" xmlns="http://www.w3.org/2000/svg">
<path fill-rule="evenodd" clip-rule="evenodd" d="M8.79156 8.79169C20.5144 -2.9315 39.4874 -2.92963 51.2084 8.79169C62.9314 20.5146 62.9296 39.4874 51.2084 51.2085C39.4856 62.9316 20.5126 62.9298 8.79156 51.2085C-2.9314 39.4856 -2.92964 20.5129 8.79156 8.79169ZM4.9338 30.0001C4.9338 43.8215 16.1785 55.0662 29.9999 55.0662C43.8214 55.0662 55.0661 43.8215 55.0661 30.0001C55.0661 16.1786 43.8213 4.93394 29.9999 4.93394C16.1786 4.93394 4.9338 16.1786 4.9338 30.0001ZM44.8708 36.793C45.1042 37.5652 44.9389 38.3728 44.4859 38.9799C44.4674 39.0046 44.4555 39.0218 44.4431 39.0387C44.3695 39.1396 44.28 39.2289 42.6905 40.8166L42.6901 40.817L42.689 40.8182C42.1508 41.3558 41.4408 42.065 40.5014 43.0043C39.5393 43.9664 37.9794 43.9663 37.0174 43.0043C36.1532 42.1401 36.068 40.7947 36.7564 39.8324C34.2372 39.4881 31.8118 38.5055 29.7728 36.9762C28.6842 36.1599 28.4637 34.6157 29.28 33.5272C30.0965 32.4388 31.6406 32.218 32.729 33.0345C33.8555 33.8793 35.1578 34.4748 36.526 34.7885C36.1045 33.8775 36.2664 32.7632 37.0174 32.0121C37.9795 31.05 39.5393 31.05 40.5014 32.0121C41.3082 32.8189 41.9574 33.4627 42.4817 33.9827L42.482 33.983L42.482 33.983C44.6026 36.086 44.6796 36.1624 44.8708 36.793ZM44.9492 22.1406C44.8242 21.2697 44.5913 21.04 42.4356 18.9141C41.9127 18.3984 41.2766 17.7711 40.5014 16.996C39.5393 16.0339 37.9795 16.0339 37.0174 16.996C36.1535 17.8599 36.068 19.2043 36.7554 20.1666C32.8176 20.705 29.187 22.8072 26.7778 26.0193L23.0237 31.0247C21.1358 33.5418 18.1302 35.0447 14.9837 35.0447C13.6231 35.0447 12.5201 36.1477 12.5201 37.5083C12.5201 38.8689 13.6231 39.9719 14.9837 39.9719C19.6728 39.9719 24.152 37.7323 26.9654 33.9812L30.7194 28.9757C32.1531 27.0643 34.2315 25.7386 36.5264 25.2109C35.7691 26.8449 36.9623 28.7099 38.7593 28.7099C39.3899 28.7099 40.0203 28.4694 40.5013 27.9884C41.4083 27.0814 42.1032 26.3878 42.6377 25.8544C44.2678 24.2274 44.405 24.0904 44.5131 23.9334C44.523 23.9189 44.5327 23.9043 44.5433 23.8884C44.5491 23.8795 44.5553 23.8702 44.5619 23.8604C44.8901 23.3694 45.0394 22.7698 44.9492 22.1406ZM21.0142 26.9657C19.2858 25.6694 17.1441 24.9556 14.9838 24.9556C13.6232 24.9556 12.5201 23.8526 12.5201 22.492C12.5201 21.1314 13.623 20.0284 14.9837 20.0284C18.2031 20.0284 21.3946 21.0922 23.9704 23.024C25.8643 24.4442 24.8479 27.4586 22.4903 27.4586C21.976 27.4586 21.4574 27.2982 21.0142 26.9657Z" fill="#DD2678"/>
</svg>
