<svg width="60" height="60" viewBox="0 0 60 60" fill="none" xmlns="http://www.w3.org/2000/svg">
<path d="M43.75 20.1263V5H47.5C48.88 5 50 3.88 50 2.5C50 1.12 48.88 0 47.5 0H12.5C11.12 0 10 1.12 10 2.5C10 3.88 11.12 5 12.5 5H16.25V20.1263C16.25 24.0735 18.5815 27.6611 22.1887 29.2664L23.844 30L22.1887 30.7361C18.5815 32.3389 16.25 35.9265 16.25 39.8737V55H12.5C11.12 55 10 56.12 10 57.5C10 58.88 11.12 60 12.5 60H47.5C48.88 60 50 58.88 50 57.5C50 56.12 48.88 55 47.5 55H43.75V39.8737C43.75 35.9265 41.4185 32.3389 37.8113 30.7336L36.156 30L37.8113 29.2639C41.4185 27.6611 43.75 24.0735 43.75 20.1263ZM21.6187 55C22.6978 51.3898 26.0449 48.75 30 48.75C33.9551 48.75 37.3022 51.3898 38.3813 55H21.6187ZM38.75 39.8737V46.9012C36.3715 44.9335 33.3215 43.75 30 43.75C26.6785 43.75 23.6285 44.9335 21.25 46.9012V39.8737C21.25 37.8998 22.4152 36.1047 24.2188 35.3052L30 32.735L35.7812 35.304C37.5848 36.106 38.75 37.8998 38.75 39.8737ZM35.7812 24.6948L30 27.265L24.2188 24.696C22.4152 23.894 21.25 22.1002 21.25 20.1263V5H38.75V20.1263C38.75 22.1002 37.5848 23.894 35.7812 24.6948Z" fill="#3157DE"/>
</svg>
