<svg width="24" height="24" viewBox="0 0 24 24" fill="none" xmlns="http://www.w3.org/2000/svg">
<path fill-rule="evenodd" clip-rule="evenodd" d="M5.29804 1.97132H18.702C19.2626 1.97132 19.717 1.53002 19.717 0.985659C19.717 0.441294 19.2626 0 18.702 0H5.29804C4.7375 0 4.28308 0.441294 4.28308 0.985659C4.28308 1.53002 4.73754 1.97132 5.29804 1.97132ZM20.2486 5.4759H3.75138C3.19088 5.4759 2.73642 5.03461 2.73642 4.49024C2.73642 3.94587 3.19083 3.50458 3.75138 3.50458H20.2486C20.8091 3.50458 21.2635 3.94587 21.2635 4.49024C21.2635 5.03461 20.8091 5.4759 20.2486 5.4759ZM3.52875 7.00912H20.4712C22.5989 7.00912 24.251 8.82991 23.9684 10.8883L22.5765 21.0265C22.3438 22.7217 20.8403 24 19.0793 24H4.9207C3.15974 24 1.65619 22.7217 1.42352 21.0265L0.0315279 10.8883C-0.250777 8.8323 1.39897 7.00912 3.52875 7.00912ZM20.5644 20.766L21.9564 10.6278C22.0771 9.74845 21.3727 8.98044 20.4712 8.98044H3.52875C2.62886 8.98044 1.92269 9.74714 2.04357 10.6278L3.43557 20.766C3.5344 21.4859 4.17286 22.0287 4.9207 22.0287H19.0792C19.8271 22.0287 20.4655 21.4858 20.5644 20.766ZM12 11.5506C15.0115 11.5506 16.6729 14.9451 14.8072 17.213C15.3681 17.4909 15.8943 17.857 16.3631 18.3121C16.7594 18.697 16.7594 19.3211 16.3631 19.7061C15.9667 20.091 15.324 20.091 14.9277 19.7061C13.3134 18.1383 10.6866 18.1383 9.07229 19.7061C8.67592 20.091 8.03326 20.091 7.63689 19.7061C7.24057 19.3212 7.24057 18.6971 7.63689 18.3121C8.10561 17.857 8.63179 17.4909 9.19278 17.213C7.3265 14.9445 8.98906 11.5506 12 11.5506ZM13.5627 15.0395C13.5627 14.2027 12.8616 13.5219 12 13.5219C11.1383 13.5219 10.4373 14.2026 10.4373 15.0395C10.4373 15.8763 11.1383 16.5571 12 16.5571C12.8616 16.5571 13.5627 15.8762 13.5627 15.0395Z" fill="#DD2678"/>
</svg>
