<svg width="60" height="60" viewBox="0 0 60 60" fill="none" xmlns="http://www.w3.org/2000/svg">
<g clip-path="url(#clip0)">
<path d="M54.4765 13.1797H34.4156C35.1171 12.0482 35.5235 10.7155 35.5235 9.28906C35.5235 5.2052 32.201 1.88281 28.1173 1.88281C24.0335 1.88281 20.711 5.2052 20.711 9.28906C20.711 10.7155 21.1173 12.0482 21.8189 13.1797H5.5234C2.47441 13.1797 0 15.6475 0 18.7031C0 21.7487 2.47781 24.2265 5.5234 24.2265H20.7109V31.8827V32.0076H16.8203C11.6982 32.0076 7.53117 36.1747 7.53117 41.2967V52.5936C7.53117 55.6381 9.99281 58.117 13.0546 58.117C16.1059 58.117 18.578 55.6493 18.578 52.5936V43.0545H27.3889L40.8337 56.4998C42.9677 58.6337 46.4646 58.6801 48.6455 56.4992C50.8016 54.341 50.8058 50.8486 48.645 48.6884L38.1277 38.1712C36.4482 36.4913 35.5233 34.2583 35.5233 31.8827V24.2265H54.4762C57.533 24.2265 59.9998 21.7528 59.9998 18.7031C60 15.653 57.5316 13.1797 54.4765 13.1797ZM28.1173 5.39844C30.2626 5.39844 32.0079 7.14371 32.0079 9.28906C32.0079 11.4344 30.2625 13.1797 28.1173 13.1797C25.972 13.1797 24.2266 11.4343 24.2266 9.28906C24.2266 7.14383 25.9719 5.39844 28.1173 5.39844ZM5.5234 20.711C4.41633 20.711 3.51562 19.8103 3.51562 18.7032C3.51562 17.5752 4.43555 16.6954 5.5234 16.6954H21.0879C20.8445 17.3175 20.7109 17.9941 20.7109 18.7013V20.711H5.5234ZM15.0625 52.5937C15.0625 53.7016 14.1675 54.6015 13.0547 54.6015C11.9381 54.6015 11.0469 53.6976 11.0469 52.5937V48.7031H15.0626V52.5937H15.0625ZM16.8203 39.539C15.8495 39.539 15.0625 40.3261 15.0625 41.2968V45.1875H11.0469V41.2968C11.0469 38.1133 13.6369 35.5234 16.8204 35.5234H20.958C21.2496 36.5335 21.7932 37.4589 22.5572 38.2224L23.8737 39.5389H16.8203V39.539ZM24.2265 18.7031C24.2265 17.5906 25.1284 16.6953 26.2343 16.6953H28.6192C28.3758 17.3173 28.2422 17.994 28.2422 18.7012V18.7031C28.2422 21.1346 29.8213 23.204 32.0079 23.9398V30.125H24.2266V18.7031H24.2265ZM46.1595 51.1746C46.9445 51.9596 46.9433 53.2291 46.1592 54.0139C45.3743 54.7987 44.1033 54.7972 43.3199 54.0139L40.5687 51.2625L43.4081 48.4229L46.1595 51.1746ZM35.6419 40.6571L40.9222 45.9371L38.0829 48.7767L25.1972 35.8907C24.6025 35.2963 24.2523 34.4807 24.228 33.6406H32.1307C32.5035 36.288 33.7178 38.7324 35.6419 40.6571ZM54.4765 20.711H33.7657C32.6505 20.711 31.7578 19.8089 31.7578 18.7032C31.7578 17.5907 32.6597 16.6954 33.7657 16.6954H54.4765C55.5648 16.6954 56.4844 17.5753 56.4844 18.7032C56.4844 19.8116 55.5889 20.711 54.4765 20.711Z" fill="#6533D1"/>
</g>
<defs>
<clipPath id="clip0">
<rect width="60" height="60" fill="white"/>
</clipPath>
</defs>
</svg>
