<svg width="60" height="60" viewBox="0 0 60 60" fill="none" xmlns="http://www.w3.org/2000/svg">
<path fill-rule="evenodd" clip-rule="evenodd" d="M57.5 0H2.5C1.12 0 0 1.12 0 2.5V42.5C0 43.88 1.12 45 2.5 45H57.5C58.88 45 60 43.88 60 42.5V2.5C60 1.12 58.88 0 57.5 0ZM55 40H5V5H55V40ZM23.7689 32.1755C24.1498 32.3927 24.5752 32.5002 25 32.5002C25.4449 32.5002 25.8911 32.3811 26.286 32.1437L38.786 24.6437C39.5398 24.1927 40 23.3778 40 22.5002C40 21.6225 39.5398 20.8076 38.786 20.3566L26.286 12.8566C25.5139 12.3915 24.5502 12.3799 23.7677 12.8249C22.9852 13.2674 22.5 14.0987 22.5 15.0001V30.0002C22.5 30.9017 22.9852 31.733 23.7689 32.1755ZM27.5 19.4154L32.6398 22.5002L27.5 25.5849V19.4154ZM15 51.2502H57.5C58.88 51.2502 60 52.3702 60 53.7502C60 55.1302 58.88 56.2502 57.5 56.2502H15V57.5002C15 58.8802 13.88 60.0002 12.5 60.0002C11.12 60.0002 10 58.8802 10 57.5002V56.2502H2.5C1.12 56.2502 0 55.1302 0 53.7502C0 52.3702 1.12 51.2502 2.5 51.2502H10V50.0002C10 48.6202 11.12 47.5002 12.5 47.5002C13.88 47.5002 15 48.6202 15 50.0002V51.2502Z" fill="#594FE3"/>
</svg>
