<svg width="20" height="20" viewBox="0 0 20 20" fill="none" xmlns="http://www.w3.org/2000/svg">
<g clip-path="url(#clip0)">
<path d="M2.98337 17.6633H14.8659L14.2984 15.8258L15.6559 16.9908L16.9 18.1058L19.1667 20V2.0625C19.11 0.9475 18.15 0 16.96 0L2.98754 0.0025C1.79837 0.0025 0.833374 0.951667 0.833374 2.06667V15.6C0.833374 16.7758 1.79671 17.6633 2.98337 17.6633ZM11.7734 4.73583L11.7459 4.74583L11.7559 4.73583H11.7734ZM5.41421 5.79333C6.94171 4.68167 8.35754 4.735 8.35754 4.735L8.47171 4.8475C6.60254 5.29333 5.75504 6.12833 5.75504 6.12833C5.75504 6.12833 5.98171 6.0175 6.37754 5.84833C8.89504 4.85833 11.6442 4.93 14.1892 6.18333C14.1892 6.18333 13.34 5.4025 11.5859 4.9025L11.7409 4.75C11.9834 4.75083 13.2667 4.79583 14.64 5.8C14.64 5.8 16.1767 8.425 16.1767 11.65C16.1259 11.5883 15.2234 13.0383 12.9009 13.0883C12.9009 13.0883 12.5075 12.6433 12.2275 12.255C13.5859 11.865 14.0942 11.085 14.0942 11.085C13.6484 11.3658 13.2417 11.5325 12.9117 11.6992C12.4042 11.9225 11.8959 12.0325 11.3884 12.145C8.98504 12.535 7.63587 11.8825 6.36087 11.365L5.92504 11.1433C5.92504 11.1433 6.43254 11.9233 7.73671 12.3133C7.39421 12.7042 7.05504 13.1483 7.05504 13.1483C4.73337 13.0933 3.88671 11.6433 3.88671 11.6433C3.88671 8.41333 5.41421 5.79333 5.41421 5.79333Z" fill="#C84461"/>
<path d="M11.9233 10.6425C12.5158 10.6425 12.9983 10.1425 12.9983 9.52583C12.9983 8.91333 12.5183 8.41333 11.9233 8.41333V8.41583C11.3333 8.41583 10.85 8.91416 10.8483 9.53083C10.8483 10.1425 11.3308 10.6425 11.9233 10.6425Z" fill="#C84461"/>
<path d="M8.075 10.6425C8.66749 10.6425 9.14999 10.1425 9.14999 9.52583C9.14999 8.91333 8.67083 8.41333 8.07833 8.41333L8.075 8.41583C7.4825 8.41583 7 8.91416 7 9.53083C7 10.1425 7.4825 10.6425 8.075 10.6425Z" fill="#C84461"/>
</g>
<defs>
<clipPath id="clip0">
<rect width="20" height="20" fill="white"/>
</clipPath>
</defs>
</svg>
