<svg width="20" height="20" viewBox="0 0 20 20" fill="none" xmlns="http://www.w3.org/2000/svg">
<g clip-path="url(#clip0)">
<path d="M10.0033 4.86499C7.16751 4.86499 4.87167 7.16332 4.87167 9.99666C4.87167 12.8325 7.17001 15.1283 10.0033 15.1283C12.8392 15.1283 15.135 12.83 15.135 9.99666C15.135 7.16082 12.8367 4.86499 10.0033 4.86499ZM10.0033 13.3275C8.16251 13.3275 6.67251 11.8367 6.67251 9.99666C6.67251 8.15666 8.16334 6.66582 10.0033 6.66582C11.8433 6.66582 13.3342 8.15666 13.3342 9.99666C13.335 11.8367 11.8442 13.3275 10.0033 13.3275Z" fill="#C84461"/>
<path d="M14.1234 0.0633105C12.2834 -0.0225228 7.72587 -0.0183562 5.8842 0.0633105C4.26587 0.139144 2.83837 0.529977 1.68754 1.68081C-0.235797 3.60414 0.0100368 6.19581 0.0100368 9.99664C0.0100368 13.8866 -0.20663 16.4183 1.68754 18.3125C3.61837 20.2425 6.24754 19.99 10.0034 19.99C13.8567 19.99 15.1867 19.9925 16.5492 19.465C18.4017 18.7458 19.8 17.09 19.9367 14.1158C20.0234 12.275 20.0184 7.71831 19.9367 5.87664C19.7717 2.36581 17.8875 0.236644 14.1234 0.0633105ZM17.0359 17.04C15.775 18.3008 14.0259 18.1883 9.9792 18.1883C5.81254 18.1883 4.1417 18.25 2.92254 17.0275C1.51837 15.63 1.77254 13.3858 1.77254 9.98331C1.77254 5.37914 1.30004 2.06331 5.92087 1.82664C6.98254 1.78914 7.29504 1.77664 9.96754 1.77664L10.005 1.80164C14.4459 1.80164 17.93 1.33664 18.1392 5.95664C18.1867 7.01081 18.1975 7.32748 18.1975 9.99581C18.1967 14.1141 18.275 15.795 17.0359 17.04Z" fill="#C84461"/>
<path d="M15.3383 5.8617C16.0006 5.8617 16.5375 5.32482 16.5375 4.66254C16.5375 4.00026 16.0006 3.46338 15.3383 3.46338C14.676 3.46338 14.1392 4.00026 14.1392 4.66254C14.1392 5.32482 14.676 5.8617 15.3383 5.8617Z" fill="#C84461"/>
</g>
<defs>
<clipPath id="clip0">
<rect width="20" height="20" fill="white"/>
</clipPath>
</defs>
</svg>
