<svg width="16" height="16" viewBox="0 0 16 16" fill="none" xmlns="http://www.w3.org/2000/svg">
  <path fill-rule="evenodd" clip-rule="evenodd" d="M6 12.75H1.375C0.616813 12.75 0 12.1332 0 11.375V2.625C0 1.86681 0.616813 1.25 1.375 1.25H8.50594C8.56934 0.550219 9.15897 0 9.875 0H14.625C15.3832 0 16 0.616813 16 1.375V14.625C16 15.3832 15.3832 16 14.625 16H10.5H9.875H4.25C3.83578 16 3.5 15.6642 3.5 15.25C3.5 14.8358 3.83578 14.5 4.25 14.5H6V12.75ZM8.5 12.75H7.5V14.5H8.5V12.75ZM14.5 1.5H10V14.5H10.5H14.5V1.5ZM8.5 2.75H1.5V11.25H8.5V2.75ZM13 3.75H11.5C11.0858 3.75 10.75 3.41422 10.75 3C10.75 2.58578 11.0858 2.25 11.5 2.25H13C13.4142 2.25 13.75 2.58578 13.75 3C13.75 3.41422 13.4142 3.75 13 3.75ZM11.5 6H13C13.4142 6 13.75 5.66422 13.75 5.25C13.75 4.83578 13.4142 4.5 13 4.5H11.5C11.0858 4.5 10.75 4.83578 10.75 5.25C10.75 5.66422 11.0858 6 11.5 6ZM13 13.5H11.5C11.0858 13.5 10.75 13.1642 10.75 12.75C10.75 12.3358 11.0858 12 11.5 12H13C13.4142 12 13.75 12.3358 13.75 12.75C13.75 13.1642 13.4142 13.5 13 13.5Z" fill="#DFDAE7"/>
</svg>
