<svg width="12" height="16" viewBox="0 0 12 16" fill="none" xmlns="http://www.w3.org/2000/svg">
  <path fill-rule="evenodd" clip-rule="evenodd" d="M8.5625 14.75C9.25175 14.75 9.8125 14.1892 9.8125 13.5V2.5C9.8125 1.81075 9.25175 1.25 8.5625 1.25H2.5C1.81075 1.25 1.25 1.81075 1.25 2.5V13.5C1.25 14.1892 1.81075 14.75 2.5 14.75H8.5625ZM11.0625 13.5V2.5C11.0625 1.1215 9.941 0 8.5625 0H2.5C1.1215 0 0 1.1215 0 2.5V13.5C0 14.8785 1.1215 16 2.5 16H8.5625C9.941 16 11.0625 14.8785 11.0625 13.5ZM5.53125 13.7851C5.87643 13.7851 6.15625 13.5052 6.15625 13.1601C6.15625 12.8149 5.87643 12.5351 5.53125 12.5351C5.18607 12.5351 4.90625 12.8149 4.90625 13.1601C4.90625 13.5052 5.18607 13.7851 5.53125 13.7851ZM6.15625 2.22257C6.50144 2.22257 6.78125 2.50238 6.78125 2.84757C6.78125 3.19273 6.50144 3.47257 6.15625 3.47257H4.90625C4.56106 3.47257 4.28125 3.19276 4.28125 2.84757C4.28125 2.50238 4.56106 2.22257 4.90625 2.22257H6.15625Z" fill="#DFDAE7"/>
</svg>
