<svg width="24" height="24" viewBox="0 0 24 24" fill="none" xmlns="http://www.w3.org/2000/svg">
  <path fill-rule="evenodd" clip-rule="evenodd" d="M15.0332 18.75C15.7225 18.75 16.2832 18.1892 16.2832 17.5V6.5C16.2832 5.81075 15.7225 5.25 15.0332 5.25H8.9707C8.28145 5.25 7.7207 5.81075 7.7207 6.5V17.5C7.7207 18.1892 8.28145 18.75 8.9707 18.75H15.0332ZM17.5332 17.5V6.5C17.5332 5.1215 16.4117 4 15.0332 4H8.9707C7.5922 4 6.4707 5.1215 6.4707 6.5V17.5C6.4707 18.8785 7.5922 20 8.9707 20H15.0332C16.4117 20 17.5332 18.8785 17.5332 17.5ZM12.002 17.7852C12.3471 17.7852 12.627 17.5053 12.627 17.1602C12.627 16.815 12.3471 16.5352 12.002 16.5352C11.6568 16.5352 11.377 16.815 11.377 17.1602C11.377 17.5053 11.6568 17.7852 12.002 17.7852ZM12.627 6.22266C12.9721 6.22266 13.252 6.50247 13.252 6.84766C13.252 7.19281 12.9721 7.47266 12.627 7.47266H11.377C11.0318 7.47266 10.752 7.19284 10.752 6.84766C10.752 6.50247 11.0318 6.22266 11.377 6.22266H12.627Z" fill="white"/>
</svg>
