<svg width="17" height="16" viewBox="0 0 17 16" fill="none" xmlns="http://www.w3.org/2000/svg">
  <path fill-rule="evenodd" clip-rule="evenodd" d="M7.90625 16H3.65625C1.67466 16 0.0625 14.3878 0.0625 12.4062V3.59375C0.0625 1.61216 1.67466 0 3.65625 0H7.90625V16ZM3.65625 0.9375C2.19159 0.9375 1 2.12909 1 3.59375V12.4062C1 13.8709 2.19159 15.0625 3.65625 15.0625H6.96875V0.9375H3.65625ZM12.4688 0H8.84375V16H12.4688C14.4503 16 16.0625 14.3878 16.0625 12.4062V3.59375C16.0625 1.61216 14.4503 0 12.4688 0ZM12.4531 10.375C11.4107 10.375 10.5625 9.52684 10.5625 8.48438C10.5625 7.44191 11.4107 6.59375 12.4531 6.59375C13.4956 6.59375 14.3438 7.44191 14.3438 8.48438C14.3438 9.52684 13.4956 10.375 12.4531 10.375ZM2.09375 4.70312C2.09375 5.74559 2.94191 6.59375 3.98438 6.59375C5.02684 6.59375 5.875 5.74559 5.875 4.70312C5.875 3.66066 5.02684 2.8125 3.98438 2.8125C2.94191 2.8125 2.09375 3.66066 2.09375 4.70312Z" fill="#DFDAE7"/>
</svg>
