<svg width="24" height="24" viewBox="0 0 24 24" fill="none" xmlns="http://www.w3.org/2000/svg">
  <path fill-rule="evenodd" clip-rule="evenodd" d="M11.8438 20H7.59375C5.61216 20 4 18.3878 4 16.4062V7.59375C4 5.61216 5.61216 4 7.59375 4H11.8438V20ZM7.59375 4.9375C6.12909 4.9375 4.9375 6.12909 4.9375 7.59375V16.4062C4.9375 17.8709 6.12909 19.0625 7.59375 19.0625H10.9062V4.9375H7.59375ZM16.4062 4H12.7812V20H16.4062C18.3878 20 20 18.3878 20 16.4062V7.59375C20 5.61216 18.3878 4 16.4062 4ZM16.3906 14.375C15.3482 14.375 14.5 13.5268 14.5 12.4844C14.5 11.4419 15.3482 10.5938 16.3906 10.5938C17.4331 10.5938 18.2812 11.4419 18.2812 12.4844C18.2812 13.5268 17.4331 14.375 16.3906 14.375ZM6.03125 8.70312C6.03125 9.74559 6.87941 10.5938 7.92188 10.5938C8.96434 10.5938 9.8125 9.74559 9.8125 8.70312C9.8125 7.66066 8.96434 6.8125 7.92188 6.8125C6.87941 6.8125 6.03125 7.66066 6.03125 8.70312Z" fill="white"/>
</svg>
