<svg width="24" height="24" viewBox="0 0 24 24" fill="none" xmlns="http://www.w3.org/2000/svg">
  <path d="M6.69075 18.2429C6.38676 18.2434 6.08405 18.2035 5.7906 18.1241C4.90976 17.8729 4.16247 17.2865 3.70904 16.4907C3.25561 15.6948 3.13216 14.7529 3.36519 13.8671L4.82168 8.34121C4.93511 7.894 5.13677 7.47395 5.41479 7.10575C5.69282 6.73756 6.04162 6.42862 6.44071 6.1971C6.82929 5.97204 7.25867 5.82631 7.70397 5.76837C8.14927 5.71042 8.60165 5.74142 9.03489 5.85955C9.49543 5.98744 9.92438 6.20961 10.2945 6.51198C10.6647 6.81436 10.968 7.19034 11.1853 7.61609H12.8105C13.0268 7.18966 13.3298 6.81312 13.7001 6.51064C14.0704 6.20815 14.4999 5.98638 14.9609 5.85955C15.3941 5.74142 15.8465 5.71042 16.2918 5.76837C16.7371 5.82631 17.1665 5.97204 17.5551 6.1971C17.9522 6.42803 18.2997 6.73527 18.5776 7.10111C18.8555 7.46695 19.0582 7.88417 19.1741 8.32871L20.6306 13.8671C20.8671 14.7555 20.7446 15.7013 20.2896 16.5002C19.8347 17.299 19.0837 17.8868 18.1989 18.1366C17.7657 18.2547 17.3133 18.2857 16.868 18.2278C16.4227 18.1698 15.9933 18.0241 15.6047 17.799C15.2069 17.5689 14.8589 17.262 14.581 16.896C14.303 16.53 14.1006 16.1124 13.9857 15.6674L13.8732 15.1173H10.1226L9.9788 15.6549C9.86387 16.0999 9.66152 16.5175 9.38356 16.8835C9.1056 17.2495 8.75758 17.5564 8.35978 17.7865C7.85187 18.0795 7.27705 18.2367 6.69075 18.2429V18.2429ZM8.14099 6.99099C7.76376 6.99227 7.39332 7.09134 7.06581 7.27854C6.55251 7.5797 6.1794 8.07193 6.02814 8.64752L4.57164 14.1734C4.41923 14.7427 4.49624 15.3491 4.78613 15.8623C5.07601 16.3754 5.55562 16.7543 6.1219 16.9176C6.39539 16.9922 6.68095 17.0119 6.96207 16.9754C7.24319 16.9389 7.51429 16.847 7.75968 16.7051C8.01516 16.5576 8.23857 16.3605 8.41677 16.1254C8.59497 15.8903 8.72437 15.622 8.79735 15.3361L9.18492 13.8671H14.8109L15.1922 15.3361C15.2664 15.6214 15.3963 15.8892 15.5744 16.1242C15.7525 16.3591 15.9752 16.5565 16.2298 16.7051C16.4764 16.8469 16.7486 16.9387 17.0307 16.9751C17.3128 17.0116 17.5993 16.9921 17.8739 16.9176C18.4408 16.7559 18.921 16.3769 19.2101 15.863C19.4993 15.3492 19.5739 14.742 19.4179 14.1734L17.9614 8.64752C17.8888 8.36234 17.7603 8.09445 17.5832 7.85942C17.4061 7.6244 17.1841 7.42694 16.93 7.27854C16.6834 7.13674 16.4112 7.04498 16.1291 7.00851C15.847 6.97204 15.5605 6.99158 15.2859 7.066C14.9464 7.16278 14.6349 7.33918 14.3772 7.58054C14.1195 7.8219 13.9232 8.12125 13.8044 8.45373L13.6544 8.8663H10.3414L10.1913 8.45373C10.0715 8.1208 9.87407 7.82124 9.61533 7.5799C9.35659 7.33855 9.04403 7.16238 8.70358 7.066C8.52013 7.01653 8.33099 6.99132 8.14099 6.99099V6.99099Z" fill="white"/>
  <path d="M8.24728 11.9919C8.00001 11.9919 7.7583 11.9186 7.5527 11.7812C7.34711 11.6438 7.18686 11.4485 7.09224 11.2201C6.99761 10.9917 6.97285 10.7403 7.02109 10.4978C7.06933 10.2552 7.1884 10.0325 7.36325 9.85763C7.53809 9.68279 7.76086 9.56372 8.00338 9.51548C8.24589 9.46724 8.49727 9.492 8.72571 9.58662C8.95416 9.68125 9.14942 9.84149 9.28679 10.0471C9.42417 10.2527 9.49749 10.4944 9.49749 10.7417C9.49749 11.0732 9.36577 11.3912 9.13131 11.6257C8.89685 11.8602 8.57886 11.9919 8.24728 11.9919Z" fill="white"/>
  <path d="M15.7491 10.1167C16.0944 10.1167 16.3742 9.8368 16.3742 9.49156C16.3742 9.14632 16.0944 8.86646 15.7491 8.86646C15.4039 8.86646 15.124 9.14632 15.124 9.49156C15.124 9.8368 15.4039 10.1167 15.7491 10.1167Z" fill="white"/>
  <path d="M15.7491 12.6169C16.0944 12.6169 16.3742 12.337 16.3742 11.9918C16.3742 11.6466 16.0944 11.3667 15.7491 11.3667C15.4039 11.3667 15.124 11.6466 15.124 11.9918C15.124 12.337 15.4039 12.6169 15.7491 12.6169Z" fill="white"/>
  <path d="M14.4991 11.3669C14.8444 11.3669 15.1242 11.087 15.1242 10.7418C15.1242 10.3966 14.8444 10.1167 14.4991 10.1167C14.1539 10.1167 13.874 10.3966 13.874 10.7418C13.874 11.087 14.1539 11.3669 14.4991 11.3669Z" fill="white"/>
  <path d="M16.9991 11.3669C17.3444 11.3669 17.6242 11.087 17.6242 10.7418C17.6242 10.3966 17.3444 10.1167 16.9991 10.1167C16.6539 10.1167 16.374 10.3966 16.374 10.7418C16.374 11.087 16.6539 11.3669 16.9991 11.3669Z" fill="white"/>
</svg>
