<svg width="19" height="14" viewBox="0 0 19 14" fill="none" xmlns="http://www.w3.org/2000/svg">
  <path fill-rule="evenodd" clip-rule="evenodd" d="M10.9075 3.44059V7.80879C11.8183 8.2473 12.6278 8.28103 13.235 7.82566C13.859 7.38715 14.1963 6.6282 14.1963 5.48133C14.1963 4.28387 13.9602 3.37313 13.4374 2.76597C12.9652 2.12507 12.1219 1.58537 10.8738 1.16373L10.5586 1.06086C9.1434 0.598776 7.9351 0.204251 6.96098 0V13.0709L9.77755 13.931V3.06955C9.76068 2.41179 10.9075 2.46238 10.9075 3.44059ZM2.03622 9.36044L1.42905 9.59656C0.518309 9.98447 0.0460708 10.3892 0.0629364 10.7434C0.113533 11.2663 0.703831 11.6542 1.78323 11.9409C3.18308 12.3119 4.59979 12.3963 6.06711 12.177V10.7097L4.90338 11.1482C3.68905 11.5698 3.06502 11.2157 3.06502 11.2157C2.8795 11.0976 2.79517 10.8109 3.30114 10.6254L3.94203 10.3892L6.06711 9.63029V7.92686L5.5274 8.11239L2.03622 9.36044ZM16.5407 9.05686C17.502 9.3773 18.0417 9.73148 18.0586 10.1869C18.1092 10.676 17.6707 11.0639 16.6925 11.418L16.2202 11.6373L12.1725 13.0709L10.4859 13.678V11.9746L14.0952 10.676L14.7192 10.423C15.2589 10.2375 15.2926 9.93387 14.7529 9.79895C14.0446 9.61342 13.2181 9.917 13.2181 9.917L10.4859 10.8783V9.20865C11.481 8.8882 12.5941 8.58462 13.5217 8.56775C14.5337 8.53402 15.4613 8.70268 16.5407 9.05686Z" fill="#DFDAE7"/>
</svg>
