<svg width="24" height="24" viewBox="0 0 24 24" fill="none" xmlns="http://www.w3.org/2000/svg">
  <path d="M7.56392 5.35753C7.55583 5.36375 7.54961 5.37059 7.54215 5.37681C7.58755 5.32893 7.65284 5.27731 7.69575 5.24933C8.94819 4.43531 10.3953 4 12.0009 4C13.5027 4 14.9094 4.41478 16.1102 5.13615C16.1973 5.18776 16.4348 5.35069 16.5573 5.4987V5.49932C15.3988 4.22201 11.9935 6.96257 11.9935 6.96257C10.8157 6.05465 9.73236 5.43589 8.9258 5.21575C8.2517 5.03105 7.7853 5.18528 7.56392 5.35753ZM17.8695 6.5652C17.834 6.52602 17.7955 6.48933 17.76 6.44891C17.4671 6.1274 17.1071 6.04967 16.7825 6.07081C16.4871 6.16347 15.1221 6.65537 13.4399 8.24362C13.4399 8.24362 15.3335 10.085 16.4933 11.9674C17.6518 13.8497 18.3446 15.3292 17.9186 17.3826C19.2115 15.9616 20 14.0736 20 12.0003C20 9.90213 19.1922 7.99238 17.8695 6.5652ZM14.979 12.7714C14.4654 12.195 13.7011 11.3691 12.6918 10.3654C12.4711 10.1459 12.2379 9.91706 11.9928 9.68013C11.9928 9.68013 11.6241 10.0489 11.144 10.5339V10.5333C10.5296 11.154 9.73299 11.9636 9.29084 12.4362C8.50356 13.2764 6.24805 15.915 6.12119 17.3944C6.12119 17.3944 5.61934 16.2209 6.72067 13.5146C7.44016 11.7453 9.61421 9.08873 10.5221 8.22309C10.5221 8.22309 9.69256 7.31019 8.65156 6.67962L8.64534 6.67776C8.64534 6.67776 8.63353 6.66843 8.61487 6.65661C8.11427 6.35812 7.56765 6.12803 7.04155 6.09756C6.50426 6.13549 6.16409 6.52851 6.16409 6.52851C4.82149 7.96004 4 9.8841 4 12.0009C4 16.4193 7.58195 20.0019 12.0009 20.0019C14.346 20.0019 16.456 18.9907 17.9199 17.3832C17.9192 17.3807 17.7513 16.326 16.6749 14.813C16.4218 14.4585 15.4971 13.3522 14.979 12.7714Z" fill="white"/>
</svg>
