<svg width="17" height="17" viewBox="0 0 17 17" fill="none" xmlns="http://www.w3.org/2000/svg">
  <path d="M3.62642 1.35753C3.61833 1.36375 3.61211 1.37059 3.60465 1.37681C3.65005 1.32893 3.71534 1.27731 3.75825 1.24933C5.01069 0.435306 6.45777 0 8.06343 0C9.56524 0 10.9719 0.414785 12.1727 1.13615C12.2598 1.18776 12.4973 1.35069 12.6198 1.4987V1.49932C11.4613 0.222006 8.05597 2.96257 8.05597 2.96257C6.87816 2.05465 5.79486 1.43589 4.9883 1.21575C4.3142 1.03105 3.8478 1.18528 3.62642 1.35753ZM13.932 2.5652C13.8965 2.52602 13.858 2.48933 13.8225 2.44891C13.5296 2.1274 13.1696 2.04967 12.845 2.07081C12.5496 2.16347 11.1846 2.65537 9.50243 4.24362C9.50243 4.24362 11.396 6.08496 12.5558 7.96735C13.7143 9.84974 14.4071 11.3292 13.9811 13.3826C15.274 11.9616 16.0625 10.0736 16.0625 8.00031C16.0625 5.90213 15.2547 3.99238 13.932 2.5652ZM11.0415 8.77142C10.5279 8.19495 9.76362 7.36912 8.75433 6.36542C8.53356 6.14591 8.30036 5.91706 8.05535 5.68013C8.05535 5.68013 7.68658 6.04889 7.2065 6.53395V6.53333C6.5921 7.15395 5.79549 7.96362 5.35334 8.43624C4.56606 9.27638 2.31055 11.915 2.18369 13.3944C2.18369 13.3944 1.68184 12.2209 2.78317 9.51455C3.50266 7.74535 5.67671 5.08873 6.58463 4.22309C6.58463 4.22309 5.75506 3.31019 4.71406 2.67962L4.70784 2.67776C4.70784 2.67776 4.69603 2.66843 4.67737 2.65661C4.17677 2.35812 3.63015 2.12803 3.10405 2.09756C2.56676 2.13549 2.22659 2.52851 2.22659 2.52851C0.883986 3.96004 0.0625 5.8841 0.0625 8.00093C0.0625 12.4193 3.64445 16.0019 8.06343 16.0019C10.4085 16.0019 12.5185 14.9907 13.9824 13.3832C13.9817 13.3807 13.8138 12.326 12.7374 10.813C12.4843 10.4585 11.5596 9.35225 11.0415 8.77142Z" fill="#DFDAE7"/>
</svg>
