<svg width="300" height="180" viewBox="0 0 300 180" fill="none" xmlns="http://www.w3.org/2000/svg">
<mask id="mask0" mask-type="alpha" maskUnits="userSpaceOnUse" x="0" y="0" width="300" height="180">
<rect width="300" height="180" rx="6" fill="url(#paint0_linear)"/>
</mask>
<g mask="url(#mask0)">
<path opacity="0.5" fill-rule="evenodd" clip-rule="evenodd" d="M-87.9639 66.354C-91.0431 71.6873 -98.7411 71.6873 -101.82 66.3539L-131.916 14.2262C-134.995 8.89291 -131.146 2.22626 -124.988 2.22626L-64.7962 2.22624C-58.6378 2.22624 -54.7888 8.89291 -57.868 14.2262L-87.9639 66.354ZM-44.8249 147.557C-47.9041 152.89 -55.6021 152.89 -58.6813 147.557L-88.7773 95.4294C-91.8565 90.0961 -88.0075 83.4294 -81.8491 83.4294L-21.6572 83.4294C-15.4988 83.4294 -11.6498 90.0961 -14.729 95.4294L-44.8249 147.557ZM-23.1551 -0.999455C-20.0759 -6.33278 -12.3779 -6.33277 -9.29867 -0.999441L20.7973 51.1283C23.8765 56.4616 20.0275 63.1283 13.8691 63.1283L-46.3228 63.1283C-52.4812 63.1283 -56.3302 56.4616 -53.251 51.1283L-23.1551 -0.999455ZM-0.417069 228.76C-3.49626 234.093 -11.1943 234.093 -14.2735 228.76L-44.3694 176.632C-47.4486 171.299 -43.5996 164.632 -37.4412 164.632L22.7507 164.632C28.9091 164.632 32.7581 171.299 29.6789 176.632L-0.417069 228.76ZM35.1092 80.2037C32.03 74.8704 24.332 74.8704 21.2528 80.2037L-8.84316 132.331C-11.9224 137.665 -8.07338 144.331 -1.91497 144.331L58.2769 144.331C64.4353 144.331 68.2843 137.665 65.2051 132.331L35.1092 80.2037ZM78.2482 161.406C75.169 156.073 67.471 156.073 64.3918 161.406L34.2959 213.534C31.2167 218.867 35.0657 225.534 41.2241 225.534L101.416 225.534C107.574 225.534 111.423 218.867 108.344 213.534L78.2482 161.406ZM64.0333 66.3539C60.9541 71.6873 53.2561 71.6873 50.1769 66.3539L20.081 14.2262C17.0018 8.89291 20.8508 2.22625 27.0092 2.22625L87.2011 2.22623C93.3595 2.22623 97.2085 8.8929 94.1293 14.2262L64.0333 66.3539ZM107.172 147.557C104.093 152.89 96.3951 152.89 93.3159 147.557L63.22 95.4294C60.1408 90.0961 63.9898 83.4294 70.1482 83.4294L130.34 83.4294C136.498 83.4294 140.347 90.0961 137.268 95.4294L107.172 147.557ZM128.842 -0.999462C131.921 -6.33279 139.619 -6.33278 142.699 -0.999447L172.795 51.1283C175.874 56.4616 172.025 63.1283 165.866 63.1283L105.674 63.1283C99.516 63.1283 95.667 56.4616 98.7462 51.1283L128.842 -0.999462ZM151.58 228.76C148.501 234.093 140.803 234.093 137.724 228.76L107.628 176.632C104.549 171.299 108.398 164.632 114.556 164.632L174.748 164.632C180.906 164.632 184.755 171.299 181.676 176.632L151.58 228.76ZM187.106 80.2037C184.027 74.8704 176.329 74.8704 173.25 80.2037L143.154 132.331C140.075 137.665 143.924 144.331 150.082 144.331L210.274 144.331C216.433 144.331 220.282 137.665 217.202 132.331L187.106 80.2037ZM230.245 161.406C227.166 156.073 219.468 156.073 216.389 161.406L186.293 213.534C183.214 218.867 187.063 225.534 193.221 225.534L253.413 225.534C259.572 225.534 263.421 218.867 260.341 213.534L230.245 161.406Z" fill="url(#paint1_linear)"/>
</g>
<defs>
<linearGradient id="paint0_linear" x1="27.2785" y1="40.2716" x2="83.9566" y2="212.989" gradientUnits="userSpaceOnUse">
<stop stop-color="#D92779"/>
<stop offset="1" stop-color="#7C277E"/>
</linearGradient>
<linearGradient id="paint1_linear" x1="73.2359" y1="211.141" x2="269.782" y2="101.534" gradientUnits="userSpaceOnUse">
<stop stop-color="#7C277E"/>
<stop offset="1" stop-color="#D92779"/>
</linearGradient>
</defs>
</svg>
