<svg width="172" height="172" viewBox="0 0 172 172" fill="none" xmlns="http://www.w3.org/2000/svg">
  <g clip-path="url(#clip0_1252_33502)">
    <path d="M125.706 33.2969L121.887 35.5008H99.5238L100.615 10.7078L93.5238 10.1568L89.7057 14.5645L83.1602 12.9116L79.8875 9.60585L72.2511 7.40203V-0.311349L56.4329 -0.862305C53.1602 0.60691 46.5057 3.54534 46.0693 3.54534C45.6329 3.54534 37.5238 4.64725 33.5238 5.19821L11.7057 33.2969L10.6147 59.7428L30.2511 80.1282L53.7057 73.5167L59.1602 74.6186L60.7966 78.4753H68.4329L67.8875 92.8001L76.6147 104.921V120.348L73.342 125.857L72.7966 127.51L73.342 130.816V133.571L86.9784 171.036L88.0693 172.138L105.524 171.587L118.615 156.16L119.16 150.65L124.615 146.794V136.326L136.069 125.857L133.342 98.3097L160.615 65.8033L160.069 61.3957C159.887 61.0284 159.306 60.2938 158.433 60.2938C157.56 60.2938 147.887 61.763 143.16 62.4976L125.706 33.2969Z" fill="white"/>
    <path d="M155.16 119.246C154.797 119.613 153.96 120.348 153.524 120.348L144.251 129.714L143.16 131.367L142.615 138.529L140.978 143.488V145.692L142.615 149.549L143.706 150.65H148.615L149.706 149.549L158.433 120.348L157.887 119.246H155.16Z" fill="white"/>
    <path d="M67.3914 61.5067H69.8672L67.0976 47.1214H64.0343L61.3066 61.5067H63.6566L64.1812 58.3009H66.8668L67.3914 61.5067ZM64.4959 56.328L65.524 49.9368L66.5521 56.328H64.4959Z" fill="#5865F2"/>
    <path d="M71.0806 61.5067H73.5145V55.3622H76.7877V53.266H73.5145V49.2176H77.4381V47.1214H71.0806V61.5067Z" fill="#5865F2"/>
    <path d="M86.8199 61.5067L84.7218 55.4033C85.7289 54.9717 86.3164 54.1086 86.3164 52.7317V50.1629C86.3164 47.9846 84.8476 47.1214 82.6236 47.1214H78.8258V61.5067H81.2597V55.7732H82.4767L84.3441 61.5067H86.8199ZM81.2597 49.2176H82.5396C83.337 49.2176 83.8825 49.5053 83.8825 50.5328V52.4029C83.8825 53.4304 83.337 53.7181 82.5396 53.7181H81.2597V49.2176Z" fill="#5865F2"/>
    <path d="M90.8101 61.5067V47.1214H88.3762V61.5067H90.8101Z" fill="#5865F2"/>
    <path d="M100.328 55.6499H97.8943V58.2598C97.8943 59.2667 97.3907 59.575 96.6144 59.575C95.8381 59.575 95.3345 59.2667 95.3345 58.2598V50.3684C95.3345 49.3614 95.8381 49.0532 96.6144 49.0532C97.3907 49.0532 97.8943 49.3614 97.8943 50.3684V52.6289H100.328V49.9985C100.328 47.8612 98.8594 46.957 96.6354 46.957H96.5934C94.3693 46.957 92.9006 47.8612 92.9006 49.9985V58.6297C92.9006 60.8697 94.3693 61.6711 96.5934 61.6711H96.6354C98.8594 61.6711 100.328 60.8491 100.328 58.6297V55.6499Z" fill="#5865F2"/>
    <path d="M107.388 61.5067H109.864L107.094 47.1214H104.031L101.303 61.5067H103.653L104.178 58.3009H106.864L107.388 61.5067ZM104.493 56.328L105.521 49.9368L106.549 56.328H104.493Z" fill="#5865F2"/>
  </g>
  <defs>
    <clipPath id="clip0_1252_33502">
      <rect width="172" height="172" fill="white"/>
    </clipPath>
  </defs>
</svg>
