<svg width="173" height="172" viewBox="0 0 173 172" fill="none" xmlns="http://www.w3.org/2000/svg">
  <path d="M39.8205 101.047L37.7616 98.6429C37.5716 98.4211 37.2942 98.2935 37.0022 98.2935H30.7428C29.9804 98.2935 29.4984 97.4746 29.8685 96.8081L30.8338 95.0693C31.0252 94.7246 30.9962 94.2996 30.7597 93.9842L28.7244 91.2686C28.6572 91.1789 28.6055 91.0786 28.5716 90.9719L25.7892 82.2215C25.7164 81.9927 25.7284 81.7454 25.8229 81.5248L26.7335 79.3988C26.8623 79.0979 26.8358 78.753 26.6624 78.4753L25.0199 75.8456C24.8999 75.6535 24.7183 75.5078 24.5047 75.4324L17.9792 73.1278C17.7838 73.0588 17.5718 73.0522 17.3724 73.109L14.6167 73.8933C13.9482 74.0836 13.2944 73.5506 13.3442 72.8573C13.4161 71.857 13.4696 71.0628 13.4696 70.9158C13.4696 70.5931 8.83701 66.3817 6.22662 64.0527C6.01356 63.8626 5.89294 63.5921 5.89294 63.3066V61.7823C5.89294 61.4376 6.07046 61.1172 6.3627 60.9345L7.46135 60.2474C8.17829 59.799 8.04968 58.7185 7.24752 58.4509L6.15561 58.0867C5.74736 57.9505 5.47202 57.5684 5.47202 57.1381V56.9693C5.47202 56.5037 5.15068 56.0997 4.69702 55.995L0.857567 55.1084C0.367281 54.9951 0.0374836 54.5352 0.0875208 54.0346L0.326299 51.6452C0.379302 51.1149 0.838972 50.7193 1.37131 50.7459L8.06581 51.0809C8.52123 51.1036 8.93439 50.8155 9.07032 50.3802L12.9936 37.8175C13.03 37.701 13.0448 37.5789 13.0372 37.4571L12.6565 31.3627C12.6382 31.0705 12.4929 30.801 12.2587 30.6252L9.66009 28.675C9.40843 28.4861 9.26034 28.1898 9.26034 27.8752V25.9754C9.26034 25.6336 9.43491 25.3155 9.72322 25.1319L13.6914 22.6051C13.8223 22.5217 13.9321 22.4089 14.0119 22.2758L14.8938 20.8051C15.057 20.5329 15.0813 20.1994 14.9593 19.9064L13.095 15.4291C13.0644 15.3557 13.0487 15.277 13.0487 15.1975C13.0487 14.8216 13.3891 14.5375 13.759 14.6048L17.1298 15.218C17.471 15.2801 17.7558 15.5146 17.8821 15.8377L20.91 23.5806C21.1727 24.2524 22.0387 24.4335 22.5486 23.9233L23.7743 22.6968C24.1373 22.3336 24.1662 21.7544 23.8411 21.3569L21.4401 18.4204C21.027 17.9152 21.2007 17.1561 21.7923 16.8808L38.5244 9.09338C38.6566 9.03187 38.8006 9 38.9464 9H58.5864C59.0375 9 59.4326 9.3019 59.5512 9.73704L60.4123 12.8961C60.5309 13.3313 60.9261 13.6332 61.3771 13.6332H82.1858C82.3911 13.6332 82.5914 13.6963 82.7595 13.8141L86.4521 16.4006C86.6203 16.5183 86.8206 16.5815 87.0258 16.5815H95.5949C95.8372 16.5815 96.0713 16.4935 96.2536 16.3339L98.9794 13.9473C99.2064 13.7486 99.5109 13.6629 99.8082 13.7142L111.182 15.6765C111.416 15.7169 111.629 15.8394 111.781 16.022L113.359 17.9175C113.544 18.1391 113.815 18.2703 114.103 18.2772L148.492 19.1064C148.555 19.1079 148.617 19.1154 148.679 19.1286L169.67 23.6591C169.917 23.7123 170.134 23.8567 170.278 24.0634L171.899 26.3806C172.363 27.0434 171.889 27.9538 171.08 27.9538H168.476C168.405 27.9538 168.335 27.9464 168.266 27.9316L163.009 26.8043C162.677 26.7332 162.334 26.837 162.083 27.0659C161.629 27.4803 161.046 27.9538 160.793 27.9538C160.494 27.9538 163.927 29.2794 166.273 30.1669C166.749 30.3467 167.014 30.8532 166.891 31.3463L166.822 31.6212C166.738 31.9594 166.483 32.2292 166.15 32.3333L154.729 35.9047C154.027 36.1242 153.794 37.0004 154.295 37.5394L158.422 41.9867C158.593 42.1717 158.689 42.4147 158.689 42.667V51.1064C158.689 51.3726 158.538 51.616 158.3 51.7351C158.029 51.8706 157.703 51.8183 157.489 51.604C154.026 48.1326 147.745 41.7575 147.745 41.4321V36.4912C147.745 36.1569 147.912 35.8451 148.19 35.6596L149.133 35.0302C149.696 34.6547 149.731 33.8404 149.203 33.4176L148.336 32.7234C148.224 32.6335 148.093 32.5689 147.954 32.534L147.472 32.4135C146.933 32.2786 146.391 32.6219 146.282 33.1669C146.165 33.7492 145.559 34.0924 145 33.8926L141.13 32.5097C140.602 32.3209 140.022 32.6033 139.845 33.1353L138.712 36.5362C138.576 36.9446 138.194 37.2201 137.763 37.2201H124.993C124.516 37.2201 124.105 37.5566 124.012 38.0241L122.728 44.448C122.604 45.0668 123.078 45.644 123.709 45.644H129.588C129.89 45.644 130.176 45.7804 130.366 46.0151L137.021 54.241C137.151 54.4024 137.228 54.6004 137.241 54.8076L137.621 60.8792C137.635 61.1052 137.572 61.3293 137.442 61.5148L134.932 65.1032C134.781 65.3191 134.55 65.4667 134.291 65.5138L130.965 66.1189C130.456 66.2116 130.102 66.6777 130.148 67.1933L130.415 70.1272C130.457 70.5893 130.176 71.0195 129.735 71.1663L129.704 71.1769C128.952 71.4276 128.777 72.4111 129.395 72.9062L133.845 76.4685C134.113 76.6827 134.252 77.0189 134.214 77.3596L133.941 79.8193C133.89 80.279 133.53 80.6438 133.071 80.7012L131.209 80.9341C130.779 80.9879 130.362 80.7578 130.179 80.3645L127.763 75.1836C127.623 74.885 127.346 74.6759 127.023 74.6112C126.15 74.4366 125.015 74.1409 125.015 73.8641C125.015 73.4429 123.331 70.9158 122.91 70.4946C122.671 70.255 121.708 71.1368 120.869 72.0197C120.406 72.5066 119.599 72.449 119.239 71.8822L117.643 69.3722C117.314 68.855 116.601 68.7527 116.14 69.1565L114.278 70.7867C113.914 71.1053 113.83 71.6386 114.079 72.0533L115.636 74.6489C115.929 75.1388 116.573 75.2836 117.048 74.9666L117.186 74.8746C117.35 74.765 117.543 74.7065 117.741 74.7065H121.298C121.522 74.7065 121.736 74.7953 121.894 74.9534C122.223 75.2824 122.223 75.8155 121.894 76.1444L119.252 78.7878C118.928 79.1122 118.866 79.6155 119.102 80.0089L126.008 91.5255C126.176 91.8073 126.197 92.1522 126.061 92.4512C124.597 95.6635 121.967 101.343 121.647 101.663C121.333 101.978 113.903 104.519 109.492 105.997C109.017 106.157 108.512 105.862 108.414 105.371C108.3 104.801 107.65 104.521 107.159 104.834C106.015 105.564 104.642 106.465 104.389 106.717C104.086 107.021 103.988 109.169 103.971 110.516C103.968 110.781 104.074 111.035 104.261 111.222L110.41 117.376C110.598 117.563 110.703 117.817 110.703 118.083V123.432C110.703 123.777 110.526 124.097 110.233 124.28L105.499 127.241C104.833 127.658 103.968 127.179 103.968 126.393V125.25C103.968 124.982 103.083 125.051 102.368 125.161C102.05 125.21 101.724 125.12 101.489 124.902L97.5318 121.225C96.9112 120.648 95.8996 121.056 95.8527 121.902L95.5681 127.027C95.5563 127.241 95.6131 127.452 95.7304 127.631L104.104 140.398C104.283 140.672 104.317 141.015 104.196 141.318L104.069 141.635C103.814 142.274 103.005 142.47 102.485 142.019L97.45 137.652C97.3086 137.53 97.2044 137.37 97.1494 137.191L95.6321 132.257C95.5783 132.082 95.4776 131.925 95.3409 131.803L92.1237 128.942C91.895 128.738 91.772 128.441 91.79 128.136L92.1735 121.612C92.1795 121.511 92.17 121.409 92.1454 121.311L91.7616 119.774L90.9751 116.627C90.9387 116.481 90.8697 116.345 90.7734 116.229L89.4824 114.679C89.1242 114.249 88.4737 114.219 88.0779 114.615C87.7691 114.924 87.2894 114.983 86.9148 114.759L85.8359 114.111C85.5891 113.963 85.4182 113.715 85.3667 113.432L84.6759 109.63C84.6309 109.382 84.4939 109.161 84.2923 109.009L76.8592 103.431C76.4707 103.139 75.929 103.169 75.5747 103.501L62.9789 115.318C62.8101 115.476 62.7014 115.688 62.6715 115.918L61.5185 124.763C61.4784 125.07 61.2984 125.341 61.031 125.498L57.4506 127.587C56.9078 127.904 56.2108 127.648 56.0028 127.055L48.0663 104.421C48.0144 104.273 47.9069 104.151 47.7666 104.081C47.4378 103.916 47.0396 104.081 46.9234 104.43L46.5655 105.504C46.4128 105.963 45.9538 106.246 45.4753 106.178L43.8265 105.942C43.5284 105.9 43.2653 105.725 43.1104 105.467L42.3998 104.282C42.2191 103.98 42.2666 103.595 42.5149 103.346C42.9086 102.952 42.7636 102.283 42.2422 102.088L40.2286 101.332C40.0707 101.273 39.9303 101.175 39.8205 101.047Z" fill="white"/>
  <path d="M103.547 155.576C103.141 155.576 94.1014 143.403 88.5533 135.74C88.2356 135.301 88.3476 134.688 88.7982 134.387C89.0708 134.205 89.4175 134.176 89.7169 134.309L92.8474 135.701C92.9643 135.753 93.0701 135.827 93.1591 135.919L106.166 149.341C106.374 149.555 106.475 149.851 106.442 150.147L106.112 153.122C106.087 153.347 105.986 153.558 105.824 153.716C105.067 154.456 103.848 155.576 103.547 155.576Z" fill="white"/>
  <path d="M107.647 156.011C107.221 156.355 106.719 156.747 106.279 157.066C105.855 157.372 105.62 158.265 105.91 158.701C106.014 158.856 106.179 158.96 106.365 158.986L120.966 161.015C121.136 161.039 121.308 161.011 121.461 160.934C121.816 160.757 122 160.357 121.904 159.972L121.763 159.41C121.69 159.117 121.487 158.872 121.212 158.745L116.519 156.577C116.298 156.475 116.046 156.457 115.812 156.527L112.37 157.561C112.112 157.638 111.833 157.608 111.597 157.477L108.777 155.909C108.416 155.709 107.969 155.751 107.647 156.011Z" fill="white"/>
  <path d="M112.808 140.413C112.498 140.413 111.925 141.605 111.618 142.341C111.569 142.459 111.545 142.584 111.545 142.711V145.653C111.545 145.808 111.581 145.961 111.65 146.1L112.756 148.312C112.79 148.381 112.833 148.446 112.882 148.505L114.592 150.558C114.794 150.8 115.098 150.933 115.413 150.917L122.45 150.546C122.742 150.531 123.012 150.388 123.191 150.157L126.912 145.316C127.046 145.141 127.119 144.927 127.119 144.706V135.78V134.051C127.119 133.42 126.542 132.947 125.923 133.071L123.275 133.601C123.039 133.648 122.829 133.778 122.682 133.968L120.119 137.264C120.017 137.396 119.884 137.5 119.731 137.566C117.418 138.576 113.133 140.413 112.808 140.413Z" fill="white"/>
  <path d="M128.946 161.894H129.109C129.444 161.894 129.756 162.061 129.942 162.34L130.378 162.995C130.449 163.101 130.487 163.226 130.487 163.353C130.487 163.71 130.197 164 129.84 164H129.103C128.672 164 128.29 163.724 128.154 163.316L128.08 163.095C128.004 162.865 128.022 162.615 128.13 162.399C128.284 162.089 128.6 161.894 128.946 161.894Z" fill="white"/>
  <path d="M131.749 159.367H130.783C130.355 159.367 129.974 159.641 129.839 160.047C129.72 160.405 129.813 160.799 130.079 161.065L130.615 161.601C130.802 161.789 131.057 161.894 131.322 161.894H132.429C132.536 161.894 132.643 161.877 132.745 161.843L133.461 161.604C133.713 161.52 133.921 161.34 134.039 161.102L134.09 161.001C134.208 160.764 134.228 160.489 134.144 160.238L134.082 160.051C133.946 159.642 133.564 159.367 133.133 159.367H131.749Z" fill="white"/>
  <path d="M135.572 162.099L136.888 160.255C137.095 159.966 137.439 159.808 137.793 159.84L141.206 160.151C141.572 160.184 141.852 160.49 141.852 160.857C141.852 161.211 141.592 161.51 141.242 161.56L139.105 161.865C138.973 161.884 138.846 161.929 138.732 161.998L137.038 163.015C136.883 163.108 136.705 163.158 136.523 163.158H136.117C136.013 163.158 135.91 163.133 135.817 163.087C135.449 162.903 135.333 162.434 135.572 162.099Z" fill="white"/>
  <path d="M131.987 152.077L131.654 151.079C131.49 150.586 130.902 150.385 130.47 150.673C130.222 150.838 130.089 151.13 130.126 151.426L130.389 153.532C130.445 153.977 130.159 154.394 129.723 154.504C129.225 154.628 128.725 154.306 128.633 153.8L128.039 150.53C127.989 150.256 128.056 149.974 128.223 149.751L129.024 148.682C129.154 148.509 129.224 148.299 129.224 148.083V144.297C129.224 143.974 129.38 143.671 129.642 143.483L131.807 141.936C132.038 141.771 132.329 141.712 132.606 141.773L135.542 142.426C135.808 142.486 136.087 142.433 136.314 142.282L136.907 141.886C137.107 141.753 137.354 141.71 137.588 141.768C138.198 141.921 138.438 142.658 138.036 143.141L137.1 144.265C136.91 144.493 136.629 144.625 136.332 144.625H135.7C135.593 144.625 135.486 144.608 135.384 144.574L134.429 144.255C134.327 144.221 134.22 144.204 134.113 144.204H132.894C132.697 144.204 132.504 144.262 132.339 144.372L131.816 144.721C131.537 144.907 131.441 145.271 131.59 145.57C131.69 145.769 131.882 145.905 132.102 145.933L134.752 146.264C134.98 146.293 135.179 146.433 135.281 146.639C135.43 146.936 135.345 147.297 135.079 147.496L134.521 147.915C134.135 148.205 134.011 148.73 134.227 149.162L135.011 150.732C135.081 150.871 135.117 151.024 135.117 151.179V152.023C135.117 152.393 134.907 152.733 134.576 152.898C134.381 152.996 134.159 153.026 133.945 152.983L132.739 152.742C132.387 152.671 132.1 152.418 131.987 152.077Z" fill="white"/>
  <path d="M143.735 139.792L142.986 140.541C142.799 140.729 142.693 140.983 142.693 141.248V143.606C142.693 143.958 142.932 144.264 143.273 144.349C143.8 144.481 144.293 144.036 144.216 143.498L144.027 142.171C143.982 141.86 144.087 141.546 144.309 141.323L144.788 140.844C145.039 140.594 145.077 140.201 144.881 139.906C144.62 139.514 144.067 139.46 143.735 139.792Z" fill="white"/>
  <path d="M143.355 150.018C143.337 150.099 143.318 150.182 143.3 150.264C143.174 150.846 143.632 151.307 144.225 151.243C145.514 151.104 147.069 150.943 147.324 150.943C147.536 150.943 147.536 150.496 147.472 150.024C147.41 149.57 147.002 149.258 146.543 149.258H144.316C143.857 149.258 143.456 149.57 143.355 150.018Z" fill="white"/>
  <path d="M153.275 145.574C152.656 145.74 151.461 146.008 149.726 146.266C149.54 146.294 149.378 146.41 149.294 146.578C149.141 146.884 149.289 147.255 149.61 147.372L153.274 148.705C153.506 148.789 153.762 148.774 153.983 148.664C154.287 148.512 154.479 148.201 154.479 147.861V146.452C154.479 146.107 154.284 145.791 153.975 145.637C153.759 145.528 153.509 145.511 153.275 145.574Z" fill="white"/>
  <path d="M151.757 150.438L151.776 150.327C151.872 149.751 152.438 149.379 153.005 149.521L153.637 149.679L156.115 150.388C156.411 150.472 156.729 150.416 156.978 150.235L160.679 147.542C161.003 147.306 161.438 147.286 161.782 147.493L164.938 149.388C165.239 149.569 165.423 149.894 165.423 150.245V160.016C165.423 160.718 164.719 161.202 164.064 160.95L160.04 159.401C159.982 159.378 159.928 159.344 159.884 159.3C159.695 159.111 159.713 158.8 159.921 158.633L161.116 157.677C161.43 157.425 161.563 157.009 161.452 156.621L160.918 154.751C160.839 154.472 160.642 154.242 160.38 154.12L154.749 151.49C154.573 151.408 154.377 151.379 154.185 151.406L152.885 151.592C152.216 151.688 151.646 151.105 151.757 150.438Z" fill="white"/>
  <path d="M129.224 125.633V124.595C129.224 124.259 128.951 123.986 128.616 123.986C128.465 123.986 128.32 124.042 128.208 124.143L124.559 127.429C124.331 127.635 124.268 127.967 124.405 128.242C124.521 128.473 124.757 128.62 125.016 128.62H125.907C126.146 128.62 126.377 128.534 126.558 128.379L128.875 126.392C129.096 126.202 129.224 125.924 129.224 125.633Z" fill="white"/>
  <path d="M110.374 107.625C110.067 107.684 109.697 107.754 109.345 107.816C108.737 107.923 108.27 108.536 108.372 109.145L108.574 110.36C108.59 110.458 108.621 110.553 108.666 110.643L108.743 110.798C108.912 111.136 109.259 111.351 109.638 111.351H109.782C110.097 111.351 110.393 111.202 110.582 110.95L111.345 109.932C111.475 109.759 111.545 109.549 111.545 109.333V108.586C111.545 108.215 111.336 107.876 111.004 107.71C110.809 107.613 110.588 107.583 110.374 107.625Z" fill="white"/>
  <path d="M130.711 110.087H129C128.621 110.087 128.275 110.301 128.106 110.64L128.043 110.765C127.989 110.874 127.955 110.991 127.943 111.112L127.561 114.929C127.547 115.069 127.563 115.21 127.608 115.344L127.886 116.181C127.936 116.328 128.018 116.462 128.128 116.572L131.501 119.947C131.662 120.108 131.872 120.209 132.098 120.234L134.626 120.516C135.142 120.573 135.616 120.226 135.717 119.718L135.756 119.523C135.867 118.97 135.497 118.434 134.939 118.351C134.073 118.222 133.054 118.09 132.591 118.09C132.05 118.09 131.654 117.365 131.446 116.788C131.359 116.546 131.4 116.28 131.528 116.056L132.747 113.921C132.913 113.631 132.922 113.277 132.773 112.978L131.605 110.64C131.435 110.301 131.089 110.087 130.711 110.087Z" fill="white"/>
  <path d="M130.308 122.367C130.284 122.339 130.259 122.312 130.234 122.286C129.979 122.017 129.732 121.532 129.822 121.173C129.929 120.743 130.464 120.595 130.777 120.908L131.37 121.501C131.591 121.722 131.625 122.067 131.452 122.327C131.193 122.715 130.621 122.714 130.308 122.367Z" fill="white"/>
  <path d="M132.115 123.255L131.801 123.882C131.767 123.951 131.749 124.026 131.749 124.103C131.749 124.29 131.855 124.46 132.022 124.544L132.383 124.725C132.52 124.793 132.671 124.829 132.824 124.829C133.197 124.829 133.538 124.618 133.705 124.284L133.749 124.197C133.818 124.059 133.854 123.906 133.854 123.75V123.565C133.854 123.314 133.693 123.09 133.454 123.011L133.039 122.872C132.764 122.781 132.462 122.852 132.258 123.056C132.2 123.114 132.152 123.181 132.115 123.255Z" fill="white"/>
  <path d="M137.549 121.49L136.887 121.711C136.584 121.812 136.38 122.096 136.38 122.415C136.38 122.612 136.458 122.801 136.597 122.94L137.528 123.872C137.604 123.948 137.691 124.011 137.787 124.059L138.273 124.302C138.412 124.371 138.565 124.408 138.72 124.408H139.126C139.254 124.408 139.377 124.357 139.467 124.266C139.63 124.103 139.655 123.849 139.528 123.657L138.242 121.728C138.13 121.56 137.942 121.459 137.74 121.459C137.675 121.459 137.611 121.47 137.549 121.49Z" fill="white"/>
  <path d="M137.016 125.045L136.422 124.45C136.166 124.194 135.751 124.194 135.496 124.45C135.275 124.67 135.241 125.016 135.414 125.275L135.812 125.873C135.907 126.015 136.047 126.122 136.209 126.176L136.298 126.206C136.752 126.357 137.221 126.019 137.221 125.54C137.221 125.354 137.148 125.176 137.016 125.045Z" fill="white"/>
  <path d="M134.192 126.092H134.152C133.961 126.092 133.778 126.168 133.643 126.303C133.509 126.438 133.433 126.621 133.433 126.811V126.852C133.433 127.161 133.608 127.443 133.884 127.582L134.138 127.709C134.228 127.754 134.327 127.777 134.428 127.777C134.599 127.777 134.764 127.709 134.885 127.588L134.927 127.546C135.049 127.424 135.117 127.259 135.117 127.088C135.117 126.987 135.093 126.888 135.048 126.798L134.921 126.543C134.783 126.267 134.501 126.092 134.192 126.092Z" fill="white"/>
  <path d="M137.216 129.462H134.807C134.513 129.462 134.275 129.701 134.275 129.995C134.275 130.186 134.377 130.363 134.543 130.458L136.75 131.72C137.042 131.886 137.221 132.196 137.221 132.532V132.561C137.221 133.137 137.748 133.568 138.313 133.455L138.657 133.387C139.012 133.315 139.225 132.949 139.111 132.606C139 132.273 139.195 131.916 139.536 131.831L139.912 131.737C140.31 131.638 140.589 131.28 140.589 130.87C140.589 130.774 140.573 130.679 140.543 130.588L139.448 127.302C139.375 127.083 139.17 126.935 138.939 126.935C138.677 126.935 138.453 127.125 138.409 127.383L138.202 128.626C138.122 129.108 137.705 129.462 137.216 129.462Z" fill="white"/>
  <path d="M126.401 98.739L125.105 100.685C125.046 100.774 125.015 100.877 125.015 100.983C125.015 101.147 125.089 101.301 125.216 101.403L126.636 102.54C126.931 102.776 127.335 102.818 127.673 102.65C127.86 102.556 128.012 102.404 128.105 102.217L129.001 100.425C129.141 100.144 129.141 99.8127 129.001 99.5313L128.875 99.281C128.827 99.1849 128.764 99.0971 128.688 99.0211L128.254 98.5866C128.066 98.3989 127.812 98.2935 127.547 98.2935H127.234C126.899 98.2935 126.587 98.4607 126.401 98.739Z" fill="white"/>
  <path d="M139.253 54.4014C137.922 52.8026 135.266 49.5829 134.097 48.0692C133.956 47.8862 133.975 47.6286 134.139 47.465C134.226 47.3778 134.344 47.3288 134.468 47.3288H135.117H135.526C135.802 47.3288 136.066 47.4427 136.255 47.6437L141.526 53.2475C142.049 53.8038 141.781 54.7247 141.029 54.856C140.838 54.8894 140.681 54.9103 140.589 54.9103C140.33 54.9103 141.71 56.7314 142.936 58.2761C143.34 58.7859 142.979 59.5435 142.329 59.5435C142.036 59.5435 141.769 59.3783 141.638 59.1168L139.378 54.5929C139.343 54.524 139.302 54.4606 139.253 54.4014Z" fill="white"/>
  <path d="M144.337 66.6446C144.229 65.3304 144.074 63.4118 143.999 62.3675C143.969 61.9383 144.232 61.5576 144.64 61.4214L144.764 61.3799C145.052 61.284 145.367 61.3236 145.622 61.4875L150.208 64.4378C150.697 64.7519 150.816 65.4142 150.468 65.8786L149.892 66.6469C149.863 66.6848 149.832 66.7206 149.799 66.7541L149.782 66.7712C149.559 66.9939 149.245 67.0988 148.933 67.0542L147.063 66.7869C146.708 66.7361 146.355 66.8938 146.156 67.1922C145.871 67.6203 145.293 67.7359 144.865 67.4505L144.779 67.3929C144.525 67.2236 144.362 66.9485 144.337 66.6446Z" fill="white"/>
  <path d="M146.834 69.5449L146.711 69.7289C146.564 69.9495 146.511 70.2194 146.563 70.4793L147.219 73.7608C147.284 74.0885 147.182 74.4273 146.945 74.6637L143.723 77.8882C143.6 78.0113 143.447 78.1002 143.279 78.146L139.032 79.3049C138.948 79.328 138.861 79.3397 138.773 79.3397C138.349 79.3397 137.973 79.611 137.839 80.0132L137.748 80.2872C137.679 80.4924 137.679 80.7141 137.748 80.9193L137.802 81.0823C137.954 81.5376 138.407 81.821 138.883 81.7575L143.448 81.1484C143.971 81.0787 144.458 81.4267 144.561 81.9436L144.592 82.1017C144.704 82.6617 145.262 83.0144 145.816 82.8759L145.9 82.8549C146.258 82.7652 146.538 82.4854 146.627 82.1271L146.836 81.2931C146.879 81.1173 146.97 80.9568 147.098 80.8286L147.128 80.7992C147.256 80.671 147.417 80.58 147.592 80.536L150.422 79.8281C150.598 79.7841 150.759 79.6931 150.887 79.5649L151.208 79.2436C151.414 79.0373 151.52 78.7511 151.498 78.4601L151.129 73.6607C151.118 73.5172 151.076 73.3778 151.006 73.252L149.157 69.9227C149.06 69.7465 148.911 69.6039 148.731 69.5137L148.114 69.205C147.662 68.9792 147.114 69.125 146.834 69.5449Z" fill="white"/>
  <path d="M138.819 86.3485L137.413 83.8868C137.3 83.6889 137.333 83.4398 137.494 83.2786C137.589 83.1837 137.718 83.1304 137.852 83.1304H138.605C139.036 83.1304 139.418 83.406 139.554 83.8144L139.663 84.1422C139.718 84.3072 139.729 84.4837 139.695 84.6543L139.374 86.2583C139.346 86.3988 139.223 86.5 139.08 86.5C138.972 86.5 138.872 86.4422 138.819 86.3485Z" fill="white"/>
  <path d="M141.735 83.7977L141.229 83.0383C141.101 82.847 141.127 82.5922 141.289 82.4295C141.38 82.3389 141.503 82.288 141.631 82.288H142.493C142.621 82.288 142.744 82.3389 142.835 82.4295C142.997 82.5922 143.023 82.847 142.895 83.0383L142.389 83.7977C142.316 83.9071 142.194 83.9728 142.062 83.9728C141.931 83.9728 141.808 83.9071 141.735 83.7977Z" fill="white"/>
  <path d="M64.8137 65.0937H67.0088L64.5533 52.0017H61.8373L59.4189 65.0937H61.5024L61.9675 62.176H64.3486L64.8137 65.0937ZM62.2465 60.3806L63.1581 54.564L64.0696 60.3806H62.2465Z" fill="#5865F2"/>
  <path d="M74.1516 56.6774V54.5453C74.1516 52.6002 72.7378 51.8521 70.952 51.8521H70.9148C69.1289 51.8521 67.7151 52.6002 67.7151 54.5453V56.2659C67.7151 57.6312 68.4406 58.2297 69.7056 58.9592L71.2124 59.8195C71.8635 60.1748 72.0681 60.5115 72.0681 61.1848V62.2135C72.0681 63.0177 71.6031 63.373 70.952 63.373C70.3009 63.373 69.8358 63.0177 69.8358 62.2135V60.2309H67.7151V62.5127C67.7151 64.5513 68.9615 65.2433 70.9334 65.2433H70.9706C72.9425 65.2433 74.1888 64.5326 74.1888 62.5127V60.6237C74.1888 59.221 73.4447 58.6412 72.1984 57.9305L70.6729 57.0702C70.0591 56.7148 69.8358 56.4156 69.8358 55.7423V54.8445C69.8358 54.0216 70.3009 53.7223 70.9334 53.7223C71.5659 53.7223 72.0309 54.0216 72.0309 54.8445V56.6774H74.1516Z" fill="#5865F2"/>
  <path d="M77.9832 65.0937V52.0017H75.8253V65.0937H77.9832Z" fill="#5865F2"/>
  <path d="M84.5245 65.0937H86.7196L84.264 52.0017H81.548L79.1297 65.0937H81.2132L81.6783 62.176H84.0594L84.5245 65.0937ZM81.9573 60.3806L82.8688 54.564L83.7804 60.3806H81.9573Z" fill="#5865F2"/>
</svg>
