<svg width="172" height="172" viewBox="0 0 172 172" fill="none" xmlns="http://www.w3.org/2000/svg">
  <path d="M115.431 32.5408V13.4427C115.431 12.685 116.241 12.2026 116.907 12.5633L133.254 21.4138C133.577 21.5886 133.778 21.9261 133.778 22.2932V27.3959C133.778 27.6612 133.883 27.9156 134.071 28.1032L142.244 36.2722C142.634 36.6628 142.634 37.2962 142.244 37.6868L141.81 38.1198C141.569 38.3614 141.22 38.4628 140.887 38.3887L134.805 37.0379C134.633 36.9997 134.474 36.9164 134.344 36.7967L125.353 28.5009C124.942 28.1215 124.299 28.1533 123.928 28.5713L118.998 34.1147C118.698 34.4525 118.208 34.5468 117.804 34.3447L115.984 33.4353C115.645 33.266 115.431 32.9197 115.431 32.5408Z" fill="white"/>
  <path d="M137.6 23.2256C137.047 23.2256 137.694 22.8259 138.094 22.3156C138.35 21.99 138.619 21.5994 139.006 21.4509L146.943 18.3993C147.598 18.1475 148.302 18.631 148.302 19.3327V20.9333V21.8434C148.302 22.2222 148.089 22.5682 147.75 22.736C145.583 23.8061 141.983 25.5179 141.422 25.5179C140.658 25.5179 138.364 23.2256 137.6 23.2256Z" fill="white"/>
  <path d="M145.995 11.1944L144.2 11.6431C143.915 11.7142 143.716 11.9699 143.716 12.2633C143.716 12.4329 143.783 12.5956 143.903 12.7155L145.078 13.8896C145.187 13.9993 145.321 14.082 145.468 14.131L147.411 14.7782C147.495 14.8063 147.575 14.8455 147.649 14.8948L149.831 16.3487L151.443 17.4225C151.839 17.6868 152.367 17.6345 152.704 17.2976L153.143 16.8585C153.448 16.5541 153.523 16.0889 153.331 15.7038L153.008 15.058C152.93 14.9024 152.813 14.7697 152.668 14.6732L150.74 13.3883C150.644 13.3248 150.539 13.2781 150.428 13.2503L147.984 12.6397C147.701 12.5689 147.463 12.378 147.332 12.1169L147.132 11.7172C146.922 11.2981 146.45 11.0808 145.995 11.1944Z" fill="white"/>
  <path d="M150.194 142.244C142.384 146.141 129.021 152.757 124.483 154.817C123.826 155.116 123.618 156.016 124.102 156.551L126.923 159.671C127.113 159.88 127.382 160 127.665 160H131.168C131.374 160 131.575 159.936 131.743 159.818L151.591 145.857C151.915 145.629 152.074 145.231 151.997 144.843L151.617 142.945C151.487 142.299 150.784 141.949 150.194 142.244Z" fill="white"/>
  <path d="M159.999 135.364C161.24 134.366 163.518 132.487 164.784 131.289C165 131.086 165.104 130.793 165.078 130.497L164.409 123.152C164.376 122.786 164.546 122.432 164.851 122.229L166.166 121.352C166.465 121.154 166.847 121.13 167.168 121.29L167.709 121.561C168.003 121.707 168.205 121.989 168.252 122.314L168.91 126.919C168.931 127.067 168.985 127.208 169.068 127.332L171.754 131.36C171.911 131.595 171.961 131.884 171.893 132.158L171.327 134.417C171.268 134.654 171.125 134.861 170.924 134.999L159.49 142.856C159.191 143.062 158.802 143.089 158.477 142.926L158.252 142.813C157.806 142.591 157.593 142.075 157.75 141.603L159.675 135.829C159.736 135.646 159.848 135.485 159.999 135.364Z" fill="white"/>
  <path d="M60.8795 45.8446L56.9931 52.3189C56.7468 52.7293 56.2455 52.9079 55.7951 52.7457C52.8242 51.6752 47.9551 49.9692 47.3956 49.9692C46.7888 49.9692 35.094 63.0081 29.187 69.6799C29.0939 69.7851 28.9828 69.8659 28.8549 69.924L4.40857 81.031C4.0515 81.1933 3.82222 81.5493 3.82222 81.9415V108.588C3.82222 108.731 3.79164 108.872 3.73252 109.002L0.286992 116.579C0.114377 116.959 0.195419 117.406 0.49034 117.7L3.44385 120.653C3.68025 120.889 4.01907 120.991 4.34683 120.926L49.2593 111.947C49.5331 111.893 49.8174 111.955 50.0433 112.119L57.6311 117.635C57.9199 117.845 58.2988 117.885 58.6251 117.74L63.8363 115.425C64.4217 115.165 65.0972 115.515 65.2228 116.143L67.8847 129.446C67.9736 129.891 68.3505 130.22 68.8029 130.248L92.0393 131.7C92.3303 131.718 92.6148 131.608 92.8182 131.399L119.754 103.728C119.924 103.553 120.024 103.322 120.036 103.078L120.766 87.7435C120.777 87.5272 120.716 87.3134 120.595 87.1342L106.367 66.1767C106.295 66.0702 106.244 65.9506 106.217 65.8247L101.797 45.2076C101.72 44.8463 101.449 44.5571 101.094 44.4556L97.5946 43.4563C96.9558 43.2739 96.32 43.7535 96.32 44.4179V54.8494C96.32 55.1463 96.1881 55.4278 95.96 55.6178L87.7786 62.4326C87.4115 62.7384 86.8792 62.7417 86.5082 62.4405L75.4871 53.4898C75.1472 53.2138 75.0264 52.7486 75.1891 52.342L77.9292 45.4949C77.9584 45.4221 77.9733 45.3443 77.9733 45.2658C77.9733 44.9143 77.6799 44.6338 77.3287 44.6498L61.6915 45.3603C61.3568 45.3755 61.0519 45.5573 60.8795 45.8446Z" fill="white"/>
  <path d="M25.4263 83.3779V94.2082C25.4263 96.9415 27.2673 98.0246 30.0551 98.0246H30.2655C33.0533 98.0246 34.8943 96.9415 34.8943 94.2082V83.3779C34.8943 80.6446 33.0533 79.5615 30.2655 79.5615H30.0551C27.2673 79.5615 25.4263 80.6188 25.4263 83.3779ZM28.4771 93.744V83.8421C28.4771 82.5527 29.1609 82.1917 30.1603 82.1917C31.1597 82.1917 31.8435 82.5527 31.8435 83.8421V93.744C31.8435 95.0334 31.1597 95.3944 30.1603 95.3944C29.1609 95.3944 28.4771 95.0334 28.4771 93.744Z" fill="#5865F2"/>
  <path d="M46.6281 90.4692H43.5773V93.744C43.5773 95.0076 42.9461 95.3944 41.973 95.3944C40.9999 95.3944 40.3687 95.0076 40.3687 93.744V83.8421C40.3687 82.5785 40.9999 82.1917 41.973 82.1917C42.9461 82.1917 43.5773 82.5785 43.5773 83.8421V86.6786H46.6281V83.3779C46.6281 80.6961 44.7871 79.5615 41.9993 79.5615H41.9467C39.1588 79.5615 37.3178 80.6961 37.3178 83.3779V94.2082C37.3178 97.0189 39.1588 98.0246 41.9467 98.0246H41.9993C44.7871 98.0246 46.6281 96.9931 46.6281 94.2082V90.4692Z" fill="#5865F2"/>
  <path d="M57.2108 97.8183V95.1881H52.1086V89.9792H56.3166V87.349H52.1086V82.398H57.1319V79.7678H49.0578V97.8183H57.2108Z" fill="#5865F2"/>
  <path d="M65.8794 97.8183H68.9828L65.5112 79.7678H61.6714L58.2523 97.8183H61.198L61.8555 93.7956H65.2219L65.8794 97.8183ZM62.25 91.3201L63.5387 83.3005L64.8274 91.3201H62.25Z" fill="#5865F2"/>
  <path d="M73.2915 97.8183V86.0855L77.3154 97.8183H80.2084V79.7678H77.4206V90.9333L73.5545 79.7678H70.5037V97.8183H73.2915Z" fill="#5865F2"/>
  <path d="M85.9879 97.8183V79.7678H82.9371V97.8183H85.9879Z" fill="#5865F2"/>
  <path d="M95.2359 97.8183H98.3393L94.8677 79.7678H91.0279L87.6089 97.8183H90.5545L91.212 93.7956H94.5784L95.2359 97.8183ZM91.6065 91.3201L92.8952 83.3005L94.1839 91.3201H91.6065Z" fill="#5865F2"/>
</svg>
