<svg width="172" height="172" viewBox="0 0 172 172" fill="none" xmlns="http://www.w3.org/2000/svg">
  <g clip-path="url(#clip0_1252_33500)">
    <path d="M150.955 96.1318L151.476 89.7795C151.518 89.2606 151.952 88.8612 152.473 88.8612H164.046C164.49 88.8612 164.88 88.5693 165.005 88.1442L170.703 68.8362C170.736 68.7233 170.749 68.6053 170.741 68.4878L170.121 59.0215C170.102 58.7331 169.959 58.467 169.729 58.2918L165.187 54.8286C164.939 54.6395 164.794 54.3454 164.794 54.0334V49.0258C164.794 48.68 164.972 48.3588 165.266 48.1763L173.499 43.0611C174.371 42.5193 173.958 41.1724 172.932 41.2125L142.456 42.4042C142.341 42.4087 142.226 42.4334 142.119 42.4771L113.348 54.1775C112.862 54.3752 112.306 54.1644 112.075 53.6934L109.175 47.7966C108.65 46.7299 115.009 47.776 118.348 48.4502C118.413 48.4634 118.478 48.4698 118.545 48.4698H120.812C120.996 48.4698 121.176 48.4191 121.333 48.3235L123.924 46.7425C124.222 46.561 124.404 46.2375 124.404 45.8888V45.1533C124.404 44.7219 124.127 44.3392 123.718 44.2038L106.154 38.3971C106.103 38.3803 106.051 38.3677 105.999 38.3592L101.991 37.7148C101.925 37.7041 101.857 37.7002 101.79 37.703L86.143 38.3659C86.0481 38.3699 85.9544 38.3875 85.8642 38.4173C85.156 38.6516 83.8474 39.0451 83.3514 39.0451C82.8264 39.0451 63.6116 52.7123 53.8158 59.7275C53.6429 59.8513 53.5197 60.0229 53.4534 60.2249L52.3476 63.5978C52.2725 63.8269 52.2827 64.0755 52.3764 64.2977L54.0243 68.2072C54.146 68.4958 54.3959 68.7108 54.6995 68.788L56.6445 69.2823C56.7903 69.3194 56.9426 69.3231 57.0901 69.2931L63.1457 68.0617C63.367 68.0168 63.5969 68.048 63.7982 68.1503L65.9249 69.2314C66.0636 69.3019 66.184 69.4039 66.2764 69.5292L69.8966 74.4366C70.0338 74.6226 70.2311 74.7553 70.455 74.8122L72.2458 75.2673C72.5658 75.3487 72.9054 75.2668 73.1532 75.0485L81.9477 67.2993C82.3586 66.9372 82.4018 66.3119 82.0445 65.8967L78.6022 61.897C78.2854 61.5289 78.2789 60.9864 78.5868 60.6108L87.6863 49.509C87.8762 49.2773 88.16 49.143 88.4597 49.143H89.9168C90.5972 49.143 91.079 49.8079 90.867 50.4545L87.5912 60.4458C87.4376 60.9145 87.6486 61.4253 88.0883 61.6488L92.4077 63.8446C92.5481 63.9159 92.7034 63.9531 92.8608 63.9531H99.5049C100.392 63.9531 100.823 65.0119 100.107 65.5347C99.7512 65.7942 99.4355 65.9727 99.2426 65.9727H92.6829C92.2506 65.9727 91.8681 66.2504 91.7334 66.6612L91.4577 67.5022C91.3569 67.8097 91.4111 68.1469 91.6032 68.4073L93.0836 70.4141C93.2112 70.5872 93.2629 70.8048 93.2267 71.0168C93.1391 71.529 92.5899 71.819 92.1176 71.6024L89.4129 70.3623C88.971 70.1597 88.4474 70.3042 88.172 70.7048L88.1623 70.719C88.0477 70.8857 87.9863 71.0832 87.9863 71.2855V78.4365C87.9863 78.9888 87.5386 79.4365 86.9863 79.4365H82.9288C82.7713 79.4365 82.6161 79.3993 82.4757 79.3279L81.6595 78.913C81.4682 78.8158 81.2508 78.7827 81.0393 78.8185L73.4194 80.1097C70.3294 80.3341 64.0171 80.7829 63.4874 80.7829C62.9838 80.7829 63.2382 79.566 63.4542 78.8676C63.4758 78.7978 63.491 78.7267 63.4981 78.654L64.0582 72.9594C64.1096 72.4368 63.7479 71.9634 63.2301 71.8756L60.9948 71.4968C60.5204 71.4165 60.0561 71.6853 59.8896 72.1367L58.3222 76.3862C58.2372 76.6165 58.24 76.87 58.3298 77.0984L59.2081 79.3307C59.3854 79.7814 59.2142 80.2945 58.8016 80.5484L34.5294 95.4848C34.4134 95.5562 34.2839 95.6032 34.1491 95.6227L30.5748 96.1419C30.0832 96.2133 29.7186 96.6347 29.7186 97.1315V98.4096C29.7186 98.7518 29.8935 99.0701 30.1822 99.2536L34.5519 102.03C34.8407 102.214 35.0156 102.532 35.0156 102.874V110.076C35.0156 110.629 34.5679 111.076 34.0156 111.076H18.2192C17.9511 111.076 17.6943 111.184 17.5063 111.375L16.743 112.151C16.571 112.326 16.4692 112.558 16.4572 112.803L15.8327 125.502C15.8205 125.749 15.9008 125.993 16.0581 126.185L19.1244 129.926L19.5157 130.324C19.69 130.501 19.924 130.607 20.1722 130.621L31.705 131.272H33.1673C33.4955 131.272 33.8028 131.111 33.9896 130.841L45.9737 113.527C46.1604 113.257 46.4677 113.096 46.7959 113.096H57.321C57.8195 113.096 58.2419 112.729 58.3113 112.235L58.7315 109.245C58.8008 108.751 59.2232 108.384 59.7217 108.384H63.6992C63.9856 108.384 64.2582 108.506 64.448 108.721L70.0091 115.003C70.0751 115.078 70.152 115.142 70.2371 115.194L73.2416 117.027C73.3589 117.098 73.4601 117.193 73.5391 117.306L76.5863 121.643C76.6807 121.777 76.7405 121.933 76.7606 122.096L77.1671 125.402C77.264 126.19 78.1961 126.556 78.8035 126.045L79.0901 125.804C79.2761 125.648 79.3987 125.429 79.435 125.188L79.9123 122.025C79.9861 121.536 80.4065 121.174 80.9011 121.174H81.8844C82.3289 121.174 82.6893 120.814 82.6893 120.369C82.6893 120.042 82.4909 119.747 82.1876 119.624L79.6395 118.588C79.469 118.518 79.3209 118.403 79.2116 118.255L77.4675 115.891C77.4175 115.823 77.3591 115.762 77.2938 115.709L74.0817 113.096L69.631 108.753C68.9891 108.127 69.4325 107.037 70.3294 107.037H73.5961C73.9027 107.037 74.1923 107.178 74.3819 107.419L79.1686 113.502C79.3048 113.675 79.4945 113.799 79.7081 113.853L84.0771 114.963C84.444 115.057 84.7269 115.349 84.8077 115.719L85.951 120.95C85.9833 121.098 86.0486 121.236 86.1421 121.355L88.465 124.307C88.5848 124.459 88.7463 124.573 88.9299 124.636L91.1978 125.404C91.7824 125.602 91.8881 126.384 91.3771 126.73C90.9909 126.992 90.9365 127.54 91.2637 127.872L93.4562 130.101C93.9816 130.635 94.886 130.424 95.1194 129.712L95.8236 127.564C95.8938 127.35 95.8896 127.118 95.8116 126.906L94.2534 122.682C94.0779 122.206 94.2864 121.674 94.7385 121.444L99.0292 119.263C99.1696 119.192 99.3248 119.155 99.4823 119.155H107.27C107.591 119.155 107.85 118.895 107.85 118.574C107.85 118.513 107.841 118.452 107.822 118.393L106.625 114.744C106.561 114.548 106.559 114.336 106.62 114.139L109.62 104.378C109.749 103.958 110.137 103.671 110.576 103.671H117.501C118.241 103.671 118.725 104.448 118.398 105.113L118.218 105.479C117.977 105.969 118.174 106.563 118.662 106.811L120.217 107.602C120.358 107.673 120.513 107.71 120.671 107.71H123.119C123.5 107.71 123.848 107.494 124.016 107.152L124.12 106.942C124.293 106.59 124.244 106.17 123.996 105.866L122.201 103.677C121.711 103.079 122.056 102.174 122.82 102.055L128.861 101.11C129.345 101.034 129.813 101.321 129.966 101.786L130.096 102.184C130.25 102.652 130.039 103.163 129.599 103.387L129.336 103.52C129.143 103.618 128.987 103.776 128.892 103.97L128.518 104.73C128.426 104.917 128.395 105.128 128.428 105.334L128.948 108.504C129.004 108.847 129.236 109.137 129.558 109.268L138.649 112.965C138.857 113.05 139.088 113.062 139.305 112.999L143.296 111.84C143.497 111.781 143.712 111.787 143.91 111.858L155.173 115.866C155.908 116.127 156.646 115.485 156.488 114.721L154.366 104.475C154.27 104.008 154.516 103.537 154.955 103.351L159.588 101.389C160.451 101.023 160.382 99.7782 159.485 99.5098L151.665 97.1716C151.213 97.0362 150.917 96.6026 150.955 96.1318Z" fill="white"/>
    <path d="M-2.94098 50.5943C-3.16534 50.7001 -3.45333 50.8254 -3.74385 50.9314C-4.26269 51.1207 -4.7124 51.6102 -4.7124 52.1625V53.915C-4.7124 54.2914 -4.50107 54.6359 -4.16556 54.8065L-3.56525 55.1116C-3.44831 55.1711 -3.32083 55.2069 -3.19006 55.2172L5.2196 55.8749H9.85454C10.3264 55.8749 13.9854 54.0944 15.8712 52.9124C16.2392 52.6818 16.3841 52.2291 16.2488 51.8164L15.8867 50.712C15.8387 50.5655 15.7575 50.4322 15.6494 50.3223L13.4591 48.0953C13.2711 47.9042 13.0142 47.7966 12.7461 47.7966H11.2794C11.2125 47.7966 11.146 47.8033 11.0804 47.8165C9.94195 48.0465 7.72045 48.4698 7.20601 48.4698C6.70585 48.4698 3.01802 48.8699 0.935944 49.1034C0.708089 49.129 0.496929 49.2322 0.336148 49.3956L-0.445735 50.1906C-0.633725 50.3817 -0.890585 50.4893 -1.15867 50.4893H-2.48642C-2.64391 50.4893 -2.79853 50.5272 -2.94098 50.5943Z" fill="white"/>
    <path d="M18.2112 81.1567C19.5938 80.1474 21.7633 78.54 22.7071 77.7604C22.9591 77.5523 23.2892 77.4495 23.6115 77.5041L26.751 78.0361C26.9584 78.0712 27.1494 78.1708 27.2969 78.3208L28.1072 79.1446C28.2912 79.3317 28.3943 79.5835 28.3943 79.8459V80.7391C28.3943 81.1677 28.1212 81.5486 27.7153 81.6862L27.1925 81.8634C26.7373 82.0176 26.4563 82.4737 26.5232 82.9496L26.9548 86.0212C27.0216 86.4971 26.7406 86.9532 26.2854 87.1075L25.3393 87.4281C25.1718 87.4849 24.9923 87.4962 24.8191 87.461L22.714 87.0329C22.1882 86.926 21.6718 87.2531 21.5436 87.7741L21.3401 88.6018C21.212 89.1228 20.6956 89.4499 20.1698 89.343L18.6009 89.024C18.1349 88.9292 17.8001 88.5195 17.8001 88.044V81.9657C17.8001 81.6455 17.9526 81.3455 18.2112 81.1567Z" fill="white"/>
    <path d="M29.7186 77.0076V71.685C29.7186 71.1327 30.1663 70.685 30.7186 70.685H32.7223C32.9223 70.685 33.1177 70.745 33.2833 70.8573L34.7594 71.8578C34.9263 71.9709 35.0551 72.1318 35.1289 72.3194L38.9138 81.9395C38.963 82.0647 39.0371 82.1787 39.1314 82.2746L40.0188 83.1769C40.2068 83.368 40.4637 83.4756 40.7318 83.4756H42.0595C42.217 83.4756 42.3723 83.5128 42.5127 83.5842L43.0765 83.8708C43.412 84.0414 43.6234 84.3859 43.6234 84.7623V86.4322C43.6234 86.6946 43.5203 86.9464 43.3363 87.1334L43.2551 87.216C43.0671 87.4071 42.8103 87.5148 42.5422 87.5148H41.637C41.3108 87.5148 41.3026 88.0253 41.396 88.5747C41.4879 89.1154 41.2186 89.6761 40.6992 89.8521L39.7787 90.1641C39.6937 90.1929 39.6129 90.2331 39.5386 90.2834L37.9183 91.3817C37.7527 91.4939 37.5572 91.5539 37.3572 91.5539H34.4786C34.3955 91.5539 34.3128 91.5643 34.2322 91.5847L31.8262 92.1963C31.7457 92.2167 31.6629 92.2271 31.5799 92.2271H30.3807H28.6387C28.4823 92.2271 28.3325 92.1643 28.2229 92.0529C27.9675 91.7932 28.01 91.3656 28.3115 91.1612L29.553 90.3197C29.6623 90.2457 29.7558 90.1507 29.8282 90.0403L30.9887 88.2705C31.0247 88.2156 31.066 88.1644 31.112 88.1176L31.8283 87.3894C32.146 87.0663 32.2069 86.5701 31.9766 86.1799L30.7712 84.1373C30.5409 83.7471 30.6018 83.2509 30.9195 82.9279L31.5906 82.2455C31.6663 82.1685 31.7541 82.1043 31.8504 82.0553L32.4824 81.7341C32.8179 81.5635 33.0292 81.219 33.0292 80.8426V79.1727C33.0292 78.9103 32.9261 78.6585 32.7422 78.4715L32.661 78.3889C32.473 78.1978 32.2161 78.0901 31.948 78.0901H30.7998C30.5317 78.0901 30.2748 77.9825 30.0868 77.7913L30.0056 77.7088C29.8217 77.5217 29.7186 77.2699 29.7186 77.0076Z" fill="white"/>
    <path d="M67.9692 76.1912L67.0521 75.5696C66.8866 75.4574 66.6911 75.3974 66.4911 75.3974H66.1983C65.766 75.3974 65.3827 75.6751 65.2481 76.0858L64.9386 77.0297C64.8572 77.278 64.8762 77.5482 64.9915 77.7826L65.199 78.2046C65.3672 78.5466 65.7152 78.7633 66.0964 78.7633H66.9201C67.2571 78.7633 67.5715 78.5935 67.7563 78.3116L68.2444 77.5673C68.544 77.1104 68.4215 76.4977 67.9692 76.1912Z" fill="white"/>
    <path d="M45.3053 121.577C44.796 122.234 44.0813 123.087 43.5395 123.544C43.2553 123.784 42.9612 124.168 42.9612 124.54C42.9612 124.912 43.2626 125.213 43.6344 125.213H44.1207C44.2298 125.213 44.3382 125.231 44.4416 125.266L45.3153 125.562C45.8421 125.741 46.4133 125.455 46.5865 124.927L46.934 123.867L47.3791 122.962C47.516 122.684 47.516 122.358 47.3791 122.079L47.2088 121.733C47.0406 121.391 46.6926 121.174 46.3114 121.174H46.1147C45.7972 121.174 45.4997 121.325 45.3053 121.577Z" fill="white"/>
    <path d="M61.1631 113.096H60.5958C60.3277 113.096 60.0708 113.204 59.8828 113.395L59.8016 113.477C59.6177 113.664 59.5146 113.916 59.5146 114.179V115.175C59.5146 115.552 59.7259 115.896 60.0614 116.067L60.3857 116.232C60.6704 116.376 61.0072 116.376 61.292 116.232L61.6163 116.067C61.9518 115.896 62.1631 115.552 62.1631 115.175V115.116V114.096C62.1631 113.544 61.7154 113.096 61.1631 113.096Z" fill="white"/>
    <path d="M58.1903 123.459V119.094C58.1903 118.717 58.4016 118.374 58.7371 118.204L59.301 117.917C59.4414 117.846 59.5967 117.808 59.7542 117.808H60.8784C61.2595 117.808 61.6075 118.025 61.7757 118.367L62.0605 118.946C62.128 119.083 62.1631 119.234 62.1631 119.387V121.847V123.337C62.1631 123.668 61.9987 123.978 61.7242 124.165L60.665 124.882C60.3637 125.087 59.9753 125.111 59.6508 124.946L58.9978 124.614C58.9015 124.565 58.8138 124.501 58.7381 124.424L58.4774 124.159C58.2934 123.972 58.1903 123.721 58.1903 123.459Z" fill="white"/>
    <path d="M74.1215 126.56H69.8652C69.5971 126.56 69.3407 126.667 69.1527 126.859L69.0715 126.941C68.8875 127.128 68.7844 127.38 68.7844 127.642V127.674C68.7844 127.827 68.8196 127.978 68.8871 128.115L69.3427 129.041C69.411 129.18 69.5106 129.301 69.6337 129.395L71.8265 131.067C72.0007 131.2 72.2138 131.272 72.4329 131.272H74.3246C74.5927 131.272 74.8495 131.164 75.0375 130.973L75.1187 130.891C75.3027 130.704 75.4058 130.452 75.4058 130.19V128.139C75.4058 127.986 75.3707 127.835 75.3031 127.697L75.0184 127.118C74.8502 126.776 74.5026 126.56 74.1215 126.56Z" fill="white"/>
    <path d="M71.1391 132.917L70.884 133.177C70.8091 133.253 70.7468 133.341 70.6996 133.437L70.4927 133.857C70.2726 134.305 70.416 134.846 70.829 135.126L71.9501 135.886C72.0461 135.951 72.1525 135.999 72.2649 136.028L73.9578 136.458C74.4159 136.574 74.8929 136.354 75.1015 135.93L75.3031 135.52C75.3707 135.383 75.4058 135.232 75.4058 135.079V133.965V133.618C75.4058 133.066 74.9581 132.618 74.4058 132.618H71.8521C71.584 132.618 71.3271 132.726 71.1391 132.917Z" fill="white"/>
    <path d="M94.8856 98.5525L94.2992 96.3275L90.2285 97.4365L89.0672 93.0301L92.4244 92.1155L91.838 89.8905L88.4808 90.8051L87.377 86.6168L91.3847 85.525L90.7983 83.3L84.3565 85.0549L88.3808 100.325L94.8856 98.5525Z" fill="#5865F2"/>
    <path d="M99.9175 80.8157L97.4835 81.4788L100.599 93.3019C100.887 94.3926 100.506 94.8237 99.7084 95.041C98.9111 95.2582 98.369 95.0785 98.0815 93.9878L94.9656 82.1647L92.5315 82.8278L95.751 95.0436C96.3776 97.4213 98.0287 97.8833 100.253 97.2774L100.337 97.2545C102.561 96.6486 103.758 95.3873 103.137 93.0315L99.9175 80.8157Z" fill="#5865F2"/>
    <path d="M113.998 93.3459L110.192 87.4388C111.078 86.7064 111.425 85.6301 111.039 84.1686L110.321 81.4419C109.711 79.1296 108.001 78.6136 105.777 79.2195L101.979 80.2541L106.003 95.5238L108.437 94.8607L106.833 88.7747L108.05 88.4431L111.522 94.0204L113.998 93.3459ZM104.999 81.8161L106.279 81.4674C107.077 81.2501 107.703 81.4069 107.99 82.4976L108.513 84.4827C108.801 85.5734 108.336 86.0274 107.538 86.2446L106.258 86.5933L104.999 81.8161Z" fill="#5865F2"/>
    <path d="M112.044 80.7854L114.458 89.9472C115.068 92.2595 116.778 92.7755 119.002 92.1696L119.17 92.1239C121.394 91.518 122.622 90.2016 122.012 87.8894L119.598 78.7276C118.988 76.4153 117.278 75.8992 115.054 76.5052L114.886 76.5509C112.662 77.1568 111.429 78.4513 112.044 80.7854ZM116.789 88.8915L114.581 80.515C114.294 79.4243 114.759 78.9703 115.556 78.753C116.354 78.5358 116.98 78.6926 117.267 79.7833L119.475 88.1598C119.762 89.2505 119.297 89.7045 118.5 89.9217C117.702 90.139 117.076 89.9822 116.789 88.8915Z" fill="#5865F2"/>
    <path d="M124.608 74.0894L120.81 75.124L124.835 90.3937L127.269 89.7306L125.711 83.8191L127.075 83.4475C129.299 82.8416 130.526 81.5253 129.917 79.213L129.152 76.3118C128.543 73.9995 126.832 73.4834 124.608 74.0894ZM127.379 79.4834C127.667 80.5741 127.202 81.0281 126.404 81.2454L125.124 81.5941L123.831 76.6859L125.111 76.3372C125.908 76.12 126.534 76.2768 126.822 77.3675L127.379 79.4834Z" fill="#5865F2"/>
    <path d="M140.376 86.1599L139.79 83.9349L135.719 85.0438L134.558 80.6374L137.915 79.7228L137.328 77.4978L133.971 78.4124L132.867 74.2242L136.875 73.1324L136.289 70.9073L129.847 72.6622L133.871 87.9319L140.376 86.1599Z" fill="#5865F2"/>
  </g>
  <defs>
    <clipPath id="clip0_1252_33500">
      <rect width="172" height="172" fill="white"/>
    </clipPath>
  </defs>
</svg>
