<svg width="172" height="172" viewBox="0 0 172 172" fill="none" xmlns="http://www.w3.org/2000/svg">
  <path d="M55.6749 84.345L55.0799 80.8053C54.937 79.9549 53.8569 79.672 53.3154 80.3431L51.0385 83.1655C50.8486 83.4008 50.5625 83.5376 50.2602 83.5376H47.7651C47.2128 83.5376 46.7651 83.9853 46.7651 84.5376V85.2697C46.7651 85.4261 46.8018 85.5803 46.8722 85.7199L49.745 91.4173L57.1637 103.372C57.455 103.841 57.3104 104.458 56.8408 104.749L49.999 108.989C49.8333 109.092 49.6411 109.144 49.4462 109.139L13.0218 108.188C12.4611 108.174 12.0221 107.701 12.049 107.141L13.935 67.8663C13.9629 67.2865 14.4769 66.8522 15.0532 66.9214L46.1574 70.66C46.5304 70.7049 46.897 70.5369 47.1066 70.2251L48.6545 67.9228C48.7188 67.8271 48.7661 67.7211 48.7943 67.6093L53.4236 49.247C53.5767 48.64 53.1407 48.0432 52.5158 48.0044L22.5891 46.1497C22.1908 46.125 21.8453 45.8659 21.7101 45.4905L17.4486 33.6584C17.2139 33.0067 17.6968 32.3195 18.3895 32.3195H24.349C24.699 32.3195 25.0234 32.1366 25.2046 31.8372L27.6088 27.8638C27.7856 27.5716 28.0993 27.3899 28.4407 27.3818L68.6343 26.4328C69.1773 26.42 69.6107 25.9762 69.6107 25.4331V22.3533C69.6107 21.8552 69.9773 21.433 70.4705 21.3632L76.3319 20.5328C76.4844 20.5112 76.6398 20.5251 76.786 20.5735L97.0517 27.2721C97.2903 27.3509 97.4905 27.5168 97.6124 27.7365L108.063 46.579C108.24 46.8968 108.574 47.094 108.938 47.094H118.35C118.872 47.094 119.306 46.6923 119.347 46.1715C119.412 45.3257 119.485 44.368 119.561 43.3657C119.594 42.929 119.908 42.5645 120.335 42.4664L129.939 40.2596C130.111 40.2201 130.29 40.2268 130.459 40.279L145.719 45.008C145.96 45.0826 146.164 45.2454 146.29 45.4639L149.816 51.5837C149.974 51.8575 149.993 52.1897 149.868 52.4797L147.247 58.5449C147.144 58.7815 147.137 59.0484 147.227 59.2899L154.04 77.6278L154.987 81.3826C155.018 81.5049 155.071 81.6202 155.145 81.7226L159.627 87.9452C159.855 88.2607 159.878 88.6793 159.688 89.0185L155.32 96.8158C155.143 97.1316 154.809 97.3271 154.448 97.3271H149.223C149.124 97.3271 149.026 97.3124 148.931 97.2835L123.485 89.5196C123.33 89.4721 123.188 89.3876 123.073 89.2732L109.635 75.9478C109.447 75.7621 109.194 75.6579 108.931 75.6579H102.28C101.48 75.6579 101.003 76.5515 101.45 77.2158L113.434 95.0417C113.842 95.6482 114.742 95.6267 115.12 95.0014L116.433 92.8313C116.822 92.1882 117.755 92.1882 118.144 92.8313L120.052 95.9848C120.191 96.2135 120.232 96.4879 120.166 96.747L119.527 99.2827C119.389 99.8296 119.731 100.382 120.282 100.504L127.624 102.122C127.987 102.202 128.365 102.073 128.604 101.788L132.881 96.6987C133.072 96.4726 133.352 96.3421 133.647 96.3421H134.819C135.045 96.3421 135.264 96.4184 135.441 96.5587L149.689 107.861C149.928 108.051 150.067 108.34 150.067 108.645V110.74C150.067 110.983 149.979 111.217 149.819 111.4L130.349 133.602C130.252 133.713 130.131 133.801 129.996 133.86L90.4923 151.058C89.9489 151.294 89.3202 151.009 89.1403 150.444L83.5494 132.888C83.5277 132.82 83.4988 132.754 83.463 132.692L55.7946 84.6786C55.7351 84.5754 55.6946 84.4624 55.6749 84.345Z" fill="white"/>
  <path d="M71.0046 56.7728V66.7293H73.7298V50.4453H70.956L67.6468 59.9133L64.362 50.4453H61.6855V66.7293H64.3134V56.7728L66.8682 64.3565H68.4498L71.0046 56.7728Z" fill="#5865F2"/>
  <path d="M79.0761 66.7293V50.4453H76.2536V66.7293H79.0761Z" fill="#5865F2"/>
  <path d="M85.9531 50.4453H81.5977V66.7293H85.9531C88.5323 66.7293 90.2355 65.7523 90.2355 63.2864V53.8882C90.2355 51.4224 88.5323 50.4453 85.9531 50.4453ZM87.413 54.3069V62.8677C87.413 64.0308 86.7804 64.3565 85.8558 64.3565H84.4202V52.8181H85.8558C86.7804 52.8181 87.413 53.1438 87.413 54.3069Z" fill="#5865F2"/>
  <path d="M96.9309 50.4453H92.5755V66.7293H96.9309C99.5101 66.7293 101.213 65.7523 101.213 63.2864V53.8882C101.213 51.4224 99.5101 50.4453 96.9309 50.4453ZM98.3908 54.3069V62.8677C98.3908 64.0308 97.7582 64.3565 96.8336 64.3565H95.398V52.8181H96.8336C97.7582 52.8181 98.3908 53.1438 98.3908 54.3069Z" fill="#5865F2"/>
  <path d="M110.731 64.31H106.376V50.4453H103.553V66.7293H110.731V64.31Z" fill="#5865F2"/>
  <path d="M119.793 66.7293V64.3565H115.073V59.6574H118.966V57.2846H115.073V52.8181H119.72V50.4453H112.25V66.7293H119.793Z" fill="#5865F2"/>
  <path d="M69.0903 89.0942V86.7745H64.4564V82.1804H68.2782V79.8606H64.4564V75.4939H69.0187V73.1741H61.6855V89.0942H69.0903Z" fill="#5865F2"/>
  <path d="M76.9633 89.0942H79.7819L76.6289 73.1741H73.1415L70.0363 89.0942H72.7115L73.3087 85.5463H76.3661L76.9633 89.0942ZM73.667 83.363L74.8374 76.2899L76.0079 83.363H73.667Z" fill="#5865F2"/>
  <path d="M88.9535 78.8599V76.2672C88.9535 73.9019 87.1382 72.9922 84.8451 72.9922H84.7973C82.5042 72.9922 80.6888 73.9019 80.6888 76.2672V78.3595C80.6888 80.0198 81.6204 80.7476 83.2447 81.6345L85.1795 82.6807C86.0155 83.1128 86.2782 83.5222 86.2782 84.341V85.5918C86.2782 86.5698 85.6811 87.0019 84.8451 87.0019C84.009 87.0019 83.4119 86.5698 83.4119 85.5918V83.1811H80.6888V85.9557C80.6888 88.4347 82.2892 89.2762 84.8212 89.2762H84.8689C87.4009 89.2762 89.0013 88.412 89.0013 85.9557V83.6587C89.0013 81.9529 88.0458 81.2479 86.4454 80.3837L84.4868 79.3375C83.6985 78.9054 83.4119 78.5415 83.4119 77.7227V76.6311C83.4119 75.6304 84.009 75.2665 84.8212 75.2665C85.6333 75.2665 86.2305 75.6304 86.2305 76.6311V78.8599H88.9535Z" fill="#5865F2"/>
  <path d="M98.3185 73.1741H89.9582V75.4939H92.7529V89.0942H95.5238V75.4939H98.3185V73.1741Z" fill="#5865F2"/>
</svg>
