<svg width="172" height="172" viewBox="0 0 172 172" fill="none" xmlns="http://www.w3.org/2000/svg">
  <path d="M24.3945 131.636L23.5491 123.635C23.4953 123.126 23.0662 122.74 22.5546 122.74H9.30682C8.75453 122.74 8.30682 122.292 8.30682 121.74V113.977L9.75969 103.363C9.76836 103.3 9.77093 103.236 9.76737 103.172L9.29223 94.6516C9.28683 94.5548 9.29554 94.4578 9.31807 94.3635L11.4327 85.5155C11.583 84.8869 11.1064 84.283 10.4601 84.283H4.52116C3.78478 84.283 3.30097 83.5141 3.61966 82.8502L8.26302 73.178C8.29214 73.1174 8.31507 73.0539 8.33145 72.9886L11.7273 59.4566L13.9595 49.6718C14.0778 49.1534 13.7697 48.6331 13.2583 48.4875L1.07526 45.0198C0.715036 44.9173 0.442304 44.622 0.368585 44.2548L0.229359 43.5613C0.108748 42.9606 0.551916 42.3936 1.16404 42.3656L8.79545 42.016L13.4749 41.9356C13.6114 41.9333 13.7469 41.9589 13.8732 42.011L27.4644 47.6137C27.7125 47.716 27.9913 47.7142 28.2381 47.6088L34.4002 44.9779C34.5908 44.8965 34.802 44.8764 35.0045 44.9203L45.5311 47.2C45.7879 47.2556 46.0562 47.2079 46.2781 47.0672L50.5426 44.3637C50.9765 44.0887 51.1314 43.5297 50.9009 43.0706L50.8342 42.9376C50.5656 42.4025 50.8244 41.7528 51.3874 41.5489L54.6979 40.3496C55.2424 40.1523 55.8401 40.4574 55.9997 41.0141L56.5138 42.8065C56.617 43.1664 56.9125 43.4384 57.2796 43.5116L58.3204 43.7189C58.7882 43.8121 59.125 44.2227 59.125 44.6997V44.8835C59.125 45.6917 60.0341 46.166 60.697 45.7037L63.7536 43.5722C63.9214 43.4552 64.121 43.3925 64.3256 43.3925H67.9076C68.215 43.3925 68.4961 43.5659 68.634 43.8406C68.7914 44.1542 68.7298 44.5333 68.4812 44.7809L64.2495 48.9967C64.095 49.1507 63.8944 49.2498 63.6783 49.2792L54.3075 50.5522C53.8791 50.6104 53.703 51.1343 54.0093 51.4394C54.1498 51.5794 54.1988 51.7869 54.1359 51.975L53.9436 52.5496C53.8247 52.9049 53.518 53.1639 53.1476 53.2203C50.9047 53.5614 47.2658 54.1019 46.9091 54.1019C46.5527 54.1019 39.9426 59.496 35.8154 62.9081C35.274 63.3557 35.3537 64.2062 35.9673 64.5485L46.3963 70.3667C46.7129 70.5434 46.9091 70.8775 46.9091 71.24V76.4679C46.9091 77.0202 47.3567 77.4679 47.909 77.4679H49.8409C50.1842 77.4679 50.5527 77.2176 50.7477 77.0467C50.7959 77.0045 50.8363 76.9544 50.8722 76.9013L64.8414 56.2665C64.9379 56.124 65.0696 56.0087 65.2237 55.932L65.7188 55.6853C65.8805 55.6048 66.061 55.5696 66.2411 55.5834L71.9502 56.0209C72.1877 56.0391 72.4109 56.1414 72.5796 56.3095L75.4895 59.2084C75.6508 59.3691 75.7524 59.5799 75.7776 59.806L76.0819 62.534C76.155 63.1901 76.8326 63.5965 77.4459 63.3521L83.1412 61.0826C83.4057 60.9772 83.7025 60.9895 83.9573 61.1164L84.0401 61.1577C84.3476 61.3109 84.5549 61.6111 84.5892 61.9529L85.4426 70.4549C85.484 70.8673 85.7755 71.2114 86.1754 71.32L90.7911 72.5741C90.8544 72.5913 90.916 72.6147 90.9747 72.644L91.3095 72.8108C91.649 72.9799 91.8636 73.3266 91.8636 73.7059V74.3103C91.8636 74.4661 91.8273 74.6197 91.7574 74.7589L91.5138 75.2442C91.4234 75.4244 91.2806 75.573 91.1043 75.6706L82.8055 80.2636C82.6573 80.3456 82.4907 80.3887 82.3213 80.3887H70.6128C70.4492 80.3887 70.2881 80.4288 70.1436 80.5056L63.5167 84.0266C63.2484 84.1692 63.1429 84.4999 63.2792 84.7715C63.4149 85.0417 63.7408 85.1552 64.015 85.0278L70.0758 82.21C70.5227 82.0023 71.0544 82.1511 71.3285 82.5607L71.6606 83.057C71.7708 83.2216 71.8295 83.4151 71.8295 83.6132V84.077C71.8295 84.2129 71.8018 84.3474 71.7482 84.4722L70.6654 86.9892C70.4872 87.4033 70.6082 87.8854 70.9607 88.1664L72.5333 89.4198C72.7104 89.5609 72.9301 89.6377 73.1566 89.6377H76.1538C76.4642 89.6377 76.7159 89.8894 76.7159 90.1998C76.7159 90.4448 76.5572 90.6616 76.3237 90.7357L66.7453 93.7718C66.3128 93.9089 65.8504 93.6737 65.7065 93.2435L65.5977 92.9184C65.5286 92.712 65.6222 92.4863 65.817 92.3893C66.284 92.1566 66.0232 91.4489 65.5169 91.575L61.8502 92.4882C61.6674 92.5338 61.5049 92.6388 61.3882 92.7867L56.2836 99.2589C56.2237 99.3349 56.1529 99.4019 56.0737 99.4576L48.1179 105.052C47.9665 105.159 47.8476 105.305 47.7745 105.475L45.0966 111.7C45.0048 111.913 44.8414 112.088 44.6346 112.194L29.373 120.027C29.0393 120.198 28.8295 120.541 28.8295 120.916V131.573C28.8295 131.839 28.7237 132.094 28.5353 132.282L28.1449 132.671C27.9575 132.857 27.7037 132.962 27.4392 132.962H25.8222C25.5576 132.962 25.3039 132.857 25.1164 132.671L24.6832 132.239C24.5206 132.077 24.4187 131.864 24.3945 131.636Z" fill="white"/>
  <path d="M21.6578 137.186L20.4506 138.389C20.202 138.636 20.1404 139.016 20.2978 139.329C20.4357 139.604 20.7168 139.777 21.0242 139.777H25.5654C25.7812 139.777 25.9911 139.847 26.1639 139.976L29.0463 142.13C29.4726 142.448 29.5748 143.045 29.2788 143.487L29.1238 143.719C28.9419 143.991 28.9202 144.339 29.0668 144.631C29.2209 144.938 29.535 145.132 29.8785 145.132H35.9278C36.3578 145.132 36.7397 144.857 36.8762 144.449L36.8903 144.407C37.0351 143.974 36.8686 143.498 36.4856 143.25L27.571 137.478C27.4348 137.389 27.2792 137.336 27.1176 137.321L22.4537 136.899C22.159 136.872 21.8675 136.977 21.6578 137.186Z" fill="white"/>
  <path d="M28.4064 146.803L28.619 146.697C28.7575 146.628 28.9101 146.592 29.0648 146.592H31.3483C31.6128 146.592 31.8666 146.697 32.054 146.884L32.933 147.76C33.1214 147.947 33.2273 148.202 33.2273 148.468V148.79C33.2273 148.945 33.1909 149.099 33.121 149.238L33.0612 149.357C32.8685 149.741 32.452 149.959 32.0266 149.899L29.5421 149.545C29.3947 149.524 29.2538 149.47 29.1298 149.388L28.299 148.836C28.02 148.651 27.8523 148.338 27.8523 148.003V147.698C27.8523 147.319 28.0669 146.972 28.4064 146.803Z" fill="white"/>
  <path d="M41.2995 148.053H37.6616C37.3476 148.053 37.0692 147.852 36.9696 147.554L36.9578 147.519C36.8053 147.064 37.1445 146.592 37.625 146.592C38.1055 146.592 38.4447 146.121 38.2922 145.666L38.245 145.525C38.1645 145.284 38.2273 145.019 38.4069 144.84C38.532 144.715 38.7014 144.645 38.878 144.645H42.0227L46.9261 145.089C47.2194 145.116 47.4781 145.292 47.6101 145.555C47.775 145.884 47.7105 146.281 47.4501 146.54L47.1356 146.854C46.9883 147 46.7988 147.098 46.5937 147.132L44.1884 147.531C44.0492 147.554 43.9165 147.606 43.799 147.684L42.993 148.22C42.695 148.418 42.314 148.441 41.9939 148.282L41.7447 148.158C41.6062 148.089 41.4543 148.053 41.2995 148.053Z" fill="white"/>
  <path d="M49.7877 147.658C50.1357 147.369 50.5569 147.079 50.8182 147.079H51.588C51.7244 147.079 51.859 147.111 51.9811 147.172L52.0409 147.201C52.4447 147.403 52.6083 147.894 52.406 148.297C52.3269 148.454 52.1988 148.582 52.0409 148.661L51.5174 148.922C51.3789 148.991 51.2263 149.026 51.0715 149.026H50.3424C50.035 149.026 49.7539 148.853 49.616 148.578C49.4586 148.265 49.5179 147.883 49.7877 147.658Z" fill="white"/>
  <path d="M86.7386 79.6528L81.8058 84.567C81.4239 84.9475 81.424 85.5658 81.806 85.9463C81.9885 86.1281 82.2355 86.2302 82.4931 86.2302H88.9318H91.3523C91.9046 86.2302 92.3523 85.7825 92.3523 85.2302V85.1041C92.3523 84.8872 92.2817 84.6761 92.1512 84.5027L90.9407 82.8948C90.9045 82.8468 90.8728 82.7956 90.8458 82.7419L90.6039 82.2598C90.473 81.9991 90.2349 81.8085 89.9518 81.738L89.0254 81.5073C88.667 81.418 88.387 81.1385 88.2971 80.7803L88.1101 80.0348C88.0186 79.6705 87.6912 79.4151 87.3156 79.4151C87.0989 79.4151 86.8921 79.4999 86.7386 79.6528Z" fill="white"/>
  <path d="M56.3892 54.2971L56.0833 53.9924C55.6352 53.546 55.7089 52.8009 56.2358 52.4509L57.8963 51.3481C58.0603 51.2392 58.2527 51.1811 58.4496 51.1811H59.9104C60.0371 51.1811 60.1628 51.2052 60.2805 51.2522L61.9156 51.9037C62.2959 52.0553 62.5455 52.4233 62.5455 52.8327V53.4828C62.5455 53.8621 62.3324 54.2132 61.9794 54.352C61.6613 54.4771 61.3088 54.5887 61.0795 54.5887H57.0947C56.8301 54.5887 56.5766 54.4838 56.3892 54.2971Z" fill="white"/>
  <path d="M107.989 54.6955V48.3313C107.989 47.9834 108.169 47.6628 108.466 47.4809L113.864 44.1719C114.16 43.9901 114.341 43.6672 114.341 43.3193V39.2826C114.341 39.1049 114.294 38.9305 114.204 38.7773L111.198 33.6443C111.025 33.3488 110.713 33.1624 110.371 33.1503L98.2031 32.7173C97.665 32.6982 97.2386 32.2564 97.2386 31.718V30.0136C97.2386 29.5748 97.5247 29.1873 97.944 29.058L117.629 22.9881C117.717 22.9609 117.808 22.9461 117.9 22.944L138.773 22.4604L153.83 21.0087C153.89 21.0029 153.951 21.0026 154.011 21.0077L170.66 22.4294C170.894 22.4494 171.114 22.5514 171.281 22.7173L171.364 22.7999C171.726 23.1605 171.757 23.7361 171.437 24.1345L170.263 25.5973C170.122 25.7726 169.926 25.8953 169.707 25.9457L164.087 27.2377C163.835 27.2958 163.614 27.4499 163.473 27.6675L153.151 43.559C153.017 43.7652 152.812 43.9149 152.575 43.9794L147.64 45.3201C147.592 45.3331 147.543 45.3425 147.494 45.3483L139.484 46.2872C139.337 46.3043 139.197 46.3536 139.071 46.4315L135.453 48.6844C135.386 48.7261 135.314 48.7597 135.24 48.7846L125.315 52.0804C125.167 52.1293 125.034 52.2117 124.924 52.321L117.604 59.6138C117.394 59.8227 117.102 59.928 116.808 59.9013L112.291 59.4922C112.038 59.4693 111.804 59.3513 111.635 59.1621L108.242 55.36C108.079 55.1767 107.989 54.941 107.989 54.6955Z" fill="white"/>
  <path d="M75.5148 50.4943C76.1504 50.0095 77.1737 49.1997 77.8833 48.5454C78.0778 48.3661 78.3304 48.2604 78.5949 48.2604H80.3798C81.3064 48.2604 81.7347 47.109 81.0333 46.5035L75.8338 42.0142C75.7706 41.9597 75.7008 41.9132 75.6261 41.876L74.9901 41.5592C74.84 41.4845 74.6735 41.4486 74.506 41.4551L62.2724 41.9238C62.1349 41.9291 62.0014 41.8769 61.904 41.7798C61.7162 41.5927 61.709 41.291 61.8877 41.0952L66.3288 36.2284C66.4119 36.1373 66.5112 36.0624 66.6216 36.0074L67.2212 35.7087C67.3597 35.6397 67.5124 35.6038 67.6671 35.6038H68.5705C69.0211 35.6038 69.3864 35.9691 69.3864 36.4197V36.4454C69.3864 36.5326 69.3697 36.6189 69.3372 36.6998C69.0784 37.3443 69.835 37.9186 70.3862 37.4962L72.4207 35.9371C73.1793 35.3558 72.7682 34.1434 71.8124 34.1434H66.4628C65.9185 34.1434 65.4773 33.7021 65.4773 33.1578C65.4773 32.8578 65.6139 32.5741 65.8486 32.3871L67.6469 30.9538C67.824 30.8127 68.0438 30.7358 68.2702 30.7358H68.736C68.8431 30.7358 68.9495 30.7531 69.0512 30.7868L71.7063 31.6685C71.7875 31.6955 71.8736 31.7046 71.9586 31.6952L74.3993 31.4263C74.8073 31.3814 74.8031 30.7866 74.3944 30.7475C74.3157 30.74 74.2421 30.7054 74.1861 30.6496L74.1109 30.5746C73.9159 30.3803 73.8675 30.0828 73.991 29.8368L74.0478 29.7236C74.1857 29.4489 74.4668 29.2755 74.7742 29.2755H79.7186C80.1347 29.2755 80.4051 28.8372 80.2184 28.4653C80.0001 28.0303 80.4032 27.5433 80.8713 27.6766L81.6813 27.9071C82.3145 28.0874 82.9139 27.5336 82.7844 26.8881C82.6772 26.3545 83.0756 25.8526 83.6196 25.8359L91.4982 25.5931C91.7207 25.5862 91.9186 25.4498 92.0041 25.2443C92.165 24.8577 91.8656 24.4361 91.4476 24.4606L84.6624 24.8582C84.288 24.8801 83.9365 24.6772 83.7682 24.342C83.6352 24.0769 83.6379 23.7657 83.7526 23.4923C83.8985 23.1446 84.0455 22.722 84.0455 22.4604C84.0455 22.1205 97.6891 21.5089 107.117 21.1429C108.145 21.103 108.552 22.4522 107.675 22.9897L104.711 24.8067C104.616 24.8647 104.513 24.9066 104.405 24.9306L95.8587 26.8225C95.8015 26.8351 95.7455 26.8528 95.6914 26.8753L84.39 31.5664C84.1678 31.6587 83.9198 31.6677 83.6914 31.5919L82.7654 31.2844C82.6436 31.2439 82.5134 31.2358 82.3875 31.2609L80.7804 31.5811C80.2346 31.6899 80.2689 32.4813 80.822 32.5426C81.2665 32.5918 81.4151 33.1639 81.0507 33.4232L78.8495 34.9895C78.7319 35.0733 78.5958 35.1276 78.4529 35.148C77.5474 35.2768 77.3841 36.515 78.2253 36.8741L88.4037 41.2198C88.7308 41.3594 88.959 41.6622 89.0033 42.015L89.3598 44.8559C89.3981 45.1612 89.5748 45.4319 89.8389 45.5898L91.6491 46.6717C91.7899 46.7559 91.9079 46.8735 91.9926 47.0142L92.8359 48.4144C93.112 48.8728 92.9783 49.4672 92.5325 49.7633L90.8229 50.8988C90.5558 51.0761 90.2199 51.1147 89.9196 51.0025L87.8386 50.2251C87.185 49.9809 86.4886 50.4642 86.4886 51.1618V54.5392C86.4886 54.8741 86.3209 55.1869 86.0419 55.3722L85.4723 55.7505C85.1917 55.9368 84.8362 55.9694 84.5264 55.8371L83.0677 55.2143C82.5677 55.0009 82.0731 55.5269 82.317 56.0127C82.4619 56.3014 82.3447 56.6528 82.0556 56.7968L81.1761 57.2349C80.8382 57.4032 80.4342 57.3669 80.1317 57.1409L75.0276 53.3272C74.8548 53.1981 74.6448 53.1283 74.429 53.1283H69.2417C69.0214 53.1283 68.8101 53.041 68.6541 52.8856C68.4972 52.7293 68.4091 52.5171 68.4091 52.2957V51.183C68.4091 50.9131 68.6279 50.6943 68.8977 50.6943H74.9177C75.1334 50.6943 75.3433 50.6251 75.5148 50.4943Z" fill="white"/>
  <path d="M15.2141 39.7355L14.3334 38.2001C14.0053 37.6281 14.311 36.9006 14.9493 36.7347L24.5581 34.2376C24.7918 34.1768 25.0395 34.2027 25.2555 34.3103L26.6504 35.0051C26.7962 35.0777 26.9145 35.1957 26.9875 35.3412C27.1884 35.7414 26.9976 36.2273 26.5782 36.384L16.4315 40.1747C15.9729 40.346 15.4576 40.1601 15.2141 39.7355Z" fill="white"/>
  <path d="M22.3801 41.7069C23.1962 41.4934 24.1938 41.22 25.0134 40.9662C25.6638 40.7649 25.7766 39.9857 25.2442 39.5614C24.675 39.1078 24.823 38.2058 25.5073 37.9579L28.9723 36.7027C29.1956 36.6218 29.4404 36.623 29.6628 36.7061L32.8883 37.9111C33.1073 37.9929 33.3481 37.9954 33.5688 37.9181L36.0428 37.0517C36.3714 36.9366 36.7293 37.1211 36.8263 37.4555C36.9601 37.9169 37.5516 38.0473 37.867 37.6848L38.2904 37.1983C38.4869 36.9724 38.7776 36.8514 39.0763 36.871L40.293 36.9507C41.0615 37.0011 41.487 37.8647 41.0587 38.5047L39.6669 40.5846C39.3557 41.0496 39.5047 41.6809 39.9909 41.9576C40.7964 42.4162 40.5531 43.6363 39.6333 43.7508L38.7538 43.8604C38.6534 43.8729 38.5516 43.8701 38.452 43.852L33.4784 42.9512C33.3136 42.9213 33.144 42.9333 32.985 42.9861L28.983 44.3151C28.8814 44.3488 28.775 44.3658 28.6689 44.3803C28.3867 44.4189 27.805 44.544 26.875 44.8528C25.7503 45.2263 23.3374 43.8388 22.1359 43.0089C22.0383 42.9414 21.9608 42.8502 21.9076 42.7442C21.6986 42.3278 21.9294 41.8249 22.3801 41.7069Z" fill="white"/>
  <path d="M18.3435 83.7172L18.9346 78.1145L20.2346 83.9152L21.5942 84.0576L22.5036 75.438L21.1934 75.3008L20.6309 80.6326L19.3765 75.1106L17.9427 74.9604L17.0333 83.58L18.3435 83.7172Z" fill="#5865F2"/>
  <path d="M23.5052 77.2858L22.9596 82.4576C22.8219 83.7628 23.6326 84.3706 24.9427 84.5078L25.0416 84.5181C26.3518 84.6553 27.2716 84.2287 27.4093 82.9235L27.9549 77.7518C28.0926 76.4465 27.282 75.8387 25.9718 75.7016L25.8729 75.6912C24.5627 75.554 23.6442 75.9683 23.5052 77.2858ZM24.4168 82.3861L24.9156 77.6576C24.9806 77.0419 25.3202 76.9032 25.7898 76.9524C26.2595 77.0016 26.5627 77.2076 26.4978 77.8233L25.9989 82.5517C25.9339 83.1674 25.5944 83.3061 25.1247 83.257C24.655 83.2078 24.3518 83.0017 24.4168 82.3861Z" fill="#5865F2"/>
  <path d="M33.1251 85.2649L32.2749 81.4784C32.8955 81.2819 33.2962 80.801 33.3832 79.9759L33.5456 78.4367C33.6833 77.1315 32.8726 76.5237 31.5624 76.3865L29.3252 76.1523L28.4159 84.7718L29.8496 84.922L30.2121 81.4865L30.929 81.5615L31.6666 85.1122L33.1251 85.2649ZM30.6265 77.5584L31.3805 77.6374C31.8502 77.6865 32.1534 77.8926 32.0884 78.5083L31.9702 79.6288C31.9052 80.2445 31.5657 80.3832 31.096 80.334L30.342 80.2551L30.6265 77.5584Z" fill="#5865F2"/>
  <path d="M38.6611 77.1298L34.335 76.6769L34.2025 77.9328L35.6486 78.0843L34.8718 85.4478L36.3056 85.5979L37.0824 78.2344L38.5286 78.3858L38.6611 77.1298Z" fill="#5865F2"/>
  <path d="M39.4042 77.2076L38.4948 85.8272L39.9286 85.9773L40.3235 82.234L41.9674 82.4061L41.5725 86.1494L43.0063 86.2996L43.9157 77.68L42.4819 77.5299L42.1025 81.1255L40.4586 80.9533L40.838 77.3578L39.4042 77.2076Z" fill="#5865F2"/>
  <path d="M18.7995 96.2146L20.258 96.3673L19.5359 87.5769L17.7313 87.388L15.215 95.8393L16.5994 95.9842L17.1111 94.0957L18.6932 94.2613L18.7995 96.2146ZM17.4212 92.933L18.4309 89.1668L18.6325 93.0598L17.4212 92.933Z" fill="#5865F2"/>
  <path d="M26.2628 91.6676L25.7068 96.9378L27.0911 97.0828L28.0005 88.4632L26.5915 88.3157L24.3817 93.1513L23.2418 87.965L21.8822 87.8226L20.9728 96.4422L22.3077 96.5819L22.8637 91.3117L23.7381 95.4618L24.5415 95.546L26.2628 91.6676Z" fill="#5865F2"/>
  <path d="M32.1555 97.6131L32.288 96.3571L29.8901 96.106L30.1525 93.6186L32.1302 93.8257L32.2627 92.5697L30.285 92.3627L30.5345 89.9984L32.8953 90.2456L33.0278 88.9896L29.2332 88.5923L28.3238 97.2119L32.1555 97.6131Z" fill="#5865F2"/>
  <path d="M37.8734 98.2118L37.0232 94.4252C37.6437 94.2287 38.0444 93.7478 38.1314 92.9228L38.2938 91.3836C38.4315 90.0783 37.6209 89.4706 36.3107 89.3334L34.0735 89.0991L33.1641 97.7187L34.5979 97.8688L34.9603 94.4333L35.6772 94.5084L36.4149 98.0591L37.8734 98.2118ZM35.3748 90.5052L36.1287 90.5842C36.5984 90.6334 36.9016 90.8394 36.8367 91.4551L36.7184 92.5756C36.6535 93.1913 36.3139 93.3301 35.8442 93.2809L35.0903 93.2019L35.3748 90.5052Z" fill="#5865F2"/>
  <path d="M40.2239 98.4579L41.1333 89.8384L39.6995 89.6882L38.7901 98.3078L40.2239 98.4579Z" fill="#5865F2"/>
  <path d="M46.2012 95.5356L44.7674 95.3855L44.6024 96.9493C44.5388 97.5527 44.2226 97.7063 43.7653 97.6584C43.308 97.6105 43.0308 97.3948 43.0945 96.7914L43.5933 92.063C43.657 91.4596 43.9731 91.306 44.4305 91.3539C44.8878 91.4017 45.165 91.6175 45.1013 92.2209L44.9584 93.5754L46.3922 93.7255L46.5585 92.1494C46.6936 90.8687 45.8855 90.2363 44.5753 90.0992L44.5506 90.0966C43.2404 89.9594 42.318 90.4106 42.1829 91.6912L41.6373 96.8629C41.4957 98.2051 42.3103 98.7759 43.6204 98.9131L43.6452 98.9157C44.9554 99.0529 45.8725 98.651 46.0128 97.3211L46.2012 95.5356Z" fill="#5865F2"/>
  <path d="M49.9899 99.4805L51.4484 99.6332L50.7262 90.8428L48.9216 90.6538L46.4054 99.1051L47.7898 99.2501L48.3014 97.3615L49.8836 97.5272L49.9899 99.4805ZM48.6116 96.1988L49.6212 92.4327L49.8229 96.3257L48.6116 96.1988Z" fill="#5865F2"/>
  <path d="M18.2667 108.608L18.3993 107.352L16.0014 107.101L16.2638 104.614L18.2414 104.821L18.3739 103.565L16.3963 103.358L16.6457 100.994L19.0065 101.241L19.139 99.985L15.3444 99.5877L14.4351 108.207L18.2667 108.608Z" fill="#5865F2"/>
  <path d="M22.3407 109.035L23.7992 109.188L23.077 100.397L21.2724 100.208L18.7562 108.66L20.1406 108.805L20.6523 106.916L22.2344 107.082L22.3407 109.035ZM20.9624 105.753L21.972 101.987L22.1737 105.88L20.9624 105.753Z" fill="#5865F2"/>
  <path d="M29.1298 104.144L29.2779 102.74C29.413 101.459 28.5256 100.868 27.339 100.744L27.3143 100.741C26.1277 100.617 25.1363 101.011 25.0012 102.292L24.8817 103.425C24.7869 104.324 25.2274 104.768 26.0172 105.337L26.9586 106.008C27.3665 106.287 27.4791 106.523 27.4323 106.966L27.3609 107.643C27.305 108.173 26.9713 108.375 26.5387 108.329C26.1061 108.284 25.8218 108.018 25.8777 107.488L26.0154 106.183L24.6063 106.035L24.4478 107.538C24.3062 108.88 25.0863 109.422 26.3965 109.559L26.4212 109.562C27.7314 109.699 28.6089 109.318 28.7492 107.988L28.8804 106.744C28.9778 105.821 28.5237 105.387 27.7449 104.833L26.7911 104.16C26.4079 103.883 26.2804 103.671 26.3272 103.228L26.3895 102.637C26.4467 102.095 26.7765 101.93 27.1967 101.974C27.617 102.018 27.9052 102.247 27.848 102.789L27.7207 103.996L29.1298 104.144Z" fill="#5865F2"/>
  <path d="M34.3006 101.573L29.9745 101.12L29.842 102.376L31.2881 102.527L30.5112 109.891L31.945 110.041L32.7219 102.677L34.1681 102.829L34.3006 101.573Z" fill="#5865F2"/>
</svg>
