<svg width="172" height="172" viewBox="0 0 172 172" fill="none" xmlns="http://www.w3.org/2000/svg">
  <path d="M155.277 167.005L153.702 170.158C153.533 170.497 153.187 170.712 152.808 170.712H150.623C150.357 170.712 150.103 170.817 149.915 171.005L149.214 171.707C149.027 171.895 148.772 172 148.507 172H147.153C147.046 172 146.939 171.983 146.837 171.949L139.56 169.521C139.37 169.457 139.205 169.34 139.084 169.181C136.241 165.455 130.903 158.332 130.903 157.828C130.903 157.32 122.983 153.849 118.854 152.105C118.734 152.055 118.629 151.983 118.537 151.891L114.588 147.937C114.331 147.68 113.954 147.583 113.605 147.683L110.005 148.712C109.786 148.775 109.552 148.761 109.343 148.673L90.0891 140.59C89.8508 140.49 89.6604 140.302 89.558 140.064L77.5725 112.279C77.5186 112.154 77.4907 112.02 77.4907 111.883V106.648C77.4907 106.096 77.043 105.648 76.4907 105.648H75.9167C75.3644 105.648 74.9167 106.096 74.9167 106.648V112.529C74.9167 112.664 74.9441 112.798 74.9974 112.923L80.3812 125.498C80.5708 125.941 80.4177 126.456 80.017 126.724L77.7754 128.22C77.28 128.55 76.6074 128.377 76.3328 127.849L68.5798 112.923C68.515 112.799 68.4772 112.662 68.469 112.521L67.8588 102.137C67.8453 101.908 67.7532 101.69 67.598 101.521L61.0217 94.3391C60.8529 94.1547 60.7593 93.916 60.7593 93.666V77.3034C60.7593 75.7793 73.6831 62.4446 80.4207 55.6889C80.6078 55.5013 80.7083 55.2519 80.7083 54.9869V53.4682C80.7083 52.9697 77.8995 50.4227 76.3565 49.0903C76.2557 49.0033 76.173 48.8974 76.1135 48.7782L75.7111 47.9725C75.6132 47.7765 75.5824 47.5539 75.6233 47.3387L78.0354 34.6618C78.0973 34.3368 77.9943 34.0023 77.7605 33.7682L70.7152 26.7154C70.5216 26.5217 70.2571 26.4158 69.9833 26.4225L44.2451 27.0509C44.1019 27.0544 43.9611 27.0886 43.8323 27.1512L21.7117 37.9068C21.5754 37.9731 21.4259 38.0075 21.2744 38.0075H17.8291C17.3712 38.0075 17 37.6363 17 37.1784C17 36.8927 17.1471 36.6271 17.3894 36.4755L24.9779 31.7277C25.7681 31.2333 25.5118 30.022 24.5891 29.89L23.3105 29.7072C22.9856 29.6607 22.7041 29.4577 22.5575 29.1641L22.4445 28.938C22.2649 28.5783 22.3181 28.1461 22.5796 27.8407L29.7011 19.5236C29.8121 19.3939 29.9545 19.2948 30.1146 19.2358L36.8418 16.7547C37.8893 16.3684 37.6122 14.8165 36.4958 14.8165H34.267C33.9325 14.8165 33.6201 14.6492 33.4347 14.3708L32.9521 13.6462C32.6648 13.2148 32.7548 12.6354 33.1593 12.3114L35.388 10.5266C35.5654 10.3845 35.7859 10.3071 36.0131 10.3071H48.293C48.7974 10.3071 49.2228 9.93151 49.2853 9.43102L49.7479 5.72677C49.7922 5.37209 50.0224 5.06802 50.3518 4.92919L61.86 0.0785105C61.983 0.0266942 62.115 0 62.2484 0H92.7727C92.8803 0 92.9872 0.017362 93.0893 0.0514164L98.5643 1.87836C98.6719 1.91425 98.7848 1.93158 98.8981 1.92963L116.372 1.62804C116.931 1.6184 117.389 2.06886 117.389 2.6279V5.04974C117.389 5.49324 117.681 5.88376 118.106 6.00902L128.329 9.01873L134.571 11.2909C135.048 11.4645 135.319 11.9681 135.201 12.4619L132.19 25.1236L127.705 41.1585C127.692 41.2051 127.675 41.2507 127.656 41.2949L120.587 57.2159C120.294 57.8772 120.778 58.6217 121.501 58.6217H130.893C131.549 58.6217 132.027 59.2419 131.86 59.876L129.012 70.7091C128.986 70.81 128.975 70.9145 128.981 71.0187L129.61 82.3614C129.614 82.4249 129.611 82.4887 129.603 82.5518L127.685 96.6292V107.225C127.685 107.777 127.237 108.225 126.685 108.225H123.659C123.356 108.225 123.07 108.362 122.88 108.597L107.495 127.695C107.25 127.999 107.205 128.419 107.379 128.769L112.608 139.237C112.777 139.576 113.124 139.79 113.503 139.79H123.343C123.647 139.79 123.935 139.652 124.124 139.415L128.628 133.779C128.842 133.511 129.179 133.371 129.52 133.409L133.757 133.88C134.311 133.942 134.707 134.445 134.638 134.998L134.142 138.976C134.128 139.089 134.095 139.198 134.044 139.299L130.338 146.718C130.006 147.383 130.49 148.165 131.233 148.165H140.963C141.118 148.165 141.271 148.201 141.41 148.271L141.934 148.532C142.272 148.702 142.486 149.048 142.486 149.427V164.899C142.486 165.299 142.724 165.66 143.092 165.818L146.368 167.223C146.744 167.385 147.18 167.301 147.47 167.011L148.628 165.851C148.816 165.664 149.07 165.558 149.336 165.558H154.383C155.126 165.558 155.609 166.34 155.277 167.005Z" fill="white"/>
  <path d="M74.4992 50.727C74.6893 50.7891 74.9057 50.8397 75.1463 50.8677C75.41 50.8983 75.6656 50.9969 75.8531 51.1847L78.0196 53.3534C78.0955 53.4294 78.1587 53.5172 78.2067 53.6133L78.5187 54.2379C78.6789 54.5587 78.6552 54.9407 78.4564 55.2391L77.7876 56.2434C77.6021 56.5219 77.2898 56.6891 76.9552 56.6891H75.9747C75.7093 56.6891 75.4548 56.5836 75.2672 56.3959L73.6996 54.8266C73.6531 54.78 73.6112 54.729 73.5747 54.6742L72.5103 53.0758C72.4009 52.9116 72.3426 52.7187 72.3426 52.5215V51.9495C72.3426 51.6845 72.4478 51.4303 72.6351 51.2428L72.9221 50.9554C73.3128 50.5644 73.9739 50.5553 74.4992 50.727Z" fill="white"/>
  <path d="M79.7477 81.8015L77.8202 74.6004L82.1666 81.1527L83.9057 80.6862L80.9403 69.6076L79.2645 70.0571L81.0988 76.91L76.9404 70.6805L75.1064 71.1724L78.0718 82.2511L79.7477 81.8015Z" fill="#5865F2"/>
  <path d="M83.0472 71.4173L84.8265 78.0645C85.2755 79.7421 86.5602 80.1099 88.236 79.6604L88.3625 79.6265C90.0384 79.177 90.9671 78.2154 90.5181 76.5378L88.7389 69.8906C88.2898 68.213 87.0052 67.8451 85.3293 68.2946L85.2028 68.3285C83.527 68.7781 82.594 69.7238 83.0472 71.4173ZM86.5842 77.2876L84.9575 71.2102C84.7456 70.4189 85.0974 70.0871 85.6982 69.9259C86.299 69.7648 86.7693 69.8761 86.9811 70.6674L88.6079 76.7448C88.8197 77.5362 88.4679 77.868 87.8672 78.0291C87.2664 78.1903 86.796 78.079 86.5842 77.2876Z" fill="#5865F2"/>
  <path d="M98.6549 76.7301L95.8157 72.4536C96.4856 71.9177 96.7504 71.1342 96.4666 70.0739L95.937 68.0955C95.488 66.4179 94.2034 66.05 92.5275 66.4995L89.6659 67.2671L92.6313 78.3458L94.4652 77.8539L93.2833 73.4382L94.2003 73.1923L96.7893 77.2305L98.6549 76.7301ZM91.9319 68.3895L92.8964 68.1308C93.4971 67.9697 93.9675 68.081 94.1793 68.8723L94.5648 70.3126C94.7766 71.1039 94.4249 71.4357 93.8241 71.5969L92.8597 71.8556L91.9319 68.3895Z" fill="#5865F2"/>
  <path d="M101.607 64.064L96.0739 65.5483L96.506 67.1626L98.3558 66.6665L100.889 76.1308L102.723 75.6389L100.19 66.1745L102.039 65.6784L101.607 64.064Z" fill="#5865F2"/>
  <path d="M102.558 63.8091L105.523 74.8878L107.357 74.3958L106.069 69.5845L108.172 69.0205L109.46 73.8318L111.294 73.3399L108.329 62.2612L106.495 62.7532L107.732 67.3745L105.629 67.9386L104.392 63.3172L102.558 63.8091Z" fill="#5865F2"/>
  <path d="M86.229 97.026L88.0946 96.5256L83.0423 86.0067L80.734 86.6259L81.6441 98.2558L83.4148 97.7809L83.1492 95.2059L85.1729 94.6631L86.229 97.026ZM82.9797 93.6229L82.4369 88.493L84.5291 93.2073L82.9797 93.6229Z" fill="#5865F2"/>
  <path d="M93.251 87.8824L95.0641 94.6562L96.8348 94.1812L93.8694 83.1026L92.0671 83.586L91.6411 90.6042L87.7826 84.7352L86.0435 85.2017L89.0089 96.2804L90.7164 95.8224L88.9032 89.0486L91.9443 93.7628L92.972 93.4871L93.251 87.8824Z" fill="#5865F2"/>
  <path d="M103.313 92.4437L102.881 90.8293L99.8134 91.6521L98.9576 88.4551L101.487 87.7765L101.055 86.1622L98.5255 86.8407L97.7122 83.802L100.732 82.992L100.3 81.3777L95.4461 82.6796L98.4115 93.7583L103.313 92.4437Z" fill="#5865F2"/>
  <path d="M110.626 90.4819L107.787 86.2055C108.457 85.6695 108.722 84.8861 108.438 83.8257L107.909 81.8474C107.459 80.1697 106.175 79.8019 104.499 80.2514L101.637 81.019L104.603 92.0976L106.437 91.6057L105.255 87.1901L106.172 86.9441L108.761 90.9823L110.626 90.4819ZM103.903 82.1414L104.868 81.8827C105.469 81.7215 105.939 81.8328 106.151 82.6242L106.536 84.0644C106.748 84.8557 106.396 85.1876 105.796 85.3487L104.831 85.6074L103.903 82.1414Z" fill="#5865F2"/>
  <path d="M113.633 89.6754L110.668 78.5968L108.834 79.0887L111.799 90.1673L113.633 89.6754Z" fill="#5865F2"/>
  <path d="M119.598 83.2411L117.764 83.733L118.302 85.743C118.509 86.5185 118.193 86.8577 117.608 87.0146C117.023 87.1715 116.58 87.0359 116.373 86.2604L114.746 80.1829C114.539 79.4074 114.854 79.0683 115.439 78.9113C116.024 78.7544 116.467 78.8901 116.675 79.6656L117.141 81.4065L118.975 80.9146L118.433 78.8888C117.992 77.2428 116.699 76.8433 115.023 77.2928L114.991 77.3013C113.316 77.7508 112.395 78.744 112.836 80.39L114.615 87.0372C115.077 88.7623 116.349 89.0827 118.025 88.6331L118.056 88.6247C119.732 88.1751 120.669 87.2452 120.212 85.536L119.598 83.2411Z" fill="#5865F2"/>
  <path d="M126.125 86.3248L127.99 85.8244L122.938 75.3055L120.63 75.9246L121.54 87.5546L123.31 87.0796L123.045 84.5047L125.069 83.9618L126.125 86.3248ZM122.875 82.9217L122.333 77.7918L124.425 82.5061L122.875 82.9217Z" fill="#5865F2"/>
  <path d="M92.7805 100.358L91.073 100.816L92.2741 108.975L88.7331 101.443L87.0888 101.884L87.7841 110.179L84.749 102.512L82.9466 102.995L87.6511 113.608L89.4377 113.128L88.8271 105.15L92.2835 112.365L94.0068 111.903L92.7805 100.358Z" fill="#5865F2"/>
  <path d="M101.589 109.869L101.157 108.255L98.09 109.077L97.2343 105.88L99.7639 105.202L99.3318 103.587L96.8022 104.266L95.9888 101.227L99.0085 100.417L98.5764 98.8029L93.7228 100.105L96.6882 111.184L101.589 109.869Z" fill="#5865F2"/>
  <path d="M106.129 101.018L105.646 99.2135C105.206 97.5675 103.835 97.2568 102.317 97.6639L102.285 97.6724C100.768 98.0795 99.7356 99.0348 100.176 100.681L100.566 102.137C100.875 103.292 101.627 103.633 102.868 103.962L104.343 104.347C104.977 104.499 105.227 104.737 105.38 105.307L105.613 106.177C105.795 106.858 105.48 107.265 104.927 107.413C104.373 107.562 103.898 107.367 103.715 106.686L103.266 105.009L101.464 105.492L101.981 107.423C102.443 109.148 103.659 109.45 105.334 109L105.366 108.992C107.042 108.542 107.94 107.656 107.483 105.947L107.055 104.349C106.737 103.162 105.973 102.841 104.753 102.523L103.262 102.143C102.66 101.982 102.402 101.78 102.25 101.21L102.046 100.451C101.86 99.7542 102.187 99.395 102.725 99.2508C103.262 99.1066 103.725 99.2538 103.912 99.9502L104.327 101.501L106.129 101.018Z" fill="#5865F2"/>
  <path d="M111.269 95.3985L105.735 96.8827L106.167 98.497L108.017 98.0009L110.55 107.465L112.384 106.973L109.851 97.5089L111.701 97.0128L111.269 95.3985Z" fill="#5865F2"/>
</svg>
