<svg width="172" height="172" viewBox="0 0 172 172" fill="none" xmlns="http://www.w3.org/2000/svg">
  <path d="M42.2462 7.04437H41.602C41.2233 7.04437 40.8771 7.2583 40.7077 7.59699L38.8425 11.3256C38.7109 11.5888 38.7018 11.8966 38.8178 12.1671L40.2782 15.5731C40.3556 15.7536 40.3781 15.9529 40.3429 16.1461L39.2654 22.07C39.237 22.2259 39.172 22.3728 39.0757 22.4986L31.7754 32.0408C31.6529 32.201 31.5816 32.3945 31.571 32.5959L31.0158 43.1403C31.0055 43.336 31.0529 43.5303 31.1521 43.6993L46.746 70.2544C46.8192 70.3791 46.9186 70.4865 47.0374 70.569L59.9577 79.5529C60.2144 79.7314 60.3728 80.0196 60.386 80.3319L62.6966 135.184C62.7079 135.453 62.827 135.705 63.0269 135.885L68.2835 140.614C68.4782 140.789 68.5965 141.034 68.6128 141.295L69.1559 149.981C69.1681 150.176 69.237 150.363 69.3541 150.519L79.4112 163.922C79.6193 164.2 79.9563 164.35 80.3016 164.318L85.2589 163.868C85.7896 163.819 86.1893 163.363 86.1675 162.831L85.0595 135.696C85.0427 135.286 85.2779 134.908 85.6527 134.741L99.8046 128.454C100.371 128.203 100.575 127.501 100.231 126.986L96.6333 121.592C96.1049 120.8 96.8779 119.788 97.7813 120.089L101.281 121.255C101.735 121.406 102.233 121.214 102.468 120.796L112.549 102.883C112.606 102.782 112.645 102.672 112.664 102.557L114.309 92.6927C114.364 92.3624 114.581 92.0815 114.886 91.9446L130.93 84.756C131.241 84.6167 131.459 84.3287 131.51 83.9918L134.915 61.301C134.94 61.137 135.004 60.9818 135.104 60.8492L141.8 51.9254C141.93 51.7523 142 51.5417 142 51.3252V46.3237C142 45.9893 141.833 45.677 141.555 45.4915L129.872 37.7065C129.737 37.6168 129.583 37.5611 129.422 37.5442L119.403 36.4901C118.894 36.4366 118.508 36.0074 118.508 35.4956V34.6797C118.508 34.2937 118.287 33.9428 117.939 33.7761C116.166 32.9275 113.304 31.5333 112.635 31.1126C112.278 30.8882 111.476 31.2806 110.598 31.8796C109.801 32.4237 108.616 31.6723 108.881 30.7445C109.012 30.2839 108.781 29.7972 108.341 29.6085L105.393 28.346C105.153 28.2428 104.874 28.2854 104.675 28.4559C104.068 28.9759 103.212 28.2168 103.655 27.5519L104.157 26.7993C104.316 26.5618 104.338 26.2585 104.216 26.0004L99.3675 15.7703C99.2181 15.4551 98.9153 15.2405 98.5685 15.204L88.3034 14.124C88.086 14.1011 87.882 14.0076 87.7228 13.8578L78.2469 4.94345C78.0771 4.78369 77.8568 4.68829 77.6241 4.67375L68.8952 4.12845C68.6946 4.11592 68.5036 4.04402 68.3446 3.9211C66.5116 2.50406 63.1635 0 62.7143 0H48.5305C48.2159 0 47.9206 0.148122 47.7317 0.399823L43.046 6.64455C42.8572 6.89625 42.5609 7.04437 42.2462 7.04437Z" fill="white"/>
  <path d="M96.9901 170.628L87.9413 165.839C87.5992 165.658 87.1834 165.691 86.8737 165.923L85.4319 167.004C85.18 167.193 85.0317 167.489 85.0317 167.804V168.584C85.0317 168.888 85.1699 169.175 85.4072 169.365L87.7215 171.216C87.8821 171.344 88.0784 171.42 88.2836 171.433L96.6167 171.953C97.0223 171.979 97.3651 171.656 97.3651 171.25C97.3651 170.989 97.2208 170.75 96.9901 170.628Z" fill="white"/>
  <path d="M70.4384 45.0091L71.6215 42.9609C72.8046 40.9127 72.0331 38.9158 69.5648 37.4914L65.3034 35.0322L55.8926 51.3248L60.1073 53.7571C62.5756 55.1815 64.8313 54.9315 66.0143 52.8833L67.5604 50.2067C68.2864 48.9498 68.4293 47.5737 67.1433 46.5212C68.5414 47.1108 69.7662 46.1729 70.4384 45.0091ZM66.6602 38.9185L68.1738 39.792C68.9422 40.2354 69.2027 40.9133 68.7052 41.7745L67.6163 43.6598C67.1188 44.521 66.4013 44.6344 65.6328 44.191L64.1193 43.3175L66.6602 38.9185ZM64.9399 48.5082L63.5283 50.9521C63.0309 51.8133 62.3133 51.9268 61.5449 51.4833L59.9381 50.5561L62.8017 45.5985L64.4085 46.5257C65.1769 46.9692 65.4374 47.647 64.9399 48.5082Z" fill="#5865F2"/>
  <path d="M75.043 62.3762L76.7073 54.1197C78.1074 54.276 79.324 53.6747 80.2248 52.1152L81.9053 49.2058C83.3304 46.7387 82.265 44.8205 79.7967 43.3961L75.582 40.9638L66.1711 57.2564L68.8723 58.8152L72.6232 52.3214L73.9737 53.1008L72.2953 60.7906L75.043 62.3762ZM76.9118 44.8967L78.3323 45.7164C79.2171 46.227 79.6343 46.9022 78.9621 48.066L77.7387 50.184C77.0665 51.3478 76.2729 51.3243 75.388 50.8136L73.9676 49.9939L76.9118 44.8967Z" fill="#5865F2"/>
  <path d="M82.4519 66.6518L85.1997 68.2375L91.5368 50.1711L88.1371 48.2091L75.699 62.7548L78.307 64.2598L80.9865 60.9649L83.9671 62.6849L82.4519 66.6518ZM82.6264 58.932L87.9485 52.3519L84.9084 60.2489L82.6264 58.932Z" fill="#5865F2"/>
  <path d="M94.939 70.8787L89.9792 68.0164L101.821 58.5885L102.896 56.7265L95.538 52.4801L94.2473 54.7145L98.7648 57.3214L86.9232 66.7494L85.8477 68.6114L93.6484 73.1131L94.939 70.8787Z" fill="#5865F2"/>
  <path d="M98.0727 75.6663L107.484 59.3737L104.782 57.8149L95.3716 74.1075L98.0727 75.6663Z" fill="#5865F2"/>
  <path d="M108.753 78.6025L104.585 76.1971L112.598 62.3251L109.897 60.7663L100.486 77.0589L107.355 81.0231L108.753 78.6025Z" fill="#5865F2"/>
</svg>
