<svg width="65" height="65" viewBox="0 0 65 65" fill="none" xmlns="http://www.w3.org/2000/svg">
<path d="M64.5 32.9895C64.5 50.6626 50.1731 64.9895 32.5 64.9895C14.8269 64.9895 0.5 50.6626 0.5 32.9895C0.5 15.3164 14.8269 0.989502 32.5 0.989502C50.1731 0.989502 64.5 15.3164 64.5 32.9895Z" fill="#2CAD6D"/>
<path fill-rule="evenodd" clip-rule="evenodd" d="M32.5 59.6562C47.2276 59.6562 59.1667 47.7171 59.1667 32.9895C59.1667 18.2619 47.2276 6.32284 32.5 6.32284C17.7724 6.32284 5.83333 18.2619 5.83333 32.9895C5.83333 47.7171 17.7724 59.6562 32.5 59.6562ZM32.5 64.9895C50.1731 64.9895 64.5 50.6626 64.5 32.9895C64.5 15.3164 50.1731 0.989502 32.5 0.989502C14.8269 0.989502 0.5 15.3164 0.5 32.9895C0.5 50.6626 14.8269 64.9895 32.5 64.9895Z" fill="white"/>
<path d="M49.0735 25.7706L41.4016 31.4771L33.4304 17.5287C33.2254 17.1695 32.864 16.9895 32.5012 16.9895C32.1391 16.9895 31.7763 17.1695 31.5706 17.5287L23.5994 31.4771L15.9274 25.7706C15.1197 25.17 14.0027 25.9206 14.2498 26.8948L17.178 38.4148L19.1164 39.5811L17.7222 40.5574L18.6064 44.0356C18.7271 44.5098 19.1549 44.8427 19.6449 44.8427H45.3561C45.8461 44.8427 46.2739 44.5098 46.3946 44.0356L47.2788 40.5574L46.4274 39.4861L47.823 38.4148L50.7512 26.8948C50.999 25.9185 49.8799 25.1714 49.0735 25.7706Z" fill="white"/>
<path d="M36.1591 34.7361L33.0163 29.498C32.8123 29.1585 32.4659 28.9895 32.1188 28.9895C31.771 28.9895 31.4225 29.1599 31.2199 29.498L28.077 34.7361C27.878 35.0679 27.878 35.4827 28.077 35.8145L31.2199 41.0526C31.4239 41.3921 31.7717 41.5611 32.1188 41.5611C32.4659 41.5604 32.8137 41.39 33.0163 41.0526L36.1591 35.8145C36.3582 35.4827 36.3582 35.0679 36.1591 34.7361Z" fill="#2CAD6D"/>
</svg>
