<svg width="17" height="17" viewBox="0 0 17 17" fill="none" xmlns="http://www.w3.org/2000/svg">
<path d="M3.96431 1.35753C3.95622 1.36375 3.95 1.37059 3.94254 1.37681C3.98794 1.32893 4.05323 1.27731 4.09614 1.24933C5.34858 0.435306 6.79566 0 8.40132 0C9.90313 0 11.3098 0.414785 12.5106 1.13615C12.5977 1.18776 12.8352 1.35069 12.9577 1.4987V1.49932C11.7992 0.222006 8.39386 2.96257 8.39386 2.96257C7.21605 2.05465 6.13275 1.43589 5.32619 1.21575C4.65209 1.03105 4.18569 1.18528 3.96431 1.35753ZM14.2699 2.5652C14.2344 2.52602 14.1959 2.48933 14.1604 2.44891C13.8675 2.1274 13.5075 2.04967 13.1829 2.07081C12.8875 2.16347 11.5225 2.65537 9.84032 4.24362C9.84032 4.24362 11.7339 6.08496 12.8937 7.96735C14.0522 9.84974 14.745 11.3292 14.319 13.3826C15.6119 11.9616 16.4004 10.0736 16.4004 8.00031C16.4004 5.90213 15.5926 3.99238 14.2699 2.5652ZM11.3794 8.77142C10.8658 8.19495 10.1015 7.36912 9.09222 6.36542C8.87145 6.14591 8.63825 5.91706 8.39324 5.68013C8.39324 5.68013 8.02447 6.04889 7.54439 6.53395V6.53333C6.92999 7.15395 6.13338 7.96362 5.69123 8.43624C4.90395 9.27638 2.64844 11.915 2.52158 13.3944C2.52158 13.3944 2.01973 12.2209 3.12106 9.51455C3.84056 7.74535 6.0146 5.08873 6.92252 4.22309C6.92252 4.22309 6.09296 3.31019 5.05195 2.67962L5.04573 2.67776C5.04573 2.67776 5.03392 2.66843 5.01526 2.65661C4.51466 2.35812 3.96804 2.12803 3.44194 2.09756C2.90465 2.13549 2.56449 2.52851 2.56449 2.52851C1.22188 3.96004 0.400391 5.8841 0.400391 8.00093C0.400391 12.4193 3.98234 16.0019 8.40132 16.0019C10.7464 16.0019 12.8564 14.9907 14.3202 13.3832C14.3196 13.3807 14.1517 12.326 13.0753 10.813C12.8222 10.4585 11.8975 9.35225 11.3794 8.77142Z" fill="white"/>
</svg>
