<svg width="61" height="61" viewBox="0 0 61 61" fill="none" xmlns="http://www.w3.org/2000/svg">
<path d="M54.199 56.9657C50.843 57.7322 47.8599 56.3909 47.3005 56.0077C47.3005 57.089 48.4513 59.1124 50.0972 59.265C51.7431 59.4177 53.5818 57.5382 54.199 56.9657Z" fill="white"/>
<path d="M6.28257 56.9657C9.63859 57.7322 12.6217 56.3909 13.181 56.0077C13.181 57.089 12.0302 59.1124 10.3844 59.265C8.73851 59.4177 6.89977 57.5382 6.28257 56.9657Z" fill="white"/>
<path d="M58.1141 50.2595C57.07 51.6391 54.2611 53.0697 53.0803 53.5168C52.7074 52.4949 52.8564 50.6427 53.453 49.1099C54.0497 47.577 57.7412 45.0222 59.7921 44.3197C59.2328 44.7029 59.4192 48.535 58.1141 50.2595Z" fill="white"/>
<path d="M2.3675 50.2595C3.4116 51.6391 6.22046 53.0697 7.40128 53.5168C7.77417 52.4949 7.62517 50.6427 7.02854 49.1099C6.43192 47.577 2.74039 45.0222 0.689493 44.3197C1.24883 44.7029 1.06238 48.535 2.3675 50.2595Z" fill="white"/>
<path d="M51.8297 50.2595C50.2837 53.3252 48.7921 53.3252 47.487 54.5654C48.6057 54.7704 50.9155 55.3784 51.8297 53.8475C52.744 52.3166 52.2107 50.8176 51.8297 50.2595Z" fill="white"/>
<path d="M8.65184 50.2595C10.1979 53.3252 11.6895 53.3252 12.9946 54.5654C11.8759 54.7704 9.5661 55.3784 8.65184 53.8475C7.73757 52.3166 8.27089 50.8176 8.65184 50.2595Z" fill="white"/>
<path d="M40.1837 58.587C40.8123 58.5569 43.7581 58.307 46.7339 54.8581C46.6568 57.7891 44.683 60.5671 40.1837 58.587Z" fill="white"/>
<path d="M20.2979 58.587C19.6693 58.5569 16.7235 58.307 13.7477 54.8581C13.8247 57.7891 15.7986 60.5671 20.2979 58.587Z" fill="white"/>
<path d="M39.2834 57.5406C41.3343 53.9 44.131 53.1336 46.3683 49.6847C46.8716 52.0772 46.3583 56.8446 39.2834 57.5406Z" fill="white"/>
<path d="M21.1982 57.5406C19.1473 53.9 16.3506 53.1336 14.1133 49.6847C13.61 52.0772 14.1233 56.8446 21.1982 57.5406Z" fill="white"/>
<path fill-rule="evenodd" clip-rule="evenodd" d="M30.334 0.989502L41.1574 16.4739L39.7682 17.6096C39.0673 18.1825 38.1641 18.9266 37.4308 19.7959C36.6667 20.7016 36.3352 21.4563 36.3352 22.0283C36.3352 22.8577 36.5973 23.4016 36.923 23.7343C37.2495 24.068 37.787 24.3395 38.6075 24.3395C38.9469 24.3395 39.4255 24.2459 39.9012 24.0402C40.384 23.8315 40.7141 23.5727 40.8779 23.3635C41 23.2076 40.987 23.1521 40.978 23.1137L40.9764 23.1067C40.95 22.9854 40.7861 22.5377 39.9289 21.8368C39.4457 21.4419 39.1842 20.8268 39.2303 20.1941C39.2765 19.5615 39.6243 18.9933 40.1593 18.6768L60.334 6.74116L45.9017 47.0527L30.334 55.4914L14.7663 47.0527L0.333984 6.74116L20.5086 18.6768C21.0436 18.9933 21.3915 19.5615 21.4377 20.1941C21.4838 20.8268 21.2222 21.4419 20.7391 21.8368C19.8819 22.5377 19.718 22.9854 19.6916 23.1067L19.69 23.1137C19.681 23.1521 19.668 23.2076 19.7901 23.3635C19.9538 23.5727 20.284 23.8315 20.7668 24.0402C21.2425 24.2459 21.7211 24.3395 22.0605 24.3395C22.881 24.3395 23.4184 24.068 23.745 23.7343C24.0706 23.4016 24.3328 22.8577 24.3328 22.0283C24.3328 21.4563 24.0012 20.7016 23.2372 19.7959C22.5038 18.9266 21.6006 18.1825 20.8998 17.6096L19.5106 16.4739L30.334 0.989502ZM24.5886 15.7774C25.0691 16.2164 25.5819 16.7251 26.0547 17.2856C27.0143 18.4231 28.0617 20.0639 28.0617 22.0283C28.0617 23.7351 27.4965 25.3049 26.3742 26.4517C25.253 27.5976 23.722 28.1716 22.0605 28.1716C21.1588 28.1716 20.1896 27.9481 19.3208 27.5725C18.4592 27.2 17.5483 26.6133 16.8847 25.7657C16.1871 24.8746 15.7507 23.6586 16.0524 22.2709C16.1638 21.7589 16.3653 21.2727 16.6423 20.8112L7.38353 15.3336L17.7717 44.3493L30.334 51.1589L42.8962 44.3493L53.2844 15.3336L44.0257 20.8112C44.3026 21.2727 44.5042 21.7589 44.6155 22.2709C44.9173 23.6586 44.4809 24.8746 43.7832 25.7657C43.1197 26.6133 42.2087 27.2 41.3471 27.5725C40.4784 27.9481 39.5091 28.1716 38.6075 28.1716C36.9459 28.1716 35.415 27.5976 34.2937 26.4517C33.1715 25.3049 32.6063 23.7351 32.6063 22.0283C32.6063 20.0639 33.6537 18.4231 34.6133 17.2856C35.0861 16.7251 35.5988 16.2164 36.0793 15.7774L30.334 7.55794L24.5886 15.7774Z" fill="white"/>
<path d="M30.334 60.9895C31.3379 58.8218 34.9808 54.2542 41.5207 53.3252C40.0865 55.88 35.8413 60.9895 30.334 60.9895Z" fill="white"/>
<path d="M30.334 60.9895C29.3301 58.8218 25.6872 54.2542 19.1473 53.3252C20.5815 55.88 24.8267 60.9895 30.334 60.9895Z" fill="white"/>
<path d="M48.792 46.2357C47.1141 48.9182 47.487 50.8343 47.487 51.6007C52.4092 49.9146 52.4587 44.639 51.7751 42.212C50.8428 43.5532 50.7804 43.0568 48.792 46.2357Z" fill="white"/>
<path d="M11.6896 46.2357C13.3675 48.9182 12.9946 50.8343 12.9946 51.6007C8.07241 49.9146 8.02284 44.639 8.70652 42.212C9.63875 43.5532 9.70114 43.0568 11.6896 46.2357Z" fill="white"/>
<path d="M58.8601 41.0624C57.9351 42.4883 54.8206 45.0222 53.0804 45.8525C53.0804 44.8945 52.4604 42.6806 52.894 39.3379C53.2668 36.4638 56.6228 31.2904 59.9788 24.5841C59.7923 34.7393 59.9789 39.3379 58.8601 41.0624Z" fill="white"/>
<path d="M1.62145 41.0624C2.54653 42.4883 5.661 45.0222 7.40116 45.8525C7.40116 44.8945 8.02119 42.6806 7.5876 39.3379C7.2148 36.4638 3.85878 31.2904 0.502768 24.5841C0.689305 34.7393 0.502682 39.3379 1.62145 41.0624Z" fill="white"/>
</svg>
