<svg width="335" height="81" viewBox="0 0 335 81" fill="none" xmlns="http://www.w3.org/2000/svg">
<path d="M22.1854 49V69H96.8907" stroke="#B6B1BF" stroke-width="2"/>
<path d="M113.209 67.3H110.889V69.84C110.889 70.82 110.409 71.12 109.669 71.12C108.929 71.12 108.449 70.82 108.449 69.84V62.16C108.449 61.18 108.929 60.88 109.669 60.88C110.409 60.88 110.889 61.18 110.889 62.16V64.36H113.209V61.8C113.209 59.72 111.809 58.84 109.689 58.84H109.649C107.529 58.84 106.129 59.72 106.129 61.8V70.2C106.129 72.38 107.529 73.16 109.649 73.16H109.689C111.809 73.16 113.209 72.36 113.209 70.2V67.3ZM115.057 59V73H117.377V66.92H120.037V73H122.357V59H120.037V64.84H117.377V59H115.057ZM129.314 73H131.674L129.034 59H126.114L123.514 73H125.754L126.254 69.88H128.814L129.314 73ZM126.554 67.96L127.534 61.74L128.514 67.96H126.554ZM140.49 64.44V73H142.73V59H140.45L137.73 67.14L135.03 59H132.83V73H134.99V64.44L137.09 70.96H138.39L140.49 64.44ZM148.345 59H144.725V73H147.045V67.58H148.345C150.465 67.58 151.865 66.74 151.865 64.62V61.96C151.865 59.84 150.465 59 148.345 59ZM149.545 64.26C149.545 65.26 149.025 65.54 148.265 65.54H147.045V61.04H148.265C149.025 61.04 149.545 61.32 149.545 62.32V64.26ZM155.738 73V59H153.418V73H155.738ZM157.731 61.8V70.2C157.731 72.32 159.131 73.16 161.251 73.16H161.411C163.531 73.16 164.931 72.32 164.931 70.2V61.8C164.931 59.68 163.531 58.84 161.411 58.84H161.251C159.131 58.84 157.731 59.66 157.731 61.8ZM160.051 69.84V62.16C160.051 61.16 160.571 60.88 161.331 60.88C162.091 60.88 162.611 61.16 162.611 62.16V69.84C162.611 70.84 162.091 71.12 161.331 71.12C160.571 71.12 160.051 70.84 160.051 69.84ZM168.974 73V63.9L172.034 73H174.234V59H172.114V67.66L169.174 59H166.854V73H168.974ZM185.332 70.92H181.752V59H179.432V73H185.332V70.92ZM192.78 73V70.96H188.9V66.92H192.1V64.88H188.9V61.04H192.72V59H186.58V73H192.78ZM199.372 73H201.732L199.092 59H196.172L193.572 73H195.812L196.312 69.88H198.872L199.372 73ZM196.612 67.96L197.592 61.74L198.572 67.96H196.612ZM209.892 65.8H206.212V67.76H207.572V69.84C207.572 70.84 207.052 71.12 206.292 71.12C205.532 71.12 205.012 70.84 205.012 69.84V62.16C205.012 61.16 205.532 60.88 206.292 60.88C207.052 60.88 207.572 61.16 207.572 62.16V63.8H209.892V61.8C209.892 59.72 208.492 58.84 206.372 58.84H206.212C204.092 58.84 202.692 59.72 202.692 61.8V70.2C202.692 72.38 204.092 73.16 206.212 73.16H206.372C208.492 73.16 209.892 72.36 209.892 70.2V65.8ZM218.776 59H216.456V69.84C216.456 70.84 216.016 71.12 215.256 71.12C214.496 71.12 214.056 70.84 214.056 69.84V59H211.736V70.2C211.736 72.38 213.096 73.16 215.216 73.16H215.296C217.416 73.16 218.776 72.36 218.776 70.2V59ZM226.94 73V70.96H223.06V66.92H226.26V64.88H223.06V61.04H226.88V59H220.74V73H226.94Z" fill="#B6B1BF"/>
<path d="M310.596 49V69H235.891" stroke="#B6B1BF" stroke-width="2"/>
<path d="M27.0589 37.0081C28.2182 34.9502 29.7991 34.5169 31.0638 32.5673C31.3483 33.9197 31.0582 36.6146 27.0589 37.0081Z" fill="#B6B1BF"/>
<path d="M16.8357 37.0081C15.6764 34.9502 14.0955 34.5169 12.8308 32.5673C12.5463 33.9197 12.8364 36.6146 16.8357 37.0081Z" fill="#B6B1BF"/>
<path fill-rule="evenodd" clip-rule="evenodd" d="M22 5.04102L28.1182 13.794L27.3329 14.436C26.9368 14.7599 26.4262 15.1804 26.0116 15.6719C25.5798 16.1838 25.3923 16.6104 25.3923 16.9338C25.3923 17.4026 25.5405 17.7101 25.7246 17.8982C25.9092 18.0868 26.213 18.2402 26.6768 18.2402C26.8687 18.2402 27.1392 18.1873 27.4081 18.0711C27.6811 17.9531 27.8677 17.8068 27.9602 17.6886C28.0293 17.6004 28.0219 17.5691 28.0168 17.5473L28.0159 17.5434C28.001 17.4748 27.9083 17.2217 27.4238 16.8256C27.1507 16.6023 27.0028 16.2546 27.0289 15.897C27.055 15.5393 27.2516 15.2182 27.5541 15.0392L38.9583 8.2923L30.8001 31.0795L22 35.8498L13.1999 31.0795L5.04166 8.2923L16.4459 15.0392C16.7484 15.2182 16.945 15.5393 16.9711 15.897C16.9972 16.2546 16.8493 16.6023 16.5762 16.8256C16.0916 17.2217 15.999 17.4748 15.9841 17.5434L15.9832 17.5473C15.9781 17.5691 15.9707 17.6004 16.0397 17.6886C16.1323 17.8068 16.3189 17.9531 16.5919 18.0711C16.8608 18.1873 17.1313 18.2402 17.3232 18.2402C17.787 18.2402 18.0908 18.0868 18.2754 17.8982C18.4595 17.7101 18.6076 17.4026 18.6076 16.9338C18.6076 16.6104 18.4202 16.1838 17.9883 15.6719C17.5738 15.1804 17.0632 14.7599 16.667 14.436L15.8817 13.794L22 5.04102ZM18.7523 13.4003C19.0239 13.6484 19.3137 13.936 19.581 14.2528C20.1234 14.8959 20.7155 15.8233 20.7155 16.9338C20.7155 17.8986 20.396 18.786 19.7616 19.4342C19.1278 20.082 18.2624 20.4065 17.3232 20.4065C16.8135 20.4065 16.2656 20.2801 15.7745 20.0678C15.2875 19.8572 14.7725 19.5256 14.3974 19.0465C14.0031 18.5427 13.7564 17.8554 13.927 17.0709C13.9899 16.7815 14.1038 16.5067 14.2604 16.2458L9.02661 13.1494L14.8988 29.5513L22 33.4007L29.1012 29.5513L34.9734 13.1494L29.7396 16.2458C29.8962 16.5067 30.0101 16.7815 30.073 17.0709C30.2436 17.8554 29.9969 18.5427 29.6026 19.0465C29.2275 19.5256 28.7125 19.8572 28.2255 20.0678C27.7344 20.2801 27.1865 20.4065 26.6768 20.4065C25.7376 20.4065 24.8722 20.082 24.2383 19.4342C23.604 18.786 23.2845 17.8986 23.2845 16.9338C23.2845 15.8233 23.8765 14.8959 24.419 14.2528C24.6863 13.936 24.9761 13.6484 25.2477 13.4003L22 8.75401L18.7523 13.4003Z" fill="#B6B1BF"/>
<path d="M22 38.9577C22.5675 37.7323 24.6267 35.1504 28.3236 34.6252C27.5129 36.0694 25.1132 38.9577 22 38.9577Z" fill="#B6B1BF"/>
<path d="M22 38.9577C21.4325 37.7323 19.3733 35.1504 15.6764 34.6252C16.4871 36.0694 18.8868 38.9577 22 38.9577Z" fill="#B6B1BF"/>
<rect x="65" y="20" width="59.5" height="4" rx="2" fill="#292044"/>
<path d="M179.651 32.8923C178.777 34.6252 177.934 34.6252 177.196 35.3263C177.829 35.4422 179.134 35.7858 179.651 34.9205C180.168 34.0551 179.866 33.2078 179.651 32.8923Z" fill="#B6B1BF"/>
<path d="M155.244 32.8923C156.118 34.6252 156.961 34.6252 157.698 35.3263C157.066 35.4422 155.76 35.7858 155.244 34.9205C154.727 34.0551 155.028 33.2078 155.244 32.8923Z" fill="#B6B1BF"/>
<path d="M173.068 37.5996C173.423 37.5826 175.088 37.4413 176.771 35.4917C176.727 37.1486 175.611 38.7189 173.068 37.5996Z" fill="#B6B1BF"/>
<path d="M161.827 37.5996C161.471 37.5826 159.806 37.4413 158.124 35.4917C158.168 37.1486 159.283 38.7189 161.827 37.5996Z" fill="#B6B1BF"/>
<path d="M172.559 37.0081C173.718 34.9502 175.299 34.5169 176.564 32.5673C176.848 33.9197 176.558 36.6146 172.559 37.0081Z" fill="#B6B1BF"/>
<path d="M162.336 37.0081C161.176 34.9502 159.596 34.5169 158.331 32.5673C158.046 33.9197 158.336 36.6146 162.336 37.0081Z" fill="#B6B1BF"/>
<path fill-rule="evenodd" clip-rule="evenodd" d="M167.5 5.04102L173.618 13.794L172.833 14.436C172.437 14.7599 171.926 15.1804 171.512 15.6719C171.08 16.1838 170.892 16.6104 170.892 16.9338C170.892 17.4026 171.041 17.7101 171.225 17.8982C171.409 18.0868 171.713 18.2402 172.177 18.2402C172.369 18.2402 172.639 18.1873 172.908 18.0711C173.181 17.9531 173.368 17.8068 173.46 17.6886C173.529 17.6004 173.522 17.5691 173.517 17.5473L173.516 17.5434C173.501 17.4748 173.408 17.2217 172.924 16.8256C172.651 16.6023 172.503 16.2546 172.529 15.897C172.555 15.5393 172.752 15.2182 173.054 15.0392L184.458 8.2923L176.3 31.0795L167.5 35.8498L158.7 31.0795L150.542 8.2923L161.946 15.0392C162.248 15.2182 162.445 15.5393 162.471 15.897C162.497 16.2546 162.349 16.6023 162.076 16.8256C161.592 17.2217 161.499 17.4748 161.484 17.5434L161.483 17.5473C161.478 17.5691 161.471 17.6004 161.54 17.6886C161.632 17.8068 161.819 17.9531 162.092 18.0711C162.361 18.1873 162.631 18.2402 162.823 18.2402C163.287 18.2402 163.591 18.0868 163.775 17.8982C163.959 17.7101 164.108 17.4026 164.108 16.9338C164.108 16.6104 163.92 16.1838 163.488 15.6719C163.074 15.1804 162.563 14.7599 162.167 14.436L161.382 13.794L167.5 5.04102ZM164.252 13.4003C164.524 13.6484 164.814 13.936 165.081 14.2528C165.623 14.8959 166.216 15.8233 166.216 16.9338C166.216 17.8986 165.896 18.786 165.262 19.4342C164.628 20.082 163.762 20.4065 162.823 20.4065C162.313 20.4065 161.766 20.2801 161.274 20.0678C160.787 19.8572 160.273 19.5256 159.897 19.0465C159.503 18.5427 159.256 17.8554 159.427 17.0709C159.49 16.7815 159.604 16.5067 159.76 16.2458L154.527 13.1494L160.399 29.5513L167.5 33.4007L174.601 29.5513L180.473 13.1494L175.24 16.2458C175.396 16.5067 175.51 16.7815 175.573 17.0709C175.744 17.8554 175.497 18.5427 175.103 19.0465C174.727 19.5256 174.213 19.8572 173.725 20.0678C173.234 20.2801 172.687 20.4065 172.177 20.4065C171.238 20.4065 170.372 20.082 169.738 19.4342C169.104 18.786 168.784 17.8986 168.784 16.9338C168.784 15.8233 169.377 14.8959 169.919 14.2528C170.186 13.936 170.476 13.6484 170.748 13.4003L167.5 8.75401L164.252 13.4003Z" fill="#B6B1BF"/>
<path d="M167.5 38.9577C168.068 37.7323 170.127 35.1504 173.824 34.6252C173.013 36.0694 170.613 38.9577 167.5 38.9577Z" fill="#B6B1BF"/>
<path d="M167.5 38.9577C166.933 37.7323 164.873 35.1504 161.176 34.6252C161.987 36.0694 164.387 38.9577 167.5 38.9577Z" fill="#B6B1BF"/>
<path d="M177.934 30.6177C176.985 32.1341 177.196 33.2172 177.196 33.6504C179.979 32.6973 180.007 29.7151 179.62 28.3432C179.093 29.1014 179.058 28.8207 177.934 30.6177Z" fill="#B6B1BF"/>
<path d="M156.961 30.6177C157.909 32.1341 157.698 33.2172 157.698 33.6504C154.916 32.6973 154.888 29.7151 155.274 28.3432C155.801 29.1014 155.837 28.8207 156.961 30.6177Z" fill="#B6B1BF"/>
<rect x="210.5" y="20" width="59.5" height="4" rx="2" fill="#292044"/>
<path d="M326.49 36.6831C324.593 37.1164 322.907 36.3582 322.591 36.1416C322.591 36.7528 323.241 37.8966 324.172 37.9829C325.102 38.0692 326.141 37.0067 326.49 36.6831Z" fill="#B6B1BF"/>
<path d="M299.404 36.6831C301.301 37.1164 302.988 36.3582 303.304 36.1416C303.304 36.7528 302.653 37.8966 301.723 37.9829C300.793 38.0692 299.753 37.0067 299.404 36.6831Z" fill="#B6B1BF"/>
<path d="M328.703 32.8923C328.113 33.6721 326.526 34.4808 325.858 34.7335C325.647 34.1559 325.731 33.1089 326.069 32.2424C326.406 31.3759 328.493 29.9317 329.652 29.5346C329.336 29.7512 329.441 31.9174 328.703 32.8923Z" fill="#B6B1BF"/>
<path d="M297.191 32.8923C297.781 33.6721 299.369 34.4808 300.037 34.7335C300.247 34.1559 300.163 33.1089 299.826 32.2424C299.489 31.3759 297.402 29.9317 296.243 29.5346C296.559 29.7512 296.453 31.9174 297.191 32.8923Z" fill="#B6B1BF"/>
<path d="M325.151 32.8923C324.277 34.6252 323.434 34.6252 322.696 35.3263C323.329 35.4422 324.634 35.7858 325.151 34.9205C325.668 34.0551 325.366 33.2078 325.151 32.8923Z" fill="#B6B1BF"/>
<path d="M300.744 32.8923C301.618 34.6252 302.461 34.6252 303.198 35.3263C302.566 35.4422 301.26 35.7858 300.744 34.9205C300.227 34.0551 300.528 33.2078 300.744 32.8923Z" fill="#B6B1BF"/>
<path d="M318.568 37.5996C318.923 37.5826 320.588 37.4413 322.271 35.4917C322.227 37.1486 321.111 38.7189 318.568 37.5996Z" fill="#B6B1BF"/>
<path d="M307.327 37.5996C306.972 37.5826 305.306 37.4413 303.624 35.4917C303.668 37.1486 304.783 38.7189 307.327 37.5996Z" fill="#B6B1BF"/>
<path d="M318.059 37.0081C319.218 34.9502 320.799 34.5169 322.064 32.5673C322.348 33.9197 322.058 36.6146 318.059 37.0081Z" fill="#B6B1BF"/>
<path d="M307.836 37.0081C306.676 34.9502 305.096 34.5169 303.831 32.5673C303.546 33.9197 303.836 36.6146 307.836 37.0081Z" fill="#B6B1BF"/>
<path fill-rule="evenodd" clip-rule="evenodd" d="M313 5.04102L319.118 13.794L318.333 14.436C317.937 14.7599 317.426 15.1804 317.012 15.6719C316.58 16.1838 316.392 16.6104 316.392 16.9338C316.392 17.4026 316.541 17.7101 316.725 17.8982C316.909 18.0868 317.213 18.2402 317.677 18.2402C317.869 18.2402 318.139 18.1873 318.408 18.0711C318.681 17.9531 318.868 17.8068 318.96 17.6886C319.029 17.6004 319.022 17.5691 319.017 17.5473L319.016 17.5434C319.001 17.4748 318.908 17.2217 318.424 16.8256C318.151 16.6023 318.003 16.2546 318.029 15.897C318.055 15.5393 318.252 15.2182 318.554 15.0392L329.958 8.2923L321.8 31.0795L313 35.8498L304.2 31.0795L296.042 8.2923L307.446 15.0392C307.748 15.2182 307.945 15.5393 307.971 15.897C307.997 16.2546 307.849 16.6023 307.576 16.8256C307.092 17.2217 306.999 17.4748 306.984 17.5434L306.983 17.5473C306.978 17.5691 306.971 17.6004 307.04 17.6886C307.132 17.8068 307.319 17.9531 307.592 18.0711C307.861 18.1873 308.131 18.2402 308.323 18.2402C308.787 18.2402 309.091 18.0868 309.275 17.8982C309.459 17.7101 309.608 17.4026 309.608 16.9338C309.608 16.6104 309.42 16.1838 308.988 15.6719C308.574 15.1804 308.063 14.7599 307.667 14.436L306.882 13.794L313 5.04102ZM309.752 13.4003C310.024 13.6484 310.314 13.936 310.581 14.2528C311.123 14.8959 311.716 15.8233 311.716 16.9338C311.716 17.8986 311.396 18.786 310.762 19.4342C310.128 20.082 309.262 20.4065 308.323 20.4065C307.814 20.4065 307.266 20.2801 306.775 20.0678C306.287 19.8572 305.773 19.5256 305.397 19.0465C305.003 18.5427 304.756 17.8554 304.927 17.0709C304.99 16.7815 305.104 16.5067 305.26 16.2458L300.027 13.1494L305.899 29.5513L313 33.4007L320.101 29.5513L325.973 13.1494L320.74 16.2458C320.896 16.5067 321.01 16.7815 321.073 17.0709C321.244 17.8554 320.997 18.5427 320.603 19.0465C320.227 19.5256 319.713 19.8572 319.226 20.0678C318.734 20.2801 318.187 20.4065 317.677 20.4065C316.738 20.4065 315.872 20.082 315.238 19.4342C314.604 18.786 314.285 17.8986 314.285 16.9338C314.285 15.8233 314.877 14.8959 315.419 14.2528C315.686 13.936 315.976 13.6484 316.248 13.4003L313 8.75401L309.752 13.4003Z" fill="#B6B1BF"/>
<path d="M313 38.9577C313.568 37.7323 315.627 35.1504 319.324 34.6252C318.513 36.0694 316.113 38.9577 313 38.9577Z" fill="#B6B1BF"/>
<path d="M313 38.9577C312.433 37.7323 310.373 35.1504 306.676 34.6252C307.487 36.0694 309.887 38.9577 313 38.9577Z" fill="#B6B1BF"/>
<path d="M323.434 30.6177C322.485 32.1341 322.696 33.2172 322.696 33.6504C325.479 32.6973 325.507 29.7151 325.12 28.3432C324.593 29.1014 324.558 28.8207 323.434 30.6177Z" fill="#B6B1BF"/>
<path d="M302.461 30.6177C303.409 32.1341 303.198 33.2172 303.198 33.6504C300.416 32.6973 300.388 29.7151 300.774 28.3432C301.301 29.1014 301.337 28.8207 302.461 30.6177Z" fill="#B6B1BF"/>
<path d="M329.125 27.6933C328.602 28.4993 326.842 29.9317 325.858 30.4011C325.858 29.8595 325.508 28.6081 325.753 26.7185C325.963 25.0938 327.861 22.1694 329.758 18.3785C329.652 24.119 329.758 26.7185 329.125 27.6933Z" fill="#B6B1BF"/>
<path d="M296.769 27.6933C297.292 28.4993 299.053 29.9317 300.037 30.4011C300.037 29.8595 300.387 28.6081 300.142 26.7185C299.931 25.0938 298.034 22.1694 296.137 18.3785C296.243 24.119 296.137 26.7185 296.769 27.6933Z" fill="#B6B1BF"/>
</svg>
