<svg width="75" height="61" viewBox="0 0 75 61" fill="none" xmlns="http://www.w3.org/2000/svg">
<path d="M6.83815 37.5324C7.23856 34.4951 2.33397 28.3571 0.332254 26.3797C-0.0845935 28.6735 -0.217629 34.4002 0.58303 36.1087C1.38369 37.8172 4.66986 40.5381 6.08753 42.041C6.08753 41.0918 6.33764 41.3291 6.83815 37.5324Z" fill="white"/>
<path d="M68.1618 37.5324C67.7614 34.4951 72.666 28.3571 74.6677 26.3797C75.0846 28.6735 75.2176 34.4002 74.417 36.1087C73.6163 37.8172 70.3301 40.5381 68.9125 42.041C68.9125 41.0918 68.6624 41.3291 68.1618 37.5324Z" fill="white"/>
<path d="M72.3916 24.7187C72.1915 29.0848 68.222 32.9448 66.3871 34.2103C64.3855 27.5662 69.3905 17.8372 71.3087 14.2778C71.8091 16.6508 72.6745 18.5491 72.3916 24.7187Z" fill="white"/>
<path d="M3.10705 24.7187C3.30721 29.0848 7.27671 32.9448 9.11156 34.2103C11.1132 27.5662 6.42196 17.8372 4.50371 14.2778C4.0033 16.6508 2.82421 18.5491 3.10705 24.7187Z" fill="white"/>
<path d="M63.8851 50.2319C62.7788 50.6816 60.7159 50.6274 59.8818 50.4692C60.6325 48.5709 61.5165 47.8076 62.8843 46.6726C64.886 45.0115 65.8034 43.746 66.8876 42.8759C66.8876 44.0624 66.8876 45.4861 66.6374 46.9099C66.4372 48.0489 65.6366 49.5201 63.8851 50.2319Z" fill="white"/>
<path d="M11.0917 50.2319C12.198 50.6816 14.2609 50.6274 15.095 50.4692C14.3443 48.5709 13.4603 47.8076 12.0925 46.6726C10.0908 45.0115 9.17341 43.746 8.08918 42.8759C8.08918 44.0624 8.08918 45.4861 8.33939 46.9099C8.53955 48.0489 9.34021 49.5201 11.0917 50.2319Z" fill="white"/>
<path d="M61.8835 39.3165C60.6825 41.5945 60.4656 44.2206 60.3822 45.0115C61.5499 44.6951 64.1854 42.781 65.3864 40.503C66.5874 38.225 65.4698 34.8871 64.6357 33.6215C64.3855 34.4125 63.0845 37.0385 61.8835 39.3165Z" fill="white"/>
<path d="M13.0933 39.3165C14.2943 41.5945 14.5111 44.2206 14.5945 45.0115C13.4269 44.6951 10.7914 42.781 9.59042 40.503C8.38943 38.225 9.50702 34.8871 10.341 33.6215C10.5912 34.4125 11.8923 37.0385 13.0933 39.3165Z" fill="white"/>
<path d="M40.4229 60.4872C41.0969 58.8919 43.8844 56.0233 49.642 57.3117C49.3619 59.0883 47.1259 62.2105 40.4229 60.4872Z" fill="white"/>
<path d="M34.5539 60.4872C33.8799 58.8919 31.0924 56.0233 25.3348 57.3117C25.6149 59.0883 27.8509 62.2105 34.5539 60.4872Z" fill="white"/>
<path d="M50.6904 56.2799C50.9178 54.8235 52.5983 51.986 57.5012 52.2878C57.0042 53.782 54.9463 56.6722 50.6904 56.2799Z" fill="white"/>
<path d="M24.2864 56.2799C24.059 54.8235 22.3785 51.986 17.4756 52.2878C17.9725 53.782 20.0305 56.6722 24.2864 56.2799Z" fill="white"/>
<path d="M51.1246 52.3676C51.4704 50.9387 53.656 47.6095 59.6316 45.7234C59.355 47.9381 57.2663 52.3676 51.1246 52.3676Z" fill="white"/>
<path d="M23.8522 52.3676C23.5063 50.9387 21.3208 47.6095 15.3452 45.7234C15.6218 47.9381 17.7105 52.3676 23.8522 52.3676Z" fill="white"/>
<path fill-rule="evenodd" clip-rule="evenodd" d="M49.4204 9.42255L37.6135 0.989502L25.4726 9.66107C24.4618 8.23758 22.7938 5.42576 21.6003 1.46409C21.5469 1.58234 21.4884 1.70661 21.4261 1.83877C20.6674 3.45013 19.356 6.23536 19.9462 13.6083L17.6092 15.2774C15.5593 14.6377 12.3617 13.6388 9.59042 11.6676C9.9558 13.92 10.7214 15.0338 12.0376 16.9489C12.3557 17.4116 12.7059 17.9212 13.0905 18.5049L9.49464 21.0732L19.5925 42.4848L37.572 50.209L54.4709 43.5288L65.7742 21.1031L61.7968 18.2623C62.1188 17.7784 62.4157 17.3464 62.689 16.9489C64.0052 15.0338 64.7708 13.92 65.1362 11.6676C62.5172 13.5305 59.5174 14.525 57.4654 15.1686L54.8065 13.2695C55.3301 6.14949 54.0474 3.4252 53.3005 1.83877C53.2382 1.70661 53.1797 1.58234 53.1263 1.46409C51.9961 5.21535 50.4407 7.93566 49.4204 9.42255ZM15.6911 22.5886L37.6135 6.93068L59.494 22.5587L50.7808 39.846L37.655 45.0346L23.3857 38.9044L15.6911 22.5886Z" fill="white"/>
<path d="M46.8324 36.0592L37.841 39.4244L28.8496 36.0592L22.5557 23.4395L37.841 12.5026L53.1263 23.4395L46.8324 36.0592Z" fill="white"/>
<path d="M37.6135 58.5372C37.3582 54.6174 31.7933 50.613 23.602 49.5201C25.3983 52.5258 30.7155 58.5372 37.6135 58.5372Z" fill="white"/>
<path d="M37.6135 58.5372C37.8688 54.6174 43.4337 50.613 51.625 49.5201C49.8287 52.5258 44.5115 58.5372 37.6135 58.5372Z" fill="white"/>
</svg>
