<svg width="335" height="81" viewBox="0 0 335 81" fill="none" xmlns="http://www.w3.org/2000/svg">
<path d="M22.1854 49V69H92.8907" stroke="#B6B1BF" stroke-width="2"/>
<path d="M109.342 67.3H107.022V69.84C107.022 70.82 106.542 71.12 105.802 71.12C105.062 71.12 104.582 70.82 104.582 69.84V62.16C104.582 61.18 105.062 60.88 105.802 60.88C106.542 60.88 107.022 61.18 107.022 62.16V64.36H109.342V61.8C109.342 59.72 107.942 58.84 105.822 58.84H105.782C103.662 58.84 102.262 59.72 102.262 61.8V70.2C102.262 72.38 103.662 73.16 105.782 73.16H105.822C107.942 73.16 109.342 72.36 109.342 70.2V67.3ZM111.11 61.8V70.2C111.11 72.32 112.51 73.16 114.63 73.16H114.79C116.91 73.16 118.31 72.32 118.31 70.2V61.8C118.31 59.68 116.91 58.84 114.79 58.84H114.63C112.51 58.84 111.11 59.66 111.11 61.8ZM113.43 69.84V62.16C113.43 61.16 113.95 60.88 114.71 60.88C115.47 60.88 115.99 61.16 115.99 62.16V69.84C115.99 70.84 115.47 71.12 114.71 71.12C113.95 71.12 113.43 70.84 113.43 69.84ZM122.353 73V63.9L125.413 73H127.613V59H125.493V67.66L122.553 59H120.233V73H122.353ZM135.808 59H128.808V61.04H131.148V73H133.468V61.04H135.808V59ZM143.21 73V70.96H139.33V66.92H142.53V64.88H139.33V61.04H143.15V59H137.01V73H143.21ZM146.962 73V63.9L150.022 73H152.222V59H150.102V67.66L147.162 59H144.842V73H146.962ZM157.797 59H154.217V73H157.797C159.917 73 161.317 72.16 161.317 70.04V61.96C161.317 59.84 159.917 59 157.797 59ZM158.997 62.32V69.68C158.997 70.68 158.477 70.96 157.717 70.96H156.537V61.04H157.717C158.477 61.04 158.997 61.32 158.997 62.32ZM169.44 73V70.96H165.56V66.92H168.76V64.88H165.56V61.04H169.38V59H163.24V73H169.44ZM178.692 73L176.692 67.06C177.652 66.64 178.212 65.8 178.212 64.46V61.96C178.212 59.84 176.812 59 174.692 59H171.072V73H173.392V67.42H174.552L176.332 73H178.692ZM173.392 61.04H174.612C175.372 61.04 175.892 61.32 175.892 62.32V64.14C175.892 65.14 175.372 65.42 174.612 65.42H173.392V61.04ZM189.199 70.92H185.619V59H183.299V73H189.199V70.92ZM196.647 73V70.96H192.767V66.92H195.967V64.88H192.767V61.04H196.587V59H190.447V73H196.647ZM203.239 73H205.599L202.959 59H200.039L197.439 73H199.679L200.179 69.88H202.739L203.239 73ZM200.479 67.96L201.459 61.74L202.439 67.96H200.479ZM213.759 65.8H210.079V67.76H211.439V69.84C211.439 70.84 210.919 71.12 210.159 71.12C209.399 71.12 208.879 70.84 208.879 69.84V62.16C208.879 61.16 209.399 60.88 210.159 60.88C210.919 60.88 211.439 61.16 211.439 62.16V63.8H213.759V61.8C213.759 59.72 212.359 58.84 210.239 58.84H210.079C207.959 58.84 206.559 59.72 206.559 61.8V70.2C206.559 72.38 207.959 73.16 210.079 73.16H210.239C212.359 73.16 213.759 72.36 213.759 70.2V65.8ZM222.643 59H220.323V69.84C220.323 70.84 219.883 71.12 219.123 71.12C218.363 71.12 217.923 70.84 217.923 69.84V59H215.603V70.2C215.603 72.38 216.963 73.16 219.083 73.16H219.163C221.283 73.16 222.643 72.36 222.643 70.2V59ZM230.808 73V70.96H226.928V66.92H230.128V64.88H226.928V61.04H230.748V59H224.608V73H230.808Z" fill="#B6B1BF"/>
<path d="M310.596 49V69H239.891" stroke="#B6B1BF" stroke-width="2"/>
<path d="M23.5792 36.3503C23.9459 35.8032 25.2908 34.8732 27.7359 35.5297C27.5322 36.1549 26.4156 37.1944 23.5792 36.3503Z" fill="#B6B1BF"/>
<path d="M19.7891 36.3503C19.4224 35.8032 18.0775 34.8732 15.6323 35.5297C15.8361 36.1549 16.9527 37.1944 19.7891 36.3503Z" fill="#B6B1BF"/>
<path d="M28.2902 35.003C28.6976 34.3894 30.0436 33.4306 32.1676 34.5035C31.632 35.0826 30.1065 35.9931 28.2902 35.003Z" fill="#B6B1BF"/>
<path d="M15.0781 35.003C14.6706 34.3894 13.3247 33.4306 11.2007 34.5035C11.7363 35.0826 13.2617 35.9931 15.0781 35.003Z" fill="#B6B1BF"/>
<path d="M28.1027 33.5368C28.3065 32.7552 29.5943 30.9343 33.1153 29.9027C32.9523 31.114 31.7216 33.5368 28.1027 33.5368Z" fill="#B6B1BF"/>
<path d="M15.2656 33.5368C15.0618 32.7552 13.774 30.9343 10.2529 29.9027C10.416 31.114 11.6467 33.5368 15.2656 33.5368Z" fill="#B6B1BF"/>
<path fill-rule="evenodd" clip-rule="evenodd" d="M21.9898 35.7641C21.3876 34.5042 19.2023 31.8494 15.2792 31.3094C16.1395 32.7943 18.6861 35.7641 21.9898 35.7641ZM28.7005 31.3094C27.8401 32.7943 25.2935 35.7641 21.9898 35.7641C22.592 34.5042 24.7773 31.8494 28.7005 31.3094Z" fill="#B6B1BF"/>
<path fill-rule="evenodd" clip-rule="evenodd" d="M21.9898 7.33398L35.75 17.2707L30.2269 28.3496L21.9695 31.6498L13.1841 27.8338L8.25 17.2559L21.9898 7.33398ZM21.9898 10.2691L11.2778 18.0045L15.0376 26.065L22.0101 29.0935L28.4237 26.5301L32.6813 17.9898L21.9898 10.2691Z" fill="#B6B1BF"/>
<path d="M26.4944 24.6594L22.101 26.3219L17.7075 24.6594L14.6321 18.4249L22.101 13.0218L29.5699 18.4249L26.4944 24.6594Z" fill="#B6B1BF"/>
<rect x="65" y="20" width="59.5" height="4" rx="2" fill="#292044"/>
<path d="M179.846 31.4081C179.328 31.6279 178.363 31.6014 177.973 31.5241C178.324 30.596 178.738 30.2229 179.378 29.6679C180.314 28.8559 180.743 28.2371 181.25 27.8118C181.25 28.3918 181.25 29.0879 181.133 29.7839C181.039 30.3408 180.665 31.06 179.846 31.4081Z" fill="#B6B1BF"/>
<path d="M155.154 31.4081C155.672 31.6279 156.637 31.6014 157.027 31.5241C156.676 30.596 156.262 30.2229 155.622 29.6679C154.686 28.8559 154.257 28.2371 153.75 27.8118C153.75 28.3918 153.75 29.0879 153.867 29.7839C153.961 30.3408 154.335 31.06 155.154 31.4081Z" fill="#B6B1BF"/>
<path d="M178.91 26.0716C178.348 27.1853 178.246 28.4692 178.207 28.8559C178.754 28.7012 179.986 27.7654 180.548 26.6517C181.11 25.538 180.587 23.9061 180.197 23.2874C180.08 23.6741 179.471 24.9579 178.91 26.0716Z" fill="#B6B1BF"/>
<path d="M156.09 26.0716C156.652 27.1853 156.754 28.4692 156.793 28.8559C156.246 28.7012 155.014 27.7654 154.452 26.6517C153.89 25.538 154.413 23.9061 154.803 23.2874C154.92 23.6741 155.529 24.9579 156.09 26.0716Z" fill="#B6B1BF"/>
<path d="M168.872 36.4218C169.188 35.6418 170.491 34.2394 173.184 34.8693C173.053 35.7378 172.007 37.2643 168.872 36.4218Z" fill="#B6B1BF"/>
<path d="M166.128 36.4218C165.812 35.6418 164.509 34.2394 161.816 34.8693C161.947 35.7378 162.993 37.2643 166.128 36.4218Z" fill="#B6B1BF"/>
<path d="M173.675 34.3649C173.781 33.6528 174.567 32.2656 176.86 32.4132C176.628 33.1437 175.665 34.5567 173.675 34.3649Z" fill="#B6B1BF"/>
<path d="M161.325 34.3649C161.219 33.6528 160.433 32.2656 158.14 32.4132C158.372 33.1437 159.335 34.5567 161.325 34.3649Z" fill="#B6B1BF"/>
<path d="M173.878 32.4521C174.039 31.7536 175.062 30.126 177.856 29.2039C177.727 30.2866 176.75 32.4521 173.878 32.4521Z" fill="#B6B1BF"/>
<path d="M161.122 32.4521C160.961 31.7536 159.938 30.126 157.144 29.2039C157.273 30.2866 158.25 32.4521 161.122 32.4521Z" fill="#B6B1BF"/>
<path d="M167.559 35.4684C168.135 34.2216 170.227 31.5944 173.982 31.06C173.158 32.5295 170.721 35.4684 167.559 35.4684Z" fill="#B6B1BF"/>
<path d="M167.441 35.4684C166.865 34.2216 164.773 31.5944 161.018 31.06C161.842 32.5295 164.279 35.4684 167.441 35.4684Z" fill="#B6B1BF"/>
<path fill-rule="evenodd" clip-rule="evenodd" d="M167.559 7.33398L180.729 17.1673L175.443 28.131L167.539 31.3968L159.13 27.6206L154.407 17.1527L167.559 7.33398ZM167.559 10.2386L157.305 17.8935L160.904 25.8701L167.578 28.8671L173.717 26.3305L177.792 17.8789L167.559 10.2386Z" fill="#B6B1BF"/>
<path d="M171.87 24.4791L167.665 26.1244L163.46 24.4791L160.516 18.3096L167.665 12.9626L174.814 18.3096L171.87 24.4791Z" fill="#B6B1BF"/>
<rect x="210.5" y="20" width="59.5" height="4" rx="2" fill="#292044"/>
<path d="M298.01 25.1994C298.206 23.7145 295.808 20.7137 294.829 19.747C294.625 20.8684 294.56 23.6681 294.952 24.5034C295.343 25.3386 296.95 26.6689 297.643 27.4036C297.643 26.9396 297.765 27.0556 298.01 25.1994Z" fill="#B6B1BF"/>
<path d="M327.99 25.1994C327.795 23.7145 330.192 20.7137 331.171 19.747C331.375 20.8684 331.44 23.6681 331.048 24.5034C330.657 25.3386 329.05 26.6689 328.357 27.4036C328.357 26.9396 328.235 27.0556 327.99 25.1994Z" fill="#B6B1BF"/>
<path d="M330.058 18.9349C329.96 21.0695 328.02 22.9566 327.123 23.5753C326.144 20.327 328.591 15.5706 329.529 13.8305C329.773 14.9906 330.196 15.9187 330.058 18.9349Z" fill="#B6B1BF"/>
<path d="M296.186 18.9349C296.284 21.0695 298.224 22.9566 299.121 23.5753C300.1 20.327 297.806 15.5706 296.869 13.8305C296.624 14.9906 296.047 15.9187 296.186 18.9349Z" fill="#B6B1BF"/>
<path d="M325.899 31.4081C325.359 31.6279 324.35 31.6014 323.942 31.5241C324.309 30.596 324.741 30.2229 325.41 29.6679C326.389 28.8559 326.837 28.2371 327.367 27.8118C327.367 28.3918 327.367 29.0879 327.245 29.7839C327.147 30.3408 326.756 31.06 325.899 31.4081Z" fill="#B6B1BF"/>
<path d="M300.089 31.4081C300.63 31.6279 301.639 31.6014 302.046 31.5241C301.679 30.596 301.247 30.2229 300.579 29.6679C299.6 28.8559 299.151 28.2371 298.621 27.8118C298.621 28.3918 298.621 29.0879 298.744 29.7839C298.842 30.3408 299.233 31.06 300.089 31.4081Z" fill="#B6B1BF"/>
<path d="M324.921 26.0716C324.334 27.1853 324.228 28.4692 324.187 28.8559C324.758 28.7012 326.046 27.7654 326.633 26.6517C327.221 25.538 326.674 23.9061 326.266 23.2874C326.144 23.6741 325.508 24.9579 324.921 26.0716Z" fill="#B6B1BF"/>
<path d="M301.068 26.0716C301.655 27.1853 301.761 28.4692 301.802 28.8559C301.231 28.7012 299.942 27.7654 299.355 26.6517C298.768 25.538 299.315 23.9061 299.722 23.2874C299.845 23.6741 300.481 24.9579 301.068 26.0716Z" fill="#B6B1BF"/>
<path d="M314.429 36.4218C314.759 35.6418 316.121 34.2394 318.936 34.8693C318.799 35.7378 317.706 37.2643 314.429 36.4218Z" fill="#B6B1BF"/>
<path d="M311.56 36.4218C311.23 35.6418 309.867 34.2394 307.053 34.8693C307.19 35.7378 308.283 37.2643 311.56 36.4218Z" fill="#B6B1BF"/>
<path d="M319.449 34.3649C319.56 33.6528 320.381 32.2656 322.778 32.4132C322.535 33.1437 321.529 34.5567 319.449 34.3649Z" fill="#B6B1BF"/>
<path d="M306.54 34.3649C306.429 33.6528 305.607 32.2656 303.21 32.4132C303.453 33.1437 304.459 34.5567 306.54 34.3649Z" fill="#B6B1BF"/>
<path d="M319.661 32.4521C319.83 31.7536 320.898 30.126 323.82 29.2039C323.685 30.2866 322.664 32.4521 319.661 32.4521Z" fill="#B6B1BF"/>
<path d="M306.328 32.4521C306.159 31.7536 305.09 30.126 302.169 29.2039C302.304 30.2866 303.325 32.4521 306.328 32.4521Z" fill="#B6B1BF"/>
<path fill-rule="evenodd" clip-rule="evenodd" d="M318.828 11.4568L313.056 7.33398L307.12 11.5734C306.626 10.8775 305.81 9.50282 305.227 7.566C305.201 7.62382 305.172 7.68457 305.142 7.74918C304.771 8.53696 304.13 9.89863 304.418 13.5032L303.276 14.3192C302.273 14.0064 300.71 13.5181 299.355 12.5544C299.534 13.6556 299.908 14.2001 300.552 15.1363C300.707 15.3626 300.878 15.6117 301.066 15.8971L299.309 17.1527L304.245 27.6206L313.035 31.3968L321.297 28.131L326.823 17.1673L324.878 15.7785C325.036 15.5419 325.181 15.3307 325.315 15.1363C325.958 14.2001 326.332 13.6556 326.511 12.5544C325.231 13.4651 323.764 13.9513 322.761 14.266L321.461 13.3375C321.717 9.85664 321.09 8.52477 320.725 7.74918C320.694 7.68457 320.666 7.62382 320.64 7.566C320.087 9.39996 319.327 10.7299 318.828 11.4568ZM302.338 17.8935L313.056 10.2386L323.753 17.8789L319.493 26.3305L313.076 28.8671L306.1 25.8701L302.338 17.8935Z" fill="#B6B1BF"/>
<path d="M317.563 24.4791L313.167 26.1244L308.771 24.4791L305.694 18.3096L313.167 12.9626L320.64 18.3096L317.563 24.4791Z" fill="#B6B1BF"/>
<path d="M313.056 35.4684C312.931 33.5521 310.21 31.5944 306.205 31.06C307.084 32.5295 309.683 35.4684 313.056 35.4684Z" fill="#B6B1BF"/>
<path d="M313.056 35.4684C313.18 33.5521 315.901 31.5944 319.906 31.06C319.027 32.5295 316.428 35.4684 313.056 35.4684Z" fill="#B6B1BF"/>
</svg>
