<svg width="153" height="84" viewBox="0 0 153 84" fill="none" xmlns="http://www.w3.org/2000/svg">
<rect x="1" y="1" width="82" height="82" rx="41" fill="#F4D8E9"/>
<path d="M28.048 56.665L28 26.829C28 26.368 28.429 26 28.906 26H29.621C30.097 26 30.431 26.322 30.812 26.691L49.165 42.965V43.681V34.431C49.165 33.97 49.546 33.556 50.07 33.556H55.79C56.267 33.556 56.696 33.97 56.696 34.431V57.171C56.696 57.724 56.267 58 55.79 58H55.314C54.837 58 54.503 57.862 54.122 57.494L35.532 41.602V56.665C35.532 57.125 35.15 57.54 34.626 57.54H28.953C28.477 57.54 28.048 57.125 28.048 56.665Z" fill="url(#paint0_linear_1593_25011)"/>
<rect x="1" y="1" width="82" height="82" rx="41" stroke="#231538" stroke-width="2"/>
<rect x="72" y="2" width="80" height="80" rx="40" fill="#5C6BC0"/>
<path d="M124.476 30.7382C122.181 29.7022 119.72 28.939 117.148 28.5018C117.101 28.4934 117.054 28.5145 117.03 28.5566C116.714 29.1104 116.363 29.8329 116.118 30.4008C113.351 29.9932 110.598 29.9932 107.887 30.4008C107.642 29.8203 107.279 29.1104 106.961 28.5566C106.937 28.5159 106.89 28.4948 106.843 28.5018C104.272 28.9376 101.811 29.7008 99.5154 30.7382C99.4955 30.7466 99.4785 30.7607 99.4672 30.7789C94.8001 37.6397 93.5216 44.3318 94.1488 50.9409C94.1516 50.9733 94.1701 51.0042 94.1956 51.0239C97.2748 53.2489 100.258 54.5997 103.185 55.4951C103.232 55.5091 103.281 55.4923 103.311 55.4543C104.004 54.5238 104.621 53.5427 105.15 52.511C105.181 52.4506 105.152 52.3789 105.088 52.355C104.109 51.9895 103.176 51.5439 102.28 51.0379C102.209 50.9972 102.203 50.8973 102.268 50.8495C102.457 50.7104 102.646 50.5656 102.826 50.4194C102.859 50.3927 102.904 50.3871 102.942 50.404C108.834 53.0508 115.212 53.0508 121.034 50.404C121.073 50.3857 121.118 50.3913 121.152 50.418C121.332 50.5642 121.521 50.7104 121.711 50.8495C121.777 50.8973 121.772 50.9972 121.701 51.0379C120.805 51.5538 119.872 51.9895 118.892 52.3536C118.828 52.3775 118.8 52.4506 118.831 52.511C119.371 53.5413 119.989 54.5224 120.668 55.4529C120.697 55.4923 120.748 55.5091 120.795 55.4951C123.736 54.5997 126.719 53.2489 129.798 51.0239C129.825 51.0042 129.842 50.9747 129.845 50.9423C130.596 43.3014 128.588 36.6642 124.522 30.7803C124.512 30.7607 124.495 30.7466 124.476 30.7382ZM106.03 46.9167C104.256 46.9167 102.795 45.3143 102.795 43.3464C102.795 41.3786 104.228 39.7762 106.03 39.7762C107.846 39.7762 109.294 41.3926 109.265 43.3464C109.265 45.3143 107.832 46.9167 106.03 46.9167ZM117.992 46.9167C116.218 46.9167 114.757 45.3143 114.757 43.3464C114.757 41.3786 116.19 39.7762 117.992 39.7762C119.808 39.7762 121.256 41.3926 121.227 43.3464C121.227 45.3143 119.808 46.9167 117.992 46.9167Z" fill="white"/>
<rect x="72" y="2" width="80" height="80" rx="40" stroke="#231538" stroke-width="2"/>
<defs>
<linearGradient id="paint0_linear_1593_25011" x1="47.363" y1="17.773" x2="27.759" y2="29.757" gradientUnits="userSpaceOnUse">
<stop stop-color="#DD2678"/>
<stop offset="1" stop-color="#99277D"/>
</linearGradient>
</defs>
</svg>
