<svg width="143" height="52" viewBox="0 0 143 52" fill="none" xmlns="http://www.w3.org/2000/svg">
<path d="M1.464 46.376C1.4 46.376 1.32 46.376 1.224 46.376C1.128 46.392 1.04 46.328 0.96 46.184C0.896 46.104 0.856 45.984 0.84 45.824C0.84 45.664 0.88 45.376 0.96 44.96C1.04 44.688 1.104 44.416 1.152 44.144C1.2 43.888 1.224 43.696 1.224 43.568C1.224 43.504 1.24 43.376 1.272 43.184C1.32 43.008 1.344 42.88 1.344 42.8C1.424 42.672 1.488 42.496 1.536 42.272C1.584 42.048 1.608 41.848 1.608 41.672C1.608 41.48 1.704 41.304 1.896 41.144C1.896 41.016 1.92 40.856 1.968 40.664C2.032 40.472 2.064 40.344 2.064 40.28C2.112 40.056 2.216 39.664 2.376 39.104C2.552 38.528 2.76 37.88 3 37.16C3.256 36.44 3.504 35.736 3.744 35.048C3.984 34.36 4.2 33.776 4.392 33.296C4.584 32.848 4.712 32.464 4.776 32.144C4.856 31.808 4.896 31.56 4.896 31.4C4.896 31.336 4.912 31.288 4.944 31.256C4.976 31.208 5.048 31.12 5.16 30.992C5.32 30.832 5.456 30.784 5.568 30.848C5.696 30.912 5.848 31.008 6.024 31.136C6.152 31.344 6.24 31.52 6.288 31.664C6.352 31.808 6.352 32.056 6.288 32.408C6.288 32.648 6.248 32.856 6.168 33.032C6.088 33.208 6.016 33.344 5.952 33.44C5.888 33.52 5.872 33.552 5.904 33.536C6.56 33.232 7.136 33.072 7.632 33.056C8.144 33.024 8.568 33.112 8.904 33.32C9.256 33.512 9.52 33.784 9.696 34.136C9.872 34.488 9.96 34.896 9.96 35.36C9.96 35.552 9.92 35.784 9.84 36.056C9.76 36.312 9.656 36.552 9.528 36.776C9.416 36.984 9.312 37.136 9.216 37.232C9.152 37.232 9.088 37.288 9.024 37.4C8.96 37.496 8.896 37.608 8.832 37.736C8.704 37.896 8.496 38.08 8.208 38.288C7.936 38.48 7.664 38.64 7.392 38.768C7.12 38.88 6.92 38.912 6.792 38.864C6.792 38.864 6.768 38.872 6.72 38.888C6.688 38.888 6.672 38.928 6.672 39.008C6.672 39.04 6.544 39.112 6.288 39.224C6.032 39.32 5.736 39.416 5.4 39.512C5.064 39.592 4.768 39.632 4.512 39.632C4.176 39.632 3.936 39.568 3.792 39.44C3.76 39.472 3.72 39.52 3.672 39.584C3.64 39.648 3.624 39.704 3.624 39.752C3.624 39.848 3.584 40.032 3.504 40.304C3.44 40.56 3.36 40.808 3.264 41.048C3.168 41.288 3.08 41.408 3 41.408C3 41.408 2.984 41.432 2.952 41.48C2.92 41.528 2.936 41.592 3 41.672C3 41.672 2.992 41.76 2.976 41.936C2.976 42.128 2.936 42.288 2.856 42.416C2.856 42.544 2.832 42.736 2.784 42.992C2.736 43.248 2.68 43.44 2.616 43.568C2.616 43.76 2.584 43.944 2.52 44.12C2.472 44.312 2.416 44.408 2.352 44.408C2.288 44.424 2.248 44.52 2.232 44.696C2.216 44.888 2.208 45.024 2.208 45.104C2.192 45.504 2.112 45.816 1.968 46.04C1.824 46.264 1.656 46.376 1.464 46.376ZM4.368 38.36C4.496 38.36 4.76 38.304 5.16 38.192C5.56 38.08 5.968 37.944 6.384 37.784C6.816 37.608 7.136 37.432 7.344 37.256C7.76 36.888 8.08 36.472 8.304 36.008C8.544 35.528 8.528 35.072 8.256 34.64C8.128 34.416 7.896 34.328 7.56 34.376C7.224 34.408 6.856 34.536 6.456 34.76C6.056 34.984 5.68 35.264 5.328 35.6C5.136 35.808 4.96 36.064 4.8 36.368C4.64 36.672 4.504 36.976 4.392 37.28C4.296 37.584 4.24 37.84 4.224 38.048C4.208 38.256 4.256 38.36 4.368 38.36ZM12.9343 40.256C12.8863 40.272 12.8063 40.264 12.6943 40.232C12.5823 40.2 12.4703 40.16 12.3583 40.112C12.2463 40.064 12.1743 40.024 12.1423 39.992C12.0783 39.928 12.0143 39.832 11.9503 39.704C11.9023 39.576 11.9023 39.392 11.9503 39.152C11.9983 38.896 12.1583 38.568 12.4303 38.168C12.5103 38.008 12.6063 37.768 12.7183 37.448C12.8303 37.128 12.9423 36.792 13.0543 36.44C13.1823 36.072 13.2943 35.744 13.3903 35.456C13.5023 35.168 13.5823 34.968 13.6303 34.856C13.6623 34.584 13.6463 34.392 13.5823 34.28C13.5343 34.152 13.3983 34.08 13.1743 34.064C13.0143 34.064 12.8863 34.048 12.7903 34.016C12.7103 33.984 12.6703 33.824 12.6703 33.536C12.7023 33.312 12.7583 33.16 12.8383 33.08C12.9343 32.984 13.0623 32.88 13.2223 32.768C13.3823 32.688 13.5423 32.632 13.7023 32.6C13.8783 32.568 14.0463 32.56 14.2063 32.576C14.3663 32.592 14.4943 32.648 14.5903 32.744C14.7023 32.808 14.7743 32.952 14.8063 33.176C14.8383 33.384 14.8543 33.6 14.8543 33.824C14.8703 34.048 14.8863 34.216 14.9023 34.328C15.0623 34.2 15.2783 34.024 15.5503 33.8C15.8383 33.56 16.0863 33.336 16.2943 33.128C16.5503 32.952 16.8543 32.776 17.2063 32.6C17.5583 32.408 17.8143 32.312 17.9743 32.312C18.1503 32.312 18.3263 32.36 18.5023 32.456C18.6783 32.536 18.7983 32.64 18.8623 32.768C19.0223 33.04 19.0943 33.28 19.0783 33.488C19.0783 33.696 18.9903 33.912 18.8143 34.136C18.6543 34.344 18.4543 34.488 18.2143 34.568C17.9903 34.648 17.8463 34.688 17.7823 34.688C17.6863 34.688 17.5663 34.616 17.4223 34.472C17.2783 34.328 17.1983 34.208 17.1823 34.112C17.1823 34.064 17.0783 34.112 16.8703 34.256C16.6783 34.384 16.4623 34.552 16.2223 34.76C15.9823 34.952 15.7823 35.128 15.6223 35.288C15.3503 35.624 15.0623 36.08 14.7583 36.656C14.4543 37.232 14.0943 37.928 13.6783 38.744C13.4863 39.144 13.3503 39.488 13.2703 39.776C13.1903 40.048 13.0783 40.208 12.9343 40.256ZM24.3428 40.16C24.0068 40.448 23.6148 40.616 23.1668 40.664C22.7348 40.712 22.3108 40.648 21.8948 40.472C21.4788 40.28 21.1348 39.992 20.8628 39.608C20.5908 39.256 20.4148 38.856 20.3348 38.408C20.2548 37.944 20.2468 37.344 20.3108 36.608C20.3588 35.984 20.5588 35.36 20.9108 34.736C21.2628 34.096 21.6868 33.528 22.1828 33.032C22.6948 32.536 23.1988 32.192 23.6948 32C23.9348 31.84 24.1348 31.768 24.2948 31.784C24.4708 31.784 24.7348 31.8 25.0868 31.832C25.4548 31.88 25.7268 31.952 25.9028 32.048C26.0948 32.144 26.2468 32.272 26.3588 32.432C26.5988 32.672 26.7588 32.912 26.8388 33.152C26.9188 33.376 26.9588 33.6 26.9588 33.824C26.8948 34.176 26.6548 34.608 26.2388 35.12C25.8388 35.616 25.3108 36.024 24.6548 36.344C24.3028 36.456 23.9188 36.504 23.5028 36.488C23.0868 36.472 22.7428 36.368 22.4708 36.176C22.1668 36.048 21.9668 36.072 21.8708 36.248C21.7748 36.408 21.6868 36.808 21.6068 37.448C21.5428 38.056 21.5908 38.504 21.7508 38.792C21.9108 39.064 22.1268 39.224 22.3988 39.272C22.7188 39.336 22.9668 39.384 23.1428 39.416C23.3348 39.432 23.5668 39.36 23.8388 39.2C24.0948 39.04 24.2548 38.952 24.3188 38.936C24.3828 38.904 24.4308 38.872 24.4628 38.84C24.5108 38.792 24.6148 38.688 24.7747 38.528C24.8868 38.416 24.9748 38.336 25.0388 38.288C25.1028 38.224 25.1748 38.192 25.2548 38.192C25.3348 38.192 25.4068 38.232 25.4708 38.312C25.5348 38.376 25.5988 38.424 25.6628 38.456C25.8228 38.456 25.8548 38.552 25.7588 38.744C25.6788 38.936 25.5108 39.168 25.2548 39.44C24.9988 39.696 24.6948 39.936 24.3428 40.16ZM24.3188 35.072C24.4948 34.992 24.6788 34.88 24.8708 34.736C25.0628 34.576 25.2228 34.408 25.3508 34.232C25.4948 34.04 25.5668 33.88 25.5668 33.752C25.5668 33.528 25.4628 33.344 25.2548 33.2C25.0468 33.04 24.7348 33.016 24.3188 33.128C24.1428 33.176 23.9427 33.296 23.7188 33.488C23.4948 33.664 23.2788 33.864 23.0708 34.088C22.8788 34.312 22.7188 34.512 22.5908 34.688C22.4788 34.864 22.4388 34.968 22.4708 35C22.5188 35.08 22.6548 35.144 22.8788 35.192C23.1028 35.224 23.3508 35.232 23.6228 35.216C23.9108 35.2 24.1428 35.152 24.3188 35.072ZM30.1314 40.664C29.3314 40.664 28.7474 40.376 28.3794 39.8C28.2674 39.64 28.2114 39.48 28.2114 39.32C28.2274 39.144 28.2754 39.024 28.3554 38.96C28.4514 38.896 28.5634 38.952 28.6914 39.128C28.9154 39.256 29.2354 39.32 29.6514 39.32C29.8594 39.32 30.0754 39.304 30.2994 39.272C30.5234 39.224 30.7474 39.16 30.9714 39.08C31.2114 38.968 31.3714 38.872 31.4514 38.792C31.5314 38.696 31.5154 38.616 31.4034 38.552H31.4274C31.0114 38.44 30.5874 38.264 30.1554 38.024C29.7394 37.768 29.3794 37.496 29.0754 37.208C28.7714 36.904 28.5954 36.632 28.5474 36.392C28.4194 35.896 28.4514 35.392 28.6434 34.88C28.8354 34.352 29.1074 33.888 29.4594 33.488C29.5874 33.408 29.7474 33.312 29.9394 33.2C30.1314 33.072 30.2834 33 30.3954 32.984V33.008C30.6994 32.688 31.0674 32.432 31.4994 32.24C31.9474 32.048 32.4194 31.872 32.9154 31.712L33.2754 31.664C33.4674 31.632 33.6274 31.616 33.7554 31.616C33.7394 31.616 33.7714 31.632 33.8514 31.664C33.9314 31.68 34.0034 31.696 34.0674 31.712C34.1634 31.76 34.2434 31.784 34.3074 31.784C34.5154 31.816 34.7074 31.912 34.8834 32.072C35.0594 32.232 35.1954 32.424 35.2914 32.648C35.4034 32.856 35.4434 33.056 35.4114 33.248C35.3794 33.552 35.2834 33.824 35.1234 34.064C34.9794 34.304 34.8034 34.44 34.5954 34.472C34.6274 34.456 34.6034 34.432 34.5234 34.4C34.4594 34.352 34.3874 34.304 34.3074 34.256L34.2354 34.304C34.2354 34.304 34.2274 34.288 34.2114 34.256C34.2114 34.208 34.1954 34.152 34.1634 34.088C34.1154 33.992 34.0914 33.888 34.0914 33.776C34.0914 33.648 34.0994 33.512 34.1154 33.368C34.1474 33.192 34.1474 33.088 34.1154 33.056C34.0994 33.024 33.9954 33 33.8034 32.984C33.5794 32.936 33.2514 32.976 32.8194 33.104C32.4034 33.232 32.0514 33.408 31.7634 33.632C31.4114 33.856 31.1154 34.072 30.8754 34.28C30.6354 34.472 30.4434 34.664 30.2994 34.856C30.1554 35.032 30.0274 35.24 29.9154 35.48C29.8354 35.592 29.7634 35.704 29.6994 35.816C29.6514 35.912 29.6274 36 29.6274 36.08C29.6274 36.256 29.7554 36.44 30.0114 36.632C30.2834 36.808 30.6834 37.016 31.2114 37.256C31.6274 37.432 31.9794 37.624 32.2674 37.832C32.5554 38.04 32.7554 38.28 32.8674 38.552C32.8994 38.616 32.9074 38.696 32.8914 38.792C32.8914 38.872 32.8754 38.928 32.8434 38.96C32.8754 38.992 32.8914 39.016 32.8914 39.032V39.008C33.0194 39.2 33.0194 39.4 32.8914 39.608C32.7794 39.816 32.5794 40 32.2914 40.16C32.0194 40.304 31.6834 40.416 31.2834 40.496H31.3074C31.0994 40.56 30.8914 40.608 30.6834 40.64C30.4914 40.656 30.3074 40.664 30.1314 40.664ZM37.5671 41.096C37.2631 40.968 36.9751 40.8 36.7031 40.592C36.4311 40.368 36.2551 40.184 36.1751 40.04C36.1751 39.896 36.1991 39.8 36.2471 39.752C36.2951 39.688 36.4311 39.664 36.6551 39.68C36.8951 39.68 37.2791 39.712 37.8071 39.776C37.9991 39.776 38.2391 39.76 38.5271 39.728C38.8151 39.696 39.0791 39.648 39.3191 39.584C39.5751 39.52 39.7191 39.44 39.7511 39.344C39.8311 39.344 39.8471 39.32 39.7991 39.272C39.7511 39.208 39.6951 39.144 39.6311 39.08C39.5671 39.08 39.4951 39.056 39.4151 39.008C39.3351 38.944 39.2631 38.912 39.1991 38.912C39.1991 38.832 39.1191 38.744 38.9591 38.648C38.8151 38.536 38.6631 38.448 38.5031 38.384C38.1511 38.096 37.8471 37.84 37.5911 37.616C37.3351 37.376 37.2391 37.216 37.3031 37.136C37.3031 37.072 37.3031 37.04 37.3031 37.04C37.3031 37.024 37.3031 37.016 37.3031 37.016C37.1911 37.016 37.0631 36.856 36.9191 36.536C36.7911 36.216 36.7271 35.928 36.7271 35.672C36.7271 35.48 36.7831 35.24 36.8951 34.952C37.0071 34.648 37.1591 34.336 37.3511 34.016C37.5431 33.696 37.7431 33.432 37.9511 33.224C38.2391 32.952 38.5991 32.664 39.0311 32.36C39.4631 32.04 39.8871 31.76 40.3031 31.52C40.7351 31.264 41.0951 31.096 41.3831 31.016C41.6711 30.904 41.9351 30.848 42.1751 30.848C42.4311 30.848 42.6551 30.904 42.8471 31.016C43.0071 31.096 43.1511 31.216 43.2791 31.376C43.4231 31.52 43.5431 31.672 43.6391 31.832C43.7511 31.976 43.8231 32.104 43.8551 32.216C43.8551 32.408 43.8391 32.624 43.8071 32.864C43.7751 33.088 43.7271 33.288 43.6631 33.464C43.6151 33.64 43.5351 33.728 43.4231 33.728C43.4231 33.728 43.3991 33.736 43.3511 33.752C43.3191 33.752 43.3031 33.792 43.3031 33.872C43.3031 34.032 43.1831 34.216 42.9431 34.424C42.6391 34.632 42.3751 34.76 42.1511 34.808C41.9271 34.84 41.7911 34.752 41.7431 34.544C41.6951 34.48 41.6631 34.424 41.6471 34.376C41.6311 34.328 41.5911 34.304 41.5271 34.304C41.5271 34.304 41.5031 34.28 41.4551 34.232C41.4071 34.184 41.3831 34.104 41.3831 33.992C41.3831 33.928 41.4071 33.872 41.4551 33.824C41.5031 33.76 41.5271 33.728 41.5271 33.728C41.6071 33.728 41.7111 33.64 41.8391 33.464C41.9671 33.272 42.0791 33.072 42.1751 32.864C42.2871 32.64 42.3431 32.488 42.3431 32.408C42.3431 32.312 42.3271 32.256 42.2951 32.24C42.2791 32.224 42.2071 32.216 42.0791 32.216C41.8551 32.312 41.5831 32.44 41.2631 32.6C40.9431 32.76 40.6391 32.92 40.3511 33.08C40.0791 33.224 39.8791 33.36 39.7511 33.488C39.6871 33.6 39.6471 33.672 39.6311 33.704C39.6151 33.72 39.5751 33.728 39.5111 33.728C39.5111 33.664 39.4551 33.696 39.3431 33.824C39.2471 33.936 39.1191 34.096 38.9591 34.304C38.8151 34.512 38.6711 34.72 38.5271 34.928C38.3991 35.12 38.3031 35.264 38.2391 35.36C38.2071 35.392 38.1671 35.488 38.1191 35.648C38.0871 35.792 38.0711 35.928 38.0711 36.056C38.0071 36.248 38.0151 36.384 38.0951 36.464C38.1751 36.528 38.3511 36.672 38.6231 36.896C39.1831 37.312 39.6231 37.656 39.9431 37.928C40.2631 38.2 40.5031 38.424 40.6631 38.6C40.8231 38.776 40.9191 38.936 40.9511 39.08C41.2391 39.56 41.3271 39.928 41.2151 40.184C41.1031 40.44 40.8311 40.664 40.3991 40.856C40.2391 40.936 39.9751 41 39.6071 41.048C39.2391 41.096 38.8631 41.12 38.4791 41.12C38.0951 41.136 37.7911 41.128 37.5671 41.096ZM57.6553 40.256C57.2553 40.448 56.8953 40.504 56.5753 40.424C56.2553 40.328 55.9993 40.112 55.8073 39.776C55.6313 39.44 55.5433 39.016 55.5433 38.504C55.5433 38.328 55.5673 38.064 55.6153 37.712C55.6793 37.36 55.7513 36.992 55.8313 36.608C55.9113 36.208 55.9993 35.864 56.0953 35.576C56.1433 35.432 56.1753 35.32 56.1913 35.24C56.2233 35.16 56.2073 35.12 56.1433 35.12C56.0793 35.12 55.9993 35.16 55.9033 35.24C55.8233 35.32 55.7593 35.384 55.7113 35.432C55.3593 35.72 54.9913 36.072 54.6073 36.488C54.2393 36.904 53.8953 37.328 53.5753 37.76C53.2553 38.176 52.9913 38.56 52.7833 38.912C52.5913 39.264 52.4953 39.52 52.4953 39.68C52.4953 39.92 52.3753 40.088 52.1353 40.184C51.8953 40.28 51.6873 40.272 51.5113 40.16C51.2073 39.984 51.0153 39.776 50.9353 39.536C50.8713 39.28 50.8633 38.856 50.9113 38.264C50.9593 37.512 51.0233 36.84 51.1033 36.248C51.1833 35.656 51.3113 35.016 51.4873 34.328C51.6793 33.624 51.9273 32.768 52.2313 31.76C52.4393 31.2 52.6313 30.672 52.8073 30.176C52.9833 29.664 53.1353 29.232 53.2633 28.88C53.4073 28.528 53.4953 28.312 53.5273 28.232C53.6073 28.152 53.7113 27.96 53.8393 27.656C53.9673 27.336 54.0793 27.016 54.1753 26.696C54.2873 26.376 54.3433 26.184 54.3433 26.12C54.3433 25.992 54.3673 25.88 54.4153 25.784C54.4633 25.672 54.5193 25.584 54.5833 25.52C54.6473 25.456 54.7033 25.4 54.7513 25.352C54.7993 25.304 54.8233 25.28 54.8233 25.28C54.9033 25.28 54.9993 25.304 55.1113 25.352C55.2393 25.4 55.3593 25.472 55.4713 25.568C55.5833 25.648 55.6553 25.752 55.6873 25.88C55.7993 26.104 55.8553 26.336 55.8553 26.576C55.8553 26.8 55.7833 27.08 55.6393 27.416C55.5113 27.752 55.2873 28.216 54.9673 28.808C54.7113 29.304 54.4793 29.816 54.2713 30.344C54.0633 30.872 53.8633 31.424 53.6713 32C53.5913 32.24 53.4793 32.576 53.3353 33.008C53.2073 33.44 53.0713 33.888 52.9273 34.352C52.7993 34.816 52.6873 35.232 52.5913 35.6C52.5113 35.952 52.4713 36.176 52.4713 36.272C52.4713 36.384 52.5353 36.44 52.6633 36.44C52.7913 36.424 52.9193 36.328 53.0473 36.152C53.1113 36.024 53.2473 35.864 53.4553 35.672C53.6633 35.48 53.8313 35.328 53.9593 35.216C54.0873 35.104 54.2633 34.944 54.4873 34.736C54.7113 34.528 54.9513 34.32 55.2073 34.112C55.4633 33.888 55.7033 33.704 55.9273 33.56C56.1513 33.4 56.3273 33.32 56.4553 33.32C56.6633 33.32 56.8553 33.4 57.0313 33.56C57.2073 33.704 57.3273 33.864 57.3913 34.04C57.4393 34.088 57.4873 34.152 57.5353 34.232C57.5833 34.296 57.6153 34.344 57.6313 34.376C57.7113 34.44 57.7113 34.72 57.6313 35.216C57.5673 35.696 57.4073 36.32 57.1513 37.088C57.0073 37.68 56.8873 38.184 56.7913 38.6C56.7113 39 56.7353 39.2 56.8633 39.2C56.8633 39.2 56.9433 39.152 57.1033 39.056C57.2793 38.96 57.4633 38.856 57.6553 38.744C58.1193 38.44 58.5193 38.264 58.8553 38.216C59.2073 38.152 59.3833 38.208 59.3833 38.384C59.3833 38.448 59.3593 38.512 59.3113 38.576C59.2633 38.624 59.2393 38.68 59.2393 38.744C59.2393 38.744 59.2393 38.752 59.2393 38.768C59.2393 38.768 59.2393 38.8 59.2393 38.864C59.2393 38.896 59.1353 39.024 58.9273 39.248C58.7193 39.456 58.4873 39.672 58.2313 39.896C57.9913 40.104 57.7993 40.224 57.6553 40.256ZM63.2978 41.072C62.5938 41.072 62.0178 40.808 61.5698 40.28C61.1218 39.736 60.9058 39.064 60.9218 38.264C60.9538 37.688 61.0658 37.072 61.2578 36.416C61.4658 35.744 61.7378 35.104 62.0738 34.496C62.4098 33.872 62.7778 33.328 63.1778 32.864C63.5778 32.4 63.9938 32.072 64.4258 31.88C64.5858 31.8 64.7538 31.736 64.9297 31.688C65.1218 31.64 65.3138 31.616 65.5058 31.616C65.6818 31.616 65.8658 31.648 66.0578 31.712C66.2498 31.76 66.4098 31.816 66.5378 31.88C66.8098 31.992 67.0178 32.128 67.1618 32.288C67.3058 32.448 67.4338 32.696 67.5458 33.032C67.5938 33.336 67.6178 33.552 67.6178 33.68C67.6178 33.808 67.5778 34 67.4978 34.256C67.3058 34.832 67.0578 35.328 66.7538 35.744C66.4498 36.16 66.0418 36.512 65.5298 36.8C65.4018 36.88 65.2498 36.944 65.0738 36.992C64.9138 37.024 64.7458 37.04 64.5698 37.04C64.2498 37.04 63.9378 36.984 63.6338 36.872C63.3458 36.744 63.1138 36.56 62.9378 36.32L62.7698 36.128L62.6978 36.32C62.5378 36.752 62.4098 37.152 62.3138 37.52C62.2338 37.888 62.1938 38.224 62.1938 38.528C62.1938 38.72 62.2098 38.904 62.2418 39.08C62.2898 39.256 62.3538 39.408 62.4338 39.536C62.4978 39.632 62.6018 39.704 62.7458 39.752C62.9058 39.784 63.0738 39.8 63.2498 39.8C63.3618 39.8 63.4738 39.8 63.5858 39.8C63.7138 39.784 63.8338 39.752 63.9458 39.704C64.2178 39.608 64.4338 39.504 64.5938 39.392C64.7698 39.28 64.9458 39.16 65.1218 39.032L65.2178 38.984H65.1938C65.3858 38.888 65.5538 38.792 65.6978 38.696C65.8578 38.6 65.9378 38.552 65.9378 38.552C66.0018 38.552 66.0658 38.512 66.1298 38.432C66.2578 38.368 66.4178 38.392 66.6098 38.504C66.8178 38.616 66.9218 38.76 66.9218 38.936C66.9058 39.016 66.8338 39.144 66.7058 39.32C66.5778 39.48 66.4338 39.632 66.2738 39.776C66.1298 39.92 66.0098 40 65.9138 40.016C65.8978 40.032 65.8418 40.064 65.7458 40.112C65.6498 40.144 65.5858 40.176 65.5538 40.208H65.5778C65.4338 40.4 65.2898 40.496 65.1458 40.496H64.9538C64.8898 40.608 64.6818 40.736 64.3298 40.88C63.9778 41.008 63.6338 41.072 63.2978 41.072ZM64.3778 35.792C64.6658 35.792 64.9138 35.712 65.1218 35.552C65.3458 35.376 65.5378 35.184 65.6978 34.976C66.0178 34.544 66.2018 34.128 66.2498 33.728C66.3138 33.312 66.2658 33.024 66.1058 32.864C66.0098 32.816 65.9218 32.792 65.8418 32.792C65.7778 32.776 65.6418 32.8 65.4338 32.864C65.2898 32.896 65.0898 33.016 64.8338 33.224C64.5778 33.432 64.3218 33.664 64.0658 33.92C63.8258 34.176 63.6418 34.392 63.5138 34.568L63.2018 35.072C63.3298 35.024 63.4498 35 63.5618 35C63.6898 34.984 63.7618 34.992 63.7778 35.024C63.7778 35.168 63.8018 35.304 63.8498 35.432C63.9138 35.544 63.9858 35.632 64.0658 35.696C64.1618 35.76 64.2658 35.792 64.3778 35.792ZM69.9984 40.448C69.9184 40.608 69.7984 40.656 69.6384 40.592C69.4944 40.528 69.3744 40.464 69.2784 40.4C69.1664 40.4 69.0704 40.368 68.9904 40.304C68.9104 40.24 68.8544 40.144 68.8224 40.016C68.7904 39.92 68.7824 39.808 68.7984 39.68C68.8144 39.536 68.8464 39.376 68.8944 39.2C68.9584 39.008 69.0224 38.8 69.0864 38.576C69.2144 38.048 69.3024 37.664 69.3504 37.424C69.3984 37.184 69.4464 36.976 69.4944 36.8C69.5424 36.624 69.6064 36.368 69.6864 36.032C69.8144 35.712 69.9184 35.4 69.9984 35.096C70.0784 34.792 70.1984 34.488 70.3584 34.184C70.4704 33.768 70.6064 33.376 70.7664 33.008C70.9424 32.624 71.1104 32.304 71.2704 32.048C71.3024 32 71.3584 31.936 71.4384 31.856C71.5344 31.776 71.6144 31.736 71.6784 31.736C71.8064 31.608 71.9184 31.56 72.0144 31.592C72.1264 31.608 72.2624 31.68 72.4224 31.808C72.6144 32.016 72.6864 32.256 72.6384 32.528C72.6064 32.8 72.4144 33.2 72.0624 33.728C71.8704 34.224 71.6944 34.656 71.5344 35.024C71.3744 35.376 71.2624 35.712 71.1984 36.032C71.3744 35.776 71.5664 35.544 71.7744 35.336C71.9984 35.112 72.1824 34.928 72.3264 34.784C72.6784 34.432 72.9664 34.176 73.1904 34.016C73.4304 33.856 73.7104 33.672 74.0304 33.464C74.2224 33.336 74.4064 33.224 74.5824 33.128C74.7584 33.016 74.9504 32.936 75.1584 32.888C75.3824 32.84 75.6224 32.84 75.8784 32.888C76.0384 32.872 76.1664 32.92 76.2624 33.032C76.3744 33.144 76.4624 33.296 76.5264 33.488C76.5904 33.68 76.6304 33.904 76.6464 34.16C76.2784 34.08 75.9504 34.096 75.6624 34.208C75.3744 34.304 75.1264 34.424 74.9184 34.568C74.7264 34.712 74.5744 34.824 74.4624 34.904C74.2224 35.064 73.9184 35.28 73.5504 35.552C73.1824 35.808 72.8144 36.12 72.4464 36.488C72.1584 36.808 71.9104 37.08 71.7024 37.304C71.5104 37.528 71.3504 37.728 71.2224 37.904C71.1104 38.08 71.0224 38.264 70.9584 38.456C70.7984 38.824 70.6304 39.224 70.4544 39.656C70.2784 40.088 70.1264 40.352 69.9984 40.448ZM79.1269 40.424C78.5029 40.168 78.0949 39.816 77.9029 39.368C77.7269 38.904 77.6949 38.192 77.8069 37.232C77.8389 36.736 77.8549 36.408 77.8549 36.248C77.8549 36.088 77.7669 35.928 77.5909 35.768C77.5429 35.704 77.4549 35.616 77.3269 35.504C77.2149 35.392 77.1669 35.296 77.1829 35.216C77.1669 35.104 77.1749 34.984 77.2069 34.856C77.2389 34.712 77.2869 34.64 77.3509 34.64C77.4149 34.64 77.4789 34.624 77.5429 34.592C77.6229 34.56 77.6949 34.56 77.7589 34.592C77.8229 34.592 77.8949 34.6 77.9749 34.616C78.0549 34.632 78.0949 34.672 78.0949 34.736C78.1589 34.848 78.2629 34.864 78.4069 34.784C78.5509 34.688 78.7029 34.48 78.8629 34.16C79.0229 33.904 79.2309 33.648 79.4869 33.392C79.7589 33.136 80.0229 32.904 80.2789 32.696C80.5509 32.472 80.7749 32.312 80.9509 32.216C81.0309 32.184 81.1509 32.144 81.3109 32.096C81.4709 32.048 81.6389 32.008 81.8149 31.976C82.0069 31.944 82.1669 31.936 82.2949 31.952C82.5829 31.968 82.8229 32.048 83.0149 32.192C83.2229 32.336 83.4149 32.504 83.5909 32.696C83.7989 32.84 83.9269 33.032 83.9749 33.272C84.0389 33.512 84.0549 33.768 84.0229 34.04C83.9909 34.312 83.9189 34.56 83.8069 34.784C83.7589 34.944 83.6229 35.136 83.3989 35.36C83.1749 35.584 82.9189 35.8 82.6309 36.008C82.3429 36.216 82.0789 36.368 81.8389 36.464C81.6309 36.512 81.3589 36.552 81.0229 36.584C80.7029 36.616 80.3989 36.632 80.1109 36.632C79.8389 36.616 79.6549 36.584 79.5589 36.536C79.4469 36.472 79.3589 36.56 79.2949 36.8C79.2309 37.04 79.1829 37.384 79.1509 37.832C79.1189 38.184 79.1189 38.44 79.1509 38.6C79.1829 38.76 79.2149 38.872 79.2469 38.936C79.3589 39.048 79.5109 39.192 79.7029 39.368C79.9109 39.528 80.1989 39.552 80.5669 39.44C80.8709 39.36 81.1669 39.152 81.4549 38.816C81.7589 38.48 82.0389 38.208 82.2949 38C82.3589 37.888 82.4629 37.824 82.6069 37.808C82.7669 37.776 82.9349 37.784 83.1109 37.832C83.2869 37.944 83.3589 38.08 83.3269 38.24C83.3109 38.384 83.2309 38.608 83.0869 38.912C83.0389 39.024 82.9269 39.168 82.7509 39.344C82.5909 39.504 82.4069 39.672 82.1989 39.848C82.0069 40.008 81.8309 40.136 81.6709 40.232C81.1909 40.488 80.7429 40.624 80.3269 40.64C79.9109 40.64 79.5109 40.568 79.1269 40.424ZM80.5429 35.552C80.8949 35.472 81.1749 35.416 81.3829 35.384C81.5909 35.352 81.7909 35.264 81.9829 35.12C82.1749 34.96 82.4149 34.664 82.7029 34.232C82.7669 34.056 82.7829 33.88 82.7509 33.704C82.7349 33.528 82.6949 33.408 82.6309 33.344C82.4869 33.184 82.3109 33.136 82.1029 33.2C81.9109 33.248 81.7269 33.336 81.5509 33.464C81.4389 33.512 81.2709 33.632 81.0469 33.824C80.8389 34 80.6309 34.208 80.4229 34.448C80.2149 34.672 80.0469 34.88 79.9189 35.072C79.7909 35.264 79.7589 35.376 79.8229 35.408C79.7909 35.472 79.8789 35.512 80.0869 35.528C80.3109 35.544 80.4629 35.552 80.5429 35.552Z" fill="#E7A957"/>
<path d="M124.564 13.8136C120.402 21.7126 116.5 31.5 109.381 36.6432C104.232 39.8407 101 40 96.0001 39.9996" stroke="#E7A957" stroke-width="1.5" stroke-linecap="round"/>
<path d="M114.79 15.563C116.236 13.8397 117.682 12.1164 119.128 10.3931C121.156 7.97665 123.074 5.27234 125.468 3.19758C125.943 2.78545 129.262 0.365494 129.845 1.88937C130.517 3.64539 130.425 5.31103 130.368 7.18613C130.175 13.5112 130.435 19.8626 130.09 26.178" stroke="#E7A957" stroke-width="1.5" stroke-linecap="round"/>
</svg>
