<svg width="132" height="77" viewBox="0 0 132 77" fill="none" xmlns="http://www.w3.org/2000/svg">
<path d="M28.848 76.792C28.528 76.664 28.1973 76.5253 27.856 76.376C27.536 76.2267 27.2267 76.0027 26.928 75.704C26.6507 75.4267 26.4053 75.032 26.192 74.52C25.9787 73.9013 25.8293 73.2933 25.744 72.696C25.68 72.0987 25.6587 71.4053 25.68 70.616C25.68 69.5067 25.7547 68.5467 25.904 67.736C26.0747 66.904 26.3307 66.0613 26.672 65.208C26.7147 65.144 26.7893 64.9627 26.896 64.664C27.024 64.344 27.1627 64.0027 27.312 63.64C27.4827 63.2773 27.6107 63 27.696 62.808C27.8667 62.4453 28.1227 61.9653 28.464 61.368C28.8267 60.7493 29.2107 60.152 29.616 59.576C30.2347 58.6587 30.7467 57.9333 31.152 57.4C31.5573 56.8667 31.9413 56.4187 32.304 56.056C32.6667 55.6933 33.072 55.352 33.52 55.032C33.9893 54.6907 34.5867 54.2747 35.312 53.784C35.7813 53.4427 36.2933 53.2613 36.848 53.24C37.424 53.2187 37.9573 53.3467 38.448 53.624C38.9387 53.88 39.3013 54.264 39.536 54.776C39.7707 55.224 39.888 55.768 39.888 56.408C39.888 57.0267 39.792 57.688 39.6 58.392C39.408 59.0747 39.1413 59.7253 38.8 60.344C38.4587 60.9627 38.064 61.4747 37.616 61.88C37.3387 62.136 37.0827 62.232 36.848 62.168C36.6347 62.104 36.3787 61.9333 36.08 61.656C35.888 61.2933 35.7813 61.08 35.76 61.016C35.76 60.952 35.8027 60.9093 35.888 60.888C36.016 60.7387 36.1867 60.4827 36.4 60.12C36.6133 59.7573 36.8267 59.3733 37.04 58.968C37.2533 58.5413 37.4027 58.2 37.488 57.944C37.6587 57.048 37.776 56.4187 37.84 56.056C37.904 55.672 37.84 55.384 37.648 55.192C37.5627 55.1067 37.4347 55.0747 37.264 55.096C37.1147 55.1173 36.8587 55.224 36.496 55.416C36.0053 55.6293 35.3653 56.1093 34.576 56.856C33.7867 57.5813 33.0613 58.392 32.4 59.288C31.5467 60.4187 30.832 61.4213 30.256 62.296C29.68 63.1707 29.2427 64.0667 28.944 64.984C28.9013 65.0693 28.8267 65.2293 28.72 65.464C28.6347 65.6987 28.592 65.816 28.592 65.816C28.6133 65.9013 28.5813 66.1147 28.496 66.456C28.4107 66.776 28.3147 67.0533 28.208 67.288C27.9733 68.2693 27.8347 69.2933 27.792 70.36C27.7493 71.4053 27.8027 72.3333 27.952 73.144C28.1227 73.9547 28.368 74.52 28.688 74.84C28.9653 75.032 29.3387 75.096 29.808 75.032C30.2987 74.968 30.8533 74.8187 31.472 74.584C32.0907 74.3493 32.72 74.0933 33.36 73.816C33.872 73.6027 34.3413 73.368 34.768 73.112C35.1947 72.856 35.5147 72.632 35.728 72.44C35.8987 72.312 36.112 72.184 36.368 72.056C36.6453 71.9067 36.88 71.832 37.072 71.832C37.3707 71.7253 37.5413 71.6827 37.584 71.704C37.6267 71.7253 37.648 71.8213 37.648 71.992C37.648 72.2907 37.4773 72.6213 37.136 72.984C36.816 73.3467 36.4 73.6773 35.888 73.976C35.7173 74.1467 35.4933 74.328 35.216 74.52C34.9387 74.712 34.6507 74.8613 34.352 74.968C33.904 75.3093 33.3493 75.64 32.688 75.96C32.0267 76.28 31.3547 76.5253 30.672 76.696C30.0107 76.8667 29.4027 76.8987 28.848 76.792ZM41.41 75C41.0047 75.1067 40.674 75.0213 40.418 74.744C40.1833 74.4667 40.0447 74.04 40.002 73.464C39.9593 72.888 40.0233 72.2053 40.194 71.416C40.3007 71.16 40.386 70.9147 40.45 70.68C40.514 70.424 40.546 70.2213 40.546 70.072C40.5887 69.8587 40.674 69.5493 40.802 69.144C40.93 68.7173 41.0687 68.28 41.218 67.832C41.3673 67.384 41.506 66.9893 41.634 66.648C41.7833 66.2853 41.8793 66.0613 41.922 65.976C42.0073 65.976 42.082 65.9013 42.146 65.752C42.21 65.6027 42.242 65.4533 42.242 65.304C42.242 65.1333 42.274 64.9413 42.338 64.728C42.4233 64.5147 42.5087 64.3653 42.594 64.28C42.594 64.1733 42.6153 64.056 42.658 63.928C42.722 63.7787 42.754 63.6613 42.754 63.576C42.754 63.4907 42.7753 63.4053 42.818 63.32C42.882 63.2347 42.914 63.1493 42.914 63.064C43.0633 62.7867 43.2553 62.3493 43.49 61.752C43.746 61.1333 44.0127 60.4507 44.29 59.704C44.5887 58.9573 44.866 58.2213 45.122 57.496C45.378 56.7707 45.5807 56.1627 45.73 55.672C45.9007 55.16 45.986 54.8507 45.986 54.744C45.986 54.5733 46.0287 54.4453 46.114 54.36C46.1993 54.2747 46.3273 54.232 46.498 54.232C46.562 54.168 46.6367 54.1253 46.722 54.104C46.8287 54.0827 46.9247 54.072 47.01 54.072C47.01 54.072 47.0527 54.1147 47.138 54.2C47.2233 54.2853 47.3513 54.4133 47.522 54.584C47.6927 54.7333 47.7887 54.904 47.81 55.096C47.8527 55.288 47.874 55.512 47.874 55.768C47.874 56.0453 47.842 56.2907 47.778 56.504C47.714 56.7173 47.586 57.0267 47.394 57.432C47.202 57.8373 46.9033 58.4667 46.498 59.32C46.3273 59.7467 46.146 60.152 45.954 60.536C45.762 60.8987 45.666 61.1227 45.666 61.208C45.666 61.2933 45.6233 61.4213 45.538 61.592C45.474 61.7627 45.3993 61.976 45.314 62.232C45.2287 62.4027 45.1113 62.6587 44.962 63C44.8127 63.32 44.6527 63.672 44.482 64.056C44.3327 64.4187 44.2047 64.7387 44.098 65.016C43.9913 65.272 43.938 65.4213 43.938 65.464C43.938 65.5493 43.9273 65.6347 43.906 65.72C43.906 65.8053 43.8633 65.8907 43.778 65.976C43.6927 65.976 43.6393 66.04 43.618 66.168C43.618 66.2747 43.618 66.328 43.618 66.328C43.618 66.5413 43.4473 67.1067 43.106 68.024C42.7647 69.1973 42.4447 70.2747 42.146 71.256C41.8687 72.2373 41.73 73.0267 41.73 73.624C41.73 74.136 41.7193 74.4773 41.698 74.648C41.6767 74.7973 41.5807 74.9147 41.41 75ZM46.2083 73.976C46.0376 73.8053 45.9096 73.592 45.8243 73.336C45.7603 73.08 45.7389 72.824 45.7603 72.568C45.7816 72.312 45.8349 72.0987 45.9203 71.928C45.9203 71.7573 45.9416 71.6293 45.9843 71.544C46.0483 71.4373 46.0696 71.3413 46.0483 71.256C46.0269 71.1707 46.0483 71.0213 46.1123 70.808C46.1763 70.5947 46.2403 70.392 46.3043 70.2C46.4536 69.8587 46.6136 69.4533 46.7843 68.984C46.9549 68.4933 47.1149 68.0133 47.2643 67.544C47.4136 67.0747 47.5416 66.6693 47.6483 66.328C47.7549 65.9867 47.8189 65.7733 47.8403 65.688C47.8403 65.432 48.0109 65.2933 48.3523 65.272C48.6083 65.1867 48.8003 65.1867 48.9283 65.272C49.0563 65.336 49.2269 65.5387 49.4403 65.88C49.6109 66.0507 49.6749 66.3067 49.6323 66.648C49.5896 66.9893 49.4509 67.416 49.2163 67.928C49.1309 68.0987 49.0243 68.344 48.8963 68.664C48.7896 68.984 48.7149 69.272 48.6723 69.528C48.5869 69.6987 48.4803 69.944 48.3523 70.264C48.2456 70.5627 48.1496 70.8507 48.0643 71.128C48.0216 71.2347 47.9789 71.3947 47.9363 71.608C47.8936 71.8 47.8403 72.0133 47.7763 72.248C47.7123 72.4613 47.6269 72.6533 47.5203 72.824C47.3283 73.6987 47.1469 74.2107 46.9763 74.36C46.8269 74.5093 46.5709 74.3813 46.2083 73.976ZM49.3123 60.984C49.2056 60.8773 49.1096 60.728 49.0243 60.536C48.9389 60.3227 48.8856 60.1307 48.8643 59.96C48.8429 59.768 48.8643 59.672 48.9283 59.672C49.0989 59.6507 49.3016 59.4693 49.5363 59.128C49.7709 58.7867 49.8669 58.488 49.8243 58.232C49.8243 58.1467 49.8563 58.072 49.9203 58.008C49.9843 57.9227 50.0589 57.8693 50.1443 57.848C50.4003 57.6773 50.6456 57.656 50.8802 57.784C51.1363 57.8907 51.3709 58.1147 51.5843 58.456C51.7763 58.8613 51.8296 59.2027 51.7443 59.48C51.6589 59.736 51.4243 60.0987 51.0403 60.568C50.7203 60.9947 50.4216 61.2293 50.1443 61.272C49.8883 61.3147 49.6109 61.2187 49.3123 60.984ZM55.185 74.264C54.7157 74.264 54.3637 74.2427 54.129 74.2C53.8943 74.1573 53.713 74.0933 53.585 74.008C53.457 73.9227 53.3077 73.8053 53.137 73.656C53.0517 73.4853 52.945 73.304 52.817 73.112C52.689 72.92 52.5823 72.7813 52.497 72.696C52.4117 72.376 52.369 71.96 52.369 71.448C52.3903 70.936 52.4543 70.3813 52.561 69.784C52.689 69.1867 52.8597 68.632 53.073 68.12C53.1583 67.9493 53.233 67.7787 53.297 67.608C53.361 67.4373 53.393 67.352 53.393 67.352C53.393 67.2453 53.521 66.9893 53.777 66.584C54.0543 66.1787 54.353 65.752 54.673 65.304C55.0143 64.856 55.2917 64.536 55.505 64.344C55.6543 64.1733 55.8783 63.992 56.177 63.8C56.497 63.608 56.7743 63.4693 57.009 63.384C57.2437 63.2987 57.4783 63.224 57.713 63.16C57.969 63.096 58.257 63.064 58.577 63.064C58.8757 63.064 59.153 63.128 59.409 63.256C59.665 63.384 59.9103 63.608 60.145 63.928C60.529 64.312 60.7423 64.696 60.785 65.08C60.849 65.4427 60.8383 65.816 60.753 66.2C60.6463 66.6267 60.5077 66.9573 60.337 67.192C60.1663 67.4053 59.9743 67.5013 59.761 67.48C59.5477 67.4587 59.3023 67.2987 59.025 67C58.9397 66.8293 58.897 66.6907 58.897 66.584C58.897 66.456 58.9397 66.2747 59.025 66.04C59.1103 65.7413 59.1103 65.432 59.025 65.112C58.9397 64.792 58.801 64.632 58.609 64.632C58.3317 64.632 58.0223 64.76 57.681 65.016C57.361 65.2507 57.0303 65.5493 56.689 65.912C56.5397 66.0827 56.3263 66.3493 56.049 66.712C55.793 67.0533 55.537 67.4373 55.281 67.864C55.025 68.2693 54.8117 68.664 54.641 69.048C54.4063 69.752 54.2143 70.3173 54.065 70.744C53.937 71.1707 53.873 71.384 53.873 71.384C53.873 71.4693 53.8943 71.5547 53.937 71.64C54.001 71.704 54.033 71.7787 54.033 71.864C54.033 72.12 54.1823 72.3227 54.481 72.472C54.7157 72.6213 54.993 72.7067 55.313 72.728C55.633 72.728 56.0277 72.6213 56.497 72.408C56.8383 72.2373 57.1583 72.0133 57.457 71.736C57.777 71.4587 58.1077 71.2133 58.449 71C58.6837 70.8507 58.865 70.7227 58.993 70.616C59.1423 70.5093 59.217 70.4987 59.217 70.584C59.217 70.6693 59.249 70.712 59.313 70.712C59.377 70.712 59.4517 70.6693 59.537 70.584C59.665 70.4133 59.8037 70.3067 59.953 70.264C60.1023 70.2 60.2303 70.1787 60.337 70.2C60.465 70.2 60.529 70.232 60.529 70.296C60.4863 70.488 60.529 70.648 60.657 70.776C60.657 70.8613 60.625 70.9787 60.561 71.128C60.5183 71.256 60.4543 71.3627 60.369 71.448C60.2623 71.5973 60.1023 71.768 59.889 71.96C59.697 72.152 59.5157 72.3227 59.345 72.472C59.1743 72.6 59.089 72.664 59.089 72.664C59.0037 72.6427 58.9183 72.664 58.833 72.728C58.769 72.792 58.6943 72.8667 58.609 72.952C58.4383 73.1013 58.2783 73.2187 58.129 73.304C57.9797 73.368 57.8623 73.4 57.777 73.4C57.6277 73.4853 57.5103 73.5387 57.425 73.56C57.361 73.5813 57.329 73.6347 57.329 73.72C57.1157 73.9333 56.849 74.0827 56.529 74.168C56.2303 74.232 55.7823 74.264 55.185 74.264ZM71.2998 75.064C71.2144 75.1493 70.9798 75.1813 70.5958 75.16C70.2331 75.1387 69.8918 75.0533 69.5718 74.904C69.5291 74.84 69.4544 74.776 69.3478 74.712C69.2411 74.6267 69.1344 74.5307 69.0278 74.424C68.9424 74.3173 68.8678 74.2213 68.8038 74.136C68.7611 74.072 68.6544 73.9547 68.4838 73.784C68.3131 73.592 68.1424 73.4107 67.9718 73.24C67.8011 73.0693 67.6838 72.952 67.6198 72.888C67.5344 72.7173 67.3638 72.504 67.1078 72.248C66.8518 71.9707 66.6064 71.7147 66.3718 71.48C66.2224 71.2667 66.0731 71.0853 65.9238 70.936C65.7744 70.7867 65.6464 70.68 65.5398 70.616C65.4331 70.5307 65.3478 70.488 65.2838 70.488C65.2838 70.488 65.2411 70.6267 65.1558 70.904C65.0918 71.16 64.9958 71.4907 64.8678 71.896C64.7611 72.28 64.6438 72.6747 64.5158 73.08C64.4091 73.464 64.3238 73.7733 64.2598 74.008C64.1104 74.3067 63.9824 74.5093 63.8758 74.616C63.7691 74.7227 63.6304 74.776 63.4598 74.776C63.2251 74.776 63.0118 74.6693 62.8198 74.456C62.6491 74.2427 62.5638 73.9333 62.5638 73.528C62.4784 73.2293 62.5851 72.5787 62.8838 71.576C63.1824 70.5733 63.6411 69.2933 64.2598 67.736C64.3451 67.416 64.4518 67.0853 64.5798 66.744C64.7078 66.3813 64.8144 66.0827 64.8998 65.848C65.1131 65.144 65.3371 64.4933 65.5718 63.896C65.8278 63.2773 66.0944 62.6587 66.3718 62.04C66.6491 61.4 66.9371 60.7173 67.2358 59.992C67.4278 59.608 67.5664 59.3307 67.6518 59.16C67.7371 58.968 67.8331 58.776 67.9398 58.584C68.0464 58.3707 68.2064 58.0613 68.4198 57.656C68.8891 56.7813 69.2624 56.0987 69.5398 55.608C69.8171 55.1173 70.0304 54.7547 70.1798 54.52C70.3291 54.2853 70.4571 54.1147 70.5638 54.008C70.6704 53.9013 70.7984 53.8267 70.9478 53.784C71.0971 53.7413 71.2464 53.7413 71.3958 53.784C71.5451 53.8053 71.6731 53.88 71.7798 54.008C71.9504 54.1787 72.0464 54.36 72.0678 54.552C72.1104 54.7227 72.0678 54.9573 71.9398 55.256C71.8331 55.5547 71.6198 55.9707 71.2998 56.504C71.1291 56.888 70.9904 57.1653 70.8838 57.336C70.7771 57.5067 70.6704 57.6773 70.5638 57.848C70.4571 58.0187 70.2864 58.3173 70.0518 58.744C70.0091 58.872 69.9451 59.0107 69.8598 59.16C69.7744 59.3093 69.6784 59.384 69.5718 59.384C69.5718 59.448 69.5398 59.576 69.4758 59.768C69.4118 59.96 69.3371 60.1413 69.2517 60.312C69.1878 60.5467 69.0811 60.8027 68.9318 61.08C68.8038 61.336 68.7078 61.5493 68.6438 61.72C68.5371 61.976 68.3664 62.328 68.1318 62.776C67.9184 63.224 67.7051 63.6613 67.4918 64.088C67.2998 64.4933 67.1824 64.8133 67.1398 65.048C67.1398 65.1333 67.2038 65.1227 67.3318 65.016C67.4598 64.9093 67.5984 64.8133 67.7478 64.728C68.0678 64.472 68.4304 64.216 68.8358 63.96C69.2624 63.6827 69.6678 63.448 70.0518 63.256C70.4571 63.0427 70.7878 62.9147 71.0438 62.872C71.3638 62.7867 71.6198 62.744 71.8118 62.744C72.0251 62.744 72.2384 62.7867 72.4518 62.872C72.6224 62.9573 72.7611 63.0747 72.8678 63.224C72.9958 63.3733 73.1024 63.544 73.1878 63.736C73.2944 63.928 73.3691 64.1627 73.4118 64.44C73.4118 64.632 73.3371 64.952 73.1878 65.4C73.0384 65.848 72.8571 66.2853 72.6438 66.712C72.4304 67.1173 72.2171 67.4053 72.0038 67.576C71.8544 67.64 71.7371 67.704 71.6518 67.768C71.5664 67.832 71.5238 67.864 71.5238 67.864C71.5238 67.9493 71.4811 68.056 71.3958 68.184C71.3318 68.312 71.2144 68.4187 71.0438 68.504C70.9584 68.5893 70.8624 68.696 70.7558 68.824C70.6491 68.952 70.5958 69.048 70.5958 69.112C70.5958 69.112 70.5958 69.144 70.5958 69.208C70.5958 69.2507 70.5958 69.272 70.5958 69.272C70.5104 69.272 70.3824 69.336 70.2118 69.464C70.0624 69.592 69.8704 69.7413 69.6358 69.912C69.4011 70.1467 69.2304 70.2747 69.1238 70.296C69.0384 70.3173 68.9104 70.36 68.7398 70.424C68.6971 70.4667 68.6438 70.4987 68.5798 70.52C68.5371 70.5413 68.4838 70.5627 68.4198 70.584C68.3771 70.6053 68.3344 70.6267 68.2917 70.648C68.2704 70.6693 68.2598 70.7013 68.2598 70.744C68.2598 70.8293 68.3558 71.0107 68.5478 71.288C68.7611 71.544 69.0064 71.832 69.2838 72.152C69.5824 72.472 69.8598 72.7707 70.1158 73.048C70.3931 73.304 70.5958 73.4747 70.7238 73.56C70.9371 73.6453 71.0864 73.7947 71.1718 74.008C71.2784 74.2 71.3424 74.4027 71.3638 74.616C71.3851 74.808 71.3638 74.9573 71.2998 75.064ZM67.4598 69.4C67.5664 69.3147 67.7904 69.144 68.1318 68.888C68.4731 68.6107 68.8464 68.312 69.2517 67.992C69.6571 67.6507 70.0198 67.3307 70.3398 67.032C70.6811 66.712 70.9158 66.4773 71.0438 66.328C71.1931 66.1787 71.3424 65.9227 71.4918 65.56C71.6411 65.1973 71.6624 64.9093 71.5558 64.696C71.5344 64.6107 71.3424 64.6533 70.9798 64.824C70.6171 64.9947 70.2011 65.1973 69.7318 65.432C69.3691 65.6453 68.9424 65.9227 68.4518 66.264C67.9824 66.6053 67.5344 66.968 67.1078 67.352C66.7024 67.736 66.3931 68.1093 66.1798 68.472C66.1371 68.6213 66.1798 68.792 66.3078 68.984C66.4358 69.176 66.6064 69.3253 66.8198 69.432C67.0331 69.5173 67.2464 69.5067 67.4598 69.4ZM85.0093 74.776C84.7746 74.7333 84.5293 74.616 84.2733 74.424C84.0386 74.2107 83.8253 73.976 83.6333 73.72C83.4626 73.4427 83.3453 73.1973 83.2812 72.984C83.2812 72.9413 83.2493 72.888 83.1853 72.824C83.1426 72.76 83.1213 72.728 83.1213 72.728C83.0359 72.664 82.9826 72.3867 82.9613 71.896C82.9613 71.384 82.9933 70.8187 83.0573 70.2C83.1213 69.5813 83.1959 69.0907 83.2812 68.728C83.3879 68.3867 83.5479 67.928 83.7613 67.352C83.9746 66.7547 84.1559 66.2213 84.3053 65.752L85.1693 63.896L83.8893 63.544C83.7399 63.5013 83.6119 63.416 83.5052 63.288C83.4199 63.16 83.3773 63.0533 83.3773 62.968C83.3773 62.7973 83.4733 62.5947 83.6653 62.36C83.8573 62.104 83.9959 61.976 84.0813 61.976C84.1879 61.9973 84.3799 62.008 84.6573 62.008C84.9559 62.008 85.2439 61.9973 85.5213 61.976C85.7986 61.9547 85.9693 61.9333 86.0333 61.912C86.1186 61.8693 86.2039 61.816 86.2893 61.752C86.3746 61.6667 86.4386 61.5493 86.4813 61.4C86.5879 61.1653 86.6839 60.952 86.7693 60.76C86.8546 60.5467 86.9719 60.312 87.1213 60.056C87.2706 59.7787 87.3879 59.544 87.4733 59.352C87.5799 59.16 87.7399 58.8933 87.9533 58.552C88.0599 58.4027 88.1773 58.2213 88.3053 58.008C88.4333 57.7947 88.5933 57.6133 88.7853 57.464C88.9773 57.2933 89.1693 57.2187 89.3613 57.24C89.5746 57.24 89.8413 57.3787 90.1613 57.656C90.3319 57.8693 90.4279 58.0293 90.4493 58.136C90.4706 58.2427 90.3853 58.4453 90.1933 58.744C90.0226 59.1067 89.8199 59.4693 89.5853 59.832C89.3719 60.1947 89.1693 60.5573 88.9773 60.92C88.6359 61.3893 88.5719 61.656 88.7853 61.72C88.9986 61.784 89.5959 61.7413 90.5773 61.592C91.1959 61.4853 91.6439 61.5173 91.9213 61.688C92.1986 61.8373 92.3586 62.0933 92.4013 62.456C92.4653 62.968 92.4119 63.2773 92.2413 63.384C92.0706 63.4907 91.5799 63.544 90.7693 63.544C90.2573 63.6293 89.8199 63.6827 89.4573 63.704C89.0946 63.704 88.8279 63.704 88.6573 63.704C88.3799 63.7253 88.1986 63.736 88.1133 63.736C88.0279 63.736 87.8999 63.7573 87.7292 63.8C87.5586 63.8427 87.4306 63.9173 87.3453 64.024C87.2813 64.1093 87.2066 64.2373 87.1213 64.408C87.0359 64.4933 86.9079 64.7173 86.7373 65.08C86.5666 65.4427 86.3533 65.8373 86.0973 66.264C85.7986 67.16 85.5426 68.056 85.3293 68.952C85.1159 69.8267 84.9453 70.68 84.8173 71.512C84.7319 72.0453 84.7426 72.4187 84.8493 72.632C84.9559 72.824 85.2333 72.9413 85.6813 72.984C85.9159 73.0053 86.2893 73.0053 86.8013 72.984C87.3346 72.9413 87.7506 72.8773 88.0493 72.792C88.2839 72.6853 88.5293 72.5787 88.7853 72.472C89.0413 72.344 89.2759 72.216 89.4893 72.088C89.6813 71.9813 89.8733 71.8747 90.0653 71.768C90.2573 71.64 90.3533 71.576 90.3533 71.576C90.4599 71.4053 90.5773 71.352 90.7053 71.416C90.8333 71.48 90.9399 71.64 91.0253 71.896C91.0253 72.152 90.9719 72.4187 90.8653 72.696C90.7586 72.9733 90.3639 73.304 89.6813 73.688C88.7213 74.2853 87.8359 74.648 87.0253 74.776C86.2359 74.8827 85.5639 74.8827 85.0093 74.776ZM103.155 74.008C102.622 74.264 102.142 74.3387 101.715 74.232C101.288 74.104 100.947 73.816 100.691 73.368C100.456 72.92 100.339 72.3547 100.339 71.672C100.339 71.4373 100.371 71.0853 100.435 70.616C100.52 70.1467 100.616 69.656 100.723 69.144C100.83 68.6107 100.947 68.152 101.075 67.768C101.139 67.576 101.182 67.4267 101.203 67.32C101.246 67.2133 101.224 67.16 101.139 67.16C101.054 67.16 100.947 67.2133 100.819 67.32C100.712 67.4267 100.627 67.512 100.563 67.576C100.094 67.96 99.603 68.4293 99.091 68.984C98.6003 69.5387 98.1417 70.104 97.715 70.68C97.2883 71.2347 96.9363 71.7467 96.659 72.216C96.403 72.6853 96.275 73.0267 96.275 73.24C96.275 73.56 96.115 73.784 95.795 73.912C95.475 74.04 95.1977 74.0293 94.963 73.88C94.5577 73.6453 94.3017 73.368 94.195 73.048C94.1097 72.7067 94.099 72.1413 94.163 71.352C94.227 70.3493 94.3123 69.4533 94.419 68.664C94.5257 67.8747 94.6963 67.0213 94.931 66.104C95.187 65.1653 95.5177 64.024 95.923 62.68C96.2003 61.9333 96.4563 61.2293 96.691 60.568C96.9257 59.8853 97.1283 59.3093 97.299 58.84C97.491 58.3707 97.6083 58.0827 97.651 57.976C97.7577 57.8693 97.8963 57.6133 98.067 57.208C98.2377 56.7813 98.387 56.3547 98.515 55.928C98.6643 55.5013 98.739 55.2453 98.739 55.16C98.739 54.9893 98.771 54.84 98.835 54.712C98.899 54.5627 98.9737 54.4453 99.059 54.36C99.1443 54.2747 99.219 54.2 99.283 54.136C99.347 54.072 99.379 54.04 99.379 54.04C99.4857 54.04 99.6137 54.072 99.763 54.136C99.9337 54.2 100.094 54.296 100.243 54.424C100.392 54.5307 100.488 54.6693 100.531 54.84C100.68 55.1387 100.755 55.448 100.755 55.768C100.755 56.0667 100.659 56.44 100.467 56.888C100.296 57.336 99.9977 57.9547 99.571 58.744C99.2297 59.4053 98.9203 60.088 98.643 60.792C98.3657 61.496 98.099 62.232 97.843 63C97.7363 63.32 97.587 63.768 97.395 64.344C97.2243 64.92 97.043 65.5173 96.851 66.136C96.6803 66.7547 96.531 67.3093 96.403 67.8C96.2963 68.2693 96.243 68.568 96.243 68.696C96.243 68.8453 96.3283 68.92 96.499 68.92C96.6697 68.8987 96.8403 68.7707 97.011 68.536C97.0963 68.3653 97.2777 68.152 97.555 67.896C97.8323 67.64 98.0563 67.4373 98.227 67.288C98.3977 67.1387 98.6323 66.9253 98.931 66.648C99.2297 66.3707 99.5497 66.0933 99.891 65.816C100.232 65.5173 100.552 65.272 100.851 65.08C101.15 64.8667 101.384 64.76 101.555 64.76C101.832 64.76 102.088 64.8667 102.323 65.08C102.558 65.272 102.718 65.4853 102.803 65.72C102.867 65.784 102.931 65.8693 102.995 65.976C103.059 66.0613 103.102 66.1253 103.123 66.168C103.23 66.2533 103.23 66.6267 103.123 67.288C103.038 67.928 102.824 68.76 102.483 69.784C102.291 70.5733 102.131 71.2453 102.003 71.8C101.896 72.3333 101.928 72.6 102.099 72.6C102.099 72.6 102.206 72.536 102.419 72.408C102.654 72.28 102.899 72.1413 103.155 71.992C103.774 71.5867 104.307 71.352 104.755 71.288C105.224 71.2027 105.459 71.2773 105.459 71.512C105.459 71.5973 105.427 71.6827 105.363 71.768C105.299 71.832 105.267 71.9067 105.267 71.992C105.267 71.992 105.267 72.0027 105.267 72.024C105.267 72.024 105.267 72.0667 105.267 72.152C105.267 72.1947 105.128 72.3653 104.851 72.664C104.574 72.9413 104.264 73.2293 103.923 73.528C103.603 73.8053 103.347 73.9653 103.155 74.008ZM110.326 74.072C110.156 74.1147 109.932 74.136 109.654 74.136C109.377 74.1147 109.132 74.0827 108.918 74.04C108.726 73.976 108.63 73.912 108.63 73.848C108.63 73.7413 108.577 73.688 108.47 73.688C108.47 73.688 108.417 73.6453 108.31 73.56C108.225 73.4747 108.086 73.3893 107.894 73.304C107.702 73.0053 107.606 72.6853 107.606 72.344C107.606 71.9813 107.702 71.416 107.894 70.648C107.958 70.1147 108.161 69.496 108.502 68.792C108.865 68.0667 109.302 67.3307 109.814 66.584C110.326 65.8373 110.86 65.1653 111.414 64.568C111.99 63.9707 112.513 63.5333 112.982 63.256C113.281 62.9573 113.644 62.7973 114.07 62.776C114.497 62.7547 114.902 62.8507 115.286 63.064C115.5 63.1707 115.713 63.3413 115.926 63.576C116.14 63.8107 116.342 64.0667 116.534 64.344C116.726 64.6213 116.886 64.8987 117.014 65.176C117.078 65.4107 117.11 65.624 117.11 65.816C117.132 65.9867 117.132 66.2 117.11 66.456C117.11 66.712 117.078 67.096 117.014 67.608C116.908 67.992 116.812 68.4613 116.726 69.016C116.662 69.5707 116.63 70.0507 116.63 70.456C116.588 70.8613 116.63 71.1493 116.758 71.32C116.908 71.4907 117.121 71.5013 117.398 71.352C117.654 71.224 117.9 71.1707 118.134 71.192C118.369 71.192 118.55 71.256 118.678 71.384C118.828 71.512 118.902 71.704 118.902 71.96C118.902 72.216 118.774 72.4827 118.518 72.76C118.284 73.016 117.985 73.24 117.622 73.432C117.281 73.6027 116.95 73.688 116.63 73.688C116.396 73.688 116.172 73.5493 115.958 73.272C115.745 72.9733 115.553 72.6213 115.382 72.216C115.233 71.7893 115.094 71.384 114.966 71L114.774 70.264L113.398 71.576C113.121 71.8747 112.844 72.152 112.566 72.408C112.31 72.6427 112.15 72.8133 112.086 72.92C111.98 73.112 111.777 73.304 111.478 73.496C111.201 73.688 110.817 73.88 110.326 74.072ZM110.422 72.184C110.785 71.9707 111.201 71.6613 111.67 71.256C112.14 70.8293 112.598 70.3707 113.046 69.88C113.494 69.368 113.868 68.8987 114.166 68.472C114.529 67.9813 114.806 67.5227 114.998 67.096C115.19 66.6693 115.329 66.264 115.414 65.88C115.329 65.6453 115.19 65.4 114.998 65.144C114.806 64.8667 114.636 64.7173 114.486 64.696C114.017 64.696 113.516 64.9947 112.982 65.592C112.47 66.168 111.969 66.7973 111.478 67.48C111.393 67.5867 111.276 67.7573 111.126 67.992C110.977 68.2267 110.828 68.4507 110.678 68.664C110.55 68.856 110.465 68.984 110.422 69.048C110.358 69.1333 110.23 69.3787 110.038 69.784C109.868 70.168 109.697 70.5627 109.526 70.968C109.356 71.352 109.27 71.608 109.27 71.736C109.27 71.864 109.281 72.0027 109.302 72.152C109.345 72.3013 109.452 72.3973 109.622 72.44C109.793 72.4827 110.06 72.3973 110.422 72.184ZM123.33 76.6C122.626 76.4933 122.146 76.2267 121.89 75.8C121.655 75.3947 121.602 74.7653 121.73 73.912C121.858 73.5067 121.933 73.144 121.954 72.824C121.997 72.4827 122.093 72.2693 122.242 72.184C122.242 72.184 122.253 72.152 122.274 72.088C122.317 72.024 122.306 71.96 122.242 71.896C122.242 71.6187 122.338 71.2347 122.53 70.744C122.573 70.616 122.626 70.4667 122.69 70.296C122.775 70.104 122.818 70.008 122.818 70.008C122.711 69.8373 122.711 69.6987 122.818 69.592C122.925 69.4853 123.031 69.3893 123.138 69.304C123.266 69.1973 123.277 69.08 123.17 68.952C123.127 68.8667 123.181 68.6747 123.33 68.376C123.479 68.056 123.65 67.7253 123.842 67.384C124.034 67.0427 124.162 66.776 124.226 66.584C124.226 66.5413 124.279 66.392 124.386 66.136C124.493 65.88 124.621 65.5813 124.77 65.24C124.919 64.8987 125.058 64.5893 125.186 64.312C125.335 64.0347 125.431 63.8533 125.474 63.768C125.687 63.6613 125.602 63.5867 125.218 63.544C124.834 63.5013 124.429 63.4907 124.002 63.512C123.341 63.4907 122.807 63.4587 122.402 63.416C122.018 63.3733 121.698 63.2773 121.442 63.128C121.186 62.8293 121.09 62.616 121.154 62.488C121.239 62.3387 121.495 62.2533 121.922 62.232C122.199 62.2107 122.413 62.2 122.562 62.2C122.733 62.2 122.946 62.1893 123.202 62.168C123.479 62.1253 123.906 62.072 124.482 62.008L126.114 61.88L126.21 61.336C126.381 61.0587 126.519 60.8133 126.626 60.6C126.754 60.3653 126.861 60.1307 126.946 59.896C127.031 59.6613 127.095 59.416 127.138 59.16C127.138 59.16 127.234 58.9893 127.426 58.648C127.618 58.2853 127.735 57.912 127.778 57.528C128.034 57.1013 128.258 56.7173 128.45 56.376C128.642 56.0133 128.759 55.7893 128.802 55.704C129.037 55.512 129.197 55.416 129.282 55.416C129.389 55.416 129.602 55.5227 129.922 55.736C130.114 55.8427 130.285 55.9707 130.434 56.12C130.583 56.2693 130.679 56.4293 130.722 56.6C130.765 56.7493 130.701 56.8987 130.53 57.048C130.487 57.1333 130.423 57.2933 130.338 57.528C130.253 57.7413 130.189 57.9227 130.146 58.072C130.018 58.2213 129.858 58.4667 129.666 58.808C129.495 59.128 129.378 59.4587 129.314 59.8C129.143 60.1627 128.983 60.4933 128.834 60.792C128.685 61.0693 128.567 61.208 128.482 61.208C128.525 61.4213 128.653 61.528 128.866 61.528C129.079 61.5067 129.431 61.4853 129.922 61.464C130.327 61.4213 130.605 61.3787 130.754 61.336C130.925 61.272 131.117 61.2933 131.33 61.4C131.437 61.5493 131.522 61.72 131.586 61.912C131.65 62.104 131.661 62.2853 131.618 62.456C131.597 62.6053 131.511 62.712 131.362 62.776C131.255 62.776 131.031 62.84 130.69 62.968C130.37 63.0747 129.965 63.1387 129.474 63.16L127.778 63.32L127.234 64.408C127.085 64.6853 126.957 64.9413 126.85 65.176C126.743 65.3893 126.669 65.5173 126.626 65.56C126.626 65.688 126.551 65.88 126.402 66.136C126.274 66.392 126.135 66.6693 125.986 66.968C125.858 67.3307 125.709 67.6613 125.538 67.96C125.389 68.2587 125.314 68.408 125.314 68.408C125.229 68.408 125.186 68.472 125.186 68.6C125.293 68.856 125.261 69.048 125.09 69.176C124.983 69.24 124.887 69.336 124.802 69.464C124.738 69.5707 124.706 69.624 124.706 69.624C124.791 69.7093 124.802 69.816 124.738 69.944C124.695 70.072 124.631 70.2107 124.546 70.36C124.546 70.5307 124.493 70.776 124.386 71.096C124.301 71.416 124.205 71.7147 124.098 71.992C124.119 72.376 124.141 72.6213 124.162 72.728C124.183 72.8347 124.237 72.8773 124.322 72.856C124.429 72.8773 124.525 72.8773 124.61 72.856C124.695 72.8347 124.781 72.824 124.866 72.824C125.165 72.696 125.005 73.4427 124.386 75.064C124.045 75.5973 123.81 75.9813 123.682 76.216C123.554 76.472 123.437 76.6 123.33 76.6Z" fill="#E7A957"/>
<path d="M14.6748 10C12.7857 22.5937 7.14401 33.6353 8.11091 46.6884C10 55 12.5 58 17.0879 61.292" stroke="#E7A957" stroke-width="1.5" stroke-linecap="round"/>
<path d="M19.5432 21.2556C19.5432 19.006 19.5432 16.7564 19.5432 14.5068C19.5432 11.3524 19.8117 8.04737 19.312 4.91968C19.2127 4.29838 18.2259 0.311332 16.7996 1.10375C15.1559 2.01689 14.1557 3.35192 12.9941 4.82507C9.0761 9.79429 4.79462 14.4928 0.999729 19.5526" stroke="#E7A957" stroke-width="1.5" stroke-linecap="round"/>
</svg>
