<svg width="40" height="40" viewBox="0 0 40 40" fill="none" xmlns="http://www.w3.org/2000/svg">
<circle cx="20" cy="20" r="19" fill="#231538" stroke="#594FE3" stroke-width="2"/>
<path d="M27.9208 12.8495C26.464 12.1918 24.9018 11.7072 23.2683 11.4296C23.2386 11.4243 23.2089 11.4377 23.1935 11.4644C22.9926 11.8161 22.7701 12.2748 22.6142 12.6353C20.8574 12.3765 19.1096 12.3765 17.3887 12.6353C17.2329 12.2668 17.0022 11.8161 16.8004 11.4644C16.7851 11.4386 16.7554 11.4252 16.7256 11.4296C15.0931 11.7063 13.5309 12.1909 12.0731 12.8495C12.0605 12.8549 12.0497 12.8638 12.0425 12.8754C9.07928 17.2314 8.26753 21.4804 8.66575 25.6767C8.66755 25.6972 8.67926 25.7169 8.69548 25.7293C10.6505 27.1421 12.5443 27.9997 14.403 28.5682C14.4327 28.5771 14.4642 28.5664 14.4832 28.5423C14.9228 27.9515 15.3148 27.3286 15.6508 26.6735C15.6706 26.6352 15.6517 26.5897 15.6112 26.5745C14.9895 26.3424 14.3976 26.0595 13.8282 25.7383C13.7831 25.7124 13.7795 25.649 13.821 25.6187C13.9408 25.5303 14.0606 25.4384 14.1751 25.3456C14.1958 25.3286 14.2246 25.325 14.2489 25.3357C17.9897 27.0162 22.0394 27.0162 25.736 25.3357C25.7603 25.3242 25.7892 25.3277 25.8108 25.3447C25.9252 25.4375 26.0451 25.5303 26.1658 25.6187C26.2072 25.649 26.2045 25.7124 26.1595 25.7383C25.5901 26.0658 24.9981 26.3424 24.3756 26.5736C24.3351 26.5888 24.317 26.6352 24.3369 26.6735C24.6801 27.3277 25.072 27.9506 25.5036 28.5414C25.5216 28.5664 25.554 28.5771 25.5838 28.5682C27.4514 27.9997 29.3452 27.1421 31.3003 25.7293C31.3174 25.7169 31.3282 25.6981 31.33 25.6776C31.8066 20.8262 30.5318 16.6121 27.9505 12.8763C27.9442 12.8638 27.9334 12.8549 27.9208 12.8495ZM16.2094 23.1216C15.0832 23.1216 14.1552 22.1042 14.1552 20.8548C14.1552 19.6053 15.0652 18.588 16.2094 18.588C17.3626 18.588 18.2816 19.6143 18.2636 20.8548C18.2636 22.1042 17.3536 23.1216 16.2094 23.1216ZM23.8044 23.1216C22.6782 23.1216 21.7502 22.1042 21.7502 20.8548C21.7502 19.6053 22.6602 18.588 23.8044 18.588C24.9576 18.588 25.8766 19.6143 25.8586 20.8548C25.8586 22.1042 24.9576 23.1216 23.8044 23.1216Z" fill="#594FE3"/>
</svg>
