<svg width="33" height="32" viewBox="0 0 33 32" fill="none" xmlns="http://www.w3.org/2000/svg">
<rect x="0.888916" width="32" height="32" rx="16" fill="#4FD1E3"/>
<path fill-rule="evenodd" clip-rule="evenodd" d="M14.389 7.6499C14.8584 7.6499 15.239 8.03046 15.239 8.4999V9.31657H17.4988C17.5088 9.31639 17.5188 9.31639 17.5289 9.31657H19.389C19.8584 9.31657 20.239 9.69713 20.239 10.1666C20.239 10.636 19.8584 11.0166 19.389 11.0166H18.2174C17.7462 13.2063 16.823 15.2274 15.5505 16.9778L15.9714 17.6145C16.2136 17.9809 16.1368 18.4714 15.7942 18.7462C15.4517 19.0211 14.9561 18.9897 14.651 18.6738C14.5625 18.5822 14.4751 18.4895 14.389 18.3959C13.0805 19.818 11.5154 21.0001 9.76721 21.8686C9.3468 22.0775 8.83666 21.906 8.62778 21.4856C8.41891 21.0652 8.59039 20.5551 9.0108 20.3462C10.6431 19.5352 12.0963 18.4183 13.2956 17.0708C12.5565 16.0691 11.9363 14.982 11.4495 13.831C11.2784 13.4266 11.4436 12.9583 11.8307 12.7508C12.2178 12.5433 12.6992 12.6648 12.9414 13.0311L14.5409 15.4507C15.4233 14.1136 16.0848 12.6181 16.4735 11.0166H9.38901C8.91956 11.0166 8.53901 10.636 8.53901 10.1666C8.53901 9.69713 8.91956 9.31657 9.38901 9.31657H13.539V8.4999C13.539 8.03046 13.9196 7.6499 14.389 7.6499ZM20.2223 14.3166C20.5443 14.3166 20.8386 14.4985 20.9826 14.7864L23.8916 20.6045C23.8971 20.6149 23.9024 20.6255 23.9075 20.6362L25.1493 23.1198C25.3592 23.5397 25.189 24.0502 24.7691 24.2602C24.3493 24.4701 23.8387 24.2999 23.6287 23.88L22.6137 21.8499H17.831L16.8159 23.88C16.606 24.2999 16.0954 24.4701 15.6755 24.2602C15.2557 24.0502 15.0855 23.5397 15.2954 23.1198L16.5372 20.6362C16.5423 20.6255 16.5475 20.6149 16.5531 20.6045L19.4621 14.7864C19.6061 14.4985 19.9004 14.3166 20.2223 14.3166ZM18.681 20.1499H21.7637L20.2223 17.0672L18.681 20.1499Z" fill="white"/>
</svg>
