<svg width="960" height="77" viewBox="0 0 960 77" fill="none" xmlns="http://www.w3.org/2000/svg">
<path d="M16 44.9895V64.9895H118.5" stroke="#B6B1BF" stroke-width="2"/>
<path d="M127.816 57.7895V66.1895C127.816 68.3095 129.216 69.1495 131.336 69.1495H131.496C133.616 69.1495 135.016 68.3095 135.016 66.1895V57.7895C135.016 55.6695 133.616 54.8295 131.496 54.8295H131.336C129.216 54.8295 127.816 55.6495 127.816 57.7895ZM130.136 65.8295V58.1495C130.136 57.1495 130.656 56.8695 131.416 56.8695C132.176 56.8695 132.696 57.1495 132.696 58.1495V65.8295C132.696 66.8295 132.176 67.1095 131.416 67.1095C130.656 67.1095 130.136 66.8295 130.136 65.8295ZM140.559 54.9895H136.939V68.9895H139.259V63.5695H140.559C142.679 63.5695 144.079 62.7295 144.079 60.6095V57.9495C144.079 55.8295 142.679 54.9895 140.559 54.9895ZM141.759 60.2495C141.759 61.2495 141.239 61.5295 140.479 61.5295H139.259V57.0295H140.479C141.239 57.0295 141.759 57.3095 141.759 58.3095V60.2495ZM151.753 68.9895V66.9495H147.873V62.9095H151.073V60.8695H147.873V57.0295H151.693V54.9895H145.553V68.9895H151.753ZM155.505 68.9895V59.8895L158.565 68.9895H160.765V54.9895H158.645V63.6495L155.705 54.9895H153.385V68.9895H155.505ZM171.863 66.9095H168.283V54.9895H165.963V68.9895H171.863V66.9095ZM179.311 68.9895V66.9495H175.431V62.9095H178.631V60.8695H175.431V57.0295H179.251V54.9895H173.111V68.9895H179.311ZM185.903 68.9895H188.263L185.623 54.9895H182.703L180.103 68.9895H182.343L182.843 65.8695H185.403L185.903 68.9895ZM183.143 63.9495L184.123 57.7295L185.103 63.9495H183.143ZM196.423 61.7895H192.743V63.7495H194.103V65.8295C194.103 66.8295 193.583 67.1095 192.823 67.1095C192.063 67.1095 191.543 66.8295 191.543 65.8295V58.1495C191.543 57.1495 192.063 56.8695 192.823 56.8695C193.583 56.8695 194.103 57.1495 194.103 58.1495V59.7895H196.423V57.7895C196.423 55.7095 195.023 54.8295 192.903 54.8295H192.743C190.623 54.8295 189.223 55.7095 189.223 57.7895V66.1895C189.223 68.3695 190.623 69.1495 192.743 69.1495H192.903C195.023 69.1495 196.423 68.3495 196.423 66.1895V61.7895ZM205.307 54.9895H202.987V65.8295C202.987 66.8295 202.547 67.1095 201.787 67.1095C201.027 67.1095 200.587 66.8295 200.587 65.8295V54.9895H198.267V66.1895C198.267 68.3695 199.627 69.1495 201.747 69.1495H201.827C203.947 69.1495 205.307 68.3495 205.307 66.1895V54.9895ZM213.471 68.9895V66.9495H209.591V62.9095H212.791V60.8695H209.591V57.0295H213.411V54.9895H207.271V68.9895H213.471Z" fill="#B6B1BF"/>
<path d="M325 44.9895V64.9895H222.5" stroke="#B6B1BF" stroke-width="2"/>
<path d="M428 44.9895V64.9895H458" stroke="#B6B1BF" stroke-width="2"/>
<path d="M474.451 63.2895H472.131V65.8295C472.131 66.8095 471.651 67.1095 470.911 67.1095C470.171 67.1095 469.691 66.8095 469.691 65.8295V58.1495C469.691 57.1695 470.171 56.8695 470.911 56.8695C471.651 56.8695 472.131 57.1695 472.131 58.1495V60.3495H474.451V57.7895C474.451 55.7095 473.051 54.8295 470.931 54.8295H470.891C468.771 54.8295 467.371 55.7095 467.371 57.7895V66.1895C467.371 68.3695 468.771 69.1495 470.891 69.1495H470.931C473.051 69.1495 474.451 68.3495 474.451 66.1895V63.2895ZM476.219 57.7895V66.1895C476.219 68.3095 477.619 69.1495 479.739 69.1495H479.899C482.019 69.1495 483.419 68.3095 483.419 66.1895V57.7895C483.419 55.6695 482.019 54.8295 479.899 54.8295H479.739C477.619 54.8295 476.219 55.6495 476.219 57.7895ZM478.539 65.8295V58.1495C478.539 57.1495 479.059 56.8695 479.819 56.8695C480.579 56.8695 481.099 57.1495 481.099 58.1495V65.8295C481.099 66.8295 480.579 67.1095 479.819 67.1095C479.059 67.1095 478.539 66.8295 478.539 65.8295ZM487.462 68.9895V59.8895L490.522 68.9895H492.722V54.9895H490.602V63.6495L487.662 54.9895H485.342V68.9895H487.462ZM500.917 54.9895H493.917V57.0295H496.257V68.9895H498.577V57.0295H500.917V54.9895ZM508.319 68.9895V66.9495H504.439V62.9095H507.639V60.8695H504.439V57.0295H508.259V54.9895H502.119V68.9895H508.319ZM512.071 68.9895V59.8895L515.131 68.9895H517.331V54.9895H515.211V63.6495L512.271 54.9895H509.951V68.9895H512.071ZM522.906 54.9895H519.326V68.9895H522.906C525.026 68.9895 526.426 68.1495 526.426 66.0295V57.9495C526.426 55.8295 525.026 54.9895 522.906 54.9895ZM524.106 58.3095V65.6695C524.106 66.6695 523.586 66.9495 522.826 66.9495H521.646V57.0295H522.826C523.586 57.0295 524.106 57.3095 524.106 58.3095ZM534.55 68.9895V66.9495H530.67V62.9095H533.87V60.8695H530.67V57.0295H534.49V54.9895H528.35V68.9895H534.55ZM543.802 68.9895L541.802 63.0495C542.762 62.6295 543.322 61.7895 543.322 60.4495V57.9495C543.322 55.8295 541.922 54.9895 539.802 54.9895H536.182V68.9895H538.502V63.4095H539.662L541.442 68.9895H543.802ZM538.502 57.0295H539.722C540.482 57.0295 541.002 57.3095 541.002 58.3095V60.1295C541.002 61.1295 540.482 61.4095 539.722 61.4095H538.502V57.0295ZM554.308 66.9095H550.728V54.9895H548.408V68.9895H554.308V66.9095ZM561.757 68.9895V66.9495H557.877V62.9095H561.077V60.8695H557.877V57.0295H561.697V54.9895H555.557V68.9895H561.757ZM568.349 68.9895H570.709L568.069 54.9895H565.149L562.549 68.9895H564.789L565.289 65.8695H567.849L568.349 68.9895ZM565.589 63.9495L566.569 57.7295L567.549 63.9495H565.589ZM578.868 61.7895H575.188V63.7495H576.548V65.8295C576.548 66.8295 576.028 67.1095 575.268 67.1095C574.508 67.1095 573.988 66.8295 573.988 65.8295V58.1495C573.988 57.1495 574.508 56.8695 575.268 56.8695C576.028 56.8695 576.548 57.1495 576.548 58.1495V59.7895H578.868V57.7895C578.868 55.7095 577.468 54.8295 575.348 54.8295H575.188C573.068 54.8295 571.668 55.7095 571.668 57.7895V66.1895C571.668 68.3695 573.068 69.1495 575.188 69.1495H575.348C577.468 69.1495 578.868 68.3495 578.868 66.1895V61.7895ZM587.752 54.9895H585.432V65.8295C585.432 66.8295 584.992 67.1095 584.232 67.1095C583.472 67.1095 583.032 66.8295 583.032 65.8295V54.9895H580.712V66.1895C580.712 68.3695 582.072 69.1495 584.192 69.1495H584.272C586.392 69.1495 587.752 68.3495 587.752 66.1895V54.9895ZM595.917 68.9895V66.9495H592.037V62.9095H595.237V60.8695H592.037V57.0295H595.857V54.9895H589.717V68.9895H595.917Z" fill="#B6B1BF"/>
<path d="M635 44.9895V64.9895H605" stroke="#B6B1BF" stroke-width="2"/>
<path d="M738 44.9895V64.9895H771.5" stroke="#B6B1BF" stroke-width="2"/>
<path d="M787.818 63.2895H785.498V65.8295C785.498 66.8095 785.018 67.1095 784.278 67.1095C783.538 67.1095 783.058 66.8095 783.058 65.8295V58.1495C783.058 57.1695 783.538 56.8695 784.278 56.8695C785.018 56.8695 785.498 57.1695 785.498 58.1495V60.3495H787.818V57.7895C787.818 55.7095 786.418 54.8295 784.298 54.8295H784.258C782.138 54.8295 780.738 55.7095 780.738 57.7895V66.1895C780.738 68.3695 782.138 69.1495 784.258 69.1495H784.298C786.418 69.1495 787.818 68.3495 787.818 66.1895V63.2895ZM789.666 54.9895V68.9895H791.986V62.9095H794.646V68.9895H796.966V54.9895H794.646V60.8295H791.986V54.9895H789.666ZM803.923 68.9895H806.283L803.643 54.9895H800.723L798.123 68.9895H800.363L800.863 65.8695H803.423L803.923 68.9895ZM801.163 63.9495L802.143 57.7295L803.123 63.9495H801.163ZM815.099 60.4295V68.9895H817.339V54.9895H815.059L812.339 63.1295L809.639 54.9895H807.439V68.9895H809.599V60.4295L811.699 66.9495H812.999L815.099 60.4295ZM822.954 54.9895H819.334V68.9895H821.654V63.5695H822.954C825.074 63.5695 826.474 62.7295 826.474 60.6095V57.9495C826.474 55.8295 825.074 54.9895 822.954 54.9895ZM824.154 60.2495C824.154 61.2495 823.634 61.5295 822.874 61.5295H821.654V57.0295H822.874C823.634 57.0295 824.154 57.3095 824.154 58.3095V60.2495ZM830.347 68.9895V54.9895H828.027V68.9895H830.347ZM832.34 57.7895V66.1895C832.34 68.3095 833.74 69.1495 835.86 69.1495H836.02C838.14 69.1495 839.54 68.3095 839.54 66.1895V57.7895C839.54 55.6695 838.14 54.8295 836.02 54.8295H835.86C833.74 54.8295 832.34 55.6495 832.34 57.7895ZM834.66 65.8295V58.1495C834.66 57.1495 835.18 56.8695 835.94 56.8695C836.7 56.8695 837.22 57.1495 837.22 58.1495V65.8295C837.22 66.8295 836.7 67.1095 835.94 67.1095C835.18 67.1095 834.66 66.8295 834.66 65.8295ZM843.583 68.9895V59.8895L846.643 68.9895H848.843V54.9895H846.723V63.6495L843.783 54.9895H841.463V68.9895H843.583ZM859.941 66.9095H856.361V54.9895H854.041V68.9895H859.941V66.9095ZM867.389 68.9895V66.9495H863.509V62.9095H866.709V60.8695H863.509V57.0295H867.329V54.9895H861.189V68.9895H867.389ZM873.981 68.9895H876.341L873.701 54.9895H870.781L868.181 68.9895H870.421L870.921 65.8695H873.481L873.981 68.9895ZM871.221 63.9495L872.201 57.7295L873.181 63.9495H871.221ZM884.501 61.7895H880.821V63.7495H882.181V65.8295C882.181 66.8295 881.661 67.1095 880.901 67.1095C880.141 67.1095 879.621 66.8295 879.621 65.8295V58.1495C879.621 57.1495 880.141 56.8695 880.901 56.8695C881.661 56.8695 882.181 57.1495 882.181 58.1495V59.7895H884.501V57.7895C884.501 55.7095 883.101 54.8295 880.981 54.8295H880.821C878.701 54.8295 877.301 55.7095 877.301 57.7895V66.1895C877.301 68.3695 878.701 69.1495 880.821 69.1495H880.981C883.101 69.1495 884.501 68.3495 884.501 66.1895V61.7895ZM893.385 54.9895H891.065V65.8295C891.065 66.8295 890.625 67.1095 889.865 67.1095C889.105 67.1095 888.665 66.8295 888.665 65.8295V54.9895H886.345V66.1895C886.345 68.3695 887.705 69.1495 889.825 69.1495H889.905C892.025 69.1495 893.385 68.3495 893.385 66.1895V54.9895ZM901.55 68.9895V66.9495H897.67V62.9095H900.87V60.8695H897.67V57.0295H901.49V54.9895H895.35V68.9895H901.55Z" fill="#B6B1BF"/>
<path d="M944 44.9895V64.9895H910.5" stroke="#B6B1BF" stroke-width="2"/>
<path fill-rule="evenodd" clip-rule="evenodd" d="M15.8868 5.65625L24 17.8121L15.888 26.9896L8 17.8105L15.8868 5.65625ZM15.9085 9.23016L10.4618 17.6241L15.9074 23.961L21.5099 17.6225L15.9085 9.23016Z" fill="#B6B1BF"/>
<path d="M12.6595 17.2473L16.1364 12.4754L19.5168 17.2473L16.1364 21.7011L12.6595 17.2473Z" fill="#B6B1BF"/>
<rect x="40" y="14.9895" width="55.1111" height="4" rx="2" fill="#292044"/>
<path fill-rule="evenodd" clip-rule="evenodd" d="M118.988 5.65625L127.778 17.8778L118.99 27.1049L110.444 17.8762L118.988 5.65625ZM119.012 9.24948L113.111 17.6888L119.011 24.0599L125.08 17.6872L119.012 9.24948Z" fill="#B6B1BF"/>
<path d="M115.492 17.31L119.259 12.5123L122.921 17.31L119.259 21.7878L115.492 17.31Z" fill="#B6B1BF"/>
<path d="M122.948 26.2607C121.719 26.3638 121.432 26.8105 120.032 27.6353C120.265 27.7727 121.315 28.3229 122.365 28.3229C123.414 28.3229 125.397 26.2607 125.397 26.2607C125.397 26.2607 124.177 26.1575 122.948 26.2607Z" fill="#B6B1BF"/>
<path d="M114.94 26.2607C116.217 26.3638 116.515 26.8105 117.968 27.6353C117.726 27.7727 116.636 28.3229 115.546 28.3229C114.456 28.3229 112.397 26.2607 112.397 26.2607C112.397 26.2607 113.664 26.1575 114.94 26.2607Z" fill="#B6B1BF"/>
<rect x="143.111" y="14.9895" width="55.1111" height="4" rx="2" fill="#292044"/>
<path d="M224.175 28.1752C224.615 27.6431 226.222 26.7065 229.127 27.2174C228.742 27.7495 227.213 28.6861 224.175 28.1752Z" fill="#B6B1BF"/>
<path d="M220.048 28.1752C219.608 27.6431 218.001 26.7065 215.095 27.2174C215.481 27.7495 217.01 28.6861 220.048 28.1752Z" fill="#B6B1BF"/>
<path d="M220.048 26.652C219.438 25.5659 217.375 23.143 213.857 22.8924C213.998 24.7722 215.686 26.4014 220.048 26.652Z" fill="#B6B1BF"/>
<path fill-rule="evenodd" clip-rule="evenodd" d="M222.1 5.65625L230.889 17.7651L222.101 26.9073L213.556 17.7636L222.1 5.65625ZM222.123 9.21637L216.223 17.5779L222.122 23.8903L228.191 17.5763L222.123 9.21637Z" fill="#B6B1BF"/>
<path d="M218.603 17.2026L222.37 12.4491L226.032 17.2026L222.37 21.6392L218.603 17.2026Z" fill="#B6B1BF"/>
<path d="M224.175 26.652C224.785 25.5659 226.848 23.143 230.366 22.8924C230.225 24.7722 228.537 26.4014 224.175 26.652Z" fill="#B6B1BF"/>
<rect x="246.223" y="14.9895" width="55.1111" height="4" rx="2" fill="#292044"/>
<path d="M327.285 26.6521C327.894 25.5662 329.957 23.1437 333.473 22.8931C333.332 24.7726 331.645 26.4015 327.285 26.6521Z" fill="#B6B1BF"/>
<path d="M327.285 28.1752C327.725 27.6431 329.331 26.7066 332.235 27.2174C331.85 27.7496 330.321 28.6861 327.285 28.1752Z" fill="#B6B1BF"/>
<path d="M323.159 28.1752C322.719 27.6431 321.113 26.7066 318.208 27.2174C318.593 27.7496 320.123 28.6861 323.159 28.1752Z" fill="#B6B1BF"/>
<path d="M323.159 26.6521C322.55 25.5662 320.487 23.1437 316.971 22.8931C317.111 24.7726 318.799 26.4015 323.159 26.6521Z" fill="#B6B1BF"/>
<path fill-rule="evenodd" clip-rule="evenodd" d="M325.21 5.65625L320.28 12.643C319.888 11.0137 319.763 8.43488 319.997 5.9776C319.181 6.9084 318.221 10.6937 318.058 11.7692C317.958 12.4244 318.144 13.6629 318.32 14.8348C318.345 14.9982 318.369 15.1603 318.392 15.3193L316.666 17.7658L325.211 26.9112L333.999 17.7674L332.474 15.6656C332.508 15.3988 332.547 15.1188 332.587 14.8348C332.749 13.6629 332.92 12.4244 332.829 11.7692C332.678 10.6937 331.792 6.9084 331.038 5.9776C331.279 8.70731 331.11 11.587 330.647 13.1484L325.21 5.65625ZM319.338 17.5787L325.234 9.22259L331.297 17.5772L325.232 23.887L319.338 17.5787Z" fill="#B6B1BF"/>
<path d="M321.715 17.2042L325.48 12.4514L329.141 17.2042L325.48 21.6401L321.715 17.2042Z" fill="#B6B1BF"/>
<rect x="349.333" y="14.9895" width="55.1111" height="4" rx="2" fill="#292044"/>
<path d="M429.593 27.4255C429.86 27.0277 430.838 26.3513 432.616 26.8287C432.468 27.2834 431.656 28.0394 429.593 27.4255Z" fill="#B6B1BF"/>
<path d="M426.836 27.4255C426.57 27.0277 425.592 26.3513 423.813 26.8287C423.961 27.2834 424.774 28.0394 426.836 27.4255Z" fill="#B6B1BF"/>
<path d="M433.019 26.4457C433.315 25.9994 434.294 25.3021 435.839 26.0824C435.449 26.5035 434.34 27.1657 433.019 26.4457Z" fill="#B6B1BF"/>
<path d="M423.41 26.4457C423.114 25.9994 422.135 25.3021 420.59 26.0824C420.98 26.5035 422.089 27.1657 423.41 26.4457Z" fill="#B6B1BF"/>
<path d="M432.883 25.3793C433.031 24.8109 433.967 23.4866 436.528 22.7364C436.41 23.6173 435.515 25.3793 432.883 25.3793Z" fill="#B6B1BF"/>
<path d="M423.547 25.3793C423.398 24.8109 422.462 23.4866 419.901 22.7364C420.02 23.6173 420.915 25.3793 423.547 25.3793Z" fill="#B6B1BF"/>
<path fill-rule="evenodd" clip-rule="evenodd" d="M428.437 26.9992C427.999 26.0829 426.41 24.1521 423.556 23.7594C424.182 24.8394 426.034 26.9992 428.437 26.9992ZM433.317 23.7594C432.692 24.8394 430.84 26.9992 428.437 26.9992C428.875 26.0829 430.464 24.1521 433.317 23.7594Z" fill="#B6B1BF"/>
<path fill-rule="evenodd" clip-rule="evenodd" d="M428.437 6.32275L438.444 13.5494L434.428 21.6068L428.422 24.007L422.033 21.2317L418.444 13.5387L428.437 6.32275ZM428.437 8.45738L420.646 14.0832L423.381 19.9453L428.452 22.1478L433.116 20.2836L436.213 14.0724L428.437 8.45738Z" fill="#B6B1BF"/>
<path d="M431.713 18.923L428.518 20.1321L425.323 18.923L423.086 14.3889L428.518 10.4593L433.95 14.3889L431.713 18.923Z" fill="#B6B1BF"/>
<rect x="452.444" y="14.9895" width="55.1111" height="4" rx="2" fill="#292044"/>
<path d="M540.534 23.8312C540.158 23.9911 539.456 23.9718 539.173 23.9155C539.428 23.2406 539.729 22.9692 540.194 22.5656C540.875 21.975 541.187 21.5251 541.556 21.2157C541.556 21.6375 541.556 22.1438 541.471 22.65C541.402 23.055 541.13 23.5781 540.534 23.8312Z" fill="#B6B1BF"/>
<path d="M522.577 23.8312C522.953 23.9911 523.655 23.9718 523.939 23.9155C523.683 23.2406 523.383 22.9692 522.917 22.5656C522.237 21.975 521.924 21.5251 521.556 21.2157C521.556 21.6375 521.556 22.1438 521.641 22.65C521.709 23.055 521.981 23.5781 522.577 23.8312Z" fill="#B6B1BF"/>
<path d="M539.854 19.9501C539.445 20.7601 539.371 21.6938 539.343 21.975C539.74 21.8625 540.637 21.1819 541.045 20.372C541.454 19.562 541.073 18.3752 540.79 17.9252C540.705 18.2065 540.262 19.1402 539.854 19.9501Z" fill="#B6B1BF"/>
<path d="M523.258 19.9501C523.666 20.7601 523.74 21.6938 523.768 21.975C523.371 21.8625 522.475 21.1819 522.066 20.372C521.658 19.562 522.038 18.3752 522.322 17.9252C522.407 18.2065 522.849 19.1402 523.258 19.9501Z" fill="#B6B1BF"/>
<path d="M532.554 27.4775C532.783 26.9103 533.731 25.8903 535.69 26.3484C535.594 26.9801 534.834 28.0902 532.554 27.4775Z" fill="#B6B1BF"/>
<path d="M530.558 27.4775C530.328 26.9103 529.38 25.8903 527.422 26.3484C527.517 26.9801 528.278 28.0902 530.558 27.4775Z" fill="#B6B1BF"/>
<path d="M536.046 25.9816C536.124 25.4637 536.695 24.4548 538.363 24.5622C538.194 25.0934 537.494 26.1211 536.046 25.9816Z" fill="#B6B1BF"/>
<path d="M527.065 25.9816C526.988 25.4637 526.416 24.4548 524.748 24.5622C524.917 25.0934 525.617 26.1211 527.065 25.9816Z" fill="#B6B1BF"/>
<path d="M536.194 24.5905C536.312 24.0825 537.055 22.8987 539.088 22.2281C538.993 23.0156 538.283 24.5905 536.194 24.5905Z" fill="#B6B1BF"/>
<path d="M526.917 24.5905C526.8 24.0825 526.056 22.8987 524.024 22.2281C524.118 23.0156 524.828 24.5905 526.917 24.5905Z" fill="#B6B1BF"/>
<path d="M531.598 26.7841C532.017 25.8774 533.539 23.9667 536.27 23.5781C535.671 24.6468 533.898 26.7841 531.598 26.7841Z" fill="#B6B1BF"/>
<path d="M531.513 26.7841C531.094 25.8774 529.573 23.9667 526.842 23.5781C527.441 24.6468 529.213 26.7841 531.513 26.7841Z" fill="#B6B1BF"/>
<path fill-rule="evenodd" clip-rule="evenodd" d="M531.598 6.32275L541.177 13.4743L537.332 21.4478L531.584 23.823L525.468 21.0766L522.034 13.4636L531.598 6.32275ZM531.598 8.43517L524.141 14.0024L526.759 19.8036L531.612 21.9832L536.077 20.1384L539.041 13.9918L531.598 8.43517Z" fill="#B6B1BF"/>
<path d="M534.734 18.792L531.676 19.9885L528.617 18.792L526.476 14.305L531.676 10.4163L536.875 14.305L534.734 18.792Z" fill="#B6B1BF"/>
<rect x="555.556" y="14.9895" width="55.1111" height="4" rx="2" fill="#292044"/>
<path d="M623.765 19.3158C623.908 18.2359 622.164 16.0535 621.452 15.3504C621.304 16.166 621.257 18.2021 621.541 18.8096C621.826 19.417 622.994 20.3845 623.498 20.9188C623.498 20.5813 623.587 20.6657 623.765 19.3158Z" fill="#B6B1BF"/>
<path d="M645.569 19.3158C645.427 18.2359 647.171 16.0535 647.883 15.3504C648.031 16.166 648.078 18.2021 647.793 18.8096C647.509 19.417 646.34 20.3845 645.836 20.9188C645.836 20.5813 645.747 20.6657 645.569 19.3158Z" fill="#B6B1BF"/>
<path d="M647.073 14.7598C647.002 16.3122 645.591 17.6846 644.938 18.1346C644.227 15.7722 646.006 12.3131 646.688 11.0475C646.866 11.8912 647.174 12.5662 647.073 14.7598Z" fill="#B6B1BF"/>
<path d="M622.439 14.7598C622.51 16.3122 623.921 17.6846 624.574 18.1346C625.285 15.7722 623.617 12.3131 622.935 11.0475C622.757 11.8912 622.338 12.5662 622.439 14.7598Z" fill="#B6B1BF"/>
<path d="M644.049 23.8312C643.655 23.9911 642.922 23.9718 642.625 23.9155C642.892 23.2406 643.207 22.9692 643.693 22.5656C644.405 21.975 644.731 21.5251 645.116 21.2157C645.116 21.6375 645.116 22.1438 645.027 22.65C644.956 23.055 644.671 23.5781 644.049 23.8312Z" fill="#B6B1BF"/>
<path d="M625.278 23.8312C625.671 23.9911 626.405 23.9718 626.701 23.9155C626.434 23.2406 626.12 22.9692 625.634 22.5656C624.922 21.975 624.596 21.5251 624.21 21.2157C624.21 21.6375 624.21 22.1438 624.299 22.65C624.37 23.055 624.655 23.5781 625.278 23.8312Z" fill="#B6B1BF"/>
<path d="M643.337 19.9501C642.91 20.7601 642.833 21.6938 642.803 21.975C643.218 21.8625 644.155 21.1819 644.582 20.372C645.009 19.562 644.612 18.3752 644.316 17.9252C644.227 18.2065 643.764 19.1402 643.337 19.9501Z" fill="#B6B1BF"/>
<path d="M625.989 19.9501C626.416 20.7601 626.494 21.6938 626.523 21.975C626.108 21.8625 625.171 21.1819 624.744 20.372C624.317 19.562 624.714 18.3752 625.011 17.9252C625.1 18.2065 625.562 19.1402 625.989 19.9501Z" fill="#B6B1BF"/>
<path d="M635.707 27.4775C635.946 26.9103 636.937 25.8903 638.984 26.3484C638.885 26.9801 638.09 28.0902 635.707 27.4775Z" fill="#B6B1BF"/>
<path d="M633.62 27.4775C633.38 26.9103 632.389 25.8903 630.342 26.3484C630.441 26.9801 631.237 28.0902 633.62 27.4775Z" fill="#B6B1BF"/>
<path d="M639.357 25.9816C639.438 25.4637 640.036 24.4548 641.779 24.5622C641.602 25.0934 640.87 26.1211 639.357 25.9816Z" fill="#B6B1BF"/>
<path d="M629.969 25.9816C629.888 25.4637 629.291 24.4548 627.548 24.5622C627.724 25.0934 628.456 26.1211 629.969 25.9816Z" fill="#B6B1BF"/>
<path d="M639.512 24.5905C639.635 24.0825 640.412 22.8987 642.536 22.2281C642.438 23.0156 641.695 24.5905 639.512 24.5905Z" fill="#B6B1BF"/>
<path d="M629.815 24.5905C629.692 24.0825 628.915 22.8987 626.79 22.2281C626.888 23.0156 627.631 24.5905 629.815 24.5905Z" fill="#B6B1BF"/>
<path fill-rule="evenodd" clip-rule="evenodd" d="M638.906 9.32117L634.708 6.32275L630.391 9.40598C630.031 8.89985 629.438 7.90009 629.014 6.49149C628.995 6.53354 628.974 6.57772 628.952 6.62472C628.682 7.19764 628.216 8.18795 628.426 10.8094L627.595 11.4029C626.866 11.1755 625.729 10.8203 624.744 10.1194C624.874 10.9203 625.146 11.3163 625.614 11.9972C625.727 12.1617 625.852 12.3429 625.988 12.5505L624.71 13.4636L628.3 21.0766L634.693 23.823L640.701 21.4478L644.72 13.4743L643.306 12.4642C643.421 12.2921 643.526 12.1385 643.623 11.9972C644.091 11.3163 644.364 10.9203 644.494 10.1194C643.562 10.7818 642.496 11.1354 641.766 11.3642L640.821 10.689C641.007 8.15741 640.551 7.18878 640.285 6.62472C640.263 6.57772 640.242 6.53354 640.223 6.49149C639.822 7.82528 639.268 8.7925 638.906 9.32117ZM626.913 14.0024L634.708 8.43517L642.487 13.9918L639.389 20.1384L634.722 21.9832L629.649 19.8036L626.913 14.0024Z" fill="#B6B1BF"/>
<path d="M637.985 18.792L634.789 19.9885L631.592 18.792L629.354 14.305L634.789 10.4163L640.223 14.305L637.985 18.792Z" fill="#B6B1BF"/>
<path d="M634.708 26.7841C634.617 25.3905 632.638 23.9667 629.726 23.5781C630.364 24.6468 632.255 26.7841 634.708 26.7841Z" fill="#B6B1BF"/>
<path d="M634.708 26.7841C634.798 25.3905 636.777 23.9667 639.69 23.5781C639.051 24.6468 637.16 26.7841 634.708 26.7841Z" fill="#B6B1BF"/>
<rect x="658.667" y="14.9895" width="55.1111" height="4" rx="2" fill="#292044"/>
<path d="M741.457 27.905C742.3 26.4084 743.45 26.0933 744.37 24.6754C744.576 25.659 744.365 27.6189 741.457 27.905Z" fill="#B6B1BF"/>
<path d="M734.022 27.905C733.179 26.4084 732.029 26.0933 731.109 24.6754C730.902 25.659 731.113 27.6189 734.022 27.905Z" fill="#B6B1BF"/>
<path fill-rule="evenodd" clip-rule="evenodd" d="M737.778 4.65625L742.227 11.022L741.656 11.4889C741.368 11.7245 740.997 12.0304 740.695 12.3878C740.381 12.7601 740.245 13.0704 740.245 13.3055C740.245 13.6465 740.353 13.8701 740.486 14.0069C740.621 14.1441 740.842 14.2557 741.179 14.2557C741.319 14.2557 741.515 14.2172 741.711 14.1327C741.909 14.0468 742.045 13.9405 742.112 13.8545C742.163 13.7903 742.157 13.7676 742.154 13.7517L742.153 13.7489C742.142 13.699 742.075 13.5149 741.722 13.2268C741.524 13.0645 741.416 12.8116 741.435 12.5515C741.454 12.2914 741.597 12.0578 741.817 11.9277L750.111 7.02082L744.178 23.5933L737.778 27.0626L731.378 23.5933L725.444 7.02082L733.738 11.9277C733.958 12.0578 734.101 12.2914 734.12 12.5515C734.139 12.8116 734.032 13.0645 733.833 13.2268C733.481 13.5149 733.413 13.699 733.402 13.7489L733.402 13.7517C733.398 13.7676 733.393 13.7903 733.443 13.8545C733.51 13.9405 733.646 14.0468 733.844 14.1327C734.04 14.2172 734.237 14.2557 734.376 14.2557C734.714 14.2557 734.935 14.1441 735.069 14.0069C735.203 13.8701 735.311 13.6465 735.311 13.3055C735.311 13.0704 735.174 12.7601 734.86 12.3878C734.559 12.0304 734.187 11.7245 733.899 11.4889L733.328 11.022L737.778 4.65625ZM735.416 10.7357C735.613 10.9162 735.824 11.1253 736.018 11.3558C736.413 11.8234 736.844 12.4979 736.844 13.3055C736.844 14.0072 736.611 14.6526 736.15 15.1241C735.689 15.5951 735.059 15.8311 734.376 15.8311C734.006 15.8311 733.607 15.7392 733.25 15.5848C732.896 15.4317 732.521 15.1905 732.249 14.842C731.962 14.4757 731.782 13.9758 731.906 13.4053C731.952 13.1948 732.035 12.9949 732.149 12.8052L728.342 10.5532L732.613 22.4819L737.778 25.2814L742.942 22.4819L747.213 10.5532L743.406 12.8052C743.52 12.9949 743.603 13.1948 743.649 13.4053C743.773 13.9758 743.594 14.4757 743.307 14.842C743.034 15.1905 742.66 15.4317 742.305 15.5848C741.948 15.7392 741.55 15.8311 741.179 15.8311C740.496 15.8311 739.867 15.5951 739.406 15.1241C738.944 14.6526 738.712 14.0072 738.712 13.3055C738.712 12.4979 739.142 11.8234 739.537 11.3558C739.731 11.1253 739.942 10.9162 740.14 10.7357L737.778 7.35661L735.416 10.7357Z" fill="#B6B1BF"/>
<path d="M737.778 29.3229C738.19 28.4318 739.688 26.554 742.377 26.172C741.787 27.2223 740.042 29.3229 737.778 29.3229Z" fill="#B6B1BF"/>
<path d="M737.778 29.3229C737.365 28.4318 735.867 26.554 733.179 26.172C733.768 27.2223 735.514 29.3229 737.778 29.3229Z" fill="#B6B1BF"/>
<rect x="761.777" y="14.9895" width="55.1111" height="4" rx="2" fill="#292044"/>
<path d="M849.726 24.9117C849.091 26.172 848.477 26.172 847.941 26.6819C848.401 26.7662 849.35 27.0161 849.726 26.3868C850.102 25.7574 849.883 25.1411 849.726 24.9117Z" fill="#B6B1BF"/>
<path d="M831.975 24.9117C832.611 26.172 833.224 26.172 833.761 26.6819C833.301 26.7662 832.351 27.0161 831.975 26.3868C831.599 25.7574 831.819 25.1411 831.975 24.9117Z" fill="#B6B1BF"/>
<path d="M844.938 28.3352C845.197 28.3229 846.408 28.2201 847.631 26.8022C847.6 28.0072 846.788 29.1492 844.938 28.3352Z" fill="#B6B1BF"/>
<path d="M836.763 28.3352C836.505 28.3229 835.294 28.2201 834.07 26.8022C834.102 28.0072 834.913 29.1492 836.763 28.3352Z" fill="#B6B1BF"/>
<path d="M844.568 27.905C845.411 26.4084 846.561 26.0933 847.481 24.6754C847.688 25.659 847.477 27.6189 844.568 27.905Z" fill="#B6B1BF"/>
<path d="M837.133 27.905C836.29 26.4084 835.14 26.0933 834.22 24.6754C834.014 25.659 834.225 27.6189 837.133 27.905Z" fill="#B6B1BF"/>
<path fill-rule="evenodd" clip-rule="evenodd" d="M840.889 4.65625L845.339 11.022L844.768 11.4889C844.479 11.7245 844.108 12.0304 843.807 12.3878C843.492 12.7601 843.356 13.0704 843.356 13.3055C843.356 13.6465 843.464 13.8701 843.598 14.0069C843.732 14.1441 843.953 14.2557 844.29 14.2557C844.43 14.2557 844.627 14.2172 844.822 14.1327C845.021 14.0468 845.156 13.9405 845.224 13.8545C845.274 13.7903 845.269 13.7676 845.265 13.7517L845.264 13.7489C845.253 13.699 845.186 13.5149 844.834 13.2268C844.635 13.0645 844.527 12.8116 844.546 12.5515C844.565 12.2914 844.708 12.0578 844.928 11.9277L853.222 7.02082L847.289 23.5933L840.889 27.0626L834.489 23.5933L828.556 7.02082L836.85 11.9277C837.07 12.0578 837.213 12.2914 837.232 12.5515C837.251 12.8116 837.143 13.0645 836.944 13.2268C836.592 13.5149 836.525 13.699 836.514 13.7489L836.513 13.7517C836.509 13.7676 836.504 13.7903 836.554 13.8545C836.622 13.9405 836.757 14.0468 836.956 14.1327C837.151 14.2172 837.348 14.2557 837.488 14.2557C837.825 14.2557 838.046 14.1441 838.18 14.0069C838.314 13.8701 838.422 13.6465 838.422 13.3055C838.422 13.0704 838.286 12.7601 837.971 12.3878C837.67 12.0304 837.299 11.7245 837.01 11.4889L836.439 11.022L840.889 4.65625ZM838.527 10.7357C838.725 10.9162 838.935 11.1253 839.13 11.3558C839.524 11.8234 839.955 12.4979 839.955 13.3055C839.955 14.0072 839.722 14.6526 839.261 15.1241C838.8 15.5951 838.171 15.8311 837.488 15.8311C837.117 15.8311 836.719 15.7392 836.361 15.5848C836.007 15.4317 835.633 15.1905 835.36 14.842C835.073 14.4757 834.894 13.9758 835.018 13.4053C835.063 13.1948 835.146 12.9949 835.26 12.8052L831.454 10.5532L835.725 22.4819L840.889 25.2814L846.053 22.4819L850.324 10.5532L846.518 12.8052C846.632 12.9949 846.715 13.1948 846.76 13.4053C846.884 13.9758 846.705 14.4757 846.418 14.842C846.145 15.1905 845.771 15.4317 845.417 15.5848C845.059 15.7392 844.661 15.8311 844.29 15.8311C843.607 15.8311 842.978 15.5951 842.517 15.1241C842.056 14.6526 841.823 14.0072 841.823 13.3055C841.823 12.4979 842.254 11.8234 842.648 11.3558C842.843 11.1253 843.053 10.9162 843.251 10.7357L840.889 7.35661L838.527 10.7357Z" fill="#B6B1BF"/>
<path d="M840.889 29.3229C841.302 28.4318 842.799 26.554 845.488 26.172C844.898 27.2223 843.153 29.3229 840.889 29.3229Z" fill="#B6B1BF"/>
<path d="M840.889 29.3229C840.476 28.4318 838.979 26.554 836.29 26.172C836.88 27.2223 838.625 29.3229 840.889 29.3229Z" fill="#B6B1BF"/>
<path d="M848.477 23.2575C847.787 24.3603 847.941 25.148 847.941 25.4631C849.964 24.7699 849.985 22.6011 849.704 21.6033C849.32 22.1547 849.295 21.9506 848.477 23.2575Z" fill="#B6B1BF"/>
<path d="M833.224 23.2575C833.914 24.3603 833.761 25.148 833.761 25.4631C831.737 24.7699 831.717 22.6011 831.998 21.6033C832.381 22.1547 832.407 21.9506 833.224 23.2575Z" fill="#B6B1BF"/>
<rect x="864.889" y="14.9895" width="55.1111" height="4" rx="2" fill="#292044"/>
<path d="M953.812 27.6687C952.432 27.9838 951.205 27.4324 950.975 27.2748C950.975 27.7194 951.449 28.5512 952.125 28.614C952.802 28.6767 953.558 27.904 953.812 27.6687Z" fill="#B6B1BF"/>
<path d="M934.113 27.6687C935.492 27.9838 936.719 27.4324 936.949 27.2748C936.949 27.7194 936.475 28.5512 935.799 28.614C935.122 28.6767 934.366 27.904 934.113 27.6687Z" fill="#B6B1BF"/>
<path d="M955.421 24.9117C954.992 25.4789 953.837 26.067 953.352 26.2508C953.198 25.8307 953.26 25.0692 953.505 24.4391C953.75 23.8089 955.268 22.7586 956.111 22.4698C955.881 22.6273 955.958 24.2027 955.421 24.9117Z" fill="#B6B1BF"/>
<path d="M932.503 24.9117C932.932 25.4789 934.087 26.067 934.572 26.2508C934.726 25.8307 934.664 25.0692 934.419 24.4391C934.174 23.8089 932.656 22.7586 931.813 22.4698C932.043 22.6273 931.966 24.2027 932.503 24.9117Z" fill="#B6B1BF"/>
<path d="M952.837 24.9117C952.202 26.172 951.589 26.172 951.052 26.6819C951.512 26.7662 952.462 27.0161 952.837 26.3868C953.213 25.7574 952.994 25.1411 952.837 24.9117Z" fill="#B6B1BF"/>
<path d="M935.087 24.9117C935.722 26.172 936.335 26.172 936.872 26.6819C936.412 26.7662 935.462 27.0161 935.087 26.3868C934.711 25.7574 934.93 25.1411 935.087 24.9117Z" fill="#B6B1BF"/>
<path d="M948.05 28.3352C948.308 28.3229 949.519 28.2201 950.743 26.8022C950.711 28.0072 949.899 29.1492 948.05 28.3352Z" fill="#B6B1BF"/>
<path d="M939.874 28.3352C939.616 28.3229 938.405 28.2201 937.182 26.8022C937.213 28.0072 938.025 29.1492 939.874 28.3352Z" fill="#B6B1BF"/>
<path d="M947.68 27.905C948.523 26.4084 949.672 26.0933 950.592 24.6754C950.799 25.659 950.588 27.6189 947.68 27.905Z" fill="#B6B1BF"/>
<path d="M940.245 27.905C939.401 26.4084 938.252 26.0933 937.332 24.6754C937.125 25.659 937.336 27.6189 940.245 27.905Z" fill="#B6B1BF"/>
<path fill-rule="evenodd" clip-rule="evenodd" d="M944 4.65625L948.45 11.022L947.879 11.4889C947.591 11.7245 947.219 12.0304 946.918 12.3878C946.604 12.7601 946.467 13.0704 946.467 13.3055C946.467 13.6465 946.575 13.8701 946.709 14.0069C946.843 14.1441 947.064 14.2557 947.402 14.2557C947.541 14.2557 947.738 14.2172 947.934 14.1327C948.132 14.0468 948.268 13.9405 948.335 13.8545C948.385 13.7903 948.38 13.7676 948.376 13.7517L948.376 13.7489C948.365 13.699 948.297 13.5149 947.945 13.2268C947.746 13.0645 947.639 12.8116 947.658 12.5515C947.677 12.2914 947.82 12.0578 948.04 11.9277L956.334 7.02082L950.4 23.5933L944 27.0626L937.6 23.5933L931.667 7.02082L939.961 11.9277C940.181 12.0578 940.324 12.2914 940.343 12.5515C940.362 12.8116 940.254 13.0645 940.056 13.2268C939.703 13.5149 939.636 13.699 939.625 13.7489L939.624 13.7517C939.621 13.7676 939.615 13.7903 939.666 13.8545C939.733 13.9405 939.869 14.0468 940.067 14.1327C940.263 14.2172 940.459 14.2557 940.599 14.2557C940.936 14.2557 941.157 14.1441 941.292 14.0069C941.425 13.8701 941.533 13.6465 941.533 13.3055C941.533 13.0704 941.397 12.7601 941.083 12.3878C940.781 12.0304 940.41 11.7245 940.122 11.4889L939.551 11.022L944 4.65625ZM941.638 10.7357C941.836 10.9162 942.047 11.1253 942.241 11.3558C942.636 11.8234 943.066 12.4979 943.066 13.3055C943.066 14.0072 942.834 14.6526 942.372 15.1241C941.911 15.5951 941.282 15.8311 940.599 15.8311C940.228 15.8311 939.83 15.7392 939.473 15.5848C939.118 15.4317 938.744 15.1905 938.471 14.842C938.184 14.4757 938.005 13.9758 938.129 13.4053C938.175 13.1948 938.258 12.9949 938.372 12.8052L934.565 10.5532L938.836 22.4819L944 25.2814L949.165 22.4819L953.436 10.5532L949.629 12.8052C949.743 12.9949 949.826 13.1948 949.872 13.4053C949.996 13.9758 949.816 14.4757 949.529 14.842C949.257 15.1905 948.882 15.4317 948.528 15.5848C948.171 15.7392 947.772 15.8311 947.402 15.8311C946.719 15.8311 946.089 15.5951 945.628 15.1241C945.167 14.6526 944.934 14.0072 944.934 13.3055C944.934 12.4979 945.365 11.8234 945.76 11.3558C945.954 11.1253 946.165 10.9162 946.362 10.7357L944 7.35661L941.638 10.7357Z" fill="#B6B1BF"/>
<path d="M944 29.3229C944.413 28.4318 945.911 26.554 948.599 26.172C948.01 27.2223 946.264 29.3229 944 29.3229Z" fill="#B6B1BF"/>
<path d="M944 29.3229C943.588 28.4318 942.09 26.554 939.401 26.172C939.991 27.2223 941.736 29.3229 944 29.3229Z" fill="#B6B1BF"/>
<path d="M951.589 23.2575C950.899 24.3603 951.052 25.148 951.052 25.4631C953.076 24.7699 953.096 22.6011 952.815 21.6033C952.432 22.1547 952.406 21.9506 951.589 23.2575Z" fill="#B6B1BF"/>
<path d="M936.335 23.2575C937.025 24.3603 936.872 25.148 936.872 25.4631C934.848 24.7699 934.828 22.6011 935.109 21.6033C935.492 22.1547 935.518 21.9506 936.335 23.2575Z" fill="#B6B1BF"/>
<path d="M955.728 21.1306C955.347 21.7169 954.067 22.7586 953.352 23.0999C953.352 22.7061 953.097 21.7959 953.275 20.4217C953.428 19.2401 954.808 17.1133 956.188 14.3563C956.111 18.5312 956.188 20.4217 955.728 21.1306Z" fill="#B6B1BF"/>
<path d="M932.196 21.1306C932.577 21.7169 933.857 22.7586 934.572 23.0999C934.572 22.7061 934.827 21.7959 934.649 20.4217C934.496 19.2401 933.116 17.1133 931.736 14.3563C931.813 18.5312 931.736 20.4217 932.196 21.1306Z" fill="#B6B1BF"/>
</svg>
