<svg width="17" height="16" viewBox="0 0 17 16" fill="none" xmlns="http://www.w3.org/2000/svg">
<path d="M16.3008 8C16.3008 12.4183 12.7191 16 8.30078 16C3.8825 16 0.300781 12.4183 0.300781 8C0.300781 3.58172 3.8825 0 8.30078 0C12.7191 0 16.3008 3.58172 16.3008 8Z" fill="#292044"/>
<path fill-rule="evenodd" clip-rule="evenodd" d="M8.30078 14.6667C11.9827 14.6667 14.9674 11.6819 14.9674 8C14.9674 4.3181 11.9827 1.33333 8.30078 1.33333C4.61888 1.33333 1.63411 4.3181 1.63411 8C1.63411 11.6819 4.61888 14.6667 8.30078 14.6667ZM8.30078 16C12.7191 16 16.3008 12.4183 16.3008 8C16.3008 3.58172 12.7191 0 8.30078 0C3.8825 0 0.300781 3.58172 0.300781 8C0.300781 12.4183 3.8825 16 8.30078 16Z" fill="url(#paint0_linear_1898_6696)"/>
<path d="M12.4442 6.19528L10.5262 7.6219L8.53338 4.13481C8.48213 4.04499 8.39179 4 8.30108 4C8.21056 4 8.11985 4.04499 8.06843 4.13481L6.07563 7.6219L4.15764 6.19528C3.9557 6.04512 3.67645 6.23277 3.73823 6.47632L4.47028 9.35633L4.95487 9.64791L4.60634 9.89199L4.82738 10.7615C4.85756 10.8801 4.96451 10.9633 5.087 10.9633H11.5148C11.6373 10.9633 11.7442 10.8801 11.7744 10.7615L11.9955 9.89199L11.7826 9.62416L12.1315 9.35633L12.8636 6.47632C12.9255 6.23224 12.6458 6.04547 12.4442 6.19528Z" fill="url(#paint1_linear_1898_6696)"/>
<path d="M9.21557 8.43665L8.42984 7.12711C8.37886 7.04225 8.29226 7 8.20548 7C8.11852 7 8.0314 7.0426 7.98076 7.12711L7.19504 8.43665C7.14527 8.51959 7.14527 8.6233 7.19504 8.70624L7.98076 10.0158C8.03174 10.1006 8.1187 10.1429 8.20548 10.1429C8.29226 10.1427 8.37921 10.1001 8.42984 10.0158L9.21557 8.70624C9.26533 8.6233 9.26533 8.51959 9.21557 8.43665Z" fill="#231538"/>
<defs>
<linearGradient id="paint0_linear_1898_6696" x1="8.30078" y1="0" x2="8.30078" y2="16" gradientUnits="userSpaceOnUse">
<stop stop-color="#FADD6D"/>
<stop offset="0.505208" stop-color="#F8CC46"/>
<stop offset="1" stop-color="#F2B43F"/>
</linearGradient>
<linearGradient id="paint1_linear_1898_6696" x1="8.30078" y1="0" x2="8.30078" y2="16" gradientUnits="userSpaceOnUse">
<stop stop-color="#FADD6D"/>
<stop offset="0.505208" stop-color="#F8CC46"/>
<stop offset="1" stop-color="#F2B43F"/>
</linearGradient>
</defs>
</svg>
