<svg width="12" height="14" viewBox="0 0 12 14" fill="none" xmlns="http://www.w3.org/2000/svg">
<path d="M6.00032 6.99967C5.26699 6.99967 4.66699 6.39967 4.66699 5.66634C4.66699 4.93301 5.26699 4.33301 6.00032 4.33301C6.73366 4.33301 7.33366 4.93301 7.33366 5.66634C7.33366 6.39967 6.73366 6.99967 6.00032 6.99967ZM10.0003 5.79967C10.0003 3.37967 8.23366 1.66634 6.00032 1.66634C3.76699 1.66634 2.00033 3.37967 2.00033 5.79967C2.00033 7.35967 3.30032 9.42634 6.00032 11.893C8.70032 9.42634 10.0003 7.35967 10.0003 5.79967ZM6.00032 0.333008C8.80032 0.333008 11.3337 2.47967 11.3337 5.79967C11.3337 8.01301 9.55366 10.633 6.00032 13.6663C2.44699 10.633 0.666992 8.01301 0.666992 5.79967C0.666992 2.47967 3.20033 0.333008 6.00032 0.333008Z" fill="#3E85C8"/>
</svg>
