<svg width="65" height="34" viewBox="0 0 65 34" fill="none" xmlns="http://www.w3.org/2000/svg">
<rect x="32" y="0.989502" width="32" height="32" rx="16" fill="#AA4FE3"/>
<path d="M54.9308 10.7329C53.6561 10.1574 52.2892 9.73338 50.8599 9.49052C50.8339 9.48583 50.8079 9.49755 50.7945 9.52097C50.6187 9.82864 50.4239 10.23 50.2876 10.5455C48.7503 10.319 47.221 10.319 45.7153 10.5455C45.5789 10.223 45.3771 9.82864 45.2005 9.52097C45.1871 9.49833 45.1611 9.48662 45.135 9.49052C43.7066 9.7326 42.3396 10.1566 41.0641 10.7329C41.0531 10.7376 41.0436 10.7454 41.0373 10.7556C38.4445 14.5671 37.7342 18.2849 38.0827 21.9567C38.0842 21.9747 38.0945 21.9918 38.1087 22.0028C39.8193 23.2389 41.4764 23.9894 43.1027 24.4868C43.1288 24.4946 43.1563 24.4852 43.1729 24.4641C43.5576 23.9472 43.9005 23.4021 44.1946 22.8289C44.2119 22.7954 44.1954 22.7555 44.1599 22.7423C43.6159 22.5392 43.098 22.2917 42.5998 22.0106C42.5604 21.9879 42.5572 21.9325 42.5935 21.9059C42.6983 21.8286 42.8032 21.7482 42.9033 21.667C42.9214 21.6521 42.9466 21.649 42.9679 21.6584C46.2411 23.1288 49.7846 23.1288 53.0191 21.6584C53.0404 21.6482 53.0657 21.6514 53.0846 21.6662C53.1847 21.7474 53.2895 21.8286 53.3952 21.9059C53.4314 21.9325 53.4291 21.9879 53.3897 22.0106C52.8914 22.2971 52.3735 22.5392 51.8288 22.7415C51.7933 22.7548 51.7775 22.7954 51.7949 22.8289C52.0952 23.4013 52.4381 23.9464 52.8157 24.4633C52.8315 24.4852 52.8599 24.4946 52.8859 24.4868C54.5201 23.9894 56.1772 23.2389 57.8879 22.0028C57.9028 21.9918 57.9123 21.9754 57.9139 21.9575C58.3309 17.7125 57.2154 14.0252 54.9568 10.7563C54.9513 10.7454 54.9419 10.7376 54.9308 10.7329ZM44.6834 19.721C43.6979 19.721 42.8859 18.8308 42.8859 17.7375C42.8859 16.6443 43.6822 15.7541 44.6834 15.7541C45.6924 15.7541 46.4965 16.6521 46.4807 17.7375C46.4807 18.8308 45.6845 19.721 44.6834 19.721ZM51.329 19.721C50.3435 19.721 49.5316 18.8308 49.5316 17.7375C49.5316 16.6443 50.3278 15.7541 51.329 15.7541C52.338 15.7541 53.1421 16.6521 53.1264 17.7375C53.1264 18.8308 52.338 19.721 51.329 19.721Z" fill="white"/>
<rect x="32" y="0.989502" width="32" height="32" rx="16" stroke="#1F163A" stroke-width="1.5"/>
<rect x="21.667" y="0.989502" width="32" height="32" rx="16" fill="#E34F4F"/>
<path d="M44.5978 10.7329C43.3231 10.1574 41.9561 9.73338 40.5269 9.49052C40.5009 9.48583 40.4749 9.49755 40.4615 9.52097C40.2857 9.82864 40.0909 10.23 39.9546 10.5455C38.4173 10.319 36.888 10.319 35.3823 10.5455C35.2459 10.223 35.0441 9.82864 34.8675 9.52097C34.8541 9.49833 34.8281 9.48662 34.802 9.49052C33.3736 9.7326 32.0066 10.1566 30.7311 10.7329C30.7201 10.7376 30.7106 10.7454 30.7043 10.7556C28.1115 14.5671 27.4012 18.2849 27.7496 21.9567C27.7512 21.9747 27.7615 21.9918 27.7757 22.0028C29.4863 23.2389 31.1434 23.9894 32.7697 24.4868C32.7958 24.4946 32.8233 24.4852 32.8399 24.4641C33.2246 23.9472 33.5675 23.4021 33.8616 22.8289C33.8789 22.7954 33.8623 22.7555 33.8269 22.7423C33.2829 22.5392 32.765 22.2917 32.2668 22.0106C32.2274 21.9879 32.2242 21.9325 32.2605 21.9059C32.3653 21.8286 32.4702 21.7482 32.5703 21.667C32.5884 21.6521 32.6136 21.649 32.6349 21.6584C35.9081 23.1288 39.4516 23.1288 42.6861 21.6584C42.7074 21.6482 42.7327 21.6514 42.7516 21.6662C42.8517 21.7474 42.9565 21.8286 43.0622 21.9059C43.0984 21.9325 43.0961 21.9879 43.0567 22.0106C42.5584 22.2971 42.0405 22.5392 41.4958 22.7415C41.4603 22.7548 41.4445 22.7954 41.4619 22.8289C41.7622 23.4013 42.1051 23.9464 42.4827 24.4633C42.4985 24.4852 42.5269 24.4946 42.5529 24.4868C44.1871 23.9894 45.8442 23.2389 47.5549 22.0028C47.5698 21.9918 47.5793 21.9754 47.5809 21.9575C47.9979 17.7125 46.8824 14.0252 44.6238 10.7563C44.6183 10.7454 44.6089 10.7376 44.5978 10.7329ZM34.3503 19.721C33.3649 19.721 32.5529 18.8308 32.5529 17.7375C32.5529 16.6443 33.3492 15.7541 34.3503 15.7541C35.3594 15.7541 36.1635 16.6521 36.1477 17.7375C36.1477 18.8308 35.3515 19.721 34.3503 19.721ZM40.9959 19.721C40.0105 19.721 39.1986 18.8308 39.1986 17.7375C39.1986 16.6443 39.9948 15.7541 40.9959 15.7541C42.005 15.7541 42.8091 16.6521 42.7934 17.7375C42.7934 18.8308 42.005 19.721 40.9959 19.721Z" fill="white"/>
<rect x="21.667" y="0.989502" width="32" height="32" rx="16" stroke="#1F163A" stroke-width="1.5"/>
<rect x="11.333" y="0.989502" width="32" height="32" rx="16" fill="#4FD1E3"/>
<path d="M34.2639 10.7329C32.9891 10.1574 31.6222 9.73338 30.1929 9.49052C30.1669 9.48583 30.1409 9.49755 30.1275 9.52097C29.9517 9.82864 29.757 10.23 29.6206 10.5455C28.0833 10.319 26.554 10.319 25.0483 10.5455C24.9119 10.223 24.7101 9.82864 24.5335 9.52097C24.5201 9.49833 24.4941 9.48662 24.4681 9.49052C23.0396 9.7326 21.6726 10.1566 20.3971 10.7329C20.3861 10.7376 20.3766 10.7454 20.3703 10.7556C17.7775 14.5671 17.0672 18.2849 17.4157 21.9567C17.4172 21.9747 17.4275 21.9918 17.4417 22.0028C19.1523 23.2389 20.8094 23.9894 22.4357 24.4868C22.4618 24.4946 22.4893 24.4852 22.5059 24.4641C22.8906 23.9472 23.2335 23.4021 23.5276 22.8289C23.5449 22.7954 23.5284 22.7555 23.4929 22.7423C22.949 22.5392 22.431 22.2917 21.9328 22.0106C21.8934 21.9879 21.8902 21.9325 21.9265 21.9059C22.0313 21.8286 22.1362 21.7482 22.2363 21.667C22.2544 21.6521 22.2797 21.649 22.301 21.6584C25.5741 23.1288 29.1176 23.1288 32.3521 21.6584C32.3734 21.6482 32.3987 21.6514 32.4176 21.6662C32.5177 21.7474 32.6226 21.8286 32.7282 21.9059C32.7644 21.9325 32.7621 21.9879 32.7227 22.0106C32.2244 22.2971 31.7065 22.5392 31.1618 22.7415C31.1263 22.7548 31.1105 22.7954 31.1279 22.8289C31.4282 23.4013 31.7711 23.9464 32.1488 24.4633C32.1645 24.4852 32.1929 24.4946 32.2189 24.4868C33.8531 23.9894 35.5102 23.2389 37.2209 22.0028C37.2359 21.9918 37.2453 21.9754 37.2469 21.9575C37.6639 17.7125 36.5484 14.0252 34.2899 10.7563C34.2843 10.7454 34.2749 10.7376 34.2639 10.7329ZM24.0164 19.721C23.0309 19.721 22.219 18.8308 22.219 17.7375C22.219 16.6443 23.0152 15.7541 24.0164 15.7541C25.0254 15.7541 25.8295 16.6521 25.8137 17.7375C25.8137 18.8308 25.0175 19.721 24.0164 19.721ZM30.662 19.721C29.6766 19.721 28.8646 18.8308 28.8646 17.7375C28.8646 16.6443 29.6608 15.7541 30.662 15.7541C31.671 15.7541 32.4751 16.6521 32.4594 17.7375C32.4594 18.8308 31.671 19.721 30.662 19.721Z" fill="white"/>
<rect x="11.333" y="0.989502" width="32" height="32" rx="16" stroke="#1F163A" stroke-width="1.5"/>
<rect x="1" y="0.989502" width="32" height="32" rx="16" fill="#2CAD6D"/>
<path d="M23.9308 10.7329C22.6561 10.1574 21.2892 9.73338 19.8599 9.49052C19.8339 9.48583 19.8079 9.49755 19.7945 9.52097C19.6187 9.82864 19.4239 10.23 19.2876 10.5455C17.7503 10.319 16.221 10.319 14.7153 10.5455C14.5789 10.223 14.3771 9.82864 14.2005 9.52097C14.1871 9.49833 14.1611 9.48662 14.135 9.49052C12.7066 9.7326 11.3396 10.1566 10.0641 10.7329C10.0531 10.7376 10.0436 10.7454 10.0373 10.7556C7.44449 14.5671 6.73421 18.2849 7.08265 21.9567C7.08423 21.9747 7.09447 21.9918 7.10867 22.0028C8.81934 23.2389 10.4764 23.9894 12.1027 24.4868C12.1288 24.4946 12.1563 24.4852 12.1729 24.4641C12.5576 23.9472 12.9005 23.4021 13.1946 22.8289C13.2119 22.7954 13.1954 22.7555 13.1599 22.7423C12.6159 22.5392 12.098 22.2917 11.5998 22.0106C11.5604 21.9879 11.5572 21.9325 11.5935 21.9059C11.6983 21.8286 11.8032 21.7482 11.9033 21.667C11.9214 21.6521 11.9466 21.649 11.9679 21.6584C15.2411 23.1288 18.7846 23.1288 22.0191 21.6584C22.0404 21.6482 22.0657 21.6514 22.0846 21.6662C22.1847 21.7474 22.2895 21.8286 22.3952 21.9059C22.4314 21.9325 22.4291 21.9879 22.3897 22.0106C21.8914 22.2971 21.3735 22.5392 20.8288 22.7415C20.7933 22.7548 20.7775 22.7954 20.7949 22.8289C21.0952 23.4013 21.4381 23.9464 21.8157 24.4633C21.8315 24.4852 21.8599 24.4946 21.8859 24.4868C23.5201 23.9894 25.1772 23.2389 26.8879 22.0028C26.9028 21.9918 26.9123 21.9754 26.9139 21.9575C27.3309 17.7125 26.2154 14.0252 23.9568 10.7563C23.9513 10.7454 23.9419 10.7376 23.9308 10.7329ZM13.6834 19.721C12.6979 19.721 11.8859 18.8308 11.8859 17.7375C11.8859 16.6443 12.6822 15.7541 13.6834 15.7541C14.6924 15.7541 15.4965 16.6521 15.4807 17.7375C15.4807 18.8308 14.6845 19.721 13.6834 19.721ZM20.329 19.721C19.3435 19.721 18.5316 18.8308 18.5316 17.7375C18.5316 16.6443 19.3278 15.7541 20.329 15.7541C21.338 15.7541 22.1421 16.6521 22.1264 17.7375C22.1264 18.8308 21.338 19.721 20.329 19.721Z" fill="white"/>
<rect x="1" y="0.989502" width="32" height="32" rx="16" stroke="#1F163A" stroke-width="1.5"/>
</svg>
