<svg width="56" height="56" viewBox="0 0 56 56" fill="none" xmlns="http://www.w3.org/2000/svg">
<circle cx="28" cy="28" r="27" fill="#231538" stroke="#5B506D" stroke-width="2"/>
<path opacity="0.3" d="M39.0894 17.9895C37.0498 17.0686 34.8626 16.3902 32.5759 16.0016C32.5342 15.9941 32.4926 16.0129 32.4712 16.0504C32.1899 16.5426 31.8783 17.1848 31.6601 17.6896C29.2005 17.3273 26.7536 17.3273 24.3444 17.6896C24.1262 17.1736 23.8033 16.5426 23.5208 16.0504C23.4993 16.0141 23.4577 15.9954 23.4161 16.0016C21.1305 16.389 18.9434 17.0674 16.9026 17.9895C16.8849 17.997 16.8698 18.0095 16.8597 18.0257C12.7112 24.1242 11.5747 30.0727 12.1322 35.9475C12.1348 35.9762 12.1512 36.0037 12.1739 36.0212C14.9109 37.999 17.5623 39.1998 20.1644 39.9956C20.206 40.0081 20.2501 39.9931 20.2766 39.9594C20.8922 39.1323 21.4409 38.2602 21.9113 37.3431C21.9391 37.2894 21.9126 37.2257 21.8558 37.2044C20.9855 36.8796 20.1568 36.4835 19.3596 36.0337C19.2966 35.9975 19.2915 35.9087 19.3495 35.8663C19.5173 35.7426 19.6851 35.6139 19.8453 35.4839C19.8743 35.4602 19.9146 35.4552 19.9487 35.4702C25.1857 37.8229 30.8554 37.8229 36.0306 35.4702C36.0647 35.454 36.1051 35.459 36.1353 35.4827C36.2955 35.6126 36.4633 35.7426 36.6323 35.8663C36.6903 35.9087 36.6865 35.9975 36.6235 36.0337C35.8263 36.4922 34.9976 36.8796 34.126 37.2032C34.0693 37.2244 34.044 37.2894 34.0718 37.3431C34.5523 38.2589 35.101 39.131 35.7052 39.9582C35.7304 39.9931 35.7758 40.0081 35.8175 39.9956C38.4322 39.1998 41.0835 37.999 43.8206 36.0212C43.8446 36.0037 43.8597 35.9775 43.8622 35.9488C44.5294 29.1568 42.7447 23.2571 39.131 18.0269C39.1221 18.0095 39.107 17.997 39.0894 17.9895ZM22.6934 32.3704C21.1167 32.3704 19.8175 30.946 19.8175 29.1968C19.8175 27.4476 21.0915 26.0233 22.6934 26.0233C24.3078 26.0233 25.5944 27.4601 25.5692 29.1968C25.5692 30.946 24.2952 32.3704 22.6934 32.3704ZM33.3263 32.3704C31.7497 32.3704 30.4505 30.946 30.4505 29.1968C30.4505 27.4476 31.7244 26.0233 33.3263 26.0233C34.9408 26.0233 36.2274 27.4601 36.2022 29.1968C36.2022 30.946 34.9408 32.3704 33.3263 32.3704Z" fill="#DFDAE7"/>
</svg>
