<svg width="511" height="223" viewBox="0 0 511 223" fill="none" xmlns="http://www.w3.org/2000/svg">
<path d="M0 12.9895C0 6.36209 5.37258 0.989502 12 0.989502H498.938C505.566 0.989502 510.938 6.36208 510.938 12.9895V210.493C510.938 217.121 505.566 222.493 498.938 222.493H12C5.37258 222.493 0 217.121 0 210.493V12.9895Z" fill="url(#paint0_linear_19486_88581)"/>
<mask id="mask0_19486_88581" style="mask-type:alpha" maskUnits="userSpaceOnUse" x="0" y="0" width="511" height="223">
<path d="M0 12.9895C0 6.36209 5.37258 0.989502 12 0.989502H498.938C505.566 0.989502 510.938 6.36208 510.938 12.9895V210.493C510.938 217.121 505.566 222.493 498.938 222.493H12C5.37258 222.493 0 217.121 0 210.493V12.9895Z" fill="url(#paint1_linear_19486_88581)"/>
</mask>
<g mask="url(#mask0_19486_88581)">
<path opacity="0.5" fill-rule="evenodd" clip-rule="evenodd" d="M3.78718 71.0931C0.412863 75.9569 -6.77955 75.9569 -10.1539 71.0931L-65.435 -8.59094C-69.3381 -14.2169 -65.3118 -21.9105 -58.4645 -21.9105L52.0978 -21.9105C58.9451 -21.9105 62.9713 -14.2169 59.0683 -8.59095L3.78718 71.0931ZM73.9574 181.015C70.5831 185.879 63.3907 185.879 60.0164 181.015L4.73519 101.331C0.83216 95.7049 4.85844 88.0113 11.7057 88.0113L122.268 88.0113C129.115 88.0113 133.142 95.7049 129.239 101.331L73.9574 181.015ZM117.803 -32.4732C121.177 -37.337 128.369 -37.337 131.744 -32.4732L187.025 47.2108C190.928 52.8368 186.902 60.5304 180.054 60.5304L69.492 60.5304C62.6447 60.5304 58.6184 52.8368 62.5215 47.2108L117.803 -32.4732ZM146.191 290.936C142.817 295.8 135.624 295.8 132.25 290.936L76.9687 211.252C73.0657 205.626 77.092 197.932 83.9393 197.932L194.502 197.932C201.349 197.932 205.375 205.626 201.472 211.252L146.191 290.936ZM203.976 77.4479C200.601 72.5841 193.409 72.5841 190.035 77.4479L134.753 157.132C130.85 162.758 134.877 170.451 141.724 170.451L252.286 170.451C259.134 170.451 263.16 162.758 259.257 157.132L203.976 77.4479ZM274.146 187.369C270.772 182.505 263.579 182.505 260.205 187.369L204.924 267.053C201.021 272.679 205.047 280.373 211.894 280.373L322.456 280.373C329.304 280.373 333.33 272.679 329.427 267.053L274.146 187.369ZM251.024 71.0931C247.65 75.9569 240.458 75.9569 237.083 71.0931L181.802 -8.59089C177.899 -14.2169 181.925 -21.9105 188.773 -21.9105L299.335 -21.9105C306.182 -21.9105 310.209 -14.2169 306.306 -8.59093L251.024 71.0931ZM321.195 181.015C317.82 185.879 310.628 185.879 307.254 181.015L251.972 101.331C248.069 95.7049 252.096 88.0113 258.943 88.0113L369.505 88.0113C376.353 88.0113 380.379 95.7049 376.476 101.331L321.195 181.015ZM365.04 -32.4732C368.414 -37.337 375.607 -37.337 378.981 -32.4732L434.262 47.2108C438.165 52.8368 434.139 60.5304 427.292 60.5304L316.729 60.5304C309.882 60.5304 305.856 52.8368 309.759 47.2108L365.04 -32.4732ZM393.428 290.936C390.054 295.8 382.861 295.8 379.487 290.936L324.206 211.252C320.303 205.626 324.329 197.932 331.176 197.932L441.739 197.932C448.586 197.932 452.612 205.626 448.709 211.252L393.428 290.936ZM451.213 77.4479C447.839 72.5841 440.646 72.5841 437.272 77.4479L381.991 157.132C378.088 162.758 382.114 170.451 388.961 170.451L499.524 170.451C506.371 170.451 510.397 162.758 506.494 157.132L451.213 77.4479ZM521.383 187.369C518.009 182.505 510.816 182.505 507.442 187.369L452.161 267.053C448.258 272.679 452.284 280.373 459.131 280.373L569.694 280.373C576.541 280.373 580.567 272.679 576.664 267.053L521.383 187.369Z" fill="url(#paint2_linear_19486_88581)"/>
</g>
<defs>
<linearGradient id="paint0_linear_19486_88581" x1="46.4587" y1="50.5468" x2="99.3091" y2="273.446" gradientUnits="userSpaceOnUse">
<stop stop-color="#D92779"/>
<stop offset="1" stop-color="#7C277E"/>
</linearGradient>
<linearGradient id="paint1_linear_19486_88581" x1="46.4587" y1="50.5468" x2="99.3091" y2="273.446" gradientUnits="userSpaceOnUse">
<stop stop-color="#D92779"/>
<stop offset="1" stop-color="#7C277E"/>
</linearGradient>
<linearGradient id="paint2_linear_19486_88581" x1="270.374" y1="264.513" x2="565.092" y2="71.2388" gradientUnits="userSpaceOnUse">
<stop stop-color="#7C277E"/>
<stop offset="1" stop-color="#D92779"/>
</linearGradient>
</defs>
</svg>
