<svg width="47" height="61" viewBox="0 0 47 61" fill="none" xmlns="http://www.w3.org/2000/svg">
<path d="M28.7751 56.5668C30.3884 53.6923 35.8488 47.2799 45.1564 46.6165C44.7841 51.5917 40.3165 55.9035 28.7751 56.5668Z" fill="white"/>
<path d="M28.7751 60.5986C29.94 59.19 34.1918 56.7109 41.8801 58.0632C40.8608 59.4718 36.8129 61.9509 28.7751 60.5986Z" fill="white"/>
<path d="M17.8543 60.5986C16.6894 59.19 12.4375 56.7109 4.74925 58.0632C5.76853 59.4718 9.81652 61.9509 17.8543 60.5986Z" fill="white"/>
<path d="M17.8543 56.5668C16.241 53.6923 10.7805 47.2799 1.47299 46.6165C1.84529 51.5917 6.31292 55.9035 17.8543 56.5668Z" fill="white"/>
<path fill-rule="evenodd" clip-rule="evenodd" d="M23.2836 0.989502L10.2347 19.4838C9.19463 15.1709 8.86358 8.34471 9.48483 1.84013C7.32333 4.30402 4.78358 14.3238 4.35128 17.171C4.08795 18.9053 4.57985 22.1836 5.04533 25.2858C5.11021 25.7182 5.17458 26.1472 5.23632 26.5681L0.666992 33.0442L23.287 57.2525L46.5493 33.0483L42.5119 27.4849C42.6028 26.7785 42.7055 26.0373 42.8096 25.2858C43.2392 22.1836 43.6933 18.9053 43.4502 17.171C43.0512 14.3238 40.7068 4.30402 38.7116 1.84013C39.3486 9.06584 38.9009 16.6885 37.6763 20.8217L23.2836 0.989502ZM7.7394 32.5489L23.3458 10.4298L39.3951 32.5448L23.3424 49.2474L7.7394 32.5489Z" fill="white"/>
<path d="M14.0319 31.5576L23.9991 18.9767L33.6895 31.5576L23.9991 43.2997L14.0319 31.5576Z" fill="white"/>
</svg>
