<svg width="335" height="81" viewBox="0 0 335 81" fill="none" xmlns="http://www.w3.org/2000/svg">
<path fill-rule="evenodd" clip-rule="evenodd" d="M21.8444 6.41602L33 23.1302L21.846 35.7493L11 23.1281L21.8444 6.41602ZM21.8742 11.3301L14.385 22.8718L21.8726 31.585L29.5761 22.8696L21.8742 11.3301Z" fill="#B6B1BF"/>
<path d="M17.4068 22.3537L22.1876 15.7924L26.8356 22.3537L22.1876 28.4777L17.4068 22.3537Z" fill="#B6B1BF"/>
<rect x="83.5" y="24" width="26" height="4" rx="2" transform="rotate(180 83.5 24)" fill="#292044"/>
<path fill-rule="evenodd" clip-rule="evenodd" d="M118.831 6.41602L130.917 23.2206L118.833 35.9079L107.083 23.2185L118.831 6.41602ZM118.864 11.3567L110.75 22.9607L118.862 31.721L127.207 22.9586L118.864 11.3567Z" fill="#B6B1BF"/>
<path d="M114.024 22.4399L119.203 15.843L124.239 22.4399L119.203 28.597L114.024 22.4399Z" fill="#B6B1BF"/>
<path d="M124.276 34.7471C122.586 34.889 122.191 35.5031 120.266 36.6372C120.587 36.8262 122.03 37.5827 123.474 37.5827C124.917 37.5827 127.643 34.7471 127.643 34.7471C127.643 34.7471 125.965 34.6053 124.276 34.7471Z" fill="#B6B1BF"/>
<path d="M113.265 34.7471C115.02 34.889 115.43 35.5031 117.429 36.6372C117.096 36.8262 115.597 37.5827 114.098 37.5827C112.599 37.5827 109.768 34.7471 109.768 34.7471C109.768 34.7471 111.511 34.6053 113.265 34.7471Z" fill="#B6B1BF"/>
<rect x="180.5" y="24" width="26" height="4" rx="2" transform="rotate(180 180.5 24)" fill="#292044"/>
<path d="M218.685 37.3796C219.29 36.6479 221.5 35.3601 225.495 36.0626C224.965 36.7943 222.861 38.0821 218.685 37.3796Z" fill="#B6B1BF"/>
<path d="M213.01 37.3796C212.405 36.6479 210.196 35.3601 206.201 36.0626C206.73 36.7943 208.834 38.0821 213.01 37.3796Z" fill="#B6B1BF"/>
<path d="M213.01 35.2852C212.172 33.7918 209.335 30.4604 204.498 30.1157C204.692 32.7004 207.013 34.9405 213.01 35.2852Z" fill="#B6B1BF"/>
<path fill-rule="evenodd" clip-rule="evenodd" d="M215.831 6.41602L227.917 23.0657L215.833 35.6362L204.083 23.0636L215.831 6.41602ZM215.864 11.3112L207.75 22.8083L215.862 31.4879L224.207 22.8062L215.864 11.3112Z" fill="#B6B1BF"/>
<path d="M211.024 22.2922L216.203 15.7562L221.239 22.2922L216.203 28.3926L211.024 22.2922Z" fill="#B6B1BF"/>
<path d="M218.685 35.2852C219.523 33.7918 222.361 30.4604 227.197 30.1157C227.004 32.7004 224.682 34.9405 218.685 35.2852Z" fill="#B6B1BF"/>
<rect x="277.5" y="24" width="26" height="4" rx="2" transform="rotate(180 277.5 24)" fill="#292044"/>
<path d="M315.684 35.2854C316.522 33.7922 319.358 30.4613 324.193 30.1167C324 32.701 321.679 34.9408 315.684 35.2854Z" fill="#B6B1BF"/>
<path d="M315.684 37.3796C316.289 36.648 318.498 35.3602 322.491 36.0626C321.962 36.7943 319.859 38.0821 315.684 37.3796Z" fill="#B6B1BF"/>
<path d="M310.011 37.3796C309.406 36.648 307.197 35.3602 303.204 36.0626C303.733 36.7943 305.836 38.0821 310.011 37.3796Z" fill="#B6B1BF"/>
<path d="M310.011 35.2854C309.173 33.7922 306.337 30.4613 301.502 30.1167C301.695 32.701 304.016 34.9408 310.011 35.2854Z" fill="#B6B1BF"/>
<path fill-rule="evenodd" clip-rule="evenodd" d="M312.831 6.41602L306.053 16.0228C305.513 13.7825 305.341 10.2366 305.664 6.85787C304.541 8.13772 303.222 13.3424 302.997 14.8214C302.86 15.7223 303.116 17.4252 303.358 19.0366C303.391 19.2612 303.425 19.484 303.457 19.7027L301.083 23.0667L312.833 35.6415L324.917 23.0688L322.819 20.1789C322.867 19.812 322.92 19.427 322.974 19.0366C323.197 17.4252 323.433 15.7223 323.307 14.8214C323.1 13.3424 321.882 8.13772 320.845 6.85787C321.176 10.6112 320.944 14.5707 320.308 16.7178L312.831 6.41602ZM304.757 22.8094L312.864 11.3197L321.2 22.8073L312.862 31.4833L304.757 22.8094Z" fill="#B6B1BF"/>
<path d="M308.026 22.2944L313.203 15.7594L318.237 22.2944L313.203 28.3938L308.026 22.2944Z" fill="#B6B1BF"/>
<path d="M22 49V69H115.5" stroke="#B6B1BF" stroke-width="2"/>
<path d="M124.816 61.8V70.2C124.816 72.32 126.216 73.16 128.336 73.16H128.496C130.616 73.16 132.016 72.32 132.016 70.2V61.8C132.016 59.68 130.616 58.84 128.496 58.84H128.336C126.216 58.84 124.816 59.66 124.816 61.8ZM127.136 69.84V62.16C127.136 61.16 127.656 60.88 128.416 60.88C129.176 60.88 129.696 61.16 129.696 62.16V69.84C129.696 70.84 129.176 71.12 128.416 71.12C127.656 71.12 127.136 70.84 127.136 69.84ZM137.559 59H133.939V73H136.259V67.58H137.559C139.679 67.58 141.079 66.74 141.079 64.62V61.96C141.079 59.84 139.679 59 137.559 59ZM138.759 64.26C138.759 65.26 138.239 65.54 137.479 65.54H136.259V61.04H137.479C138.239 61.04 138.759 61.32 138.759 62.32V64.26ZM148.753 73V70.96H144.873V66.92H148.073V64.88H144.873V61.04H148.693V59H142.553V73H148.753ZM152.505 73V63.9L155.565 73H157.765V59H155.645V67.66L152.705 59H150.385V73H152.505ZM168.863 70.92H165.283V59H162.963V73H168.863V70.92ZM176.311 73V70.96H172.431V66.92H175.631V64.88H172.431V61.04H176.251V59H170.111V73H176.311ZM182.903 73H185.263L182.623 59H179.703L177.103 73H179.343L179.843 69.88H182.403L182.903 73ZM180.143 67.96L181.123 61.74L182.103 67.96H180.143ZM193.423 65.8H189.743V67.76H191.103V69.84C191.103 70.84 190.583 71.12 189.823 71.12C189.063 71.12 188.543 70.84 188.543 69.84V62.16C188.543 61.16 189.063 60.88 189.823 60.88C190.583 60.88 191.103 61.16 191.103 62.16V63.8H193.423V61.8C193.423 59.72 192.023 58.84 189.903 58.84H189.743C187.623 58.84 186.223 59.72 186.223 61.8V70.2C186.223 72.38 187.623 73.16 189.743 73.16H189.903C192.023 73.16 193.423 72.36 193.423 70.2V65.8ZM202.307 59H199.987V69.84C199.987 70.84 199.547 71.12 198.787 71.12C198.027 71.12 197.587 70.84 197.587 69.84V59H195.267V70.2C195.267 72.38 196.627 73.16 198.747 73.16H198.827C200.947 73.16 202.307 72.36 202.307 70.2V59ZM210.471 73V70.96H206.591V66.92H209.791V64.88H206.591V61.04H210.411V59H204.271V73H210.471Z" fill="#B6B1BF"/>
<path d="M313 49V69H219.5" stroke="#B6B1BF" stroke-width="2"/>
</svg>
