<svg width="32" height="33" viewBox="0 0 32 33" fill="none" xmlns="http://www.w3.org/2000/svg">
<rect y="0.989502" width="32" height="32" rx="16" fill="#2CAD6D"/>
<path d="M11.5639 10.347C11.5558 10.3533 11.5496 10.3601 11.5422 10.3663C11.5875 10.3184 11.6528 10.2668 11.6958 10.2388C12.9482 9.42481 14.3953 8.9895 16.0009 8.9895C17.5027 8.9895 18.9094 9.40429 20.1102 10.1257C20.1973 10.1773 20.4348 10.3402 20.5573 10.4882V10.4888C19.3988 9.21151 15.9935 11.9521 15.9935 11.9521C14.8157 11.0441 13.7324 10.4254 12.9258 10.2053C12.2517 10.0206 11.7853 10.1748 11.5639 10.347ZM21.8695 11.5547C21.834 11.5155 21.7955 11.4788 21.76 11.4384C21.4671 11.1169 21.1071 11.0392 20.7825 11.0603C20.4871 11.153 19.1221 11.6449 17.4399 13.2331C17.4399 13.2331 19.3335 15.0745 20.4933 16.9569C21.6518 18.8392 22.3446 20.3187 21.9186 22.3721C23.2115 20.9511 24 19.0631 24 16.9898C24 14.8916 23.1922 12.9819 21.8695 11.5547ZM18.979 17.7609C18.4654 17.1845 17.7011 16.3586 16.6918 15.3549C16.4711 15.1354 16.2379 14.9066 15.9928 14.6696C15.9928 14.6696 15.6241 15.0384 15.144 15.5235V15.5228C14.5296 16.1435 13.733 16.9531 13.2908 17.4257C12.5036 18.2659 10.248 20.9045 10.1212 22.3839C10.1212 22.3839 9.61934 21.2104 10.7207 18.5041C11.4402 16.7348 13.6142 14.0782 14.5221 13.2126C14.5221 13.2126 13.6926 12.2997 12.6516 11.6691L12.6453 11.6673C12.6453 11.6673 12.6335 11.6579 12.6149 11.6461C12.1143 11.3476 11.5676 11.1175 11.0415 11.0871C10.5043 11.125 10.1641 11.518 10.1641 11.518C8.82149 12.9495 8 14.8736 8 16.9904C8 21.4088 11.582 24.9914 16.0009 24.9914C18.346 24.9914 20.456 23.9802 21.9199 22.3727C21.9192 22.3702 21.7513 21.3155 20.6749 19.8025C20.4218 19.4481 19.4971 18.3417 18.979 17.7609Z" fill="white"/>
</svg>
