<svg width="160" height="160" viewBox="0 0 160 160" fill="none" xmlns="http://www.w3.org/2000/svg">
<rect width="160" height="160" rx="80" fill="#F4D8E9"/>
<path d="M73.1669 93.6429C73.1669 91.0138 73.5584 88.5268 74.3414 86.1819C75.1956 83.766 76.726 80.9947 78.9327 77.8682C81.4953 74.2443 83.2392 71.1178 84.1646 68.4887C85.09 65.8596 85.5526 63.0884 85.5526 60.1751C85.5526 57.617 85.0544 55.7695 84.0578 54.6326C83.0613 53.4246 81.602 52.8207 79.6801 52.8207C77.7582 52.8207 76.2989 53.4246 75.3024 54.6326C74.3058 55.7695 73.8076 57.617 73.8076 60.1751V68.2755H62.7031V60.9212C62.7031 54.8813 64.1624 50.2626 67.0808 47.065C69.9993 43.7964 74.2702 42.1621 79.8937 42.1621C85.5882 42.1621 89.8948 43.7964 92.8132 47.065C95.8029 50.2626 97.2977 54.8813 97.2977 60.9212C97.2977 64.1898 96.6927 67.3518 95.4826 70.4073C94.3437 73.3916 92.3505 76.7669 89.5033 80.5329C87.2254 83.5883 85.6238 86.1464 84.6985 88.207C83.8443 90.1966 83.4172 92.1507 83.4172 94.0692V98.1195H73.1669V93.6429ZM72.6331 106.54H83.951V117.838H72.6331V106.54Z" fill="#C84461"/>
</svg>
