<svg width="17" height="17" viewBox="0 0 17 17" fill="none" xmlns="http://www.w3.org/2000/svg">
<g clip-path="url(#clip0_1898_6684)">
<path d="M2.0332 9.83332C2.0332 13.5093 5.02393 16.5 8.69987 16.5C12.3758 16.5 15.3665 13.5093 15.3665 9.83332C15.3665 7.96662 14.5736 6.18472 13.2135 4.92903C12.4883 4.25946 12.1353 4.12173 12.1353 4.12173C11.8688 3.96125 11.5915 3.82372 11.3079 3.70263C11.3439 3.52668 11.3665 3.34732 11.3665 3.16666C11.3665 -0.271698 6.0332 -0.271698 6.0332 3.16666C6.0332 3.34732 6.05583 3.52668 6.0918 3.7023C5.80827 3.82339 5.53125 3.96093 5.26449 4.12125L4.1862 4.9287C2.8265 6.18358 2.0332 7.96597 2.0332 9.83332ZM13.9902 9.16666H13.3665C12.9985 9.16666 12.6999 9.46532 12.6999 9.83332C12.6999 10.2013 12.9985 10.5 13.3665 10.5H13.9868C13.6846 12.9077 11.7743 14.818 9.36654 15.1203V14.5C9.36654 14.132 9.06787 13.8333 8.69987 13.8333C8.33187 13.8333 8.0332 14.132 8.0332 14.5V15.1203C5.62549 14.818 3.71517 12.9077 3.41292 10.5H4.0332C4.4012 10.5 4.69987 10.2013 4.69987 9.83332C4.69987 9.46532 4.4012 9.16666 4.0332 9.16666H3.40951C3.59391 7.71727 4.37126 6.38606 5.56657 5.51724C6.04655 5.17105 6.57113 4.90835 7.12614 4.73697C7.42155 4.64566 7.72591 4.58397 8.03288 4.54572V5.16666C8.03288 5.53466 8.33154 5.83332 8.69954 5.83332C9.06755 5.83332 9.36621 5.53466 9.36621 5.16666V4.54572C9.67318 4.58397 9.97721 4.64566 10.2725 4.73697C10.8273 4.90835 11.3529 5.17105 11.8309 5.51594C13.0282 6.38606 13.8058 7.71727 13.9902 9.16666ZM10.0332 3.16666C10.0332 3.21125 10.0313 3.25569 10.0265 3.29931C9.59147 3.21125 9.14714 3.16666 8.69987 3.16666C8.2526 3.16666 7.80827 3.21125 7.37321 3.29931C7.36849 3.25569 7.36654 3.21125 7.36654 3.16666C7.36654 1.44742 10.0332 1.44742 10.0332 3.16666Z" fill="white"/>
<path d="M10.2284 7.36218L8.22839 9.36218C7.96814 9.6226 7.96814 10.0445 8.22839 10.3049C8.35844 10.4353 8.52901 10.5002 8.69975 10.5002C8.87048 10.5002 9.04106 10.4353 9.1711 10.3049L11.1711 8.30489C11.4314 8.04447 11.4314 7.6226 11.1711 7.36218C10.911 7.10193 10.4885 7.10193 10.2284 7.36218Z" fill="white"/>
</g>
<defs>
<clipPath id="clip0_1898_6684">
<rect width="16" height="16" fill="white" transform="translate(0.700195 0.5)"/>
</clipPath>
</defs>
</svg>
