<svg width="80" height="46" viewBox="0 0 80 46" fill="none" xmlns="http://www.w3.org/2000/svg">
<g clip-path="url(#clip0_20065_5620)">
<path d="M-5.49609 -0.112305V45.3835H85.4956V-0.112305H-5.49609Z" fill="#012169"/>
<path d="M-5.49609 -0.112305L85.4956 45.3835L-5.49609 -0.112305ZM85.4956 -0.112305L-5.49609 45.3794L85.4956 -0.112305Z" fill="black"/>
<path d="M83.4624 49.4527L39.9999 27.7194L-3.46263 49.4527L-7.5293 41.3069L29.8249 22.6319L-7.5293 3.95687L-3.46263 -4.18896L39.9999 17.5444L83.4624 -4.18896L87.529 3.95687L50.1749 22.6319L87.529 41.3069L83.4624 49.4527Z" fill="white"/>
<path d="M-5.49609 -0.112305L85.4956 45.3835L-5.49609 -0.112305ZM85.4956 -0.112305L-5.49609 45.3794L85.4956 -0.112305Z" fill="black"/>
<path d="M84.1372 48.0939L39.9997 26.0189L-4.13783 48.0939L-6.85449 42.6648L33.2205 22.6314L-6.85449 2.59811L-4.13783 -2.83105L39.9997 19.2439L84.1372 -2.83105L86.8539 2.59811L46.7789 22.6314L86.8539 42.6648L84.1372 48.0939Z" fill="#C8102E"/>
<path d="M39.9997 -0.112305V45.3835V-0.112305ZM-5.49609 22.6335H85.4956H-5.49609Z" fill="black"/>
<path d="M47.5831 45.3794H32.4164V30.2169H-5.49609V15.0502H32.4164V-0.112305H47.5831V15.0502H85.4956V30.2169H47.5831V45.3794Z" fill="white"/>
<path d="M39.9997 -0.112305V45.3835V-0.112305ZM-5.49609 22.6335H85.4956H-5.49609Z" fill="black"/>
<path d="M44.5497 45.3794H35.4497V27.1835H-5.49609V18.0835H35.4497V-0.112305H44.5497V18.0835H85.4956V27.1835H44.5497V45.3794Z" fill="#C8102E"/>
</g>
<defs>
<clipPath id="clip0_20065_5620">
<path d="M0 2.13232C0 1.02775 0.895431 0.132324 2 0.132324H78C79.1046 0.132324 80 1.02775 80 2.13232V43.1323C80 44.2369 79.1046 45.1323 78 45.1323H2C0.895429 45.1323 0 44.2369 0 43.1323V2.13232Z" fill="white"/>
</clipPath>
</defs>
</svg>
