<svg width="33" height="32" viewBox="0 0 33 32" fill="none" xmlns="http://www.w3.org/2000/svg">
<g clip-path="url(#clip0_1516_3906)">
<g clip-path="url(#clip1_1516_3906)">
<path d="M-1.34766 6.75928V24.9576H35.049V6.75928H-1.34766Z" fill="#012169"/>
<path d="M-1.34766 6.75928L35.049 24.9576L-1.34766 6.75928ZM35.049 6.75928L-1.34766 24.9559L35.049 6.75928Z" fill="black"/>
<path d="M34.2365 26.5853L16.8515 17.892L-0.533489 26.5853L-2.16016 23.327L12.7815 15.857L-2.16016 8.387L-0.533489 5.12866L16.8515 13.822L34.2365 5.12866L35.8632 8.387L20.9215 15.857L35.8632 23.327L34.2365 26.5853Z" fill="white"/>
<path d="M-1.34766 6.75928L35.049 24.9576L-1.34766 6.75928ZM35.049 6.75928L-1.34766 24.9559L35.049 6.75928Z" fill="black"/>
<path d="M34.5061 26.0416L16.851 17.2116L-0.803958 26.0416L-1.89062 23.87L14.1394 15.8566L-1.89062 7.8433L-0.803958 5.67163L16.851 14.5016L34.5061 5.67163L35.5927 7.8433L19.5627 15.8566L35.5927 23.87L34.5061 26.0416Z" fill="#C8102E"/>
<path d="M16.8507 6.75928V24.9576V6.75928ZM-1.34766 15.8576H35.049H-1.34766Z" fill="black"/>
<path d="M19.884 24.9559H13.8173V18.8909H-1.34766V12.8243H13.8173V6.75928H19.884V12.8243H35.049V18.8909H19.884V24.9559Z" fill="white"/>
<path d="M16.8507 6.75928V24.9576V6.75928ZM-1.34766 15.8576H35.049H-1.34766Z" fill="black"/>
<path d="M18.6707 24.9559H15.0307V17.6776H-1.34766V14.0376H15.0307V6.75928H18.6707V14.0376H35.049V17.6776H18.6707V24.9559Z" fill="#C8102E"/>
</g>
</g>
<defs>
<clipPath id="clip0_1516_3906">
<rect width="32" height="32" fill="white" transform="translate(0.851562)"/>
</clipPath>
<clipPath id="clip1_1516_3906">
<path d="M0.851562 11.2109C0.851562 8.80641 2.8008 6.85718 5.2053 6.85718H28.4978C30.9023 6.85718 32.8516 8.80641 32.8516 11.2109V20.5034C32.8516 22.9079 30.9023 24.8572 28.4978 24.8572H5.2053C2.8008 24.8572 0.851562 22.9079 0.851562 20.5034V11.2109Z" fill="white"/>
</clipPath>
</defs>
</svg>
