<svg width="240" height="240" viewBox="0 0 240 240" fill="none" xmlns="http://www.w3.org/2000/svg">
<path d="M120 240C186.274 240 240 186.274 240 120C240 53.7258 186.274 0 120 0C53.7258 0 0 53.7258 0 120C0 186.274 53.7258 240 120 240Z" fill="#433558"/>
<path d="M239.156 121.007C239.111 120.62 239.059 120.232 239.009 119.845C238.996 119.746 238.994 119.54 238.871 119.511C238.745 119.501 238.618 119.52 238.501 119.568C237.793 120.288 237.055 120.985 236.404 121.767C236.025 122.229 235.735 122.773 235.249 123.128C234.823 123.43 234.307 123.578 233.785 123.55C233.106 123.525 232.435 123.508 231.77 123.724C231.618 123.795 231.457 123.845 231.292 123.871C230.826 123.851 230.477 123.408 230.278 123.02C230.131 122.708 230.152 122.334 230.131 121.989C230.102 121.6 230.072 121.213 230.035 120.824C230.035 120.488 229.969 120.123 229.675 119.919C228.707 119.303 228.847 122.07 227.82 120.552C227.401 120.047 227.445 119.356 227.178 118.784C226.895 118.185 226.427 117.711 225.96 117.26C225.606 116.904 225.226 116.574 224.823 116.273C224.505 115.832 224.264 115.326 223.981 114.857C223.797 114.528 223.592 114.198 223.436 113.852C223.305 113.558 223.386 113.166 223.451 112.868C223.508 112.596 223.579 112.184 223.892 112.111C224.594 111.967 225.315 111.948 226.024 112.054C226.742 112.131 226.954 112.658 227.292 113.203C227.713 113.842 228.13 114.481 228.539 115.126C228.834 115.646 229.171 116.225 229.789 116.394C230.379 116.583 231.012 116.609 231.532 116.97C231.779 117.141 231.94 117.4 232.178 117.578C232.431 117.76 232.692 117.929 232.962 118.083C233.816 118.569 234.801 118.737 235.75 118.921C236.46 118.991 237.04 118.48 237.664 118.22C238.884 117.571 239.507 117.804 239.993 119.104C239.72 81.7325 222.367 48.4257 195.35 26.6007C195.35 26.9601 195.284 27.3489 195.631 27.6199C195.763 27.6933 195.899 27.7568 196.039 27.8099C196.195 27.8833 196.33 27.9941 196.433 28.1323C196.536 28.2705 196.603 28.4319 196.629 28.6022C196.652 28.7548 196.663 28.9089 196.661 29.0632C196.681 29.1888 196.661 29.3174 196.605 29.4314C196.439 29.6774 196.126 29.67 195.857 29.6022C195.034 29.5109 193.908 28.9778 193.304 29.7849C193.096 30.0065 192.854 30.193 192.586 30.3371C192.122 30.6111 191.823 31.0294 191.481 31.4226C191.373 31.5392 191.287 31.6751 191.228 31.8232C191.109 32.1914 191.468 32.5419 191.78 32.8085C192.025 33.0147 192.369 33.2503 192.327 33.564C192.306 33.6952 192.249 33.8177 192.161 33.917C192.073 34.0163 191.958 34.088 191.83 34.1237C191.536 34.2061 191.265 34.0382 190.986 33.941C190.338 33.7157 189.661 33.5463 189.028 33.293C188.562 33.1354 188.184 32.782 187.681 32.7481C187.446 32.6847 187.131 32.7113 187.026 32.9528C186.93 33.2253 186.717 33.5095 186.751 33.8041C186.871 34.2017 187.326 34.4359 187.665 34.6583C187.928 34.8075 188.219 34.9026 188.519 34.9381C188.814 34.9499 189.195 35.0176 189.368 35.2768C189.577 35.6421 189.212 36.0029 188.842 36.0132C188.685 36.0086 188.53 35.9894 188.377 35.9558C187.767 35.8792 187.138 35.6907 186.692 35.2592C186.245 34.8276 185.5 34.9926 185.053 34.6052C184.849 34.3858 184.812 34.0971 184.665 33.8453C184.525 33.5594 184.347 33.2938 184.135 33.0559C184.022 32.9466 183.929 32.8191 183.858 32.6789C183.711 32.321 183.84 31.9425 183.784 31.5787C183.749 31.3847 183.668 31.2021 183.548 31.046C183.427 30.8899 183.271 30.7651 183.092 30.6818C182.602 30.4182 182.001 30.3519 181.536 30.05C181.164 29.7068 180.572 29.5448 180.298 29.128C181.394 29.153 182.412 29.6258 183.472 29.8644C185.553 30.3327 187.759 30.9469 189.885 30.4535C190.335 30.3519 190.835 30.237 191.148 29.9587C191.709 29.4653 192.179 28.8379 192.215 28.0809C192.256 27.6817 191.986 27.4063 191.702 27.153C191.442 26.8629 191.145 26.6084 190.818 26.396C190.631 26.2889 190.434 26.1996 190.229 26.1294C189.799 25.9674 189.493 25.6552 189.079 25.4623C188.44 25.1677 187.696 25.2045 187.053 24.9129C186.571 24.7259 186.157 24.4579 185.705 24.234C184.562 23.7067 183.418 23.1559 182.17 22.9085C181.364 22.7766 180.545 22.7419 179.73 22.8054C179.206 22.8614 178.676 22.833 178.161 22.7215C177.996 22.6714 178.023 22.5653 178.069 22.4667C178.234 22.1633 177.995 22.0042 177.717 21.9011C177.385 21.7818 177.047 21.5948 176.686 21.639C176.462 21.6728 176.34 21.8216 176.166 21.9158C176.005 22.0065 175.823 22.0532 175.639 22.0513C175.397 22.0513 175.172 21.9541 174.932 21.9291C174.679 21.9065 174.425 21.9104 174.173 21.9409C173.89 21.9851 173.505 21.8834 173.332 21.6463C173.298 21.5918 173.244 21.5079 173.279 21.4504C173.406 21.3208 173.652 21.3886 173.82 21.3547C174.312 21.3194 174.672 21.0351 175.074 20.8024C175.222 20.7155 175.399 20.6434 175.307 20.4769C175.216 20.3105 174.977 20.2663 174.795 20.2015C174.55 20.1132 174.298 20.0351 174.045 19.9644C173.558 19.826 173.061 19.714 172.572 19.6051C172.357 19.5697 172.13 19.4578 171.923 19.5373C171.743 19.5807 171.579 19.6747 171.45 19.8083C171.372 19.904 171.203 20.1029 171.049 19.9276C171.006 19.8573 170.991 19.7729 171.008 19.692C171.017 19.594 171.017 19.4954 171.008 19.3974C170.96 19.1029 170.566 18.8554 170.153 18.8687C169.971 18.8747 169.795 18.9275 169.64 19.0219C169.485 19.1164 169.357 19.2493 169.269 19.4077C169.211 19.5756 169.231 19.7582 169.097 19.9114C169.038 19.9636 168.967 19.9987 168.89 20.013C168.792 20.0425 168.753 20.0602 168.672 19.9968C168.631 19.9561 168.6 19.9054 168.584 19.8495C168.544 19.7538 168.478 19.6718 168.392 19.6134C168.307 19.5551 168.206 19.523 168.102 19.5211C167.93 19.5049 167.774 19.5388 167.693 19.3974C167.652 19.2797 167.596 19.1678 167.527 19.0646C167.429 18.9633 167.298 18.901 167.158 18.8893C167.094 18.8839 167.03 18.8933 166.97 18.9168C166.91 18.9403 166.856 18.9772 166.812 19.0248C166.46 19.3341 165.817 19.3562 165.468 19.6993C165.459 19.7096 165.447 19.7302 165.435 19.7361C165.408 19.7426 165.38 19.7461 165.351 19.7465C164.796 19.8201 164.397 20.1971 163.817 20.2516C163.834 20.1677 163.827 20.0292 163.714 20.016C163.555 19.9929 163.394 19.9875 163.233 19.9998C162.454 19.9998 162.792 20.3694 162.904 20.8584C162.167 20.8245 161.521 21.0631 160.871 21.2722C160.771 21.3208 160.577 21.3091 160.552 21.4372C160.531 21.543 160.547 21.6527 160.597 21.7479C160.644 21.8466 160.744 21.9792 160.643 22.0764C160.575 22.1471 160.437 22.1382 160.332 22.1368C159.929 22.1779 159.529 22.2413 159.133 22.3267L159.177 22.2649H159.135C159.223 21.8672 159.135 21.692 158.693 21.6669C158.602 21.6669 158.398 21.7244 158.429 21.8142C158.505 21.9794 158.604 22.1327 158.724 22.2693H158.681C158.7 22.2944 158.719 22.3179 158.74 22.3415C158.264 22.3135 157.79 22.4696 157.515 22.8555C157.494 22.8861 157.476 22.9187 157.462 22.9527C157.462 22.9527 157.462 22.9424 157.462 22.9394C157.124 22.9394 156.746 22.8938 156.422 23.0101C156.029 23.1574 155.806 23.6272 156.051 23.9527C156.177 24.0765 156.328 24.1737 156.493 24.2384C156.934 24.4387 156.68 24.6699 156.359 24.804C156.206 24.8928 156.028 24.928 155.853 24.9041C155.755 24.8864 155.665 24.8496 155.559 24.8319C155.236 24.7627 154.909 24.8555 154.59 24.8511C154.442 24.8275 154.313 24.7171 154.333 24.5978C154.407 24.4315 154.49 24.2693 154.581 24.1117C154.632 23.9836 154.821 23.8084 154.603 23.7318C154.571 23.7185 154.536 23.7133 154.501 23.7167C154.467 23.72 154.433 23.7318 154.404 23.7509C154.143 23.9365 153.887 24.1235 153.629 24.3135C153.438 24.4608 153.248 24.5992 153.062 24.7465C152.981 24.8098 152.874 24.8746 152.88 24.9719C152.899 25.0561 152.946 25.1314 153.014 25.1854C153.456 25.6066 152.943 25.6773 152.759 26.0101C153.322 26.0315 153.885 25.9724 154.431 25.8349C154.931 25.723 155.522 25.6876 156.009 25.8643C155.89 25.9517 155.756 26.0184 155.615 26.0617C155.323 26.1937 155.014 26.282 154.697 26.3238C154.428 26.3474 154.219 26.4711 154.354 26.7657C154.361 26.801 154.354 26.7995 154.31 26.8187C154.118 26.9144 153.827 26.991 153.736 27.1707C153.627 27.3828 153.814 27.6125 153.706 27.8276C153.599 28.0426 153.358 28.1516 153.235 28.3401C153.183 28.4284 153.223 28.5271 153.205 28.6199C153.188 28.7068 153.146 28.787 153.085 28.8511C152.79 29.1206 152.251 29.1693 152.02 29.5183C151.895 29.7024 151.872 29.9248 151.725 30.0986C151.578 30.2723 151.42 30.4756 151.386 30.7024C151.386 30.8658 151.331 31.0243 151.23 31.1531C151.083 31.3003 150.788 31.3003 150.674 31.48C150.652 31.526 150.64 31.5764 150.64 31.6273C150.64 31.6782 150.652 31.7286 150.674 31.7746C150.769 32.0302 150.778 32.3102 150.699 32.5714C150.506 32.9469 150.484 33.3696 150.329 33.7613C150.272 33.8596 150.195 33.945 150.103 34.0122C150.011 34.0794 149.907 34.1268 149.796 34.1516C149.535 34.2297 149.18 34.2577 148.995 34.4462C148.963 34.484 148.939 34.5279 148.924 34.5752C148.909 34.6225 148.904 34.6723 148.909 34.7216C148.906 34.8185 148.886 34.9141 148.85 35.0044C148.755 35.2297 148.513 35.321 148.292 35.4462C147.623 35.8414 147.094 36.4369 146.781 37.1487C146.478 37.8056 145.98 37.8203 145.344 37.7128C145.205 37.6981 145.006 37.645 144.872 37.6995C144.738 37.754 144.651 37.8748 144.712 37.9941C144.772 38.1134 144.911 38.1546 144.961 38.271C144.982 38.3149 144.993 38.363 144.993 38.4116C144.993 38.4603 144.982 38.5084 144.961 38.5523C144.911 38.6436 144.825 38.6406 144.724 38.6583C144.148 38.7511 143.735 39.2474 143.124 39.2474C143.09 39.2404 143.054 39.2404 143.02 39.2475C142.985 39.2545 142.953 39.2686 142.924 39.2887L142.242 39.6937L141.8 39.9617C141.672 40.0398 141.525 40.0898 141.534 40.2401C141.554 40.3372 141.554 40.4375 141.534 40.5346C141.395 40.8439 140.978 40.8292 140.693 40.8881C139.999 41.0236 139.566 41.2106 139.578 41.9824C139.364 42.6731 139.675 43.436 139.323 44.0928C139.306 44.1129 139.295 44.1372 139.29 44.1631C139.286 44.189 139.289 44.2156 139.298 44.2401C139.403 44.5499 139.571 44.8347 139.791 45.0767C140.051 45.4145 140.275 45.7776 140.461 46.1606C140.722 46.5848 140.497 46.9309 140.154 47.2254C140.033 47.3178 139.921 47.4219 139.821 47.5362C139.798 47.5727 139.783 47.6136 139.777 47.6563C139.771 47.6989 139.775 47.7423 139.787 47.7836C139.802 47.8776 139.851 47.9626 139.925 48.0222C140.057 48.0897 140.196 48.1393 140.341 48.1695C140.531 48.2299 140.919 48.3403 140.819 48.5966C140.672 48.8573 140.358 49.0193 140.182 49.2652C140.128 49.3518 140.099 49.4511 140.096 49.5528C140.094 49.6545 140.119 49.7551 140.168 49.844C140.298 50.0605 140.551 50.1828 140.749 50.3359C141.504 50.8293 142.389 51.3021 143.294 51.4273C143.824 51.3122 144.348 51.1647 144.861 50.9854C145.106 50.8924 145.337 50.7665 145.548 50.6113C146.006 50.2299 146.274 49.6997 146.791 49.3786C147.369 48.9869 148.223 48.8838 148.593 48.2549C148.619 48.2092 148.626 48.1975 148.685 48.193C148.868 48.193 149.002 48.3683 149.157 48.4493C149.268 48.5218 149.359 48.6207 149.423 48.737C149.487 48.8534 149.522 48.9837 149.523 49.1165C149.545 49.4172 149.603 49.7141 149.699 50.0001C149.814 50.2741 149.98 50.5303 150.077 50.8131C150.174 51.0959 150.154 51.3831 150.261 51.6555C150.358 51.9259 150.485 52.1847 150.638 52.4273C151.132 53.2181 151.64 54.0223 152.267 54.7219C152.469 54.9678 152.217 55.2609 152.163 55.5186C152.147 55.5977 152.122 55.6747 152.089 55.7484C152.074 55.7749 152.089 55.7719 152.061 55.7808C151.672 55.7745 151.286 55.8481 150.927 55.9971C150.568 56.146 150.243 56.3672 149.973 56.6468C149.688 57.0577 150.082 57.4376 150.33 57.744C150.423 57.8298 150.481 57.9457 150.495 58.0709C150.495 58.1711 150.463 58.2771 150.341 58.2889C149.423 58.3331 149.257 57.146 148.497 56.8736C148.445 56.8515 148.404 56.847 148.383 56.794C148.31 56.5996 148.406 56.3124 148.491 56.1328C148.638 55.7896 148.981 55.5702 149.323 55.4361C149.346 55.4267 149.367 55.4122 149.383 55.3937C149.4 55.3752 149.413 55.3532 149.42 55.3293C149.427 55.3055 149.428 55.2803 149.424 55.2557C149.42 55.2311 149.411 55.2077 149.397 55.1872C149.266 54.9545 148.955 54.8927 148.75 54.7248C148.592 54.6013 148.481 54.4271 148.436 54.2314C148.33 53.7071 148.78 53.2623 148.772 52.7469C148.782 52.6833 148.779 52.6184 148.764 52.556C148.748 52.4935 148.72 52.4349 148.682 52.3834C148.643 52.3319 148.595 52.2887 148.539 52.2562C148.484 52.2238 148.422 52.2028 148.358 52.1946C148.212 52.2077 148.067 52.2329 147.924 52.2697C147.14 52.6158 146.537 53.2638 145.734 53.5834C145.607 53.6438 145.46 53.6644 145.338 53.7307C145.25 53.7988 145.193 53.8988 145.179 54.009C145.179 54.7321 144.603 55.3964 144.821 56.1269C144.849 56.1923 144.874 56.2592 144.896 56.3272C144.917 56.4421 144.808 56.5658 144.765 56.6688C144.567 57.1446 144.987 57.4052 145.252 57.7175C145.327 57.8476 145.377 57.9904 145.4 58.1387C145.566 58.7661 145.796 59.3802 145.889 60.0253C145.924 60.2757 145.958 60.5113 145.833 60.7455C145.654 61.0813 145.204 61.5099 144.763 61.4377C144.45 61.3676 144.129 61.3398 143.809 61.3552C143.12 61.4274 142.554 61.8618 141.883 62.0106C141.225 62.1251 140.587 62.3308 139.987 62.6218C139.483 62.8457 138.934 63.0636 138.612 63.5364C138.229 64.1137 138.127 64.8133 137.79 65.4186C137.455 66.0578 136.852 66.4613 136.26 66.8752C136.008 67.0558 135.742 67.2154 135.464 67.3523C135.17 67.4878 134.855 67.6071 134.616 67.8177C134.355 68.046 134.258 68.342 134.174 68.6587C133.912 69.8516 133.067 69.7279 132.154 70.1005C131.911 70.2144 131.707 70.3953 131.564 70.6219C131.081 71.401 129.93 71.0888 129.318 70.6646C129.201 70.5914 129.068 70.5479 128.93 70.538C128.685 70.4864 128.395 70.5188 128.239 70.7397C128.149 70.8546 128.177 70.94 128.209 71.0696C128.295 71.4172 128.395 71.7618 128.461 72.1153C128.481 72.2307 128.456 72.3492 128.391 72.4467C128.326 72.5441 128.226 72.6131 128.112 72.6396C127.624 72.7306 127.122 72.7166 126.639 72.5984C126.177 72.4113 125.7 72.3038 125.202 72.4393C124.841 72.5188 124.485 72.6219 124.128 72.7338C123.539 72.8723 123.084 72.9945 123.31 73.7648C123.457 74.6013 123.843 74.7957 124.645 74.8429C124.958 74.8959 125.234 75.0608 125.522 75.1713C126.349 75.3863 127.012 75.6131 127.302 76.4968C127.394 76.7555 127.525 76.9985 127.691 77.217C127.856 77.4313 128.055 77.6174 128.28 77.7678C128.513 77.9151 128.772 78.0226 128.934 78.2582C129.265 78.7943 129.025 79.4674 129.022 80.058C128.966 80.812 128.903 81.5675 128.818 82.3231C128.743 82.8348 128.589 83.3317 128.361 83.7958C128.143 84.0904 127.756 84.3349 127.377 84.2774C127.221 84.2465 127.083 84.1817 126.916 84.1596C126.257 84.0639 125.572 84.2745 124.927 84.0624C124.79 84.002 124.647 83.9561 124.501 83.9254C124.159 83.8842 123.835 84.0477 123.498 84.0904C123.149 84.1319 122.795 84.124 122.448 84.0668C121.729 83.9578 121.05 83.706 120.318 83.6648C119.953 83.6454 119.586 83.6741 119.228 83.7502C118.918 83.8111 118.597 83.7804 118.304 83.6618C117.522 83.4085 116.582 83.5337 116.025 84.195C115.834 84.4026 115.558 84.3879 115.306 84.4733C114.925 84.5897 114.485 84.8253 114.504 85.2775C114.547 85.416 114.61 85.5475 114.691 85.6677C115 86.2409 115.104 86.9023 114.985 87.5426C114.966 87.61 114.966 87.6814 114.985 87.7488C115.28 88.9962 115.111 90.3188 114.651 91.5088C114.392 92.1848 114.021 92.8121 113.747 93.4837C113.63 93.768 113.502 94.0729 113.626 94.3762C113.773 94.6472 114.022 94.8431 114.167 95.1126C114.479 95.6143 114.637 96.1965 114.622 96.7872C114.601 97.095 114.532 97.416 114.689 97.7003C114.714 97.764 114.754 97.8209 114.805 97.8663C114.856 97.9116 114.918 97.9441 114.984 97.961C115.611 98.1745 116.268 98.4028 116.927 98.1834C117.873 98.011 118.463 98.0788 118.956 98.9551C119.305 99.4426 119.573 100.105 120.212 100.254C120.84 100.446 121.377 100.007 121.893 99.7136C123.304 98.7342 124.201 98.9404 125.775 98.9065C126.417 98.8196 127.173 98.9698 127.709 98.5309C127.919 98.3351 128.064 98.0714 128.298 97.9006C129.214 97.2747 129.673 97.6532 130.099 96.3586C130.284 95.9221 130.547 95.5229 130.875 95.1804C131.078 94.9757 131.376 94.7724 131.382 94.4528C131.368 94.2996 131.297 94.1572 131.183 94.0537C130.201 92.8666 131.235 91.8843 132.086 91.0389C132.675 90.4498 133.189 89.7267 134 89.4454C134.209 89.3867 134.421 89.3415 134.635 89.3099C135.38 88.9918 136.148 88.5014 136.402 87.6898C136.567 87.0477 136.528 86.3644 136.675 85.7222C136.732 85.1331 137.046 84.5602 137.619 84.3319C138.192 84.1036 138.782 84.3526 139.366 84.382C140.008 84.4645 140.66 84.5779 141.23 84.8931C141.359 84.9786 141.495 85.0544 141.635 85.1199C141.827 85.1846 142.035 85.1912 142.23 85.1388C142.426 85.0864 142.603 84.9773 142.737 84.8253C143.133 84.3745 143.603 83.9945 144.127 83.7016C144.407 83.5535 144.699 83.4327 145.002 83.3408C145.3 83.2255 145.564 83.0383 145.772 82.7958C145.965 82.5916 146.207 82.4399 146.474 82.3551C146.742 82.2703 147.027 82.2552 147.302 82.3113C147.875 82.4146 148.408 82.674 148.843 83.0609C149.32 83.5337 149.538 84.1847 149.884 84.7487C149.962 84.9147 150.056 85.0725 150.166 85.22C150.576 85.5617 150.992 85.896 151.4 86.2406C151.944 86.6906 152.458 87.1762 152.939 87.6943C153.346 88.1585 153.841 88.5383 154.395 88.8121C154.964 89.0846 155.599 89.1479 156.163 89.4233C156.839 89.7532 157.409 90.251 158.063 90.6192C158.124 90.6456 158.176 90.691 158.21 90.7488C158.408 91.0628 158.679 91.3249 158.999 91.5132C159.26 91.6766 159.569 91.7783 159.809 91.9697C160.089 92.1906 160.195 92.55 160.323 92.8711C160.463 93.2172 160.605 93.5706 160.719 93.927C160.805 94.1921 160.681 94.4528 160.579 94.6944C160.397 95.1362 160.119 95.4749 159.652 95.6252C159.31 95.7145 158.963 95.779 158.612 95.8181C157.495 96.0036 156.361 96.1553 155.224 96.067C155.061 96.0457 154.896 96.0571 154.737 96.1003C154.578 96.1435 154.429 96.2178 154.3 96.3188C154.152 96.4661 154.052 96.8431 154.264 96.9875C154.908 97.3703 155.574 97.7145 156.258 98.0184C156.956 98.3483 157.659 98.6723 158.36 98.9949C158.493 99.0567 158.655 99.1657 158.802 99.1598C158.924 99.1515 159.04 99.108 159.138 99.0346C159.243 98.9415 159.319 98.8204 159.357 98.6856C159.435 98.526 159.475 98.3506 159.473 98.1731C159.459 97.8505 159.304 97.5177 159.384 97.1966C159.417 97.0736 159.479 96.9603 159.564 96.8658C159.65 96.7714 159.756 96.6985 159.875 96.6531C160.141 96.5471 160.423 96.6149 160.699 96.5663C160.95 96.5278 161.179 96.4033 161.348 96.2143C161.768 95.6252 162.102 94.9727 162.478 94.3527C162.653 94.0493 162.821 93.7636 162.761 93.3954C162.7 93.0272 162.479 92.8195 162.281 92.5485C162.082 92.2775 162.116 91.9123 162.182 91.6074C162.205 91.4872 162.256 91.3738 162.329 91.2757C162.402 91.1776 162.497 91.0973 162.606 91.0407C162.714 90.9841 162.834 90.9527 162.957 90.9488C163.079 90.945 163.201 90.9687 163.313 91.0183C163.693 91.1936 163.996 91.5294 164.337 91.7679C164.389 91.8159 164.45 91.8552 164.515 91.8843C164.626 91.902 164.741 91.8779 164.836 91.8166C165.039 91.6928 165.12 91.3526 165.116 91.1332C165.118 91.0165 165.088 90.9014 165.029 90.8011C164.969 90.7008 164.882 90.6194 164.778 90.5662C164.5 90.4189 164.23 90.2554 163.965 90.0875C163.172 89.5809 162.392 89.0212 161.491 88.7193C161.235 88.6324 160.92 88.6059 160.719 88.4086C160.556 88.2495 160.528 88.0345 160.494 87.8195C160.438 87.4807 160.085 87.4277 159.799 87.3776C159.191 87.301 158.546 87.2966 158.032 86.9181C157.532 86.5384 157.092 86.0851 156.728 85.5735C156.546 85.3099 156.434 85.0079 156.257 84.7414C155.69 83.97 154.975 83.3191 154.154 82.8268C152.992 82.2229 153.155 81.4541 153.261 80.3363C153.329 79.8444 153.939 79.7472 154.325 79.5808C154.584 79.4983 154.858 79.3436 155.086 79.5808C155.162 79.7125 155.208 79.8593 155.222 80.0108C155.314 80.4217 155.389 80.9608 155.836 81.1345C155.965 81.1557 156.097 81.1501 156.224 81.1183C156.602 81.0918 156.892 81.3879 157.255 81.4261C157.393 81.4208 157.532 81.4242 157.669 81.4365C157.952 81.5027 158.086 81.7133 158.174 81.9652C158.27 82.2339 158.407 82.4863 158.579 82.7133C159.102 83.4144 159.905 83.8327 160.625 84.2966C161.155 84.6441 161.744 84.9623 162.392 84.9711C162.612 85.0904 162.799 85.2833 163.02 85.4129C163.275 85.5926 163.591 85.6324 163.887 85.6987C164.853 86.0345 165.465 86.9328 166.194 87.6C166.412 87.8106 166.605 88.0036 166.625 88.3202C166.625 88.6766 166.602 89.0345 166.625 89.3924C166.597 90.2142 166.541 91.1273 167.322 91.6472C167.412 91.712 167.585 91.7945 167.571 91.9226C167.527 92.0523 167.512 92.19 167.527 92.3261C167.582 92.5487 167.722 92.741 167.917 92.8622C168.291 93.1036 168.643 93.3776 168.968 93.6811C169.086 93.7901 169.222 93.8946 169.328 94.0139C169.393 94.0876 169.404 94.2348 169.45 94.3291C169.501 94.428 169.56 94.5222 169.628 94.6104C169.88 94.9433 170.256 95.2761 170.285 95.7165C170.277 95.7131 170.271 95.7075 170.266 95.7005C170.261 95.6934 170.259 95.6852 170.259 95.6767C170.259 95.6944 170.27 95.7518 170.235 95.7327C170.235 95.8637 170.257 95.9992 170.263 96.1274C170.281 96.1598 170.263 96.1274 170.289 96.1465H170.357C170.348 96.1465 170.332 96.1701 170.337 96.1465C170.328 96.2305 170.326 96.3424 170.326 96.4308C170.316 96.4976 170.316 96.5657 170.326 96.6325C170.564 96.7788 170.79 96.9422 171.004 97.1215C171.33 97.3936 171.565 97.759 171.677 98.1686C171.696 98.2725 171.74 98.3702 171.805 98.4533C171.87 98.5364 171.955 98.6025 172.051 98.6458C172.529 98.8857 173.05 99.0275 173.584 99.0626C173.902 99.0965 174.683 99.0832 174.384 98.5736C174.12 97.9551 174.809 97.5029 174.836 96.9168C174.836 96.8166 174.829 96.8004 174.932 96.7695C175.035 96.7386 175.097 96.7695 175.189 96.7872C175.295 96.8015 175.402 96.798 175.506 96.7769C175.801 96.7179 176.06 96.5397 176.34 96.4278C176.44 96.4012 176.538 96.3682 176.634 96.3291C176.83 96.2143 176.7 95.9492 176.634 95.7901C176.568 95.5974 176.483 95.4115 176.381 95.2349C176.272 95.0473 176.131 94.8799 175.966 94.74C175.597 94.4455 175.1 94.3438 174.817 93.9418C174.284 93.2643 173.786 92.5603 173.288 91.8563C173.206 91.763 173.149 91.6513 173.12 91.5306C173.091 91.41 173.092 91.2842 173.123 91.1641C173.2 90.8872 173.418 90.8696 173.606 91.0596C173.927 91.3335 174.264 91.6487 174.72 91.6339C175.78 91.5721 175.487 89.924 176.25 89.9829C176.46 90.0404 176.681 90.1464 176.905 90.0772C177.013 90.0351 177.112 89.9748 177.2 89.899C177.502 89.6825 177.89 89.6575 178.251 89.6928C178.854 89.7061 179.491 90.0434 179.645 90.6619C179.772 91.5969 179.713 92.5479 179.472 93.4602C179.388 93.8063 179.807 93.9639 180.086 93.9329C180.217 93.9329 180.348 93.9212 180.48 93.9153C180.681 93.8902 181.011 93.8593 181.019 94.1435C181.089 94.4749 180.805 94.7135 180.516 94.8019C180.263 94.8917 179.471 94.9639 179.562 95.3762C179.575 95.4197 179.597 95.4598 179.627 95.4937C179.657 95.5276 179.694 95.5544 179.736 95.5721C180.107 95.7577 180.487 95.9285 180.864 96.1023C180.995 96.1612 181.284 96.2629 181.281 96.4426C181.281 96.5633 181.166 96.659 181.114 96.7592C181.03 96.9182 181.153 96.9786 181.279 97.0537C181.582 97.2171 181.852 97.4348 182.076 97.6959C182.235 98.0089 182.462 98.2822 182.74 98.4956C183.08 98.7695 183.43 99.1495 183.91 99.0655C184.129 99.0189 184.352 98.9898 184.577 98.9787C184.787 98.9877 184.993 99.0409 185.182 99.1348C185.37 99.2287 185.537 99.3611 185.671 99.5236C185.835 99.701 186.031 99.8464 186.248 99.9522C186.664 100.223 187.1 100.048 187.559 100.005C187.985 99.9585 188.387 99.7851 188.714 99.5074C188.876 99.3601 188.989 99.1598 189.182 99.0376C189.771 98.6944 190.515 98.9433 191.085 99.2099C191.527 99.4058 191.845 99.799 192.263 100.03C193.106 100.428 194.107 100.232 194.939 99.9021C195.344 99.7272 195.712 99.4773 196.023 99.1657C196.439 98.6826 196.701 98.6723 197.287 98.8711C197.798 98.9993 198.327 98.9551 198.845 98.9993C198.428 100.095 198.894 101.208 198.908 102.328C198.847 103.823 198.132 105.189 197.596 106.558C197.475 106.888 197.381 107.227 197.315 107.572C197.182 108.231 196.802 108.801 196.38 109.306C196.184 109.54 195.964 109.786 195.656 109.859C195.488 109.887 195.317 109.898 195.147 109.892C194.237 109.927 193.307 110.007 192.416 109.762C192.073 109.67 191.76 109.521 191.403 109.477C190.372 109.346 189.306 109.366 188.341 109.786C188.02 109.907 187.732 110.094 187.419 110.228C186.734 110.499 186.007 110.228 185.324 110.094C184.194 109.849 183.069 109.586 181.926 109.416C181.229 109.312 180.505 109.298 179.824 109.1C179.513 108.981 179.209 108.842 178.915 108.684C177.979 108.242 176.908 108.292 175.939 107.96C175.494 107.788 175.088 107.528 174.745 107.197C174.303 106.887 173.746 106.824 173.226 106.767C171.451 106.568 168.73 107.045 168.77 109.306C168.799 109.82 169.179 110.269 169.136 110.789C169.035 111.265 168.619 111.664 168.236 111.941C167.712 112.306 167.032 112.217 166.538 111.848C165.066 110.837 163.423 109.905 161.585 109.942C161.311 109.934 161.048 109.829 160.842 109.647C160.35 109.206 160.347 108.478 159.946 107.98C159.546 107.482 158.815 107.365 158.216 107.166C157.507 106.948 156.777 106.812 156.037 106.761C155.31 106.709 154.576 106.908 153.867 106.681C153.391 106.538 152.925 106.364 152.472 106.16C152.142 105.808 151.74 105.532 151.294 105.35C151.008 105.216 150.696 105.15 150.41 105.035C150.273 104.944 150.171 104.808 150.123 104.65C150.075 104.493 150.083 104.324 150.146 104.172C150.646 103.538 151.594 103.141 151.619 102.229C151.625 101.918 151.543 101.612 151.384 101.345C151.213 101.051 150.942 100.834 150.784 100.54C150.626 100.245 150.849 99.8874 150.981 99.6075C151.062 99.4337 151.146 99.2629 151.226 99.0906C151.285 98.9654 151.358 98.8476 151.289 98.7121C151.142 98.4175 150.796 98.581 150.553 98.6016C150.409 98.616 150.264 98.5941 150.132 98.5377C149.999 98.4813 149.882 98.3924 149.793 98.2791C149.064 97.4985 147.94 97.9742 147.077 98.2467C146.465 98.4752 145.816 98.588 145.163 98.5795C145.07 98.5957 145.015 98.5295 144.931 98.5C144.379 98.2761 143.788 98.718 143.238 98.4838C142.648 98.2143 142.073 98.5781 141.506 98.7165C140.377 98.9374 139.242 98.5795 138.106 98.6959C137.339 98.7209 136.613 98.9787 135.869 99.1215C135.133 99.2217 134.397 99.1377 133.672 99.3159C132.947 99.4941 132.321 99.9212 131.641 100.214C130.961 100.507 130.273 100.781 129.6 101.086C129.287 101.224 128.99 101.396 128.716 101.6C128.454 101.8 128.227 102.013 127.915 102.136C127.63 102.248 127.323 102.295 127.018 102.275C126.332 102.203 125.728 101.833 125.025 101.851C124.267 101.874 123.508 101.998 122.747 101.933C122.39 101.943 122.072 101.775 121.778 101.593C121.648 101.508 121.533 101.403 121.438 101.282C121.178 101.008 120.794 100.792 120.407 100.92C119.809 101.175 119.722 101.927 119.476 102.46C119.174 103.828 118.592 104.454 117.364 105.067C116.685 105.416 116.021 105.803 115.367 106.191C114.51 106.693 113.536 107.256 113.582 108.4C113.495 108.874 113.063 109.164 112.845 109.578C112.683 109.854 112.583 110.162 112.551 110.481C112.501 111.2 112.72 111.954 112.588 112.664C112.511 113.01 112.308 113.272 112.106 113.547C111.679 114.136 111.278 114.776 110.655 115.178C110.361 115.375 110.044 115.528 109.747 115.717C109.449 115.905 109.199 116.113 108.893 116.266C108.349 116.593 107.669 116.509 107.125 116.82C106.887 116.973 106.679 117.169 106.511 117.397C106.297 117.648 106.109 117.921 105.951 118.212C105.827 118.476 105.656 118.717 105.446 118.921C105.024 119.35 104.415 119.511 104.035 119.995C103.24 120.989 102.837 122.256 102.012 123.235C101.798 123.487 101.568 123.725 101.324 123.947C101.105 124.213 100.929 124.511 100.801 124.83C100.493 125.477 100.174 126.117 99.8085 126.73C99.4874 127.344 98.9602 127.832 98.7555 128.505C98.6244 129.045 98.5095 129.659 98.7466 130.188C98.9837 130.717 99.6701 130.817 99.8748 131.366C99.9663 131.618 99.9694 131.893 99.8836 132.147C99.7787 132.485 99.7525 132.843 99.807 133.193C99.9646 133.88 100.249 134.552 100.268 135.269C100.319 135.962 100.191 136.655 99.8969 137.284C99.8211 137.437 99.7675 137.599 99.7378 137.767C99.5802 138.798 99.3372 139.866 98.7068 140.713C98.6156 140.837 98.5173 140.957 98.4123 141.07C98.3225 141.168 98.1855 141.253 98.1649 141.393C98.1567 141.458 98.162 141.524 98.1805 141.587C98.199 141.65 98.2303 141.708 98.2724 141.758C98.6479 142.437 99.6553 143.107 99.2503 143.982C98.9867 144.615 99.2503 145.346 99.6097 145.922C100.134 146.744 101.119 146.99 101.99 147.256C102.015 147.269 102.013 147.256 102.025 147.281C102.037 147.306 102.025 147.333 102.025 147.353C102.046 147.617 102.156 147.866 102.336 148.06C102.539 148.277 102.823 148.38 103.047 148.571C103.257 148.75 103.417 148.981 103.508 149.241C103.554 149.378 103.627 149.503 103.724 149.609C103.821 149.716 103.939 149.801 104.071 149.859C104.664 150.11 105.204 150.471 105.663 150.923C105.89 151.14 106.162 151.384 106.264 151.683C106.333 151.99 106.349 152.308 106.482 152.601C106.851 153.461 107.365 154.25 108.003 154.935C108.445 155.347 108.969 155.66 109.541 155.856C110.866 156.374 111.938 157.351 113.115 158.124C114.301 158.94 115.533 159.7 116.912 160.138C117.24 160.242 117.569 160.356 117.912 160.302C118.922 160.032 119.81 159.47 120.857 159.281C121.56 159.134 122.282 159.194 122.994 159.168C123.707 159.141 124.435 158.972 125.173 159.021C126.255 159.035 127.206 159.757 128.296 159.667C129.025 159.546 129.72 159.284 130.429 159.085C131.09 158.92 131.648 158.567 132.248 158.264C132.88 157.99 133.564 157.854 134.215 157.629C134.872 157.37 135.573 157.314 136.265 157.199C137.886 156.784 139.483 156.785 140.719 158.059C141.161 158.539 141.345 159.155 141.637 159.714C142.226 160.935 143.544 161.027 144.741 160.81C145.5 160.698 146.261 160.592 147.017 160.449C147.513 160.355 148.118 160.166 148.545 160.542C148.75 160.757 148.899 161.018 149.161 161.178C150.012 161.648 150.311 162.137 150.37 163.093C150.405 163.73 150.263 164.365 149.959 164.926C149.812 165.186 149.609 165.423 149.517 165.707C149.378 166.159 149.575 166.635 149.472 167.09C149.277 167.75 149.177 168.474 148.699 169.005C148.598 169.115 148.487 169.186 148.46 169.337C148.428 169.467 148.441 169.604 148.497 169.726C148.712 170.181 148.939 170.633 149.188 171.069C150.171 172.865 152.083 173.848 153.543 175.193C154.217 175.878 154.521 176.747 154.842 177.613C154.963 177.899 155.104 178.176 155.263 178.444C155.574 178.96 156.008 179.423 156.169 180.015C156.326 180.555 156.426 181.109 156.566 181.648C156.552 181.773 156.51 181.892 156.442 181.997C156.305 182.426 156.32 182.889 156.484 183.308C156.563 183.592 156.673 183.867 156.812 184.127C156.959 184.401 157.182 184.642 157.307 184.924C157.401 185.155 157.463 185.398 157.491 185.645C157.526 185.868 157.53 186.095 157.504 186.318C157.441 186.934 156.977 187.46 156.438 187.791C156.076 188.055 155.792 188.395 155.46 188.69C155.249 188.861 155.061 189.059 154.9 189.279C154.759 189.486 154.663 189.722 154.621 189.969C154.534 190.526 154.361 191.066 154.108 191.57C153.837 192.052 153.478 192.516 153.46 193.087C153.426 193.676 153.45 194.279 153.444 194.872C153.424 195.132 153.446 195.392 153.512 195.644C153.606 195.874 153.766 196.07 153.971 196.21C154.402 196.54 154.783 196.931 155.104 197.369C155.389 197.799 155.642 198.25 155.859 198.718C156.128 199.213 156.426 199.693 156.75 200.154C157.183 200.794 157.719 201.388 157.843 202.157C157.88 202.403 157.855 202.649 157.877 202.893C157.932 203.412 158.075 203.918 158.298 204.389C158.42 204.608 158.494 204.85 158.515 205.099C158.521 205.589 158.615 206.073 158.792 206.529C158.979 207.191 159.189 207.806 159.675 208.333C160.021 208.7 160.39 209.044 160.78 209.364C161.127 209.68 161.581 209.943 161.781 210.372C161.965 210.765 162.058 211.167 162.251 211.55C162.49 212.157 163.048 212.634 163.32 213.227C163.385 213.339 163.413 213.469 163.4 213.598C163.387 213.727 163.333 213.848 163.247 213.945C163.163 214.025 163.072 214.097 162.976 214.161C162.936 214.183 162.903 214.214 162.879 214.253C162.856 214.291 162.843 214.335 162.843 214.38C162.842 214.425 162.853 214.469 162.875 214.509C162.897 214.548 162.929 214.58 162.968 214.603C163.294 214.87 163.325 215.233 163.379 215.602C163.387 215.642 163.405 215.68 163.43 215.713C163.456 215.745 163.489 215.771 163.527 215.789C163.663 215.841 163.801 215.886 163.942 215.924C164.515 216.104 165.082 216.292 165.664 216.443C165.906 216.478 166.153 216.451 166.382 216.364C166.919 216.198 167.476 216.103 168.038 216.082C168.649 216.133 169.231 215.959 169.826 215.845C170.421 215.73 171.042 215.759 171.658 215.719C171.97 215.691 172.284 215.685 172.597 215.7C172.882 215.708 173.119 215.814 173.401 215.82C173.627 215.831 173.814 215.718 174.038 215.711C174.262 215.703 174.49 215.684 174.717 215.666C174.933 215.657 175.146 215.613 175.348 215.537C175.532 215.41 175.746 215.333 175.968 215.314C178.247 215.26 180.262 214.037 182.2 212.993C182.926 212.619 183.603 212.156 184.215 211.613C184.857 211.107 185.508 210.616 186.129 210.085C186.527 209.769 187.103 209.634 187.524 209.348C188.421 208.775 188.821 207.928 189.223 207.148C189.335 206.93 189.487 206.699 189.493 206.47C189.525 206.245 189.285 206.09 189.3 205.872C189.321 205.682 189.525 205.522 189.727 205.401C190.478 204.914 191.366 204.712 192.24 204.559C193.033 204.369 193.93 204.117 194.441 203.472C194.58 203.258 194.577 203.03 194.64 202.802C194.761 202.298 195.103 201.797 195.153 201.279C195.138 201.011 195.086 200.746 194.997 200.492C194.861 199.968 194.739 199.441 194.605 198.912C194.549 198.685 194.443 198.445 194.518 198.198C194.593 197.95 194.855 197.8 195.081 197.675C196.593 196.805 198.072 195.881 199.564 194.97C200.118 194.621 200.718 194.353 201.347 194.171C201.977 193.953 202.594 193.702 203.197 193.419C204.191 193.005 205.064 192.347 205.733 191.504C206.258 190.849 206.695 190.127 206.579 189.286C206.602 188.685 206.758 188.086 206.858 187.488C206.937 187.2 206.96 186.9 206.926 186.604C206.886 185.985 206.987 185.365 207.221 184.791C207.461 184.23 207.394 183.885 206.827 183.613C206.424 183.383 206.117 183.013 205.966 182.573C205.524 181.61 205.789 180.553 205.693 179.538C205.683 179.14 206.126 178.835 206.082 178.436C206.062 178.159 205.835 178.043 205.632 177.881C204.948 177.354 205.15 176.667 205.574 176.046C205.869 175.533 206.141 174.999 206.605 174.601C206.832 174.415 207.036 174.203 207.213 173.969C207.69 173.279 207.967 172.449 208.626 171.888C208.88 171.704 209.151 171.545 209.436 171.413C209.988 171.098 210.49 170.701 210.922 170.234C211.386 169.732 211.853 169.236 212.355 168.762C213.386 167.794 214.484 166.906 215.595 166.03C216.59 165.249 217.542 164.357 218.723 163.866C219.328 163.657 219.808 163.205 220.331 162.845C222.822 160.991 224.987 158.649 226.432 155.891C227.049 154.689 227.714 153.492 228.641 152.504C229.268 151.698 229.651 150.736 229.935 149.77C230.15 148.895 230.147 147.995 230.265 147.107C230.269 147.066 230.264 147.025 230.251 146.986C230.238 146.947 230.216 146.911 230.189 146.881C229.991 146.657 229.651 146.499 229.355 146.62C229.216 146.683 229.085 146.763 228.966 146.858C228.416 147.187 227.811 147.415 227.181 147.532C225.817 147.826 224.43 147.91 223.057 148.221C222.536 148.318 222.038 148.533 221.524 148.663C221.358 148.68 221.191 148.68 221.025 148.663C220.361 148.629 219.699 148.82 219.079 149.09C218.49 149.353 217.754 149.773 217.143 149.355C216.423 148.838 215.847 148.14 215.187 147.546C215.134 147.507 215.093 147.454 215.069 147.393C215.045 147.333 215.039 147.266 215.051 147.202C215.129 146.937 215.33 146.713 215.417 146.446C215.452 146.37 215.472 146.287 215.474 146.202C215.476 146.118 215.461 146.034 215.43 145.956C215.313 145.767 215.154 145.606 214.966 145.487C214.707 145.294 214.465 145.08 214.24 144.848C214.022 144.617 213.853 144.344 213.651 144.101C213.219 143.623 212.757 143.172 212.269 142.751C211.807 142.309 211.378 141.823 210.797 141.534C209.811 141.037 208.665 140.651 208.079 139.635C207.752 139.097 207.679 138.456 207.49 137.867C207.278 137.247 207.153 136.57 206.754 136.034C206.355 135.497 205.773 135.122 205.235 134.727C204.73 134.355 204.1 134.026 203.975 133.344C203.939 132.263 203.715 131.2 203.468 130.148C203.396 129.813 203.35 129.468 203.257 129.138C202.951 128.045 202.051 127.172 201.006 126.782C200.531 126.617 200.269 126.125 200.228 125.645C200.216 125.484 200.247 125.322 200.249 125.162C200.244 124.539 200.014 123.938 199.602 123.471C199.397 123.203 199.211 122.921 199.047 122.627C198.291 121.481 197.458 120.366 196.955 119.076C196.765 118.605 196.712 118.081 196.415 117.659C196.338 117.537 196.219 117.393 196.219 117.243C196.219 116.913 196.611 116.948 196.83 116.958C196.979 116.974 197.129 116.962 197.272 116.921C197.41 116.857 197.535 116.768 197.64 116.658C197.752 116.554 197.887 116.478 198.034 116.438C198.182 116.397 198.337 116.394 198.486 116.427C199.12 116.574 199.456 117.273 199.848 117.73C200.754 118.798 201.378 120.072 202.282 121.139C202.695 121.65 202.988 122.247 203.14 122.886C203.249 123.503 203.707 123.77 204.256 123.917C204.767 124.101 205.211 124.432 205.534 124.869C205.895 125.372 206.069 125.982 206.393 126.509C206.557 126.81 206.657 127.141 206.688 127.483C206.699 127.842 206.664 128.204 206.701 128.564C206.752 129.764 207.475 130.733 208.43 131.362C209.598 132.02 210.548 132.58 210.885 133.995C211.349 135.296 212.461 136.116 213.278 137.15C213.867 137.886 214.415 138.804 214.216 139.783C214.15 140.122 214.016 140.449 214.165 140.777C214.767 141.998 214.803 143.428 215.374 144.654C215.496 144.926 215.63 145.206 215.895 145.358C216.159 145.483 216.453 145.528 216.742 145.487C217.386 145.424 218.068 145.436 218.648 145.115C218.913 144.967 219.079 144.721 219.311 144.526C219.525 144.35 219.777 144.226 220.047 144.163C220.648 144.016 221.246 144.21 221.851 144.103C222.515 144.038 223.1 143.676 223.667 143.356C223.969 143.224 224.286 143.128 224.611 143.07C224.915 143.027 225.211 142.946 225.495 142.829C225.781 142.71 225.994 142.476 226.214 142.268C227.038 141.632 228.118 141.503 229.075 141.169C229.77 140.939 230.45 140.666 231.111 140.35C231.405 140.196 231.734 140.104 231.994 139.886C232.209 139.711 232.253 139.428 232.34 139.181C232.445 138.953 232.596 138.75 232.784 138.585C232.972 138.419 233.192 138.295 233.432 138.221C234.114 138.001 234.807 137.824 235.493 137.632C236.075 137.456 236.704 137.453 237.242 137.148C237.435 137.029 237.591 136.857 237.691 136.652C237.801 136.424 237.831 136.176 238 135.976C238.261 135.665 238.644 135.699 238.991 135.576C239.52 131.482 239.839 127.364 239.946 123.238C239.399 122.612 239.2 121.801 239.156 121.007Z" fill="#292044"/>
<path d="M39.8426 30.9988C40.0635 30.7234 40.2403 30.1947 40.6556 30.2109C40.7852 30.2182 40.8147 30.3096 40.8633 30.3965C41.0945 30.8486 41.4406 31.2359 41.5437 31.7499C41.6262 32.1388 41.5039 32.5924 41.5245 32.9959C41.5311 33.054 41.5495 33.1101 41.5787 33.1607C41.6078 33.2114 41.647 33.2556 41.6939 33.2905C41.8728 33.4571 42.0784 33.5925 42.3021 33.691C42.4804 33.7647 42.7572 33.8913 43.0003 33.6778C43.1972 33.4026 43.3758 33.1148 43.5349 32.8162C43.6496 32.5675 43.852 32.3698 44.1034 32.261C44.2713 32.1991 44.4421 32.1711 44.61 32.124C45.0316 31.9988 45.4248 31.7927 45.7676 31.5172C46.2212 31.18 46.6512 30.797 47.1697 30.5643C47.5658 30.3672 47.897 30.0605 48.124 29.6807C48.1748 29.5424 48.1801 29.3915 48.139 29.25C48.0979 29.1085 48.0127 28.9838 47.8957 28.8942C47.6483 28.7028 47.1431 28.8618 46.9429 28.5717L46.9944 28.5953L47.0165 28.526C47.0165 28.5393 46.9811 28.5511 46.962 28.5599C47.0288 28.5164 47.0893 28.4638 47.1417 28.4038C47.1608 28.3552 47.1166 28.3184 47.0784 28.2889C47.0857 28.2668 47.0901 28.2462 47.0975 28.2241C47.043 28.2521 47.0401 28.2609 47.0121 28.2241C46.9819 28.1822 46.9484 28.1428 46.9119 28.1063C46.825 28.0312 46.6807 28.0489 46.5408 28.0577C46.2816 28.0709 45.9708 28.1387 45.9046 27.9104C45.8501 27.7204 46.0518 27.529 46.18 27.3331C46.2595 27.2079 46.2904 27.1063 46.1947 27.0385C45.9723 26.8913 45.5481 26.794 45.663 26.4376C45.663 26.42 45.6925 26.3817 45.6881 26.3669C45.6836 26.3522 45.6203 26.339 45.5879 26.3316L45.1122 26.2285C43.067 27.8672 41.0778 29.5702 39.1445 31.3376C39.2798 31.3433 39.4145 31.3154 39.5363 31.2563C39.6582 31.1972 39.7634 31.1087 39.8426 30.9988Z" fill="#292044"/>
<path d="M70.3336 177.974C69.9198 177.058 69.3837 176.194 68.8903 175.312C68.7464 175.108 68.5393 174.957 68.3012 174.883C68.0487 174.773 67.7828 174.695 67.5104 174.653C67.27 174.648 67.0301 174.629 66.7916 174.599C66.3233 174.516 65.9197 174.237 65.528 173.977C65.1333 173.742 64.7018 173.586 64.3159 173.331C64.132 173.207 63.966 173.058 63.8225 172.889C63.173 172.153 62.2761 171.711 61.4204 171.288C60.958 171.048 60.4764 170.787 59.9609 170.715C59.4145 170.647 58.8799 170.681 58.3335 170.614C57.2028 170.493 56.0834 170.282 54.9859 169.985C54.7149 169.914 54.4395 169.808 54.1744 169.837C53.9375 169.87 53.7087 169.946 53.4999 170.063C53.3334 170.144 53.1405 170.29 52.9225 170.158C52.7046 170.027 52.628 169.752 52.5278 169.555C52.4239 169.321 52.2864 169.105 52.1199 168.911C51.9818 168.734 51.7949 168.602 51.5823 168.531C51.3432 168.494 51.1066 168.442 50.8739 168.375C50.6321 168.294 50.3955 168.198 50.1655 168.088C49.2421 167.636 48.2789 167.164 47.2671 167.001C46.868 166.935 46.4232 166.886 46.0889 167.048C45.9343 167.123 45.807 167.245 45.7251 167.396C45.6868 167.465 45.6677 167.543 45.5867 167.58C45.5479 167.593 45.5058 167.591 45.468 167.576C45.4302 167.56 45.3991 167.532 45.3805 167.496C45.3083 167.304 45.4202 167.054 45.3981 166.848C45.3981 166.459 45.0535 166.119 44.7 165.998C44.2037 165.799 43.6941 165.652 43.1919 165.484L43.1581 165.474V165.413C43.1139 165.413 43.105 165.413 43.0741 165.39C43.0316 165.331 42.9822 165.278 42.9268 165.232C42.7631 165.103 42.5608 165.033 42.3525 165.033C42.3068 165.033 42.3215 165.033 42.2862 165.01C42.2508 164.986 42.2759 164.988 42.2346 164.993C42.298 164.396 42.4835 163.815 42.4187 163.21C42.3775 162.908 42.1742 162.674 41.9769 162.457C41.4732 161.721 40.728 161.166 40.3082 160.365C40.0049 159.867 39.9577 159.282 39.5969 158.815C39.2375 158.373 38.781 158.029 38.3671 157.637C37.5542 156.917 36.6337 156.235 35.5998 155.923C35.3123 155.864 35.0329 155.771 34.7677 155.646C33.9694 155.179 33.0372 155.098 32.155 155.096C31.5232 155.065 30.8913 155.051 30.2625 154.973C29.4834 154.79 28.9178 154.067 28.2006 153.728C28.0807 153.667 27.9567 153.614 27.8295 153.571C27.716 153.532 27.5997 153.529 27.5084 153.423C27.3316 153.204 27.2727 152.917 27.1019 152.687C26.9173 152.444 26.7091 152.22 26.4804 152.018C26.0268 151.576 25.5717 151.092 25.0459 150.772C24.7953 150.612 24.5244 150.486 24.2403 150.398C23.8677 150.269 23.4421 150.388 23.1166 150.142C23.079 150.103 23.0495 150.057 23.0298 150.006C23.0101 149.956 23.0005 149.902 23.0017 149.847C22.9841 149.627 22.9144 149.413 22.7985 149.224C22.5039 148.771 22.0032 148.61 21.5878 148.404C21.2933 148.257 21.0164 148.11 20.7351 147.962C20.5584 147.865 20.2196 147.7 20.1946 147.442C20.1754 147.252 20.417 147.236 20.5319 147.199C20.6467 147.163 20.7837 147.136 20.8264 147.017C20.8385 146.96 20.8289 146.901 20.7994 146.851C20.77 146.801 20.7228 146.764 20.6674 146.747C20.0974 146.491 19.4994 146.576 18.9413 146.582C18.7918 146.582 18.6439 146.552 18.5066 146.492C18.3693 146.433 18.2456 146.346 18.143 146.238C18.1074 146.194 18.0646 146.157 18.0164 146.127C17.973 146.11 17.9246 146.111 17.8816 146.129C17.8387 146.147 17.8046 146.181 17.7866 146.224C17.6865 146.417 17.7513 146.674 17.5893 146.827C17.0915 147.288 16.4007 147.563 15.7233 147.229C15.4861 147.101 15.2711 146.897 15.0134 146.808C14.5097 146.606 13.9927 146.703 13.4743 146.718C13.1886 146.727 12.9014 146.728 12.6142 146.731C12.4036 146.731 12.1886 146.75 12.003 146.557C11.8175 146.364 11.788 146.115 11.6967 145.884C11.2166 144.842 10.0251 145.457 9.45072 144.571C9.32848 144.383 9.28578 144.129 9.12377 143.981C9.05471 143.912 8.9643 143.869 8.86724 143.857C8.77018 143.846 8.67217 143.868 8.58915 143.92C7.9485 144.297 8.62008 145.117 7.72316 145.37C7.47974 145.457 7.24171 145.557 7.01035 145.672C6.97114 145.698 6.92695 145.714 6.88074 145.722C6.83453 145.729 6.78734 145.726 6.74229 145.713C6.64325 145.662 6.56177 145.582 6.50813 145.484C6.43147 145.382 6.37725 145.265 6.34906 145.14C6.32844 144.984 6.43596 144.892 6.51255 144.802C6.68928 144.594 6.87338 144.394 7.04422 144.177C7.15615 144.03 7.11197 143.819 7.01035 143.644C6.72905 143.211 6.17528 143.255 5.79383 143.475C5.59594 143.581 5.42159 143.726 5.2813 143.902C4.99333 144.265 4.60521 144.536 4.16494 144.681C3.65683 144.828 3.06626 144.78 2.64062 145.14C8.99416 174.945 26.4126 200.652 50.3923 217.758C50.762 217.67 51.1964 217.551 51.0875 217.138C50.9932 216.844 51.1508 216.632 51.1331 216.348C51.1276 216.2 51.0862 216.057 51.0123 215.929C50.8864 215.786 50.7305 215.673 50.5558 215.596C50.2053 215.437 49.5838 215.387 49.4527 214.99C49.3731 214.835 49.4262 214.71 49.354 214.557C48.9122 213.91 47.7487 213.741 47.0786 213.319C47.8857 213.433 48.6986 213.495 49.5499 213.782C49.7388 213.861 49.9366 213.917 50.139 213.948C51.0315 214.003 52.6162 214.398 53.1243 213.549C53.2156 213.373 53.2083 213.156 53.2863 212.97C53.3644 212.785 53.628 212.676 53.7414 212.484C53.8681 212.271 53.8533 212.009 53.8224 211.738C53.7841 211.395 53.7458 211.047 53.7119 210.695L53.7635 210.727C53.7635 210.702 53.7561 210.697 53.7841 210.688C53.9403 210.684 54.096 210.668 54.2495 210.639C54.6221 210.574 54.9712 210.345 55.0448 209.973C55.0625 209.853 55.1125 209.704 55.0345 209.595C55.0326 209.591 55.0301 209.587 55.0271 209.583C55.0154 209.574 55.0154 209.57 55.0271 209.57C55.0404 209.57 55.0419 209.57 55.0271 209.561L55.0109 209.539C55.4012 209.539 55.4395 209.281 55.4851 209.044C55.5396 208.75 55.6045 208.455 55.6869 208.172C55.7696 207.881 55.875 207.597 56.0021 207.322C56.1302 207.048 56.3276 206.801 56.4218 206.505C56.6001 206.041 56.3276 205.456 55.9373 205.099C55.4513 204.546 55.1199 203.602 55.5028 203.037C55.6722 202.774 55.9638 202.595 56.2171 202.392C56.4704 202.188 56.7193 201.911 57.0124 201.701C57.5721 201.259 58.36 201.146 59.0286 200.936C59.3104 200.813 59.5681 200.64 59.7901 200.427C59.8978 200.347 59.9727 200.231 60.0007 200.1C60.0095 200.038 60.0007 199.998 60.0596 199.966C60.1228 199.932 60.1946 199.918 60.2658 199.926C60.7444 200.041 61.2054 199.939 61.6929 199.959C62.5766 200.035 63.7548 200.288 64.3527 199.495C64.6222 199.2 65.4941 199.222 65.3203 198.661C65.2189 198.499 65.1578 198.315 65.1421 198.125C65.1612 197.945 65.219 197.771 65.3115 197.615C65.4691 197.263 65.606 196.901 65.7931 196.555C66.0641 196.106 66.3144 195.59 66.0876 195.048C65.9624 194.71 65.7828 194.312 65.9404 193.967C66.043 193.806 66.1284 193.634 66.1951 193.455C66.4234 192.689 66.1701 191.835 66.0317 191.056C65.8432 190.109 65.634 189.141 65.3881 188.176C65.3115 187.774 65.1171 187.343 65.1966 186.939C65.2196 186.862 65.2614 186.793 65.3182 186.736C65.3751 186.679 65.4452 186.638 65.5221 186.615C65.8369 186.513 66.1228 186.337 66.3562 186.102C66.5895 185.867 66.7635 185.58 66.8638 185.265C66.9495 184.901 67.0755 184.548 67.2393 184.212C67.475 183.636 67.9758 183.262 68.4323 182.866C69.0509 182.276 69.721 181.696 70.1068 180.916C70.5575 180.02 70.5634 178.942 70.3336 177.974Z" fill="#292044"/>
<path d="M32.2509 40.027C32.4739 40.2208 32.7369 40.3631 33.0211 40.4438C33.1684 40.4865 33.3422 40.4953 33.4836 40.5513C33.6248 40.6177 33.759 40.6981 33.8842 40.7913C34.1912 40.9705 34.5288 41.0913 34.8798 41.1478C35.2671 41.3216 35.5469 40.9372 35.6795 40.6264C35.8489 40.2405 35.6795 39.943 35.5852 39.6441C35.3761 39.0285 35.1243 38.4084 34.6471 37.9592C34.3378 37.728 34.3422 37.4055 34.463 37.0505C34.9298 37.1816 35.3643 37.3819 35.6412 37.7339C35.8885 38.1216 36.2678 38.4067 36.709 38.5365C37.192 38.7089 37.2701 39.2332 37.4453 39.6632C37.5278 39.8679 37.5926 40.1934 37.8872 40.1271C37.9389 40.1125 37.9846 40.0817 38.0177 40.0394C38.0508 39.997 38.0696 39.9452 38.0713 39.8915C38.0272 39.7752 37.9999 39.6532 37.9903 39.5292C38.0035 38.9401 38.5794 38.4452 39.0035 38.0564C39.2215 37.8561 39.5278 37.7457 39.6913 37.4938C39.9078 37.1183 39.8474 36.7471 39.7826 36.373C39.7116 35.9659 39.7338 35.548 39.8474 35.1506C39.9152 34.9091 40.0595 34.6543 39.9947 34.4393C39.9299 34.2243 39.7679 34.1344 39.6074 34.024C39.399 33.8759 39.2021 33.7125 39.0183 33.535C38.6619 33.2405 38.7443 33.0181 38.871 32.6145C38.9673 32.2955 38.9334 31.9513 38.7767 31.6572C36.1984 34.0284 33.7266 36.5085 31.3613 39.0977C31.7133 39.348 31.9283 39.7427 32.2509 40.027Z" fill="#292044"/>
<path d="M2.89403 95.8583C2.92938 96.0689 2.81745 96.3296 2.92643 96.5167C2.95911 96.561 2.99666 96.6015 3.03836 96.6374C3.17386 96.7391 3.31819 96.4165 3.38741 96.3193C3.71584 95.7832 4.14001 95.3016 4.32116 94.6831C4.39783 94.3725 4.4403 94.0544 4.44782 93.7346C4.44603 93.6876 4.45666 93.6409 4.47863 93.5993C4.50061 93.5576 4.53315 93.5226 4.573 93.4975C4.66873 93.4504 4.7777 93.4783 4.87638 93.4533C5.09591 93.3785 5.28955 93.2426 5.43457 93.0615C6.01943 92.455 6.43002 91.702 6.6231 90.8819C6.77038 90.0998 7.24313 89.9864 7.90588 89.9201C8.31237 89.8332 8.75272 89.7729 9.1003 89.5181C9.18425 89.4606 9.32859 89.3914 9.33006 89.2559C9.33153 89.1204 9.20928 89.0777 9.1165 89.0482C9.00636 89.0349 8.89717 89.0148 8.78955 88.9879C8.77267 88.9793 8.75797 88.967 8.74654 88.9519C8.73512 88.9368 8.72727 88.9193 8.72358 88.9007C8.7199 88.8821 8.72046 88.8629 8.72526 88.8446C8.73005 88.8263 8.73894 88.8093 8.75125 88.7949C8.96333 88.7007 9.20191 88.7655 9.42578 88.764C10.0959 88.7537 10.7366 88.5004 11.386 88.356C11.6437 88.3016 11.9051 88.2666 12.1681 88.2515C12.4037 88.2073 12.579 87.9658 12.7646 87.8185C13.227 87.409 12.6673 87.2087 12.4243 86.926C12.2818 86.7564 12.2064 86.5406 12.2123 86.3192C12.2845 86.0312 12.3785 85.749 12.4936 85.4753C12.769 84.7271 13.1902 83.9672 13.8191 83.4797C14.2609 83.1351 14.7498 82.9966 15.2079 82.7094C15.4494 82.5739 15.6409 82.3471 15.8677 82.191C16.0849 82.0578 16.338 81.995 16.5923 82.0113C17.1225 82.0216 17.6556 81.8287 18.1829 81.6446C18.4421 81.5533 18.7028 81.4811 18.9649 81.406C19.177 81.3456 19.2771 81.1483 19.364 80.9333C19.5658 80.3353 20.233 80.3236 20.7396 80.166C21.0342 80.0879 21.3376 80.0187 21.6365 79.9392C21.686 79.9191 21.7403 79.914 21.7927 79.9244C21.9296 79.9642 21.8663 80.0246 21.8339 80.1291C21.8 80.3412 21.5541 80.4016 21.392 80.4679C21.0105 80.6127 20.6605 80.8297 20.3611 81.1071C19.6056 81.7698 19.1299 83.1277 20.2286 83.7021C20.4731 83.8067 20.7057 83.5931 20.9222 83.4944C21.4092 83.2357 21.8557 82.9072 22.2477 82.5195C22.5806 82.1807 22.8486 81.6638 23.3405 81.5548C23.4756 81.5268 23.6149 81.5268 23.75 81.5548C23.8642 81.5299 23.9756 81.4939 24.0828 81.4473C25.2286 81.0216 26.3921 80.621 27.5335 80.1748C27.5968 80.1498 27.7176 80.1277 27.753 80.0673C27.8082 79.878 27.9322 79.7163 28.1005 79.6137C28.4187 79.434 28.7765 79.4664 29.0902 79.2676C29.4967 79.0275 30.1595 78.8964 30.1801 78.325C30.1801 78.2204 30.0829 78.1777 30.0225 78.11C29.7913 77.8817 29.6057 77.6033 29.6558 77.2469C29.684 77.113 29.7269 76.9826 29.7839 76.8581C29.786 76.7934 29.7702 76.7293 29.7383 76.6729C29.7064 76.6165 29.6597 76.57 29.6031 76.5383C29.5466 76.5067 29.4824 76.4913 29.4177 76.4936C29.353 76.496 29.2901 76.5161 29.236 76.5518C28.5512 77.1409 27.9915 77.8478 27.4569 78.5695C27.3288 78.7403 27.183 78.892 26.9871 78.9008C26.7382 78.8802 26.4996 78.8081 26.2507 78.7919C26.2684 78.7639 26.2964 78.7477 26.3111 78.7153H26.2507C26.2817 78.4016 26.4289 78.0555 26.3479 77.7462C26.3016 77.6748 26.231 77.6225 26.1491 77.5989C25.5512 77.3132 24.8236 77.191 24.3626 76.6829C24.3391 76.6549 24.2993 76.5709 24.2669 76.565C24.2345 76.5591 24.1785 76.596 24.1505 76.6107C24.0592 76.6563 23.9311 76.7005 23.912 76.8242C23.909 76.8868 23.926 76.9487 23.9606 77.001C24.1078 77.3206 24.2551 77.6564 24.4171 77.9686C24.6454 78.1159 25.0062 78.1409 25.2301 78.3191C24.9797 78.1424 24.641 78.1276 24.3847 77.9907C24.3832 77.9979 24.3836 78.0054 24.3859 78.0124C24.3882 78.0194 24.3924 78.0256 24.398 78.0304C23.2536 78.0599 23.2875 76.8522 23.3994 75.998C23.4476 75.6583 23.5543 75.3294 23.7146 75.026C23.7654 74.9504 23.8 74.8652 23.8162 74.7756C23.828 74.459 23.4834 74.3956 23.2404 74.4001C23.1879 74.4063 23.1346 74.4017 23.0839 74.3865C23.0332 74.3713 22.9862 74.3458 22.9458 74.3117C23.6292 74.0333 24.9076 73.5562 24.9886 72.7078C24.9757 72.3986 24.853 72.1041 24.6425 71.8772C24.2727 71.5476 23.7899 71.3735 23.2949 71.3912C22.9444 71.4118 22.5821 71.5561 22.2345 71.6592C20.6895 72.1173 19.1638 72.59 17.8279 73.565C17.8515 73.0215 18.367 72.6592 18.747 72.375C19.1814 72.0492 19.6524 71.7754 20.1505 71.5591C20.5717 71.3765 21.0342 71.2645 21.4024 70.9302C21.5786 70.7597 21.7245 70.5605 21.8339 70.3411C22.0136 70.0996 22.2639 69.9346 22.4804 69.7284C22.8133 69.456 23.1388 69.1216 23.5438 68.9729C23.9179 68.8772 24.2625 69.0436 24.638 69.0303C24.9326 69.0303 25.2198 69.02 25.5085 69.0215C26.6675 69.0215 27.8207 69.1084 28.9753 69.2144L29.8428 69.2984C30.3863 69.3558 30.943 69.1806 31.4805 69.0966C31.7478 69.0571 32.0188 69.0507 32.2876 69.0775C32.8443 68.9965 33.3583 68.7063 33.8267 68.3911C34.2935 68.0966 34.6485 67.6665 35.0152 67.2674C35.4305 66.8757 35.9165 66.7917 36.4055 66.6783C36.6958 66.6062 36.9912 66.557 37.2892 66.531C38.0933 66.4147 38.8076 65.9905 39.4851 65.5325C39.8842 65.263 40.3466 64.9272 40.3437 64.4058C40.3437 64.1393 40.2067 63.9242 40.2421 63.6459C40.2774 63.3675 40.4954 63.0995 40.6265 62.8285C40.7639 62.5945 40.8189 62.3212 40.7826 62.0523C40.6191 61.4927 40.0712 61.0818 39.4821 61.2188C39.4527 61.2188 39.4674 61.2305 39.4541 61.207C39.4409 61.1834 39.4541 61.1569 39.4541 61.1422C39.488 60.7003 39.4217 60.179 38.9225 60.0891C38.6559 60.0317 38.3599 60.1156 38.0962 60.0229C38.4055 59.6679 39.0786 59.7681 39.2038 59.2556C39.2121 59.1636 39.2006 59.0709 39.1701 58.9838C39.1396 58.8967 39.0908 58.8171 39.027 58.7504C38.9832 58.6812 38.9247 58.6224 38.8558 58.5781C38.7869 58.5339 38.7091 58.5052 38.6279 58.4941C38.46 58.4676 38.2465 58.5722 38.0859 58.5103C37.7501 58.0214 37.1684 57.8299 36.6338 57.6178C36.4732 57.5515 36.2376 57.4823 36.2126 57.2761C36.1816 56.416 35.3377 56.039 34.946 55.3704C34.8355 55.2054 34.6632 55.0316 34.7472 54.7813C34.8237 54.5515 35.0932 54.3718 35.2729 54.2157C35.4791 54.0243 35.7265 53.8622 35.8856 53.6266C36.0447 53.391 35.9489 53.226 35.8635 53.0522C35.7735 52.8779 35.7157 52.6889 35.6927 52.4941C35.674 52.2666 35.7093 52.038 35.7958 51.8269C35.819 51.745 35.8175 51.658 35.7912 51.577C35.765 51.4959 35.7153 51.4245 35.6485 51.3718C35.4821 51.2157 35.5793 50.9417 35.5012 50.7414C35.4673 50.6531 35.3908 50.6251 35.3333 50.5603C35.2346 50.4439 35.3495 50.2451 35.3893 50.0949C35.4187 49.8696 35.379 49.6663 35.4408 49.441C35.5205 48.9759 35.5135 48.5 35.4202 48.0374C35.3304 47.5683 35.2919 47.0907 35.3053 46.6133C35.3053 46.1302 35.3908 45.6295 35.3967 45.1493C35.3967 45.0595 35.4055 44.9608 35.3377 44.9093C35.3061 44.8764 35.267 44.8515 35.2238 44.8368C35.1806 44.8221 35.1345 44.818 35.0893 44.8248C35.0442 44.8315 35.0014 44.849 34.9644 44.8758C34.9274 44.9025 34.8973 44.9377 34.8768 44.9785C34.4349 45.4733 33.9607 45.927 33.5292 46.4233C33.211 46.7885 32.9563 47.1862 32.6558 47.5617C32.1931 48.178 31.5758 48.6612 30.8664 48.9623C30.7612 49.0187 30.6624 49.0864 30.5718 49.1641C30.171 49.4748 29.7237 49.7203 29.2464 49.8917C29.0578 49.951 28.8543 49.9412 28.6724 49.864C28.4904 49.7868 28.342 49.6473 28.2537 49.4704C28.1756 49.3232 28.1771 49.1214 28.0976 48.9682C27.9621 48.6413 27.5085 48.6413 27.4127 48.2878C27.3052 47.6825 27.7765 47.1346 27.9665 46.5838C28.0402 46.3849 28.0615 46.1704 28.0284 45.9608C28.0466 45.8793 28.0845 45.8035 28.1388 45.7399C28.5217 45.2082 28.8148 44.6294 29.2405 44.1199C29.3701 43.9608 29.5483 43.8253 29.5262 43.6397C29.5244 43.608 29.5156 43.5771 29.5006 43.5491C29.4856 43.5212 29.4647 43.4968 29.4393 43.4777C29.3628 43.4514 29.283 43.436 29.2022 43.4321C28.7692 43.3128 28.4658 42.9328 27.9827 42.9902C15.3013 58.1052 6.55778 76.1236 2.53174 95.4386C2.7232 95.3502 2.87489 95.6433 2.89403 95.8583Z" fill="#292044"/>
<path d="M99.3341 24.2511C100.53 23.6267 101.766 23.0567 102.951 22.4205C102.786 22.5074 101.667 23.1112 102.967 22.4116C103.056 22.363 103.074 22.2143 103.068 22.1495C103.06 22.0538 102.845 22.039 102.747 22.0243C102.442 21.984 102.136 21.9594 101.829 21.9507C101.373 21.9525 100.922 21.8603 100.504 21.6797C100.051 21.5059 99.5477 21.5515 99.0661 21.6635C98.8583 21.74 98.6309 21.7457 98.4195 21.6797C98.2575 21.5722 98.2546 21.3851 98.4917 21.335C99.0808 21.1539 100.137 21.1171 100.174 20.3365C100.188 20.0699 100.146 19.8048 100.174 19.5427C100.229 19.4628 100.303 19.3976 100.388 19.3524C100.474 19.3073 100.57 19.2836 100.667 19.2835C100.794 19.3011 100.907 19.3483 100.937 19.4411C101.165 20.1774 101.396 21.1038 102.25 21.3689C102.529 21.4455 102.819 21.3998 103.134 21.3807C103.576 21.3262 104.129 21.4573 104.515 21.2216C104.619 21.1199 104.688 20.9879 104.711 20.8446C104.788 20.5692 104.829 20.2938 104.891 20.0213C104.923 19.7842 105.074 19.5456 105.059 19.307C105.018 19.0125 104.726 18.7518 104.863 18.4425C104.89 18.4016 104.912 18.3577 104.929 18.3114C104.941 18.2275 104.848 18.1509 104.801 18.0876C104.54 17.5847 104.122 17.1804 103.611 16.9359C103.367 16.8063 103.113 16.687 102.889 16.5426C102.775 16.4756 102.669 16.395 102.574 16.3026C102.5 16.2164 102.458 16.107 102.456 15.9933C102.43 15.7487 102.426 15.5022 102.446 15.2569C102.461 15.0846 102.788 14.9535 102.985 15.0227C103.031 15.0389 103.04 15.0728 103.056 15.1067C103.137 15.254 103.091 15.4101 103.069 15.5662C103.051 15.7377 103.092 15.9103 103.185 16.0551C103.412 16.3983 103.922 16.497 104.247 16.7429C104.504 16.9049 104.957 17.0478 105.278 16.8637C105.381 16.8018 105.377 16.7002 105.408 16.6207C105.473 16.449 105.585 16.2993 105.732 16.1892C105.808 16.1362 105.745 16.1082 105.77 16.0287C105.811 15.7179 106.383 15.5765 106.259 15.226C106.224 15.1361 106.137 15.092 106.031 15.0434C105.705 14.8961 105.374 14.7606 105.059 14.6015C105.005 14.5793 104.955 14.5484 104.912 14.5102C104.848 14.441 104.863 14.3379 104.853 14.254C105.264 14.3526 105.617 14.5485 106.063 14.5043C106.509 14.4601 106.879 14.1965 107.324 14.1258C107.723 14.008 108.19 14.0757 108.543 13.8313C108.696 13.7246 108.823 13.5853 108.915 13.4233C108.993 13.2981 109.091 13.1656 109.062 13.0404C109.032 12.9152 108.906 12.871 108.733 12.8504C108.529 12.8259 108.327 12.7865 108.128 12.7326C107.938 12.681 107.757 12.6206 107.582 12.5573C107.511 12.5323 107.414 12.5161 107.406 12.4557C107.399 12.3953 107.446 12.3497 107.515 12.3084C107.689 12.2274 107.853 12.3379 108.019 12.3747C108.377 12.4846 108.758 12.4978 109.122 12.413C109.316 12.3509 109.507 12.2781 109.694 12.195C110.006 12.1405 110.345 12.2083 110.63 12.0477C110.916 11.8872 111.186 11.6471 111.088 11.3467C111.047 11.2598 110.941 11.2127 110.856 11.1538C110.774 11.115 110.702 11.0579 110.646 10.9869C110.59 10.9159 110.551 10.8329 110.532 10.7443C110.532 10.6869 110.545 10.6265 110.515 10.575C110.454 10.463 110.29 10.4144 110.172 10.3349C110.054 10.2554 110.172 10.1435 110.34 10.1184C110.854 10.1184 111.38 10.2186 111.598 9.63092C111.67 9.47333 111.735 9.31723 111.794 9.16111C111.89 8.9078 111.99 8.65448 111.714 8.47775C111.342 8.30543 111.489 8.21706 111.775 8.07273C112.153 7.88127 111.875 7.70012 111.58 7.68097C111.34 7.65004 111.085 7.65152 110.897 7.49982C110.897 7.49982 110.909 7.48952 110.907 7.4851C110.906 7.48068 110.884 7.47626 110.922 7.45123C111.057 7.3717 111.315 7.28184 111.081 7.17875C111.04 7.15519 110.976 7.139 110.934 7.11543C110.934 7.10512 110.945 7.08155 110.947 7.06977C110.96 6.97404 110.772 6.9225 110.677 6.8577C111.3 6.59554 112.012 6.02411 112.701 6.36432C112.928 6.52191 113.34 6.68686 113.29 6.9711C113.272 7.04056 113.244 7.10737 113.209 7.16992C113.114 7.39804 113.109 7.65384 113.194 7.88569C113.209 7.93134 113.202 8.03296 113.292 8.03296C113.321 8.03741 113.351 8.03741 113.38 8.03296C113.411 8.02266 113.445 7.95785 113.464 7.93576C113.526 7.87536 113.569 7.79803 113.588 7.71337C113.607 7.30394 113.792 6.99908 114.186 6.69275C114.354 6.58012 114.51 6.44977 114.651 6.30393C114.754 6.18242 114.837 6.04455 114.895 5.89597C114.944 5.77226 114.991 5.65739 114.913 5.55135C114.619 5.16695 113.926 5.44088 113.536 5.21113C113.468 5.1802 113.361 5.14928 113.353 5.09332C113.346 5.03735 113.467 4.98875 113.536 4.96224C113.637 4.93352 113.741 4.91623 113.845 4.9107C114.184 4.86062 114.555 4.84442 114.171 4.46886C113.991 4.24795 113.595 4.14337 113.378 3.96517C113.3 3.90184 113.526 3.82967 113.585 3.82819C114.209 3.97547 114.51 3.76192 114.923 3.33482C115.191 3.10801 115.489 2.88416 115.598 2.64557C115.705 2.4071 115.848 2.18692 116.024 1.99313C116.502 1.45114 117.442 0.951882 118.233 0.638182C118.545 0.505633 118.834 0.370137 119.137 0.23317C119.271 0.171313 119.361 0.131541 119.345 0.00488281C101.336 0.0770164 83.5756 4.21907 67.3927 12.1214C67.3765 12.2215 67.4427 12.3084 67.4648 12.3953C67.4788 12.5269 67.4547 12.6598 67.3956 12.7782C67.2483 13.0728 67.3499 13.3261 67.129 13.5956C67.0112 13.7959 66.4678 14.008 66.8345 14.2304C66.9818 14.3143 67.0922 14.5367 66.7564 14.656C66.4206 14.7753 65.9994 14.7459 65.7034 14.98C65.5974 15.0684 65.6562 15.1685 65.7549 15.1936C65.8168 15.2098 65.9258 15.2113 65.9626 15.2495C65.9994 15.2878 65.8624 15.3541 65.8006 15.3792C65.6306 15.4352 65.4683 15.5124 65.3175 15.6089C65.1162 15.7653 64.9651 15.9773 64.8831 16.2186H64.8374C64.8256 16.2496 64.8374 16.2481 64.7961 16.2702C64.7328 16.2967 64.6238 16.3688 64.6842 16.441C64.7122 16.4646 64.752 16.469 64.7269 16.5176L64.7726 16.4955C64.5339 16.8435 64.2316 17.1434 63.8816 17.3792C63.8057 17.4136 63.7384 17.4645 63.6847 17.5282C63.6309 17.5919 63.592 17.6668 63.5708 17.7474C63.5031 18.173 64.1599 18.4837 64.6356 18.3733C65.1113 18.2628 65.5016 18.0036 65.8728 17.7415C66.0617 17.6064 66.2885 17.5343 66.5208 17.5353C66.6202 17.5365 66.7191 17.5499 66.8153 17.5751C66.8742 17.5898 67.0569 17.6207 67.0348 17.6796H66.9508L66.9229 17.6561H66.9066C66.9155 17.6664 66.9214 17.6782 66.9346 17.6826C66.7167 17.6896 66.5031 17.746 66.3102 17.8475C66.535 17.9492 66.7869 17.9745 67.0274 17.9197C67.0229 17.9302 67.0189 17.9411 67.0156 17.9521C66.9867 17.9499 66.9576 17.9499 66.9287 17.9521C66.9061 17.965 66.8853 17.9808 66.8669 17.9992C66.6916 18.1332 66.512 18.2599 66.3337 18.3924C66.1555 18.525 65.78 18.7651 65.9464 18.9094C66.0618 18.9741 66.1873 19.0189 66.3175 19.0419C66.7947 19.1612 66.5591 19.469 66.2586 19.7312C66.1953 19.7768 66.16 19.8564 66.076 19.8579C65.372 19.8917 64.7152 19.6428 64.0141 19.6075C63.5723 19.5265 62.9022 19.8299 62.9905 20.335C63.0347 20.6296 62.9169 20.7194 62.643 20.8048C62.3768 20.8691 62.1264 20.9863 61.9066 21.1495C61.616 21.4592 61.3946 21.8272 61.2571 22.229C61.1941 22.4684 61.2171 22.7223 61.322 22.9465C61.427 23.1707 61.6073 23.3509 61.8315 23.4558C62.2733 23.553 62.7564 23.4853 63.2232 23.4043C63.7034 23.2909 64.4088 23.1539 64.5944 22.6429C64.671 22.4323 64.5428 22.2894 64.3985 22.1701C64.3077 22.112 64.2255 22.0416 64.154 21.961C64.1107 21.8796 64.0837 21.7906 64.0749 21.6988C64.0661 21.6071 64.0754 21.5145 64.1025 21.4263C64.777 21.6664 65.4678 21.9477 66.2203 21.961C66.4 21.961 66.7358 21.9153 66.6887 22.1259C66.618 22.3085 66.3382 22.4205 66.1806 22.5398C66.1276 22.5722 66.076 22.609 66.023 22.6414C65.97 22.6738 65.9847 22.6605 65.9479 22.6414C65.9479 22.6591 65.9361 22.6782 65.9317 22.6959L65.998 22.6546C65.8212 22.877 65.5885 23.0876 65.425 23.3115C65.2645 23.6252 65.5532 23.9006 65.0377 23.9551C64.8698 23.9846 64.5959 23.9875 64.4707 24.1304C64.2144 24.5884 63.8064 25.014 63.2542 25.0744C63.0421 25.0997 62.8282 25.1061 62.615 25.0936C62.3624 25.1116 62.1122 25.155 61.8683 25.2232C61.8243 25.2274 61.7808 25.2363 61.7387 25.2497C61.65 25.521 61.6562 25.8145 61.7564 26.0818C61.5443 26.07 61.3351 26.0523 61.1216 26.0464C61.0246 26.034 60.9263 26.0553 60.8433 26.1068C60.5487 26.3469 60.4014 26.665 60.0641 26.8668C59.8859 26.989 59.6974 27.1009 59.5325 27.2379C59.1923 27.5325 59.073 27.9183 58.7534 28.235C58.6106 28.3793 58.4962 28.5491 58.4161 28.7357C58.3351 28.9198 58.2688 29.0965 58.3395 29.2541C58.4102 29.4117 58.6341 29.5222 58.8064 29.6297C58.2747 30.0524 56.9242 30.6297 57.5089 31.4515C57.5667 31.5372 57.6023 31.6358 57.6126 31.7386C57.6229 31.8415 57.6075 31.9452 57.5678 32.0406C57.3837 32.5664 57.6444 33.0156 57.5884 33.5487C57.6002 34.0937 57.3793 34.6386 57.2718 35.1688C57.2232 35.4913 57.5236 35.5429 57.7843 35.4368L58.9272 35.104C58.5943 35.59 57.9669 35.7682 57.528 36.1349C57.123 36.5164 57.1996 36.9538 57.1996 37.3573C57.1731 37.9258 57.3307 38.5208 57.7563 38.9067C58.1142 39.1409 57.9198 39.4516 57.7224 39.7535C57.6865 39.7978 57.6622 39.8504 57.6519 39.9065C57.6417 39.9626 57.6456 40.0204 57.6635 40.0746C57.7301 40.1625 57.7911 40.2544 57.8461 40.35C57.919 40.5649 57.9611 40.789 57.9713 41.0157C58.0008 41.2675 58.1054 41.4958 58.0273 41.7727C57.9813 41.9154 57.9179 42.0519 57.8388 42.1792C57.7813 42.2779 57.7165 42.4119 57.7651 42.5003C57.931 42.7255 58.1116 42.9395 58.3057 43.1409C58.3469 43.188 58.3749 43.244 58.4529 43.2499C58.6076 43.2574 58.7587 43.2997 58.8948 43.3736C59.1275 43.5047 59.1775 43.7874 59.1319 44.0363C59.1319 44.0717 59.098 44.138 59.1098 44.1674C59.1654 44.2094 59.2299 44.2381 59.2983 44.2513C59.3667 44.2646 59.4372 44.2621 59.5045 44.244C60.0221 44.1549 60.5329 44.0299 61.0332 43.8699C61.2895 43.7816 61.5782 43.6976 61.7991 43.8037C62.02 43.9097 61.9464 44.1277 61.9464 44.3397C61.9353 44.5595 61.982 44.7784 62.0818 44.9745C62.1746 45.1792 62.397 45.2764 62.4957 45.4723C62.525 45.5792 62.5763 45.6789 62.6462 45.7648C62.7162 45.8508 62.8034 45.9212 62.9022 45.9716C63.02 46.0053 63.1441 46.0108 63.2645 45.9878C63.6813 45.976 64.0289 46.1851 64.4545 46.1719C65.7476 46.0452 65.8566 44.4841 66.5738 43.6682C66.6268 43.6217 66.6652 43.5608 66.6843 43.4929C66.7455 43.2874 66.8363 43.0919 66.9538 42.9126C67.2631 42.3957 67.808 42.0378 68.1556 41.5518C68.4751 41.0466 68.6563 40.5017 68.9582 39.9921C69.2336 39.8345 69.5606 39.7123 69.783 39.4737C69.8748 39.3704 69.9557 39.2578 70.0245 39.1379C70.4162 38.5341 70.9774 38.0893 71.596 37.7064C72.1674 37.3441 72.5591 36.8065 72.4619 36.185C72.4256 36.0762 72.4067 35.9624 72.406 35.8477C72.4354 35.6327 72.7005 35.5016 72.9111 35.4059C73.3618 35.1953 73.6136 34.9641 73.3412 34.5105C73.2837 34.3529 73.1762 34.1334 73.431 34.0789C73.8729 33.9847 74.4296 34.0068 74.705 33.5826C74.8307 33.3877 74.9982 33.2232 75.1954 33.101C75.6932 32.8241 76.2116 33.0333 76.7492 32.8771C77.1999 32.7903 77.6594 32.6621 78.113 32.7299C78.2392 32.7591 78.3716 32.743 78.487 32.6842C78.733 32.5635 78.9289 32.3646 79.1778 32.2527C79.4591 32.1746 79.7536 32.1849 80.0393 32.1054C80.6114 31.986 81.164 31.7878 81.6815 31.5163C81.9422 31.4014 82.1528 31.1864 82.4267 31.1069C82.7138 31.0583 82.9932 30.9717 83.2574 30.8492C83.7678 30.637 84.2104 30.2891 84.5372 29.8432C84.9157 29.4574 85.3943 29.151 85.8214 28.8123C86.2206 28.4824 86.5431 28.0759 87.0321 27.8668C87.4739 27.6326 87.9688 27.4485 88.3708 27.1525C88.5829 26.933 88.9069 26.8948 89.1971 26.9006C89.8348 26.9728 90.4681 26.7681 91.0778 26.584C91.39 26.4956 91.6522 26.6032 91.9615 26.559C92.6051 26.4677 93.1971 26.1407 93.8378 26.0199C95.097 25.7534 96.3842 25.6223 97.583 25.1186C98.1811 24.8594 98.7656 24.5699 99.3341 24.2511Z" fill="#292044"/>
<path d="M121.153 53.226C120.967 53.0581 121.059 53.1421 121.165 53.2363C121.657 53.6605 121.754 54.2378 121.528 54.8284C121.472 55.0434 121.626 55.2039 121.799 55.3115C122.284 55.5928 121.799 56.011 121.632 56.3291C121.614 56.3571 121.531 56.4528 121.536 56.4764C121.54 56.5 121.657 56.5751 121.683 56.6001C121.767 56.6751 121.832 56.7683 121.874 56.8726C122.212 57.7857 122.537 57.4028 123.098 56.9433C123.257 57.2997 123.106 57.637 123.031 57.9963C122.774 58.7563 123.178 58.9742 123.883 58.9728C124.229 58.9492 124.62 58.8476 124.956 58.9536C125.191 59.0287 125.2 59.2482 125.219 59.4573C125.222 59.5599 125.247 59.6606 125.294 59.7519C125.373 59.8766 125.462 59.9948 125.559 60.1053C125.741 60.3012 126.02 60.4352 126.065 60.7268C126.11 60.9684 126.014 61.232 125.935 61.4632C125.829 61.774 125.668 62.0774 125.31 62.1716C124.97 62.2309 124.621 62.2344 124.28 62.1819C124.132 62.1657 123.97 62.1054 123.824 62.1819C123.679 62.2585 123.726 62.3646 123.729 62.4765C123.729 62.612 123.729 62.7489 123.72 62.8844C123.696 63.1628 123.763 63.4414 123.911 63.6783C123.991 63.7887 124.132 63.8683 124.175 63.9993C124.299 64.4986 123.748 64.749 123.411 64.9831C123.145 65.1923 122.766 65.313 122.592 65.612C122.455 65.936 122.715 66.1761 123.034 66.1864C123.764 66.3045 124.474 66.5231 125.144 66.8359C125.302 66.8955 125.447 66.985 125.571 67.0995C125.474 67.1451 125.372 67.1783 125.266 67.1982C124.609 67.1157 123.897 67.3263 123.487 67.8698C123.364 68.0403 123.232 68.2044 123.092 68.3617C122.659 68.8374 122.097 69.1997 121.687 69.6872C121.658 69.7579 121.712 69.858 121.754 69.911C121.781 69.9471 121.817 69.9747 121.859 69.9909C121.901 70.007 121.947 70.011 121.991 70.0024C122.212 70.0087 122.432 69.9665 122.636 69.8786C122.843 69.7712 123.058 69.6777 123.278 69.5988C123.493 69.5353 123.719 69.5212 123.939 69.5576C124.305 69.6218 124.681 69.5799 125.023 69.4368C125.185 69.362 125.334 69.2627 125.465 69.1422C125.595 69.0259 125.69 68.8698 125.851 68.7917C126.241 68.6032 126.682 68.6916 127.091 68.699C128.144 68.7476 129.169 68.453 130.206 68.3072C130.714 68.238 131.224 68.21 131.735 68.1688C132.556 68.1015 133.324 67.7346 133.892 67.1378C133.937 67.0757 133.963 67.0021 133.968 66.9257C133.972 66.8493 133.955 66.7731 133.917 66.7063C133.82 66.5281 133.571 66.4913 133.408 66.3896C133.078 66.1864 133.147 65.9802 133.381 65.7387C133.897 65.1157 134.707 64.3395 134.256 63.4765C133.805 62.6135 132.724 62.7048 131.9 62.6871C131.901 62.5553 131.895 62.4235 131.882 62.2924C131.829 62.0833 131.671 61.9154 131.576 61.7224C131.351 61.3288 131.16 60.9175 131.003 60.4927C130.866 60.1171 130.72 59.7681 130.378 59.5177C130.062 59.3159 129.68 59.1878 129.419 58.9021C128.9 58.4161 128.839 57.6944 128.487 57.1112C128.108 56.528 127.534 56.0993 126.867 55.902C126.698 55.8475 126.59 55.7813 126.67 55.5986C126.824 55.1912 127.039 54.8094 127.308 54.4661C127.561 54.1048 127.771 53.7147 127.933 53.3041C128.769 51.7091 126.349 52.198 125.495 52.1259C125.404 52.1043 125.324 52.0523 125.268 51.9786C125.081 51.8313 125.364 51.6457 125.467 51.5279C125.636 51.3541 125.808 51.1833 125.973 51.0051C126.047 50.9364 126.112 50.8599 126.169 50.7768C126.207 50.6901 126.223 50.5956 126.216 50.5014C126.193 50.0595 125.592 50.1406 125.274 50.173C124.774 50.2201 124.263 50.2039 123.77 50.2922C123.328 50.3983 123.125 50.8048 122.904 51.1273C122.617 51.5456 122.338 51.9683 122.048 52.388C121.933 52.5574 121.791 52.5353 121.606 52.5353C121.148 52.5544 120.679 52.7886 121.153 53.226Z" fill="#292044"/>
<path d="M98.961 35.5571C99.0583 35.6961 99.1421 35.8441 99.2114 35.9989C99.2464 36.0477 99.2635 36.1069 99.26 36.1668C99.2368 36.2408 99.1953 36.3077 99.1393 36.3612C99.0223 36.474 98.8719 36.5458 98.7107 36.5659C98.4367 36.6086 98.2158 36.722 98.1687 36.9768C98.0523 37.6838 99.0111 37.5659 99.4677 37.5659C100.155 37.5041 100.87 37.5114 101.344 37.9282C101.425 37.9751 101.516 38.0038 101.609 38.0122C102.114 38.1359 102.615 38.267 103.126 38.3715C103.486 38.4686 103.867 38.4615 104.223 38.3509C104.183 38.3627 104.176 38.3657 104.223 38.3509C105.107 38.0564 104.432 38.2802 104.238 38.3509C105.323 37.9798 106.351 37.4511 107.465 37.1727C107.724 37.0951 107.966 36.9675 108.176 36.7971C108.612 36.4967 109.093 36.2689 109.602 36.1226C109.856 36.0682 110.106 35.9978 110.351 35.912C110.566 35.8007 110.762 35.6577 110.933 35.4879C111.198 35.2375 111.584 35.0637 111.755 34.7353C111.792 34.6351 111.711 34.5423 111.69 34.4496C111.656 34.244 111.702 34.0334 111.818 33.8604C111.92 33.6616 112.142 33.5099 112.25 33.3229C112.365 32.9738 111.297 32.9061 111.266 32.5379C111.238 32.3906 111.315 32.2242 111.291 32.0725C111.237 31.861 111.144 31.6616 111.016 31.4849C110.975 31.3885 110.917 31.3003 110.845 31.2242C110.802 31.1991 110.755 31.1833 110.706 31.178C110.657 31.1727 110.607 31.1779 110.561 31.1933C110.339 31.2676 110.097 31.2576 109.882 31.1653C109.424 30.7779 109.082 30.8398 108.611 31.1653C108.32 31.3718 107.992 31.5182 107.644 31.5958C107.296 31.6735 106.936 31.6808 106.586 31.6174C106.36 31.5713 106.126 31.5753 105.902 31.6292C105.665 31.6572 105.474 31.5732 105.244 31.5674C105.06 31.5683 104.878 31.6097 104.712 31.6886C104.546 31.7675 104.399 31.882 104.282 32.0239C104.232 32.0784 104.197 32.155 104.114 32.1712C104.036 32.1881 103.954 32.1881 103.876 32.1712C103.783 32.1506 103.728 32.0622 103.677 32.0018C103.624 31.9156 103.56 31.8365 103.487 31.7662C103.363 31.6704 103.104 31.7249 102.971 31.828C102.887 31.8985 102.82 31.9879 102.776 32.089C102.733 32.19 102.713 32.2999 102.72 32.4098C102.727 32.5836 102.743 32.7426 102.572 32.8973C102.341 33.1005 102.002 33.18 101.717 33.2802C101.63 33.1825 101.568 33.066 101.534 32.94C101.437 32.588 101.725 32.1771 101.484 31.8501C101.369 31.6734 101.16 31.5732 100.991 31.4392C100.435 30.9223 100.098 30.9576 99.4176 31.3391C99.397 31.3052 99.0347 31.4068 98.9758 31.423C98.8153 31.46 98.662 31.5232 98.5221 31.6101C98.0582 31.9812 97.6738 32.4333 97.2541 32.8501C97.1584 32.9503 97.0965 33.0092 97.1333 33.1255C97.1684 33.2232 97.2353 33.3062 97.3233 33.3612C97.444 33.4183 97.5802 33.4339 97.7106 33.4054C97.9079 33.3958 98.1021 33.3529 98.285 33.2787C98.6313 33.1859 98.9978 33.2034 99.3336 33.3288C99.4382 33.3612 99.6768 33.3921 99.6901 33.5055C99.7033 33.6189 99.5605 33.7117 99.4957 33.7898C99.429 33.8814 99.3535 33.9662 99.2703 34.0431C99.0082 34.2728 98.6311 34.2272 98.3101 34.2831C98.095 34.317 97.88 34.3583 97.665 34.401C97.5177 34.4319 97.3042 34.4334 97.2055 34.5585C97.1651 34.6004 97.1385 34.6536 97.1293 34.711C97.12 34.7684 97.1287 34.8272 97.1539 34.8796C97.2231 35.0269 97.3763 35.0269 97.5472 35.0593C98.0288 35.1668 98.6709 35.0917 98.961 35.5571Z" fill="#292044"/>
<path d="M39.4718 75.6237C39.4144 75.8829 39.2612 76.1746 39.3584 76.4352C39.4026 76.5324 39.5307 76.5825 39.6132 76.6385C40.0639 76.9625 40.6942 77.3071 41.2332 76.8255C41.4306 76.5869 41.5145 76.2659 41.6618 75.9934C41.8002 75.6075 42.1935 75.1878 41.9564 74.774C41.9152 74.6986 41.8658 74.6279 41.8091 74.5634C41.7811 74.5427 41.8091 74.5457 41.7605 74.5501C41.7395 74.5551 41.7188 74.5615 41.6986 74.5692C41.7443 74.5133 41.7679 74.5059 41.7222 74.4588C41.6263 74.3602 41.5047 74.2903 41.3712 74.2573C41.2376 74.2242 41.0975 74.2292 40.9667 74.2717C40.7811 74.31 40.7399 74.1407 40.8194 73.9772C40.9799 73.5795 41.3069 73.2938 41.625 73.0228C41.6868 72.9669 41.7723 72.9138 41.7855 72.8269C41.7938 72.7921 41.7937 72.7558 41.7853 72.721C41.7769 72.6862 41.7603 72.6538 41.7369 72.6267C41.5425 72.4131 41.1729 72.7945 40.9917 72.5854C40.6972 72.2481 41.41 71.8034 41.5248 71.4941C41.5614 71.3948 41.5755 71.2885 41.5661 71.1831C41.5567 71.0777 41.524 70.9756 41.4704 70.8844C41.3526 70.731 41.2103 70.5981 41.0491 70.4911C40.9794 70.4333 40.8935 70.3984 40.8032 70.391C40.6821 70.4042 40.5663 70.4472 40.4659 70.5162C40.0491 70.7636 39.5926 71.0184 39.0992 70.9403C38.9046 70.9309 38.713 70.8891 38.5322 70.8166C38.2376 70.6252 38.5322 70.1701 38.5115 69.8755C38.4777 69.3497 37.9224 69.4131 37.5307 69.4337C37.7854 68.9162 38.1509 68.4611 38.6014 68.1008C38.826 67.9199 39.0283 67.7127 39.2038 67.4837C39.3687 67.2584 39.5116 67.0198 39.6736 66.793C39.7524 66.6933 39.8032 66.5743 39.8208 66.4484C39.8356 66.3468 39.8503 66.2923 39.7634 66.2481C39.5649 66.1686 39.3434 66.1686 39.1448 66.2481C38.6268 66.4051 38.1479 66.6701 37.7398 67.0257C36.5837 68.1671 35.6013 69.4838 34.703 70.8358C34.2994 71.4897 33.7339 72.1215 33.0269 72.4072C32.9283 72.4499 32.8075 72.4867 32.7604 72.606C32.7457 72.6525 32.7415 72.7017 32.7478 72.75C32.7542 72.7984 32.771 72.8447 32.7972 72.8859C32.8681 72.9887 32.8973 73.1146 32.879 73.2381C32.8606 73.3617 32.7962 73.4737 32.6985 73.5516C32.4717 73.7901 32.2375 74.017 32.0196 74.2658C31.9802 74.298 31.9479 74.3379 31.9244 74.3829C31.9009 74.428 31.8868 74.4773 31.8829 74.528C31.8791 74.5787 31.8855 74.6296 31.9019 74.6777C31.9183 74.7258 31.9443 74.7701 31.9783 74.8078C32.4702 75.1024 33.0756 74.8476 33.6116 74.8682C34.2214 74.827 34.7692 75.0656 35.379 75.0361C35.6822 75.0099 35.9831 74.9607 36.2788 74.8888C36.7207 74.8417 37.0756 75.098 37.4571 75.2482C37.4909 75.2614 37.5705 75.2688 37.5837 75.3027C37.6249 75.4073 37.4909 75.5162 37.4276 75.5766C37.2185 75.802 36.6279 76.1819 37.0034 76.4956C37.1934 76.6164 37.4629 76.5501 37.6691 76.422C37.8753 76.2939 38.0152 76.042 38.2111 75.8741C38.5057 75.6282 38.8385 75.4824 39.1537 75.285C39.2612 75.2246 39.3569 75.1377 39.4556 75.0626C39.4924 75.0435 39.4954 75.0523 39.5278 75.0773C39.5602 75.1024 39.5867 75.1186 39.594 75.151C39.588 75.2206 39.5706 75.2888 39.5425 75.3528C39.5219 75.447 39.4968 75.5354 39.4718 75.6237Z" fill="#292044"/>
<path d="M119.116 57.6613C117.584 57.8277 117.612 58.2048 116.985 59.4286C116.865 59.6289 116.575 59.6422 116.372 59.6569C116.077 59.679 115.783 59.6864 115.488 59.7011C114.786 59.7143 114.715 59.9264 114.711 60.5774C114.731 61.0089 114.416 61.4758 114.667 61.8764C114.777 62.0502 114.961 62.1709 115.066 62.3447C115.446 63.0251 114.692 63.6496 114.32 64.1592C114.171 64.3402 113.998 64.4998 113.805 64.6334C113.681 64.7493 113.605 64.9065 113.59 65.0752C113.58 65.9928 114.68 66.3816 115.468 66.3742C116.541 66.3521 117.426 65.6702 118.398 65.2917C118.877 65.1136 119.374 64.9901 119.88 64.9235C120.315 64.7881 120.593 64.3241 120.795 63.9648C121.153 63.3626 121.273 62.6481 121.132 61.9618C121.071 61.7174 121.033 61.468 121.017 61.2166C121.053 60.9923 121.16 60.7856 121.323 60.6275C121.49 60.4419 121.711 60.3108 121.868 60.1194C121.994 59.9638 122.071 59.7747 122.09 59.5756C122.109 59.3766 122.068 59.1764 121.974 59C121.768 58.5906 121.533 58.1532 121.116 57.922C120.876 57.8174 120.597 57.8145 120.34 57.7747C119.936 57.7423 119.524 57.6569 119.116 57.6613Z" fill="#292044"/>
<path d="M26.2775 69.752C26.1714 69.7873 26.0094 69.802 25.924 69.8992C25.7473 70.1525 25.9932 70.3941 26.1582 70.562C26.4115 70.8786 26.6604 71.2277 27.0241 71.4236C27.4454 71.6401 27.9446 71.7063 28.4027 71.8242C28.5338 71.8551 28.6972 71.9317 28.8342 71.8433C28.9329 71.7829 29.1288 71.643 29.1391 71.5134C29.1494 71.3838 29.0404 71.2704 28.9785 71.182C28.4292 70.3735 27.5514 69.9199 26.5985 69.7902C26.8577 69.8123 27.0683 69.8212 26.2775 69.752Z" fill="#292044"/>
<g clip-path="url(#clip0_1141_74462)">
<path d="M51.7563 85.3467V153.59H188.244V85.3467H51.7563Z" fill="#012169"/>
<path d="M51.7563 85.3467L188.244 153.59L51.7563 85.3467ZM188.244 85.3467L51.7563 153.584L188.244 85.3467Z" fill="black"/>
<path d="M185.194 159.695L120 127.095L54.8065 159.695L48.7065 147.476L104.738 119.464L48.7065 91.4512L54.8065 79.2324L120 111.832L185.194 79.2324L191.294 91.4512L135.263 119.464L191.294 147.476L185.194 159.695Z" fill="white"/>
<path d="M51.7563 85.3467L188.244 153.59L51.7563 85.3467ZM188.244 85.3467L51.7563 153.584L188.244 85.3467Z" fill="black"/>
<path d="M186.206 157.656L120 124.544L53.7938 157.656L49.7188 149.512L109.831 119.462L49.7188 89.4123L53.7938 81.2686L120 114.381L186.206 81.2686L190.281 89.4123L130.169 119.462L190.281 149.512L186.206 157.656Z" fill="#C8102E"/>
<path d="M120 85.3467V153.59V85.3467ZM51.7563 119.465H188.244H51.7563Z" fill="black"/>
<path d="M131.375 153.584H108.625V130.84H51.7563V108.09H108.625V85.3467H131.375V108.09H188.244V130.84H131.375V153.584Z" fill="white"/>
<path d="M120 85.3467V153.59V85.3467ZM51.7563 119.465H188.244H51.7563Z" fill="black"/>
<path d="M126.825 153.584H113.175V126.29H51.7563V112.64H113.175V85.3467H126.825V112.64H188.244V126.29H126.825V153.584Z" fill="#C8102E"/>
</g>
<defs>
<clipPath id="clip0_1141_74462">
<path d="M60 89.5234C60 87.4194 61.7056 85.7139 63.8095 85.7139H176.19C178.294 85.7139 180 87.4194 180 89.5234V149.404C180 151.508 178.294 153.214 176.19 153.214H63.8095C61.7056 153.214 60 151.508 60 149.404V89.5234Z" fill="white"/>
</clipPath>
</defs>
</svg>
