<svg width="33" height="33" viewBox="0 0 33 33" fill="none" xmlns="http://www.w3.org/2000/svg">
<rect x="0.25" y="0.989502" width="32" height="32" rx="16" fill="#3E85C8"/>
<path d="M15.6411 10.8895H13.9131L12.4011 15.4795L10.8171 10.8895H9.03509L11.4111 17.0275L8.83709 23.4895H10.5831L12.3291 18.5395L14.1471 23.4895H15.9111L13.3731 17.0455L15.6411 10.8895ZM20.285 10.8895H17.135V23.4895H18.827V18.4675H20.285C22.193 18.4675 23.345 17.6575 23.345 15.8035V13.5535C23.345 11.6995 22.193 10.8895 20.285 10.8895ZM21.653 15.4795C21.653 16.5775 21.149 16.9555 20.213 16.9555H18.827V12.3835H20.213C21.149 12.3835 21.653 12.7615 21.653 13.8775V15.4795Z" fill="white"/>
</svg>
