<svg width="212" height="266" viewBox="0 0 212 266" fill="none" xmlns="http://www.w3.org/2000/svg">
  <path opacity="0.5" fill-rule="evenodd" clip-rule="evenodd" d="M155.375 43.0185C150.041 39.9393 150.041 32.2413 155.375 29.1621L207.502 -0.933847C212.836 -4.01305 219.502 -0.164041 219.502 5.99436L219.502 66.1863C219.502 72.3447 212.836 76.1936 207.502 73.1144L155.375 43.0185ZM74.1714 86.1575C68.8381 83.0783 68.8381 75.3803 74.1714 72.3011L126.299 42.2052C131.632 39.126 138.299 42.975 138.299 49.1334L138.299 109.325C138.299 115.484 131.632 119.333 126.299 116.253L74.1714 86.1575ZM222.728 107.827C228.061 110.907 228.061 118.605 222.728 121.684L170.6 151.78C165.267 154.859 158.6 151.01 158.6 144.852V84.6596C158.6 78.5012 165.267 74.6522 170.6 77.7314L222.728 107.827ZM-7.03126 130.565C-12.3646 127.486 -12.3646 119.788 -7.03124 116.709L45.0965 86.613C50.4298 83.5338 57.0965 87.3828 57.0965 93.5412L57.0965 153.733C57.0965 159.892 50.4298 163.741 45.0965 160.661L-7.03126 130.565ZM141.525 166.092C146.858 163.012 146.858 155.314 141.525 152.235L89.3971 122.139C84.0637 119.06 77.3971 122.909 77.3971 129.067V189.259C77.3971 195.418 84.0637 199.267 89.3971 196.188L141.525 166.092ZM60.3221 209.231C65.6555 206.151 65.6555 198.453 60.3222 195.374L8.19444 165.278C2.8611 162.199 -3.80556 166.048 -3.80556 172.206L-3.80556 232.398C-3.80556 238.557 2.86109 242.406 8.19443 239.327L60.3221 209.231ZM155.375 195.016C150.041 191.937 150.041 184.239 155.375 181.159L207.502 151.063C212.836 147.984 219.502 151.833 219.502 157.992L219.502 218.184C219.502 224.342 212.836 228.191 207.502 225.112L155.375 195.016ZM74.1714 238.155C68.8381 235.076 68.8381 227.378 74.1714 224.298L126.299 194.202C131.632 191.123 138.299 194.972 138.299 201.131L138.299 261.323C138.299 267.481 131.632 271.33 126.299 268.251L74.1714 238.155ZM222.728 259.825C228.061 262.904 228.061 270.602 222.728 273.681L170.6 303.777C165.267 306.856 158.6 303.007 158.6 296.849V236.657C158.6 230.498 165.267 226.649 170.6 229.729L222.728 259.825ZM-7.03126 282.563C-12.3646 279.483 -12.3646 271.785 -7.03124 268.706L45.0965 238.61C50.4298 235.531 57.0965 239.38 57.0965 245.538L57.0965 305.73C57.0965 311.889 50.4298 315.738 45.0965 312.659L-7.03126 282.563ZM141.525 318.089C146.858 315.01 146.858 307.312 141.525 304.232L89.3971 274.137C84.0637 271.057 77.3971 274.906 77.3971 281.065V341.257C77.3971 347.415 84.0637 351.264 89.3971 348.185L141.525 318.089ZM60.3221 361.228C65.6555 358.149 65.6555 350.451 60.3222 347.371L8.19444 317.276C2.8611 314.196 -3.80556 318.045 -3.80556 324.204L-3.80556 384.396C-3.80556 390.554 2.86109 394.403 8.19443 391.324L60.3221 361.228Z" fill="url(#paint0_linear)"/>
  <defs>
    <linearGradient id="paint0_linear" x1="10.5878" y1="204.218" x2="120.194" y2="400.764" gradientUnits="userSpaceOnUse">
      <stop stop-color="#7C277E"/>
      <stop offset="1" stop-color="#D92779"/>
    </linearGradient>
  </defs>
</svg>
