<svg width="30" height="30" viewBox="0 0 30 30" fill="none" xmlns="http://www.w3.org/2000/svg">
<rect x="1" y="1" width="28" height="28" rx="14" fill="#DD2678" stroke="#DD2678" stroke-width="2"/>
<path d="M9.01993 20.8232L9 8.34657C9 8.15403 9.1794 8 9.37874 8H9.67774C9.87708 8 10.0166 8.13478 10.1761 8.28881L17.8505 15.0945V15.3936V11.5256C17.8505 11.333 18.01 11.1597 18.2292 11.1597H20.6213C20.8206 11.1597 21 11.333 21 11.5256V21.035C21 21.2661 20.8206 21.3816 20.6213 21.3816H20.4219C20.2226 21.3816 20.0831 21.3238 19.9236 21.1698L12.1495 14.5244V20.8232C12.1495 21.0158 11.99 21.1891 11.7708 21.1891H9.39867C9.19934 21.1891 9.01993 21.0158 9.01993 20.8232Z" fill="#F4D8E9"/>
</svg>
