<svg width="1010" height="66" viewBox="0 0 1010 66" fill="none" xmlns="http://www.w3.org/2000/svg">
  <mask id="mask0_895_9402" style="mask-type:alpha" maskUnits="userSpaceOnUse" x="-1" y="0" width="1011" height="98">
    <path d="M-0.000427246 12C-0.000427246 5.37258 5.37216 0 11.9996 0H998C1004.63 0 1010 5.37258 1010 12V86C1010 92.6274 1004.63 98 998 98H11.9996C5.37214 98 -0.000427246 92.6274 -0.000427246 86V12Z" fill="url(#paint0_linear_895_9402)"/>
  </mask>
  <g mask="url(#mask0_895_9402)">
    <path opacity="0.5" fill-rule="evenodd" clip-rule="evenodd" d="M-3.68582 34.6215C-5.37936 35.1679 -7.20184 35.1679 -8.89538 34.6215L-96.2901 6.42662C-105.494 3.45723 -103.357 -10.131 -93.6853 -10.131L81.1041 -10.131C90.7753 -10.131 92.913 3.45723 83.7089 6.42662L-3.68582 34.6215ZM135.023 83.2542C133.329 83.8006 131.507 83.8006 129.813 83.2542L42.4184 55.0593C33.2143 52.0899 35.3519 38.5017 45.0231 38.5017L219.813 38.5017C229.484 38.5017 231.621 52.0899 222.417 55.0593L135.023 83.2542ZM244.042 -18.4088C245.735 -18.9552 247.558 -18.9552 249.251 -18.4088L336.646 9.78607C345.85 12.7555 343.712 26.3437 334.041 26.3437L159.252 26.3437C149.581 26.3437 147.443 12.7555 156.647 9.78607L244.042 -18.4088ZM277.81 131.886C276.117 132.432 274.294 132.432 272.601 131.886L185.206 103.691C176.002 100.722 178.14 87.1335 187.811 87.1335L362.6 87.1335C372.272 87.1335 374.409 100.722 365.205 103.691L277.81 131.886ZM392.037 30.2231C390.344 29.6768 388.521 29.6768 386.828 30.2231L299.433 58.418C290.229 61.3874 292.366 74.9757 302.038 74.9757L476.827 74.9757C486.498 74.9757 488.636 61.3874 479.432 58.418L392.037 30.2231ZM530.746 78.8549C529.052 78.3085 527.23 78.3085 525.536 78.8549L438.141 107.05C428.937 110.019 431.075 123.607 440.746 123.607L615.535 123.607C625.207 123.607 627.344 110.019 618.14 107.05L530.746 78.8549ZM485.041 34.6216C483.347 35.1679 481.525 35.1679 479.831 34.6216L392.437 6.42664C383.232 3.45725 385.37 -10.131 395.041 -10.131L569.831 -10.131C579.502 -10.131 581.64 3.45725 572.435 6.42664L485.041 34.6216ZM623.75 83.2543C622.056 83.8006 620.234 83.8006 618.54 83.2543L531.146 55.0594C521.941 52.09 524.079 38.5017 533.75 38.5017L708.54 38.5017C718.211 38.5017 720.349 52.09 711.144 55.0594L623.75 83.2543ZM732.769 -18.4088C734.462 -18.9552 736.285 -18.9552 737.978 -18.4088L825.373 9.7861C834.577 12.7555 832.44 26.3438 822.768 26.3438L647.979 26.3438C638.308 26.3438 636.17 12.7555 645.374 9.7861L732.769 -18.4088ZM766.538 131.886C764.845 132.432 763.022 132.432 761.328 131.886L673.934 103.691C664.73 100.722 666.867 87.1335 676.539 87.1335L851.328 87.1335C860.999 87.1335 863.137 100.722 853.933 103.691L766.538 131.886ZM880.764 30.2231C879.071 29.6768 877.248 29.6768 875.555 30.2232L788.16 58.418C778.956 61.3874 781.093 74.9757 790.765 74.9757L965.554 74.9757C975.225 74.9757 977.363 61.3874 968.159 58.418L880.764 30.2231ZM1019.47 78.8549C1017.78 78.3085 1015.96 78.3085 1014.26 78.8549L926.869 107.05C917.665 110.019 919.802 123.607 929.474 123.607L1104.26 123.607C1113.93 123.607 1116.07 110.019 1106.87 107.05L1019.47 78.8549Z" fill="url(#paint1_linear_895_9402)"/>
  </g>
  <defs>
    <linearGradient id="paint0_linear_895_9402" x1="91.8371" y1="21.9257" x2="97.3492" y2="125.795" gradientUnits="userSpaceOnUse">
      <stop stop-color="#D92779"/>
      <stop offset="1" stop-color="#7C277E"/>
    </linearGradient>
    <linearGradient id="paint1_linear_895_9402" x1="533.083" y1="118.555" x2="628.658" y2="-139.751" gradientUnits="userSpaceOnUse">
      <stop stop-color="#7C277E"/>
      <stop offset="1" stop-color="#D92779"/>
    </linearGradient>
  </defs>
</svg>
