<svg width="156" height="156" viewBox="0 0 156 156" fill="none" xmlns="http://www.w3.org/2000/svg">
<path d="M132.061 29.1987C122.118 24.7096 111.455 21.4022 100.307 19.5079C100.104 19.4714 99.9015 19.5627 99.7969 19.7455C98.4257 22.1453 96.9068 25.276 95.8431 27.7367C83.8526 25.9704 71.9237 25.9704 60.1791 27.7367C59.1152 25.2213 57.5412 22.1453 56.1637 19.7455C56.0592 19.5688 55.8563 19.4775 55.6533 19.5079C44.5114 21.3962 33.8491 24.7035 23.9001 29.1987C23.8139 29.2352 23.7401 29.2962 23.6911 29.3753C3.46705 59.1052 -2.07318 88.1044 0.644671 116.744C0.656968 116.884 0.736904 117.018 0.847587 117.103C14.1909 126.745 27.1161 132.599 39.8013 136.479C40.0043 136.54 40.2194 136.467 40.3486 136.302C43.3493 132.27 46.0242 128.019 48.3176 123.548C48.4529 123.286 48.3237 122.975 48.0471 122.872C43.8044 121.288 39.7644 119.357 35.8782 117.164C35.5709 116.988 35.5462 116.555 35.829 116.348C36.6468 115.745 37.4648 115.118 38.2457 114.484C38.387 114.369 38.5839 114.344 38.75 114.417C64.2803 125.887 91.92 125.887 117.149 114.417C117.315 114.338 117.512 114.362 117.66 114.478C118.441 115.112 119.258 115.745 120.082 116.348C120.365 116.555 120.347 116.988 120.039 117.164C116.153 119.4 112.113 121.288 107.864 122.865C107.588 122.969 107.465 123.286 107.6 123.548C109.943 128.012 112.618 132.264 115.563 136.296C115.686 136.467 115.907 136.54 116.11 136.479C128.857 132.599 141.782 126.745 155.125 117.103C155.242 117.018 155.316 116.89 155.328 116.75C158.581 83.6396 149.88 54.8782 132.263 29.3813C132.22 29.2962 132.147 29.2352 132.061 29.1987ZM52.1301 99.3055C44.4437 99.3055 38.1104 92.362 38.1104 83.8346C38.1104 75.3072 44.3209 68.3636 52.1301 68.3636C60.0007 68.3636 66.2728 75.3681 66.1497 83.8346C66.1497 92.362 59.9392 99.3055 52.1301 99.3055ZM103.966 99.3055C96.2797 99.3055 89.9463 92.362 89.9463 83.8346C89.9463 75.3072 96.1566 68.3636 103.966 68.3636C111.837 68.3636 118.108 75.3681 117.986 83.8346C117.986 92.362 111.837 99.3055 103.966 99.3055Z" fill="white"/>
</svg>
