<svg width="226" height="44" viewBox="0 0 226 44" fill="none" xmlns="http://www.w3.org/2000/svg">
<path d="M47.8283 3.78247C44.1734 2.07019 40.2655 0.82577 36.1798 0.117188C35.6781 1.02557 35.0918 2.24735 34.6877 3.21928C30.3445 2.56526 26.0413 2.56526 21.778 3.21928C21.374 2.24735 20.7744 1.02557 20.2682 0.117188C16.1781 0.82577 12.2657 2.07476 8.61083 3.79154C1.23896 14.9462 -0.759433 25.8238 0.239765 36.5469C5.12918 40.2031 9.86761 42.4241 14.5261 43.8774C15.6763 42.2923 16.7021 40.6073 17.5858 38.8315C15.9027 38.1911 14.2907 37.4008 12.7675 36.4834C13.1716 36.1836 13.5669 35.8702 13.9488 35.5477C23.2391 39.8988 33.3332 39.8988 42.5125 35.5477C42.8989 35.8702 43.2941 36.1836 43.6938 36.4834C42.1661 37.4053 40.5497 38.1956 38.8666 38.836C39.7503 40.6073 40.7717 42.2969 41.9263 43.8819C46.5893 42.4285 51.3321 40.2076 56.2215 36.5469C57.3939 24.1161 54.2187 13.3384 47.8283 3.78247ZM18.8515 29.9523C16.0626 29.9523 13.7756 27.3453 13.7756 24.1706C13.7756 20.9958 16.0138 18.3843 18.8515 18.3843C21.6893 18.3843 23.9763 20.9913 23.9274 24.1706C23.9319 27.3453 21.6893 29.9523 18.8515 29.9523ZM37.6098 29.9523C34.821 29.9523 32.5339 27.3453 32.5339 24.1706C32.5339 20.9958 34.772 18.3843 37.6098 18.3843C40.4475 18.3843 42.7346 20.9913 42.6858 24.1706C42.6858 27.3453 40.4475 29.9523 37.6098 29.9523Z" fill="white"/>
<path d="M75.872 11.2812H87.9953C90.9178 11.2812 93.3868 11.749 95.4122 12.6801C97.4323 13.6111 98.947 14.9101 99.9508 16.5724C100.954 18.2347 101.46 20.1377 101.46 22.2814C101.46 24.3798 100.936 26.2828 99.8881 27.9859C98.8402 29.6936 97.2458 31.0426 95.1011 32.0372C92.9564 33.0319 90.3001 33.5314 87.1253 33.5314H75.872V11.2812ZM87.0007 27.8769C88.9681 27.8769 90.4828 27.3728 91.5393 26.369C92.5965 25.3608 93.1251 23.9892 93.1251 22.2497C93.1251 20.6373 92.6538 19.3519 91.7127 18.3891C90.7715 17.4262 89.3458 16.9403 87.4403 16.9403H83.6479V27.8769H87.0007Z" fill="white"/>
<path d="M119.611 33.5048C117.932 33.0597 116.417 32.4147 115.072 31.5654V26.2879C116.089 27.0917 117.452 27.7549 119.162 28.2772C120.871 28.7949 122.524 29.0538 124.122 29.0538C124.868 29.0538 125.432 28.9539 125.814 28.754C126.196 28.5542 126.387 28.3135 126.387 28.0365C126.387 27.7185 126.285 27.4551 126.076 27.2416C125.867 27.0282 125.463 26.851 124.864 26.7011L121.134 25.8427C118.998 25.3341 117.483 24.6301 116.582 23.7263C115.68 22.827 115.231 21.6461 115.231 20.1837C115.231 18.9528 115.622 17.8856 116.413 16.9726C117.199 16.0598 118.318 15.3557 119.77 14.8607C121.223 14.3611 122.918 14.1113 124.868 14.1113C126.609 14.1113 128.203 14.3021 129.656 14.6836C131.108 15.0651 132.307 15.551 133.262 16.146V21.1375C132.284 20.5425 131.165 20.0747 129.887 19.7204C128.612 19.3707 127.302 19.1981 125.952 19.1981C124.002 19.1981 123.03 19.5387 123.03 20.2155C123.03 20.5334 123.181 20.7696 123.483 20.9285C123.785 21.0875 124.339 21.251 125.144 21.4236L128.252 21.9959C130.282 22.3547 131.796 22.986 132.79 23.8852C133.786 24.7846 134.283 26.1153 134.283 27.8775C134.283 29.8077 133.462 31.3383 131.814 32.4738C130.166 33.6092 127.83 34.1769 124.802 34.1769C123.021 34.1724 121.289 33.9499 119.611 33.5048Z" fill="white"/>
<path d="M141.62 32.8365C139.84 31.9463 138.494 30.7382 137.597 29.2122C136.7 27.6861 136.247 25.9693 136.247 24.0617C136.247 22.1542 136.713 20.4465 137.646 18.9432C138.578 17.4398 139.946 16.259 141.749 15.4006C143.552 14.5422 145.706 14.1152 148.215 14.1152C151.323 14.1152 153.904 14.7829 155.955 16.1181V21.9362C155.232 21.4275 154.387 21.0142 153.424 20.6963C152.46 20.3784 151.43 20.2194 150.329 20.2194C148.402 20.2194 146.896 20.5782 145.808 21.3003C144.72 22.0225 144.174 22.9626 144.174 24.1299C144.174 25.2744 144.702 26.21 145.759 26.9458C146.816 27.677 148.348 28.0449 150.36 28.0449C151.394 28.0449 152.416 27.8905 153.424 27.5862C154.428 27.2774 155.294 26.9004 156.017 26.4552V32.0825C153.74 33.4814 151.097 34.1808 148.09 34.1808C145.559 34.1718 143.401 33.7267 141.62 32.8365Z" fill="white"/>
<path d="M163.709 32.8378C161.915 31.9476 160.547 30.7304 159.606 29.1816C158.664 27.6329 158.189 25.907 158.189 23.9994C158.189 22.0919 158.66 20.3887 159.606 18.8945C160.551 17.4002 161.91 16.2284 163.696 15.3791C165.476 14.5298 167.604 14.1074 170.068 14.1074C172.533 14.1074 174.66 14.5298 176.441 15.3791C178.222 16.2284 179.581 17.3912 180.514 18.8763C181.446 20.3615 181.912 22.0647 181.912 23.995C181.912 25.9025 181.446 27.6284 180.514 29.1771C179.581 30.7258 178.217 31.943 176.423 32.8332C174.629 33.7234 172.511 34.1685 170.064 34.1685C167.617 34.1685 165.499 33.7279 163.709 32.8378ZM173.155 27.1969C173.91 26.4248 174.292 25.4029 174.292 24.1312C174.292 22.8595 173.914 21.8466 173.155 21.0972C172.4 20.3433 171.369 19.9663 170.064 19.9663C168.736 19.9663 167.697 20.3433 166.937 21.0972C166.183 21.8512 165.805 22.8595 165.805 24.1312C165.805 25.4029 166.183 26.4248 166.937 27.1969C167.693 27.969 168.736 28.3596 170.064 28.3596C171.369 28.355 172.4 27.969 173.155 27.1969Z" fill="white"/>
<path d="M200.59 15.2884V22.1556C199.8 21.6242 198.779 21.3607 197.513 21.3607C195.856 21.3607 194.577 21.874 193.689 22.9004C192.797 23.9269 192.352 25.5256 192.352 27.6874V33.5373H184.736V14.9387H192.198V20.8521C192.61 18.6902 193.281 17.0961 194.204 16.065C195.124 15.0386 196.314 14.5254 197.762 14.5254C198.858 14.5254 199.8 14.7797 200.59 15.2884Z" fill="white"/>
<path d="M225.895 10.6465V33.5371H218.278V29.3723C217.634 30.9392 216.657 32.1337 215.343 32.9512C214.028 33.7643 212.403 34.173 210.476 34.173C208.753 34.173 207.252 33.7461 205.968 32.8877C204.685 32.0293 203.695 30.853 202.998 29.3587C202.305 27.8644 201.953 26.1749 201.953 24.2856C201.932 22.3371 202.3 20.5885 203.059 19.0397C203.815 17.491 204.884 16.2829 206.261 15.4154C207.638 14.5479 209.21 14.1119 210.973 14.1119C214.602 14.1119 217.035 15.7242 218.278 18.9443V10.6465H225.895ZM217.142 27.0697C217.919 26.2975 218.305 25.2938 218.305 24.0675C218.305 22.8821 217.927 21.9147 217.173 21.1744C216.417 20.4341 215.383 20.0617 214.082 20.0617C212.798 20.0617 211.773 20.4386 211.004 21.1925C210.236 21.9465 209.854 22.923 209.854 24.1311C209.854 25.3392 210.236 26.3248 211.004 27.0878C211.773 27.8508 212.785 28.2323 214.051 28.2323C215.334 28.2278 216.364 27.8417 217.142 27.0697Z" fill="white"/>
<path d="M107.878 16.9176C109.975 16.9176 111.675 15.3559 111.675 13.4294C111.675 11.503 109.975 9.94141 107.878 9.94141C105.78 9.94141 104.081 11.503 104.081 13.4294C104.081 15.3559 105.78 16.9176 107.878 16.9176Z" fill="white"/>
<path d="M104.078 19.3203C106.404 20.3467 109.291 20.3921 111.671 19.3203V33.636H104.078V19.3203Z" fill="white"/>
</svg>
