<svg width="18" height="18" viewBox="0 0 18 18" fill="none" xmlns="http://www.w3.org/2000/svg">
<path fill-rule="evenodd" clip-rule="evenodd" d="M6.50009 0.650391C6.96953 0.650391 7.35009 1.03095 7.35009 1.50039V2.31706H9.60985C9.61986 2.31688 9.6299 2.31688 9.63996 2.31706H11.5001C11.9695 2.31706 12.3501 2.69762 12.3501 3.16706C12.3501 3.6365 11.9695 4.01706 11.5001 4.01706H10.3285C9.85725 6.20674 8.93408 8.2279 7.66156 9.97825L8.08249 10.615C8.32469 10.9813 8.2479 11.4719 7.90532 11.7467C7.56275 12.0216 7.0672 11.9902 6.76207 11.6743C6.67357 11.5827 6.58622 11.49 6.50004 11.3964C5.19155 12.8185 3.62644 14.0006 1.8783 14.8691C1.45789 15.078 0.947747 14.9065 0.738869 14.4861C0.52999 14.0657 0.701471 13.5555 1.12188 13.3467C2.75417 12.5357 4.20734 11.4188 5.40665 10.0712C4.66756 9.06959 4.04743 7.98248 3.56058 6.83153C3.38948 6.42704 3.55471 5.9588 3.94178 5.75127C4.32885 5.54374 4.81028 5.66527 5.05249 6.03164L6.652 8.45114C7.5344 7.11404 8.19588 5.61861 8.58461 4.01706H1.50009C1.03065 4.01706 0.65009 3.6365 0.65009 3.16706C0.65009 2.69762 1.03065 2.31706 1.50009 2.31706H5.65009V1.50039C5.65009 1.03095 6.03065 0.650391 6.50009 0.650391ZM12.3334 7.31706C12.6554 7.31706 12.9497 7.49896 13.0937 7.78693L16.0027 13.605C16.0082 13.6154 16.0135 13.626 16.0186 13.6367L17.2604 16.1203C17.4703 16.5401 17.3001 17.0507 16.8802 17.2607C16.4603 17.4706 15.9498 17.3004 15.7398 16.8805L14.7248 14.8504H9.94209L8.92702 16.8805C8.71708 17.3004 8.20651 17.4706 7.78662 17.2607C7.36674 17.0507 7.19655 16.5401 7.40649 16.1203L8.64826 13.6367C8.65334 13.626 8.65863 13.6154 8.66414 13.605L11.5732 7.78693C11.7171 7.49896 12.0115 7.31706 12.3334 7.31706ZM10.7921 13.1504H13.8748L12.3334 10.0677L10.7921 13.1504Z" fill="#4FD1E3"/>
</svg>
