<svg width="20" height="20" viewBox="0 0 20 20" fill="none" xmlns="http://www.w3.org/2000/svg">
<path d="M10.0007 10.0013C9.08398 10.0013 8.33398 9.2513 8.33398 8.33464C8.33398 7.41797 9.08398 6.66797 10.0007 6.66797C10.9173 6.66797 11.6673 7.41797 11.6673 8.33464C11.6673 9.2513 10.9173 10.0013 10.0007 10.0013ZM15.0007 8.5013C15.0007 5.4763 12.7923 3.33464 10.0007 3.33464C7.20898 3.33464 5.00065 5.4763 5.00065 8.5013C5.00065 10.4513 6.62565 13.0346 10.0007 16.118C13.3757 13.0346 15.0007 10.4513 15.0007 8.5013ZM10.0007 1.66797C13.5006 1.66797 16.6673 4.3513 16.6673 8.5013C16.6673 11.268 14.4423 14.543 10.0007 18.3346C5.55898 14.543 3.33398 11.268 3.33398 8.5013C3.33398 4.3513 6.50065 1.66797 10.0007 1.66797Z" fill="#3E85C8"/>
</svg>
