<svg width="24" height="24" viewBox="0 0 24 24" fill="none" xmlns="http://www.w3.org/2000/svg">
<path fill-rule="evenodd" clip-rule="evenodd" d="M10 16.75H5.375C4.61681 16.75 4 16.1332 4 15.375V6.625C4 5.86681 4.61681 5.25 5.375 5.25H12.5059C12.5693 4.55022 13.159 4 13.875 4H18.625C19.3832 4 20 4.61681 20 5.375V18.625C20 19.3832 19.3832 20 18.625 20H14.5H13.875H8.25C7.83578 20 7.5 19.6642 7.5 19.25C7.5 18.8358 7.83578 18.5 8.25 18.5H10V16.75ZM12.5 16.75H11.5V18.5H12.5V16.75ZM18.5 5.5H14V18.5H14.5H18.5V5.5ZM12.5 6.75H5.5V15.25H12.5V6.75ZM17 7.75H15.5C15.0858 7.75 14.75 7.41422 14.75 7C14.75 6.58578 15.0858 6.25 15.5 6.25H17C17.4142 6.25 17.75 6.58578 17.75 7C17.75 7.41422 17.4142 7.75 17 7.75ZM15.5 10H17C17.4142 10 17.75 9.66422 17.75 9.25C17.75 8.83578 17.4142 8.5 17 8.5H15.5C15.0858 8.5 14.75 8.83578 14.75 9.25C14.75 9.66422 15.0858 10 15.5 10ZM17 17.5H15.5C15.0858 17.5 14.75 17.1642 14.75 16.75C14.75 16.3358 15.0858 16 15.5 16H17C17.4142 16 17.75 16.3358 17.75 16.75C17.75 17.1642 17.4142 17.5 17 17.5Z" fill="#91C426"/>
</svg>
