<svg width="24" height="24" viewBox="0 0 24 24" fill="none" xmlns="http://www.w3.org/2000/svg">
<path d="M21.9415 9.25687C22.3336 8.73449 22.3953 8.04713 22.103 7.46261C21.8108 6.87767 21.2233 6.51428 20.5706 6.51428H17.0815C17.0815 4.54297 16.2249 4.54297 15.4283 4.54297H8.57176C7.77512 4.54297 6.85764 4.54297 6.91849 6.51428H3.42939C2.77674 6.51428 2.18923 6.87767 1.89697 7.46304C1.60471 8.04713 1.66642 8.73492 2.05852 9.2573C2.07267 9.27616 2.08766 9.29458 2.10309 9.31258L3.42511 10.7996L2.10309 12.287C2.08766 12.305 2.07267 12.3234 2.05852 12.3423C1.66642 12.8647 1.60471 13.552 1.89697 14.1366C2.18923 14.7215 2.77674 15.0849 3.42939 15.0849H6.97334C7.04491 15.2087 7.14647 15.315 7.27331 15.3913L11.5586 19.3339C11.6949 19.4153 11.8475 19.456 12 19.456C12.1526 19.456 12.3051 19.4153 12.441 19.3339L16.7263 15.3913C16.8531 15.3154 16.9547 15.2087 17.0262 15.0849H20.5706C21.2233 15.0849 21.8108 14.7215 22.103 14.1361C22.3953 13.552 22.3336 12.8642 21.9415 12.3419C21.9273 12.323 21.9123 12.3046 21.8969 12.2866L20.5749 10.7996L21.8969 9.31215C21.9123 9.29415 21.9273 9.27573 21.9415 9.25687ZM4.80155 9.77239C4.78698 9.75311 4.77155 9.73426 4.7557 9.71583L3.43368 8.2284H6.85764V13.3708H3.43368L4.7557 11.8833C4.77155 11.8649 4.78698 11.8461 4.80155 11.8268C5.25322 11.2217 5.25322 10.3775 4.80155 9.77239ZM12 17.2568L8.57176 14.1708L8.57048 6.69719C8.57048 6.69334 8.57176 6.68948 8.57176 6.68562C8.57176 6.68177 8.57048 6.67791 8.57048 6.67405V6.25709H15.4283V14.1708L12 17.2568ZM19.1985 11.8268C19.213 11.8461 19.2285 11.8649 19.2443 11.8833L20.5663 13.3708H17.1424V8.2284H20.5663L19.2443 9.71583C19.2285 9.73426 19.213 9.75311 19.1985 9.77239C18.7468 10.3775 18.7468 11.2217 19.1985 11.8268Z" fill="#E34F4F"/>
</svg>
