<svg width="829" height="506" xmlns="http://www.w3.org/2000/svg" fill="none">
 <defs>
  <linearGradient y2="0.97907" x2="0.65322" y1="0.22373" x1="0.09093" id="paint0_linear_6_3993">
   <stop stop-color="#D92779"/>
   <stop stop-color="#7C277E" offset="1"/>
  </linearGradient>
  <linearGradient y2="1.04271" x2="0.73" y1="0.47023" x1="-0.01566" id="paint1_linear_6_3993">
   <stop stop-color="#D92779"/>
   <stop stop-color="#7C277E" offset="1"/>
  </linearGradient>
  <linearGradient y2="0.02093" x2="0.34678" y1="0.77627" x1="0.90907" id="paint2_linear_6_3993">
   <stop stop-color="#D92779"/>
   <stop stop-color="#7C277E" offset="1"/>
  </linearGradient>
  <linearGradient y2="0.34943" x2="0.98052" y1="0.90907" x1="0.22373" id="paint3_linear_6_3993">
   <stop stop-color="#D92779"/>
   <stop stop-color="#7C277E" offset="1"/>
  </linearGradient>
  <linearGradient y2="0.48908" x2="-0.50087" y1="1.12407" x1="0.85317" id="paint4_linear_6_3993">
   <stop stop-color="#D92779"/>
   <stop stop-color="#7C277E" offset="1"/>
  </linearGradient>
  <linearGradient y2="0.69255" x2="-0.27355" y1="0.86541" x1="1.03244" id="paint5_linear_6_3993">
   <stop stop-color="#D92779"/>
   <stop stop-color="#7C277E" offset="1"/>
  </linearGradient>
 </defs>
 <g>
  <title>Layer 1</title>
  <path id="svg_1" fill="url(#paint0_linear_6_3993)" d="m417.228,122.09285c-8.304,-5.059 -8.304,-17.127 0,-22.186l82.058,-49.994c8.644,-5.266 19.714,0.963 19.714,11.093l0,99.988c0,10.13 -11.07,16.359 -19.714,11.093l-82.058,-49.994z" opacity="0.5"/>
  <path id="svg_2" fill="url(#paint1_linear_6_3993)" d="m62.26496,77.66011c-13.0241,-2.615 -18.6629,-18.107 -10.3666,-28.482l81.9856,-102.52519c8.636,-10.79957 25.758,-7.97532 30.492,5.02949l46.721,128.3647c4.733,13.004 -6.568,26.174 -20.125,23.452l-128.707,-25.839z" opacity="0.5"/>
  <path id="svg_3" fill="url(#paint2_linear_6_3993)" d="m64.8102,454.25585c6.9197,4.216 6.9197,14.272 0,18.488l-68.3821,41.662c-7.203,4.388 -16.4281,-0.803 -16.4281,-9.244l0,-83.324c0,-8.441 9.2251,-13.632 16.4281,-9.244l68.3821,41.662z" opacity="0.5"/>
  <path id="svg_4" fill="url(#paint3_linear_6_3993)" d="m786.804,475.04101c-4.015,6.612 -13.593,6.612 -17.608,0l-39.678,-65.343c-4.179,-6.883 0.764,-15.698 8.804,-15.698l79.356,0c8.04,0 12.983,8.815 8.804,15.698l-39.678,65.343z" opacity="0.5"/>
  <path id="svg_5" fill="url(#paint4_linear_6_3993)" d="m559.012,70.55463c3.86,-2.335 3.86,-7.933 0,-10.268l-13.907,-8.411c-3.999,-2.419 -9.105,0.46 -9.105,5.134l0,16.822c0,4.674 5.106,7.553 9.105,5.134l13.907,-8.411z" opacity="0.5"/>
  <path id="svg_6" fill="url(#paint5_linear_6_3993)" d="m288.89628,17.75043c5.641,-7.0246 1.818,-17.5282 -7.019,-19.2835l-56.521,-11.2277c-9.174,-1.8223 -16.814,7.0854 -13.615,15.8743l20.441,56.1605c3.199,8.788 14.777,10.701 20.633,3.409l36.081,-44.9326z" opacity="0.5"/>
 </g>
</svg>