<svg width="514" height="312" viewBox="0 0 514 312" fill="none" xmlns="http://www.w3.org/2000/svg">
<mask id="mask0_2099_57306" style="mask-type:alpha" maskUnits="userSpaceOnUse" x="374" y="32" width="123" height="238">
<path d="M478.93 32.9668H392.263C382.559 32.9668 374.62 40.9016 374.62 50.5997V251.394C374.62 261.092 382.559 269.027 392.263 269.027H478.71C488.413 269.027 496.352 261.092 496.352 251.394V50.5997C496.573 40.9016 488.634 32.9668 478.93 32.9668Z" fill="#23272A"/>
</mask>
<g mask="url(#mask0_2099_57306)">
<path d="M496.357 33.5547H374.62V268.773H496.357V33.5547Z" fill="#225B73"/>
<path d="M374.62 74.5032C403.595 99.3384 445.748 117.299 496.357 125.463V33.5547H374.62V74.5032Z" fill="#236682"/>
<path d="M475.281 86.3193L472.962 85.2879C472.919 85.2879 472.919 85.2449 472.962 85.2019L475.281 84.1706H475.324L476.354 81.8506C476.354 81.8076 476.44 81.8076 476.44 81.8506L477.47 84.1706H477.512L479.788 85.2019C479.831 85.2449 479.831 85.2879 479.788 85.2879L477.512 86.3193C477.501 86.3193 477.49 86.3234 477.482 86.3316C477.474 86.3399 477.47 86.3505 477.47 86.3622L476.44 88.6822H476.354L475.324 86.3622C475.324 86.3505 475.319 86.3399 475.311 86.3316C475.303 86.3234 475.292 86.3193 475.281 86.3193Z" fill="#F7D197"/>
<path d="M394.881 152.276L393.379 151.588C393.336 151.588 393.336 151.545 393.379 151.545L394.881 150.858C394.924 150.858 394.924 150.858 394.924 150.815L395.611 149.311H395.654L396.34 150.815L397.886 151.502C397.929 151.502 397.929 151.545 397.886 151.545L396.34 152.233L395.654 153.822C395.654 153.865 395.611 153.865 395.611 153.822L394.924 152.276H394.881Z" fill="#FF9CCD"/>
<path d="M430.38 54.6089L404.668 133.97C404.103 135.731 404.106 137.624 404.677 139.382C405.247 141.14 406.355 142.674 407.844 143.767L408.488 144.24C416.054 149.779 424.913 153.281 434.218 154.409C443.524 155.538 452.962 154.256 461.63 150.685C462.904 150.161 463.965 149.224 464.642 148.023C465.319 146.824 465.574 145.43 465.365 144.068L451.585 56.3706C449.74 46.0153 448.194 38.2382 446.606 33.5547H438.364C436.175 37.7655 433.6 44.6404 430.38 54.6089Z" fill="#33BEB5"/>
<path d="M430.38 54.6089L404.926 133.24C404.283 135.215 404.282 137.343 404.923 139.319C405.562 141.295 406.81 143.017 408.488 144.24C415.395 149.297 423.395 152.653 431.84 154.036L441.713 149.524C441.713 149.524 444.803 84.987 443.387 33.5547H438.364C436.175 37.7225 433.6 44.6404 430.38 54.6089Z" fill="#33A2BE"/>
<path d="M412.223 110.769C413.725 105.999 414.455 104.453 415.958 106.343C427.419 78.1136 435.961 81.8087 440.382 106.472C440.382 106.472 450.298 98.695 453.088 120.694C453.088 120.694 457.638 118.074 461.974 122.542L465.365 144.069C465.535 145.232 465.372 146.419 464.892 147.492C464.414 148.565 463.639 149.479 462.661 150.127C453.453 153.306 443.637 154.32 433.975 153.091C424.313 151.861 415.063 148.421 406.943 143.038C405.757 141.889 404.914 140.432 404.512 138.83C404.11 137.228 404.165 135.545 404.668 133.972L412.223 110.769Z" fill="#F7E5BC"/>
<path d="M404.668 133.972L412.223 110.769C413.725 105.999 414.455 104.453 415.958 106.343C427.419 78.1136 435.961 81.8087 440.382 106.472C441.218 105.845 442.188 105.419 443.215 105.226C440.382 106.472 440.769 109.523 440.082 116.484C439.395 123.444 439.352 129.503 439.352 129.503L413.21 146.69C411.107 145.573 409.003 144.369 406.943 143.038C405.757 141.889 404.914 140.432 404.512 138.83C404.11 137.228 404.165 135.545 404.668 133.972Z" fill="#F7D197"/>
<path d="M406.042 134.573C416.988 117.386 428.277 110.167 462.875 145.53C463.229 145.896 463.489 146.343 463.632 146.832C463.774 147.321 463.796 147.837 463.694 148.337C463.593 148.836 463.372 149.303 463.049 149.698C462.727 150.091 462.314 150.402 461.845 150.6C453.154 154.214 443.68 155.527 434.335 154.414C424.99 153.3 416.089 149.797 408.488 144.241L407.844 143.768C407.333 143.385 406.858 142.953 406.428 142.479C404.539 140.288 404.496 137.022 406.042 134.573Z" fill="#242236"/>
<path d="M410.592 146.646L410.935 127.74C419.435 117.772 429.951 115.752 451.671 134.83L447.336 153.349C435.403 154.38 421.323 152.232 410.592 146.646Z" fill="#9E4B34"/>
<path d="M409.647 146.173L422.439 142.693L427.032 147.591C427.032 147.591 427.075 145.099 427.762 137.322C428.578 128.342 430.294 132.295 433.986 137.838C437.677 143.381 448.194 139.299 448.194 139.299L449.74 133.154C430.853 117.213 420.765 117.858 412.824 125.764L409.647 146.173Z" fill="#7A2F28"/>
<path d="M496.357 180.162C495.026 179.045 493.138 177.885 490.691 176.08C490.691 176.08 493.953 189.615 496.357 193.783V180.162Z" fill="#3EE8DD"/>
<path d="M487.428 176.467L386.253 180.119C386.064 180.26 385.904 180.434 385.781 180.635L384.064 180.119C379.814 183.6 376.809 186.607 374.62 189.529V268.762H496.357V187.553C491.249 180.635 487.428 176.467 487.428 176.467Z" fill="#244AB0"/>
<path d="M476.997 205.083C473.52 204.997 473.821 216.47 472.447 225.579C471.074 234.688 470.859 237.094 464.978 229.059C459.098 221.024 455.835 217.544 460.385 204.138L405.57 179.432L386.253 180.119C386.064 180.259 385.904 180.434 385.781 180.634L384.064 180.119C379.814 183.599 376.809 186.607 374.62 189.529V268.761H483.393C482.363 258.32 481.033 240.703 482.106 228.243C483.737 209.466 480.518 205.169 476.997 205.083Z" fill="#1A3E9C"/>
<path d="M462.489 153.822C468.67 155.541 469.228 153.736 473.392 165.553L464.721 166.154L462.489 153.822Z" fill="#3EE8DD"/>
<path d="M496.357 181.322L495.198 180.333C493.653 179.087 492.365 178.228 492.064 177.841C491.764 177.454 491.721 176.466 491.506 175.091C490.734 170.923 491.592 169.849 486.57 168.646L470.773 164.908L468.283 158.677C467.781 157.46 466.991 156.383 465.982 155.537C464.973 154.692 463.774 154.103 462.489 153.822L453.26 151.889L416.558 151.287L396.598 161.385C395.795 161.791 395.103 162.387 394.579 163.121C394.056 163.854 393.718 164.703 393.593 165.596L392.864 170.236L383.248 176.681C382.706 177.042 382.275 177.546 382.002 178.138C381.729 178.73 381.626 179.385 381.703 180.032C384.193 202.118 406.986 235.976 438.622 220.766C462.145 209.466 483.995 193.223 494.425 184.931L496.357 187.595V181.322Z" fill="#33BEB5"/>
<path d="M463.476 159.753C458.153 163.276 455.792 164.995 451.886 167.487C447.98 169.979 445.834 174.749 451.371 172.428C456.908 170.108 461.544 168.174 464.721 166.155C467.898 164.135 466.738 163.362 466.309 161.515C465.88 159.667 465.493 158.463 463.476 159.753Z" fill="#37CFC5"/>
<path d="M383.248 176.681L392.864 170.236L393.593 165.596C393.718 164.703 394.056 163.854 394.579 163.121C395.103 162.387 395.795 161.791 396.598 161.385L416.558 151.287L422.31 151.416L445.362 201.258C443.258 212.129 440.082 213.634 437.249 216.125C434.415 218.617 434.63 218.875 435.489 222.141C405.484 233.699 384.107 201.387 381.703 180.032C381.626 179.385 381.729 178.73 382.002 178.138C382.275 177.546 382.706 177.042 383.248 176.681Z" fill="#33A2BE"/>
<path d="M395.825 166.884C394.838 169.592 394.151 169.807 395.911 174.748C397.671 179.689 404.11 189.786 406.6 193.009C409.089 196.232 410.463 196.361 406.514 186.392C402.565 176.423 401.663 174.103 400.547 169.635C399.431 165.166 397.714 161.686 395.825 166.884Z" fill="#2B98B3"/>
<path d="M466.824 170.967C458.497 182.267 451.414 188.283 444.675 193.009C437.935 197.736 440.21 195.287 443.301 189.83C446.391 184.373 451.929 181.709 458.239 175.779C465.451 168.947 472.147 163.748 466.824 170.967Z" fill="#319BB5"/>
<path d="M490.39 177.455C490.481 177.811 490.454 178.187 490.315 178.527C490.176 178.867 489.931 179.154 489.618 179.345C473.005 188.626 449.354 200.013 440.854 203.063C432.355 206.114 437.463 202.892 448.109 195.974C458.754 189.056 476.912 177.541 482.749 174.189C488.588 170.837 488.502 170.064 490.39 177.455Z" fill="#33A2BE"/>
<path d="M453.088 154.166C461.63 155.67 466.395 155.498 453.088 163.318C439.781 171.138 453.088 154.166 453.088 154.166Z" fill="#1E6470"/>
<path d="M426.302 130.662L425.916 138.31L421.881 139.6L424.628 133.799L423.083 129.588L426.302 130.662Z" fill="#66251F"/>
<path d="M440.769 135.174L436.004 136.892C438.279 139.17 440.425 138.396 440.769 135.174Z" fill="#5E221D"/>
<path d="M423.641 136.764L418.576 136.076C419.606 139.17 421.838 139.471 423.641 136.764Z" fill="#5E221D"/>
<path d="M439.737 134.523C439.773 133.147 439.13 132.014 438.3 131.993C437.471 131.971 436.769 133.069 436.734 134.444C436.698 135.82 437.34 136.953 438.17 136.975C439 136.997 439.701 135.899 439.737 134.523Z" fill="#201E2F"/>
<path d="M421.276 136.575C422.099 136.471 422.627 135.28 422.454 133.914C422.282 132.549 421.475 131.526 420.652 131.63C419.829 131.735 419.301 132.926 419.473 134.291C419.646 135.657 420.453 136.679 421.276 136.575Z" fill="#201E2F"/>
<path d="M412.824 125.721C411.635 126.917 410.531 128.195 409.519 129.545C408.746 133.799 409.132 139.342 408.488 144.24C407.458 151.716 407.286 156.4 408.746 160.267C410.205 164.134 409.733 164.564 408.059 170.064C406.385 175.563 402.822 181.665 405.484 187.508C403.638 192.02 404.84 194.426 406.385 198.035C408.359 202.805 412.523 211.226 419.306 209.723C421.967 212.773 430.724 218.273 441.284 213.59C451.843 208.906 461.33 199.41 458.282 189.785C461.373 186.262 459.27 179.001 458.11 174.919C457.032 171.349 456.885 167.562 457.681 163.919C458.454 160.095 457.81 156.529 455.363 149.31C455.993 145.937 456.324 142.515 456.35 139.084C454.033 136.892 451.843 134.916 449.74 133.154L448.194 139.299C448.194 139.299 446.735 144.24 446.22 147.119C446.22 147.119 444.503 146.646 443.301 147.205C442.571 145.7 439.481 143.037 435.274 143.338L427.032 147.591L422.439 142.693C417.374 142.951 414.756 143.295 413.339 144.927C411.806 142.274 411.118 139.217 411.365 136.162C411.707 132.681 412.824 125.721 412.824 125.721Z" fill="white"/>
<path d="M424.972 151.759C424.972 151.759 426.903 151.072 428.835 150.126C430.767 149.181 430.552 149.095 435.274 143.338L427.032 147.591L422.439 142.693C417.374 142.951 414.756 143.295 413.339 144.927C411.806 142.274 411.118 139.217 411.365 136.162C411.707 132.681 412.824 125.721 412.824 125.721C411.635 126.917 410.531 128.195 409.519 129.545C408.746 133.799 409.132 139.342 408.488 144.24C407.458 151.716 407.286 156.4 408.746 160.267C410.205 164.134 409.733 164.564 408.059 170.064C406.385 175.563 402.822 181.665 405.484 187.508C403.638 192.02 404.84 194.426 406.385 198.035C408.359 202.805 412.523 211.226 419.306 209.723C421.967 212.773 430.724 218.273 441.284 213.59C451.843 208.906 461.33 199.41 458.282 189.785C456.565 199.797 449.182 199.281 449.182 199.281C440.425 199.153 435.703 200.27 435.703 200.27C432.398 196.274 428.492 192.492 425.658 191.161C418.662 181.965 420.679 170.407 422.225 163.833C423.77 157.259 424.972 151.759 424.972 151.759Z" fill="#D6DFFF"/>
<path d="M424.972 151.76C422.353 152.662 422.139 150.427 421.838 147.936C421.538 145.443 422.439 142.693 422.439 142.693L427.032 147.592L435.274 143.338C430.552 149.095 430.81 149.181 428.835 150.127C426.861 151.072 424.972 151.76 424.972 151.76Z" fill="#CAD5FC"/>
<path d="M443.344 131.866L432.827 131.222C434.309 129.916 436.248 129.251 438.219 129.371C440.189 129.493 442.032 130.389 443.344 131.866Z" fill="#CFDEFF"/>
<path d="M425.916 130.964L415.357 130.835C416.774 129.451 418.683 128.687 420.663 128.711C422.643 128.736 424.533 129.546 425.916 130.964Z" fill="#CFDEFF"/>
<path d="M432.141 140.202L429.092 142.78L433.385 141.19C433.814 141.018 433.943 140.932 433.557 140.202C433.171 139.472 432.784 139.644 432.141 140.202Z" fill="#7A2F28"/>
<path d="M421.409 156.1C421.515 156.787 421.872 157.409 422.412 157.846C422.952 158.283 423.635 158.503 424.328 158.463C435.317 158.033 439.566 154.51 440.983 152.877C441.175 152.639 441.306 152.359 441.365 152.06C441.425 151.76 441.412 151.451 441.327 151.158C441.293 151.068 441.249 150.982 441.198 150.9C435.918 153.822 427.161 154.467 425.1 154.467C423.813 154.51 423.641 153.736 423.727 152.834C423.358 152.891 423.004 153.021 422.687 153.218C422.37 153.414 422.095 153.672 421.879 153.976C421.662 154.281 421.509 154.626 421.429 154.991C421.348 155.355 421.341 155.732 421.409 156.1Z" fill="#DE5D70"/>
<path d="M426.174 158.377C427.025 156.817 428.111 155.396 429.393 154.166C432.956 153.736 437.763 152.791 441.155 150.9L441.327 151.158C441.412 151.451 441.425 151.76 441.365 152.06C441.306 152.359 441.175 152.639 440.983 152.877L440.897 152.963C439.524 154.51 435.66 157.647 426.174 158.377Z" fill="#B83D50"/>
<path d="M431.396 101.441C432.372 97.9192 431.57 94.6226 429.605 94.0769C427.64 93.5318 425.257 95.9442 424.281 99.4656C423.305 102.988 424.107 106.284 426.072 106.83C428.037 107.375 430.42 104.963 431.396 101.441Z" fill="#FF9CCD"/>
<path d="M424.285 99.4251C425.272 95.9448 427.633 93.5383 429.608 94.054C430.062 94.1917 430.465 94.4607 430.767 94.8275C427.719 95.3002 429.994 98.5656 424.285 99.4251Z" fill="#FFEBF5"/>
<path d="M431.711 97.0195C431.944 98.4989 431.842 100.012 431.411 101.445C431.327 101.832 431.198 102.207 431.024 102.563C430.337 102.606 429.092 102.477 428.664 103.508C428.234 104.539 427.977 106.043 425.959 106.773C424.972 106.387 424.285 105.27 424.028 103.809L424.5 103.68C428.234 103.078 429.779 98.7814 431.711 97.0195Z" fill="#FF70B7"/>
<path d="M446.403 115.105C447.359 114.935 447.953 113.774 447.729 112.512C447.504 111.25 446.546 110.366 445.589 110.537C444.632 110.707 444.039 111.868 444.263 113.13C444.488 114.391 445.446 115.276 446.403 115.105Z" fill="#F7D197"/>
<path d="M458.701 128.851C459.658 128.681 460.252 127.52 460.027 126.258C459.802 124.997 458.845 124.113 457.888 124.283C456.931 124.453 456.337 125.615 456.562 126.876C456.786 128.138 457.744 129.022 458.701 128.851Z" fill="#F7D197"/>
<path d="M456.35 139.084C456.304 141.974 456.074 144.859 455.663 147.721C455.191 145.486 453.818 143.209 452.358 142.951C451.156 140.33 449.955 139.084 448.194 139.299L449.74 133.154C451.843 134.916 454.033 136.892 456.35 139.084Z" fill="#A8C3FF"/>
<path d="M459.098 188.496C458.877 188.956 458.603 189.389 458.282 189.785C458.509 189.328 458.782 188.896 459.098 188.496Z" fill="#D6DFFF"/>
<path d="M441.541 161.557C437.592 164.908 435.789 166.927 436.562 171.095C436.562 171.095 440.726 166.454 441.541 161.557Z" fill="#D6DFFF"/>
<path d="M421.795 165.811C418.061 171.052 416.988 174.49 417.116 177.025C419.22 176.165 421.624 173.33 421.624 173.33L421.795 165.811Z" fill="white"/>
<path d="M453.99 153.006C454.204 155.369 454.075 159.408 453.217 161.385C455.964 158.462 455.663 156.529 453.99 153.006Z" fill="#D6DFFF"/>
<path d="M447.121 176.08C445.19 180.506 438.922 181.623 438.922 181.623C445.319 183.685 447.722 183.341 447.121 176.08Z" fill="#D6DFFF"/>
<path d="M412.566 147.592C410.635 150.771 411.836 155.541 411.836 155.541C411.836 155.541 406.213 152.232 412.566 147.592Z" fill="#C7D3FC"/>
<path d="M410.85 185.619C410.463 189.486 412.094 192.58 414.584 193.181C413.92 190.413 412.644 187.828 410.85 185.619Z" fill="#C7D3FC"/>
<path d="M432.613 127.181C427.977 126.537 422.096 126.494 420.164 126.494C426.431 124.689 430.294 125.119 432.613 127.181Z" fill="#66251F"/>
<path d="M445.405 133.283C444.331 133.025 442.957 132.51 442.013 133.799L445.405 133.283Z" fill="#5E221D"/>
<path d="M445.319 135.648C444.46 134.96 443.344 133.972 441.971 134.745L445.319 135.648Z" fill="#5E221D"/>
<path d="M412.867 132.338C413.983 132.467 415.485 132.424 415.957 133.928L412.867 132.338Z" fill="#5E221D"/>
<path d="M412.223 134.659C413.253 134.272 414.627 133.671 415.7 134.831L412.223 134.659Z" fill="#5E221D"/>
<path d="M430.767 135.69C430.681 138.01 430.08 139.686 429.307 140.416C428.535 141.146 429.007 139.815 429.693 137.408C430.38 135.002 430.81 134.186 430.767 135.69Z" fill="#C27059"/>
<path d="M439.051 149.998C439.458 149.862 439.9 149.878 440.295 150.044C440.69 150.21 441.011 150.514 441.198 150.901C435.918 153.822 427.204 154.467 425.1 154.51C423.813 154.51 423.641 153.736 423.727 152.834H423.942C427.547 152.534 433.685 151.803 439.051 149.998Z" fill="#D6DFFF"/>
<path d="M409.519 129.545C410.531 128.195 411.635 126.917 412.824 125.721C412.824 125.721 412.137 130.017 411.665 133.541C410.721 134.443 409.776 135.217 409.003 135.861C409.012 133.746 409.184 131.633 409.519 129.545Z" fill="#A8C3FF"/>
<path d="M496.357 206.156C491.335 212.387 488.416 215.523 486.784 218.102C485.154 220.68 485.625 220.336 493.953 219.476L496.357 219.218V206.156Z" fill="#1A3E9C"/>
<path d="M478.93 32.9668H392.263C382.56 32.9668 374.62 40.9016 374.62 50.5997V251.394C374.62 261.092 382.56 269.027 392.263 269.027H478.71C488.413 269.027 496.352 261.092 496.352 251.394V50.5997C496.573 40.9016 488.634 32.9668 478.93 32.9668ZM489.957 251.394C489.957 257.566 485.105 262.415 478.93 262.415H392.263C386.088 262.415 381.236 257.566 381.236 251.394V50.5997C381.236 44.4282 386.088 39.5791 392.263 39.5791H396.894H398.217C401.525 39.5791 404.171 42.2241 404.171 45.5302C404.171 48.8364 406.817 51.7018 410.346 51.7018H460.627C463.934 51.7018 466.581 49.0568 466.581 45.7507C466.581 42.4445 469.227 39.7995 472.535 39.7995H473.418H478.489C484.664 39.7995 489.516 44.6486 489.516 50.8201V251.394H489.957Z" fill="#23272A"/>
<path d="M418.728 257.843C426.523 257.843 432.842 251.517 432.842 243.714C432.842 235.911 426.523 229.586 418.728 229.586C410.933 229.586 404.613 235.911 404.613 243.714C404.613 251.517 410.933 257.843 418.728 257.843Z" fill="#DBE7FF"/>
<path d="M424.33 241.447C424.156 241.34 423.939 241.331 423.758 241.422L422.256 242.173V240.771C422.256 240.122 421.729 239.594 421.08 239.594H414.023C413.374 239.594 412.847 240.122 412.847 240.771V246.658C412.847 247.308 413.374 247.835 414.023 247.835H421.08C421.729 247.835 422.256 247.308 422.256 246.658V245.256L423.758 246.007C423.841 246.049 423.931 246.069 424.021 246.069C424.128 246.069 424.235 246.039 424.33 245.982C424.503 245.874 424.609 245.685 424.609 245.481V241.948C424.609 241.744 424.503 241.555 424.33 241.447Z" fill="#1C1B29"/>
<path d="M452.249 257.843C460.045 257.843 466.364 251.517 466.364 243.714C466.364 235.911 460.045 229.586 452.249 229.586C444.454 229.586 438.135 235.911 438.135 243.714C438.135 251.517 444.454 257.843 452.249 257.843Z" fill="#E7366B"/>
<path fill-rule="evenodd" clip-rule="evenodd" d="M457.611 237.307L458.65 238.347L456.818 240.182L458.65 242.016L457.611 243.057L455.778 241.223L453.946 243.057L452.906 242.016L454.739 240.182L452.906 238.347L453.946 237.307L455.778 239.141L457.611 237.307ZM455.778 249.601H452.838C449.265 249.601 446.368 246.701 446.368 243.125V240.182C446.368 239.856 446.632 239.593 446.957 239.593H449.309C449.634 239.593 449.897 239.856 449.897 240.182V242.536C449.897 242.862 449.634 243.125 449.309 243.125H448.721C448.758 245.443 450.485 247.246 452.838 247.246V246.657C452.838 246.332 453.1 246.069 453.426 246.069H455.778C456.103 246.069 456.366 246.332 456.366 246.657V249.012C456.366 249.337 456.103 249.601 455.778 249.601Z" fill="white"/>
</g>
<path d="M386.97 46.5059H20.5835C17.9851 46.5059 15.8787 48.6143 15.8787 51.2153V273.736C15.8787 276.337 17.9851 278.445 20.5835 278.445H386.97C389.569 278.445 391.675 276.337 391.675 273.736V51.2153C391.675 48.6143 389.569 46.5059 386.97 46.5059Z" fill="#292841"/>
<mask id="mask1_2099_57306" style="mask-type:alpha" maskUnits="userSpaceOnUse" x="286" y="160" width="97" height="57">
<path d="M377.561 160.121H291.11C288.511 160.121 286.405 162.23 286.405 164.831V211.925C286.405 214.526 288.511 216.634 291.11 216.634H377.561C380.159 216.634 382.265 214.526 382.265 211.925V164.831C382.265 162.23 380.159 160.121 377.561 160.121Z" fill="#C4C4C4"/>
</mask>
<g mask="url(#mask1_2099_57306)">
<path d="M386.97 46.5059H20.5835C17.9851 46.5059 15.8787 48.6143 15.8787 51.2153V273.736C15.8787 276.337 17.9851 278.445 20.5835 278.445H386.97C389.569 278.445 391.675 276.337 391.675 273.736V51.2153C391.675 48.6143 389.569 46.5059 386.97 46.5059Z" fill="#292841"/>
<path d="M382.243 160.121H286.439V216.601H382.243V160.121Z" fill="#F7E5BC"/>
<path d="M382.243 211.906V191.678C377.965 190.095 367.872 192.771 363.216 199.217C357.735 193.641 347.174 193.284 337.46 199.217C334.853 192.682 325.094 187.932 312.35 192.548C311.392 184.832 297.267 178.096 286.439 187.129V216.612H377.542C378.787 216.606 379.979 216.109 380.859 215.227C381.74 214.346 382.237 213.152 382.243 211.906Z" fill="#6ADBC6"/>
<path d="M345.28 197.768C355.841 197.834 364.864 202.874 369.209 216.635H337.46L345.28 197.768Z" fill="#44C9C5"/>
<path d="M356.175 216.613H382.243V204.48C375.915 205.127 364.441 207.558 356.175 216.613Z" fill="#44C9C5"/>
<path d="M362.725 210.881H305.822C302.235 214.293 302.057 216.612 302.057 216.612H366.981C366.981 216.612 365.221 212.821 362.725 210.881Z" fill="#FAFAFA"/>
<path d="M364.062 213.379C364.25 213.222 364.375 213.003 364.417 212.762C364.457 212.521 364.411 212.273 364.285 212.063C363.46 210.703 363.193 209.632 361.321 208.651C359.45 207.669 358.225 206.487 352.521 205.751C351.363 202.763 351.608 201.848 342.985 201.18H319.146C315.224 201.804 314.957 201.804 314.266 204.124C313.575 206.443 313.598 206.153 311.548 206.978C309.499 207.804 306.312 207.96 305.087 210.68C304.686 211.572 304.53 212.219 306.869 216.613H359.405C361.051 215.675 362.609 214.593 364.062 213.379Z" fill="#CC4F79"/>
<path d="M345.28 202.139C349.402 202.852 349.246 202.852 346.461 206.131C343.676 209.409 340.133 212.442 336.145 214.07C329.907 216.613 324.56 214.226 321.306 210.435C316.583 204.926 314.556 202.139 318.544 202.139H345.28Z" fill="#590942"/>
<path d="M357.601 171.116L355.752 170.29C355.74 170.29 355.729 170.286 355.72 170.278C355.712 170.269 355.707 170.258 355.707 170.246C355.707 170.234 355.712 170.223 355.72 170.215C355.729 170.206 355.74 170.202 355.752 170.202L357.601 169.376C357.607 169.376 357.612 169.374 357.617 169.37C357.621 169.366 357.623 169.36 357.623 169.354L358.447 167.503C358.447 167.481 358.492 167.481 358.514 167.503L359.339 169.354C359.339 169.376 359.339 169.376 359.361 169.376L361.21 170.202C361.221 170.214 361.227 170.23 361.227 170.246C361.227 170.263 361.221 170.279 361.21 170.29L359.361 171.116H359.339L358.514 172.967C358.492 173.011 358.447 173.011 358.447 172.967L357.623 171.116H357.601Z" fill="#FAFAFA"/>
<path d="M305.688 173.726L304.485 173.19C304.463 173.19 304.463 173.146 304.485 173.146L305.688 172.61C305.688 172.604 305.691 172.599 305.695 172.595C305.699 172.591 305.705 172.588 305.711 172.588L306.245 171.384C306.245 171.362 306.29 171.362 306.29 171.384L306.824 172.588H306.847L308.05 173.146C308.072 173.146 308.072 173.19 308.05 173.19L306.847 173.726C306.847 173.732 306.844 173.737 306.84 173.741C306.836 173.746 306.83 173.748 306.824 173.748L306.29 174.952H306.245L305.711 173.748C305.688 173.748 305.688 173.748 305.688 173.726Z" fill="#F7D78D"/>
<path d="M321.842 184.029C320.237 179.568 317.43 176.312 316.093 175.71C314.756 175.108 315.091 175.867 316.338 179.635C317.586 183.405 317.608 189.582 319.926 189.626C322.243 189.671 321.842 184.029 321.842 184.029Z" fill="#2E64E8"/>
<path d="M318.901 185.211C317.943 183.293 317.875 182.357 317.497 180.907C317.296 180.127 317.007 179.034 316.762 178.164C317.92 180.238 319.947 184.854 320.371 186.327C320.794 187.798 319.859 187.107 318.901 185.211Z" fill="#1C4BBA"/>
<path d="M342.985 184.318C345.258 179.567 348.89 176.2 350.56 175.642C352.231 175.085 351.786 175.866 350.003 179.88C348.221 183.894 347.776 190.651 344.946 190.54C342.116 190.428 342.985 184.318 342.985 184.318Z" fill="#2E64E8"/>
<path d="M334.519 171.584C337.115 171.584 339.22 169.477 339.22 166.878C339.22 164.279 337.115 162.172 334.519 162.172C331.922 162.172 329.817 164.279 329.817 166.878C329.817 169.477 331.922 171.584 334.519 171.584Z" fill="#201E2F"/>
<path d="M339 168.109C339.159 166.9 337.201 165.645 334.627 165.306C332.053 164.967 329.837 165.672 329.678 166.881C329.519 168.09 331.477 169.345 334.051 169.684C336.625 170.023 338.841 169.318 339 168.109Z" fill="#41314A"/>
<path d="M342.383 170.648C337.527 166.098 329.55 165.518 324.069 169.466C318.588 173.413 319.725 179.569 320.616 186.326L343.81 186.995C344.768 183.315 347.218 175.219 342.383 170.648Z" fill="#4D7AE8"/>
<path d="M344.344 184.989L320.906 184.297C316.606 193.753 312.328 211.349 331.645 211.907C350.07 212.442 348.644 195.648 344.344 184.989Z" fill="#4D7AE8"/>
<path d="M344.344 184.988C345.347 180.863 346.461 174.507 342.383 170.649L341.938 170.27H340.713C340.713 170.27 341.225 178.231 340.802 181.398C340.379 184.565 340.534 184.899 341.492 185.323C342.45 185.747 343.341 186.26 343.163 190.319C342.985 194.378 342.74 194.913 343.631 199.73C344.522 204.547 343.32 207.625 340.802 210.167C349.335 205.64 347.731 193.419 344.344 184.988Z" fill="#2E64E8"/>
<path d="M326.231 203.209C328.771 206.622 335.633 207.491 338.418 203.343C339.822 201.269 336.123 201.158 332.38 201.18C328.637 201.202 324.872 201.358 326.231 203.209Z" fill="#3366E0"/>
<path d="M335.915 185.503C335.974 183.496 334.477 181.824 332.571 181.767C330.664 181.711 329.071 183.291 329.011 185.298C328.952 187.305 330.449 188.978 332.355 189.034C334.262 189.091 335.855 187.51 335.915 185.503Z" fill="#DBE7FF"/>
<path d="M333.735 185.958C333.772 185.183 333.204 184.526 332.466 184.492C331.729 184.457 331.101 185.057 331.065 185.832C331.028 186.607 331.596 187.264 332.334 187.298C333.071 187.334 333.699 186.733 333.735 185.958Z" fill="#201E2F"/>
<path d="M328.704 179.077C330.152 176.044 335.499 176.356 336.725 179.323L328.704 179.077Z" fill="#201E2F"/>
<path d="M327.367 191.768L328.013 191.991L328.659 192.147L329.305 192.304L329.952 192.393C331.707 192.604 333.487 192.389 335.143 191.768L335.767 191.523L336.368 191.233L336.969 190.921L337.571 190.564H337.638C337.829 190.458 338.04 190.392 338.257 190.369C338.474 190.345 338.694 190.365 338.903 190.428C339.112 190.49 339.307 190.593 339.476 190.732C339.646 190.87 339.786 191.04 339.888 191.233C340.024 191.489 340.092 191.775 340.083 192.064C340.076 192.353 339.993 192.636 339.844 192.884C339.129 194.042 338.132 195.001 336.948 195.671C335.763 196.351 334.455 196.784 333.099 196.945C331.744 197.106 330.37 196.992 329.06 196.608C327.757 196.213 326.576 195.492 325.629 194.511C325.322 194.192 325.154 193.764 325.163 193.321C325.171 192.877 325.355 192.455 325.674 192.147C325.887 191.953 326.146 191.816 326.426 191.749C326.707 191.683 327 191.69 327.278 191.768H327.367Z" fill="#400015"/>
<path d="M326.654 195.381C327.389 195.905 328.201 196.311 329.06 196.585C330.37 196.968 331.744 197.083 333.099 196.922C334.455 196.761 335.763 196.328 336.948 195.648C337.79 195.163 338.544 194.537 339.175 193.797C338.2 192.836 337.061 192.058 335.811 191.5H335.767L335.143 191.745C333.487 192.366 331.707 192.58 329.952 192.369L329.305 192.281H329.238C328.143 193.094 327.257 194.156 326.654 195.381Z" fill="#590942"/>
<path d="M338.685 192.638L338.752 190.386C338.374 190.293 337.976 190.349 337.638 190.542H337.571L336.969 190.898L336.368 191.21L335.767 191.501L335.143 191.746C333.487 192.367 331.707 192.581 329.952 192.37L329.305 192.281L328.659 192.125L328.013 191.969L327.367 191.746H327.278C327.06 191.687 326.833 191.671 326.609 191.701L326.565 192.861C330.998 195.025 336.011 193.798 338.685 192.638Z" fill="#DBE7FF"/>
<path d="M328.214 192.036L328.013 191.991L327.367 191.768H327.278C327.06 191.709 326.833 191.694 326.609 191.724L326.565 192.884C327.021 193.098 327.49 193.285 327.968 193.441L328.214 192.036Z" fill="#B5CDFF"/>
<path d="M336.212 193.486C337.059 193.275 337.887 192.991 338.685 192.638L338.752 190.386C338.374 190.293 337.976 190.349 337.638 190.542H337.571L336.969 190.898L336.368 191.21L336.145 191.322L336.212 193.486Z" fill="#B5CDFF"/>
<path d="M337.927 188.533L341.359 190.25C341.403 188.176 339.688 187.931 337.927 188.533Z" fill="#3366E0"/>
<path d="M322.956 193.106L326.12 189.984C323.713 189.917 322.755 191.523 322.956 193.106Z" fill="#3366E0"/>
<path d="M324.849 196.295C325.919 197.811 327.01 199.217 327.01 199.217C324.827 199.038 324.849 196.295 324.849 196.295Z" fill="#3366E0"/>
<path d="M342.383 170.648C337.527 166.098 329.55 165.518 324.069 169.466C321.552 171.272 320.46 173.681 320.104 176.446C323.111 178.766 323.445 174.729 324.716 170.536C329.216 174.193 336.034 174.238 340.401 170.982L340.579 174.528C340.78 177.963 343.097 178.364 345.169 176.535C344.901 174.372 344.121 172.275 342.383 170.648Z" fill="#201E2F"/>
<path d="M327.304 176.124C327.873 175.545 328.092 174.837 327.794 174.543C327.496 174.249 326.793 174.482 326.224 175.062C325.654 175.642 325.435 176.349 325.733 176.643C326.031 176.937 326.735 176.704 327.304 176.124Z" fill="#618AED"/>
<path d="M349.179 177.919C347.97 179.658 346.891 181.485 345.948 183.383C345.392 184.543 345.971 184.699 346.149 186.104C346.327 187.508 346.773 186.84 347.352 184.453C347.932 182.067 348.243 181.219 348.822 179.926C349.402 178.632 350.382 176.179 349.179 177.919Z" fill="#1C4BBA"/>
<path d="M352.12 206.865C351.028 209.787 348.132 216.612 348.132 216.612H339.643C344.144 213.467 347.553 209.921 349.09 207.2C350.627 204.479 350.939 202.851 352.098 205.884C352.227 206.197 352.235 206.547 352.12 206.865Z" fill="#BA3B66"/>
<path d="M350.538 216.612C354.615 211.772 355.952 210.122 357.044 209.498C358.136 208.873 359.963 207.914 358.002 210.903C356.041 213.891 352.744 216.612 352.744 216.612H350.538Z" fill="#BA3B66"/>
<path d="M322.399 216.612C319.235 212.776 317.051 209.029 316.227 206.955C315.403 204.881 315.157 204.368 314.957 205.528C314.756 206.687 314.311 207.223 314.712 208.828C315.113 210.434 316.428 214.783 317.251 216.612H322.399Z" fill="#BA3B66"/>
<path d="M309.365 216.611H308.117C306.691 212.999 306.112 211.37 306.045 210.166C305.978 208.962 307.426 212.954 309.365 216.611Z" fill="#BA3B66"/>
<path d="M314.556 216.634H311.927C311.236 211.393 311.236 210.367 311.392 208.896C311.548 207.424 312.283 208.695 312.818 211.326C313.222 213.148 313.805 214.926 314.556 216.634Z" fill="#BA3B66"/>
<path d="M303.995 206.376C306.335 202.585 308.852 200.733 311.904 199.061C314.957 197.388 315.358 196.429 313.108 195.671C310.858 194.912 308.919 195.203 306.223 196.317C303.527 197.432 301.611 198.079 300.787 201.246C299.963 204.413 301.121 206.331 303.995 206.376Z" fill="#542113"/>
<path d="M304.775 202.405C306.223 196.317 307.203 191.7 308.139 187.552C309.075 183.404 310.122 180.995 308.518 180.259C306.914 179.523 306.045 179.791 303.928 184.519C301.812 189.247 300.876 192.659 300.185 195.112C299.494 197.566 297.177 204.234 304.775 202.405Z" fill="#542113"/>
<path d="M301.745 192.86L300.341 192.659C301.099 184.586 301.5 181.151 301.678 178.832C301.856 176.513 300.898 176.468 299.428 176.401C297.957 176.334 297.423 176.936 296.776 179.97C296.13 183.003 295.351 188.266 295.061 190.34C294.771 192.414 294.281 197.187 294.326 198.703C294.37 200.22 301.745 200.911 301.745 192.86Z" fill="#542113"/>
<path d="M294.927 194.89C295.15 191.746 294.682 183.36 294.637 181.799C294.593 180.238 294.036 180.416 292.699 180.371C291.362 180.327 290.805 180.929 290.627 184.609C290.449 188.288 290.159 192.281 290.204 194.132C289.242 196.738 288.876 199.528 289.134 202.294C289.401 205.216 289.781 205.997 290.315 206.911C290.85 207.826 294.036 208.851 298.113 209.253C302.19 209.654 302.569 209.074 303.995 206.376C305.421 203.677 302.747 196.407 302.747 196.407L294.927 194.89Z" fill="#542113"/>
<path d="M289.401 204.39C288.8 205.795 287.619 209.118 286.461 212.419C286.592 213.571 287.141 214.634 288.003 215.407C288.866 216.18 289.982 216.608 291.139 216.612H302.569C302.547 216.233 302.235 210.88 303.305 207.624C303.305 207.624 290.76 201.268 289.401 204.39Z" fill="#542113"/>
<path d="M303.305 198.101C300.675 199.774 299.94 200.577 299.294 201.736C298.648 202.896 298.024 203.007 295.64 203.052C293.256 203.097 293.212 203.142 292.543 200.309C291.875 197.477 292.878 196.272 295.462 196.384C298.893 196.518 304.886 197.209 303.305 198.101Z" fill="#4A1A0D"/>
<path d="M291.296 193.217H300.118C297.378 191.968 293.546 192.124 291.296 193.217Z" fill="#4A1A0D"/>
<path d="M301.7 193.618C303.015 194.087 305.577 195.18 305.577 195.18C303.706 192.414 301.7 193.618 301.7 193.618Z" fill="#4A1A0D"/>
<path d="M303.126 187.687C304.485 187.955 307.203 188.624 307.203 188.624C304.908 186.193 303.126 187.687 303.126 187.687Z" fill="#4A1A0D"/>
<path d="M296.487 185.769C297.757 185.881 300.319 186.193 300.319 186.193C297.846 184.096 296.487 185.769 296.487 185.769Z" fill="#4A1A0D"/>
<path d="M291.095 187.73C292.142 187.574 294.303 187.396 294.303 187.396C291.897 186.08 291.095 187.73 291.095 187.73Z" fill="#4A1A0D"/>
<path d="M314.311 196.295C312.261 197.856 309.209 198.168 306.29 199.663C303.371 201.157 302.859 202.74 302.057 204.926C301.547 206.371 301.123 207.846 300.787 209.342C302.48 209.163 302.97 208.316 303.995 206.375C306.335 202.584 308.852 200.733 311.905 199.061C314.199 197.834 315.001 196.987 314.311 196.295Z" fill="#732D1A"/>
<path d="M303.305 207.625L303.995 206.376C304.129 206.13 304.285 205.929 304.419 205.706C302.97 207.647 299.183 208.048 295.93 208.271C292.677 208.494 290.003 207.446 289.401 204.391C289.023 205.283 287.664 208.74 286.439 211.951V216.612H302.569C302.547 216.233 302.235 210.881 303.305 207.625Z" fill="#4A1A0D"/>
<path d="M308.541 180.26C308.752 181.039 308.768 181.859 308.585 182.646C308.161 184.675 307.203 188.623 305.176 196.741L306.179 196.362C306.936 193.061 307.56 190.207 308.139 187.552C309.075 183.449 310.122 181.018 308.541 180.26Z" fill="#732D1A"/>
<path d="M301.678 178.831C301.5 181.128 301.076 184.697 300.341 192.659L299.74 192.525L300.72 176.557C301.41 176.757 301.789 177.292 301.678 178.831Z" fill="#732D1A"/>
<path d="M369.498 202.137L376.561 197.008C374.333 196.763 369.944 197.008 369.498 202.137Z" fill="#44C9C5"/>
</g>
<mask id="mask2_2099_57306" style="mask-type:alpha" maskUnits="userSpaceOnUse" x="15" y="46" width="377" height="233">
<path d="M386.97 46.5059H20.5835C17.9851 46.5059 15.8787 48.6143 15.8787 51.2153V273.736C15.8787 276.337 17.9851 278.445 20.5835 278.445H386.97C389.569 278.445 391.675 276.337 391.675 273.736V51.2153C391.675 48.6143 389.569 46.5059 386.97 46.5059Z" fill="#292841"/>
<path d="M377.561 95.3672H291.11C288.511 95.3672 286.405 97.4757 286.405 100.077V147.171C286.405 149.772 288.511 151.88 291.11 151.88H377.561C380.159 151.88 382.265 149.772 382.265 147.171V100.077C382.265 97.4757 380.159 95.3672 377.561 95.3672Z" fill="#C4C4C4"/>
</mask>
<g mask="url(#mask2_2099_57306)">
<path d="M382.261 100.663C382.261 97.7373 379.892 95.3652 376.968 95.3652H291.698C288.775 95.3652 286.405 97.7373 286.405 100.663V146.569C286.405 149.495 288.775 151.867 291.698 151.867H376.968C379.892 151.867 382.261 149.495 382.261 146.569V100.663Z" fill="#5E87F9"/>
<path d="M286.405 123.61C295.299 121.178 305.822 124.391 309.009 131.575C318.572 128.518 329.629 134.186 334.846 140.857H286.405V123.61Z" fill="#6E94FF"/>
<path d="M382.261 113.303C376.443 112.322 369.577 113.616 367.482 116.516C361.24 115.289 354.017 117.587 350.606 120.264H382.261V113.303Z" fill="#7A9DFF"/>
<path d="M359.457 144.092C357.673 140.276 357.718 140.12 354.552 138.982L358.766 145.029L359.457 144.092Z" fill="#FF707E"/>
<path d="M310.547 110.447L310.748 110.625L311.172 111.027L311.328 111.161L311.662 111.451C319.108 117.854 328.649 120.554 335.113 122.495C343.451 124.994 350.383 125.73 355.577 125.752C362.332 125.686 363.692 122.161 360.839 117.966L359.234 115.98L350.986 105.94L350.584 105.45C345.145 99.0019 340.263 96.1015 329.986 98.3326L314.359 101.723H314.315C308.853 102.928 306.29 106.253 310.547 110.447Z" fill="url(#paint0_linear_2099_57306)"/>
<path d="M328.537 99.5819C322.296 101.121 311.595 104.245 311.595 104.245L309.009 104.602C309.923 103.285 311.818 102.282 314.315 101.724H314.359L329.986 98.3328C334.846 97.2837 338.48 97.3956 341.556 98.444C336.808 97.3061 334.044 98.2209 328.537 99.5819Z" fill="#FFFDC4"/>
<path d="M334.645 123.321C329.161 121.67 317.436 117.007 312.888 112.456C313.958 113.526 312.91 111.608 314.961 112.612C325.751 117.877 350.25 124.995 355.577 125.753C350.361 126.065 340.24 124.995 334.645 123.321Z" fill="#FFFDC4"/>
<path d="M309.299 104.246C314.114 102.796 324.97 104.112 337.008 107.883C349.559 111.809 359.523 117.231 362.198 121.224C362.511 123.835 360.459 125.709 355.577 125.753C350.696 125.798 343.451 124.995 335.113 122.496C328.649 120.555 319.108 117.855 311.662 111.452L311.328 111.162L311.172 111.028L310.748 110.626L310.547 110.448C308.073 107.994 307.917 105.852 309.299 104.246Z" fill="url(#paint1_linear_2099_57306)"/>
<path d="M355.684 122.491C356.387 120.245 347.482 115.453 335.792 111.786C324.102 108.12 314.056 106.968 313.353 109.214C312.65 111.46 321.556 116.253 333.245 119.919C344.935 123.585 354.981 124.737 355.684 122.491Z" fill="#6B3143"/>
<path d="M313.445 110.024C313.313 109.77 313.274 109.478 313.334 109.199C313.384 109.073 313.46 108.959 313.557 108.864L325.617 114.04L316.566 108.083C316.96 108.061 317.354 108.061 317.748 108.083L326.129 113.683C326.625 113.614 327.127 113.614 327.623 113.683L323.031 108.641L324.77 108.953L328.292 113.772C329.005 113.862 329.83 114.018 330.744 114.218L328.114 109.667L329.674 110.046L331.413 114.375L333.063 114.821L331.859 110.626C332.483 110.775 333.107 110.954 333.731 111.162L334.311 115.133H334.177L334.623 115.29L335.894 111.809L337.298 112.278L335.091 115.423L336.205 115.803L339.371 112.969L341.043 113.571L337.142 116.137L338.301 116.584L343.139 114.375L345.189 115.2L339.193 116.94L340.597 117.587L349.091 117.008C349.804 117.364 350.495 117.722 351.119 118.078H341.534L342.202 118.502L353.861 119.863C354.363 120.224 354.819 120.643 355.221 121.112L342.76 119.016C342.798 119.057 342.826 119.107 342.842 119.161C342.857 119.215 342.86 119.272 342.849 119.328C342.83 119.376 342.8 119.42 342.761 119.455C342.722 119.489 342.676 119.515 342.626 119.528L355.533 122.741C355.332 123.009 354.931 123.232 354.351 123.388L341.4 119.64C340.703 119.602 340.01 119.512 339.326 119.372L349.625 123.5C349.135 123.478 348.6 123.411 348.043 123.344L337.989 119.104L337.632 119.038L344.097 122.697C343.116 122.496 342.091 122.295 341.021 122.027L336.362 118.725L333.842 117.989C332.773 117.655 331.769 117.298 330.855 116.963L326.888 117.699C325.55 117.208 324.302 116.695 323.143 116.182L329.206 116.293H329.183L319.888 114.687C318.84 114.152 317.881 113.639 317.057 113.148L327.333 115.423L326.665 115.044L313.445 110.024Z" fill="#7A384C"/>
<path d="M367.325 151.879H313.289C314.248 150.897 315.407 150.295 317.257 149.447L321.426 148.867L322.964 148.666L326.308 148.197L328.849 147.863L330.365 147.662L331.012 147.573L337.276 146.725L338.725 146.524L341.088 146.212L342.024 146.078L343.852 145.832L344.298 145.765L348.355 145.208L357.985 143.914L358.476 143.847C358.765 143.824 359.055 143.824 359.345 143.847C363.915 143.959 365.498 145.988 367.325 151.879Z" fill="#2347A1"/>
<path d="M359.211 149.737L357.517 151.879H347.642L353.126 146.346L355.533 147.684L359.211 149.737Z" fill="#2A52C2"/>
<path d="M358.476 143.846L358.208 144.226C358.119 144.315 358.052 144.449 357.94 144.582L357.651 144.961C357.138 145.631 356.425 146.568 355.533 147.684L353.437 150.227L352.746 151.03C352.501 151.298 352.278 151.588 352.033 151.878H317.636C317.369 150.383 317.257 149.446 317.257 149.446C317.254 149.214 317.315 148.984 317.433 148.784C317.551 148.583 317.721 148.418 317.926 148.308L321.047 146.501H321.069V146.278C321.069 146.189 321.047 146.122 321.047 146.055C321.047 145.988 321.002 145.341 321.002 145.073V144.783C320.986 144.65 320.979 144.516 320.98 144.382C320.969 144.353 320.961 144.323 320.958 144.292L320.847 142.418C320.825 142.046 320.895 141.675 321.051 141.336C321.206 140.998 321.442 140.703 321.738 140.477L325.862 137.22L326.219 136.93L327.378 136.037L330.254 133.784L331.881 133.561H331.903L334.066 133.226H334.088L337.031 132.802L337.877 132.668L340.062 132.334L341.11 132.178H341.288L341.868 132.267L342.626 132.378L344.164 132.624C344.835 132.731 345.477 132.979 346.045 133.352C346.614 133.725 347.097 134.215 347.463 134.788L349.157 137.398L349.291 137.443L350.339 137.755L353.839 138.804L354.552 139.005L355.02 139.183H355.065C356.002 139.597 356.761 140.333 357.205 141.258L358.476 143.846Z" fill="#EF6270"/>
<path d="M350.339 137.734C349.514 135.659 349.068 133.205 343.852 132.157L339.995 131.576L340.307 134.722L347.597 139.542L350.339 137.734Z" fill="#FF707E"/>
<path d="M358.476 143.846L358.208 144.225C358.119 144.314 358.052 144.448 357.94 144.582L357.651 144.961C357.138 145.631 356.425 146.568 355.533 147.683L353.437 150.226L352.746 151.03L352.011 151.878H335.894C336.272 150.539 336.83 148.531 337.098 147.393C337.14 147.166 337.2 146.942 337.276 146.724C337.654 145.318 337.967 144.448 335.626 144.091L335.871 142.864L336.941 137.443L337.209 135.992L337.432 134.944L337.789 133.159L337.877 132.69L340.062 132.356L341.11 132.199H341.288L341.868 132.289L342.626 132.4L344.164 132.645C344.835 132.753 345.476 133.001 346.045 133.374C346.614 133.747 347.097 134.237 347.463 134.81L349.157 137.42L349.291 137.465L350.339 137.777L353.839 138.826L354.552 139.027L355.02 139.205H355.065C356.002 139.62 356.761 140.355 357.205 141.28L358.476 143.846Z" fill="#E05164"/>
<path d="M343.629 138.045C346.26 136.059 346.081 136.215 344.61 135.256C343.725 134.678 342.701 134.346 341.645 134.297L343.629 138.045Z" fill="#BD3C53"/>
<path d="M344.298 145.765L339.995 151.878H336.763C338.524 149.96 340.374 147.929 342.024 146.077C344.365 143.4 346.304 141.058 347.039 139.92L346.816 141.37L346.661 142.396L344.298 145.765Z" fill="#E05164"/>
<path d="M349.826 149.537C348.935 150.371 347.998 151.153 347.018 151.879H342.983C344.878 151.076 347.374 149.916 349.001 148.889C351.454 147.35 351.141 148.309 349.826 149.537Z" fill="#E05164"/>
<path d="M325.082 138.671C322.162 141.215 320.713 140.523 327.601 149.982L329.251 148.889L334.066 143.491L327.957 135.793L325.082 138.671Z" fill="#C74153"/>
<path d="M325.974 113.303C326.152 112.723 330.097 113.392 334.823 114.798C339.549 116.203 343.206 117.809 343.049 118.389C342.069 126.243 342.225 133.204 343.629 138.045L329.251 148.888C323.232 134.387 325.06 121.535 325.974 113.303Z" fill="#FFB685"/>
<path d="M332.305 133.25L337.877 133.16L338.48 136.418C336.295 138.604 333.107 137.734 331.48 136.284C329.34 138.158 327.244 138.136 325.773 136.484L325.728 136.44C325.595 135.548 325.461 134.655 325.371 133.763C327.646 133.094 332.305 133.25 332.305 133.25Z" fill="#FE9B77"/>
<path d="M337.877 141.995C336.495 132.558 336.808 121.202 336.986 115.49C340.597 116.695 343.183 117.9 343.049 118.391C342.069 126.244 342.225 133.205 343.629 138.046L337.877 141.995Z" fill="#FE9B77"/>
<g style="mix-blend-mode:multiply" opacity="0.4">
<g style="mix-blend-mode:multiply" opacity="0.4">
<path d="M325.974 113.303C326.152 112.723 330.097 113.392 334.823 114.798C339.549 116.203 343.206 117.809 343.049 118.389C342.916 119.394 342.804 120.376 342.715 121.357C337.588 120.732 330.477 121.535 325.082 123.186C325.26 119.438 325.661 116.092 325.974 113.303Z" fill="#A8387E"/>
</g>
</g>
<path d="M331.235 101.389L328.56 101.902L329.34 103.151L331.235 101.389Z" fill="#FFCD8F"/>
<path d="M335.812 128.964C336.13 128.393 336.057 127.746 335.648 127.518C335.24 127.289 334.651 127.566 334.333 128.136C334.015 128.706 334.088 129.353 334.496 129.582C334.905 129.81 335.493 129.534 335.812 128.964Z" fill="#543247"/>
<path d="M338.48 98.7558C338.48 98.7558 337.098 98.644 336.495 99.1126C337.186 99.9155 338.48 98.7558 338.48 98.7558Z" fill="#FFD08F"/>
<path d="M334.066 98.7334C331.123 98.0417 330.878 99.5811 330.878 99.5811L334.066 98.7334Z" fill="#FFFDC4"/>
<path d="M355.712 116.939C355.555 118.01 353.17 118.702 353.17 118.702L354.151 119.461C356.625 119.394 357.272 118.144 357.272 118.144C356.815 117.666 356.289 117.26 355.712 116.939Z" fill="#D4655B"/>
<path d="M362.042 121.58C361.641 122.763 356.536 122.049 356.536 122.049L356.38 122.651C360.148 123.32 361.775 122.986 361.775 122.986C361.775 122.986 361.998 122.629 362.042 121.58Z" fill="#D4655B"/>
<path d="M343.25 110.625C342.96 112.009 341.266 112.946 341.266 112.946L338.502 112.098C339.282 110.983 339.616 109.443 339.616 109.443C339.616 109.443 341.511 109.956 343.25 110.625Z" fill="#DC7363"/>
<path d="M324.993 151.833L324.926 151.878H322.117C321.894 151.008 321.649 149.914 321.426 148.866C321.203 147.817 321.092 147.059 321.047 146.478V146.255C321.047 146.166 321.025 146.099 321.025 146.032C321.025 145.966 320.98 145.318 320.98 145.051V144.76C320.964 144.627 320.957 144.493 320.958 144.359C320.947 144.33 320.939 144.3 320.935 144.27C321.482 145.795 322.169 147.266 322.987 148.665C323.722 149.937 324.458 151.052 324.993 151.833Z" fill="#D14658"/>
<path d="M353.839 138.783C352.135 141.028 350.304 143.173 348.355 145.208C346.037 147.685 343.584 150.094 341.645 151.879H339.371C340.597 150.295 342.202 148.153 343.852 145.833C344.855 144.383 345.88 142.866 346.817 141.371C347.285 140.635 347.731 139.898 348.154 139.184C348.511 138.582 348.845 138.002 349.157 137.422H349.291L350.339 137.734L353.839 138.783Z" fill="#CC4355"/>
<path d="M346.371 137.398L339.26 144.27L337.877 150.272L345.68 140.388L346.371 137.398Z" fill="#E65568"/>
<path d="M328.827 147.796L343.473 137.533L343.74 137.332C344.164 136.953 344.498 136.953 343.629 138.047L329.251 148.889L328.827 147.796Z" fill="#BD3C53"/>
<path d="M364.784 106.253L362.934 105.427C362.912 105.427 362.912 105.36 362.934 105.36L364.784 104.535H364.807L365.631 102.683C365.631 102.66 365.698 102.66 365.698 102.683L366.523 104.535H366.546L368.396 105.36C368.418 105.36 368.418 105.427 368.396 105.427L366.546 106.253H366.523L365.698 108.105H365.631L364.807 106.253H364.784Z" fill="#FF99B9"/>
<path d="M301.274 135.168L299.424 134.342C299.412 134.342 299.4 134.338 299.392 134.329C299.384 134.321 299.379 134.309 299.379 134.298C299.379 134.286 299.384 134.275 299.392 134.266C299.4 134.258 299.412 134.253 299.424 134.253L301.274 133.428H301.296L302.121 131.598C302.121 131.553 302.166 131.553 302.188 131.598L303.012 133.428H303.035L304.886 134.253C304.896 134.265 304.902 134.281 304.902 134.298C304.902 134.314 304.896 134.33 304.886 134.342L303.035 135.168H303.012L302.188 136.997C302.166 137.042 302.121 137.042 302.121 136.997L301.296 135.168H301.274Z" fill="#5580F9"/>
<path d="M355.533 111.496C352.568 108.797 350.094 107.682 350.094 107.682C352.858 108.239 354.842 109.154 355.533 111.496Z" fill="#EB9363"/>
<path d="M325.438 99.5821L320.735 100.609C321.292 99.5374 321.916 99.3366 325.438 99.5821Z" fill="#FFFDC4"/>
<path d="M333.954 135.858C332.015 135.858 330.164 135.814 329.585 136.305C329.005 136.796 329.919 137.934 331.346 139.004C331.97 139.473 332.26 139.517 333.754 138.201C334.846 137.264 335.448 135.836 333.954 135.858Z" fill="#C74153"/>
<path d="M333.151 135.949L334.779 136.216C335.002 136.685 334.512 137.555 333.754 138.203C332.26 139.519 331.97 139.474 331.346 139.006L330.7 138.47C330.945 137.89 331.725 136.418 333.151 135.949Z" fill="#A82C3C"/>
<path d="M330.254 136.039C331.101 135.838 332.505 135.86 333.954 135.86C334.779 135.838 334.957 136.284 334.779 136.82L330.365 136.909C330.12 136.909 330.164 136.418 330.254 136.039Z" fill="white"/>
<path d="M323.811 133.293C323.365 132.512 323.611 131.263 324.569 130.616C324.515 130.762 324.492 130.918 324.505 131.074C324.516 131.229 324.562 131.38 324.639 131.516C324.715 131.652 324.82 131.77 324.947 131.861C325.073 131.952 325.218 132.014 325.371 132.043C325.907 132.133 326.888 131.932 327.311 131.775C328.492 131.329 329.83 131.307 331.435 132.133C333.619 130.95 335.091 131.977 337.075 131.977C337.618 131.982 338.159 131.907 338.68 131.754C340.352 131.263 340.33 130.459 339.951 129.611C342.336 130.169 342.225 132.712 341.177 133.828C340.553 134.609 339.393 134.966 337.855 134.587C335.448 136.64 334.266 136.773 331.435 134.966C329.139 136.884 326.932 136.684 325.617 134.274C325.617 134.274 324.279 134.163 323.811 133.293Z" fill="#6B3143"/>
<path d="M331.435 134.968C329.139 136.886 326.932 136.685 325.617 134.276C325.617 134.276 323.544 134.097 323.588 132.513C323.856 133.138 324.948 133.741 325.974 133.518C327.623 134.856 329.384 134.454 331.034 133.183C331.034 133.183 334.534 135.057 337.008 133.004C339.839 133.696 341.846 132.402 341.511 130.617C342.18 131.621 341.89 133.071 341.177 133.83C340.553 134.611 339.394 134.968 337.855 134.588C335.448 136.641 334.266 136.775 331.435 134.968Z" fill="#5E2737"/>
<path d="M329.199 129.575C329.606 129.4 329.741 128.8 329.5 128.233C329.258 127.667 328.732 127.348 328.324 127.522C327.917 127.696 327.782 128.297 328.023 128.864C328.265 129.43 328.791 129.748 329.199 129.575Z" fill="#543247"/>
<path d="M43.263 60.4126C43.263 59.9782 42.9243 59.6709 42.5114 59.6709C42.088 59.6709 41.7493 59.9782 41.7493 60.4126C41.7493 60.8365 42.088 61.1332 42.5114 61.1332C42.9243 61.1332 43.263 60.8365 43.263 60.4126ZM43.136 67.5015V61.9915H41.8657V67.3956C41.8657 67.8406 41.654 67.9996 41.3047 67.9996C41.1565 67.9996 41.0083 67.989 40.8918 67.9572L41.0612 68.9956C41.1459 69.0274 41.3682 69.038 41.5587 69.038C42.5009 69.038 43.136 68.6035 43.136 67.5015ZM44.4691 61.9915V65.6684C44.4691 66.6326 44.9666 67.2154 45.9299 67.2154C46.6074 67.2154 47.1579 66.8446 47.6342 66.3889L47.7507 67.1095H48.8304V61.9915H47.5601V65.4459C47.1896 65.8273 46.7874 66.0816 46.3957 66.0816C45.9299 66.0816 45.7394 65.7849 45.7394 65.3399V61.9915H44.4691ZM53.914 65.6048C53.914 64.6405 53.3953 64.2803 52.0721 63.9412C51.3099 63.7399 51.1194 63.5809 51.1194 63.3054C51.1194 63.0299 51.3522 62.8392 51.8286 62.8392C52.3367 62.8392 52.9401 63.0193 53.4482 63.3054L53.6176 62.2458C53.1095 62.0233 52.4955 61.8855 51.8286 61.8855C50.643 61.8855 49.9443 62.5107 49.9443 63.4008C49.9443 64.3333 50.463 64.6935 51.7016 65.0114C52.5167 65.2127 52.739 65.3611 52.739 65.7214C52.739 66.0604 52.4426 66.2618 51.8921 66.2618C51.257 66.2618 50.5795 66.0181 50.029 65.6578L49.8596 66.7174C50.3466 66.9823 51.1088 67.2154 51.8498 67.2154C53.1942 67.2154 53.914 66.6114 53.914 65.6048ZM57.6526 67.1095L57.4938 66.0392C57.3774 66.071 57.2398 66.0816 57.0916 66.0816C56.6046 66.0816 56.4247 65.8591 56.4247 65.4459V63.0299H57.6209L57.4621 61.9915H56.4247V60.1795L55.165 60.3703V61.9915H54.4451V63.0299H55.165V65.6578C55.165 66.8234 55.8425 67.1942 56.8481 67.1942C57.2186 67.1942 57.4515 67.1519 57.6526 67.1095ZM61.0707 64.6723V63.4432H58.3187V64.6723H61.0707ZM66.0625 66.7174L65.8932 65.626C65.4274 65.9863 64.9934 66.1134 64.5488 66.1134C63.8078 66.1134 63.2255 65.6048 63.2255 64.5452C63.2255 63.5279 63.7548 62.9875 64.5064 62.9875C65.0145 62.9875 65.4168 63.1571 65.8296 63.4644L66.0096 62.32C65.6391 62.0869 65.1098 61.8855 64.4429 61.8855C63.0562 61.8855 61.9446 62.7968 61.9446 64.577C61.9446 66.2512 62.9503 67.2048 64.3688 67.2048C65.0463 67.2048 65.5756 67.0459 66.0625 66.7174ZM71.4395 67.1095V63.422C71.4395 62.4683 70.9314 61.8855 69.9787 61.8855C69.3012 61.8855 68.7719 62.2458 68.3485 62.6379V59.459L67.0782 59.6603V67.1095H68.3485V63.6551C68.719 63.263 69.1212 63.0087 69.5129 63.0087C69.9787 63.0087 70.1692 63.316 70.1692 63.7611V67.1095H71.4395ZM74.1624 60.4126C74.1624 59.9782 73.8237 59.6709 73.4108 59.6709C72.9874 59.6709 72.6487 59.9782 72.6487 60.4126C72.6487 60.8365 72.9874 61.1332 73.4108 61.1332C73.8237 61.1332 74.1624 60.8365 74.1624 60.4126ZM74.0354 67.1095V61.9915H72.7651V67.1095H74.0354ZM76.7024 67.1095V59.459L75.4322 59.6603V67.1095H76.7024ZM79.3695 67.1095V59.459L78.0992 59.6603V67.1095H79.3695ZM82.1636 60.4126C82.1636 59.9782 81.8248 59.6709 81.412 59.6709C80.9885 59.6709 80.6498 59.9782 80.6498 60.4126C80.6498 60.8365 80.9885 61.1332 81.412 61.1332C81.8248 61.1332 82.1636 60.8365 82.1636 60.4126ZM82.0365 67.1095V61.9915H80.7662V67.1095H82.0365ZM87.7423 67.1095V63.422C87.7423 62.4683 87.2342 61.8855 86.2814 61.8855C85.5934 61.8855 85.0535 62.2564 84.5771 62.712L84.4607 61.9915H83.3809V67.1095H84.6512V63.6551C85.0217 63.263 85.424 63.0087 85.8157 63.0087C86.2814 63.0087 86.472 63.316 86.472 63.7611V67.1095H87.7423Z" fill="white"/>
<path fill-rule="evenodd" clip-rule="evenodd" d="M31.4248 59.2773C31.2232 59.1978 30.9914 59.242 30.8372 59.3892L28.5229 61.8133H26.9056C26.6091 61.8133 26.3665 62.0453 26.3665 62.3284V65.419C26.3665 65.7022 26.6091 65.9341 26.9056 65.9341H28.5229L30.8372 68.3589C30.9914 68.5066 31.2232 68.5508 31.4248 68.4707C31.6264 68.3912 31.7574 68.2029 31.7574 67.9945V59.753C31.7574 59.5452 31.6264 59.3562 31.4248 59.2773ZM32.8356 60.2681V61.2982C34.3219 61.2982 35.5311 62.4538 35.5311 63.8737C35.5311 65.2936 34.3219 66.4492 32.8356 66.4492V67.4794C34.9165 67.4794 36.6093 65.8623 36.6093 63.8737C36.6093 61.8857 34.9165 60.2681 32.8356 60.2681ZM32.8356 62.3284C33.7273 62.3284 34.4529 63.0219 34.4529 63.8737C34.4529 64.7261 33.7273 65.419 32.8356 65.419V64.3888C33.1326 64.3888 33.3747 64.1575 33.3747 63.8737C33.3747 63.59 33.1326 63.3586 32.8356 63.3586V62.3284Z" fill="#B9BBBE"/>
<path d="M153.494 270.204C161.289 270.204 167.609 263.878 167.609 256.076C167.609 248.273 161.289 241.947 153.494 241.947C145.699 241.947 139.38 248.273 139.38 256.076C139.38 263.878 145.699 270.204 153.494 270.204Z" fill="#DBE7FF"/>
<path d="M159.097 253.809C158.923 253.701 158.706 253.692 158.524 253.783L157.023 254.535V253.132C157.023 252.483 156.495 251.955 155.847 251.955H148.789C148.141 251.955 147.613 252.483 147.613 253.132V259.019C147.613 259.669 148.141 260.197 148.789 260.197H155.847C156.495 260.197 157.023 259.669 157.023 259.019V257.617L158.524 258.368C158.607 258.41 158.697 258.431 158.787 258.431C158.895 258.431 159.002 258.401 159.097 258.343C159.269 258.235 159.375 258.046 159.375 257.842V254.31C159.375 254.106 159.269 253.917 159.097 253.809Z" fill="#1C1B29"/>
<path d="M187.016 270.204C194.811 270.204 201.13 263.878 201.13 256.076C201.13 248.273 194.811 241.947 187.016 241.947C179.221 241.947 172.902 248.273 172.902 256.076C172.902 263.878 179.221 270.204 187.016 270.204Z" fill="#DBE7FF"/>
<path fill-rule="evenodd" clip-rule="evenodd" d="M181.135 252.25C181.135 251.6 181.663 251.072 182.311 251.072H191.721C192.369 251.072 192.897 251.6 192.897 252.25V258.725C192.897 259.375 192.369 259.902 191.721 259.902H187.604V261.08H189.957V262.257H184.076V261.08H186.428V259.902H182.311C181.663 259.902 181.135 259.375 181.135 258.725V252.25ZM187.722 258.041V256.429C185.76 256.429 184.468 257.054 183.487 258.431C183.883 256.466 184.976 254.508 187.722 254.111V252.544L190.545 255.289L187.722 258.041Z" fill="#1C1B29"/>
<path d="M220.538 270.204C228.333 270.204 234.652 263.878 234.652 256.076C234.652 248.273 228.333 241.947 220.538 241.947C212.743 241.947 206.423 248.273 206.423 256.076C206.423 263.878 212.743 270.204 220.538 270.204Z" fill="#DBE7FF"/>
<path d="M217.421 255.486H216.421C216.421 256.187 216.621 256.84 216.95 257.417L217.674 256.693C217.515 256.328 217.421 255.922 217.421 255.486Z" fill="#1C1B29"/>
<path d="M218.779 255.538C218.782 255.554 218.785 255.57 218.785 255.588L222.302 252.061V251.955C222.302 250.978 221.514 250.189 220.538 250.189C219.561 250.189 218.773 250.978 218.773 251.955V255.488C218.773 255.505 218.776 255.522 218.779 255.538Z" fill="#1C1B29"/>
<path d="M220.375 258.484L219.928 258.932L219.51 259.353C219.654 259.391 219.801 259.421 219.95 259.442V261.962H221.126V259.442C223.055 259.154 224.654 257.494 224.654 255.486H223.655C223.655 257.252 222.161 258.489 220.538 258.489C220.484 258.489 220.429 258.487 220.375 258.484Z" fill="#1C1B29"/>
<path d="M225.831 251.525L225.084 250.777L215.245 260.626L215.992 261.374L218.456 258.913L219.179 258.183L220.155 257.206L222.296 255.063L225.831 251.525Z" fill="#1C1B29"/>
<path d="M254.059 270.204C261.855 270.204 268.174 263.878 268.174 256.076C268.174 248.273 261.855 241.947 254.059 241.947C246.264 241.947 239.945 248.273 239.945 256.076C239.945 263.878 246.264 270.204 254.059 270.204Z" fill="#E7366B"/>
<path fill-rule="evenodd" clip-rule="evenodd" d="M259.421 249.668L260.46 250.709L258.628 252.543L260.46 254.377L259.421 255.418L257.588 253.584L255.756 255.418L254.716 254.377L256.549 252.543L254.716 250.709L255.756 249.668L257.588 251.502L259.421 249.668ZM257.588 261.962H254.648C251.075 261.962 248.178 259.063 248.178 255.486V252.543C248.178 252.218 248.442 251.954 248.767 251.954H251.119C251.444 251.954 251.707 252.218 251.707 252.543V254.898C251.707 255.223 251.444 255.486 251.119 255.486H250.531C250.568 257.805 252.295 259.607 254.648 259.607V259.019C254.648 258.693 254.91 258.43 255.236 258.43H257.588C257.913 258.43 258.176 258.693 258.176 259.019V261.373C258.176 261.699 257.913 261.962 257.588 261.962Z" fill="white"/>
</g>
<mask id="mask3_2099_57306" style="mask-type:alpha" maskUnits="userSpaceOnUse" x="25" y="77" width="254" height="158">
<path d="M278.172 82.4145C278.172 79.8137 276.065 77.7051 273.467 77.7051H29.9931C27.3947 77.7051 25.2883 79.8137 25.2883 82.4145V229.584C25.2883 232.185 27.3947 234.294 29.9931 234.294H273.467C276.065 234.294 278.172 232.185 278.172 229.584V82.4145Z" fill="#A8BFFF"/>
</mask>
<g mask="url(#mask3_2099_57306)">
<path d="M278.172 82.4145C278.172 79.8137 276.065 77.7051 273.467 77.7051H29.9931C27.3947 77.7051 25.2883 79.8137 25.2883 82.4145V229.584C25.2883 232.185 27.3947 234.294 29.9931 234.294H273.467C276.065 234.294 278.172 232.185 278.172 229.584V82.4145Z" fill="#A8BFFF"/>
<path d="M171.725 187.375C180.429 161.768 204.953 157.706 217.656 164.123C215.892 150.406 233.652 121.973 267.233 139.339H278.172V229.584H172.902L171.725 187.375Z" fill="#C2D2FF"/>
<path d="M61.0449 189.26C58.6925 182.549 48.1066 165.831 25.2883 168.656V217.87H113.092C112.857 193.028 85.2158 179.547 61.0449 189.26Z" fill="#C2D2FF"/>
<path d="M25.2883 234.294H278.172V176.897H234.652V222.402H218.773V208.097H182.429L116.738 177.604H87.7446V167.479H73.395V203.565L66.0437 201.21L56.046 211.924H25.2883V234.294Z" fill="#648AE8"/>
<path d="M56.046 219.164H25.2883V222.396H56.046V219.164Z" fill="#7B6EB3"/>
<path d="M67.3963 234.352L78.8055 222.932H103.565V234.293L67.3963 234.352Z" fill="#6273E3"/>
<path d="M267.233 229.584H202.365V234.329H267.233V229.584Z" fill="#6273E3"/>
<path d="M169.902 113.438C171.786 113.438 173.313 111.909 173.313 110.024C173.313 108.138 171.786 106.609 169.902 106.609C168.019 106.609 166.491 108.138 166.491 110.024C166.491 111.909 168.019 113.438 169.902 113.438Z" fill="#7D2952"/>
<path d="M146.614 121.327C148.497 121.327 150.024 119.798 150.024 117.912C150.024 116.027 148.497 114.498 146.614 114.498C144.73 114.498 143.203 116.027 143.203 117.912C143.203 119.798 144.73 121.327 146.614 121.327Z" fill="#7D2952"/>
<path d="M116.679 129.333C118.563 129.333 120.09 127.804 120.09 125.918C120.09 124.033 118.563 122.504 116.679 122.504C114.795 122.504 113.268 124.033 113.268 125.918C113.268 127.804 114.795 129.333 116.679 129.333Z" fill="#7D2952"/>
<path d="M95.2135 133.335C97.0972 133.335 98.6245 131.806 98.6245 129.92C98.6245 128.035 97.0972 126.506 95.2135 126.506C93.3298 126.506 91.8025 128.035 91.8025 129.92C91.8025 131.806 93.3298 133.335 95.2135 133.335Z" fill="#7D2952"/>
<path d="M71.8659 135.866C73.7496 135.866 75.2769 134.337 75.2769 132.451C75.2769 130.566 73.7496 129.037 71.8659 129.037C69.9822 129.037 68.4549 130.566 68.4549 132.451C68.4549 134.337 69.9822 135.866 71.8659 135.866Z" fill="#7D2952"/>
<path d="M49.6945 135.278C51.5783 135.278 53.1055 133.749 53.1055 131.864C53.1055 129.978 51.5783 128.449 49.6945 128.449C47.8106 128.449 46.2835 129.978 46.2835 131.864C46.2835 133.749 47.8106 135.278 49.6945 135.278Z" fill="#7D2952"/>
<path d="M260.47 187.2C262.353 187.2 263.881 185.671 263.881 183.785C263.881 181.9 262.353 180.371 260.47 180.371C258.586 180.371 257.059 181.9 257.059 183.785C257.059 185.671 258.586 187.2 260.47 187.2Z" fill="#7D2952"/>
<path d="M273.467 77.7051H25.2883V123.21C75.2181 136.514 158.023 116.322 203.777 87.6538C219.303 163.652 278.172 187.258 278.172 187.258V82.4145C278.172 81.1653 277.676 79.9674 276.794 79.0844C275.912 78.2013 274.715 77.7051 273.467 77.7051Z" fill="#7D2952"/>
<path d="M25.2883 77.7051V86.9473C83.8632 119.737 160.963 102.135 193.309 77.7051H25.2883Z" fill="#70254A"/>
<path d="M278.172 77.7051H227.948C229.889 123.151 250.766 158.648 278.172 176.898V77.7051Z" fill="#70254A"/>
<path d="M196.72 175.426C193.779 182.372 188.486 195.676 188.486 195.676L201.954 204.036C207.364 191.379 209.187 184.668 210.07 181.136C210.952 177.604 211.54 174.19 206.953 171.423C202.365 168.656 199.837 168.126 196.72 175.426Z" fill="#F073AB"/>
<path d="M208.541 196.678L200.484 215.28C199.853 216.749 198.935 218.076 197.784 219.183C196.631 220.29 195.269 221.155 193.778 221.726C192.287 222.296 190.696 222.562 189.1 222.506C187.504 222.451 185.936 222.075 184.487 221.403L154.376 207.686L169.373 184.021L187.722 194.265L190.427 186.258C199.895 190.026 204.953 193.323 208.541 196.678Z" fill="#F7E5BC"/>
<path d="M173.549 187.67C185.663 189.671 186.781 192.203 190.015 198.56L177.018 197.089L173.549 187.67Z" fill="#F7E5BC"/>
<path d="M116.503 86.8289C114.093 87.5807 112.06 89.2213 110.815 91.4189C109.57 93.6164 109.206 96.2054 109.798 98.6614L121.854 147.934L143.438 143.46L128.912 93.5399C128.548 92.2766 127.937 91.0986 127.113 90.0749C126.289 89.0512 125.27 88.2023 124.115 87.5771C122.959 86.9525 121.691 86.5646 120.384 86.4363C119.077 86.3074 117.758 86.441 116.503 86.8289Z" fill="#D6569B"/>
<path d="M128.5 136.397L137.027 136.044L127.971 106.375C127.845 105.948 127.634 105.552 127.349 105.211C127.064 104.87 126.712 104.592 126.314 104.393C125.917 104.194 125.483 104.079 125.04 104.055C124.596 104.032 124.153 104.1 123.736 104.255C123.007 104.535 122.405 105.073 122.047 105.768C121.689 106.463 121.6 107.266 121.796 108.023L128.5 136.397Z" fill="#E374B0"/>
<path d="M123.913 136.044C118.855 116.735 113.915 98.4271 111.68 90.1855C110.727 91.3535 110.06 92.7281 109.734 94.2003C109.407 95.6726 109.429 97.2008 109.798 98.6625L118.973 136.22L123.913 136.044Z" fill="#F06EA8"/>
<path d="M166.432 86.5943C168.851 87.3219 170.903 88.9437 172.169 91.1307C173.437 93.3176 173.824 95.9049 173.254 98.3679L161.728 147.699L140.086 143.52L154.082 93.423C154.434 92.1561 155.035 90.9717 155.849 89.9398C156.663 88.9078 157.675 88.0483 158.825 87.4126C159.975 86.7768 161.24 86.3771 162.546 86.2364C163.852 86.0957 165.174 86.2175 166.432 86.5943Z" fill="#D6569B"/>
<path d="M142.967 133.335L144.967 137.279C144.967 137.279 152.612 103.371 156.2 89.5371C155.224 90.6656 154.502 91.9907 154.082 93.4224L142.967 133.335Z" fill="#F06EA8"/>
<path d="M158.258 136.278L149.789 135.984L158.493 106.196C158.617 105.77 158.829 105.375 159.115 105.035C159.401 104.696 159.755 104.42 160.154 104.226C160.553 104.032 160.988 103.923 161.431 103.908C161.874 103.893 162.316 103.97 162.727 104.136C163.456 104.403 164.061 104.928 164.429 105.611C164.798 106.294 164.903 107.089 164.727 107.845L158.258 136.278Z" fill="#E374B0"/>
<path d="M169.875 132.313L107.532 134.929C98.608 135.303 91.6767 142.848 92.0507 151.782L92.0731 152.317C92.4471 161.249 99.9848 168.187 108.909 167.813L171.251 165.198C180.176 164.823 187.107 157.278 186.733 148.345L186.71 147.81C186.336 138.877 178.799 131.939 169.875 132.313Z" fill="#F06EA8"/>
<path d="M116.444 224.463C112.798 221.048 109.21 217.87 108.446 216.633C107.681 215.397 108.975 214.985 110.798 214.337C112.621 213.69 114.268 215.927 116.15 219.753C118.032 223.58 119.796 227.524 116.444 224.463Z" fill="#F2C591"/>
<path d="M182.429 208.097L178.9 219.282L178.43 220.695L174.078 234.352H93.1551C92.3906 231.35 93.3316 230.761 95.3899 227.406C97.4483 224.05 96.3897 224.933 96.6837 216.81C96.919 211.099 98.9773 205.801 106.329 199.208C108.563 197.265 109.093 196.5 111.386 194.381L112.092 193.733L112.445 193.38L112.915 193.027L168.197 184.314L179.312 202.858L182.429 208.097Z" fill="#F7E5BC"/>
<path d="M177.018 208.157C180.429 199.033 180.547 198.267 181.723 200.916C182.899 203.565 183.605 203.389 177.959 210.806C172.314 218.224 175.548 212.101 177.018 208.157Z" fill="#E8C282"/>
<path d="M178.9 219.282C178.547 224.639 178.077 229.702 177.489 234.352H118.032C118.091 231.939 118.149 228.936 118.267 225.287C118.257 224.893 118.277 224.499 118.326 224.109V219.576C117.914 208.804 114.856 201.445 106.329 199.208C107.916 197.619 109.563 196.029 111.386 194.381L112.092 193.733L112.915 193.027L168.197 184.314C172.549 185.904 175.43 187.022 178.724 190.378C179.077 194.616 179.253 198.796 179.312 202.858C179.371 208.568 179.194 214.043 178.9 219.282Z" fill="#1F3A70"/>
<path d="M168.197 184.314L167.432 184.432L166.668 185.197C163.845 197.03 157.905 209.392 157.905 209.392C157.905 209.392 158.199 212.394 162.316 206.567C166.432 200.739 169.961 193.851 171.725 187.376L168.197 184.314Z" fill="#172E5C"/>
<path d="M119.09 193.087C129.794 205.979 133.44 208.863 137.38 211.512C141.321 214.162 138.027 210.217 133.911 204.095C129.794 197.973 124.971 190.379 124.971 190.379L119.09 193.087Z" fill="#172E5C"/>
<path d="M178.665 220.577C178.371 225.404 177.959 229.996 177.489 234.352H118.032C118.091 231.938 118.149 228.936 118.267 225.286C118.257 224.893 118.277 224.499 118.326 224.109V219.576C131.146 222.696 148.084 228.289 151.906 229.643L178.43 220.695L178.665 220.577Z" fill="#172E5C"/>
<path d="M123.325 200.562C123.325 200.562 122.795 201.622 120.502 203.211C118.208 204.801 117.561 205.507 117.326 204.977C116.429 203.118 115.13 201.483 113.523 200.189C111.916 198.896 110.041 197.978 108.034 197.501C109.563 195.97 111.269 194.381 113.092 192.674C121.325 196.206 123.325 200.562 123.325 200.562Z" fill="#244AB0"/>
<path d="M163.316 184.314L152.142 226.17L123.56 185.551L163.316 184.314Z" fill="#D4BF9B"/>
<path d="M158.081 203.919L139.027 198.915C135.616 198.032 137.322 199.209 139.027 201.329C140.733 203.448 150.907 215.045 154.141 218.754L158.081 203.919Z" fill="#CCAC89"/>
<path d="M129.794 192.262L155.905 195.735C158.846 196.089 158.905 192.91 160.434 186.729L132.264 188.789L129.794 192.262Z" fill="#CF518A"/>
<path d="M173.596 161.014L109.434 163.583C100.989 163.921 94.4172 171.048 94.7548 179.501L94.756 179.525C95.0935 187.978 102.213 194.556 110.658 194.218L174.82 191.649C183.265 191.311 189.837 184.184 189.499 175.731L189.498 175.708C189.16 167.255 182.04 160.677 173.596 161.014Z" fill="#F06EA8"/>
<path d="M174.607 191.144C182.841 190.791 189.604 184.139 189.604 175.897C189.631 172.9 188.775 169.962 187.144 167.449C185.512 164.937 183.176 162.96 180.429 161.769C182.498 160.19 184.156 158.134 185.261 155.777C186.367 153.42 186.888 150.831 186.781 148.229V147.699C186.69 145.573 186.182 143.485 185.283 141.555C184.386 139.626 183.117 137.893 181.549 136.455C179.982 135.016 178.146 133.902 176.147 133.175C174.149 132.448 172.027 132.122 169.902 132.217L114.268 134.572C109.269 144.167 109.975 154.469 113.68 161.887C114.22 163.009 114.525 164.231 114.576 165.476C114.626 166.722 114.421 167.964 113.974 169.127C108.622 183.373 115.679 193.675 115.679 193.675L174.607 191.144Z" fill="#E05FA3"/>
<path d="M143.203 234.352H106.976C106.976 233.645 106.976 232.998 107.034 232.35V232.233C107.034 232.056 107.093 231.879 107.093 231.644C107.137 231.303 107.216 230.967 107.328 230.643L107.505 230.054L107.858 229.23L108.328 228.524L108.681 228.053L108.916 227.876C109.866 226.92 111.009 226.177 112.268 225.698C113.929 225.034 115.736 224.831 117.503 225.11L118.267 225.286C125.324 226.405 131.382 227.347 136.557 228.642L137.263 228.936C137.967 229.171 138.625 229.529 139.203 229.996L139.556 230.231L139.909 230.525C140.027 230.643 140.144 230.702 140.203 230.82L140.556 231.173C140.681 231.239 140.784 231.342 140.85 231.467L141.203 231.82L142.732 233.704L143.203 234.352Z" fill="#FF8FB1"/>
<path d="M129.683 162.286C131.096 161.36 131.175 158.977 129.859 156.964C128.542 154.951 126.33 154.069 124.917 154.995C123.503 155.921 123.425 158.303 124.741 160.316C126.057 162.33 128.269 163.211 129.683 162.286Z" fill="#1B1926"/>
<path d="M157.548 157.89C158.16 155.698 157.438 153.58 155.936 153.161C154.435 152.741 152.722 154.178 152.11 156.37C151.499 158.562 152.22 160.679 153.722 161.099C155.224 161.519 156.937 160.082 157.548 157.89Z" fill="#1B1926"/>
<path d="M102.035 163.594C98.5657 162.298 97.6835 161.886 95.2723 161.121C96.832 163.271 98.8903 165.009 101.271 166.184L100.565 166.772C102.168 166.935 103.777 167.013 105.388 167.008C108.74 166.89 109.328 166.419 102.035 163.594Z" fill="#E05FA3"/>
<path d="M103.202 144.602C105.796 142.239 107.155 139.505 106.237 138.495C105.319 137.485 102.472 138.582 99.8771 140.945C97.2824 143.308 95.9239 146.043 96.8419 147.052C97.76 148.062 100.608 146.966 103.202 144.602Z" fill="#F792C0"/>
<path d="M99.0361 226.052C103.976 224.051 105.682 223.226 107.328 222.638C108.975 222.049 107.564 221.401 103.8 219.753C100.036 218.105 99.1538 217.516 98.9185 220.754C98.6833 223.992 97.4483 226.7 99.0361 226.052Z" fill="#FAD596"/>
<path d="M108.799 224.345C100.33 226.641 100.271 227.818 100.036 229.29C99.8007 230.762 100.036 232.057 103.153 229.702C105.756 227.764 108.532 226.069 111.445 224.64C113.092 223.933 112.21 223.403 108.799 224.345Z" fill="#F7D08D"/>
<path d="M119.737 224.286C121.325 215.809 121.149 213.513 121.854 213.336C122.56 213.16 123.913 215.279 125.207 217.928C126.5 220.577 119.737 224.286 119.737 224.286Z" fill="#172E5C"/>
<path d="M117.503 225.11C114.797 225.463 109.622 225.522 109.034 234.352H106.976C106.894 233.104 107.013 231.852 107.328 230.643L107.505 230.054L107.858 229.23L108.328 228.524L108.681 228.053L108.916 227.876C109.866 226.92 111.009 226.177 112.268 225.698C113.929 225.034 115.736 224.831 117.503 225.11Z" fill="#F278B0"/>
<path d="M137.439 234.353C138.615 231.645 139.027 229.879 137.263 228.938C138.375 229.33 139.381 229.975 140.203 230.821L140.556 231.174C140.681 231.241 140.784 231.343 140.85 231.469L141.203 231.822L142.732 233.706L143.203 234.353H137.439Z" fill="#F278B0"/>
<path d="M135.851 169.363C139.733 175.957 145.437 177.487 149.26 168.951C149.305 168.875 149.328 168.788 149.325 168.699C149.323 168.61 149.296 168.524 149.246 168.45C149.198 168.376 149.128 168.318 149.048 168.281C148.966 168.245 148.877 168.233 148.789 168.245L136.263 168.598C136.178 168.608 136.097 168.638 136.027 168.686C135.956 168.734 135.898 168.798 135.858 168.873C135.817 168.948 135.795 169.032 135.794 169.117C135.793 169.203 135.813 169.287 135.851 169.363Z" fill="#751B40"/>
<path d="M124.383 163.652C127.089 158.472 132.323 160.65 132.323 160.65L129.735 166.419L124.383 163.652Z" fill="#E05FA3"/>
<path d="M150.848 159.413C156.258 157.235 158.846 162.298 158.846 162.298L153.141 165.006L150.848 159.413Z" fill="#E05FA3"/>
<path d="M143.673 168.42L136.263 168.597C136.178 168.607 136.097 168.637 136.027 168.684C135.956 168.733 135.898 168.797 135.858 168.871C135.817 168.947 135.795 169.03 135.794 169.116C135.793 169.201 135.813 169.286 135.851 169.362C139.203 175.013 143.849 176.956 147.554 172.011C146.635 170.463 145.287 169.216 143.673 168.42Z" fill="#9C2455"/>
<path d="M187.781 197.384C187.781 197.384 191.603 206.685 192.897 210.393C194.191 214.102 192.368 213.69 190.309 213.396C188.251 213.101 188.075 210.393 187.781 205.507C187.486 200.621 186.604 195.029 187.781 197.384Z" fill="#FAD596"/>
<path d="M191.838 194.911C192.427 198.914 194.485 202.622 194.897 203.623C195.308 204.624 198.366 203.976 201.013 203.329C203.659 202.681 202.013 201.739 198.778 199.031C195.543 196.323 191.309 191.673 191.838 194.911Z" fill="#FAD596"/>
<path d="M72.6892 216.633L68.749 214.867C68.6902 214.867 68.6902 214.749 68.749 214.749L72.6892 212.983L74.4535 209.039H74.63L76.3943 212.983L80.3346 214.749C80.3934 214.749 80.3934 214.867 80.3346 214.867L76.3943 216.633L74.63 220.577H74.4535L72.6892 216.633Z" fill="#3366E0"/>
<path d="M198.954 137.103L197.131 136.279C197.073 136.279 197.073 136.22 197.131 136.22L198.954 135.395L199.778 133.512H199.895L200.719 135.395L202.601 136.22L200.719 137.044L199.895 138.869C199.837 138.928 199.837 138.928 199.778 138.869L198.954 137.044V137.103Z" fill="#FAFAFA"/>
<path d="M87.4506 114.143L85.5687 113.319L87.4506 112.495L88.2739 110.611H88.3327L89.1561 112.495H89.2149L91.038 113.319C91.0968 113.319 91.0968 113.378 91.038 113.378L89.2149 114.202H89.1561L88.3327 116.027C88.3327 116.086 88.2739 116.086 88.2739 116.027L87.4506 114.202V114.143Z" fill="#F7E5BC"/>
<path d="M260.47 77.7051H251.295V234.329H260.47V77.7051Z" fill="#783837"/>
<path d="M49.0476 77.7051H39.8732V234.329H49.0476V77.7051Z" fill="#783837"/>
<path d="M260.47 77.7051H251.295V197.019H260.47V77.7051Z" fill="#571E2F"/>
<path d="M49.0476 77.7051H39.8732V148.906H49.0476V77.7051Z" fill="#571E2F"/>
<path d="M203.071 108.258C204.955 108.258 206.482 106.73 206.482 104.844C206.482 102.958 204.955 101.43 203.071 101.43C201.187 101.43 199.66 102.958 199.66 104.844C199.66 106.73 201.187 108.258 203.071 108.258Z" fill="#7D2952"/>
<path d="M183.487 107.61C185.371 107.61 186.898 106.081 186.898 104.196C186.898 102.31 185.371 100.781 183.487 100.781C181.604 100.781 180.076 102.31 180.076 104.196C180.076 106.081 181.604 107.61 183.487 107.61Z" fill="#7D2952"/>
<path d="M25.2883 125.918V132.688C26.1829 132.688 27.0417 132.336 27.6797 131.709C28.3177 131.081 28.6839 130.228 28.6993 129.332C28.6993 128.427 28.3399 127.559 27.7002 126.918C27.0606 126.278 26.193 125.918 25.2883 125.918Z" fill="#7D2952"/>
<path d="M207.188 122.797C209.072 122.797 210.599 121.269 210.599 119.383C210.599 117.498 209.072 115.969 207.188 115.969C205.304 115.969 203.777 117.498 203.777 119.383C203.777 121.269 205.304 122.797 207.188 122.797Z" fill="#7D2952"/>
<path d="M227.948 157.059C229.832 157.059 231.359 155.53 231.359 153.645C231.359 151.759 229.832 150.23 227.948 150.23C226.064 150.23 224.537 151.759 224.537 153.645C224.537 155.53 226.064 157.059 227.948 157.059Z" fill="#7D2952"/>
<path d="M240.063 170.893C241.946 170.893 243.474 169.364 243.474 167.479C243.474 165.593 241.946 164.064 240.063 164.064C238.179 164.064 236.652 165.593 236.652 167.479C236.652 169.364 238.179 170.893 240.063 170.893Z" fill="#7D2952"/>
<path d="M215.657 138.633C217.54 138.633 219.068 137.105 219.068 135.219C219.068 133.333 217.54 131.805 215.657 131.805C213.773 131.805 212.246 133.333 212.246 135.219C212.246 137.105 213.773 138.633 215.657 138.633Z" fill="#7D2952"/>
<path d="M244.65 187.729H242.297V192.35H244.65V187.729Z" fill="#5177D6"/>
<path d="M269.585 202.918H267.233V207.539H269.585V202.918Z" fill="#5177D6"/>
<path d="M249.355 206.625H247.002V211.246H249.355V206.625Z" fill="#5177D6"/>
<path d="M243.474 219.164H241.121V223.785H243.474V219.164Z" fill="#5177D6"/>
<path d="M209.481 221.461H207.129V226.082H209.481V221.461Z" fill="#5177D6"/>
<path d="M93.0375 194.5H90.6851V199.121H93.0375V194.5Z" fill="#5177D6"/>
<path d="M60.8684 221.461H58.516V226.082H60.8684V221.461Z" fill="#5177D6"/>
<path d="M88.862 165.359H72.2776V167.496H88.862V165.359Z" fill="#8F80CF"/>
<path d="M229.947 219.164H218.773V222.396H229.947V219.164Z" fill="#8F80CF"/>
</g>
<defs>
<linearGradient id="paint0_linear_2099_57306" x1="329.902" y1="99.972" x2="339.651" y2="125.069" gradientUnits="userSpaceOnUse">
<stop stop-color="#FFC285"/>
<stop offset="1" stop-color="#DB8D6B"/>
</linearGradient>
<linearGradient id="paint1_linear_2099_57306" x1="362.232" y1="114.712" x2="308.425" y2="114.712" gradientUnits="userSpaceOnUse">
<stop stop-color="#D67569"/>
<stop offset="1" stop-color="#E39E7F"/>
</linearGradient>
</defs>
</svg>
