<svg width="940" height="152" viewBox="0 0 940 152" fill="none" xmlns="http://www.w3.org/2000/svg">
    <path d="M275.24 338.786C316.569 327.712 342.376 290.009 332.881 254.576C331.785 250.484 330.266 246.602 328.372 242.951C341.761 243.97 355.976 242.724 370.267 238.895C424.259 224.428 458.882 178.568 447.601 136.464C438.304 101.768 400.736 80.4491 357.591 82.1174C357.76 76.5903 357.136 70.9647 355.638 65.3734C347.074 33.4129 313.172 14.7287 279.914 23.6401C271.498 25.8951 263.93 29.7001 257.458 34.6459C245.545 8.70979 215.133 -5.38476 185.171 2.64348C161.2 9.06664 144.059 27.8981 139.521 49.7247C119.822 40.9666 97.0966 38.6477 74.6381 44.6654C26.2975 57.6183 -3.80197 104.641 3.31885 152.914C-0.631264 153.519 -4.59992 154.348 -8.56853 155.412C-59.4989 169.058 -91.1575 216.055 -79.28 260.383C-67.4025 304.71 -16.4868 329.581 34.4435 315.935C45.4736 312.979 55.5999 308.459 64.5759 302.741C64.9687 305.981 65.5943 309.234 66.4636 312.479C76.4049 349.58 114.47 371.616 151.485 361.698C173.436 355.817 190.087 340.018 197.932 320.396C215.767 338.747 245.47 346.762 275.24 338.786Z" fill="white" fill-opacity="0.2"/>
    <path d="M844.892 231.583C870.837 224.631 887.038 200.962 881.078 178.717C880.39 176.149 879.436 173.711 878.247 171.42C886.652 172.06 895.577 171.277 904.548 168.873C938.443 159.791 960.179 131.001 953.097 104.569C947.26 82.7876 923.676 69.4037 896.59 70.451C896.696 66.9812 896.305 63.4495 895.364 59.9394C889.988 39.8751 868.705 28.1455 847.826 33.7399C842.543 35.1556 837.791 37.5443 833.729 40.6492C826.25 24.3669 807.157 15.5186 788.348 20.5586C773.299 24.591 762.539 36.413 759.69 50.1154C747.323 44.6172 733.056 43.1615 718.957 46.9393C688.61 55.0708 669.714 84.5909 674.184 114.896C671.704 115.276 669.213 115.796 666.721 116.464C634.748 125.031 614.874 154.535 622.33 182.363C629.787 210.191 661.751 225.805 693.724 217.238C700.648 215.382 707.005 212.545 712.64 208.955C712.887 210.989 713.28 213.031 713.825 215.068C720.066 238.36 743.963 252.194 767.201 245.967C780.981 242.275 791.434 232.357 796.359 220.038C807.556 231.559 826.203 236.591 844.892 231.583Z" fill="white" fill-opacity="0.2"/>
</svg>