<svg width="335" height="400" viewBox="0 0 335 400" fill="none" xmlns="http://www.w3.org/2000/svg">
    <path d="M117.257 510.225C146.742 502.324 165.153 475.426 158.379 450.147C157.597 447.228 156.514 444.458 155.163 441.854C164.714 442.581 174.856 441.692 185.052 438.96C223.571 428.638 248.272 395.921 240.224 365.883C233.591 341.13 206.789 325.92 176.008 327.11C176.128 323.167 175.684 319.153 174.615 315.164C168.505 292.363 144.318 279.033 120.591 285.39C114.587 286.999 109.188 289.714 104.571 293.242C96.0711 274.739 74.3743 264.683 52.9987 270.411C35.8967 274.993 23.6683 288.428 20.4306 304C6.3767 297.752 -9.83627 296.097 -25.8588 300.391C-60.3464 309.631 -81.8203 343.179 -76.7401 377.618C-79.5582 378.05 -82.3896 378.642 -85.2209 379.4C-121.556 389.136 -144.142 422.665 -135.669 454.29C-127.195 485.914 -90.8701 503.658 -54.5349 493.922C-46.6656 491.814 -39.4412 488.589 -33.0375 484.509C-32.7572 486.821 -32.311 489.142 -31.6908 491.456C-24.5983 517.926 2.55875 533.647 28.9663 526.571C44.6263 522.375 56.5061 511.104 62.103 497.105C74.8268 510.197 96.0181 515.916 117.257 510.225Z" fill="white" fill-opacity="0.2"/>
    <path d="M339.15 125.328C323.871 121.234 314.331 107.296 317.841 94.1967C318.246 92.6841 318.807 91.2488 319.507 89.8993C314.558 90.2761 309.303 89.8154 304.019 88.3998C284.06 83.0515 271.26 66.0979 275.43 50.5326C278.867 37.7061 292.756 29.8246 308.706 30.4414C308.643 28.3981 308.874 26.3184 309.428 24.2513C312.594 12.436 325.127 5.52872 337.422 8.82313C340.533 9.65677 343.331 11.0634 345.723 12.8918C350.128 3.3036 361.37 -1.90695 372.447 1.06097C381.309 3.43552 387.645 10.3972 389.323 18.4662C396.606 15.2285 405.007 14.3712 413.309 16.5959C431.18 21.3844 442.308 38.768 439.675 56.6139C441.135 56.8374 442.603 57.1441 444.07 57.5372C462.898 62.5822 474.602 79.9563 470.211 96.3435C465.82 112.731 446.997 121.925 428.169 116.88C424.091 115.788 420.348 114.117 417.029 112.003C416.884 113.201 416.653 114.403 416.331 115.603C412.656 129.319 398.584 137.465 384.9 133.798C376.785 131.624 370.629 125.784 367.729 118.53C361.136 125.314 350.155 128.277 339.15 125.328Z" fill="white" fill-opacity="0.2"/>
</svg>