<svg width="529" height="353" viewBox="0 0 529 353" fill="none" xmlns="http://www.w3.org/2000/svg">
<path opacity="0.5" d="M72.0677 57.6334C77.5761 60.9801 77.5761 68.9748 72.0677 72.3216L13.0943 108.152C7.36752 111.631 0.038892 107.509 0.0388912 100.808L0.0388823 29.1472C0.0388814 22.4463 7.36753 18.3237 13.0943 21.8031L72.0677 57.6334Z" fill="url(#paint0_linear_6_3993)"/>
<path opacity="0.5" d="M162.864 21.1467C158.718 18.639 158.718 12.6249 162.864 10.1172L177.802 1.082C182.098 -1.516 187.583 1.57683 187.583 6.59674L187.583 24.6672C187.583 29.6871 182.098 32.7799 177.802 30.1819L162.864 21.1467Z" fill="url(#paint1_linear_6_3993)"/>
<path opacity="0.5" d="M204.052 348.299C200.703 353.794 192.725 353.794 189.376 348.299L169.326 315.4C165.837 309.674 169.958 302.335 176.664 302.335H216.763C223.469 302.335 227.591 309.674 224.101 315.4L204.052 348.299Z" fill="url(#paint2_linear_6_3993)"/>
<path opacity="0.5" d="M445.232 290.49C439.683 287.15 439.683 279.105 445.232 275.765L495.704 245.385C501.431 241.937 508.729 246.062 508.729 252.747V313.508C508.729 320.193 501.431 324.318 495.704 320.87L445.232 290.49Z" fill="url(#paint3_linear_6_3993)"/>
<defs>
<linearGradient id="paint0_linear_6_3993" x1="59.0628" y1="16.6967" x2="-34.7925" y2="65.4755" gradientUnits="userSpaceOnUse">
<stop stop-color="#D92779"/>
<stop offset="1" stop-color="#7C277E"/>
</linearGradient>
<linearGradient id="paint1_linear_6_3993" x1="163.84" y1="34.9661" x2="201.522" y2="15.294" gradientUnits="userSpaceOnUse">
<stop stop-color="#D92779"/>
<stop offset="1" stop-color="#7C277E"/>
</linearGradient>
<linearGradient id="paint2_linear_6_3993" x1="230.109" y1="343.036" x2="196.531" y2="278.232" gradientUnits="userSpaceOnUse">
<stop stop-color="#D92779"/>
<stop offset="1" stop-color="#7C277E"/>
</linearGradient>
<linearGradient id="paint3_linear_6_3993" x1="455.591" y1="326.19" x2="539.75" y2="282.04" gradientUnits="userSpaceOnUse">
<stop stop-color="#D92779"/>
<stop offset="1" stop-color="#7C277E"/>
</linearGradient>
</defs>
</svg>
