<svg width="20" height="20" viewBox="0 0 20 20" fill="none" xmlns="http://www.w3.org/2000/svg">
<path d="M1.66602 11.6662C1.66602 16.2611 5.40442 19.9995 9.99935 19.9995C14.5943 19.9995 18.3327 16.2611 18.3327 11.6662C18.3327 9.33279 17.3415 7.10541 15.6414 5.53579C14.7349 4.69883 14.2936 4.52668 14.2936 4.52668C13.9605 4.32608 13.6139 4.15416 13.2594 4.00279C13.3044 3.78286 13.3327 3.55866 13.3327 3.33283C13.3327 -0.965111 6.66602 -0.96511 6.66602 3.33283C6.66602 3.55866 6.6943 3.78286 6.73926 4.00239C6.38485 4.15375 6.03857 4.32567 5.70512 4.52607L4.35726 5.53539C2.65763 7.10399 1.66602 9.33198 1.66602 11.6662ZM16.6123 10.8328H15.8327C15.3727 10.8328 14.9993 11.2062 14.9993 11.6662C14.9993 12.1262 15.3727 12.4995 15.8327 12.4995H16.608C16.2302 15.5091 13.8423 17.897 10.8327 18.2748V17.4995C10.8327 17.0395 10.4594 16.6662 9.99935 16.6662C9.53935 16.6662 9.16602 17.0395 9.16602 17.4995V18.2748C6.15637 17.897 3.76847 15.5091 3.39067 12.4995H4.16602C4.62602 12.4995 4.99935 12.1262 4.99935 11.6662C4.99935 11.2062 4.62602 10.8328 4.16602 10.8328H3.38639C3.6169 9.0211 4.58858 7.35708 6.08272 6.27106C6.6827 5.83832 7.33842 5.50996 8.03219 5.29572C8.40145 5.18159 8.7819 5.10448 9.16561 5.05667V5.83283C9.16561 6.29283 9.53894 6.66616 9.99894 6.66616C10.4589 6.66616 10.8323 6.29283 10.8323 5.83283V5.05667C11.216 5.10448 11.596 5.18159 11.9651 5.29572C12.6587 5.50996 13.3156 5.83832 13.9131 6.26944C15.4097 7.35708 16.3818 9.0211 16.6123 10.8328ZM11.666 3.33283C11.666 3.38858 11.6636 3.44412 11.6577 3.49864C11.1139 3.38858 10.5584 3.33283 9.99935 3.33283C9.44027 3.33283 8.88485 3.38858 8.34102 3.49864C8.33512 3.44412 8.33268 3.38858 8.33268 3.33283C8.33268 1.18379 11.666 1.18379 11.666 3.33283Z" fill="#E3734F"/>
<path d="M12.744 8.74399L10.244 11.244C9.91867 11.5695 9.91867 12.0969 10.244 12.4224C10.4065 12.5853 10.6198 12.6665 10.8332 12.6665C11.0466 12.6665 11.2598 12.5853 11.4224 12.4224L13.9224 9.92237C14.2477 9.59685 14.2477 9.06951 13.9224 8.74399C13.5973 8.41867 13.0691 8.41867 12.744 8.74399Z" fill="#E3734F"/>
</svg>
