<svg width="26" height="26" viewBox="0 0 26 26" fill="none" xmlns="http://www.w3.org/2000/svg">
<rect width="26" height="26" rx="13" fill="#DFDAE7" fill-opacity="0.5"/>
<path d="M11.1027 16.1085C11.3507 15.8065 11.5 15.4205 11.5 15C11.5 14.035 10.7148 13.25 9.75 13.25C8.78525 13.25 8 14.035 8 15C8 15.4205 8.14925 15.8065 8.39725 16.1085C7.56425 16.5817 7 17.4755 7 18.5C7 18.776 7.224 19 7.5 19C7.776 19 8 18.776 8 18.5C8 17.535 8.78525 16.75 9.75 16.75C10.7148 16.75 11.5 17.535 11.5 18.5C11.5 18.776 11.724 19 12 19C12.276 19 12.5 18.776 12.5 18.5C12.5 17.4755 11.9358 16.5817 11.1027 16.1085ZM9.75 15.75C9.3365 15.75 9 15.4135 9 15C9 14.5865 9.3365 14.25 9.75 14.25C10.1635 14.25 10.5 14.5865 10.5 15C10.5 15.4135 10.1635 15.75 9.75 15.75Z" fill="#433558"/>
<path d="M17.6027 16.1085C17.8507 15.8065 18 15.4205 18 15C18 14.035 17.2148 13.25 16.25 13.25C15.2852 13.25 14.5 14.035 14.5 15C14.5 15.4205 14.6493 15.8065 14.8973 16.1085C14.0643 16.5817 13.5 17.4755 13.5 18.5C13.5 18.776 13.724 19 14 19C14.276 19 14.5 18.776 14.5 18.5C14.5 17.535 15.2852 16.75 16.25 16.75C17.2148 16.75 18 17.535 18 18.5C18 18.776 18.224 19 18.5 19C18.776 19 19 18.776 19 18.5C19 17.4755 18.4358 16.5817 17.6027 16.1085ZM16.25 15.75C15.8365 15.75 15.5 15.4135 15.5 15C15.5 14.5865 15.8365 14.25 16.25 14.25C16.6635 14.25 17 14.5865 17 15C17 15.4135 16.6635 15.75 16.25 15.75Z" fill="#433558"/>
<path d="M18.5 8.75H15V7.5C15 7.224 14.776 7 14.5 7H7.5C7.224 7 7 7.224 7 7.5V10.5C7 10.6325 7.05275 10.7597 7.1465 10.8535L8.1465 11.8535C8.24425 11.9513 8.372 12 8.5 12C8.628 12 8.75575 11.9513 8.8535 11.8535L9.707 11H11V11.75C11 12.026 11.224 12.25 11.5 12.25H16.293L17.1465 13.1035C17.2442 13.2013 17.372 13.25 17.5 13.25C17.628 13.25 17.7558 13.2013 17.8535 13.1035L18.8535 12.1035C18.9473 12.0097 19 11.8825 19 11.75V9.25C19 8.974 18.776 8.75 18.5 8.75ZM11 9.25V10H9.5C9.3675 10 9.24025 10.0528 9.1465 10.1465L8.5 10.7927L8 10.2927V8H14V8.75H11.5C11.224 8.75 11 8.974 11 9.25ZM18 11.5427L17.5 12.0427L16.8535 11.3965C16.7598 11.3028 16.6325 11.25 16.5 11.25H12V10.5V9.75H14.5H18V11.5427Z" fill="#433558"/>
<path d="M9.75 17.5C9.474 17.5 9.25 17.724 9.25 18V18.5C9.25 18.776 9.474 19 9.75 19C10.026 19 10.25 18.776 10.25 18.5V18C10.25 17.724 10.026 17.5 9.75 17.5Z" fill="#433558"/>
<path d="M16.5 18H16C15.724 18 15.5 18.224 15.5 18.5C15.5 18.776 15.724 19 16 19H16.5C16.776 19 17 18.776 17 18.5C17 18.224 16.776 18 16.5 18Z" fill="#433558"/>
</svg>
