<svg width="32" height="32" viewBox="0 0 32 32" fill="none" xmlns="http://www.w3.org/2000/svg">
<rect width="32" height="32" rx="16" fill="#C84461"/>
<path fill-rule="evenodd" clip-rule="evenodd" d="M16.0001 7.42871C11.2737 7.42871 7.42871 11.2741 7.42871 16.0001C7.42871 20.7262 11.2737 24.5716 16.0001 24.5716C20.7266 24.5716 24.5716 20.7262 24.5716 16.0001C24.5716 11.2741 20.7266 7.42871 16.0001 7.42871ZM16.0001 23.143C12.0616 23.143 8.85728 19.9387 8.85728 16.0001C8.85728 12.0616 12.0616 8.85728 16.0001 8.85728C19.9387 8.85728 23.143 12.0616 23.143 16.0001C23.143 19.9387 19.9387 23.143 16.0001 23.143ZM19.5716 15.2859H18.7634C18.6959 15.0248 18.593 14.7787 18.4587 14.5519L19.0309 13.9798C19.3098 13.7009 19.3098 13.2484 19.0309 12.9698C18.7519 12.6909 18.2998 12.6909 18.0205 12.9698L17.4487 13.5419C17.2219 13.408 16.9759 13.3048 16.7148 13.2373V12.4287C16.7148 12.0344 16.3948 11.7144 16.0005 11.7144C15.6062 11.7144 15.2862 12.0344 15.2862 12.4287V13.2369C15.0251 13.3044 14.7787 13.4073 14.5523 13.5416L13.9805 12.9694C13.7016 12.6905 13.2494 12.6905 12.9701 12.9694C12.6912 13.248 12.6912 13.7005 12.9701 13.9794L13.5423 14.5516C13.4084 14.7784 13.3051 15.0244 13.2376 15.2855H12.4287C12.0344 15.2855 11.7144 15.6055 11.7144 15.9998C11.7144 16.3941 12.0344 16.7141 12.4287 16.7141H13.2369C13.3044 16.9751 13.4073 17.2212 13.5416 17.448L12.9694 18.0201C12.6905 18.2991 12.6905 18.7516 12.9694 19.0301C13.1091 19.1698 13.2916 19.2394 13.4744 19.2394C13.6573 19.2394 13.8401 19.1698 13.9798 19.0301L14.5516 18.458C14.7784 18.5919 15.0244 18.6951 15.2855 18.7626V19.5716C15.2855 19.9659 15.6055 20.2859 15.9998 20.2859C16.3941 20.2859 16.7141 19.9659 16.7141 19.5716V18.7634C16.9751 18.6959 17.2216 18.593 17.448 18.4587L18.0198 19.0309C18.1594 19.1705 18.3423 19.2401 18.5251 19.2401C18.708 19.2401 18.8905 19.1705 19.0301 19.0309C19.3091 18.7523 19.3091 18.2998 19.0301 18.0209L18.458 17.4487C18.5919 17.2219 18.6951 16.9759 18.7626 16.7148H19.5716C19.9659 16.7148 20.2859 16.3948 20.2859 16.0005C20.2859 15.6062 19.9659 15.2859 19.5716 15.2859ZM16.0001 17.4287C15.2123 17.4287 14.5716 16.788 14.5716 16.0001C14.5716 15.2123 15.2123 14.5716 16.0001 14.5716C16.788 14.5716 17.4287 15.2123 17.4287 16.0001C17.4287 16.788 16.788 17.4287 16.0001 17.4287Z" fill="#F4D8E9"/>
</svg>
