<svg width="28" height="28" viewBox="0 0 28 28" fill="none" xmlns="http://www.w3.org/2000/svg">
<rect width="28" height="28" rx="14" fill="#DFDAE7" fill-opacity="0.5"/>
<path fill-rule="evenodd" clip-rule="evenodd" d="M13.9997 7.14258C10.2186 7.14258 7.14258 10.2189 7.14258 13.9997C7.14258 17.7806 10.2186 20.8569 13.9997 20.8569C17.7809 20.8569 20.8569 17.7806 20.8569 13.9997C20.8569 10.2189 17.7809 7.14258 13.9997 7.14258ZM13.9997 19.714C10.8489 19.714 8.28544 17.1506 8.28544 13.9997C8.28544 10.8489 10.8489 8.28544 13.9997 8.28544C17.1506 8.28544 19.714 10.8489 19.714 13.9997C19.714 17.1506 17.1506 19.714 13.9997 19.714ZM16.8569 13.4283H16.2103C16.1563 13.2194 16.074 13.0226 15.9666 12.8411L16.4243 12.3834C16.6474 12.1603 16.6474 11.7983 16.4243 11.5754C16.2011 11.3523 15.8394 11.3523 15.616 11.5754L15.1586 12.0331C14.9771 11.926 14.7803 11.8434 14.5714 11.7894V11.1426C14.5714 10.8271 14.3154 10.5711 14 10.5711C13.6846 10.5711 13.4286 10.8271 13.4286 11.1426V11.7891C13.2197 11.8432 13.0226 11.9254 12.8414 12.0329L12.384 11.5751C12.1609 11.352 11.7991 11.352 11.5757 11.5751C11.3526 11.798 11.3526 12.16 11.5757 12.3831L12.0334 12.8409C11.9263 13.0223 11.8437 13.2191 11.7897 13.428H11.1426C10.8271 13.428 10.5711 13.684 10.5711 13.9994C10.5711 14.3149 10.8271 14.5709 11.1426 14.5709H11.7891C11.8432 14.7797 11.9254 14.9766 12.0329 15.158L11.5751 15.6157C11.352 15.8389 11.352 16.2009 11.5751 16.4237C11.6869 16.5354 11.8329 16.5912 11.9791 16.5912C12.1254 16.5912 12.2717 16.5354 12.3834 16.4237L12.8409 15.966C13.0223 16.0732 13.2191 16.1557 13.428 16.2097V16.8569C13.428 17.1723 13.684 17.4283 13.9994 17.4283C14.3149 17.4283 14.5709 17.1723 14.5709 16.8569V16.2103C14.7797 16.1563 14.9769 16.074 15.158 15.9666L15.6154 16.4243C15.7271 16.536 15.8734 16.5917 16.0197 16.5917C16.166 16.5917 16.312 16.536 16.4237 16.4243C16.6469 16.2014 16.6469 15.8394 16.4237 15.6163L15.966 15.1586C16.0732 14.9771 16.1557 14.7803 16.2097 14.5714H16.8569C17.1723 14.5714 17.4283 14.3154 17.4283 14C17.4283 13.6846 17.1723 13.4283 16.8569 13.4283ZM13.9997 15.1426C13.3694 15.1426 12.8569 14.63 12.8569 13.9997C12.8569 13.3694 13.3694 12.8569 13.9997 12.8569C14.63 12.8569 15.1426 13.3694 15.1426 13.9997C15.1426 14.63 14.63 15.1426 13.9997 15.1426Z" fill="#433558"/>
</svg>
