<svg width="32" height="32" viewBox="0 0 32 32" fill="none" xmlns="http://www.w3.org/2000/svg">
<path d="M0 16C0 7.16344 7.16344 0 16 0C24.8366 0 32 7.16344 32 16C32 24.8366 24.8366 32 16 32C7.16344 32 0 24.8366 0 16Z" fill="#C84461"/>
<path d="M19.8345 12.5473L18.7669 13.3557C18.8774 13.5061 19.214 13.9636 19.214 14.2556C19.214 14.9037 18.696 15.4309 18.0594 15.4309C17.4227 15.4309 16.9047 14.9037 16.9047 14.2556C16.9047 14.0349 16.9711 13.7671 17.0966 13.4812C17.989 11.4484 17.4971 9.11778 15.8726 7.6817C15.837 7.65023 15.5777 7.42871 15.5777 7.42871H14.682L14.6303 8.04217C14.5213 9.33679 13.4539 10.7204 12.3238 12.1852C10.9216 14.0027 9.47168 15.8821 9.47168 18.0425C9.47168 21.6426 12.4006 24.5716 16.0007 24.5716C19.6008 24.5716 22.5297 21.6426 22.5297 18.0425C22.5297 16.1636 21.1983 14.2976 19.8345 12.5473ZM16.0007 23.1988C15.2991 23.1988 14.7284 22.6285 14.7284 21.9274C14.7284 21.499 15.1573 20.9136 15.5357 20.3972C15.7267 20.1365 15.9133 19.8819 16.0667 19.6264C16.7232 20.3061 17.273 21.2236 17.273 21.9274C17.273 22.6285 16.7022 23.1988 16.0007 23.1988ZM18.5316 22.5718C18.5842 22.3657 18.6123 22.1498 18.6123 21.9274C18.6123 20.4661 17.3622 18.7949 16.1861 17.9643L16.0124 17.8417H15.0967V18.5113C15.0967 18.7305 14.7261 19.2363 14.4555 19.6056C13.9556 20.2877 13.3891 21.0608 13.3891 21.9274C13.3891 22.1498 13.4172 22.3656 13.4698 22.5718C11.8847 21.6826 10.811 19.9858 10.811 18.0425C10.811 16.3387 12.1191 14.6431 13.3842 13.0033C14.3055 11.809 15.1894 10.6633 15.6498 9.47018C16.28 10.4817 16.3821 11.7769 15.8703 12.9428C15.668 13.4036 15.5654 13.8453 15.5654 14.2555C15.5654 15.6421 16.6842 16.7702 18.0594 16.7702C19.0102 16.7702 19.8384 16.231 20.259 15.4399C20.81 16.3364 21.1904 17.221 21.1904 18.0425C21.1904 19.9858 20.1167 21.6826 18.5316 22.5718Z" fill="#F4D8E9"/>
</svg>
