<svg width="35" height="35" xmlns="http://www.w3.org/2000/svg" fill="none">
<path fill="#433558" d="m1.5,17.5c0,-8.83656 7.16344,-16 16,-16l0,0c8.8366,0 16,7.16344 16,16l0,0c0,8.8366 -7.1634,16 -16,16l0,0c-8.83656,0 -16,-7.1634 -16,-16l0,0z"/>
<path fill="#C84461" d="m21.429,14.6791l0,-4.32182l1.0714,0c0.3943,0 0.7143,-0.32 0.7143,-0.71428c0,-0.39429 -0.32,-0.71429 -0.7143,-0.71429l-10,0c-0.3943,0 -0.7143,0.32 -0.7143,0.71429c0,0.39428 0.32,0.71428 0.7143,0.71428l1.0714,0l0,4.32182c0,1.1277 0.6662,2.1528 1.6968,2.6114l0.473,0.2096l-0.473,0.2103c-1.0306,0.458 -1.6968,1.483 -1.6968,2.6108l0,4.3218l-1.0714,0c-0.3943,0 -0.7143,0.32 -0.7143,0.7143c0,0.3943 0.32,0.7143 0.7143,0.7143l10,0c0.3943,0 0.7143,-0.32 0.7143,-0.7143c0,-0.3943 -0.32,-0.7143 -0.7143,-0.7143l-1.0714,0l0,-4.3218c0,-1.1278 -0.6662,-2.1528 -1.6968,-2.6114l-0.4729,-0.2097l0.4729,-0.2103c1.0306,-0.4579 1.6968,-1.483 1.6968,-2.6107zm-6.3233,9.9639c0.3084,-1.0315 1.2647,-1.7857 2.3947,-1.7857c1.13,0 2.0864,0.7542 2.3947,1.7857l-4.7894,0zm4.8947,-4.3218l0,2.0079c-0.6796,-0.5623 -1.551,-0.9004 -2.5,-0.9004c-0.949,0 -1.8204,0.3381 -2.5,0.9004l0,-2.0079c0,-0.564 0.3329,-1.0769 0.8482,-1.3053l1.6518,-0.7343l1.6518,0.734c0.5153,0.2291 0.8482,0.7416 0.8482,1.3056l0,0zm-0.8482,-4.3368l-1.6518,0.7343l-1.6518,-0.734c-0.5153,-0.2291 -0.8482,-0.7416 -0.8482,-1.3056l0,-4.32182l5,0l0,4.32182c0,0.564 -0.3329,1.0765 -0.8482,1.3053z"/>
<path stroke="null" fill="#C84461" d="m17.5,32c-8.00813,0 -14.5,-6.4919 -14.5,-14.5l-3,0c0,9.665 7.83502,17.5 17.5,17.5l0,-3zm14.5,-14.5c0,8.0081 -6.4919,14.5 -14.5,14.5l0,3c9.665,0 17.5,-7.835 17.5,-17.5l-3,0zm-14.5,-14.5c8.0081,0 14.5,6.49187 14.5,14.5l3,0c0,-9.66498 -7.835,-17.5 -17.5,-17.5l0,3zm0,-3c-9.66498,0 -17.5,7.83502 -17.5,17.5l3,0c0,-8.00813 6.49187,-14.5 14.5,-14.5l0,-3z"/>
</svg>