<svg width="28" height="28" viewBox="0 0 28 28" fill="none" xmlns="http://www.w3.org/2000/svg">
<rect width="28" height="28" rx="14" fill="#DFDAE7" fill-opacity="0.5"/>
<path d="M17.143 11.7429V8.28544H18.0001C18.3156 8.28544 18.5716 8.02944 18.5716 7.71401C18.5716 7.39858 18.3156 7.14258 18.0001 7.14258H10.0001C9.68471 7.14258 9.42871 7.39858 9.42871 7.71401C9.42871 8.02944 9.68471 8.28544 10.0001 8.28544H10.8573V11.7429C10.8573 12.6451 11.3902 13.4651 12.2147 13.832L12.5931 13.9997L12.2147 14.168C11.3902 14.5343 10.8573 15.3544 10.8573 16.2566V19.714H10.0001C9.68471 19.714 9.42871 19.97 9.42871 20.2854C9.42871 20.6009 9.68471 20.8569 10.0001 20.8569H18.0001C18.3156 20.8569 18.5716 20.6009 18.5716 20.2854C18.5716 19.97 18.3156 19.714 18.0001 19.714H17.143V16.2566C17.143 15.3544 16.6101 14.5343 15.7856 14.1674L15.4072 13.9997L15.7856 13.8315C16.6101 13.4651 17.143 12.6451 17.143 11.7429ZM12.0844 19.714C12.3311 18.8888 13.0961 18.2854 14.0001 18.2854C14.9042 18.2854 15.6692 18.8888 15.9159 19.714H12.0844ZM16.0001 16.2566V17.8629C15.4565 17.4131 14.7593 17.1426 14.0001 17.1426C13.2409 17.1426 12.5438 17.4131 12.0001 17.8629V16.2566C12.0001 15.8054 12.2665 15.3951 12.6787 15.2123L14.0001 14.6249L15.3216 15.2121C15.7338 15.3954 16.0001 15.8054 16.0001 16.2566ZM15.3216 12.7871L14.0001 13.3746L12.6787 12.7874C12.2665 12.6041 12.0001 12.1941 12.0001 11.7429V8.28544H16.0001V11.7429C16.0001 12.1941 15.7338 12.6041 15.3216 12.7871Z" fill="#433558"/>
</svg>
