<svg width="584" height="304.22" viewBox="64 22 456 238" fill="none" xmlns="http://www.w3.org/2000/svg" xmlns:xlink="http://www.w3.org/1999/xlink">
<path d="M64 34.7256C64 27.6975 69.6974 22 76.7256 22H507.274C514.303 22 520 27.6974 520 34.7256V259.544H64V34.7256Z" fill="url(#paint0_linear)"/>
<mask id="mask0" style="mask-type:alpha" maskUnits="userSpaceOnUse" x="64" y="22" width="456" height="238">
<path d="M64 34.7256C64 27.6975 69.6974 22 76.7256 22H507.274C514.303 22 520 27.6974 520 34.7256V259.544H64V34.7256Z" fill="url(#paint1_linear)"/>
</mask>
<g mask="url(#mask0)">
<path opacity="0.5" fill-rule="evenodd" clip-rule="evenodd" d="M68.5078 95.2304C65.2424 100.886 57.0789 100.886 53.8135 95.2305L4.70271 10.168C1.43733 4.51221 5.51905 -2.55756 12.0498 -2.55756L110.271 -2.55756C116.802 -2.55756 120.884 4.5122 117.619 10.168L68.5078 95.2304ZM131.132 213.112C127.867 218.768 119.703 218.768 116.438 213.112L67.3271 128.05C64.0617 122.394 68.1434 115.324 74.6742 115.324L172.896 115.324C179.427 115.324 183.508 122.394 180.243 128.05L131.132 213.112ZM168.012 -11.935C171.277 -17.5909 179.44 -17.5909 182.706 -11.935L231.817 73.1274C235.082 78.7832 231 85.853 224.469 85.853L126.248 85.853C119.717 85.853 115.635 78.7832 118.901 73.1274L168.012 -11.935ZM195.599 330.993C192.333 336.649 184.17 336.649 180.904 330.993L131.794 245.931C128.528 240.275 132.61 233.205 139.141 233.205L237.362 233.205C243.893 233.205 247.975 240.275 244.709 245.931L195.599 330.993ZM247.172 105.946C243.906 100.291 235.743 100.291 232.477 105.946L183.367 191.009C180.101 196.665 184.183 203.734 190.714 203.734L288.935 203.734C295.466 203.734 299.548 196.665 296.283 191.009L247.172 105.946ZM309.796 223.827C306.531 218.171 298.367 218.171 295.102 223.827L245.991 308.89C242.726 314.546 246.807 321.615 253.338 321.615L351.56 321.615C358.091 321.615 362.172 314.545 358.907 308.89L309.796 223.827ZM289.16 95.2306C285.895 100.886 277.731 100.886 274.466 95.2306L225.355 10.1681C222.09 4.51232 226.171 -2.55744 232.702 -2.55744L330.924 -2.55745C337.455 -2.55745 341.536 4.51231 338.271 10.1681L289.16 95.2306ZM351.785 213.112C348.519 218.768 340.356 218.768 337.09 213.112L287.979 128.05C284.714 122.394 288.796 115.324 295.327 115.324L393.548 115.324C400.079 115.324 404.161 122.394 400.895 128.05L351.785 213.112ZM388.664 -11.9349C391.929 -17.5907 400.093 -17.5907 403.358 -11.9349L452.469 73.1275C455.734 78.7833 451.653 85.8531 445.122 85.8531L346.9 85.8531C340.369 85.8531 336.288 78.7833 339.553 73.1275L388.664 -11.9349ZM416.251 330.993C412.986 336.649 404.822 336.649 401.557 330.993L352.446 245.931C349.181 240.275 353.262 233.205 359.793 233.205L458.015 233.205C464.545 233.205 468.627 240.275 465.362 245.931L416.251 330.993ZM467.824 105.947C464.559 100.291 456.395 100.291 453.13 105.947L404.019 191.009C400.754 196.665 404.835 203.735 411.366 203.735L509.588 203.735C516.119 203.735 520.2 196.665 516.935 191.009L467.824 105.947ZM530.448 223.827C527.182 218.171 519.019 218.171 515.753 223.827L466.643 308.89C463.377 314.546 467.459 321.615 473.99 321.615L572.211 321.615C578.742 321.615 582.824 314.545 579.559 308.89L530.448 223.827Z" fill="url(#paint2_linear)"/>
</g>
<g filter="url(#filter0_d)">
<path d="M64 34.7256C64 27.6975 69.6974 22 76.7256 22H507.274C514.303 22 520 27.6974 520 34.7256V259.544H64V34.7256Z" fill="url(#pattern0)"/>
</g>
<g filter="url(#filter1_d)">
<circle cx="292" cy="117.442" r="47.7209" fill="url(#paint3_linear)"/>
<circle cx="292" cy="117.442" r="46.6605" stroke="#F4D8E9" stroke-width="2.12093"/>
</g>
<g clip-path="url(#clip0)">
<path d="M307.084 120.902C309.21 117.771 306.964 113.485 303.149 113.485C299.336 113.485 297.089 117.769 299.213 120.901C298.491 121.314 297.854 121.825 297.302 122.427C295.963 121.096 294.362 120.029 292.585 119.308C294.167 117.855 295.161 115.772 295.161 113.46C295.161 109.083 291.599 105.521 287.222 105.521C282.844 105.521 279.283 109.083 279.283 113.46C279.283 115.772 280.276 117.856 281.858 119.308C276.617 121.434 272.912 126.579 272.912 132.574C272.912 133.439 273.614 134.141 274.479 134.141C275.345 134.141 276.047 133.439 276.047 132.574C276.047 126.412 281.06 121.399 287.222 121.399C293.383 121.399 298.396 126.412 298.396 132.574C298.396 133.439 299.098 134.141 299.964 134.141C300.83 134.141 301.532 133.439 301.532 132.574C301.532 129.758 300.714 127.13 299.304 124.914C300.179 123.74 301.571 122.992 303.154 122.992C305.801 122.995 307.953 125.148 307.953 127.795V132.574C307.953 133.439 308.655 134.141 309.52 134.141C310.386 134.141 311.088 133.439 311.088 132.574V127.795C311.088 124.849 309.475 122.272 307.084 120.902ZM282.418 113.46C282.418 110.812 284.573 108.657 287.222 108.657C289.87 108.657 292.025 110.812 292.025 113.46C292.025 116.109 289.87 118.264 287.222 118.264C284.573 118.264 282.418 116.109 282.418 113.46ZM301.532 118.239C301.532 117.347 302.257 116.621 303.149 116.621C304.041 116.621 304.767 117.347 304.767 118.239C304.767 119.127 304.045 119.856 303.149 119.856C302.249 119.856 301.532 119.123 301.532 118.239Z" fill="white"/>
<path d="M299.964 107.064H301.581V108.682C301.581 109.548 302.283 110.25 303.149 110.25C304.015 110.25 304.717 109.548 304.717 108.682V107.064H306.335C307.201 107.064 307.903 106.362 307.903 105.496C307.903 104.63 307.201 103.928 306.335 103.928H304.717V102.311C304.717 101.445 304.015 100.743 303.149 100.743C302.283 100.743 301.581 101.445 301.581 102.311V103.928H299.964C299.098 103.928 298.396 104.63 298.396 105.496C298.396 106.362 299.098 107.064 299.964 107.064Z" fill="white"/>
</g>
<defs>
<filter id="filter0_d" x="0.372093" y="0.790695" width="583.256" height="364.8" filterUnits="userSpaceOnUse" color-interpolation-filters="sRGB">
<feFlood flood-opacity="0" result="BackgroundImageFix"/>
<feColorMatrix in="SourceAlpha" type="matrix" values="0 0 0 0 0 0 0 0 0 0 0 0 0 0 0 0 0 0 127 0" result="hardAlpha"/>
<feOffset dy="42.4186"/>
<feGaussianBlur stdDeviation="31.814"/>
<feColorMatrix type="matrix" values="0 0 0 0 0.0208333 0 0 0 0 0.0208333 0 0 0 0 0.0208333 0 0 0 0.3 0"/>
<feBlend mode="normal" in2="BackgroundImageFix" result="effect1_dropShadow"/>
<feBlend mode="normal" in="SourceGraphic" in2="effect1_dropShadow" result="shape"/>
</filter>
<filter id="filter1_d" x="175.349" y="34.7256" width="233.302" height="233.302" filterUnits="userSpaceOnUse" color-interpolation-filters="sRGB">
<feFlood flood-opacity="0" result="BackgroundImageFix"/>
<feColorMatrix in="SourceAlpha" type="matrix" values="0 0 0 0 0 0 0 0 0 0 0 0 0 0 0 0 0 0 127 0" result="hardAlpha"/>
<feOffset dy="33.9349"/>
<feGaussianBlur stdDeviation="34.4651"/>
<feColorMatrix type="matrix" values="0 0 0 0 0 0 0 0 0 0 0 0 0 0 0 0 0 0 0.25 0"/>
<feBlend mode="normal" in2="BackgroundImageFix" result="effect1_dropShadow"/>
<feBlend mode="normal" in="SourceGraphic" in2="effect1_dropShadow" result="shape"/>
</filter>
<linearGradient id="paint0_linear" x1="105.463" y1="75.1461" x2="171.996" y2="308.669" gradientUnits="userSpaceOnUse">
<stop stop-color="#D92779"/>
<stop offset="1" stop-color="#7C277E"/>
</linearGradient>
<linearGradient id="paint1_linear" x1="105.463" y1="75.1461" x2="171.996" y2="308.669" gradientUnits="userSpaceOnUse">
<stop stop-color="#D92779"/>
<stop offset="1" stop-color="#7C277E"/>
</linearGradient>
<linearGradient id="paint2_linear" x1="305.334" y1="303.282" x2="594.296" y2="143.745" gradientUnits="userSpaceOnUse">
<stop stop-color="#7C277E"/>
<stop offset="1" stop-color="#D92779"/>
</linearGradient>
<linearGradient id="paint3_linear" x1="252.957" y1="91.0743" x2="295.664" y2="169.159" gradientUnits="userSpaceOnUse">
<stop stop-color="#D92779"/>
<stop offset="1" stop-color="#7C277E"/>
</linearGradient>
<clipPath id="clip0">
<rect width="38.1767" height="38.1767" fill="white" transform="translate(272.912 98.3535)"/>
</clipPath>
</defs>
</svg>
